<?xml version="1.0" encoding="UTF-8"?><svg id="_레이어_1" xmlns="http://www.w3.org/2000/svg" viewBox="0 0 1920 1080"><defs><style>.cls-1{stroke-width:2.3px;}.cls-1,.cls-2,.cls-3,.cls-4,.cls-5{stroke:#ff4c46;stroke-miterlimit:10;}.cls-1,.cls-2,.cls-4{fill:#f2f6f7;}.cls-2,.cls-5{stroke-width:2px;}.cls-3{stroke-width:1.87px;}.cls-6{fill:#ff4c46;}.cls-4{stroke-width:2.29px;}.cls-5{fill:#fff;}</style></defs><rect class="cls-6" width="1920" height="1080"/><rect class="cls-2" x="452.5" y="241.8" width="304.23" height="194.6"/><rect class="cls-5" x="444.03" y="233.33" width="304.23" height="194.6"/><rect class="cls-2" x="435.56" y="224.86" width="304.23" height="194.6"/><rect class="cls-2" x="427.09" y="216.39" width="304.23" height="194.6"/><rect class="cls-2" x="820.92" y="214.15" width="304.23" height="194.6"/><rect class="cls-2" x="812.45" y="205.68" width="304.23" height="194.6"/><rect class="cls-5" x="803.98" y="197.21" width="304.23" height="194.6"/><rect class="cls-2" x="795.51" y="188.74" width="304.23" height="194.6"/><rect class="cls-2" x="1184.28" y="284.16" width="304.23" height="194.6"/><rect class="cls-2" x="1175.81" y="267.21" width="304.23" height="194.6"/><rect class="cls-5" x="1167.33" y="250.27" width="304.23" height="194.6"/><rect class="cls-2" x="1204.7" y="233.33" width="304.23" height="194.6"/><rect class="cls-2" x="751.7" y="499.71" width="366.07" height="194.6"/><rect class="cls-2" x="741.51" y="482.77" width="366.07" height="194.6"/><rect class="cls-5" x="731.32" y="465.83" width="366.07" height="194.6"/><rect class="cls-2" x="776.28" y="448.88" width="366.07" height="194.6"/><rect class="cls-1" x="401.34" y="478.39" width="268.2" height="107.94"/><rect class="cls-4" x="390.93" y="468.15" width="267.32" height="107.94"/><rect class="cls-2" x="459.94" y="614.95" width="304.23" height="194.6"/><rect class="cls-5" x="431.32" y="637.94" width="304.23" height="194.6"/><rect class="cls-2" x="422.85" y="629.47" width="304.23" height="194.6"/><rect class="cls-2" x="1224.84" y="521.4" width="304.23" height="194.6"/><rect class="cls-2" x="1216.37" y="512.93" width="304.23" height="194.6"/><rect class="cls-2" x="1207.9" y="504.46" width="304.23" height="194.6"/><rect class="cls-2" x="1199.43" y="495.99" width="304.23" height="194.6"/><rect class="cls-5" x="879.98" y="740.67" width="304.23" height="194.6"/><rect class="cls-2" x="871.51" y="732.2" width="304.23" height="194.6"/><rect class="cls-2" x="863.04" y="723.73" width="304.23" height="194.6"/><rect class="cls-2" x="854.57" y="715.26" width="304.23" height="194.6"/><rect class="cls-5" x="1293.21" y="735.95" width="202.64" height="187.1"/><rect class="cls-2" x="1284.09" y="727.97" width="202.64" height="187.1"/><path class="cls-6" d="M448.51,241.11h-10v-2.2h19.12v2.2h-6.76v4.93h-2.36v-4.93ZM440.1,230.6c0-1.24.3-2.34.89-3.29.6-.96,1.42-1.71,2.48-2.26,1.06-.55,2.26-.83,3.61-.83,1.87,0,3.45.49,4.73,1.47,1.28.98,2.05,2.27,2.3,3.87h6.28v-4.15h-2.3v-2.03h4.66v23.31h-2.36v-14.93h-6.32c-.27,1.51-1.04,2.74-2.3,3.68s-2.83,1.42-4.7,1.42c-1.35,0-2.56-.27-3.61-.81-1.06-.54-1.89-1.28-2.48-2.21s-.89-2.01-.89-3.23ZM442.46,230.6c0,1.17.43,2.14,1.3,2.9.87.77,1.98,1.15,3.33,1.15s2.53-.38,3.41-1.15c.88-.77,1.32-1.73,1.32-2.9s-.45-2.22-1.35-3.01c-.9-.79-2.06-1.18-3.48-1.18-1.31,0-2.39.39-3.24,1.18-.86.79-1.28,1.79-1.28,3.01ZM442.73,253.03v-9.29h2.37v7.09h19.29v2.2h-21.65Z"/><path class="cls-6" d="M469.79,240.6l-1.52-1.59,7.4-5.88v-4.32h-6.49v-2.09h6.49v-3.72h2.36v3.72h6.45v2.09h-6.45v4.42l7.5,5.78-1.52,1.59-7.26-5.54-6.96,5.54ZM488.91,245.13h-17.19v-2.2h19.56v10.54h-2.36v-8.34ZM488.88,225.4h-2.2v-2.2h4.56v18.07h-2.36v-15.88Z"/><path class="cls-6" d="M522.45,238.78h-27.16v-2.2h27.16v2.2ZM516.71,243.54h-17.87v-2.2h20.23v7.06h-17.87v2.84h18.78v2.2h-21.15v-7.23h17.87v-2.67ZM499.31,229.15c0-1.04.41-1.95,1.22-2.75s1.94-1.42,3.39-1.88c1.45-.45,3.11-.68,4.98-.68s3.56.23,5,.68c1.44.45,2.57,1.08,3.38,1.88.81.8,1.22,1.72,1.22,2.75s-.41,1.96-1.22,2.77c-.81.81-1.94,1.44-3.38,1.89-1.44.45-3.11.68-5,.68s-3.53-.22-4.98-.68c-1.45-.45-2.58-1.08-3.39-1.89s-1.22-1.73-1.22-2.77ZM501.68,229.15c0,.61.31,1.15.93,1.64.62.48,1.47.86,2.55,1.13s2.33.41,3.75.41,2.67-.14,3.77-.41,1.94-.65,2.55-1.13c.61-.48.91-1.03.91-1.64s-.3-1.14-.91-1.6c-.61-.46-1.46-.82-2.55-1.08-1.09-.26-2.35-.39-3.77-.39s-2.67.13-3.75.39c-1.08.26-1.93.62-2.55,1.08-.62.46-.93,1-.93,1.6Z"/><path class="cls-6" d="M457.02,295.63h-2.36v-7.36h-14.66v-18.92h2.36v16.72h12.29v-18.07h-2.2v-2.2h4.56v12.33h4.83v-12.33h2.36v29.83h-2.36v-15.3h-4.83v15.3Z"/><path class="cls-6" d="M489.28,270.33h-3.28v-2.2h15.71v2.2h-3.48v10.74h5.34v2.2h-17.56v-2.2h3.28v-10.74ZM511.2,295.33h-20.06v-9.26h2.36v7.06h17.7v2.2ZM491.64,270.33v10.74h4.22v-10.74h-4.22ZM507.42,279.39h-5.3v-2.2h5.3v-2.91h-5.3v-2.2h5.3v-3.88h-2.2v-2.2h4.56v22.09h-2.37v-8.71Z"/><path class="cls-6" d="M530.83,271.99h-16.75v-2.2h7.03v-3.45h2.37v3.45h7.36v2.2ZM515.56,279.32c0-1.13.3-2.12.89-2.99.6-.87,1.42-1.55,2.48-2.04,1.06-.49,2.26-.74,3.61-.74s2.54.25,3.58.74c1.04.5,1.85,1.18,2.43,2.04.59.87.88,1.86.88,2.99s-.29,2.13-.88,3.01c-.59.88-1.4,1.56-2.43,2.06-1.04.5-2.23.74-3.58.74s-2.56-.25-3.61-.74c-1.06-.5-1.89-1.18-2.48-2.06-.6-.88-.89-1.88-.89-3.01ZM517.92,279.35c0,1.04.43,1.89,1.3,2.57.87.68,1.98,1.01,3.33,1.01s2.42-.33,3.26-.98c.84-.65,1.27-1.5,1.27-2.53s-.42-1.96-1.27-2.65c-.84-.69-1.93-1.03-3.26-1.03s-2.46.34-3.33,1.01c-.87.68-1.3,1.54-1.3,2.6ZM518.46,295.7v-8.44h2.37v6.25h18.24v2.2h-20.6ZM534.41,268.04h-2.2v-2.2h4.56v10.57h4.86v2.2h-4.86v10.5h-2.36v-21.08Z"/><path class="cls-6" d="M558.02,287.76h-14.83v-17.4h11.04v2.2h-8.68v13h12.46v-16.96h-2.2v-2.2h4.56v11.45h4.36v-11.45h2.37v29.35h-2.37v-15.71h-4.36v15.71h-2.36v-8.01Z"/><path class="cls-6" d="M574.3,282.83v-8.51h16.82v-3.45h-16.82v-2.2h19.19v7.84h-16.82v4.12h16.82v2.2h-8.34v7.6h12.53v2.2h-27.43v-2.2h12.53v-7.6h-8.48Z"/><path class="cls-6" d="M453.75,316.17h-15.23v-2.2h6.38v-4.66h2.36v4.66h6.49v2.2ZM446.01,330.83c-1.22,0-2.31-.28-3.29-.83-.98-.55-1.76-1.29-2.33-2.23s-.86-1.98-.86-3.12.29-2.22.86-3.16c.57-.93,1.35-1.68,2.33-2.23.98-.55,2.08-.83,3.29-.83s2.27.28,3.24.83c.97.55,1.73,1.3,2.3,2.23.56.93.84,1.99.84,3.16s-.28,2.19-.84,3.12c-.56.93-1.33,1.68-2.3,2.23-.97.55-2.05.83-3.24.83ZM441.89,324.72c0,.72.19,1.38.56,1.98.37.6.87,1.07,1.49,1.42.62.35,1.31.52,2.08.52,1.12,0,2.08-.37,2.85-1.11.78-.74,1.17-1.66,1.17-2.74,0-1.17-.39-2.16-1.17-2.96-.78-.8-1.73-1.2-2.85-1.2-.77,0-1.46.18-2.08.54s-1.11.85-1.49,1.47c-.37.62-.56,1.31-.56,2.08ZM455.06,310.7h-1.86v-2.2h4.22v12.63h3.95v-12.63h2.37v29.93h-2.37v-15.1h-3.95v15.1h-2.36v-27.73Z"/><path class="cls-6" d="M468.95,325.9l-1.55-1.55,7.23-7.67v-6.76h2.36v6.79l7.13,6.62-1.62,1.76-6.69-6.42-6.86,7.23ZM489.28,330.56h-17.56v-2.09h19.93v10.34h-2.36v-8.24ZM489.25,317.63h-6.65v-2.2h6.65v-4.73h-2.2v-2.2h4.56v18.38h-2.37v-9.25Z"/><path class="cls-6" d="M510.49,316.17h-15.23v-2.2h6.38v-4.66h2.36v4.66h6.49v2.2ZM502.76,330.83c-1.22,0-2.31-.28-3.29-.83-.98-.55-1.76-1.29-2.33-2.23s-.86-1.98-.86-3.12.29-2.22.86-3.16c.57-.93,1.35-1.68,2.33-2.23.98-.55,2.08-.83,3.29-.83s2.27.28,3.24.83c.97.55,1.73,1.3,2.3,2.23.56.93.84,1.99.84,3.16s-.28,2.19-.84,3.12c-.56.93-1.33,1.68-2.3,2.23-.97.55-2.05.83-3.24.83ZM498.64,324.72c0,.72.19,1.38.56,1.98.37.6.87,1.07,1.49,1.42.62.35,1.31.52,2.08.52,1.12,0,2.08-.37,2.85-1.11.78-.74,1.17-1.66,1.17-2.74,0-1.17-.39-2.16-1.17-2.96-.78-.8-1.73-1.2-2.85-1.2-.77,0-1.46.18-2.08.54s-1.11.85-1.49,1.47c-.37.62-.56,1.31-.56,2.08ZM511.81,310.7h-1.86v-2.2h4.22v12.63h3.95v-12.63h2.37v29.93h-2.37v-15.1h-3.95v15.1h-2.36v-27.73Z"/><path class="cls-6" d="M548.02,338.5h-2.36v-16.72h-7.33v8.28h-12.9v-18.14h2.36v7.67h8.17v-7.67h2.36v7.67h7.33v-9.05h-2.2v-2.03h4.56v29.99ZM527.79,321.78v6.08h8.17v-6.08h-8.17Z"/><path class="cls-6" d="M576.46,326.24h-2.36v-1.42h-20.03v-8.82h11.08v-3.55h-10.91v-2.2h13.27v7.94h-11.08v4.42h17.67v-11.86h-2.2v-2.03h4.56v17.5ZM557.54,337.25h-.03v-9.26h18.88v10.3h-18.85v-1.05ZM559.81,330.12v6.05h14.29v-6.05h-14.29Z"/><path class="cls-6" d="M828.21,249.49h-19.96v-14.15h13.92v2.2h-11.55v3.72h10.71v2.2h-10.71v3.85h17.6v-11.55h-2.2v-2.2h4.56v18.1h-2.36v-2.16ZM830.6,263.27h-19.08v-10.07h19.08v10.07ZM813.88,255.2v5.88h14.36v-5.88h-14.36Z"/><path class="cls-6" d="M848.78,248.07h-12.5v-13.11h2.36v3.61h7.77v-3.61h2.36v3.61h7.67v-2.87h-2.2v-2.2h4.56v15.77h-2.36v-3.58h-7.67v2.36ZM838.64,240.67v5.27h7.77v-5.27h-7.77ZM860.5,262.83h-20.13v-7.06h16.08v-2.74h-16.08v-2.2h18.44v7.13h-16.08v2.67h17.77v2.2ZM848.78,240.67v2.94h7.67v-2.94h-7.67Z"/><path class="cls-6" d="M866.85,250.17v-8.51h16.82v-3.45h-16.82v-2.2h19.19v7.84h-16.82v4.12h16.82v2.2h-8.34v7.6h12.53v2.2h-27.43v-2.2h12.53v-7.6h-8.48Z"/><path class="cls-6" d="M911.03,250.5l-1.66-1.45,6.55-7.57v-6.18h2.37v6.49l6.32,7.26-1.66,1.45-5.95-6.86-5.98,6.86ZM932.14,255.81h-17.46v-2.2h19.83v9.86h-2.36v-7.67ZM925.99,236.32h-2.2v-2.2h4.56v7.33h3.95v-7.33h2.36v17.29h-2.36v-7.77h-3.95v7.77h-2.36v-15.1Z"/><path class="cls-6" d="M965.24,259.96h-27.53v-2.2h12.57v-7.6h-8.44v-14.15h19.19v2.2h-16.82v9.76h16.82v2.2h-8.38v7.6h12.6v2.2Z"/><path class="cls-6" d="M1005,254.96h-19.02l.07-16.58v-1.25h13.61v2.2h-11.25l-.07,13.44h16.65v-17.56h-2.2v-2.2h4.56v11.99h5.2v2.2h-5.2v15.77h-2.36v-8.01Z"/><path class="cls-6" d="M1040.19,259.96h-27.43v-2.2h27.43v2.2ZM1016.82,251.52v-9.53h16.82v-3.78h-16.82v-2.2h19.19v8.17h-16.82v5.13h16.82v2.2h-19.19Z"/><path class="cls-6" d="M1067.93,259.49h-26.18v-2.2h10.44v-10.71h2.37v10.71h7.46v-19.08h-16.82v-2.2h19.19v21.28h3.55v2.2Z"/><path class="cls-6" d="M807.06,291.11c1.4-.31,2.75-.8,4.07-1.45,1.32-.65,2.44-1.41,3.36-2.26,1.13-1.06,2.05-2.18,2.79-3.38.73-1.19,1.19-2.39,1.37-3.58h-10.61v-2.3h13.07v.61c0,1.31-.24,2.58-.71,3.82-.47,1.24-1.09,2.4-1.86,3.48-.77,1.08-1.6,2.05-2.5,2.9-1.06.99-2.3,1.85-3.73,2.58-1.43.73-2.92,1.27-4.48,1.6l-.78-2.03ZM829.46,305.84h-2.36v-8.48h-16.52v-2.2h18.88v10.67ZM826.75,278.34h-2.2v-2.2h4.56v7.7h4.53v2.2h-4.53v7.67h-2.36v-15.37Z"/><path class="cls-6" d="M843.17,281.96h-6.99v-2.2h16.32v2.2h-6.96v7.23l8.04,9.8-1.69,1.39-7.5-9.12-7.23,9.12-1.72-1.35,7.73-9.76v-7.3ZM856.75,278.14h-2.2v-2.2h4.56v12.13h5.51v2.2h-5.51v15.67h-2.36v-27.8Z"/><path class="cls-6" d="M885.19,299.52l-1.72-1.35,7.84-9.9v-9.59h2.36v9.59l7.87,9.9-1.76,1.35-7.3-9.19-7.3,9.19ZM906.64,305.84h-2.36v-27.97h-2.2v-2.03h4.56v11.48h5v2.2h-5v16.31Z"/><path class="cls-6" d="M914.24,293.41l-1.49-1.62,7.4-6.86v-4.42h-7.09v-2.2h16.18v2.2h-6.72v4.42l7.4,6.86-1.49,1.62-7.09-6.59-7.09,6.59ZM917.11,300.8c0-1.71.9-3.07,2.7-4.07,1.8-1,4.23-1.5,7.3-1.5,2.05-.02,3.82.2,5.32.66,1.5.46,2.66,1.11,3.48,1.94.82.83,1.23,1.82,1.23,2.97s-.41,2.11-1.23,2.96c-.82.84-1.98,1.49-3.48,1.94-1.5.45-3.27.68-5.32.68-3.06,0-5.49-.5-7.3-1.5-1.8-1-2.7-2.36-2.7-4.07ZM919.47,300.8c0,1.04.69,1.86,2.06,2.47,1.37.61,3.23.91,5.57.91s4.21-.3,5.59-.91c1.38-.61,2.08-1.43,2.08-2.47s-.69-1.86-2.08-2.47c-1.39-.61-3.25-.91-5.59-.91s-4.2.3-5.57.91c-1.37.61-2.06,1.43-2.06,2.47ZM934.33,286.28h-6.08v-2.2h6.08v-5.67h-2.2v-2.2h4.56v18h-2.36v-7.94Z"/><path class="cls-6" d="M967.94,302.63h-27.53v-2.2h12.57v-7.6h-8.44v-14.15h19.19v2.2h-16.82v9.76h16.82v2.2h-8.38v7.6h12.6v2.2Z"/><path class="cls-6" d="M1002.09,290.54h-13.17v-12.4h13.17v12.4ZM990.58,304.25l-.17-10.3h2.4v9.36h8.07c-.11-.41-.17-.81-.17-1.22,0-1.4.51-2.5,1.52-3.33,1.01-.82,2.38-1.23,4.09-1.23,1.8-.02,3.23.38,4.29,1.2,1.06.82,1.59,1.94,1.59,3.36,0,1.31-.53,2.34-1.59,3.09-1.06.75-2.49,1.13-4.29,1.13-1.46,0-2.66-.27-3.58-.81h-12.16v-1.25ZM991.28,280.33v8.01h8.44v-8.01h-8.44ZM1012.94,296.82h-13.07v-2.2h5.27v-2.97h2.36v2.97h5.44v2.2ZM1003,302.09c0,.63.3,1.14.9,1.52.6.38,1.4.57,2.42.57,1.1,0,1.98-.19,2.62-.57.64-.38.96-.89.96-1.52,0-.74-.32-1.33-.96-1.77-.64-.44-1.51-.66-2.62-.66-1.01,0-1.82.22-2.42.66-.6.44-.9,1.03-.9,1.77ZM1010.4,291.35h-2.36v-13.48h-2.2v-2.2h4.56v6.82h4.15v2.2h-4.15v6.65Z"/><path class="cls-6" d="M1042.79,292.87h-27.36v-2.2h27.36v2.2ZM1039.11,305.77h-19.86v-9.66h19.86v9.66ZM1019.52,282.53c0-1.1.41-2.08,1.22-2.92.81-.84,1.94-1.51,3.39-1.99,1.45-.48,3.11-.73,4.98-.73s3.56.24,5,.73c1.44.48,2.57,1.15,3.38,1.99.81.84,1.22,1.82,1.22,2.92s-.41,2.08-1.22,2.94c-.81.86-1.94,1.53-3.38,2.01-1.44.48-3.11.73-5,.73s-3.53-.24-4.98-.73-2.58-1.15-3.39-2.01-1.22-1.84-1.22-2.94ZM1021.62,298.3v5.27h15.13v-5.27h-15.13ZM1021.89,282.53c0,.68.31,1.28.93,1.81.62.53,1.47.95,2.55,1.25,1.08.3,2.33.46,3.75.46s2.67-.15,3.77-.46c1.09-.3,1.94-.72,2.55-1.25.61-.53.91-1.13.91-1.81s-.3-1.27-.91-1.77c-.61-.51-1.46-.91-2.55-1.2-1.09-.29-2.35-.44-3.77-.44s-2.67.15-3.75.44c-1.08.29-1.93.69-2.55,1.2-.62.51-.93,1.1-.93,1.77Z"/><path class="cls-6" d="M1217.22,268.3l-1.72-1.35,7.7-8.75v-10.23h2.36v10.1l8.07,8.85-1.69,1.39-7.5-8.24-7.23,8.24ZM1239.88,274.92h-2.36v-17.67h-6.89v-2.2h6.89v-7.94h-2.2v-2.2h4.56v29.99Z"/><path class="cls-6" d="M1256.77,267.15h-11.86v-18.81h2.36v8.34h7.13v-8.34h2.37v8.34h4.05v-9.73h-2.2v-2.2h4.56v30.1h-2.36v-15.98h-4.05v8.28ZM1247.28,258.87v6.08h7.13v-6.08h-7.13ZM1269.77,274.85h-2.36v-30.1h2.36v30.1Z"/><path class="cls-6" d="M1273.32,258.23c0-1.96.3-3.65.91-5.08.61-1.43,1.48-2.53,2.62-3.31s2.48-1.17,4.04-1.17c1.53.05,2.86.47,3.99,1.27s1.99,1.9,2.6,3.31c.61,1.41.91,3.07.91,4.98s-.3,3.61-.91,5.03c-.61,1.42-1.47,2.51-2.6,3.28-1.13.77-2.46,1.15-3.99,1.15s-2.9-.38-4.04-1.15c-1.14-.77-2.01-1.86-2.62-3.28-.61-1.42-.91-3.1-.91-5.03ZM1275.68,258.23c0,2.23.47,4,1.4,5.3.93,1.31,2.2,1.96,3.8,1.96s2.83-.65,3.75-1.96c.92-1.31,1.38-3.07,1.38-5.3s-.46-4.07-1.38-5.39c-.92-1.32-2.17-1.98-3.75-1.98s-2.87.66-3.8,1.98-1.4,3.11-1.4,5.39ZM1296.42,274.92h-2.36v-27.8h-2.2v-2.2h4.56v29.99Z"/><path class="cls-6" d="M1319.93,274.85h-2.36v-16.28h-4.02c-.23,5.27-2.38,7.9-6.45,7.9-4.37,0-6.55-2.98-6.55-8.95s2.18-9.05,6.55-9.05c4.03.13,6.18,2.77,6.45,7.9h4.02v-9.42h-2.2v-2.2h4.56v30.1ZM1302.91,257.52c0,4.5,1.4,6.76,4.19,6.76s4.12-2.25,4.12-6.76-1.37-6.86-4.12-6.86-4.19,2.29-4.19,6.86ZM1325.84,274.85h-2.36v-30.1h2.36v30.1Z"/><path class="cls-6" d="M1330.03,263.2l-1.52-1.59,8.11-7.8v-6.86h2.36v7.06l7.46,6.92-1.52,1.59-7.26-6.69-7.63,7.36ZM1354.39,274.41h-20.3v-9.12h2.36v6.92h17.94v2.2ZM1350.98,254.04h-6.62v-2.2h6.62v-4.9h-2.2v-2.03h4.56v22.36h-2.36v-13.24Z"/><path class="cls-6" d="M1390.56,259.55h-13.07v-12.73h13.07v2.23h7.26v-2.03h-2.2v-2.2h4.56v17.7h-2.36v-5.88h-7.26v2.9ZM1380.83,275.69l-1.15-1.79,9.83-6.05v-1.25h-8.68v-2.13h8.68v-3.11h2.3v3.11h8.65v2.13h-8.65v1.28l9.76,6.01-1.15,1.79-9.79-6.05-9.8,6.05ZM1379.85,248.84v8.51h8.34v-8.51h-8.34ZM1390.56,251.24v3.21h7.26v-3.21h-7.26Z"/><path class="cls-6" d="M1439.78,263.03h-15.88v-15.64h2.36v13.44h13.51v2.2ZM1447.68,274.92h-19.79v-9.12h2.36v6.92h17.43v2.2ZM1444.07,257.42h-8.41v-2.2h8.41v-2.74h-8.41v-2.2h8.41v-3.14h-2.2v-2.2h4.56v22.12h-2.36v-9.66Z"/><path class="cls-6" d="M1453.42,252.19h-3.41v-2.2h16.08v2.2h-3.45v10.13l4.39,4.53-1.65,1.49-3.95-4.12-3.34,2.97-3.45-3.01-3.99,4.15-1.66-1.49,4.42-4.56v-10.1ZM1455.79,252.19v10.3l2.3,1.93,2.2-1.93v-10.3h-4.49ZM1468.22,247.49h-2.36v-2.03h4.56v11.75h3.88v-11.79h2.36v29.42h-2.36v-15.61h-3.88v15.61h-2.2v-27.36Z"/><path class="cls-6" d="M1232.21,293.3h-16.69v-2.2h7.3v-3.48h2.36v3.48h7.03v2.2ZM1217.15,300.22c0-1.08.29-2.03.86-2.84.57-.81,1.37-1.45,2.4-1.91,1.02-.46,2.21-.69,3.56-.69,1.82,0,3.35.44,4.59,1.32h8.88v-6.62h-2.2v-2.2h4.56v19.25h-2.37v-2.67h-8.34c-.61.56-1.35,1-2.23,1.3-.88.3-1.85.46-2.9.46-1.35,0-2.54-.23-3.56-.69s-1.82-1.1-2.4-1.91-.86-1.74-.86-2.8ZM1219.51,300.26c0,.92.42,1.68,1.25,2.28.83.6,1.9.9,3.21.9s2.33-.29,3.14-.88,1.22-1.33,1.22-2.23c0-.99-.41-1.8-1.22-2.42-.81-.62-1.86-.93-3.14-.93s-2.38.3-3.21.91c-.83.61-1.25,1.4-1.25,2.36ZM1221.13,317.28v-9.96h2.36v3.01h13.98v-3.01h2.36v9.96h-18.71ZM1223.5,312.52v2.57h13.98v-2.57h-13.98ZM1230.32,298.3c.25.61.37,1.25.37,1.93,0,.5-.07.98-.2,1.45h6.96v-3.38h-7.13Z"/><path class="cls-6" d="M1245.05,296.41c0-1.37.3-2.58.91-3.63.61-1.05,1.46-1.87,2.55-2.47,1.09-.6,2.34-.9,3.73-.9,1.87,0,3.43.52,4.7,1.57,1.26,1.05,2.01,2.44,2.26,4.17h6.92v-5h-2.2v-2.2h4.56v16.21h-2.36v-6.82h-6.86c-.13,1.24-.51,2.33-1.13,3.28-.62.95-1.44,1.68-2.45,2.21-1.01.53-2.16.79-3.45.79-1.4,0-2.64-.31-3.73-.93-1.09-.62-1.94-1.47-2.55-2.55-.61-1.08-.91-2.33-.91-3.75ZM1247.41,296.44c0,1.46.44,2.66,1.33,3.6.89.93,2.03,1.4,3.43,1.4s2.54-.47,3.43-1.42,1.33-2.15,1.33-3.61-.43-2.54-1.3-3.45c-.87-.9-2-1.35-3.39-1.35s-2.58.45-3.48,1.35c-.9.9-1.35,2.06-1.35,3.48ZM1248.63,317.72v-12.06h2.36v3.92h15.13v-3.92h2.36v12.06h-19.86ZM1250.99,311.77v3.75h15.13v-3.75h-15.13Z"/><path class="cls-6" d="M1295.11,317.89h-2.36v-6.76h-21.01v-2.2h6.79v-8.98h2.36v8.98h11.86v-18.81h-2.2v-2.03h4.56v12.06h5v2.2h-5v15.54ZM1286.43,293.2h-13.04v-2.09h15.3v13.38h-2.26v-11.28Z"/><path class="cls-6" d="M1346.18,314.21h-27.53v-2.2h12.53v-7.36h2.36v7.36h12.63v2.2ZM1321.96,305.05l-1.18-1.86,10.4-7.16v-6.08h2.36v6.08l10.4,7.16-1.18,1.86-10.4-7.16-10.4,7.16Z"/><path class="cls-6" d="M1350.94,301.03v-12.09l19.93.1v2.13l-17.63-.1v2.63l16.82.1v2.13l-16.82-.1v3.07l17.87.1v2.13l-9.22-.03v2.84h12.19v2.2h-27.06v-2.2h12.5v-2.87l-8.58-.03ZM1350.87,313.4c0-1.6.86-2.83,2.57-3.7,1.71-.87,4.17-1.3,7.36-1.3s5.65.43,7.36,1.3c1.71.87,2.57,2.1,2.57,3.7s-.86,2.91-2.57,3.78c-1.71.88-4.17,1.32-7.36,1.32s-5.65-.44-7.36-1.32c-1.71-.88-2.57-2.14-2.57-3.78ZM1353.24,313.4c0,.92.65,1.64,1.96,2.15,1.31.51,3.17.76,5.61.76s4.3-.25,5.61-.76,1.96-1.22,1.96-2.15-.65-1.59-1.96-2.08c-1.31-.48-3.17-.73-5.61-.73s-4.3.24-5.61.73c-1.31.48-1.96,1.18-1.96,2.08Z"/><path class="cls-6" d="M1376.68,300.9c0-1.96.3-3.65.91-5.08.61-1.43,1.48-2.53,2.62-3.31s2.48-1.17,4.04-1.17c1.53.05,2.86.47,3.99,1.27s1.99,1.9,2.6,3.31c.61,1.41.91,3.07.91,4.98s-.3,3.61-.91,5.03c-.61,1.42-1.47,2.51-2.6,3.28-1.13.77-2.46,1.15-3.99,1.15s-2.9-.38-4.04-1.15c-1.14-.77-2.01-1.86-2.62-3.28-.61-1.42-.91-3.1-.91-5.03ZM1379.04,300.9c0,2.23.47,4,1.4,5.3.93,1.31,2.2,1.96,3.8,1.96s2.83-.65,3.75-1.96c.92-1.31,1.38-3.07,1.38-5.3s-.46-4.07-1.38-5.39c-.92-1.32-2.17-1.98-3.75-1.98s-2.87.66-3.8,1.98-1.4,3.11-1.4,5.39ZM1399.78,317.58h-2.36v-27.8h-2.2v-2.2h4.56v29.99Z"/><path class="cls-6" d="M1228.09,347.75h-12.8v-2.2h26.72v2.2h-11.55v6.15h-2.37v-6.15ZM1239.48,359.95h-20.37v-9.02h2.36v6.82h18v2.2ZM1238.77,342.08h-19.12v-10.71h19.12v10.71ZM1222.01,333.57v6.32h14.39v-6.32h-14.39Z"/><path class="cls-6" d="M1250.18,336.64h-5.78v-2.2h13.68v2.2h-5.54v6.92l6.18,7.87-1.69,1.38-5.71-7.36-6.42,7.84-1.66-1.45,6.92-8.38v-6.82ZM1260.89,343.26h-5.2v-2.2h5.2v-8.55h-2.3v-2.2h4.66v29.86h-2.37v-16.92ZM1269.17,360.18h-2.37v-29.86h2.37v29.86Z"/><path class="cls-6" d="M1292.71,353.43h-19.08l.07-10.61v-1.25h10.74v-6.21h-10.74v-2.2h13.11v10.61h-10.74l-.07,7.46h16.72v-18.78h-2.2v-2.2h4.56v12.19h5.3v2.2h-5.3v15.6h-2.37v-6.82Z"/><path class="cls-6" d="M1327.23,356.57h-26.18v-2.2h10.44v-10.71h2.37v10.71h7.46v-19.08h-16.82v-2.2h19.19v21.28h3.55v2.2Z"/><path class="cls-6" d="M1364.52,335.86h-17.09v-2.2h7.36v-3.28h2.36v3.28h7.36v2.2ZM1348.95,342.92c0-1.08.3-2.03.91-2.84.61-.81,1.45-1.45,2.53-1.91,1.08-.46,2.32-.69,3.72-.69s2.62.23,3.68.69c1.06.46,1.89,1.1,2.48,1.91.6.81.9,1.76.9,2.84s-.3,1.99-.9,2.8-1.42,1.45-2.48,1.91c-1.06.46-2.29.69-3.68.69s-2.63-.23-3.72-.69c-1.08-.46-1.93-1.1-2.53-1.91-.61-.81-.91-1.74-.91-2.8ZM1351.31,342.96c0,.92.45,1.68,1.35,2.28.9.6,2.05.9,3.45.9s2.53-.29,3.39-.88c.87-.59,1.3-1.33,1.3-2.23,0-.99-.43-1.8-1.3-2.42-.87-.62-2-.93-3.39-.93s-2.54.3-3.45.91c-.9.61-1.35,1.4-1.35,2.36ZM1370.16,360.05h-18.34v-9.59h18.34v9.59ZM1354.18,352.65v5.2h13.61v-5.2h-13.61ZM1367.83,332.96h-2.2v-2.2h4.56v7.09h4.73v2.2h-4.73v8.71h-2.36v-15.81Z"/><path class="cls-6" d="M814.42,486.18h-27.43v-2.2h12.5v-7.26h2.36v7.26h12.57v2.2ZM790.27,478.75l-1.18-1.86,10.4-7.16v-4.76h-9.12v-2.2h20.54v2.2h-9.05v4.76l10.4,7.16-1.18,1.86-10.4-7.16-10.4,7.16Z"/><path class="cls-6" d="M817.36,476.89l-1.55-1.59,7.73-7.23v-4.43h-6.65v-2.2h15.64v2.2h-6.62v4.39l7.94,6.59-1.49,1.59-7.6-6.25-7.4,6.92ZM837.53,481.45h-17.6v-2.2h19.96v10.64h-2.36v-8.44ZM837.53,461.76h-2.2v-2.2h4.56v17.97h-2.36v-15.77Z"/><path class="cls-6" d="M856.51,477.09h-12.8v-2.2h26.72v2.2h-11.55v6.15h-2.37v-6.15ZM867.89,489.29h-20.37v-9.02h2.36v6.82h18v2.2ZM867.18,471.42h-19.12v-10.71h19.12v10.71ZM850.43,462.91v6.32h14.39v-6.32h-14.39Z"/><path class="cls-6" d="M895.19,489.89h-2.36v-5.61h-20.64v-2.2h8.01v-3.18c-1.08-.18-2.05-.54-2.91-1.08-.86-.54-1.53-1.22-2.03-2.04-.5-.82-.74-1.72-.74-2.69,0-1.1.31-2.1.93-2.99.62-.89,1.46-1.6,2.52-2.13s2.23-.79,3.51-.79,2.44.27,3.46.79c1.02.53,1.84,1.24,2.45,2.13.61.89.91,1.89.91,2.99,0,.99-.25,1.9-.76,2.74-.51.83-1.19,1.52-2.04,2.06-.86.54-1.84.89-2.94,1.05v3.14h10.27v-20.44h-2.2v-2.2h4.56v13.58h4.96v2.2h-4.96v14.66ZM889.92,465.74h-17.5v-2.13h7.84v-4.19h2.3v4.19h7.36v2.13ZM876.88,473.14c0,.68.2,1.3.61,1.86.41.56.96,1.01,1.66,1.33.7.33,1.47.49,2.33.49s1.59-.16,2.26-.47c.68-.31,1.21-.75,1.6-1.3s.59-1.17.59-1.84c0-.72-.2-1.37-.59-1.94s-.93-1.03-1.6-1.37c-.67-.34-1.43-.51-2.26-.51s-1.63.17-2.33.51-1.25.79-1.66,1.35c-.41.56-.61,1.19-.61,1.89Z"/><path class="cls-6" d="M939.4,477.26h-20.23v-2.2h7.5v-1.82c-1.69-.16-3-.58-3.93-1.27-.93-.69-1.4-1.58-1.4-2.69,0-1.31.59-2.32,1.77-3.06,1.18-.73,2.82-1.1,4.92-1.1s3.69.37,4.85,1.1c1.16.73,1.74,1.75,1.74,3.06,0,1.15-.49,2.07-1.47,2.77-.98.7-2.35,1.1-4.1,1.22v1.79h10.37l.03-12.97h-2.2v-2.2h4.56v7.23h4.83v2.2h-4.86v8.98h-2.36v-1.05ZM935.89,464.49h-15.84v-2.2h6.79v-2.6h2.36v2.6h6.69v2.2ZM923.25,489.89v-6.69h16.42v-2.09h-16.42v-2.2h18.78v6.49h-16.38v2.3h17.87v2.2h-20.27ZM923.52,469.32c0,.61.4,1.09,1.2,1.44.8.35,1.9.52,3.29.52s2.45-.17,3.23-.51c.78-.34,1.17-.8,1.17-1.39,0-.7-.39-1.24-1.17-1.64-.78-.39-1.85-.59-3.23-.59s-2.49.19-3.29.57c-.8.38-1.2.91-1.2,1.59Z"/><path class="cls-6" d="M959.6,471.28h-8.61v-10.1h19.59v2.2h-17.23v5.71h17.56v2.2h-8.95v3.68h12.16v2.2h-27.06v-2.2h12.53v-3.68ZM950.34,484.76c0-1.64.92-2.94,2.77-3.9,1.85-.96,4.35-1.44,7.5-1.44,2.09,0,3.91.22,5.46.66,1.54.44,2.73,1.05,3.56,1.84.83.79,1.25,1.73,1.25,2.84s-.42,2.07-1.25,2.89c-.83.82-2.02,1.45-3.56,1.89-1.54.44-3.36.66-5.46.66-3.15,0-5.65-.49-7.5-1.47-1.85-.98-2.77-2.3-2.77-3.97ZM952.71,484.76c0,.99.71,1.78,2.13,2.36,1.42.59,3.34.88,5.78.88s4.33-.29,5.76-.88c1.43-.59,2.14-1.37,2.14-2.36s-.71-1.73-2.14-2.3c-1.43-.56-3.35-.84-5.76-.84s-4.36.28-5.78.84c-1.42.56-2.13,1.33-2.13,2.3Z"/><path class="cls-6" d="M1002.43,477.8h-26.72v-2.2h26.72v2.2ZM979.26,489.49v-8.65h2.36v6.45h17.8v2.2h-20.17ZM979.53,467.09c0-1.13.41-2.13,1.23-3.01.82-.88,1.96-1.56,3.43-2.06,1.46-.5,3.13-.74,5-.74s3.56.25,5.02.74c1.45.5,2.6,1.18,3.43,2.06.83.88,1.25,1.88,1.25,3.01s-.42,2.13-1.25,3.01c-.83.88-1.98,1.57-3.43,2.06-1.45.5-3.12.74-5.02.74s-3.54-.25-5-.74c-1.46-.5-2.61-1.18-3.43-2.06-.82-.88-1.23-1.88-1.23-3.01ZM981.89,467.13c0,.7.31,1.32.95,1.86.63.54,1.49.96,2.58,1.27,1.09.3,2.35.46,3.77.46s2.71-.15,3.8-.46c1.09-.3,1.95-.73,2.58-1.27.63-.54.95-1.16.95-1.86s-.32-1.35-.95-1.89c-.63-.54-1.49-.97-2.58-1.28-1.09-.31-2.36-.47-3.8-.47s-2.67.16-3.77.47c-1.09.32-1.95.74-2.58,1.28-.63.54-.95,1.17-.95,1.89Z"/><path class="cls-6" d="M1037.08,474.29h-13.17v-12.4h13.17v12.4ZM1025.57,488l-.17-10.3h2.4v9.36h8.07c-.11-.41-.17-.81-.17-1.22,0-1.4.51-2.5,1.52-3.33,1.01-.82,2.38-1.23,4.09-1.23,1.8-.02,3.23.38,4.29,1.2,1.06.82,1.59,1.94,1.59,3.36,0,1.31-.53,2.34-1.59,3.09-1.06.75-2.49,1.13-4.29,1.13-1.46,0-2.66-.27-3.58-.81h-12.16v-1.25ZM1026.28,464.09v8.01h8.44v-8.01h-8.44ZM1047.93,480.57h-13.07v-2.2h5.27v-2.97h2.36v2.97h5.44v2.2ZM1038,485.84c0,.63.3,1.14.9,1.52.6.38,1.4.57,2.42.57,1.1,0,1.98-.19,2.62-.57.64-.38.96-.89.96-1.52,0-.74-.32-1.33-.96-1.77-.64-.44-1.51-.66-2.62-.66-1.01,0-1.82.22-2.42.66-.6.44-.9,1.03-.9,1.77ZM1045.39,475.1h-2.36v-13.48h-2.2v-2.2h4.56v6.82h4.15v2.2h-4.15v6.65Z"/><path class="cls-6" d="M1077.42,477.8h-26.72v-2.2h26.72v2.2ZM1054.24,489.49v-8.65h2.36v6.45h17.8v2.2h-20.17ZM1054.51,467.09c0-1.13.41-2.13,1.23-3.01.82-.88,1.96-1.56,3.43-2.06,1.46-.5,3.13-.74,5-.74s3.56.25,5.02.74c1.45.5,2.6,1.18,3.43,2.06.83.88,1.25,1.88,1.25,3.01s-.42,2.13-1.25,3.01c-.83.88-1.98,1.57-3.43,2.06-1.45.5-3.12.74-5.02.74s-3.54-.25-5-.74c-1.46-.5-2.61-1.18-3.43-2.06-.82-.88-1.23-1.88-1.23-3.01ZM1056.88,467.13c0,.7.31,1.32.95,1.86.63.54,1.49.96,2.58,1.27,1.09.3,2.35.46,3.77.46s2.71-.15,3.8-.46c1.09-.3,1.95-.73,2.58-1.27.63-.54.95-1.16.95-1.86s-.32-1.35-.95-1.89c-.63-.54-1.49-.97-2.58-1.28-1.09-.31-2.36-.47-3.8-.47s-2.67.16-3.77.47c-1.09.32-1.95.74-2.58,1.28-.63.54-.95,1.17-.95,1.89Z"/><path class="cls-6" d="M1092.68,482.83h-12.46v-19.08h11.21v2.2h-8.85v14.69h10.1v2.2ZM1095.99,473.68h-6.86v-2.2h6.86v-9.19h-1.86v-2.2h4.22v29.42h-2.36v-15.84ZM1104.4,489.52h-2.36v-29.42h2.36v29.42Z"/><path class="cls-6" d="M804.46,509.96h-17.19v-2.2h7.43v-4.97h2.36v4.97h7.4v2.2ZM795.88,525.57c-1.31,0-2.49-.29-3.55-.88-1.06-.59-1.9-1.37-2.52-2.35s-.93-2.08-.93-3.29.31-2.35.93-3.33,1.46-1.76,2.52-2.35c1.06-.58,2.24-.88,3.55-.88s2.45.29,3.5.88c1.05.59,1.87,1.37,2.48,2.35.61.98.91,2.09.91,3.33s-.3,2.31-.91,3.29c-.61.98-1.44,1.76-2.48,2.35-1.05.59-2.21.88-3.5.88ZM791.25,519.12c0,.79.2,1.51.61,2.16.41.65.96,1.17,1.67,1.54.71.37,1.49.56,2.35.56s1.62-.19,2.3-.56c.67-.37,1.22-.88,1.62-1.52.41-.64.61-1.35.61-2.11,0-.83-.2-1.59-.61-2.26s-.95-1.22-1.62-1.62c-.68-.41-1.44-.61-2.3-.61s-1.64.2-2.35.59c-.71.39-1.27.92-1.67,1.59-.41.66-.61,1.41-.61,2.25ZM807.13,504.46h-2.2v-2.2h4.56v12.19h6.08v2.2h-6.08v15.6h-2.36v-27.8Z"/><path class="cls-6" d="M835.84,524.42h-18.95l.07-19.19h2.36l-.07,16.99h16.58v-17.26h-2.2v-2.2h4.56v11.99h5.27v2.2h-5.27v15.1h-2.36v-7.63Z"/><path class="cls-6" d="M847.8,519.25v-8.51h16.82v-3.45h-16.82v-2.2h19.19v7.84h-16.82v4.12h16.82v2.2h-8.34v7.6h12.53v2.2h-27.43v-2.2h12.53v-7.6h-8.48Z"/><path class="cls-6" d="M911.67,520.33h-21.28v-2.2h8.68v-2.67h2.36v2.67h10.23l.03-13.54h-2.36v-2.03h4.73v8.71h4.12v2.2h-4.16v8.44h-2.36v-1.59ZM894.98,506.59h-3.14v-2.2h16.28v2.2h-3.01v2.84l4.29,3.82-1.45,1.52-4.12-3.61-3.72,3.11-3.78-2.9-3.88,3.41-1.45-1.52,3.99-3.55v-3.11ZM911.67,525.67h-17.83v-2.2h20.2v9.09h-2.36v-6.89ZM897.35,506.59v3.04l2.77,2.06,2.63-2.26v-2.84h-5.4Z"/><path class="cls-6" d="M788.11,554.93c0-1.49.32-2.8.96-3.95s1.53-2.04,2.65-2.69,2.42-.96,3.88-.96c1.28,0,2.44.25,3.46.76,1.02.51,1.85,1.21,2.48,2.11h7.43v-2.94h-2.2v-2.2h4.56v22.33h-2.36v-8.01h-7.4c-.65.86-1.49,1.53-2.52,2.01-1.02.48-2.18.73-3.46.73-1.46,0-2.76-.3-3.88-.91s-2.01-1.46-2.65-2.55c-.64-1.09-.96-2.34-.96-3.73ZM790.48,554.96c0,1.44.47,2.62,1.42,3.55.95.92,2.16,1.38,3.65,1.38s2.67-.47,3.61-1.4c.95-.93,1.42-2.12,1.42-3.56,0-1.6-.46-2.9-1.38-3.9-.92-1-2.12-1.5-3.58-1.5s-2.74.51-3.7,1.52c-.96,1.01-1.44,2.32-1.44,3.92ZM812.94,574.69h-20.64v-9.76h2.36v7.57h18.27v2.2ZM802.63,552.39c.25.81.37,1.66.37,2.53,0,.79-.1,1.54-.3,2.26h6.28v-4.8h-6.35Z"/><path class="cls-6" d="M815.84,559.22c7.16-1.96,11.21-5.4,12.16-10.34h-10.47v-2.2h13.41l-.07,2.3-.2.78h7.23v-2.77h-2.2v-2.03h4.56v15.47h-2.37v-2.9h-8.28v-2.2h8.28v-3.38h-8c-2.05,4.55-6.41,7.7-13.07,9.46l-.98-2.2ZM837.9,564.18h-16.89v-2.2h19.25v7.7h-16.89v3.34h17.56v2.2h-19.93v-7.74h16.89v-3.31Z"/><path class="cls-6" d="M844.99,558.24c0-1.96.3-3.65.91-5.08.61-1.43,1.48-2.53,2.62-3.31,1.14-.78,2.48-1.17,4.04-1.17,1.53.04,2.86.47,3.99,1.27,1.13.8,1.99,1.9,2.6,3.31.61,1.41.91,3.07.91,4.98s-.3,3.61-.91,5.03c-.61,1.42-1.47,2.51-2.6,3.28s-2.46,1.15-3.99,1.15-2.9-.38-4.04-1.15-2.01-1.86-2.62-3.28c-.61-1.42-.91-3.1-.91-5.03ZM847.36,558.24c0,2.23.47,4,1.4,5.3s2.2,1.96,3.8,1.96,2.83-.65,3.75-1.96c.92-1.31,1.38-3.07,1.38-5.3s-.46-4.07-1.38-5.39c-.92-1.32-2.17-1.98-3.75-1.98s-2.87.66-3.8,1.98-1.4,3.11-1.4,5.39ZM868.1,574.92h-2.36v-27.8h-2.2v-2.2h4.56v30Z"/><path class="cls-6" d="M891.47,554.93c0-1.42.33-2.7,1-3.85.66-1.15,1.56-2.06,2.7-2.74,1.14-.68,2.4-1.01,3.8-1.01s2.65.34,3.77,1.01c1.11.68,2,1.59,2.65,2.74.65,1.15.98,2.43.98,3.85,0,1.33-.33,2.54-.98,3.63-.65,1.09-1.54,1.96-2.65,2.6-1.12.64-2.37.96-3.77.96s-2.66-.32-3.8-.96c-1.14-.64-2.04-1.51-2.7-2.6-.67-1.09-1-2.3-1-3.63ZM893.83,554.96c0,.92.22,1.76.67,2.5s1.06,1.33,1.82,1.77c.77.44,1.62.66,2.57.66s1.79-.22,2.55-.66c.75-.44,1.36-1.04,1.81-1.79.45-.75.67-1.59.67-2.52,0-1.01-.22-1.93-.66-2.75s-1.04-1.47-1.79-1.94c-.75-.47-1.59-.71-2.52-.71s-1.81.24-2.58.73c-.78.48-1.4,1.14-1.86,1.96-.46.82-.69,1.74-.69,2.75ZM915.28,574.69h-20.3v-9.76h2.36v7.57h17.94v2.2ZM911.33,547.26h-2.2v-2.2h4.56v9.36h4.66v2.2h-4.66v10.78h-2.37v-20.13Z"/><path class="cls-6" d="M927.71,557.12h-6.08v-10.3h14.32v2.2h-11.96v5.91h12.16v2.2h-6.18v4.66h10.81l.03-14.36h-2.2v-2.2h4.56l-.03,22.46h-2.36v-3.78h-21.79v-2.13h8.71v-4.66ZM944.4,574.48h-20.37v-8.21h2.36v6.01h18v2.2Z"/><path class="cls-6" d="M992.8,571.24h-27.53v-2.2h27.53v2.2ZM969.4,561.92v-2.2l.03-11.32h2.36l-.03,11.32h16.82v2.2h-19.19Z"/><path class="cls-6" d="M995.03,559.05c1.67-1.24,2.98-2.65,3.95-4.24.97-1.59,1.64-3.34,2.03-5.25l-5.95.03v-2.2h16.01c-.07,2.23-.32,4.21-.76,5.93-.44,1.72-1.13,3.29-2.08,4.69-.95,1.41-2.23,2.75-3.85,4.04l-1.59-1.52c1.24-.99,2.25-2.02,3.04-3.09.79-1.07,1.4-2.25,1.84-3.55.44-1.29.75-2.74.93-4.34h-5.2c-.32,1.53-.74,2.94-1.28,4.24-.54,1.29-1.25,2.5-2.14,3.63s-2.03,2.21-3.43,3.24l-1.52-1.62ZM1018.34,574.62h-19.46v-10.57h19.46v10.57ZM1001.25,566.24v6.18h14.73v-6.18h-14.73ZM1016.14,547.63h-2.2v-2.2h4.56v17.09h-2.36v-14.9Z"/><path class="cls-6" d="M1022.29,571.04v-3.75h3.75v3.75h-3.75Z"/><path class="cls-6" d="M1233.86,521.48h-21.58v-2.2h3.92v-7.87h-3.17v-2.2h16.55v2.2h-3.45v7.87h7.74v-9.96h-2.2v-2.2h4.56v15.71h-2.36v-1.35ZM1233.82,526.82h-16.96v-2.2h19.32v7.19h-16.96v2.9h18.75v2.2h-21.11v-7.3h16.96v-2.8ZM1218.56,511.42v7.87h5.2v-7.87h-5.2Z"/><path class="cls-6" d="M1267.4,533.88h-27.39v-2.2h7.19v-9.25c-.97-.65-1.73-1.44-2.3-2.36-.56-.92-.84-1.95-.84-3.07,0-1.4.41-2.63,1.23-3.72.82-1.08,1.96-1.93,3.43-2.55,1.46-.62,3.13-.93,5-.93s3.56.31,5.02.93c1.45.62,2.59,1.47,3.41,2.55.82,1.08,1.23,2.32,1.23,3.72,0,1.1-.27,2.12-.81,3.04-.54.92-1.29,1.71-2.26,2.36v9.29h7.09v2.2ZM1246.42,516.99c0,.97.31,1.82.95,2.57.63.74,1.49,1.33,2.58,1.76,1.09.43,2.35.64,3.77.64s2.68-.21,3.78-.64c1.1-.43,1.96-1.01,2.58-1.76.62-.74.93-1.6.93-2.57s-.31-1.83-.93-2.58c-.62-.75-1.48-1.35-2.58-1.77-1.1-.43-2.37-.64-3.78-.64s-2.67.21-3.77.64c-1.09.43-1.95,1.02-2.58,1.77-.63.75-.95,1.62-.95,2.58ZM1249.56,523.54v8.14h8.38v-8.17c-.63.2-1.29.36-1.99.47-.7.11-1.44.17-2.23.17-1.51,0-2.89-.2-4.16-.61Z"/><path class="cls-6" d="M1285.77,513.41h-16.75v-2.2h7.03v-3.45h2.37v3.45h7.36v2.2ZM1270.51,520.74c0-1.13.3-2.12.89-2.99.6-.87,1.42-1.55,2.48-2.04,1.06-.49,2.26-.74,3.61-.74s2.54.25,3.58.74c1.04.5,1.85,1.18,2.43,2.04.59.87.88,1.86.88,2.99s-.29,2.13-.88,3.01c-.59.88-1.4,1.56-2.43,2.06-1.04.5-2.23.74-3.58.74s-2.56-.25-3.61-.74c-1.06-.5-1.89-1.18-2.48-2.06-.6-.88-.89-1.88-.89-3.01ZM1272.87,520.77c0,1.04.43,1.89,1.3,2.57.87.68,1.98,1.01,3.33,1.01s2.42-.33,3.26-.98c.84-.65,1.27-1.5,1.27-2.53s-.42-1.96-1.27-2.65c-.84-.69-1.93-1.03-3.26-1.03s-2.46.34-3.33,1.01c-.87.68-1.3,1.54-1.3,2.6ZM1273.41,537.12v-8.44h2.37v6.25h18.24v2.2h-20.6ZM1289.35,509.46h-2.2v-2.2h4.56v10.57h4.86v2.2h-4.86v10.5h-2.36v-21.08Z"/><path class="cls-6" d="M1316.51,530.94l-1.72-1.35,7.84-9.9v-9.59h2.36v9.59l7.87,9.9-1.76,1.35-7.3-9.19-7.3,9.19ZM1337.96,537.26h-2.36v-27.97h-2.2v-2.03h4.56v11.48h5v2.2h-5v16.31Z"/><path class="cls-6" d="M1366.87,526.01h-2.36v-2.2h-19.69v-8.98h11.08v-3.24h-11.32v-2.03h13.68v7.46h-11.08v4.7h17.33v-12.46h-2.2v-2.03h4.56v8.41h4.26v2.2h-4.26v8.17ZM1366.98,537.36h-19.22v-9.96h19.22v9.96ZM1349.95,529.42v5.91h14.83v-5.91h-14.83Z"/><path class="cls-6" d="M1398.76,525.47h-26.72v-2.2h26.72v2.2ZM1375.59,537.16v-8.65h2.36v6.45h17.8v2.2h-20.17ZM1375.86,514.76c0-1.13.41-2.13,1.23-3.01.82-.88,1.96-1.56,3.43-2.06,1.46-.5,3.13-.74,5-.74s3.56.25,5.02.74c1.45.5,2.6,1.18,3.43,2.06.83.88,1.25,1.88,1.25,3.01s-.42,2.13-1.25,3.01c-.83.88-1.98,1.57-3.43,2.06-1.45.5-3.12.74-5.02.74s-3.54-.25-5-.74c-1.46-.5-2.61-1.18-3.43-2.06-.82-.88-1.23-1.88-1.23-3.01ZM1378.22,514.79c0,.7.31,1.32.95,1.86.63.54,1.49.96,2.58,1.27,1.09.3,2.35.46,3.77.46s2.71-.15,3.8-.46c1.09-.3,1.95-.73,2.58-1.27.63-.54.95-1.16.95-1.86s-.32-1.35-.95-1.89c-.63-.54-1.49-.97-2.58-1.28-1.09-.31-2.36-.47-3.8-.47s-2.67.16-3.77.47c-1.09.32-1.95.74-2.58,1.28-.63.54-.95,1.17-.95,1.89Z"/><path class="cls-6" d="M1232.17,572.09h-18.95l.07-19.19h2.36l-.07,16.99h16.58v-17.26h-2.2v-2.2h4.56v11.99h5.27v2.2h-5.27v15.1h-2.36v-7.63Z"/><path class="cls-6" d="M1255.44,553.17c.11,3.04-.37,5.89-1.44,8.56-1.07,2.67-2.63,5.05-4.7,7.16-2.06,2.11-4.53,3.86-7.41,5.25l-1.01-2.13c2.43-1.17,4.52-2.62,6.27-4.34s3.12-3.63,4.12-5.73c1-2.09,1.58-4.29,1.74-6.59h-11.04v-2.2h13.48ZM1260.51,552.12h-2.2v-2.2h4.56v12.67h5.13v2.2h-5.13v15.44h-2.36v-28.1Z"/><path class="cls-6" d="M1295.23,576.24h-26.18v-2.2h10.44v-10.71h2.37v10.71h7.46v-19.08h-16.82v-2.2h19.19v21.28h3.55v2.2Z"/><path class="cls-6" d="M1304.15,579.89l-7.46-.03v-2.2l5.34.03v-1.79h-2.23v-3.71h4.36v7.7Z"/><path class="cls-6" d="M1351.84,572.09h-18.95l.07-19.19h2.36l-.07,16.99h16.58v-17.26h-2.2v-2.2h4.56v11.99h5.27v2.2h-5.27v15.1h-2.36v-7.63Z"/><path class="cls-6" d="M1375.12,553.17c.11,3.04-.37,5.89-1.44,8.56-1.07,2.67-2.63,5.05-4.7,7.16-2.06,2.11-4.53,3.86-7.41,5.25l-1.01-2.13c2.43-1.17,4.52-2.62,6.27-4.34s3.12-3.63,4.12-5.73c1-2.09,1.58-4.29,1.74-6.59h-11.04v-2.2h13.48ZM1380.18,552.12h-2.2v-2.2h4.56v12.67h5.13v2.2h-5.13v15.44h-2.36v-28.1Z"/><path class="cls-6" d="M1388.63,562.83c0-2.75.69-4.92,2.06-6.5,1.37-1.59,3.22-2.38,5.54-2.38,2.32.11,4.16.97,5.51,2.57,1.35,1.6,2.03,3.7,2.03,6.32,0,1.8-.3,3.36-.91,4.68-.61,1.32-1.47,2.34-2.6,3.06-1.13.72-2.47,1.08-4.02,1.08s-2.9-.36-4.04-1.08c-1.14-.72-2.02-1.74-2.63-3.06-.62-1.32-.93-2.88-.93-4.68ZM1390.99,562.83c0,2.03.47,3.64,1.42,4.83.95,1.19,2.22,1.79,3.82,1.79s2.86-.6,3.78-1.79c.92-1.19,1.38-2.8,1.38-4.83s-.46-3.7-1.38-4.9c-.92-1.19-2.18-1.79-3.78-1.79s-2.87.6-3.82,1.79c-.95,1.19-1.42,2.83-1.42,4.9ZM1411.02,580.4h-2.36v-27.93h-2.2v-2.2h4.56v7.7h5.44v2.2h-5.44v6.82h5.44v2.2h-5.44v11.21Z"/><path class="cls-6" d="M1452.67,555.1h-18.17v-2.2h8.24v-3.07h2.37v3.07h7.57v2.2ZM1436.25,561.45c0-1.01.32-1.9.95-2.67.63-.77,1.5-1.36,2.6-1.79s2.36-.64,3.78-.64,2.67.21,3.77.64c1.09.43,1.94,1.02,2.55,1.79.61.77.91,1.66.91,2.67s-.3,1.87-.91,2.63c-.61.77-1.46,1.36-2.55,1.79-1.09.43-2.35.64-3.77.64s-2.68-.21-3.78-.64-1.97-1.02-2.6-1.79c-.63-.76-.95-1.64-.95-2.63ZM1438.62,561.48c0,.83.47,1.51,1.4,2.04s2.12.79,3.56.79,2.61-.26,3.51-.78c.9-.52,1.35-1.18,1.35-1.99,0-.88-.45-1.6-1.35-2.16-.9-.56-2.07-.84-3.51-.84s-2.63.28-3.56.83c-.93.55-1.4,1.26-1.4,2.11ZM1455.2,570.6h-16.38v-2.2h18.75v6.69h-16.21v2.33h17.7v2.2h-20.06v-6.72h16.21v-2.3ZM1455.2,551.82h-2.2v-2.2h4.56v7.9h5.17v2.2h-5.17v6.99h-2.36v-14.9Z"/><path class="cls-6" d="M1213.15,616.27l-1.72-1.35,7.84-9.9v-9.59h2.36v9.59l7.87,9.9-1.76,1.35-7.3-9.19-7.3,9.19ZM1234.6,622.59h-2.36v-27.97h-2.2v-2.03h4.56v11.48h5v2.2h-5v16.31Z"/><path class="cls-6" d="M1263.51,611.34h-2.36v-2.2h-19.69v-8.99h11.08v-3.24h-11.32v-2.03h13.68v7.46h-11.08v4.7h17.33v-12.46h-2.2v-2.03h4.56v8.41h4.26v2.2h-4.26v8.17ZM1263.62,622.69h-19.22v-9.96h19.22v9.96ZM1246.59,614.75v5.91h14.83v-5.91h-14.83Z"/><path class="cls-6" d="M1295.4,610.8h-26.72v-2.2h26.72v2.2ZM1272.23,622.49v-8.65h2.36v6.45h17.8v2.2h-20.17ZM1272.5,600.09c0-1.13.41-2.13,1.23-3.01.82-.88,1.96-1.57,3.43-2.06,1.46-.5,3.13-.74,5-.74s3.56.25,5.02.74c1.45.5,2.6,1.18,3.43,2.06.83.88,1.25,1.88,1.25,3.01s-.42,2.13-1.25,3.01c-.83.88-1.98,1.57-3.43,2.06-1.45.5-3.12.74-5.02.74s-3.54-.25-5-.74c-1.46-.5-2.61-1.18-3.43-2.06-.82-.88-1.23-1.88-1.23-3.01ZM1274.86,600.13c0,.7.31,1.32.95,1.86.63.54,1.49.96,2.58,1.27,1.09.3,2.35.46,3.77.46s2.71-.15,3.8-.46c1.09-.3,1.95-.73,2.58-1.27.63-.54.95-1.16.95-1.86s-.32-1.35-.95-1.89c-.63-.54-1.49-.97-2.58-1.28-1.09-.31-2.36-.47-3.8-.47s-2.67.16-3.77.47c-1.09.32-1.95.74-2.58,1.28-.63.54-.95,1.17-.95,1.89Z"/><path class="cls-6" d="M1339.45,622.59h-2.36v-16.72h-7.33v8.28h-12.9v-18.14h2.36v7.67h8.17v-7.67h2.36v7.67h7.33v-9.05h-2.2v-2.03h4.56v30ZM1319.21,605.87v6.08h8.17v-6.08h-8.17Z"/><path class="cls-6" d="M1365.59,608.91h-19.96v-14.15h13.92v2.2h-11.55v3.72h10.71v2.2h-10.71v3.85h17.6v-11.55h-2.2v-2.2h4.56v18.1h-2.36v-2.16ZM1367.99,622.69h-19.08v-10.07h19.08v10.07ZM1351.27,614.62v5.88h14.36v-5.88h-14.36Z"/><path class="cls-6" d="M1372.01,618.71v-3.75h3.75v3.75h-3.75Z"/><path class="cls-6" d="M449.4,655.55h-13.17v-12.84h13.17v12.84ZM439.03,670.31l-1.15-1.79,9.83-5.37v-1.92h-8.34v-2.13h18.95v2.13h-8.31v1.96l9.76,5.34-1.15,1.79-9.8-5.37-9.79,5.37ZM438.59,644.91v8.44h8.44v-8.44h-8.44ZM455.38,642.58h-2.2v-2.2h4.56v6.89h4.76v2.2h-4.76v7.97h-2.37v-14.86Z"/><path class="cls-6" d="M477.94,654.57h-13.17v-12.4h13.17v12.4ZM467.14,644.37v8.01h8.44v-8.01h-8.44ZM487.61,669.94h-19.73v-7.8h15.94v-2.84h-15.94v-2.09h18.31v7.13h-15.94v3.41h17.36v2.2ZM486.25,655.75h-2.36v-13.48h-2.2v-2.2h4.56v6.82h4.15v2.2h-4.15v6.65Z"/><path class="cls-6" d="M492.17,650.18c0-1.49.32-2.79.96-3.92.64-1.13,1.53-2.01,2.67-2.65,1.14-.64,2.45-.96,3.93-.96,1.46.05,2.76.4,3.88,1.06s2.01,1.55,2.65,2.67c.64,1.12.96,2.38.96,3.8s-.32,2.73-.96,3.85c-.64,1.13-1.53,2-2.65,2.63-1.13.63-2.42.95-3.88.95s-2.8-.32-3.93-.95c-1.14-.63-2.03-1.51-2.67-2.63-.64-1.12-.96-2.41-.96-3.85ZM494.53,650.18c0,1.53.49,2.79,1.47,3.77s2.22,1.47,3.73,1.47,2.74-.49,3.7-1.47,1.44-2.23,1.44-3.77-.48-2.86-1.44-3.85c-.96-.99-2.19-1.49-3.7-1.49s-2.75.5-3.73,1.49c-.98.99-1.47,2.28-1.47,3.85ZM517.13,669.67h-19.9v-9.15h2.36v6.96h17.53v2.2ZM515.98,662.44h-2.37v-20.47h-2.2v-2.03h4.56v22.5Z"/><path class="cls-6" d="M533.54,663.49h-12.46v-19.08h11.21v2.2h-8.85v14.69h10.1v2.2ZM536.85,654.34h-6.86v-2.2h6.86v-9.19h-1.86v-2.2h4.22v29.42h-2.36v-15.84ZM545.26,670.18h-2.36v-29.42h2.36v29.42Z"/><path class="cls-6" d="M555.4,670.21l-7.46-.03v-2.2l5.34.03v-1.79h-2.23v-3.72h4.36v7.7Z"/><path class="cls-6" d="M576.91,661.06h-12.53v-2.2h27.43v2.2h-12.53v9.49h-2.36v-9.49ZM567.66,656.36l-1.18-1.86,10.4-5.17v-2.7h-9.12v-2.2h9.12v-3.55h2.36v3.55h9.05v2.2h-9.05v2.7l10.4,5.17-1.18,1.86-10.4-5.17-10.4,5.17Z"/><path class="cls-6" d="M594.58,657.58l-1.49-1.59,7.16-6.79v-7.09h2.36v7.06l7.19,6.82-1.52,1.59-6.86-6.52-6.86,6.52ZM597.55,665.42c0-1.87.82-3.3,2.45-4.31s3.95-1.5,6.94-1.5,5.34.5,6.96,1.5c1.62,1,2.43,2.44,2.43,4.31s-.81,3.28-2.43,4.29c-1.62,1.01-3.94,1.52-6.96,1.52s-5.31-.51-6.94-1.52c-1.63-1.01-2.45-2.44-2.45-4.29ZM599.85,665.42c0,1.17.61,2.08,1.84,2.72,1.23.64,2.98.96,5.25.96s4.03-.32,5.25-.96c1.23-.64,1.84-1.55,1.84-2.72s-.61-2.11-1.84-2.74c-1.23-.63-2.98-.95-5.25-.95s-4.03.32-5.25.95c-1.23.63-1.84,1.54-1.84,2.74ZM615.89,659.03h-2.36v-16.75h-2.2v-2.2h4.56v8.34h4.83v2.2h-4.83v8.41Z"/><path class="cls-6" d="M623.12,657.55l-1.55-1.59,7.73-7.23v-4.42h-6.65v-2.2h15.64v2.2h-6.62v4.39l7.94,6.59-1.49,1.59-7.6-6.25-7.4,6.92ZM643.29,662.11h-17.6v-2.2h19.96v10.64h-2.36v-8.44ZM643.29,650.25h-6.21v-2.2h6.21v-5.64h-2.2v-2.2h4.56v17.97h-2.36v-7.94Z"/><path class="cls-6" d="M650.55,649.27c0-1.31.34-2.49,1.01-3.55s1.58-1.9,2.72-2.53c1.14-.63,2.42-.95,3.83-.95,1.4.05,2.66.39,3.8,1.05,1.14.65,2.04,1.5,2.7,2.53.66,1.04,1,2.18,1,3.45s-.33,2.45-1,3.5c-.66,1.05-1.57,1.88-2.7,2.5s-2.4.93-3.8.93-2.7-.31-3.83-.93-2.04-1.45-2.72-2.5c-.68-1.05-1.01-2.21-1.01-3.5ZM652.91,649.27c0,.88.23,1.68.69,2.4.46.72,1.09,1.29,1.88,1.71.79.42,1.67.62,2.63.62s1.83-.21,2.6-.62c.77-.42,1.38-.99,1.84-1.71.46-.72.69-1.52.69-2.4s-.23-1.72-.69-2.45-1.08-1.31-1.84-1.74c-.77-.43-1.63-.64-2.6-.64s-1.85.21-2.63.64c-.79.43-1.41,1.01-1.88,1.74-.46.73-.69,1.55-.69,2.45ZM673.99,670.28h-18.81v-10.88h18.81v10.88ZM657.54,661.6v6.49h14.08v-6.49h-14.08ZM673.89,657.44h-2.36v-15.3h-2.2v-2.2h4.56v17.5Z"/><path class="cls-6" d="M459.16,713.39h-2.36v-16.42h-7.06c-.13,2.72-.82,4.81-2.04,6.27-1.23,1.45-2.92,2.18-5.08,2.18-2.32,0-4.1-.82-5.35-2.45-1.25-1.63-1.88-3.97-1.88-7.01s.62-5.45,1.88-7.09c1.25-1.64,3.03-2.47,5.35-2.47,2.14.09,3.82.86,5.05,2.3,1.23,1.44,1.92,3.47,2.08,6.08h7.06v-9.32h-2.2v-2.2h4.56v30.13ZM437.75,695.96c0,2.32.42,4.11,1.27,5.37.84,1.26,2.04,1.89,3.6,1.89s2.71-.63,3.55-1.89c.83-1.26,1.25-3.05,1.25-5.37s-.42-4.18-1.25-5.46c-.83-1.27-2.02-1.91-3.55-1.91s-2.75.64-3.6,1.91c-.84,1.27-1.27,3.09-1.27,5.46Z"/><path class="cls-6" d="M464.26,706.63l-1.45-1.52,4.9-6.15v-9.73h-3.85v-2.2h17.73v2.2h-3.95v9.69l5.27,5.98-1.52,1.52-4.83-5.4-3.85,5.17-3.85-5.17-4.59,5.61ZM470.07,689.23v9.83l2.63,3.48,2.57-3.45v-9.86h-5.2ZM485.71,696.23h-5.44v-2.2h5.44v-8.65h-2.2v-2.03h4.56v29.52h-2.36v-16.65Z"/><path class="cls-6" d="M511.96,706.09h-19.08l.07-10.61v-1.25h10.74v-6.21h-10.74v-2.2h13.11v10.61h-10.74l-.07,7.46h16.72v-18.78h-2.2v-2.2h4.56v12.19h5.3v2.2h-5.3v15.61h-2.37v-6.82Z"/><path class="cls-6" d="M546.82,700.38h-26.95v-2.2h26.95v2.2ZM544.05,712.27h-20.77v-8.75h2.36v6.55h18.41v2.2ZM543.13,694.17h-19.05v-10.34h2.37v8.14h16.69v2.2Z"/><path class="cls-6" d="M578.97,694.47c-1.31,1.89-2.92,3.45-4.83,4.68-1.91,1.23-3.93,2.12-6.05,2.69l-.74-2.26c1.96-.52,3.79-1.34,5.49-2.48,1.7-1.14,3.12-2.51,4.26-4.12,1.14-1.61,1.83-3.39,2.08-5.35h-11.59v-2.2h14.22c-.02,1.28-.17,2.5-.46,3.65-.28,1.15-.66,2.22-1.13,3.21h8.34v-7.13h-2.2v-2.2h4.56v22.33h-2.36v-10.81h-9.59ZM592.01,712.51h-19.86v-9.49h2.36v7.3h17.5v2.2Z"/><path class="cls-6" d="M596.77,706.66l-1.69-1.49,7.8-8.88v-7.84h-6.82v-2.2h16.11v2.2h-6.92v7.84l7.8,8.88-1.69,1.49-7.3-8.28-7.3,8.28ZM619.27,712.91h-2.36v-27.8h-2.2v-2.2h4.56v30Z"/><path class="cls-6" d="M411.59,497.79h-6.89v-2.03h18.92v2.03h-9.83v3.51h14.12v6.52h-17.97v2.5h19.46v2.2h-21.75v-6.82h17.97v-2.26h-18v-2.13h3.99v-3.51ZM427.91,499.98h-2.26v-10.34h-5.94v4.12h-13.61v-10.44h13.61v4.29h5.94v-3.17h-2.3v-2.03h4.56v17.56ZM408.28,485.35v6.38h9.22v-6.38h-9.22Z"/><path class="cls-6" d="M467.49,489.92h-17.19v-2.2h7.43v-4.97h2.36v4.97h7.4v2.2ZM458.92,505.52c-1.31,0-2.49-.29-3.55-.88-1.06-.59-1.9-1.37-2.52-2.35s-.93-2.08-.93-3.29.31-2.35.93-3.33,1.46-1.76,2.52-2.35c1.06-.58,2.24-.88,3.55-.88s2.45.29,3.5.88c1.05.59,1.87,1.37,2.48,2.35.61.98.91,2.09.91,3.33s-.3,2.31-.91,3.29c-.61.98-1.44,1.76-2.48,2.35-1.05.59-2.21.88-3.5.88ZM454.29,499.07c0,.79.2,1.51.61,2.16.41.65.96,1.17,1.67,1.54.71.37,1.49.56,2.35.56s1.62-.19,2.3-.56c.67-.37,1.22-.88,1.62-1.52.41-.64.61-1.35.61-2.11,0-.83-.2-1.59-.61-2.26s-.95-1.22-1.62-1.62c-.68-.41-1.44-.61-2.3-.61s-1.64.2-2.35.59c-.71.39-1.27.92-1.67,1.59-.41.66-.61,1.41-.61,2.25ZM470.16,484.41h-2.2v-2.2h4.56v12.19h6.08v2.2h-6.08v15.6h-2.36v-27.8Z"/><path class="cls-6" d="M487.15,488.33h-6.99v-2.2h16.32v2.2h-6.96v7.23l8.04,9.8-1.69,1.39-7.5-9.12-7.23,9.12-1.72-1.35,7.73-9.76v-7.3ZM500.73,484.51h-2.2v-2.2h4.56v12.13h5.51v2.2h-5.51v15.67h-2.36v-27.8Z"/><path class="cls-6" d="M536.27,508.53h-26.18v-2.2h10.44v-10.71h2.37v10.71h7.46v-19.08h-16.82v-2.2h19.19v21.28h3.55v2.2Z"/><path class="cls-6" d="M418.65,532.55h-15.23v-2.2h6.38v-4.66h2.36v4.66h6.49v2.2ZM410.92,547.21c-1.22,0-2.31-.28-3.29-.83s-1.76-1.29-2.33-2.23-.86-1.98-.86-3.12.29-2.22.86-3.16c.57-.93,1.35-1.68,2.33-2.23.98-.55,2.08-.83,3.29-.83s2.27.28,3.24.83c.97.55,1.73,1.3,2.3,2.23.56.93.84,1.99.84,3.16s-.28,2.19-.84,3.12c-.56.93-1.33,1.68-2.3,2.23-.97.55-2.05.83-3.24.83ZM406.8,541.09c0,.72.19,1.38.56,1.98.37.6.87,1.07,1.49,1.42.62.35,1.31.52,2.08.52,1.12,0,2.08-.37,2.85-1.11.78-.74,1.17-1.66,1.17-2.74,0-1.17-.39-2.16-1.17-2.96-.78-.8-1.73-1.2-2.85-1.2-.77,0-1.46.18-2.08.54s-1.11.85-1.49,1.47c-.37.62-.56,1.31-.56,2.08ZM419.97,527.08h-1.86v-2.2h4.22v12.63h3.95v-12.63h2.37v29.93h-2.37v-15.1h-3.95v15.1h-2.36v-27.73Z"/><path class="cls-6" d="M459.25,551.67h-27.53v-2.2h12.57v-7.6h-8.44v-14.15h19.19v2.2h-16.82v9.76h16.82v2.19h-8.38v7.6h12.6v2.2Z"/><path class="cls-6" d="M460.37,550.99v-3.75h3.75v3.75h-3.75Z"/><path class="cls-6" d="M472.22,550.99v-3.75h3.75v3.75h-3.75Z"/><path class="cls-6" d="M484.08,550.99v-3.75h3.75v3.75h-3.75Z"/><path class="cls-6" d="M510.63,554.81h-2.36v-9.9h-12.13v-2.2h26.62v2.2h-12.13v9.9ZM518.97,538.83h-19.19v-11.79h19.19v11.79ZM502.15,529.24v7.4h14.46v-7.4h-14.46Z"/><path class="cls-6" d="M525.12,546.87c2.27-1.04,4.31-2.38,6.1-4.04s3.24-3.52,4.34-5.59c1.1-2.07,1.75-4.24,1.93-6.52h-10.94v-2.2h13.38c.07,2.3-.22,4.48-.88,6.54s-1.6,3.97-2.85,5.73c-1.25,1.76-2.73,3.33-4.44,4.71-1.71,1.38-3.58,2.55-5.61,3.5l-1.01-2.13ZM548.09,555.18h-2.36v-27.22h-2.2v-2.2h4.56v29.42Z"/><path class="cls-6" d="M570.21,542.78h-16.28v-9.52h10v-4.05h-10.1v-2.2h12.5v3.41l8.48.07v-3.04h-2.2v-2.2h4.56v18.61h-2.36v-5.13l-6.79-.07v-2.2l6.79.07v-3.85l-8.48-.07v2.84h-10.1v5.13h13.98v2.2ZM574.81,547.65h-17.7v-2.2h20.06v9.93h-2.36v-7.74Z"/><path class="cls-6" d="M596.08,532.55h-15.23v-2.2h6.38v-4.66h2.36v4.66h6.49v2.2ZM588.35,547.21c-1.22,0-2.31-.28-3.29-.83s-1.76-1.29-2.33-2.23-.86-1.98-.86-3.12.29-2.22.86-3.16c.57-.93,1.35-1.68,2.33-2.23.98-.55,2.08-.83,3.29-.83s2.27.28,3.24.83c.97.55,1.73,1.3,2.3,2.23.56.93.84,1.99.84,3.16s-.28,2.19-.84,3.12c-.56.93-1.33,1.68-2.3,2.23-.97.55-2.05.83-3.24.83ZM584.23,541.09c0,.72.19,1.38.56,1.98.37.6.87,1.07,1.49,1.42.62.35,1.31.52,2.08.52,1.12,0,2.08-.37,2.85-1.11.78-.74,1.17-1.66,1.17-2.74,0-1.17-.39-2.16-1.17-2.96-.78-.8-1.73-1.2-2.85-1.2-.77,0-1.46.18-2.08.54s-1.11.85-1.49,1.47c-.37.62-.56,1.31-.56,2.08ZM597.4,527.08h-1.86v-2.2h4.22v12.63h3.95v-12.63h2.37v29.93h-2.37v-15.1h-3.95v15.1h-2.36v-27.73Z"/><path class="cls-6" d="M893.89,753.43h-27.43v-2.2h12.5v-7.26h2.36v7.26h12.57v2.2ZM869.74,746l-1.18-1.86,10.4-7.16v-4.76h-9.12v-2.2h20.54v2.2h-9.05v4.76l10.4,7.16-1.18,1.86-10.4-7.16-10.4,7.16Z"/><path class="cls-6" d="M896.83,744.14l-1.55-1.59,7.73-7.23v-4.43h-6.65v-2.2h15.64v2.2h-6.62v4.39l7.94,6.59-1.49,1.59-7.6-6.25-7.4,6.92ZM917,748.7h-17.6v-2.2h19.96v10.64h-2.36v-8.44ZM917,729.01h-2.2v-2.2h4.56v17.97h-2.36v-15.77Z"/><path class="cls-6" d="M935.98,744.34h-12.8v-2.2h26.72v2.2h-11.55v6.15h-2.37v-6.15ZM947.36,756.54h-20.37v-9.02h2.36v6.82h18v2.2ZM946.65,738.67h-19.12v-10.71h19.12v10.71ZM929.9,730.16v6.32h14.39v-6.32h-14.39Z"/><path class="cls-6" d="M974.65,757.15h-2.36v-5.61h-20.64v-2.2h8.01v-3.18c-1.08-.18-2.05-.54-2.91-1.08-.86-.54-1.53-1.22-2.03-2.04-.5-.82-.74-1.72-.74-2.69,0-1.1.31-2.1.93-2.99.62-.89,1.46-1.6,2.52-2.13,1.06-.53,2.23-.79,3.51-.79s2.44.27,3.46.79c1.02.53,1.84,1.24,2.45,2.13.61.89.91,1.89.91,2.99,0,.99-.25,1.9-.76,2.74-.51.83-1.19,1.52-2.04,2.06-.86.54-1.84.89-2.94,1.05v3.14h10.27v-20.44h-2.2v-2.2h4.56v13.58h4.96v2.2h-4.96v14.66ZM969.38,732.99h-17.5v-2.13h7.84v-4.19h2.3v4.19h7.36v2.13ZM956.35,740.39c0,.68.2,1.29.61,1.86.41.56.96,1.01,1.66,1.33.7.33,1.47.49,2.33.49s1.59-.16,2.26-.47c.68-.32,1.21-.75,1.6-1.3s.59-1.17.59-1.84c0-.72-.2-1.37-.59-1.94s-.93-1.03-1.6-1.37c-.67-.34-1.43-.51-2.26-.51s-1.63.17-2.33.51-1.25.79-1.66,1.35c-.41.56-.61,1.19-.61,1.89Z"/><path class="cls-6" d="M995.33,730.09c.11,3.04-.37,5.89-1.44,8.56-1.07,2.67-2.63,5.05-4.7,7.16-2.06,2.11-4.53,3.86-7.41,5.25l-1.01-2.13c2.43-1.17,4.52-2.62,6.27-4.34s3.12-3.63,4.12-5.73c1-2.09,1.58-4.29,1.74-6.59h-11.04v-2.2h13.48ZM1000.39,729.04h-2.2v-2.2h4.56v12.67h5.13v2.2h-5.13v15.44h-2.36v-28.1Z"/><path class="cls-6" d="M867.71,782.82c0-1.96.3-3.65.91-5.08.61-1.43,1.48-2.53,2.62-3.31,1.14-.78,2.48-1.17,4.04-1.17,1.53.05,2.86.47,3.99,1.27,1.13.8,1.99,1.9,2.6,3.31.61,1.41.91,3.07.91,4.98s-.3,3.61-.91,5.03c-.61,1.42-1.47,2.51-2.6,3.28-1.13.77-2.46,1.15-3.99,1.15s-2.9-.38-4.04-1.15c-1.14-.76-2.01-1.86-2.62-3.28-.61-1.42-.91-3.1-.91-5.03ZM870.08,782.82c0,2.23.47,4,1.4,5.3.93,1.31,2.2,1.96,3.8,1.96s2.83-.65,3.75-1.96c.92-1.31,1.38-3.07,1.38-5.3s-.46-4.07-1.38-5.39c-.92-1.32-2.17-1.98-3.75-1.98s-2.87.66-3.8,1.98-1.4,3.11-1.4,5.39ZM890.82,799.51h-2.36v-27.8h-2.2v-2.2h4.56v29.99Z"/><path class="cls-6" d="M907.91,786.5h-11.25v-14.46h2.36v5.91h6.52v-5.91h2.37v5.91h4.12v-5.88h-2.2v-2.2h4.56v21.55h-2.37v-11.28h-4.12v6.35ZM899.03,780.15v4.16h6.52v-4.16h-6.52ZM901.09,799v-9.8h2.36v7.6h17.63v2.2h-20ZM920.27,791.44h-2.36v-21.55h2.36v21.55Z"/><path class="cls-6" d="M950.71,796.3h-27.7v-2.2h27.7v2.2ZM946.45,787.52h-19.19v-15.17h19.19v2.2h-16.82v4.29h16.82v2.2h-16.82v4.29h16.82v2.2Z"/><path class="cls-6" d="M970.84,791.5c2.27-1.04,4.31-2.38,6.1-4.04,1.79-1.66,3.24-3.52,4.34-5.59,1.1-2.07,1.75-4.24,1.93-6.52h-10.94v-2.2h13.38c.07,2.3-.22,4.48-.88,6.54s-1.6,3.97-2.85,5.73c-1.25,1.76-2.73,3.33-4.44,4.71-1.71,1.38-3.58,2.55-5.61,3.5l-1.01-2.13ZM993.81,799.81h-2.36v-27.23h-2.2v-2.2h4.56v29.42Z"/><path class="cls-6" d="M1016.03,774.68h-16.62v-2.2h6.92v-2.97h2.36v2.97h7.33v2.2ZM1022.38,789.68h-2.36v-1.05h-20.6v-2.2h6.92v-1.59c-1.64-.18-2.97-.68-3.97-1.49-1-.81-1.5-1.8-1.5-2.97,0-.92.29-1.73.88-2.43.58-.7,1.4-1.24,2.43-1.64,1.04-.39,2.22-.59,3.55-.59s2.5.2,3.51.59c1.01.39,1.81.94,2.38,1.64s.86,1.51.86,2.43c0,1.22-.54,2.23-1.6,3.04-1.07.81-2.46,1.3-4.17,1.45v1.55h11.32v-14.69h-1.96v-2.2h4.32v20.13ZM1019.98,793.39h-17.63v-2.2h20v8.58h-2.37v-6.38ZM1003.16,780.42c0,.7.43,1.27,1.28,1.71.86.44,1.95.66,3.28.66s2.4-.21,3.23-.64,1.23-.98,1.23-1.66c0-.79-.41-1.42-1.23-1.91s-1.9-.73-3.23-.73-2.42.24-3.28.71c-.86.47-1.28,1.09-1.28,1.86Z"/><path class="cls-6" d="M1053.53,787.72h-26.72v-2.2h26.72v2.2ZM1030.35,799.41v-8.65h2.36v6.45h17.8v2.2h-20.17ZM1030.62,777.01c0-1.12.41-2.13,1.23-3.01.82-.88,1.96-1.56,3.43-2.06,1.46-.5,3.13-.74,5-.74s3.56.25,5.02.74c1.45.5,2.6,1.18,3.43,2.06s1.25,1.88,1.25,3.01-.42,2.13-1.25,3.01-1.98,1.57-3.43,2.06c-1.45.5-3.12.74-5.02.74s-3.54-.25-5-.74c-1.46-.5-2.61-1.18-3.43-2.06-.82-.88-1.23-1.88-1.23-3.01ZM1032.99,777.05c0,.7.31,1.32.95,1.86.63.54,1.49.96,2.58,1.27,1.09.3,2.35.46,3.77.46s2.71-.15,3.8-.46c1.09-.3,1.95-.73,2.58-1.27.63-.54.95-1.16.95-1.86s-.32-1.35-.95-1.89c-.63-.54-1.49-.97-2.58-1.28-1.09-.32-2.36-.47-3.8-.47s-2.67.16-3.77.47c-1.09.32-1.95.74-2.58,1.28-.63.54-.95,1.17-.95,1.89Z"/><path class="cls-6" d="M867.28,824.95c0-3.08.62-5.45,1.88-7.09,1.25-1.64,3.03-2.47,5.35-2.47,2.3.09,4.06.96,5.3,2.62s1.86,3.97,1.86,6.94-.62,5.38-1.86,7.01-3.01,2.45-5.3,2.45-4.1-.82-5.35-2.45c-1.25-1.63-1.88-3.97-1.88-7.01ZM869.64,824.95c0,2.32.42,4.11,1.27,5.37.84,1.26,2.04,1.89,3.6,1.89s2.71-.63,3.55-1.89c.83-1.26,1.25-3.05,1.25-5.37s-.42-4.18-1.25-5.46c-.83-1.27-2.02-1.91-3.55-1.91s-2.75.64-3.6,1.91c-.84,1.27-1.27,3.09-1.27,5.46ZM889.37,842.65h-2.36v-27.93h-2.2v-2.2h4.56v12.09h5.44v2.2h-5.44v15.84Z"/><path class="cls-6" d="M916.59,833.59h-19.56l.07-18.95h2.37l-.07,16.75h17.19v-17.19h-1.86v-2.03h4.22v30h-2.36v-8.58Z"/><path class="cls-6" d="M924.63,829.47l-1.52-1.59,7.9-6.99v-4.02h-6.52v-2.2h15.2v2.2h-6.32v4.59l6.99,4.86-1.35,1.72-7.13-4.93h-.07l-7.19,6.35ZM938.88,841.67h-12.06v-11.21h2.36v9.02h8.24c-.02-.11-.04-.23-.05-.35-.01-.12-.02-.24-.02-.36,0-.81.25-1.54.74-2.18.5-.64,1.17-1.15,2.03-1.54.86-.38,1.8-.57,2.84-.57,1.06-.02,2.01.16,2.85.54.84.38,1.51.9,2.01,1.55.5.65.74,1.38.74,2.2s-.25,1.5-.74,2.15c-.5.64-1.17,1.15-2.01,1.52-.84.37-1.8.56-2.85.56-.81,0-1.57-.12-2.26-.35-.7-.24-1.31-.56-1.82-.96ZM948.92,833.36h-14.42v-2.03h6.76v-3.04h2.16v3.04h5.51v2.03ZM939.39,838.76c0,.65.35,1.21,1.05,1.67.7.46,1.54.69,2.53.69s1.83-.23,2.53-.69c.7-.46,1.05-1.02,1.05-1.67s-.35-1.25-1.05-1.72c-.7-.47-1.54-.71-2.53-.71s-1.83.24-2.53.71c-.7.47-1.05,1.05-1.05,1.72ZM943.95,814.38h-2.2v-2.2h4.56v9.39h5.67v2.2h-5.67v4.05h-2.36v-13.44Z"/><path class="cls-6" d="M952.39,824.95c0-3.08.62-5.45,1.88-7.09,1.25-1.64,3.03-2.47,5.35-2.47,2.3.09,4.06.96,5.3,2.62s1.86,3.97,1.86,6.94-.62,5.38-1.86,7.01-3.01,2.45-5.3,2.45-4.1-.82-5.35-2.45c-1.25-1.63-1.88-3.97-1.88-7.01ZM954.76,824.95c0,2.32.42,4.11,1.27,5.37.84,1.26,2.04,1.89,3.6,1.89s2.71-.63,3.55-1.89c.83-1.26,1.25-3.05,1.25-5.37s-.42-4.18-1.25-5.46c-.83-1.27-2.02-1.91-3.55-1.91s-2.75.64-3.6,1.91c-.84,1.27-1.27,3.09-1.27,5.46ZM974.49,842.65h-2.36v-27.93h-2.2v-2.2h4.56v12.09h5.44v2.2h-5.44v15.84Z"/><path class="cls-6" d="M1007.28,838.8h-27.39v-2.2h7.19v-9.25c-.97-.65-1.73-1.44-2.3-2.37-.56-.92-.84-1.95-.84-3.07,0-1.4.41-2.63,1.23-3.72.82-1.08,1.96-1.93,3.43-2.55,1.46-.62,3.13-.93,5-.93s3.56.31,5.02.93,2.59,1.47,3.41,2.55,1.23,2.32,1.23,3.72c0,1.1-.27,2.12-.81,3.04-.54.92-1.29,1.71-2.26,2.36v9.29h7.09v2.2ZM986.31,821.91c0,.97.31,1.82.95,2.57.63.74,1.49,1.33,2.58,1.76,1.09.43,2.35.64,3.77.64s2.68-.21,3.78-.64c1.1-.43,1.96-1.01,2.58-1.76.62-.74.93-1.6.93-2.57s-.31-1.83-.93-2.58c-.62-.75-1.48-1.35-2.58-1.77-1.1-.43-2.37-.64-3.78-.64s-2.67.21-3.77.64c-1.09.43-1.95,1.02-2.58,1.77-.63.75-.95,1.62-.95,2.58ZM989.45,828.46v8.14h8.38v-8.17c-.63.2-1.29.36-1.99.47s-1.44.17-2.23.17c-1.51,0-2.89-.2-4.16-.61Z"/><path class="cls-6" d="M1008.53,838.29v-3.75h3.75v3.75h-3.75Z"/><path class="cls-6" d="M867.58,862.92c0-1.31.33-2.48,1-3.51.66-1.04,1.56-1.86,2.7-2.48,1.14-.62,2.4-.93,3.8-.93s2.65.31,3.77.93c1.11.62,2,1.45,2.65,2.48.65,1.04.98,2.21.98,3.51s-.33,2.44-.98,3.48c-.65,1.04-1.54,1.86-2.65,2.47-1.12.61-2.37.91-3.77.91s-2.66-.3-3.8-.91c-1.14-.61-2.04-1.43-2.7-2.47-.67-1.04-1-2.2-1-3.48ZM869.94,862.95c0,.86.22,1.64.67,2.35.45.71,1.06,1.27,1.82,1.67s1.62.61,2.57.61,1.83-.21,2.6-.62c.77-.42,1.37-.98,1.82-1.69.45-.71.68-1.49.68-2.35s-.23-1.68-.68-2.4c-.45-.72-1.05-1.29-1.81-1.71-.75-.42-1.6-.62-2.55-.62s-1.81.21-2.58.64c-.78.43-1.4,1-1.86,1.71-.46.71-.69,1.52-.69,2.42ZM888.89,874.24h-16.82v-2.2h19.19v7.7h-16.82v3.24h17.83v2.2h-20.2v-7.63h16.82v-3.31ZM888.76,857.08h-2.2v-2.2h4.56v15.67h-2.37v-13.48Z"/><path class="cls-6" d="M922.03,870.45h-27.16v-2.2h27.16v2.2ZM916.29,875.21h-17.87v-2.2h20.23v7.06h-17.87v2.84h18.78v2.2h-21.15v-7.23h17.87v-2.67ZM898.89,860.83c0-1.04.41-1.95,1.22-2.75.81-.8,1.94-1.42,3.39-1.88s3.11-.68,4.98-.68,3.56.23,5,.68c1.44.45,2.57,1.08,3.38,1.88.81.8,1.22,1.72,1.22,2.75s-.41,1.96-1.22,2.77c-.81.81-1.94,1.44-3.38,1.89-1.44.45-3.11.67-5,.67s-3.53-.22-4.98-.67-2.58-1.08-3.39-1.89-1.22-1.73-1.22-2.77ZM901.26,860.83c0,.61.31,1.15.93,1.64.62.48,1.47.86,2.55,1.13,1.08.27,2.33.41,3.75.41s2.67-.14,3.77-.41c1.09-.27,1.94-.65,2.55-1.13.61-.48.91-1.03.91-1.64s-.3-1.14-.91-1.6c-.61-.46-1.46-.82-2.55-1.08s-2.35-.39-3.77-.39-2.67.13-3.75.39-1.93.62-2.55,1.08c-.62.46-.93,1-.93,1.6Z"/><path class="cls-6" d="M943,870.72l-1.52-1.59,7.77-6.49v-3.65h-6.52v-2.2h15.2v2.2h-6.32v3.78l7.46,5.47-1.42,1.69-7.33-5.37-7.33,6.15ZM946.08,884.64v-7.26h16.28v-3.07h-16.31v-2.2h18.68v7.46h-16.28v2.87h17.4v2.2h-19.76ZM962.66,857.14h-2.2v-2.2h4.56v6.92h4.42v2.2h-4.42v6.35h-2.37v-13.28Z"/><path class="cls-6" d="M987.29,862.55h-17.19v-2.2h7.43v-4.96h2.36v4.96h7.4v2.2ZM978.71,878.15c-1.31,0-2.49-.29-3.55-.88-1.06-.58-1.9-1.37-2.52-2.35s-.93-2.08-.93-3.29.31-2.35.93-3.33,1.46-1.76,2.52-2.35c1.06-.58,2.24-.88,3.55-.88s2.45.29,3.5.88c1.05.59,1.87,1.37,2.48,2.35.61.98.91,2.09.91,3.33s-.3,2.31-.91,3.29c-.61.98-1.44,1.76-2.48,2.35-1.05.59-2.21.88-3.5.88ZM974.08,871.7c0,.79.2,1.51.61,2.16s.96,1.17,1.67,1.54c.71.37,1.49.56,2.35.56s1.62-.19,2.3-.56c.67-.37,1.22-.88,1.62-1.52s.61-1.35.61-2.11c0-.83-.2-1.59-.61-2.26s-.95-1.22-1.62-1.62c-.68-.41-1.44-.61-2.3-.61s-1.64.2-2.35.59c-.71.39-1.27.92-1.67,1.59s-.61,1.41-.61,2.25ZM989.96,857.04h-2.2v-2.2h4.56v12.19h6.08v2.2h-6.08v15.61h-2.36v-27.8Z"/><path class="cls-6" d="M1024.98,881.16h-26.18v-2.2h10.44v-10.71h2.37v10.71h7.46v-19.08h-16.82v-2.2h19.19v21.28h3.55v2.2Z"/><path class="cls-6" d="M1046.9,870.86l-1.55-1.55,7.57-7.67v-6.01h2.36v6.05l7.4,6.82-1.55,1.55-7.03-6.45-7.2,7.26ZM1069.23,884.23h-19.62v-2.2h3.65v-6.38h-3.65v-2.2h19.62v2.2h-3.75v6.38h3.75v2.2ZM1055.62,875.65v6.38h7.5v-6.38h-7.5ZM1069.33,871.5h-2.36v-14.79h-2.2v-2.03h4.56v16.82Z"/><path class="cls-6" d="M1100.14,873.05h-26.72v-2.2h26.72v2.2ZM1076.97,884.74v-8.65h2.36v6.45h17.8v2.2h-20.17ZM1077.24,862.35c0-1.13.41-2.13,1.23-3.01.82-.88,1.96-1.57,3.43-2.06,1.46-.5,3.13-.74,5-.74s3.56.25,5.02.74c1.45.5,2.6,1.18,3.43,2.06.83.88,1.25,1.88,1.25,3.01s-.42,2.13-1.25,3.01c-.83.88-1.98,1.57-3.43,2.06-1.45.5-3.12.74-5.02.74s-3.54-.25-5-.74c-1.46-.5-2.61-1.18-3.43-2.06-.82-.88-1.23-1.88-1.23-3.01ZM1079.6,862.38c0,.7.31,1.32.95,1.86.63.54,1.49.96,2.58,1.27,1.09.3,2.35.46,3.77.46s2.71-.15,3.8-.46c1.09-.3,1.95-.73,2.58-1.27.63-.54.95-1.16.95-1.86s-.32-1.35-.95-1.89c-.63-.54-1.49-.97-2.58-1.28-1.09-.31-2.36-.47-3.8-.47s-2.67.16-3.77.47c-1.09.32-1.95.74-2.58,1.28-.63.54-.95,1.17-.95,1.89Z"/><path class="cls-6" d="M1115.41,878.09h-12.46v-19.08h11.21v2.2h-8.85v14.69h10.1v2.2ZM1118.72,868.93h-6.86v-2.2h6.86v-9.19h-1.86v-2.2h4.22v29.42h-2.36v-15.84ZM1127.13,884.77h-2.36v-29.42h2.36v29.42Z"/><path class="cls-6" d="M1130.13,880.96v-3.75h3.75v3.75h-3.75Z"/><path class="cls-6" d="M1313.72,762.26h-14.83v-17.4h11.04v2.2h-8.68v13h12.46v-16.96h-2.2v-2.2h4.56v11.45h4.36v-11.45h2.37v29.35h-2.37v-15.71h-4.36v15.71h-2.36v-8Z"/><path class="cls-6" d="M1353.55,766.96h-27.53v-2.2h8.34l-.03-7.53h-5.13v-2.2h5.1l-.03-10.2h-4.9v-2.2h20.6v2.2h-5.03l.03,10.2h5.17v2.2h-5.13l.03,7.53h8.51v2.2ZM1342.67,744.83h-6.15l.03,10.2h6.15l-.03-10.2ZM1342.74,757.23h-6.15l.03,7.53h6.15l-.03-7.53Z"/><path class="cls-6" d="M1378.64,757.57h-2.37v-2.5h-19.69v-13.11h2.37v10.91h17.33v-10.27h-2.2v-2.03h4.56v16.99ZM1360.07,769.08h-.03v-9.63h18.54v10.67h-18.51v-1.05ZM1362.33,761.59v6.42h13.95v-6.42h-13.95Z"/><path class="cls-6" d="M1322.17,813.47h-2.36v-16.42h-7.06c-.13,2.72-.82,4.81-2.04,6.27-1.23,1.45-2.92,2.18-5.08,2.18-2.32,0-4.1-.82-5.35-2.45-1.25-1.63-1.88-3.97-1.88-7.01s.62-5.45,1.88-7.09c1.25-1.64,3.03-2.47,5.35-2.47,2.14.09,3.82.86,5.05,2.3,1.23,1.44,1.92,3.47,2.08,6.08h7.06v-9.32h-2.2v-2.2h4.56v30.13ZM1300.75,796.04c0,2.32.42,4.11,1.27,5.37.84,1.26,2.04,1.89,3.6,1.89s2.71-.63,3.55-1.89c.83-1.26,1.25-3.05,1.25-5.37s-.42-4.18-1.25-5.46c-.83-1.27-2.02-1.91-3.55-1.91s-2.75.64-3.6,1.91c-.84,1.27-1.27,3.09-1.27,5.46Z"/><path class="cls-6" d="M1332.44,789.39h-5.78v-2.2h13.68v2.2h-5.54v6.92l6.18,7.87-1.69,1.38-5.71-7.36-6.42,7.84-1.66-1.45,6.92-8.38v-6.82ZM1343.14,796.01h-5.2v-2.2h5.2v-8.55h-2.3v-2.2h4.66v29.86h-2.37v-16.92ZM1351.42,812.93h-2.37v-29.86h2.37v29.86Z"/><path class="cls-6" d="M1381.45,800.47h-26.95v-2.2h26.95v2.2ZM1378.68,812.36h-20.77v-8.75h2.36v6.55h18.41v2.2ZM1377.77,794.25h-19.05v-10.34h2.37v8.14h16.69v2.2Z"/><path class="cls-6" d="M1427.72,809.32h-26.18v-2.2h20.27v-19.08h-16.82v-2.2h19.19v21.28h3.55v2.2Z"/><path class="cls-6" d="M1453.29,813.31h-2.36v-18h-8.34c-1.06,2.23-2.54,4.17-4.46,5.83-1.91,1.65-4.12,3.09-6.62,4.31l-1.01-2.13c3.27-1.55,5.91-3.51,7.94-5.88,2.03-2.36,3.17-5.22,3.45-8.58h-10.64v-2.2h13.04c.07,2.34-.2,4.49-.81,6.45h7.47v-7.03h-2.2v-2.2h4.56v29.42Z"/><path class="cls-6" d="M1298.39,838.44c0-3.08.62-5.45,1.88-7.09,1.25-1.64,3.03-2.47,5.35-2.47,2.3.09,4.06.96,5.3,2.62s1.86,3.97,1.86,6.94-.62,5.38-1.86,7.01-3.01,2.45-5.3,2.45-4.1-.82-5.35-2.45c-1.25-1.63-1.88-3.97-1.88-7.01ZM1300.75,838.44c0,2.32.42,4.11,1.27,5.37.84,1.26,2.04,1.89,3.6,1.89s2.71-.63,3.55-1.89c.83-1.26,1.25-3.05,1.25-5.37s-.42-4.18-1.25-5.46c-.83-1.27-2.02-1.91-3.55-1.91s-2.75.64-3.6,1.91c-.84,1.27-1.27,3.09-1.27,5.46ZM1320.48,856.14h-2.36v-27.93h-2.2v-2.2h4.56v12.09h5.44v2.2h-5.44v15.84Z"/><path class="cls-6" d="M1347.7,847.09h-19.56l.07-18.95h2.37l-.07,16.75h17.19v-17.19h-1.86v-2.03h4.22v30h-2.36v-8.58Z"/><path class="cls-6" d="M1356.82,856.11l-1.62-1.42,6.28-5.71v-4.46h2.3v4.49l4.73,4.02,4.8-4.12v-4.39h2.36v4.59l6.21,5.64-1.62,1.42-5.91-5.37-5.84,5.03h-.03l-5.84-5.03-5.81,5.3ZM1363.04,841.92c-1.42,0-2.67-.3-3.75-.89-1.08-.6-1.92-1.43-2.53-2.5-.61-1.07-.91-2.29-.91-3.67s.3-2.54.91-3.56c.61-1.02,1.45-1.82,2.53-2.4,1.08-.57,2.33-.86,3.75-.86,1.8,0,3.32.47,4.54,1.42,1.23.95,2.01,2.21,2.35,3.78h6.28v-5.07h-2.2v-2.2h4.56v17.19h-2.36v-7.74h-6.15c-.07,1.28-.41,2.41-1.03,3.38-.62.97-1.44,1.73-2.47,2.28s-2.2.83-3.53.83ZM1358.21,834.89c0,1.42.44,2.58,1.33,3.48.89.9,2.03,1.35,3.43,1.35s2.54-.45,3.43-1.35,1.33-2.07,1.33-3.51c0-1.35-.43-2.46-1.3-3.33-.87-.87-2-1.3-3.39-1.3s-2.58.43-3.48,1.3c-.9.87-1.35,1.99-1.35,3.36Z"/><path class="cls-6" d="M1384.12,842.97l-1.52-1.59,7.9-6.99v-4.02h-6.52v-2.2h15.2v2.2h-6.32v4.59l6.99,4.86-1.35,1.72-7.13-4.93h-.07l-7.19,6.35ZM1398.37,855.16h-12.06v-11.21h2.36v9.02h8.24c-.02-.11-.04-.23-.05-.35-.01-.12-.02-.24-.02-.36,0-.81.25-1.54.74-2.18.5-.64,1.17-1.15,2.03-1.54.86-.38,1.8-.57,2.84-.57,1.06-.02,2.01.16,2.85.54.84.38,1.51.9,2.01,1.55.5.65.74,1.38.74,2.2s-.25,1.5-.74,2.15c-.5.64-1.17,1.15-2.01,1.52-.84.37-1.8.56-2.85.56-.81,0-1.57-.12-2.26-.35-.7-.24-1.31-.56-1.82-.96ZM1408.4,846.85h-14.42v-2.03h6.76v-3.04h2.16v3.04h5.51v2.03ZM1398.88,852.26c0,.65.35,1.21,1.05,1.67.7.46,1.54.69,2.53.69s1.83-.23,2.53-.69c.7-.46,1.05-1.02,1.05-1.67s-.35-1.25-1.05-1.72c-.7-.47-1.54-.71-2.53-.71s-1.83.24-2.53.71c-.7.47-1.05,1.05-1.05,1.72ZM1403.44,827.87h-2.2v-2.2h4.56v9.39h5.67v2.2h-5.67v4.05h-2.36v-13.44Z"/><path class="cls-6" d="M1411.88,838.44c0-3.08.62-5.45,1.88-7.09,1.25-1.64,3.03-2.47,5.35-2.47,2.3.09,4.06.96,5.3,2.62s1.86,3.97,1.86,6.94-.62,5.38-1.86,7.01-3.01,2.45-5.3,2.45-4.1-.82-5.35-2.45c-1.25-1.63-1.88-3.97-1.88-7.01ZM1414.25,838.44c0,2.32.42,4.11,1.27,5.37.84,1.26,2.04,1.89,3.6,1.89s2.71-.63,3.55-1.89c.83-1.26,1.25-3.05,1.25-5.37s-.42-4.18-1.25-5.46c-.83-1.27-2.02-1.91-3.55-1.91s-2.75.64-3.6,1.91c-.84,1.27-1.27,3.09-1.27,5.46ZM1433.97,856.14h-2.36v-27.93h-2.2v-2.2h4.56v12.09h5.44v2.2h-5.44v15.84Z"/><path class="cls-6" d="M1466.77,852.29h-27.39v-2.2h7.19v-9.25c-.97-.65-1.73-1.44-2.3-2.37-.56-.92-.84-1.95-.84-3.07,0-1.4.41-2.63,1.23-3.72.82-1.08,1.96-1.93,3.43-2.55,1.46-.62,3.13-.93,5-.93s3.56.31,5.02.93,2.59,1.47,3.41,2.55,1.23,2.32,1.23,3.72c0,1.1-.27,2.12-.81,3.04-.54.92-1.29,1.71-2.26,2.36v9.29h7.09v2.2ZM1445.79,835.4c0,.97.31,1.82.95,2.57.63.74,1.49,1.33,2.58,1.76,1.09.43,2.35.64,3.77.64s2.68-.21,3.78-.64c1.1-.43,1.96-1.01,2.58-1.76.62-.74.93-1.6.93-2.57s-.31-1.83-.93-2.58c-.62-.75-1.48-1.35-2.58-1.77-1.1-.43-2.37-.64-3.78-.64s-2.67.21-3.77.64c-1.09.43-1.95,1.02-2.58,1.77-.63.75-.95,1.62-.95,2.58ZM1448.94,841.95v8.14h8.38v-8.17c-.63.2-1.29.36-1.99.47s-1.44.17-2.23.17c-1.51,0-2.89-.2-4.16-.61Z"/><path class="cls-6" d="M1468.02,851.78v-3.75h3.75v3.75h-3.75Z"/><rect class="cls-3" x="217.83" y="106.77" width="795.34" height="61.12"/><rect class="cls-3" x="257.88" y="168.02" width="795.34" height="61.12"/><path class="cls-6" d="M234.16,150.34l-2.35-1.84,10.67-13.48v-13.06h3.22v13.06l10.72,13.48-2.39,1.84-9.94-12.51-9.94,12.51ZM263.37,158.94h-3.22v-38.09h-2.99v-2.76h6.21v15.64h6.81v2.99h-6.81v22.22Z"/><path class="cls-6" d="M304.59,143.62h-3.22v-2.99h-26.82v-12.24h15.09v-4.42h-15.41v-2.76h18.63v10.17h-15.09v6.39h23.6v-16.97h-2.99v-2.76h6.21v11.45h5.8v2.99h-5.8v11.13ZM304.73,159.08h-26.17v-13.57h26.17v13.57ZM281.54,148.27v8.05h20.19v-8.05h-20.19Z"/><path class="cls-6" d="M339.69,158.85h-3.22v-22.17h-5.47c-.31,7.18-3.24,10.76-8.79,10.76-5.95,0-8.92-4.06-8.92-12.19s2.97-12.33,8.92-12.33c5.49.18,8.42,3.77,8.79,10.76h5.47v-12.83h-2.99v-2.99h6.21v40.99ZM316.5,135.25c0,6.13,1.9,9.2,5.7,9.2s5.61-3.07,5.61-9.2-1.87-9.34-5.61-9.34-5.7,3.11-5.7,9.34ZM347.74,158.85h-3.22v-40.99h3.22v40.99Z"/><path class="cls-6" d="M367.98,126.33h-12.65v-2.99h15.87c.18,4.17-.41,8.03-1.79,11.59h6.99v-14.08h-2.99v-2.99h6.21v40.99h-3.22v-20.93h-8.37l-.41.74c-.83,1.41-1.91,2.88-3.24,4.39s-2.76,2.92-4.28,4.21c-1.52,1.29-3,2.33-4.44,3.13l-1.75-2.67c1.35-.8,2.73-1.79,4.14-2.97,1.41-1.18,2.71-2.44,3.91-3.77,1.2-1.33,2.15-2.61,2.85-3.84,1.87-3.22,2.93-6.82,3.17-10.81ZM388.22,158.85h-3.22v-40.99h3.22v40.99Z"/><path class="cls-6" d="M458.09,140.08h-37.31v-2.99h37.31v2.99ZM453.35,158.48h-27.09v-8.92h23.46v-2.76h-23.46v-2.99h26.68v8.51h-23.46v3.17h23.87v2.99ZM452.11,133.87h-25.76v-13.62h25.76v2.85h-22.68v7.91h22.68v2.85Z"/><path class="cls-6" d="M491.58,148.91h-27.65l.09-13.75v-1.7h15.18v-8.74h-15.18v-2.99h18.4v14.72h-15.18l-.09,9.48h24.43v-24.84h-2.99v-2.99h6.21v40.85h-3.22v-10.03Z"/><path class="cls-6" d="M516.09,126.33h-12.65v-2.99h15.87c.18,4.17-.41,8.03-1.79,11.59h6.99v-14.08h-2.99v-2.99h6.21v40.99h-3.22v-20.93h-8.37l-.41.74c-.83,1.41-1.91,2.88-3.24,4.39s-2.76,2.92-4.28,4.21c-1.52,1.29-3,2.33-4.44,3.13l-1.75-2.67c1.35-.8,2.73-1.79,4.14-2.97,1.41-1.18,2.71-2.44,3.91-3.77,1.2-1.33,2.15-2.61,2.85-3.84,1.87-3.22,2.93-6.82,3.17-10.81ZM536.33,158.85h-3.22v-40.99h3.22v40.99Z"/><path class="cls-6" d="M589.33,137.6h-17.94v-16.88h17.94v16.88ZM574.6,123.7v10.9h11.5v-10.9h-11.5ZM602.48,158.53h-26.86v-10.63h21.71v-3.86h-21.71v-2.85h24.93v9.71h-21.71v4.65h23.64v2.99ZM600.64,139.21h-3.22v-18.35h-2.99v-2.99h6.21v9.29h5.66v2.99h-5.66v9.06Z"/><path class="cls-6" d="M633.16,128.58h-23.41v-2.99h10.12v-6.76h3.22v6.76h10.07v2.99ZM621.48,149.83c-1.78,0-3.39-.4-4.83-1.2-1.44-.8-2.58-1.86-3.43-3.2-.84-1.33-1.27-2.83-1.27-4.48s.42-3.2,1.27-4.53c.84-1.33,1.99-2.4,3.43-3.2,1.44-.8,3.05-1.2,4.83-1.2s3.33.4,4.76,1.2c1.43.8,2.55,1.86,3.38,3.2s1.24,2.84,1.24,4.53-.41,3.15-1.24,4.48-1.96,2.4-3.38,3.2c-1.43.8-3.01,1.2-4.76,1.2ZM615.18,141.05c0,1.07.28,2.05.83,2.94.55.89,1.31,1.59,2.28,2.09.97.51,2.03.76,3.2.76s2.21-.25,3.13-.76c.92-.51,1.66-1.2,2.21-2.07s.83-1.83.83-2.88c0-1.13-.28-2.16-.83-3.08-.55-.92-1.29-1.66-2.21-2.21-.92-.55-1.96-.83-3.13-.83s-2.23.27-3.2.8c-.97.54-1.72,1.26-2.28,2.16-.55.9-.83,1.92-.83,3.06ZM636.8,121.08h-2.99v-2.99h6.21v16.61h8.28v2.99h-8.28v21.25h-3.22v-37.86Z"/><path class="cls-6" d="M686.8,141.87h-36.71v-2.99h36.71v2.99ZM683.03,158.07h-28.29v-11.91h3.22v8.92h25.07v2.99ZM681.79,133.41h-25.94v-14.08h3.22v11.09h22.72v2.99Z"/><path class="cls-6" d="M734.27,133.82c-1.78,2.58-3.97,4.7-6.58,6.37-2.61,1.67-5.35,2.89-8.23,3.66l-1.01-3.08c2.67-.71,5.16-1.83,7.47-3.38,2.32-1.55,4.25-3.42,5.8-5.61,1.55-2.19,2.49-4.62,2.83-7.29h-15.78v-2.99h19.37c-.03,1.75-.24,3.4-.62,4.97s-.9,3.02-1.54,4.37h11.36v-9.71h-2.99v-2.99h6.21v30.41h-3.22v-14.72h-13.06ZM752.03,158.39h-27.05v-12.93h3.22v9.94h23.83v2.99Z"/><path class="cls-6" d="M311.51,219.25h-3.22v-16.56h-10.72c-.86,1.47-2.02,2.61-3.47,3.43-1.46.81-3.14,1.22-5.04,1.22-2.12,0-3.95-.49-5.5-1.47-1.55-.98-2.75-2.37-3.59-4.16-.84-1.79-1.26-3.92-1.26-6.37,0-3.74.94-6.69,2.81-8.85,1.87-2.16,4.39-3.24,7.54-3.24,2.12.12,3.95.7,5.5,1.73,1.55,1.03,2.72,2.43,3.52,4.21h10.21v-7.96h-2.99v-2.99h6.21v41.03ZM281.93,195.33c0,2.76.64,4.95,1.93,6.58,1.29,1.63,3.02,2.44,5.2,2.44s3.89-.81,5.15-2.44c1.26-1.62,1.89-3.82,1.89-6.58s-.63-5.04-1.89-6.67c-1.26-1.63-2.97-2.44-5.15-2.44s-3.91.81-5.2,2.44-1.93,3.85-1.93,6.67ZM299.32,195.33c0,1.56-.18,3.02-.55,4.37h9.52v-7.54h-9.25c.18,1.01.28,2.07.28,3.17Z"/><path class="cls-6" d="M351.99,218.61h-3.22v-26.5h-10.72v3.54h-13.62v9.48h18.08v2.99h-21.3v-15.46h13.62v-7.68h-13.62v-2.99h16.84v7.13h10.72v-7.91h-2.99v-2.99h6.21v40.39Z"/><path class="cls-6" d="M376,203.1h-17.11v-2.99h37.44v2.99h-17.11v7.87h-3.22v-7.87ZM392.01,218.51h-27.97v-11.18h3.22v8.19h24.75v2.99ZM390.63,195.97h-26.13v-16.1h3.22v5.01h19.69v-5.01h3.22v16.1ZM367.72,187.88v5.11h19.69v-5.11h-19.69Z"/><path class="cls-6" d="M435.02,188.66v-7.91h3.22v8.28l8.6,9.48-2.25,1.98-8.1-8.88-8.14,8.88-2.25-1.98,8.92-9.84ZM434.79,210.69c0-2.42,1.14-4.29,3.43-5.59,2.28-1.3,5.56-1.96,9.82-1.96s7.54.65,9.82,1.96c2.28,1.3,3.43,3.17,3.43,5.59s-1.14,4.29-3.43,5.59c-2.29,1.3-5.56,1.96-9.82,1.96s-7.54-.65-9.82-1.96c-2.28-1.3-3.43-3.17-3.43-5.59ZM437.92,210.69c0,1.5.87,2.65,2.62,3.45,1.75.8,4.25,1.2,7.5,1.2s5.75-.4,7.5-1.2c1.75-.8,2.62-1.95,2.62-3.45s-.87-2.65-2.62-3.45-4.25-1.2-7.5-1.2-5.75.4-7.5,1.2-2.62,1.95-2.62,3.45ZM448.78,181.25h-2.99v-2.99h6.21v9.94h5.24v-9.94h3.22v23.74h-3.22v-10.81h-5.24v10.81h-3.22v-20.75Z"/><path class="cls-6" d="M468,198.55c1.9-.43,3.75-1.09,5.54-1.98,1.79-.89,3.32-1.92,4.58-3.08,1.53-1.44,2.8-2.97,3.79-4.6,1-1.63,1.62-3.25,1.86-4.88h-14.44v-3.13h17.8v.83c0,1.78-.32,3.51-.97,5.2-.64,1.69-1.49,3.27-2.53,4.74-1.04,1.47-2.18,2.79-3.4,3.96-1.44,1.35-3.14,2.52-5.08,3.52-1.95,1-3.98,1.73-6.09,2.19l-1.06-2.76ZM498.5,218.61h-3.22v-11.55h-22.49v-2.99h25.71v14.54ZM494.82,181.16h-2.99v-2.99h6.21v10.49h6.16v2.99h-6.16v10.44h-3.22v-20.93Z"/><path class="cls-6" d="M543.44,214.05h-36.39v-2.99h17.02v-9.71h-11.45v-19.73h3.22v7.64h19.69v-7.64h3.22v19.73h-11.45v9.71h16.15v2.99ZM515.84,192.25v6.12h19.69v-6.12h-19.69Z"/><path class="cls-6" d="M575.64,207.43h-25.9l.09-22.59v-1.7h18.54v2.99h-15.32l-.09,18.31h22.68v-23.92h-2.99v-2.99h6.21v16.33h7.08v2.99h-7.08v21.48h-3.22v-10.9Z"/><path class="cls-6" d="M620.95,219.02v-9.11h23.64v-3.45h-23.69v-2.99h5.06v-3.5h-10.63v-2.99h25.48v2.99h-11.64v3.5h18.63v9.43h-23.64v3.13h25.67v2.99h-28.89ZM638.39,183.28h-22.77v-2.99h10.35v-3.27h3.22v3.27h9.2v2.99ZM618.38,189.86c0-1.81.8-3.2,2.39-4.19,1.59-.98,3.86-1.47,6.81-1.47,2.54.12,4.58.56,6.09,1.31,1.52.75,2.46,1.77,2.83,3.06h8.23v-7.41h-2.99v-2.99h6.21l-.05,23.69h-3.22v-10.3h-8.28c-.46,1.23-1.44,2.17-2.94,2.83-1.5.66-3.47.99-5.89.99-2.94,0-5.21-.48-6.81-1.43-1.59-.95-2.39-2.31-2.39-4.09ZM621.37,189.86c0,.86.54,1.53,1.61,2.02,1.07.49,2.61.74,4.6.74s3.47-.25,4.53-.74c1.06-.49,1.59-1.17,1.59-2.02,0-.92-.53-1.63-1.59-2.14-1.06-.51-2.57-.76-4.53-.76s-3.53.25-4.6.76c-1.07.51-1.61,1.22-1.61,2.14Z"/><path class="cls-6" d="M661.06,192.11v-12.19h3.22v12.1l4.55,4.55,3.73-4.92v-11.73h3.22v11.73l6.76,7.5-1.98,2.07-6.35-6.85-5.38,6.99-6.07-6.72-6.07,6.58-1.98-2.07,6.35-7.04ZM689.95,217.92h-27.55v-13.25h3.22v10.26h24.33v2.99ZM686.18,180.75h-2.99v-2.99h6.21v30.45h-3.22v-27.46Z"/><path class="cls-6" d="M752.42,208.26h-27.51l.09-23.64v-1.93h18.12v2.99h-14.9l-.09,19.6h24.29v-9.66h-11.64v-2.99h11.64v-11.91h-2.53v-2.94h5.75v40.85h-3.22v-10.35Z"/><path class="cls-6" d="M823.03,219.25h-3.22v-22.36h-9.61c-.18,3.71-1.11,6.55-2.78,8.53-1.67,1.98-3.98,2.97-6.92,2.97-3.16,0-5.59-1.11-7.29-3.33-1.7-2.22-2.55-5.41-2.55-9.54s.85-7.42,2.55-9.66c1.7-2.24,4.13-3.36,7.29-3.36,2.91.12,5.21,1.17,6.88,3.13,1.67,1.96,2.61,4.72,2.83,8.28h9.61v-12.7h-2.99v-2.99h6.21v41.03ZM793.86,195.51c0,3.16.58,5.6,1.73,7.31,1.15,1.72,2.78,2.58,4.9,2.58s3.7-.86,4.83-2.58c1.13-1.72,1.7-4.16,1.7-7.31s-.57-5.7-1.7-7.43c-1.13-1.73-2.75-2.6-4.83-2.6s-3.75.87-4.9,2.6c-1.15,1.73-1.73,4.21-1.73,7.43Z"/><path class="cls-6" d="M863.05,200.44h-3.22v-5.29h-11.87v-2.99h11.87v-5.43h-10.81v3.77h-13.71v6.81h17.11v2.99h-20.33v-12.79h13.8v-4.92h-13.98v-2.99h17.11v4.14h10.81v-2.94h-2.99v-2.99h6.21v22.63ZM863.09,218.1h-25.9v-15.32h3.22v4.83h19.46v-4.83h3.22v15.32ZM840.42,210.6v4.51h19.46v-4.51h-19.46Z"/><path class="cls-6" d="M907.35,199.93h-36.39v-2.99h36.39v2.99ZM874.78,193.58l-1.43-2.62,14.21-7.68v-5.47h3.22v5.47l13.94,7.54-1.43,2.62-14.12-7.64-14.4,7.77ZM903.16,218.51h-27.97v-15.36h3.22v4.83h21.53v-4.83h3.22v15.36ZM878.41,210.97v4.55h21.53v-4.55h-21.53Z"/><path class="cls-6" d="M940.6,206.92h-26.63l.09-25.81h3.22l-.09,22.82h23.41v-23.41h-2.53v-2.76h5.75v40.85h-3.22v-11.68Z"/><path class="cls-6" d="M979.52,207.43h-25.9l.09-22.59v-1.7h18.54v2.99h-15.32l-.09,18.31h22.68v-23.92h-2.99v-2.99h6.21v16.33h7.08v2.99h-7.08v21.48h-3.22v-10.9Z"/><path class="cls-6" d="M992.21,213.32v-5.11h5.11v5.11h-5.11Z"/></svg>