<?xml version="1.0" encoding="UTF-8"?><svg id="_레이어_1" xmlns="http://www.w3.org/2000/svg" viewBox="0 0 1920 1080"><defs><style>.cls-1{fill:none;stroke:#f2f6f7;stroke-miterlimit:10;stroke-width:2px;}.cls-2{fill:#fff;}.cls-3{fill:#0000fe;}</style></defs><rect class="cls-3" width="1920" height="1080"/><path class="cls-2" d="M262.06,484.27c0-10.21,3.69-15.31,11.08-15.31,7.31.23,10.97,5.33,10.97,15.31s-3.66,15.14-10.97,15.14-11.08-5.05-11.08-15.14ZM266.06,484.27c0,7.62,2.36,11.43,7.09,11.43s6.97-3.81,6.97-11.43-2.32-11.6-6.97-11.6-7.09,3.87-7.09,11.6ZM292.57,513.58h-4v-47.2h-3.71v-3.71h7.71v20h8.29v-20h4v50.91h-4v-27.2h-8.29v27.2Z"/><path class="cls-2" d="M356.33,508.16h-46.57v-3.71h46.57v3.71ZM350.33,492.84h-34.74v-3.71h7.2v-17.66h-7.2v-3.71h34.74v3.71h-7.2v17.66h7.2v3.71ZM326.79,471.47v17.66h12.34v-17.66h-12.34Z"/><path class="cls-2" d="M395.7,502.33h-35.08v-34.45h23.83v3.71h-19.83v11.26h17.48v3.71h-17.48v12.06h31.08v-12.06h-9.66v-3.71h9.66v-15.66h-3.71v-3.71h7.71v51.37h-4v-12.51Z"/><path class="cls-2" d="M451.64,508.04h-45.14v-3.71h20.57v-12.63h-14.34v-23.94h32.45v23.94h-14.11v12.63h20.57v3.71ZM416.73,471.47v16.51h24.45v-16.51h-24.45Z"/><path class="cls-2" d="M475.98,491.87h-19.48v-23.48h19.48v9.66h6.97v-10.74h-3.71v-3.71h7.71v36.85h-4v-18.68h-6.97v10.11ZM460.5,472.1v16.06h11.48v-16.06h-11.48ZM463.98,513.41v-16.34h4v12.63h30.28v3.71h-34.28ZM496.89,500.44h-4v-36.85h4v36.85Z"/><path class="cls-2" d="M548.37,508.27h-46.85v-3.71h46.85v3.71ZM541.18,493.41h-32.45v-25.65h32.45v3.71h-28.46v7.26h28.46v3.71h-28.46v7.26h28.46v3.71Z"/><path class="cls-2" d="M595.74,492.5h-45.6v-3.71h45.6v3.71ZM591.06,512.61h-35.14v-14.8h4v11.08h31.14v3.71ZM589.51,481.99h-32.23v-17.48h4v13.77h28.23v3.71Z"/><path class="cls-2" d="M675.11,507.93h-46.4v-3.71h21.14v-12.28h4v12.28h21.25v3.71ZM634.25,495.36l-2-3.14,17.6-12.11v-8.06h-15.43v-3.71h34.74v3.71h-15.31v8.06l17.6,12.11-2,3.14-17.6-12.11-17.6,12.11Z"/><path class="cls-2" d="M680.08,492.21l-2.63-2.69,13.08-12.23v-7.49h-11.26v-3.71h26.46v3.71h-11.2v7.43l13.43,11.14-2.51,2.69-12.86-10.57-12.51,11.71ZM714.19,499.93h-29.77v-3.71h33.77v18h-4v-14.28ZM714.19,466.62h-3.71v-3.71h7.71v30.4h-4v-26.68Z"/><path class="cls-2" d="M746.3,492.56h-21.66v-3.71h45.2v3.71h-19.54v10.4h-4v-10.4ZM765.56,513.18h-34.45v-15.26h4v11.54h30.46v3.71ZM764.36,482.96h-32.34v-18.11h32.34v18.11ZM736.02,468.56v10.68h24.34v-10.68h-24.34Z"/><path class="cls-2" d="M811.72,514.21h-4v-9.48h-34.91v-3.71h13.54v-5.37c-1.83-.3-3.47-.91-4.91-1.83-1.45-.91-2.59-2.07-3.43-3.46-.84-1.39-1.26-2.9-1.26-4.54,0-1.87.52-3.55,1.57-5.06,1.05-1.5,2.47-2.7,4.26-3.6,1.79-.89,3.77-1.34,5.94-1.34s4.12.45,5.86,1.34c1.73.9,3.11,2.1,4.14,3.6,1.03,1.5,1.54,3.19,1.54,5.06,0,1.68-.43,3.22-1.29,4.63-.86,1.41-2.01,2.57-3.46,3.49-1.45.91-3.1,1.51-4.97,1.77v5.31h17.37v-34.57h-3.71v-3.71h7.71v22.97h8.4v3.71h-8.4v24.8ZM802.81,473.36h-29.6v-3.6h13.26v-7.08h3.89v7.08h12.46v3.6ZM780.75,485.87c0,1.14.34,2.19,1.03,3.14.69.95,1.62,1.71,2.8,2.26,1.18.55,2.5.83,3.94.83s2.69-.27,3.83-.8c1.14-.53,2.05-1.27,2.71-2.2.67-.93,1-1.97,1-3.11,0-1.22-.33-2.31-1-3.29-.67-.97-1.57-1.74-2.71-2.31s-2.42-.86-3.83-.86-2.76.29-3.94.86-2.11,1.33-2.8,2.29c-.69.95-1.03,2.02-1.03,3.2Z"/><path class="cls-2" d="M886.06,463.82h7.14v37.48h-4v-20.28h-14.57c-.57,1.07-1.2,2.09-1.88,3.06-.69.97-1.47,1.86-2.34,2.66-1.18,1.11-2.66,2.22-4.43,3.34-1.77,1.12-3.64,2.12-5.6,3-1.96.88-3.82,1.51-5.57,1.89l-1.88-3.43c1.6-.34,3.3-.91,5.11-1.71,1.81-.8,3.53-1.71,5.17-2.74,1.64-1.03,2.97-2.02,4-2.97.99-.91,1.87-1.94,2.63-3.09h-15.31v-3.71h17.26c.38-.91.68-1.84.89-2.77.21-.93.37-1.86.49-2.77h-18v-3.89h22.4v1.03c0,2.9-.46,5.7-1.37,8.4h13.03v-9.77h-3.14v-3.71ZM895.09,513.93h-33.14v-16.28h4v12.57h29.14v3.71Z"/><path class="cls-2" d="M903.14,489.47l-2.51-2.74,12.51-11.6v-9.94h4v9.94l12.51,11.6-2.51,2.74-12-11.14-12,11.14ZM909.43,514.16v-13.08h27.94v-4.69h-28v-3.71h32v12.11h-27.94v5.66h30.28v3.71h-34.28ZM937.08,476.62h-12.11v-3.71h12.11v-5.6h-3.71v-3.71h7.71v26.34h-4v-13.31Z"/><path class="cls-2" d="M988.45,494.21h-4v-2.63h-34v-24.17h24.06v3.71h-20.06v6.17h18.97v3.71h-18.97v6.86h30v-20.34h-3.71v-3.71h7.71v30.4ZM956.34,505.81c0-3.16,1.42-5.59,4.26-7.29,2.84-1.69,6.9-2.54,12.2-2.54s9.36.85,12.2,2.54c2.84,1.7,4.26,4.12,4.26,7.29s-1.42,5.54-4.26,7.26c-2.84,1.71-6.91,2.57-12.2,2.57s-9.36-.86-12.2-2.57c-2.84-1.71-4.26-4.13-4.26-7.26ZM960.23,505.81c0,1.98,1.08,3.51,3.26,4.6s5.28,1.63,9.31,1.63,7.14-.54,9.31-1.63c2.17-1.09,3.26-2.62,3.26-4.6s-1.09-3.56-3.26-4.63c-2.17-1.07-5.28-1.6-9.31-1.6s-7.14.53-9.31,1.6c-2.17,1.07-3.26,2.61-3.26,4.63Z"/><path class="cls-2" d="M1063.36,505.07h-35.71v-3.71h13.77v-5.31c-1.87-.27-3.54-.86-5.03-1.77-1.49-.91-2.66-2.07-3.51-3.46-.86-1.39-1.29-2.9-1.29-4.54,0-1.87.53-3.55,1.6-5.06,1.07-1.5,2.5-2.7,4.31-3.6,1.81-.89,3.82-1.34,6.03-1.34s4.2.45,5.97,1.34c1.77.9,3.18,2.1,4.23,3.6,1.05,1.5,1.57,3.19,1.57,5.06,0,1.68-.43,3.21-1.29,4.6-.86,1.39-2.03,2.54-3.51,3.46-1.49.91-3.18,1.5-5.09,1.77v5.26h17.94v-34.57h-3.14v-3.71h7.14v51.14h-4v-9.14ZM1058.39,473.64h-29.71v-3.71h12.74v-6.11h4v6.11h12.97v3.71ZM1035.59,486.33c0,1.14.35,2.18,1.06,3.11.7.93,1.66,1.68,2.86,2.23,1.2.55,2.54.83,4.03.83s2.76-.27,3.94-.8c1.18-.53,2.11-1.27,2.8-2.2.69-.93,1.03-1.97,1.03-3.11,0-1.22-.34-2.3-1.03-3.26-.69-.95-1.62-1.71-2.8-2.29-1.18-.57-2.5-.86-3.94-.86s-2.83.29-4.03.86c-1.2.57-2.15,1.33-2.86,2.29-.71.95-1.06,2.02-1.06,3.2Z"/><path class="cls-2" d="M1076.84,503.01l-2.91-2.29,13.26-16.74v-16.23h4v16.23l13.31,16.74-2.97,2.29-12.34-15.54-12.34,15.54ZM1113.13,513.7h-4v-47.31h-3.71v-3.43h7.71v19.43h8.46v3.71h-8.46v27.6Z"/><path class="cls-2" d="M1125.07,477.7c0-2.21.54-4.21,1.63-6,1.09-1.79,2.55-3.22,4.4-4.29,1.85-1.07,3.91-1.6,6.2-1.6,2.29.08,4.34.67,6.17,1.77,1.83,1.1,3.28,2.53,4.34,4.29,1.07,1.75,1.6,3.7,1.6,5.83s-.53,4.14-1.6,5.91c-1.07,1.77-2.51,3.18-4.34,4.23-1.83,1.05-3.89,1.57-6.17,1.57s-4.35-.52-6.2-1.57c-1.85-1.05-3.31-2.46-4.4-4.23-1.09-1.77-1.63-3.74-1.63-5.91ZM1129.07,477.7c0,1.49.36,2.84,1.09,4.06.72,1.22,1.71,2.18,2.97,2.89,1.26.71,2.65,1.06,4.17,1.06s2.89-.35,4.11-1.06c1.22-.7,2.19-1.67,2.91-2.89.72-1.22,1.09-2.57,1.09-4.06s-.36-2.9-1.09-4.14c-.72-1.24-1.7-2.22-2.91-2.94-1.22-.72-2.59-1.09-4.11-1.09s-2.91.36-4.17,1.09c-1.26.72-2.25,1.71-2.97,2.94-.72,1.24-1.09,2.62-1.09,4.14ZM1164.26,514.04h-32.34v-20.28h4v6h24.34v-6h4v20.28ZM1135.92,503.47v6.86h24.34v-6.86h-24.34ZM1160.21,465.87h-3.71v-3.43h7.71v28.51h-4v-25.08Z"/><path class="cls-2" d="M1207.17,499.19h-33.08l.11-32.05h4l-.11,28.34h29.08v-29.08h-3.14v-3.43h7.14v50.74h-4v-14.51Z"/><path class="cls-2" d="M1253.23,499.81h-32.17l.11-28.06v-2.11h23.03v3.71h-19.03l-.11,22.74h28.17v-29.71h-3.71v-3.71h7.71v20.28h8.8v3.71h-8.8v26.68h-4v-13.54Z"/><path class="cls-2" d="M1266.71,507.13v-6.34h6.34v6.34h-6.34Z"/><path class="cls-2" d="M308.28,580.1h-46.4v-3.71h21.14v-12.28h4v12.28h21.26v3.71ZM267.43,567.53l-2-3.14,17.6-12.11v-8.06h-15.43v-3.71h34.74v3.71h-15.31v8.06l17.6,12.11-2,3.14-17.6-12.11-17.6,12.11Z"/><path class="cls-2" d="M313.25,564.39l-2.63-2.69,13.08-12.23v-7.49h-11.26v-3.71h26.46v3.71h-11.2v7.43l13.43,11.14-2.51,2.69-12.86-10.57-12.51,11.71ZM347.36,572.1h-29.77v-3.71h33.77v18h-4v-14.28ZM347.36,538.79h-3.71v-3.71h7.71v30.4h-4v-26.68Z"/><path class="cls-2" d="M395.07,574.56h-36.51v-3.71h36.45l-.06-31.94h-3.77v-3.71h7.89v51.2h-4v-11.83ZM362.39,551.59c0-2.09.56-4,1.69-5.71,1.12-1.71,2.63-3.09,4.51-4.14,1.89-1.05,3.93-1.57,6.14-1.57,2.21.08,4.24.66,6.08,1.74,1.85,1.08,3.33,2.48,4.46,4.17,1.12,1.7,1.69,3.53,1.69,5.51s-.56,3.89-1.69,5.6c-1.12,1.71-2.61,3.09-4.46,4.11-1.85,1.03-3.88,1.54-6.08,1.54s-4.26-.51-6.14-1.54-3.39-2.4-4.51-4.11c-1.12-1.71-1.69-3.58-1.69-5.6ZM366.39,551.59c0,1.33.38,2.57,1.14,3.71.76,1.14,1.78,2.06,3.06,2.74,1.28.69,2.66,1.03,4.14,1.03s2.86-.34,4.11-1.03,2.26-1.6,3-2.74c.74-1.14,1.11-2.38,1.11-3.71,0-1.41-.37-2.69-1.11-3.86-.74-1.16-1.74-2.09-3-2.8s-2.63-1.06-4.11-1.06-2.87.35-4.14,1.06c-1.28.71-2.3,1.64-3.06,2.8-.76,1.16-1.14,2.45-1.14,3.86Z"/><path class="cls-2" d="M469.47,585.19h-4v-26.34h-7.49v12.74h-19.43v-30.68h19.43v14.23h7.49v-16.34h-3.71v-3.71h7.71v50.11ZM442.55,544.62v23.25h11.43v-23.25h-11.43ZM479.29,585.19h-4v-50.11h4v50.11Z"/><path class="cls-2" d="M488.55,574.16l-2.91-2.29,13.03-17.54v-14.57h4v14.28l13.66,17.77-2.86,2.34-12.68-16.46-12.23,16.46ZM526.66,585.87h-4v-47.02h-3.71v-3.71h7.71v50.74Z"/><path class="cls-2" d="M536.26,575.3l-2.86-2.51,13.2-15.03v-13.26h-11.54v-3.71h27.25v3.71h-11.71v13.26l13.2,15.03-2.86,2.51-12.34-14-12.34,14ZM574.32,585.87h-4v-47.02h-3.71v-3.71h7.71v50.74Z"/><path class="cls-2" d="M627.05,563.25h-45.77v-3.71h45.77v3.71ZM621.17,585.3h-33.65v-11.08h29.14v-3.43h-29.14v-3.71h33.14v10.57h-29.14v3.94h29.65v3.71ZM616.71,541.02h-29.14v-3.71h33.14v10.68h-29.14v4.23h29.66v3.71h-33.65v-11.37h29.14v-3.54Z"/><path class="cls-2" d="M663.16,560.85l-2.51-2.74,12.63-11.71v-9.2h4v9.43l12.4,11.48-2.51,2.74-12-11.14-12,11.14ZM669.28,585.59v-12.51h28v-4.4h-28.05v-3.71h32.05v11.83h-28v5.08h29.88v3.71h-33.88ZM697.28,538.56h-3.71v-3.71h7.71v27.14h-4v-23.43Z"/><path class="cls-2" d="M732.76,585.76h-4v-16.74h-20.51v-3.71h45.02v3.71h-20.51v16.74ZM746.87,558.73h-32.45v-19.94h32.45v19.94ZM718.42,542.5v12.51h24.46v-12.51h-24.46Z"/><path class="cls-2" d="M788.53,585.76h-4v-27.54h-6.8c-.38,8.91-4.02,13.37-10.91,13.37-7.39,0-11.08-5.05-11.08-15.14s3.69-15.31,11.08-15.31c6.82.23,10.46,4.69,10.91,13.37h6.8v-15.94h-3.71v-3.71h7.71v50.91ZM759.73,556.45c0,7.62,2.36,11.43,7.08,11.43s6.97-3.81,6.97-11.43-2.32-11.6-6.97-11.6-7.08,3.87-7.08,11.6ZM798.52,585.76h-4v-50.91h4v50.91Z"/><path class="cls-2" d="M855.49,561.99h-20.51v-3.71h45.2v3.71h-20.68v5.2h14.86v3.6h-29.54v4.06h28.97v3.6h-28.97v4.34h30.46v3.6h-34.34v-19.2h14.57v-5.2ZM873.72,553.93h-32.45v-16.17h4v4.17h24.46v-4.17h4v16.17ZM845.26,545.65v4.57h24.46v-4.57h-24.46Z"/><path class="cls-2" d="M885.09,549.88c0-2.21.54-4.21,1.63-6,1.09-1.79,2.55-3.22,4.4-4.29,1.85-1.07,3.91-1.6,6.2-1.6,2.29.08,4.34.67,6.17,1.77,1.83,1.1,3.28,2.53,4.34,4.29s1.6,3.7,1.6,5.83-.53,4.14-1.6,5.91c-1.07,1.77-2.51,3.18-4.34,4.23-1.83,1.05-3.89,1.57-6.17,1.57s-4.35-.52-6.2-1.57c-1.85-1.05-3.31-2.46-4.4-4.23-1.09-1.77-1.63-3.74-1.63-5.91ZM889.09,549.88c0,1.49.36,2.84,1.09,4.06.72,1.22,1.71,2.18,2.97,2.89s2.65,1.06,4.17,1.06,2.89-.35,4.11-1.06c1.22-.71,2.19-1.67,2.91-2.89.72-1.22,1.09-2.57,1.09-4.06s-.36-2.9-1.09-4.14c-.72-1.24-1.7-2.22-2.91-2.94-1.22-.72-2.59-1.09-4.11-1.09s-2.91.36-4.17,1.09-2.25,1.71-2.97,2.94c-.72,1.24-1.09,2.62-1.09,4.14ZM924.29,586.22h-32.34v-20.28h4v6h24.34v-6h4v20.28ZM895.94,575.65v6.86h24.34v-6.86h-24.34ZM920.23,538.05h-3.71v-3.43h7.71v28.51h-4v-25.08Z"/><path class="cls-2" d="M967.2,571.36h-33.08l.11-32.05h4l-.11,28.34h29.08v-29.08h-3.14v-3.43h7.14v50.74h-4v-14.51Z"/><path class="cls-2" d="M1013.25,571.99h-32.17l.11-28.05v-2.11h23.03v3.71h-19.03l-.11,22.74h28.17v-29.71h-3.71v-3.71h7.71v20.28h8.8v3.71h-8.8v26.68h-4v-13.54Z"/><path class="cls-2" d="M1026.73,579.3v-6.34h6.34v6.34h-6.34Z"/><path class="cls-2" d="M297.31,613.82h-27.88v-3.71h31.88v16.8h5.71v3.71h-43.88v-3.71h34.17v-13.08ZM302.91,657.65h-34.51v-12.63h29.37v-5.31h-29.37v-3.71h33.37v12.74h-29.37v5.2h30.51v3.71Z"/><path class="cls-2" d="M355.88,633.71h-45.94v-3.71h45.94v3.71ZM346.16,641.76h-30.23v-3.71h34.23v11.94h-30.23v4.8h31.77v3.71h-35.77v-12.23h30.23v-4.51ZM316.74,617.42c0-1.75.69-3.3,2.06-4.66,1.37-1.35,3.29-2.41,5.74-3.17,2.46-.76,5.27-1.14,8.43-1.14s6.02.38,8.46,1.14c2.44.76,4.34,1.82,5.71,3.17,1.37,1.35,2.06,2.91,2.06,4.66s-.69,3.31-2.06,4.69c-1.37,1.37-3.28,2.44-5.71,3.2-2.44.76-5.26,1.14-8.46,1.14s-5.97-.38-8.43-1.14c-2.46-.76-4.37-1.83-5.74-3.2-1.37-1.37-2.06-2.93-2.06-4.69ZM320.74,617.42c0,1.03.52,1.95,1.57,2.77,1.05.82,2.49,1.46,4.31,1.91,1.83.46,3.94.69,6.34.69s4.52-.23,6.37-.69c1.85-.46,3.29-1.09,4.31-1.91,1.03-.82,1.54-1.74,1.54-2.77s-.51-1.93-1.54-2.71c-1.03-.78-2.47-1.39-4.31-1.83-1.85-.44-3.97-.66-6.37-.66s-4.51.22-6.34.66c-1.83.44-3.27,1.05-4.31,1.83-1.05.78-1.57,1.69-1.57,2.71Z"/><path class="cls-2" d="M391.02,622.79c0-2.32.51-4.37,1.54-6.14,1.03-1.77,2.47-3.16,4.31-4.17,1.85-1.01,3.95-1.51,6.31-1.51,3.16,0,5.81.89,7.94,2.66,2.13,1.77,3.41,4.12,3.83,7.06h10.57v-9.03h-3.71v-3.71h7.71v29.14h-4v-12.68h-10.46c-.23,2.09-.87,3.94-1.91,5.54-1.05,1.6-2.43,2.85-4.14,3.74-1.71.9-3.66,1.34-5.83,1.34-2.36,0-4.47-.52-6.31-1.57-1.85-1.05-3.29-2.49-4.31-4.31-1.03-1.83-1.54-3.94-1.54-6.34ZM395.02,622.85c0,2.48.75,4.5,2.26,6.08,1.5,1.58,3.44,2.37,5.8,2.37s4.29-.8,5.8-2.4c1.5-1.6,2.26-3.64,2.26-6.11s-.73-4.3-2.2-5.83c-1.47-1.52-3.38-2.29-5.74-2.29s-4.36.76-5.89,2.29c-1.52,1.52-2.29,3.49-2.29,5.89ZM396.5,658.28v-18.57h33.03v18.57h-33.03ZM400.5,643.42v11.14h25.03v-11.14h-25.03Z"/><path class="cls-2" d="M439.64,635.65l-2.57-2.69,12.51-9.43v-6.57h-10.74v-3.71h10.74v-6.34h4v6.34h11.2v3.71h-11.2v6.74l12.68,9.26-2.57,2.69-12.29-8.86-11.77,8.86ZM446.73,648.79c0-3.05,1.42-5.4,4.26-7.06,2.84-1.66,6.71-2.49,11.63-2.49s8.79.83,11.63,2.49c2.84,1.66,4.26,4.01,4.26,7.06s-1.42,5.4-4.26,7.06c-2.84,1.66-6.71,2.49-11.63,2.49s-8.79-.83-11.63-2.49c-2.84-1.66-4.26-4.01-4.26-7.06ZM450.61,648.79c0,1.91,1.09,3.37,3.26,4.4,2.17,1.03,5.09,1.54,8.74,1.54s6.57-.51,8.74-1.54c2.17-1.03,3.26-2.5,3.26-4.4s-1.08-3.37-3.23-4.4c-2.15-1.03-5.08-1.54-8.77-1.54s-6.57.51-8.74,1.54c-2.17,1.03-3.26,2.5-3.26,4.4ZM474.32,625.36h-10.11v-3.71h10.11v-10.63h-3.71v-3.43h7.71v30.11h-4v-12.34Z"/><path class="cls-2" d="M518.2,634.16l-2.57-2.69,13.14-10.97v-6.17h-11.03v-3.71h25.71v3.71h-10.68v6.4l12.63,9.26-2.4,2.86-12.4-9.08-12.4,10.4ZM523.4,657.71v-12.29h27.54v-5.2h-27.6v-3.71h31.6v12.63h-27.54v4.86h29.43v3.71h-33.43ZM551.46,611.19h-3.71v-3.71h7.71v11.71h7.49v3.71h-7.49v10.74h-4v-22.46Z"/><path class="cls-2" d="M640.82,651.65h-46.4v-3.71h46.4v3.71ZM598.48,638.16l-2.74-2.4,10.29-10.8v-13.94h3.89v13.77l7.83,7.08,7.6-6.91v-13.88h3.89v13.83l10.51,10.86-2.74,2.4-9.77-10.11-9.49,8.69-9.6-8.74-9.66,10.17Z"/><path class="cls-2" d="M687.73,651.82h-44.28v-3.71h17.66v-18.11h4v18.11h12.63v-32.28h-28.45v-3.71h32.45v36h6v3.71Z"/><path class="cls-2" d="M702.82,657.99l-12.63-.06v-3.71l9.03.06v-3.03h-3.77v-6.29h7.37v13.03Z"/><path class="cls-2" d="M750.24,628.91c0-5.22,1.06-9.22,3.17-12,2.11-2.78,5.13-4.17,9.06-4.17,3.88.15,6.88,1.63,8.97,4.43,2.09,2.8,3.14,6.71,3.14,11.74s-1.05,9.09-3.14,11.86c-2.1,2.76-5.09,4.14-8.97,4.14s-6.94-1.38-9.06-4.14-3.17-6.71-3.17-11.86ZM754.24,628.91c0,3.92.71,6.95,2.14,9.08,1.43,2.13,3.46,3.2,6.09,3.2s4.59-1.07,6-3.2c1.41-2.13,2.11-5.16,2.11-9.08s-.71-7.08-2.11-9.23-3.41-3.23-6-3.23-4.66,1.08-6.09,3.23c-1.43,2.15-2.14,5.23-2.14,9.23ZM787.61,658.85h-4v-47.25h-3.71v-3.71h7.71v20.46h9.2v3.71h-9.2v26.8Z"/><path class="cls-2" d="M818.01,640.79h-21.14v-3.71h46.4v3.71h-21.25v18.28h-4v-18.28ZM802.41,632.85l-2-3.14,17.6-9.31v-5.71h-15.43v-3.71h34.74v3.71h-15.31v5.71l17.6,9.31-2,3.14-17.6-9.31-17.6,9.31Z"/><path class="cls-2" d="M879.2,634.22l-2.63-2.63,12.23-12.97v-9.66h4v9.77l11.94,11.49-2.63,2.63-11.31-10.86-11.6,12.23ZM886.8,655.93h-.06v-16.63h30.28v18.4h-30.23v-1.77ZM890.63,642.91v11.2h22.51v-11.2h-22.51ZM913.26,621.14h-10.97v-3.71h10.97v-6.68h-3.71v-3.43h7.71v29.2h-4v-15.37Z"/><path class="cls-2" d="M925.77,645.93l-2.8-2.46,11.71-15.14v-16.34h4v16.46l11.14,15.08-2.86,2.34-10.34-14.34-10.86,14.4ZM956.74,657.93h-4v-28.68h-8.86v-3.71h8.86v-14.8h-3.71v-3.71h7.71v50.91ZM966.57,657.93h-4v-50.91h4v50.91Z"/><path class="cls-2" d="M1001.25,616.96h-28.91v-3.71h13.14v-5.83h4v5.83h11.77v3.71ZM974.79,628.16c0-1.83.51-3.43,1.54-4.8,1.03-1.37,2.46-2.45,4.29-3.23,1.83-.78,3.92-1.17,6.29-1.17s4.44.39,6.23,1.17c1.79.78,3.19,1.86,4.2,3.23,1.01,1.37,1.51,2.97,1.51,4.8s-.51,3.37-1.51,4.74c-1.01,1.37-2.41,2.45-4.2,3.23-1.79.78-3.87,1.17-6.23,1.17s-4.46-.39-6.29-1.17c-1.83-.78-3.26-1.86-4.29-3.23-1.03-1.37-1.54-2.95-1.54-4.74ZM978.79,628.22c0,1.56.76,2.85,2.29,3.86,1.52,1.01,3.47,1.51,5.83,1.51s4.28-.5,5.74-1.49c1.47-.99,2.2-2.25,2.2-3.77,0-1.68-.73-3.04-2.2-4.09-1.47-1.05-3.38-1.57-5.74-1.57s-4.3.51-5.83,1.54c-1.52,1.03-2.29,2.36-2.29,4ZM1010.91,657.82h-31.37v-17.88h4v5.49h23.37v-5.49h4v17.88ZM983.54,649.13v4.97h23.37v-4.97h-23.37ZM1006.91,611.88h-3.71v-3.71h7.71v11.6h8.06v3.71h-8.06v13.94h-4v-25.54Z"/><path class="cls-2" d="M1056.5,643.53h-33.08l.11-32.05h4l-.11,28.34h29.08v-29.08h-3.14v-3.43h7.14v50.74h-4v-14.51Z"/><path class="cls-2" d="M1102.55,644.16h-32.17l.11-28.05v-2.11h23.03v3.71h-19.03l-.11,22.74h28.17v-29.71h-3.71v-3.71h7.71v20.28h8.8v3.71h-8.8v26.68h-4v-13.54Z"/><path class="cls-2" d="M1116.04,651.48v-6.34h6.34v6.34h-6.34Z"/><path class="cls-2" d="M1178.15,623.14v-6.34h6.34v6.34h-6.34ZM1184.49,645.88h-6.34v-6.34h6.34v6.34Z"/><path class="cls-2" d="M1197.52,650.56c1.14-1.68,2.13-3.35,2.97-5.03.84-1.68,1.54-3.33,2.11-4.97,1.14-3.28,1.71-6.51,1.71-9.71s-.53-6.46-1.6-9.54c-1.18-3.28-2.89-6.44-5.14-9.49l3.31-2.17c4.99,6.82,7.47,13.88,7.43,21.2-.04,7.2-2.5,14.46-7.37,21.77l-3.43-2.06Z"/><line class="cls-1" x1="266.35" y1="379.28" x2="296.18" y2="379.28"/><line class="cls-1" x1="283.9" y1="391.61" x2="296.42" y2="379.09"/><line class="cls-1" x1="283.9" y1="366.95" x2="296.42" y2="379.46"/><line class="cls-1" x1="302.3" y1="379.28" x2="332.14" y2="379.28"/><line class="cls-1" x1="319.85" y1="391.61" x2="332.37" y2="379.09"/><line class="cls-1" x1="319.85" y1="366.95" x2="332.37" y2="379.46"/><line class="cls-1" x1="338.26" y1="379.28" x2="368.09" y2="379.28"/><line class="cls-1" x1="355.81" y1="391.61" x2="368.33" y2="379.09"/><line class="cls-1" x1="355.81" y1="366.95" x2="368.33" y2="379.46"/><line class="cls-1" x1="374.22" y1="379.28" x2="404.05" y2="379.28"/><line class="cls-1" x1="391.76" y1="391.61" x2="404.28" y2="379.09"/><line class="cls-1" x1="391.76" y1="366.95" x2="404.28" y2="379.46"/><line class="cls-1" x1="410.17" y1="379.28" x2="440.01" y2="379.28"/><line class="cls-1" x1="427.72" y1="391.61" x2="440.24" y2="379.09"/><line class="cls-1" x1="427.72" y1="366.95" x2="440.24" y2="379.46"/><line class="cls-1" x1="446.13" y1="379.28" x2="475.96" y2="379.28"/><line class="cls-1" x1="463.68" y1="391.61" x2="476.19" y2="379.09"/><line class="cls-1" x1="463.68" y1="366.95" x2="476.19" y2="379.46"/><line class="cls-1" x1="482.08" y1="379.28" x2="511.92" y2="379.28"/><line class="cls-1" x1="499.63" y1="391.61" x2="512.15" y2="379.09"/><line class="cls-1" x1="499.63" y1="366.95" x2="512.15" y2="379.46"/><line class="cls-1" x1="518.04" y1="379.28" x2="547.87" y2="379.28"/><line class="cls-1" x1="535.59" y1="391.61" x2="548.11" y2="379.09"/><line class="cls-1" x1="535.59" y1="366.95" x2="548.11" y2="379.46"/><line class="cls-1" x1="553.99" y1="379.28" x2="583.83" y2="379.28"/><line class="cls-1" x1="571.54" y1="391.61" x2="584.06" y2="379.09"/><line class="cls-1" x1="571.54" y1="366.95" x2="584.06" y2="379.46"/><line class="cls-1" x1="589.95" y1="379.28" x2="619.78" y2="379.28"/><line class="cls-1" x1="607.5" y1="391.61" x2="620.02" y2="379.09"/><line class="cls-1" x1="607.5" y1="366.95" x2="620.02" y2="379.46"/><line class="cls-1" x1="625.91" y1="379.28" x2="655.74" y2="379.28"/><line class="cls-1" x1="643.45" y1="391.61" x2="655.97" y2="379.09"/><line class="cls-1" x1="643.45" y1="366.95" x2="655.97" y2="379.46"/><line class="cls-1" x1="661.86" y1="379.28" x2="691.7" y2="379.28"/><line class="cls-1" x1="679.41" y1="391.61" x2="691.93" y2="379.09"/><line class="cls-1" x1="679.41" y1="366.95" x2="691.93" y2="379.46"/><line class="cls-1" x1="697.82" y1="379.28" x2="727.65" y2="379.28"/><line class="cls-1" x1="715.37" y1="391.61" x2="727.88" y2="379.09"/><line class="cls-1" x1="715.37" y1="366.95" x2="727.88" y2="379.46"/><line class="cls-1" x1="733.77" y1="379.28" x2="763.61" y2="379.28"/><line class="cls-1" x1="751.32" y1="391.61" x2="763.84" y2="379.09"/><line class="cls-1" x1="751.32" y1="366.95" x2="763.84" y2="379.46"/><line class="cls-1" x1="769.73" y1="379.28" x2="799.56" y2="379.28"/><line class="cls-1" x1="787.28" y1="391.61" x2="799.8" y2="379.09"/><line class="cls-1" x1="787.28" y1="366.95" x2="799.8" y2="379.46"/><line class="cls-1" x1="805.68" y1="379.28" x2="835.52" y2="379.28"/><line class="cls-1" x1="823.23" y1="391.61" x2="835.75" y2="379.09"/><line class="cls-1" x1="823.23" y1="366.95" x2="835.75" y2="379.46"/><line class="cls-1" x1="841.64" y1="379.28" x2="871.47" y2="379.28"/><line class="cls-1" x1="859.19" y1="391.61" x2="871.71" y2="379.09"/><line class="cls-1" x1="859.19" y1="366.95" x2="871.71" y2="379.46"/><line class="cls-1" x1="877.6" y1="379.28" x2="907.43" y2="379.28"/><line class="cls-1" x1="895.14" y1="391.61" x2="907.66" y2="379.09"/><line class="cls-1" x1="895.14" y1="366.95" x2="907.66" y2="379.46"/><line class="cls-1" x1="913.55" y1="379.28" x2="943.39" y2="379.28"/><line class="cls-1" x1="931.1" y1="391.61" x2="943.62" y2="379.09"/><line class="cls-1" x1="931.1" y1="366.95" x2="943.62" y2="379.46"/><line class="cls-1" x1="949.51" y1="379.28" x2="979.34" y2="379.28"/><line class="cls-1" x1="967.06" y1="391.61" x2="979.57" y2="379.09"/><line class="cls-1" x1="967.06" y1="366.95" x2="979.57" y2="379.46"/><line class="cls-1" x1="985.46" y1="379.28" x2="1015.3" y2="379.28"/><line class="cls-1" x1="1003.01" y1="391.61" x2="1015.53" y2="379.09"/><line class="cls-1" x1="1003.01" y1="366.95" x2="1015.53" y2="379.46"/><line class="cls-1" x1="1021.42" y1="379.28" x2="1051.25" y2="379.28"/><line class="cls-1" x1="1038.97" y1="391.61" x2="1051.49" y2="379.09"/><line class="cls-1" x1="1038.97" y1="366.95" x2="1051.49" y2="379.46"/><line class="cls-1" x1="1057.37" y1="379.28" x2="1087.21" y2="379.28"/><line class="cls-1" x1="1074.92" y1="391.61" x2="1087.44" y2="379.09"/><line class="cls-1" x1="1074.92" y1="366.95" x2="1087.44" y2="379.46"/><line class="cls-1" x1="1093.33" y1="379.28" x2="1123.16" y2="379.28"/><line class="cls-1" x1="1110.88" y1="391.61" x2="1123.4" y2="379.09"/><line class="cls-1" x1="1110.88" y1="366.95" x2="1123.4" y2="379.46"/><line class="cls-1" x1="1129.29" y1="379.28" x2="1159.12" y2="379.28"/><line class="cls-1" x1="1146.83" y1="391.61" x2="1159.35" y2="379.09"/><line class="cls-1" x1="1146.83" y1="366.95" x2="1159.35" y2="379.46"/><line class="cls-1" x1="1165.24" y1="379.28" x2="1195.08" y2="379.28"/><line class="cls-1" x1="1182.79" y1="391.61" x2="1195.31" y2="379.09"/><line class="cls-1" x1="1182.79" y1="366.95" x2="1195.31" y2="379.46"/><line class="cls-1" x1="1201.2" y1="379.28" x2="1231.03" y2="379.28"/><line class="cls-1" x1="1218.75" y1="391.61" x2="1231.26" y2="379.09"/><line class="cls-1" x1="1218.75" y1="366.95" x2="1231.26" y2="379.46"/><line class="cls-1" x1="1237.15" y1="379.28" x2="1266.99" y2="379.28"/><line class="cls-1" x1="1254.7" y1="391.61" x2="1267.22" y2="379.09"/><line class="cls-1" x1="1254.7" y1="366.95" x2="1267.22" y2="379.46"/><line class="cls-1" x1="1273.11" y1="379.28" x2="1302.94" y2="379.28"/><line class="cls-1" x1="1290.66" y1="391.61" x2="1303.18" y2="379.09"/><line class="cls-1" x1="1290.66" y1="366.95" x2="1303.18" y2="379.46"/><line class="cls-1" x1="1309.06" y1="379.28" x2="1338.9" y2="379.28"/><line class="cls-1" x1="1326.61" y1="391.61" x2="1339.13" y2="379.09"/><line class="cls-1" x1="1326.61" y1="366.95" x2="1339.13" y2="379.46"/><line class="cls-1" x1="1345.02" y1="379.28" x2="1374.85" y2="379.28"/><line class="cls-1" x1="1362.57" y1="391.61" x2="1375.09" y2="379.09"/><line class="cls-1" x1="1362.57" y1="366.95" x2="1375.09" y2="379.46"/><line class="cls-1" x1="1380.98" y1="379.28" x2="1410.81" y2="379.28"/><line class="cls-1" x1="1398.52" y1="391.61" x2="1411.04" y2="379.09"/><line class="cls-1" x1="1398.52" y1="366.95" x2="1411.04" y2="379.46"/><path class="cls-2" d="M281.11,744.86l-10.84-8.32,1.4-1.8,13.36,10.12-13.36,10.08-1.4-1.76,10.84-8.32Z"/><path class="cls-2" d="M301.65,745.18c1.13,0,2.17.16,3.11.49.95.32,1.6.74,1.96,1.24l.18.25v-5.18h-10.62v-2.52h13.32v18h-2.7v-1.69l-.18.18c-.58.58-1.31,1.06-2.2,1.44-.89.38-1.79.58-2.7.58-1.46,0-2.75-.28-3.87-.83-1.12-.55-1.99-1.32-2.63-2.3-.64-.98-.95-2.11-.95-3.38s.31-2.31.92-3.26,1.47-1.69,2.57-2.21c1.1-.53,2.36-.79,3.78-.79ZM297.08,751.45c0,1.18.44,2.14,1.33,2.88.89.74,2.03,1.12,3.42,1.12,1.49,0,2.71-.37,3.65-1.12.95-.74,1.42-1.7,1.42-2.88,0-1.1-.49-2-1.46-2.7-.97-.7-2.24-1.04-3.8-1.04-1.34,0-2.44.35-3.29,1.04-.85.7-1.28,1.6-1.28,2.7Z"/><path class="cls-2" d="M330.2,731.29v2.52h-3.67c-1.68,0-2.87.31-3.56.92-.7.61-1.04,1.64-1.04,3.08v1.66h7.67v2.52h-7.67v15.48h-2.7v-15.48h-5.87v-2.52h5.87v-2.02c0-2.14.55-3.7,1.64-4.68,1.09-.98,2.81-1.48,5.17-1.48h4.18Z"/><path class="cls-2" d="M345.57,754.94h2.95v2.52h-3.46c-2.26,0-3.98-.44-5.18-1.31-1.2-.88-1.8-2.5-1.8-4.88v-8.6h-5.87v-2.52h5.87v-5.62h2.7v5.62h7.67v2.52h-7.67v8.24c0,1.08.13,1.91.4,2.48.26.58.74.98,1.44,1.21.7.23,1.68.34,2.95.34Z"/><path class="cls-2" d="M352.16,748.28c0-1.99.34-3.71,1.03-5.15.68-1.44,1.66-2.55,2.92-3.33,1.26-.78,2.74-1.17,4.45-1.17s3.05.4,4.25,1.19,2.12,1.93,2.77,3.4c.65,1.48.97,3.22.97,5.24v.29h-13.72c.12,2.04.72,3.66,1.8,4.86s2.47,1.8,4.18,1.8c1.54,0,2.75-.38,3.65-1.15.9-.77,1.42-1.85,1.57-3.24h2.52c-.24,2.21-1.03,3.91-2.36,5.11-1.33,1.2-3.13,1.8-5.38,1.8-1.75,0-3.28-.39-4.57-1.17-1.3-.78-2.3-1.9-3.01-3.35s-1.06-3.16-1.06-5.13ZM360.55,741.15c-1.54-.05-2.79.38-3.76,1.3s-1.52,2.17-1.64,3.78h10.58c-.1-1.51-.61-2.72-1.55-3.64-.94-.91-2.15-1.39-3.64-1.44Z"/><path class="cls-2" d="M374.98,757.46v-18h14.29v2.7h-11.59v15.3h-2.7Z"/><path class="cls-2" d="M390.72,757.46v-18h18.18l.04,18h-2.7l-.04-15.48h-5.11v15.48h-2.52v-15.48h-5.15v15.48h-2.7Z"/><path class="cls-2" d="M410.69,748.28c0-1.9.37-3.56,1.1-5,.73-1.44,1.75-2.57,3.04-3.4s2.78-1.24,4.46-1.24,3.12.41,4.39,1.24c1.27.83,2.27,1.96,2.99,3.4.72,1.44,1.08,3.11,1.08,5s-.35,3.53-1.06,4.99-1.69,2.59-2.93,3.42c-1.25.83-2.69,1.24-4.32,1.24-1.73,0-3.25-.41-4.55-1.24-1.31-.83-2.33-1.97-3.08-3.42-.74-1.45-1.12-3.11-1.12-4.99ZM419.44,755.41c1.1,0,2.08-.31,2.92-.92.84-.61,1.5-1.45,1.98-2.52.48-1.07.72-2.3.72-3.69s-.25-2.62-.74-3.69c-.49-1.07-1.17-1.91-2.03-2.52s-1.86-.92-2.99-.92-2.21.31-3.11.92c-.9.61-1.6,1.45-2.09,2.52-.49,1.07-.73,2.3-.7,3.69.02,1.39.29,2.62.81,3.69.52,1.07,1.23,1.91,2.14,2.52.91.61,1.94.92,3.1.92Z"/><path class="cls-2" d="M429.6,757.46v-18h18.18l.04,18h-2.7l-.04-15.48h-5.11v15.48h-2.52v-15.48h-5.15v15.48h-2.7Z"/><path class="cls-2" d="M449.36,748.28c0-1.99.34-3.71,1.03-5.15.68-1.44,1.66-2.55,2.92-3.33,1.26-.78,2.74-1.17,4.45-1.17s3.05.4,4.25,1.19,2.12,1.93,2.77,3.4c.65,1.48.97,3.22.97,5.24v.29h-13.72c.12,2.04.72,3.66,1.8,4.86s2.47,1.8,4.18,1.8c1.54,0,2.75-.38,3.65-1.15.9-.77,1.42-1.85,1.57-3.24h2.52c-.24,2.21-1.03,3.91-2.36,5.11-1.33,1.2-3.13,1.8-5.38,1.8-1.75,0-3.28-.39-4.57-1.17-1.3-.78-2.3-1.9-3.01-3.35s-1.06-3.16-1.06-5.13ZM457.75,741.15c-1.54-.05-2.79.38-3.76,1.3s-1.52,2.17-1.64,3.78h10.58c-.1-1.51-.61-2.72-1.55-3.64-.94-.91-2.15-1.39-3.64-1.44Z"/><path class="cls-2" d="M470.02,757.46v-18h15.23l.04,18h-2.7l-.04-15.48h-9.83v15.48h-2.7Z"/><path class="cls-2" d="M501.09,754.94h2.95v2.52h-3.46c-2.26,0-3.98-.44-5.18-1.31-1.2-.88-1.8-2.5-1.8-4.88v-8.6h-5.87v-2.52h5.87v-5.62h2.7v5.62h7.67v2.52h-7.67v8.24c0,1.08.13,1.91.4,2.48.26.58.74.98,1.44,1.21.7.23,1.68.34,2.95.34Z"/><path class="cls-2" d="M507.32,757.46v-4h4v4h-4Z"/><path class="cls-2" d="M539.72,757.46v-25.56h17.32l.04,25.56h-2.7l-.04-23.04h-4.61v23.04h-2.7v-23.04h-4.61v23.04h-2.7Z"/><path class="cls-2" d="M559.19,748.28c0-1.99.34-3.71,1.03-5.15.68-1.44,1.66-2.55,2.92-3.33,1.26-.78,2.74-1.17,4.45-1.17s3.05.4,4.25,1.19,2.12,1.93,2.77,3.4c.65,1.48.97,3.22.97,5.24v.29h-13.72c.12,2.04.72,3.66,1.8,4.86s2.47,1.8,4.18,1.8c1.54,0,2.75-.38,3.65-1.15.9-.77,1.42-1.85,1.57-3.24h2.52c-.24,2.21-1.03,3.91-2.36,5.11-1.33,1.2-3.13,1.8-5.38,1.8-1.75,0-3.28-.39-4.57-1.17-1.3-.78-2.3-1.9-3.01-3.35s-1.06-3.16-1.06-5.13ZM567.58,741.15c-1.54-.05-2.79.38-3.76,1.3s-1.52,2.17-1.64,3.78h10.58c-.1-1.51-.61-2.72-1.55-3.64-.94-.91-2.15-1.39-3.64-1.44Z"/><path class="cls-2" d="M588.06,757.96c-2.52,0-4.54-.64-6.05-1.91-1.51-1.27-2.29-2.99-2.34-5.15h2.7c.05,1.39.58,2.5,1.58,3.33s2.35,1.23,4.03,1.21c1.22-.02,2.23-.29,3.01-.79.78-.5,1.16-1.14,1.13-1.91-.02-.7-.34-1.3-.94-1.8s-1.61-1-3.02-1.48l-2.27-.79c-1.85-.65-3.17-1.35-3.98-2.11-.8-.76-1.23-1.69-1.28-2.79-.02-1.01.23-1.9.76-2.66.53-.77,1.28-1.37,2.25-1.82.97-.44,2.11-.67,3.4-.67,2.23-.02,4.02.54,5.36,1.67,1.34,1.14,2.04,2.71,2.09,4.7l-2.7.04c-.17-1.2-.67-2.15-1.51-2.84-.84-.7-1.9-1.04-3.17-1.04-1.15,0-2.08.25-2.77.76s-1.03,1.14-1.01,1.91c.02.53.29,1,.81,1.4.52.41,1.39.83,2.61,1.26l2.3.79c1.99.67,3.42,1.4,4.28,2.18.86.78,1.31,1.75,1.33,2.9.05,1.1-.2,2.08-.76,2.92-.55.84-1.33,1.5-2.34,1.98s-2.18.72-3.53.72Z"/><path class="cls-2" d="M607.5,757.96c-2.52,0-4.54-.64-6.05-1.91-1.51-1.27-2.29-2.99-2.34-5.15h2.7c.05,1.39.58,2.5,1.58,3.33s2.35,1.23,4.03,1.21c1.22-.02,2.23-.29,3.01-.79.78-.5,1.16-1.14,1.13-1.91-.02-.7-.34-1.3-.94-1.8s-1.61-1-3.02-1.48l-2.27-.79c-1.85-.65-3.17-1.35-3.98-2.11-.8-.76-1.23-1.69-1.28-2.79-.02-1.01.23-1.9.76-2.66.53-.77,1.28-1.37,2.25-1.82.97-.44,2.11-.67,3.4-.67,2.23-.02,4.02.54,5.36,1.67,1.34,1.14,2.04,2.71,2.09,4.7l-2.7.04c-.17-1.2-.67-2.15-1.51-2.84-.84-.7-1.9-1.04-3.17-1.04-1.15,0-2.08.25-2.77.76s-1.03,1.14-1.01,1.91c.02.53.29,1,.81,1.4.52.41,1.39.83,2.61,1.26l2.3.79c1.99.67,3.42,1.4,4.28,2.18.86.78,1.31,1.75,1.33,2.9.05,1.1-.2,2.08-.76,2.92-.55.84-1.33,1.5-2.34,1.98s-2.18.72-3.53.72Z"/><path class="cls-2" d="M625.32,745.18c1.13,0,2.17.16,3.11.49.95.32,1.6.74,1.96,1.24l.18.25v-5.18h-10.62v-2.52h13.32v18h-2.7v-1.69l-.18.18c-.58.58-1.31,1.06-2.2,1.44-.89.38-1.79.58-2.7.58-1.46,0-2.75-.28-3.87-.83-1.12-.55-1.99-1.32-2.63-2.3-.64-.98-.95-2.11-.95-3.38s.31-2.31.92-3.26,1.47-1.69,2.57-2.21c1.1-.53,2.36-.79,3.78-.79ZM620.75,751.45c0,1.18.44,2.14,1.33,2.88.89.74,2.03,1.12,3.42,1.12,1.49,0,2.71-.37,3.65-1.12.95-.74,1.42-1.7,1.42-2.88,0-1.1-.49-2-1.46-2.7-.97-.7-2.24-1.04-3.8-1.04-1.34,0-2.44.35-3.29,1.04-.85.7-1.28,1.6-1.28,2.7Z"/><path class="cls-2" d="M644.73,738.63c1.22,0,2.33.22,3.31.67.98.44,1.81,1.09,2.48,1.93v-1.73h2.7v18.4c0,2.18-.6,3.76-1.8,4.73-1.2.97-2.93,1.46-5.18,1.46h-8.64v-2.52h8.14c1.3,0,2.29-.14,2.97-.41.68-.28,1.16-.71,1.42-1.3.26-.59.4-1.36.4-2.32v-2.05c-1.37,1.63-3.24,2.45-5.62,2.45-2.57,0-4.6-.85-6.1-2.54-1.5-1.69-2.25-3.99-2.25-6.89,0-2.02.34-3.76,1.01-5.24.67-1.48,1.62-2.62,2.84-3.42,1.22-.8,2.66-1.21,4.32-1.21ZM639.26,748.5c0,2.11.51,3.79,1.53,5.04,1.02,1.25,2.39,1.87,4.12,1.87s3.1-.64,4.1-1.91c1.01-1.27,1.51-3,1.51-5.18s-.52-3.95-1.57-5.24c-1.04-1.28-2.45-1.93-4.23-1.93-1.68,0-3.01.66-4,1.98-.98,1.32-1.48,3.11-1.48,5.36Z"/><path class="cls-2" d="M656.39,748.28c0-1.99.34-3.71,1.03-5.15.68-1.44,1.66-2.55,2.92-3.33,1.26-.78,2.74-1.17,4.45-1.17s3.05.4,4.25,1.19,2.12,1.93,2.77,3.4c.65,1.48.97,3.22.97,5.24v.29h-13.72c.12,2.04.72,3.66,1.8,4.86s2.47,1.8,4.18,1.8c1.54,0,2.75-.38,3.65-1.15.9-.77,1.42-1.85,1.57-3.24h2.52c-.24,2.21-1.03,3.91-2.36,5.11-1.33,1.2-3.13,1.8-5.38,1.8-1.75,0-3.28-.39-4.57-1.17-1.3-.78-2.3-1.9-3.01-3.35s-1.06-3.16-1.06-5.13ZM664.78,741.15c-1.54-.05-2.79.38-3.76,1.3s-1.52,2.17-1.64,3.78h10.58c-.1-1.51-.61-2.72-1.55-3.64-.94-.91-2.15-1.39-3.64-1.44Z"/><path class="cls-2" d="M694.95,757.46v-18h18.18l.04,18h-2.7l-.04-15.48h-5.11v15.48h-2.52v-15.48h-5.15v15.48h-2.7Z"/><path class="cls-2" d="M722.52,745.18c1.13,0,2.17.16,3.11.49.95.32,1.6.74,1.96,1.24l.18.25v-5.18h-10.62v-2.52h13.32v18h-2.7v-1.69l-.18.18c-.58.58-1.31,1.06-2.2,1.44-.89.38-1.79.58-2.7.58-1.46,0-2.75-.28-3.87-.83-1.12-.55-1.99-1.32-2.63-2.3-.64-.98-.95-2.11-.95-3.38s.31-2.31.92-3.26,1.47-1.69,2.57-2.21c1.1-.53,2.36-.79,3.78-.79ZM717.95,751.45c0,1.18.44,2.14,1.33,2.88.89.74,2.03,1.12,3.42,1.12,1.49,0,2.71-.37,3.65-1.12.95-.74,1.42-1.7,1.42-2.88,0-1.1-.49-2-1.46-2.7-.97-.7-2.24-1.04-3.8-1.04-1.34,0-2.44.35-3.29,1.04-.85.7-1.28,1.6-1.28,2.7Z"/><path class="cls-2" d="M739.19,753.39v4.07h-2.7v-26.17h2.7v18.43l9.58-10.26h3.24l-7.45,8.1,8.03,9.9h-3.42l-6.48-7.88-3.49,3.82Z"/><path class="cls-2" d="M764.28,754.94h8.03v2.52h-18.83v-2.52h8.1v-13.79h-6.34v-2.52h9.04v16.31ZM759.93,735.64v-4.36h4.36v4.36h-4.36Z"/><path class="cls-2" d="M774.25,757.46v-18h15.23l.04,18h-2.7l-.04-15.48h-9.83v15.48h-2.7Z"/><path class="cls-2" d="M800.24,738.63c1.22,0,2.33.22,3.31.67.98.44,1.81,1.09,2.48,1.93v-1.73h2.7v18.4c0,2.18-.6,3.76-1.8,4.73-1.2.97-2.93,1.46-5.18,1.46h-8.64v-2.52h8.14c1.3,0,2.29-.14,2.97-.41.68-.28,1.16-.71,1.42-1.3.26-.59.4-1.36.4-2.32v-2.05c-1.37,1.63-3.24,2.45-5.62,2.45-2.57,0-4.6-.85-6.1-2.54-1.5-1.69-2.25-3.99-2.25-6.89,0-2.02.34-3.76,1.01-5.24.67-1.48,1.62-2.62,2.84-3.42,1.22-.8,2.66-1.21,4.32-1.21ZM794.77,748.5c0,2.11.51,3.79,1.53,5.04,1.02,1.25,2.39,1.87,4.12,1.87s3.1-.64,4.1-1.91c1.01-1.27,1.51-3,1.51-5.18s-.52-3.95-1.57-5.24c-1.04-1.28-2.45-1.93-4.23-1.93-1.68,0-3.01.66-4,1.98-.98,1.32-1.48,3.11-1.48,5.36Z"/></svg>