<?xml version="1.0" encoding="UTF-8"?><svg id="_레이어_1" xmlns="http://www.w3.org/2000/svg" viewBox="0 0 1920 1080"><defs><style>.cls-1,.cls-2,.cls-3{stroke:#f2f6f7;stroke-miterlimit:10;stroke-width:1.76px;}.cls-1,.cls-4{fill:#012b3a;}.cls-2,.cls-5{fill:#f2f6f7;}.cls-3{fill:none;}</style></defs><rect class="cls-4" width="1920" height="1080"/><polygon class="cls-2" points="646.83 271.66 592.88 271.66 592.88 243.69 424.89 243.69 424.89 271.66 365.25 271.66 365.25 327.6 384.6 327.6 384.6 348.48 552.59 348.48 552.59 327.6 646.83 327.6 646.83 271.66"/><polygon class="cls-2" points="1690.15 276.96 1690.15 222.33 1464.79 222.33 1464.79 256.13 1398.55 256.13 1398.55 323.73 1485.96 323.73 1485.96 344.56 1711.32 344.56 1711.32 276.96 1690.15 276.96"/><polygon class="cls-2" points="506.04 189.65 465.75 189.65 465.75 144.09 267.02 144.09 267.02 175.74 233.9 175.74 233.9 239.05 260.2 239.05 260.2 276.94 458.92 276.94 458.92 252.95 506.04 252.95 506.04 189.65"/><polygon class="cls-2" points="1498.38 131.36 1332.19 131.36 1332.19 145.75 1293.16 145.75 1293.16 174.57 1257.48 174.57 1257.48 243.99 1312.47 243.99 1312.47 270.15 1478.67 270.15 1478.67 200.77 1498.38 200.77 1498.38 131.36"/><polygon class="cls-2" points="706.26 151.87 706.26 97.24 480.9 97.24 480.9 131.04 414.66 131.04 414.66 198.64 502.07 198.64 502.07 219.47 727.43 219.47 727.43 151.87 706.26 151.87"/><polygon class="cls-2" points="1690.15 498.77 1690.15 444.14 1464.79 444.14 1464.79 477.94 1398.55 477.94 1398.55 545.55 1485.96 545.55 1485.96 566.38 1711.32 566.38 1711.32 498.77 1690.15 498.77"/><polygon class="cls-2" points="1764.31 329.26 1732.45 329.26 1732.45 308.63 1595.87 308.63 1595.87 338.02 1564 338.02 1564 379.27 1606.79 379.27 1606.79 408.39 1743.37 408.39 1743.37 370.5 1764.31 370.5 1764.31 329.26"/><polygon class="cls-2" points="459.49 309.94 332.92 309.94 332.92 300.23 196.34 300.23 196.34 329.62 164.48 329.62 164.48 370.87 207.27 370.87 207.27 399.99 343.85 399.99 343.85 384.1 459.49 384.1 459.49 309.94"/><polygon class="cls-1" points="638.04 271.66 584.09 271.66 584.09 243.69 416.1 243.69 416.1 271.66 356.46 271.66 356.46 327.6 375.81 327.6 375.81 348.48 543.8 348.48 543.8 327.6 638.04 327.6 638.04 271.66"/><path class="cls-5" d="M456.72,299.26h-25.03v-2.06h11.87v-3.73h-7.94v-8.32h2.21v6.27h15.69v2.06h-7.91v3.73h11.11v2.06ZM453.52,311.85h-17.91v-2.06h3.45v-5.7h-3.45v-2.06h17.91v2.06h-3.51v5.7h3.51v2.06ZM441.28,304.1v5.7h6.52v-5.7h-6.52Z"/><path class="cls-5" d="M483.55,301.25h-25.03v-2.06h25.03v2.06ZM461.84,312.2v-8.1h2.21v6.04h16.67v2.06h-18.89ZM462.09,291.22c0-1.05.38-1.99,1.16-2.82.77-.82,1.84-1.47,3.21-1.93s2.93-.7,4.68-.7,3.34.23,4.7.7c1.36.46,2.43,1.11,3.21,1.93.78.82,1.17,1.76,1.17,2.82s-.39,1.99-1.17,2.82c-.78.82-1.85,1.47-3.21,1.93-1.36.46-2.93.7-4.7.7s-3.31-.23-4.68-.7c-1.37-.46-2.44-1.11-3.21-1.93-.77-.82-1.16-1.76-1.16-2.82ZM464.31,291.25c0,.65.3,1.23.89,1.74.59.51,1.4.9,2.42,1.19,1.02.28,2.2.43,3.53.43s2.54-.14,3.56-.43c1.02-.29,1.83-.68,2.42-1.19.59-.51.89-1.09.89-1.74s-.29-1.27-.89-1.77c-.59-.51-1.4-.91-2.42-1.2-1.02-.29-2.21-.44-3.56-.44s-2.5.15-3.53.44c-1.02.3-1.83.7-2.42,1.2-.59.51-.89,1.1-.89,1.77Z"/><path class="cls-5" d="M527.31,300.52h-25.03v-2.06h11.45v-3.45h-7.69v-9.3h17.43v9.3h-7.63v3.45h11.45v2.06ZM521.96,305.49h-16.71v-2.06h18.92v9.14h-2.21v-7.09ZM508.26,287.77v5.19h13v-5.19h-13Z"/><path class="cls-5" d="M554.39,309.13h-25.79v-2.06h7.82l-.03-7.06h-4.81v-2.06h4.78l-.03-9.56h-4.59v-2.06h19.3v2.06h-4.71l.03,9.56h4.84v2.06h-4.81l.03,7.06h7.97v2.06ZM544.2,288.4h-5.76l.03,9.56h5.76l-.03-9.56ZM544.27,300.02h-5.76l.03,7.06h5.76l-.03-7.06Z"/><polygon class="cls-1" points="1681.36 276.96 1681.36 222.33 1456 222.33 1456 256.13 1389.76 256.13 1389.76 323.73 1477.17 323.73 1477.17 344.56 1702.53 344.56 1702.53 276.96 1681.36 276.96"/><path class="cls-5" d="M1504.92,298.17h-2.21v-6.33h-19.68v-2.06h6.36v-8.42h2.21v8.42h11.11v-17.62h-2.06v-1.9h4.27v11.3h4.68v2.06h-4.68v14.55ZM1496.79,275.04h-12.21v-1.96h14.33v12.53h-2.12v-10.57Z"/><path class="cls-5" d="M1519.07,282.04c-.99.93-2.16,1.74-3.5,2.42-1.34.69-2.74,1.19-4.19,1.5l-.73-1.9c1.31-.29,2.58-.75,3.81-1.36s2.28-1.32,3.15-2.12c1.05-.99,1.92-2.05,2.61-3.16.69-1.12,1.11-2.24,1.28-3.35h-9.94v-2.15h12.25v.57c0,1.22-.22,2.42-.66,3.58-.44,1.16-1.02,2.25-1.74,3.26-.72,1.01-1.5,1.92-2.34,2.72ZM1531.56,297.7h-17.18v-10.19h17.18v10.19ZM1516.6,289.57v6.08h12.75v-6.08h-12.75ZM1529.38,271.97h-2.06v-2.06h4.27v7.09h4.33v2.06h-4.33v7.21h-2.21v-14.3Z"/><path class="cls-5" d="M1552.73,275.55h-15.69v-2.06h6.58v-3.23h2.21v3.23h6.9v2.06ZM1538.43,282.42c0-1.05.28-1.99.84-2.8.56-.81,1.33-1.45,2.33-1.91.99-.46,2.12-.7,3.39-.7s2.38.23,3.35.7c.97.46,1.73,1.1,2.28,1.91s.82,1.75.82,2.8-.27,1.99-.82,2.82-1.31,1.47-2.28,1.93c-.97.46-2.09.7-3.35.7s-2.39-.23-3.39-.7-1.77-1.11-2.33-1.93c-.56-.82-.84-1.76-.84-2.82ZM1540.64,282.45c0,.97.41,1.77,1.22,2.4.81.63,1.85.95,3.12.95s2.26-.31,3.05-.92,1.19-1.4,1.19-2.37-.4-1.84-1.19-2.48c-.79-.64-1.81-.96-3.05-.96s-2.3.32-3.12.95c-.81.63-1.22,1.44-1.22,2.44ZM1541.15,297.76v-7.91h2.22v5.85h17.09v2.06h-19.3ZM1556.09,271.85h-2.06v-2.06h4.27v9.9h4.56v2.06h-4.56v9.84h-2.21v-19.74Z"/><path class="cls-5" d="M1605.89,294.88h-25.79v-2.06h11.77v-7.12h-7.91v-13.26h17.97v2.06h-15.76v9.14h15.76v2.06h-7.85v7.12h11.8v2.06Z"/><path class="cls-5" d="M1608.51,286.75l-1.42-1.49,6.93-5.79v-5.25h-5.95v-2.06h14.37v2.06h-6.2v5.35l7.02,5.7-1.42,1.49-6.77-5.47-6.55,5.47ZM1612.37,297.6v-9.18h2.21v7.12h16.64v2.06h-18.86ZM1627.4,279.6h-6.8v-2.06h6.8v-5.82h-2.06v-1.9h4.27v21.01h-2.21v-11.23Z"/><line class="cls-3" x1="1337.75" y1="269.79" x2="1337.75" y2="940.95"/><line class="cls-3" x1="1298.74" y1="902.08" x2="1338.35" y2="941.69"/><line class="cls-3" x1="1376.76" y1="902.08" x2="1337.15" y2="941.69"/><line class="cls-3" x1="1663.52" y1="409.49" x2="1663.52" y2="799.79"/><line class="cls-3" x1="1624.5" y1="760.92" x2="1664.11" y2="800.52"/><line class="cls-3" x1="1702.53" y1="760.92" x2="1662.92" y2="800.52"/><polygon class="cls-1" points="497.25 189.65 456.96 189.65 456.96 144.09 258.23 144.09 258.23 175.74 225.11 175.74 225.11 239.05 251.41 239.05 251.41 276.94 450.13 276.94 450.13 252.95 497.25 252.95 497.25 189.65"/><path class="cls-5" d="M338.5,213.64h-9.37v-2.06h17.91v2.06h-6.33v4.62h-2.21v-4.62ZM330.63,203.8c0-1.16.28-2.19.84-3.08.56-.9,1.33-1.6,2.33-2.12.99-.52,2.12-.77,3.39-.77,1.75,0,3.23.46,4.43,1.38,1.2.92,1.92,2.12,2.15,3.62h5.89v-3.89h-2.15v-1.9h4.37v21.83h-2.21v-13.99h-5.92c-.25,1.41-.97,2.56-2.15,3.45-1.18.89-2.65,1.33-4.4,1.33-1.27,0-2.39-.25-3.39-.76-.99-.51-1.77-1.2-2.33-2.07-.56-.88-.84-1.88-.84-3.02ZM332.84,203.8c0,1.1.41,2,1.22,2.72.81.72,1.85,1.08,3.12,1.08s2.37-.36,3.2-1.08c.82-.72,1.23-1.62,1.23-2.72s-.42-2.08-1.27-2.82c-.84-.74-1.93-1.11-3.26-1.11-1.22,0-2.24.37-3.04,1.11-.8.74-1.2,1.68-1.2,2.82ZM333.09,224.81v-8.7h2.21v6.64h18.07v2.06h-20.28Z"/><path class="cls-5" d="M376.47,212.12h-18.7v-13.26h13.04v2.06h-10.82v3.48h10.03v2.06h-10.03v3.61h16.48v-10.82h-2.06v-2.06h4.27v16.96h-2.21v-2.02ZM378.72,225.03h-17.88v-9.43h17.88v9.43ZM363.06,217.47v5.51h13.45v-5.51h-13.45Z"/><polygon class="cls-1" points="1489.59 131.36 1323.4 131.36 1323.4 145.75 1284.37 145.75 1284.37 174.57 1248.69 174.57 1248.69 243.99 1303.68 243.99 1303.68 270.15 1469.88 270.15 1469.88 200.77 1489.59 200.77 1489.59 131.36"/><path class="cls-5" d="M1339.62,201.71l-1.46-1.49,7.31-6.83v-3.13h-5.85v-2.06h14.33v2.06h-6.26v3.2l7.44,6.14-1.46,1.49-7.12-5.85-6.93,6.49ZM1343.22,214.33v-11.26h2.21v3.45h13.13v-3.42h2.21v11.23h-17.56ZM1345.44,208.57v3.7h13.13v-3.7h-13.13ZM1358.57,188.48h-2.21v-2.06h4.43v15.12h-2.21v-13.07Z"/><path class="cls-5" d="M1389.99,211.39h-25.66v-2.06h6.74v-8.67c-.91-.61-1.62-1.35-2.15-2.22-.53-.86-.79-1.82-.79-2.88,0-1.31.38-2.47,1.15-3.48.77-1.01,1.84-1.81,3.21-2.39,1.37-.58,2.93-.87,4.68-.87s3.34.29,4.7.87c1.36.58,2.43,1.38,3.2,2.39.77,1.01,1.16,2.17,1.16,3.48,0,1.03-.25,1.98-.76,2.85-.51.87-1.21,1.6-2.12,2.21v8.7h6.65v2.06ZM1370.34,195.57c0,.91.29,1.71.89,2.4.59.7,1.4,1.25,2.42,1.65,1.02.4,2.2.6,3.53.6s2.51-.2,3.54-.6c1.03-.4,1.84-.95,2.42-1.65.58-.7.87-1.5.87-2.4s-.29-1.71-.87-2.42c-.58-.71-1.39-1.26-2.42-1.66-1.03-.4-2.21-.6-3.54-.6s-2.5.2-3.53.6c-1.02.4-1.83.95-2.42,1.66-.59.71-.89,1.51-.89,2.42ZM1373.28,201.71v7.63h7.85v-7.66c-.59.19-1.21.34-1.87.44-.65.11-1.35.16-2.09.16-1.41,0-2.71-.19-3.89-.57Z"/><path class="cls-5" d="M1407.33,191.71h-16.01v-2.06h6.9v-3.07h2.21v3.07h6.9v2.06ZM1392.74,198.32c0-1.01.29-1.9.85-2.66s1.36-1.35,2.37-1.79c1.01-.43,2.17-.65,3.48-.65s2.46.22,3.45.65c.99.43,1.77,1.03,2.33,1.79.56.76.84,1.65.84,2.66s-.28,1.87-.84,2.63c-.56.76-1.33,1.36-2.33,1.79-.99.43-2.14.65-3.45.65s-2.47-.22-3.48-.65c-1.01-.43-1.8-1.03-2.37-1.79-.57-.76-.85-1.63-.85-2.63ZM1394.96,198.35c0,.87.42,1.58,1.27,2.14.84.56,1.92.84,3.23.84s2.37-.27,3.18-.82c.81-.55,1.22-1.24,1.22-2.09,0-.93-.41-1.68-1.22-2.26-.81-.58-1.87-.87-3.18-.87s-2.38.29-3.23.85-1.27,1.31-1.27,2.21ZM1412.61,214.36h-17.18v-8.99h17.18v8.99ZM1397.65,207.43v4.87h12.75v-4.87h-12.75ZM1410.43,188.99h-2.06v-2.06h4.27v6.64h4.43v2.06h-4.43v8.16h-2.21v-14.81Z"/><polygon class="cls-1" points="697.47 151.87 697.47 97.24 472.11 97.24 472.11 131.04 405.87 131.04 405.87 198.64 493.28 198.64 493.28 219.47 718.64 219.47 718.64 151.87 697.47 151.87"/><path class="cls-5" d="M524.8,161.91h-25.03v-2.06h11.42v-4.56h2.21v4.56h11.39v2.06ZM502.72,157.17l-.98-1.8,9.46-5.47v-1.61h-8.48v-2.06h18.95v2.06h-8.26v1.61l9.27,5.38-.98,1.8-9.4-5.47-9.59,5.57ZM503.32,172.2v-7.91h2.21v5.85h16.42v2.06h-18.64Z"/><path class="cls-5" d="M537.58,159.89h-11.23v-2.06h25.03v2.06h-11.58v3.1c2.57.11,4.56.6,5.95,1.47,1.39.88,2.09,2.09,2.09,3.65,0,1.67-.79,2.96-2.37,3.88-1.58.92-3.84,1.38-6.77,1.38s-5.19-.46-6.77-1.38c-1.58-.92-2.37-2.21-2.37-3.88,0-1.56.7-2.78,2.09-3.65,1.39-.88,3.38-1.37,5.95-1.47v-3.1ZM529.29,156.22l-.98-1.8,9.46-4.33v-2.12h-8.38v-2.06h18.95v2.06h-8.35v2.12l9.27,4.24-.98,1.8-9.4-4.3-9.59,4.4ZM531.76,168.12c0,1.03.6,1.82,1.8,2.37,1.2.55,2.91.82,5.13.82s3.92-.27,5.12-.82c1.2-.55,1.8-1.34,1.8-2.37s-.6-1.76-1.8-2.29c-1.2-.54-2.91-.81-5.12-.81s-3.92.27-5.13.81c-1.2.54-1.8,1.3-1.8,2.29Z"/><path class="cls-5" d="M574.19,173.08h-2.21v-6.33h-19.68v-2.06h6.36v-8.42h2.21v8.42h11.11v-17.62h-2.06v-1.9h4.27v11.3h4.68v2.06h-4.68v14.55ZM566.06,149.95h-12.21v-1.96h14.33v12.53h-2.12v-10.57Z"/><path class="cls-5" d="M622.03,169.63h-25.79v-2.06h11.74v-6.9h2.21v6.9h11.83v2.06ZM599.35,161.06l-1.11-1.74,9.75-6.71v-5.7h2.21v5.7l9.75,6.71-1.11,1.74-9.75-6.71-9.75,6.71Z"/><path class="cls-5" d="M626.5,157.29v-11.33l18.67.09v1.99l-16.52-.1v2.47l15.76.09v1.99l-15.76-.1v2.88l16.74.1v1.99l-8.64-.03v2.66h11.42v2.06h-25.34v-2.06h11.71v-2.69l-8.04-.03ZM626.43,168.88c0-1.5.8-2.65,2.4-3.46,1.6-.81,3.9-1.22,6.9-1.22s5.29.41,6.9,1.22c1.6.81,2.41,1.97,2.41,3.46s-.8,2.72-2.41,3.54c-1.6.82-3.9,1.23-6.9,1.23s-5.29-.41-6.9-1.23c-1.6-.82-2.4-2-2.4-3.54ZM628.65,168.88c0,.86.61,1.53,1.83,2.01,1.22.47,2.97.71,5.25.71s4.03-.24,5.25-.71c1.22-.47,1.83-1.14,1.83-2.01s-.61-1.49-1.83-1.95c-1.22-.45-2.97-.68-5.25-.68s-4.03.23-5.25.68c-1.22.45-1.83,1.1-1.83,1.95Z"/><polygon class="cls-1" points="1681.36 498.77 1681.36 444.14 1456 444.14 1456 477.94 1389.76 477.94 1389.76 545.55 1477.17 545.55 1477.17 566.38 1702.53 566.38 1702.53 498.77 1681.36 498.77"/><path class="cls-5" d="M1509.76,513.31h-25.03v-2.06h11.42v-4.56h2.21v4.56h11.39v2.06ZM1487.68,508.56l-.98-1.8,9.46-5.47v-1.61h-8.48v-2.06h18.95v2.06h-8.26v1.61l9.27,5.38-.98,1.8-9.4-5.47-9.59,5.57ZM1488.28,523.59v-7.91h2.22v5.85h16.42v2.06h-18.64Z"/><path class="cls-5" d="M1522.55,511.28h-11.23v-2.06h25.03v2.06h-11.58v3.1c2.57.11,4.56.6,5.95,1.47,1.39.88,2.09,2.09,2.09,3.65,0,1.67-.79,2.96-2.37,3.88-1.58.92-3.84,1.38-6.77,1.38s-5.19-.46-6.77-1.38c-1.58-.92-2.37-2.21-2.37-3.88,0-1.56.7-2.78,2.09-3.65,1.39-.88,3.37-1.37,5.95-1.47v-3.1ZM1514.26,507.61l-.98-1.8,9.46-4.33v-2.12h-8.38v-2.06h18.95v2.06h-8.35v2.12l9.27,4.24-.98,1.8-9.4-4.3-9.59,4.4ZM1516.72,519.51c0,1.03.6,1.82,1.8,2.37,1.2.55,2.91.82,5.13.82s3.92-.27,5.13-.82c1.2-.55,1.8-1.34,1.8-2.37s-.6-1.76-1.8-2.29c-1.2-.54-2.91-.81-5.13-.81s-3.92.27-5.13.81c-1.2.54-1.8,1.3-1.8,2.29Z"/><path class="cls-5" d="M1559.15,524.48h-2.21v-6.33h-19.68v-2.06h6.36v-8.42h2.21v8.42h11.11v-17.62h-2.06v-1.9h4.27v11.3h4.68v2.06h-4.68v14.55ZM1551.02,501.35h-12.21v-1.96h14.33v12.53h-2.12v-10.57Z"/><path class="cls-5" d="M1607,521.03h-25.79v-2.06h11.74v-6.9h2.21v6.9h11.83v2.06ZM1584.31,512.46l-1.11-1.74,9.75-6.71v-5.7h2.21v5.7l9.75,6.71-1.11,1.74-9.75-6.71-9.75,6.71Z"/><path class="cls-5" d="M1611.46,508.69v-11.33l18.67.09v1.99l-16.52-.1v2.47l15.76.09v1.99l-15.76-.1v2.88l16.74.1v1.99l-8.64-.03v2.66h11.42v2.06h-25.34v-2.06h11.71v-2.69l-8.04-.03ZM1611.39,520.27c0-1.5.8-2.65,2.4-3.46,1.6-.81,3.9-1.22,6.9-1.22s5.29.41,6.9,1.22c1.6.81,2.4,1.97,2.4,3.46s-.8,2.72-2.4,3.54c-1.6.82-3.9,1.23-6.9,1.23s-5.29-.41-6.9-1.23c-1.6-.82-2.4-2-2.4-3.54ZM1613.61,520.27c0,.86.61,1.53,1.83,2.01s2.97.71,5.25.71,4.03-.24,5.25-.71,1.83-1.14,1.83-2.01-.61-1.49-1.83-1.95-2.97-.68-5.25-.68-4.03.23-5.25.68-1.83,1.1-1.83,1.95Z"/><polygon class="cls-1" points="1755.52 329.26 1723.66 329.26 1723.66 308.63 1587.08 308.63 1587.08 338.02 1555.21 338.02 1555.21 379.27 1598 379.27 1598 408.39 1734.58 408.39 1734.58 370.5 1755.52 370.5 1755.52 329.26"/><path class="cls-5" d="M1620.19,359.35l-1.42-1.49,7.28-6.99v-4.08h-6.36v-2.06h14.97v2.06h-6.39v4.27l7.31,6.8-1.42,1.49-7.12-6.58-6.83,6.58ZM1623.76,370.27v-9.02h2.21v6.96h16.8v2.06h-19.02ZM1639.11,344.2h-2.06v-1.9h4.27v20.82h-2.21v-18.92Z"/><path class="cls-5" d="M1646.92,358.91l-1.39-1.52,6.93-6.42v-4.15h-6.64v-2.06h15.16v2.06h-6.3v4.15l6.93,6.42-1.39,1.52-6.64-6.17-6.64,6.17ZM1649.61,365.84c0-1.6.84-2.87,2.53-3.81,1.69-.94,3.97-1.41,6.83-1.41,1.92-.02,3.58.18,4.98.62,1.4.43,2.49,1.04,3.26,1.82.77.78,1.15,1.71,1.15,2.78s-.38,1.98-1.15,2.77c-.77.79-1.86,1.4-3.26,1.82-1.4.42-3.06.63-4.98.63-2.87,0-5.15-.47-6.83-1.41s-2.53-2.21-2.53-3.81ZM1651.83,365.84c0,.97.64,1.74,1.93,2.31,1.29.57,3.03.85,5.22.85s3.94-.28,5.24-.85c1.3-.57,1.95-1.34,1.95-2.31s-.65-1.74-1.95-2.31c-1.3-.57-3.04-.85-5.24-.85s-3.93.28-5.22.85c-1.29.57-1.93,1.34-1.93,2.31ZM1665.75,352.23h-5.7v-2.06h5.7v-5.32h-2.06v-2.06h4.27v16.86h-2.21v-7.44Z"/><path class="cls-5" d="M1674.1,358.4l-1.46-1.46,6.26-7.18v-5.89h2.21v5.76l6.87,6.64-1.46,1.46-6.42-6.17-6.01,6.83ZM1677.23,365.55c0-1.75.76-3.1,2.29-4.03,1.53-.94,3.7-1.41,6.5-1.41s5,.47,6.52,1.41c1.52.94,2.28,2.28,2.28,4.03s-.76,3.07-2.28,4.02-3.69,1.42-6.52,1.42-4.97-.47-6.5-1.42-2.29-2.29-2.29-4.02ZM1679.38,365.55c0,1.1.58,1.95,1.72,2.55s2.79.9,4.92.9,3.77-.3,4.92-.9c1.15-.6,1.72-1.45,1.72-2.55s-.58-1.97-1.72-2.56c-1.15-.59-2.79-.89-4.92-.89s-3.77.3-4.92.89c-1.15.59-1.72,1.44-1.72,2.56ZM1694.45,359.16h-2.21v-8.86h-6.14v-2.06h6.14v-4.05h-2.06v-1.9h4.27v16.86Z"/><polygon class="cls-1" points="450.7 309.94 324.13 309.94 324.13 300.23 187.55 300.23 187.55 329.62 155.69 329.62 155.69 370.87 198.48 370.87 198.48 399.99 335.06 399.99 335.06 384.1 450.7 384.1 450.7 309.94"/><path class="cls-5" d="M218.76,356.93h11.77v-6.17c-1.5-.15-2.85-.55-4.07-1.22-1.21-.66-2.17-1.52-2.86-2.58s-1.04-2.21-1.04-3.48c0-1.37.4-2.62,1.2-3.73.8-1.12,1.89-2,3.26-2.66s2.9-.98,4.59-.98,3.22.33,4.59.98,2.46,1.54,3.26,2.66c.8,1.12,1.2,2.36,1.2,3.73,0,1.27-.35,2.42-1.04,3.46-.7,1.04-1.64,1.9-2.83,2.58s-2.54,1.09-4.03,1.23v6.17h11.67v2.06h-25.66v-2.06ZM224.78,343.48c0,.99.31,1.89.92,2.69.61.8,1.43,1.43,2.47,1.9,1.03.46,2.18.7,3.45.7s2.44-.23,3.46-.7,1.84-1.1,2.45-1.9c.61-.8.92-1.7.92-2.69s-.31-1.89-.92-2.69c-.61-.8-1.43-1.44-2.45-1.91s-2.18-.71-3.46-.71-2.42.24-3.45.71c-1.03.47-1.86,1.11-2.47,1.91-.61.8-.92,1.7-.92,2.69Z"/><path class="cls-5" d="M270.91,351.14h-25.44v-2.06h25.44v2.06ZM268.06,361.61h-19.18v-7.81h2.21v5.76h16.96v2.06ZM253.44,337.47h-4.43v-2.06h18.67v2.06h-4.43v6.55h4.43v2.06h-18.67v-2.06h4.43v-6.55ZM255.66,337.47v6.55h5.38v-6.55h-5.38Z"/><path class="cls-5" d="M302.9,354.4h-12.78v-16.67h12.78v16.67ZM292.33,339.78v12.56h8.35v-12.56h-8.35ZM308.31,336.11h-2.06v-2.06h4.27v11.52h5.09v2.06h-5.09v14.52h-2.21v-26.04Z"/><path class="cls-5" d="M316.44,343.36c0-1.39.3-2.62.9-3.67.6-1.05,1.43-1.88,2.5-2.48,1.06-.6,2.29-.9,3.69-.9,1.37.04,2.58.37,3.64,1,1.05.62,1.88,1.46,2.48,2.5.6,1.04.9,2.23.9,3.56s-.3,2.55-.9,3.61-1.43,1.88-2.48,2.47c-1.06.59-2.27.89-3.64.89s-2.62-.3-3.69-.89c-1.07-.59-1.9-1.41-2.5-2.47-.6-1.05-.9-2.26-.9-3.61ZM318.65,343.36c0,1.44.46,2.61,1.38,3.53.92.92,2.08,1.38,3.5,1.38s2.57-.46,3.46-1.38c.9-.92,1.35-2.09,1.35-3.53s-.45-2.68-1.35-3.61c-.9-.93-2.05-1.39-3.46-1.39s-2.58.46-3.5,1.39c-.92.93-1.38,2.13-1.38,3.61ZM339.82,361.61h-18.64v-8.57h2.21v6.52h16.42v2.06ZM338.75,354.84h-2.21v-19.17h-2.06v-1.9h4.27v21.07Z"/><path class="cls-5" d="M367.95,359.15h-25.79v-2.06h25.79v2.06ZM364,349.97h-17.97v-13.26h17.97v2.06h-15.76v9.14h15.76v2.06Z"/><line class="cls-3" x1="307.74" y1="401.43" x2="307.74" y2="1010.97"/><line class="cls-3" x1="268.73" y1="972.1" x2="308.34" y2="1011.71"/><line class="cls-3" x1="346.76" y1="972.1" x2="307.15" y2="1011.71"/><line class="cls-3" x1="483.53" y1="350.11" x2="483.53" y2="959.65"/><line class="cls-3" x1="444.52" y1="920.78" x2="484.13" y2="960.39"/><line class="cls-3" x1="522.55" y1="920.78" x2="482.94" y2="960.39"/><line class="cls-3" x1="1555.21" y1="567.23" x2="1555.21" y2="957.52"/><line class="cls-3" x1="1516.2" y1="918.65" x2="1555.8" y2="958.26"/><line class="cls-3" x1="1594.22" y1="918.65" x2="1554.61" y2="958.26"/><path class="cls-5" d="M836.58,232.35h-32.4v-23.71h22.8v3.71h-18.8v6.57h18.11v3.71h-18.11v6h28.4v-19.14h-3.71v-3.71h7.71v11.6h8.06v3.71h-8.06v12.63h-4v-1.37ZM840.58,255.43h-31.37v-19.2h4v6.06h23.37v-6.06h4v19.2ZM813.21,246.01v5.71h23.37v-5.71h-23.37Z"/><path class="cls-5" d="M884.23,241.78h-32.17l.11-28.06v-2.11h23.03v3.71h-19.03l-.11,22.74h28.17v-29.71h-3.71v-3.71h7.71v20.28h8.8v3.71h-8.8v26.68h-4v-13.54Z"/><path class="cls-5" d="M918.57,235.26h-20.86v-3.71h45.65v3.71h-20.8v10.51h-4v-10.51ZM903.78,255.32v-14.63h4v10.91h30.11v3.71h-34.11ZM904.63,216.87c0-3.12,1.44-5.59,4.31-7.4,2.88-1.81,6.75-2.71,11.63-2.71s8.75.91,11.63,2.71c2.88,1.81,4.31,4.28,4.31,7.4s-1.44,5.6-4.31,7.43c-2.88,1.83-6.75,2.74-11.63,2.74s-8.75-.91-11.63-2.74c-2.88-1.83-4.31-4.3-4.31-7.43ZM908.63,216.92c0,1.98,1.08,3.55,3.23,4.71,2.15,1.16,5.06,1.74,8.71,1.74s6.56-.58,8.71-1.74c2.15-1.16,3.23-2.73,3.23-4.71s-1.08-3.54-3.23-4.69c-2.15-1.14-5.06-1.71-8.71-1.71s-6.56.57-8.71,1.71c-2.15,1.14-3.23,2.71-3.23,4.69Z"/><path class="cls-5" d="M1008.97,254.98h-4v-26.34h-7.49v12.74h-19.43v-30.68h19.43v14.23h7.49v-16.34h-3.71v-3.71h7.71v50.11ZM982.05,214.41v23.26h11.43v-23.26h-11.43ZM1018.79,254.98h-4v-50.11h4v50.11Z"/><path class="cls-5" d="M1028.05,243.95l-2.91-2.29,13.03-17.54v-14.57h4v14.28l13.66,17.77-2.86,2.34-12.68-16.46-12.23,16.46ZM1066.16,255.66h-4v-47.02h-3.71v-3.71h7.71v50.74Z"/><path class="cls-5" d="M1075.76,245.09l-2.86-2.51,13.2-15.03v-13.26h-11.54v-3.71h27.25v3.71h-11.71v13.26l13.2,15.03-2.86,2.51-12.34-14-12.34,14ZM1113.81,255.66h-4v-47.02h-3.71v-3.71h7.71v50.74Z"/><rect class="cls-5" x="479.22" y="324.94" width="923.05" height="58.01"/><rect class="cls-5" x="479.22" y="382.95" width="864" height="58.01"/><rect class="cls-5" x="479.22" y="434.95" width="932.37" height="58.01"/><rect class="cls-5" x="479.22" y="487.3" width="738.16" height="58.01"/><rect class="cls-5" x="479.22" y="598.7" width="877.99" height="58.01"/><rect class="cls-5" x="479.22" y="654.98" width="817.38" height="58.01"/><rect class="cls-5" x="479.22" y="544.96" width="778.26" height="58.01"/><path class="cls-4" d="M506.35,360.29h-13.36v-2.34h29.2v2.34h-13.32v11.12h-2.52v-11.12ZM507.61,354.67c-1.68,0-3.2-.33-4.57-.99-1.37-.66-2.45-1.54-3.26-2.65-.8-1.1-1.21-2.34-1.21-3.71s.4-2.6,1.21-3.69c.8-1.09,1.89-1.96,3.26-2.61,1.37-.65,2.89-.97,4.57-.97s3.23.32,4.59.97c1.36.65,2.44,1.52,3.24,2.61.8,1.09,1.21,2.32,1.21,3.69s-.4,2.6-1.21,3.71c-.8,1.1-1.88,1.99-3.24,2.65-1.36.66-2.89.99-4.59.99ZM501.09,347.33c0,.94.29,1.78.86,2.54.58.76,1.36,1.36,2.36,1.8,1,.44,2.09.67,3.29.67s2.33-.22,3.31-.67c.98-.44,1.76-1.04,2.34-1.8s.86-1.6.86-2.54-.29-1.78-.86-2.52c-.58-.74-1.36-1.33-2.34-1.76-.98-.43-2.09-.65-3.31-.65s-2.3.22-3.29.65c-1,.43-1.78,1.02-2.36,1.76-.58.74-.86,1.58-.86,2.52Z"/><path class="cls-4" d="M549.51,363.13h-2.52v-4.86h-21.71v-9.54h11.81v-4.46h-12.06v-2.34h14.58v9.14h-11.81v4.86h19.19v-13.93h-2.34v-2.34h4.86v23.47ZM550.85,370.87h-21.82v-9.5h2.52v7.16h19.3v2.34Z"/><path class="cls-4" d="M595.13,356.4h-20.41v-14.94h14.36v2.34h-11.84v4.14h11.41v2.34h-11.41v3.78h17.89v-12.06h-2.34v-2.34h4.86v7.31h5.08v2.34h-5.08v7.96h-2.52v-.86ZM597.65,370.94h-19.76v-12.1h2.52v3.82h14.72v-3.82h2.52v12.1ZM580.4,365v3.6h14.72v-3.6h-14.72Z"/><path class="cls-4" d="M625.15,362.34h-20.27l.07-17.68v-1.33h14.51v2.34h-11.99l-.07,14.33h17.75v-18.72h-2.34v-2.34h4.86v12.78h5.54v2.34h-5.54v16.81h-2.52v-8.53Z"/><path class="cls-4" d="M646.79,358.23h-13.14v-2.34h28.76v2.34h-13.1v6.62h-2.52v-6.62ZM637.46,370.87v-9.22h2.52v6.88h18.97v2.34h-21.49ZM638,346.64c0-1.97.91-3.52,2.72-4.66,1.81-1.14,4.25-1.71,7.33-1.71s5.51.57,7.33,1.71c1.81,1.14,2.72,2.69,2.72,4.66s-.91,3.53-2.72,4.68c-1.81,1.15-4.25,1.73-7.33,1.73s-5.51-.58-7.33-1.73c-1.81-1.15-2.72-2.71-2.72-4.68ZM640.52,346.68c0,1.25.68,2.24,2.03,2.97,1.36.73,3.19,1.1,5.49,1.1s4.13-.37,5.49-1.1c1.36-.73,2.03-1.72,2.03-2.97s-.68-2.23-2.03-2.95c-1.36-.72-3.19-1.08-5.49-1.08s-4.13.36-5.49,1.08c-1.36.72-2.03,1.7-2.03,2.95Z"/><path class="cls-4" d="M703.74,370.65h-2.52v-16.6h-4.72v8.03h-12.24v-19.33h12.24v8.96h4.72v-10.3h-2.34v-2.34h4.86v31.57ZM686.78,345.09v14.65h7.2v-14.65h-7.2ZM709.93,370.65h-2.52v-31.57h2.52v31.57Z"/><path class="cls-4" d="M715.76,363.71l-1.84-1.44,8.21-11.05v-9.18h2.52v9l8.6,11.2-1.8,1.48-7.99-10.37-7.7,10.37ZM739.77,371.09h-2.52v-29.63h-2.34v-2.34h4.86v31.97Z"/><path class="cls-4" d="M745.82,364.43l-1.8-1.58,8.32-9.47v-8.35h-7.27v-2.34h17.17v2.34h-7.38v8.35l8.32,9.47-1.8,1.58-7.78-8.82-7.78,8.82ZM769.8,371.09h-2.52v-29.63h-2.34v-2.34h4.86v31.97Z"/><path class="cls-4" d="M803.02,356.83h-28.84v-2.34h28.84v2.34ZM799.32,370.73h-21.2v-6.98h18.36v-2.16h-18.36v-2.34h20.88v6.66h-18.36v2.48h18.68v2.34ZM796.51,342.83h-18.36v-2.34h20.88v6.73h-18.36v2.66h18.68v2.34h-21.2v-7.16h18.36v-2.23Z"/><path class="cls-4" d="M852.13,356.43h-28.48v-2.34h28.48v2.34ZM842.88,345.63v-6.01h2.45v6.16l5.47,5.18-1.73,1.51-5.04-4.79-5.8,4.07-5.8-4.18-5.11,4.86-1.73-1.51,5.47-5.18v-6.16h2.45v5.9l4.72,3.42,4.64-3.28ZM849.07,371.01h-21.89v-12.02h2.52v3.78h16.85v-3.78h2.52v12.02ZM829.7,365.11v3.56h16.85v-3.56h-16.85Z"/><path class="cls-4" d="M876.93,361.94h-20.84l.07-20.2h2.52l-.07,17.86h18.32v-18.32h-1.98v-2.16h4.5v31.97h-2.52v-9.14Z"/><path class="cls-4" d="M905.95,362.34h-20.27l.07-17.68v-1.33h14.51v2.34h-11.99l-.07,14.33h17.75v-18.72h-2.34v-2.34h4.86v12.78h5.54v2.34h-5.54v16.81h-2.52v-8.53Z"/><path class="cls-4" d="M914.44,366.95v-4h4v4h-4Z"/><path class="cls-4" d="M975.54,367.45h-29.23v-2.34h13.32v-7.74h2.52v7.74h13.39v2.34ZM949.79,359.53l-1.26-1.98,11.09-7.63v-5.08h-9.72v-2.34h21.89v2.34h-9.65v5.08l11.09,7.63-1.26,1.98-11.09-7.63-11.09,7.63Z"/><path class="cls-4" d="M978.67,357.55l-1.66-1.69,8.24-7.7v-4.72h-7.09v-2.34h16.67v2.34h-7.06v4.68l8.46,7.02-1.58,1.69-8.1-6.66-7.88,7.38ZM1000.16,362.41h-18.76v-2.34h21.28v11.34h-2.52v-9ZM1000.16,341.42h-2.34v-2.34h4.86v19.15h-2.52v-16.81Z"/><path class="cls-4" d="M1020.39,357.77h-13.64v-2.34h28.48v2.34h-12.31v6.55h-2.52v-6.55ZM1032.52,370.76h-21.71v-9.61h2.52v7.27h19.19v2.34ZM1031.77,351.72h-20.38v-11.41h20.38v11.41ZM1013.91,342.65v6.73h15.34v-6.73h-15.34Z"/><path class="cls-4" d="M1061.61,371.41h-2.52v-5.98h-22v-2.34h8.53v-3.38c-1.15-.19-2.18-.58-3.1-1.15-.91-.58-1.63-1.3-2.16-2.18-.53-.88-.79-1.83-.79-2.86,0-1.18.33-2.24.99-3.19s1.55-1.7,2.68-2.27,2.38-.85,3.74-.85,2.6.28,3.69.85c1.09.56,1.96,1.32,2.61,2.27.65.95.97,2.01.97,3.19,0,1.06-.27,2.03-.81,2.92-.54.89-1.27,1.62-2.18,2.2-.91.58-1.96.95-3.13,1.12v3.35h10.94v-21.78h-2.34v-2.34h4.86v14.47h5.29v2.34h-5.29v15.62ZM1055.99,345.67h-18.65v-2.27h8.35v-4.46h2.45v4.46h7.85v2.27ZM1042.1,353.55c0,.72.22,1.38.65,1.98.43.6,1.02,1.07,1.76,1.42.74.35,1.57.52,2.48.52s1.69-.17,2.41-.5c.72-.34,1.29-.8,1.71-1.39.42-.59.63-1.24.63-1.96,0-.77-.21-1.46-.63-2.07-.42-.61-.99-1.1-1.71-1.46s-1.52-.54-2.41-.54-1.74.18-2.48.54c-.74.36-1.33.84-1.76,1.44-.43.6-.65,1.27-.65,2.02Z"/><path class="cls-4" d="M1096.17,357.73h-28.73v-2.34h28.73v2.34ZM1093.22,370.4h-22.14v-9.32h2.52v6.98h19.62v2.34ZM1092.25,351.11h-20.3v-11.02h2.52v8.68h17.78v2.34Z"/><path class="cls-4" d="M1140.23,365.65h-22.5v-2.34h8.68v-3.35c-1.18-.17-2.23-.54-3.17-1.12-.94-.58-1.67-1.3-2.21-2.18s-.81-1.83-.81-2.86c0-1.18.34-2.24,1.01-3.19.67-.95,1.58-1.7,2.72-2.27,1.14-.56,2.41-.85,3.8-.85s2.65.28,3.76.85c1.12.56,2,1.32,2.66,2.27.66.95.99,2.01.99,3.19,0,1.06-.27,2.02-.81,2.9-.54.88-1.28,1.6-2.21,2.18-.94.58-2,.95-3.2,1.12v3.31h11.3v-21.78h-1.98v-2.34h4.5v32.22h-2.52v-5.76ZM1137.1,345.85h-18.72v-2.34h8.03v-3.85h2.52v3.85h8.17v2.34ZM1122.74,353.84c0,.72.22,1.37.67,1.96.44.59,1.04,1.06,1.8,1.4.76.35,1.6.52,2.54.52s1.74-.17,2.48-.5c.74-.34,1.33-.8,1.76-1.39.43-.59.65-1.24.65-1.96,0-.77-.22-1.45-.65-2.05-.43-.6-1.02-1.08-1.76-1.44-.74-.36-1.57-.54-2.48-.54s-1.78.18-2.54.54-1.36.84-1.8,1.44c-.44.6-.67,1.27-.67,2.02Z"/><path class="cls-4" d="M1148.73,364.35l-1.84-1.44,8.35-10.55v-10.22h2.52v10.22l8.39,10.55-1.87,1.44-7.78-9.79-7.78,9.79ZM1171.59,371.09h-2.52v-29.81h-2.34v-2.16h4.86v12.24h5.33v2.34h-5.33v17.39Z"/><path class="cls-4" d="M1206.62,356.83h-28.84v-2.34h28.84v2.34ZM1202.91,370.73h-21.2v-6.98h18.36v-2.16h-18.36v-2.34h20.88v6.66h-18.36v2.48h18.68v2.34ZM1200.1,342.83h-18.36v-2.34h20.88v6.73h-18.36v2.66h18.68v2.34h-21.2v-7.16h18.36v-2.23Z"/><path class="cls-4" d="M1247.87,371.01h-2.52v-17.35h-4.28c-.24,5.62-2.53,8.42-6.88,8.42-4.66,0-6.98-3.18-6.98-9.54s2.33-9.65,6.98-9.65c4.3.14,6.59,2.95,6.88,8.42h4.28v-10.04h-2.34v-2.34h4.86v32.08ZM1229.73,352.55c0,4.8,1.49,7.2,4.46,7.2s4.39-2.4,4.39-7.2-1.46-7.31-4.39-7.31-4.46,2.44-4.46,7.31ZM1254.17,371.01h-2.52v-32.08h2.52v32.08Z"/><path class="cls-4" d="M1283.33,371.09h-2.52v-17.82h-7.81v8.82h-13.75v-19.33h2.52v8.17h8.71v-8.17h2.52v8.17h7.81v-9.65h-2.34v-2.16h4.86v31.97ZM1261.77,353.27v6.48h8.71v-6.48h-8.71Z"/><path class="cls-4" d="M1298.09,344.52h-8.93v-2.34h11.45v9.11h-8.68v4.5h13.18v-13.93h-2.34v-2.34h4.86v8.89h4.46v-9.47h2.52v23.36h-2.52v-11.56h-4.46v11.56h-2.52v-4.18h-15.7v-9.18h8.68v-4.43ZM1315.62,370.69l-21.56.07-.04-9.68h2.52v7.34l19.04-.07.04,2.34Z"/><path class="cls-4" d="M1347.09,367.67h-29.34v-2.34h29.34v2.34ZM1342.59,357.23h-20.45v-15.08h20.45v2.34h-17.93v10.4h17.93v2.34Z"/><path class="cls-4" d="M1352.38,357.23v-9.07h17.93v-3.67h-17.93v-2.34h20.45v8.35h-17.93v4.39h17.93v2.34h-8.89v8.1h13.36v2.34h-29.23v-2.34h13.36v-8.1h-9.04Z"/><path class="cls-4" d="M508.83,410.68h-14.04v-14.51h14.04v14.51ZM497.31,398.51v9.83h9v-9.83h-9ZM520.07,424.83h-21.02v-10.66h2.52v8.32h18.5v2.34ZM515.13,395.67h-2.34v-2.34h4.86v9.86h5.15v2.34h-5.15v11.38h-2.52v-21.24Z"/><path class="cls-4" d="M552.54,421.84h-29.34v-2.34h29.34v2.34ZM548.04,411.4h-20.45v-15.08h20.45v2.34h-17.93v10.4h17.93v2.34Z"/><path class="cls-4" d="M582.42,411.9h-28.73v-2.34h28.73v2.34ZM579.47,424.58h-22.14v-9.32h2.52v6.98h19.62v2.34ZM578.49,405.28h-20.3v-11.02h2.52v8.68h17.78v2.34Z"/><path class="cls-4" d="M614.42,399.74h-9.9v-2.34h12.42c.14,3.26-.32,6.29-1.4,9.07h5.47v-11.02h-2.34v-2.34h4.86v32.08h-2.52v-16.38h-6.55l-.32.58c-.65,1.1-1.49,2.25-2.54,3.44s-2.16,2.29-3.35,3.29c-1.19,1.01-2.35,1.82-3.47,2.45l-1.37-2.09c1.06-.62,2.14-1.4,3.24-2.32s2.12-1.91,3.06-2.95c.94-1.04,1.68-2.05,2.23-3.01,1.46-2.52,2.29-5.34,2.48-8.46ZM630.26,425.19h-2.52v-32.08h2.52v32.08Z"/><path class="cls-4" d="M653.73,406.9c0-3.29.67-5.81,2-7.56s3.23-2.63,5.71-2.63c2.45.1,4.33,1.03,5.65,2.79,1.32,1.76,1.98,4.23,1.98,7.4s-.66,5.73-1.98,7.47c-1.32,1.74-3.2,2.61-5.65,2.61s-4.37-.87-5.71-2.61c-1.33-1.74-2-4.23-2-7.47ZM656.25,406.9c0,2.47.45,4.38,1.35,5.72.9,1.34,2.18,2.02,3.83,2.02s2.89-.67,3.78-2.02c.89-1.34,1.33-3.25,1.33-5.72s-.44-4.46-1.33-5.81c-.89-1.36-2.15-2.03-3.78-2.03s-2.93.68-3.83,2.03c-.9,1.36-1.35,3.29-1.35,5.81ZM677.28,425.76h-2.52v-29.77h-2.34v-2.34h4.86v12.89h5.8v2.34h-5.8v16.88Z"/><path class="cls-4" d="M706.51,408.81h-21.31v-13.57h2.52v11.2h18.79v-10.73h-2.34v-2.16h4.86v17.1h-2.52v-1.84ZM709.1,425.04h-20.2v-13.03h2.52v4.46h15.16v-4.46h2.52v13.03ZM691.43,418.82v3.89h15.16v-3.89h-15.16Z"/><path class="cls-4" d="M736.53,416.12h-20.84l.07-20.2h2.52l-.07,17.86h18.32v-18.32h-1.98v-2.16h4.5v31.97h-2.52v-9.14Z"/><path class="cls-4" d="M765.55,416.51h-20.27l.07-17.68v-1.33h14.51v2.34h-11.99l-.07,14.33h17.75v-18.72h-2.34v-2.34h4.86v12.78h5.54v2.34h-5.54v16.81h-2.52v-8.53Z"/><path class="cls-4" d="M774.04,421.12v-4h4v4h-4Z"/><path class="cls-4" d="M812.85,401.82v-6.19h2.52v6.48l6.73,7.42-1.76,1.55-6.34-6.95-6.37,6.95-1.76-1.55,6.98-7.7ZM812.67,419.07c0-1.9.89-3.35,2.68-4.37,1.79-1.02,4.35-1.53,7.69-1.53s5.9.51,7.69,1.53c1.79,1.02,2.68,2.48,2.68,4.37s-.89,3.35-2.68,4.37c-1.79,1.02-4.35,1.53-7.69,1.53s-5.9-.51-7.69-1.53c-1.79-1.02-2.68-2.48-2.68-4.37ZM815.12,419.07c0,1.18.68,2.08,2.05,2.7,1.37.62,3.32.94,5.87.94s4.5-.31,5.87-.94c1.37-.62,2.05-1.52,2.05-2.7s-.68-2.08-2.05-2.7c-1.37-.62-3.32-.94-5.87-.94s-4.5.31-5.87.94c-1.37.62-2.05,1.52-2.05,2.7ZM823.62,396.03h-2.34v-2.34h4.86v7.78h4.1v-7.78h2.52v18.58h-2.52v-8.46h-4.1v8.46h-2.52v-16.24Z"/><path class="cls-4" d="M864.98,412.88h-28.48v-2.34h13v-5.18h2.52v5.18h12.96v2.34ZM839.85,407.48l-1.12-2.05,10.76-6.23v-1.84h-9.65v-2.34h21.56v2.34h-9.4v1.84l10.55,6.12-1.12,2.05-10.69-6.23-10.91,6.34ZM840.54,424.58v-9h2.52v6.66h18.68v2.34h-21.2Z"/><path class="cls-4" d="M889.82,418.13h-23v-2.34h22.97l-.04-20.12h-2.38v-2.34h4.97v32.26h-2.52v-7.45ZM869.23,403.66c0-1.32.35-2.52,1.06-3.6.71-1.08,1.66-1.95,2.84-2.61,1.19-.66,2.48-.99,3.87-.99,1.39.05,2.67.41,3.83,1.1s2.1,1.56,2.81,2.63c.71,1.07,1.06,2.23,1.06,3.47s-.35,2.45-1.06,3.53-1.64,1.94-2.81,2.59-2.44.97-3.83.97-2.68-.32-3.87-.97c-1.19-.65-2.14-1.51-2.84-2.59-.71-1.08-1.06-2.26-1.06-3.53ZM871.75,403.66c0,.84.24,1.62.72,2.34.48.72,1.12,1.3,1.93,1.73s1.67.65,2.61.65,1.8-.22,2.59-.65,1.42-1.01,1.89-1.73c.47-.72.7-1.5.7-2.34,0-.89-.23-1.7-.7-2.43-.47-.73-1.1-1.32-1.89-1.76-.79-.44-1.66-.67-2.59-.67s-1.81.22-2.61.67c-.8.44-1.45,1.03-1.93,1.76-.48.73-.72,1.54-.72,2.43Z"/><path class="cls-4" d="M929.67,411.94h-13.64v-2.34h28.48v2.34h-12.31v6.55h-2.52v-6.55ZM941.8,424.94h-21.71v-9.61h2.52v7.27h19.19v2.34ZM941.05,405.89h-20.38v-11.41h20.38v11.41ZM923.19,396.82v6.73h15.34v-6.73h-15.34Z"/><path class="cls-4" d="M953.21,400.1h-6.16v-2.34h14.58v2.34h-5.9v7.38l6.59,8.39-1.8,1.48-6.08-7.85-6.84,8.35-1.76-1.55,7.38-8.93v-7.27ZM964.63,407.15h-5.54v-2.34h5.54v-9.11h-2.45v-2.34h4.97v31.82h-2.52v-18.04ZM973.45,425.19h-2.52v-31.82h2.52v31.82Z"/><path class="cls-4" d="M1005.77,421.88h-29.23v-2.34h8.06v-7.38h2.52v7.38h7.99v-7.38h2.52v7.38h8.14v2.34ZM978.59,413.7l-1.26-1.98,12.53-7.99v-4.75h-11.02v-2.34h24.52v2.34h-10.98v4.75l12.53,7.99-1.26,1.98-12.53-7.99-12.53,7.99Z"/><path class="cls-4" d="M1007,421.12v-4h4v4h-4Z"/><path class="cls-4" d="M1045.81,401.82v-6.19h2.52v6.48l6.73,7.42-1.76,1.55-6.34-6.95-6.37,6.95-1.76-1.55,6.98-7.7ZM1045.62,419.07c0-1.9.89-3.35,2.68-4.37,1.79-1.02,4.35-1.53,7.69-1.53s5.9.51,7.69,1.53c1.79,1.02,2.68,2.48,2.68,4.37s-.89,3.35-2.68,4.37c-1.79,1.02-4.35,1.53-7.69,1.53s-5.9-.51-7.69-1.53c-1.79-1.02-2.68-2.48-2.68-4.37ZM1048.07,419.07c0,1.18.68,2.08,2.05,2.7,1.37.62,3.32.94,5.87.94s4.5-.31,5.87-.94c1.37-.62,2.05-1.52,2.05-2.7s-.68-2.08-2.05-2.7c-1.37-.62-3.32-.94-5.87-.94s-4.5.31-5.87.94c-1.37.62-2.05,1.52-2.05,2.7ZM1056.57,396.03h-2.34v-2.34h4.86v7.78h4.1v-7.78h2.52v18.58h-2.52v-8.46h-4.1v8.46h-2.52v-16.24Z"/><path class="cls-4" d="M1097.93,412.88h-28.48v-2.34h13v-5.18h2.52v5.18h12.96v2.34ZM1072.81,407.48l-1.12-2.05,10.76-6.23v-1.84h-9.65v-2.34h21.56v2.34h-9.4v1.84l10.55,6.12-1.12,2.05-10.69-6.23-10.91,6.34ZM1073.49,424.58v-9h2.52v6.66h18.68v2.34h-21.2Z"/><path class="cls-4" d="M1128.32,409.92h-28.94v-2.34h28.94v2.34ZM1122.2,415h-19.04v-2.34h21.56v7.52h-19.04v3.02h20.02v2.34h-22.54v-7.7h19.04v-2.84ZM1103.66,399.66c0-1.1.43-2.08,1.3-2.93.86-.85,2.07-1.52,3.62-2,1.55-.48,3.32-.72,5.31-.72s3.79.24,5.33.72c1.54.48,2.74,1.15,3.6,2,.86.85,1.3,1.83,1.3,2.93s-.43,2.09-1.3,2.95c-.86.86-2.06,1.54-3.6,2.02-1.54.48-3.31.72-5.33.72s-3.76-.24-5.31-.72c-1.55-.48-2.75-1.15-3.62-2.02-.86-.86-1.3-1.85-1.3-2.95ZM1106.18,399.66c0,.65.33,1.23.99,1.75.66.52,1.57.92,2.72,1.21,1.15.29,2.48.43,4,.43s2.85-.14,4.01-.43,2.07-.69,2.72-1.21c.65-.52.97-1.1.97-1.75s-.32-1.22-.97-1.71c-.65-.49-1.55-.88-2.72-1.15s-2.5-.41-4.01-.41-2.84.14-4,.41c-1.15.28-2.06.66-2.72,1.15-.66.49-.99,1.06-.99,1.71Z"/><path class="cls-4" d="M1158.45,413.7h-8.53v-2.34h22.68v-16.06h-2.45v-2.34h4.97v31.9h-2.52v-11.16h-11.63v11.16h-2.52v-11.16ZM1152,401.36c0-1.32.33-2.49.99-3.51.66-1.02,1.57-1.82,2.72-2.39,1.15-.58,2.48-.86,4-.86,1.49.05,2.81.37,3.96.97,1.15.6,2.05,1.4,2.7,2.39.65,1,.97,2.13.97,3.4s-.32,2.48-.97,3.47c-.65,1-1.55,1.78-2.7,2.34-1.15.56-2.47.85-3.96.85s-2.84-.28-4-.85c-1.15-.56-2.06-1.34-2.72-2.34-.66-1-.99-2.15-.99-3.47ZM1154.52,401.36c0,1.25.48,2.28,1.44,3.1.96.82,2.21,1.22,3.74,1.22s2.71-.41,3.67-1.22c.96-.82,1.44-1.85,1.44-3.1s-.48-2.36-1.44-3.19c-.96-.83-2.18-1.24-3.67-1.24s-2.79.41-3.74,1.24c-.96.83-1.44,1.89-1.44,3.19Z"/><path class="cls-4" d="M1197.72,399.84h-17.86v-2.34h7.49v-3.67h2.52v3.67h7.85v2.34ZM1181.45,407.66c0-1.2.32-2.26.95-3.19.63-.92,1.52-1.65,2.65-2.18,1.13-.53,2.41-.79,3.85-.79s2.71.26,3.82.79c1.1.53,1.97,1.25,2.59,2.18.62.92.94,1.99.94,3.19s-.31,2.27-.94,3.2c-.62.94-1.49,1.67-2.59,2.2-1.1.53-2.38.79-3.82.79s-2.72-.26-3.85-.79c-1.13-.53-2.01-1.26-2.65-2.2-.64-.94-.95-2-.95-3.2ZM1183.97,407.69c0,1.1.46,2.02,1.39,2.74.92.72,2.11,1.08,3.55,1.08s2.57-.35,3.47-1.04,1.35-1.6,1.35-2.7-.45-2.09-1.35-2.83c-.9-.73-2.06-1.1-3.47-1.1s-2.62.36-3.55,1.08c-.92.72-1.39,1.64-1.39,2.77ZM1184.55,425.12v-9h2.52v6.66h19.44v2.34h-21.96ZM1201.54,395.63h-2.34v-2.34h4.86v11.27h5.18v2.34h-5.18v11.2h-2.52v-22.46Z"/><path class="cls-4" d="M1245.32,396.75c.12,3.24-.39,6.28-1.53,9.13-1.14,2.84-2.81,5.39-5,7.63-2.2,2.24-4.83,4.11-7.9,5.6l-1.08-2.27c2.59-1.25,4.82-2.79,6.68-4.63,1.86-1.84,3.32-3.87,4.39-6.1,1.07-2.23,1.69-4.57,1.85-7.02h-11.77v-2.34h14.36ZM1250.72,395.63h-2.34v-2.34h4.86v13.5h5.47v2.34h-5.47v16.45h-2.52v-29.95Z"/><path class="cls-4" d="M1261.44,410l-1.58-1.73,7.88-7.31v-6.26h2.52v6.26l7.88,7.31-1.58,1.73-7.56-7.02-7.56,7.02ZM1265.4,425.55v-8.24h17.6v-2.95h-17.64v-2.34h20.16v7.63h-17.6v3.56h19.08v2.34h-21.6ZM1282.83,401.9h-7.63v-2.34h7.63v-3.53h-2.34v-2.34h4.86v16.6h-2.52v-8.39Z"/><path class="cls-4" d="M1290.75,407.48c0-2.09.32-3.89.97-5.42.65-1.52,1.58-2.7,2.79-3.53,1.21-.83,2.65-1.24,4.3-1.24,1.63.05,3.05.5,4.25,1.35,1.2.85,2.12,2.03,2.77,3.53.65,1.5.97,3.27.97,5.31s-.32,3.85-.97,5.36c-.65,1.51-1.57,2.68-2.77,3.49-1.2.82-2.62,1.22-4.25,1.22s-3.09-.41-4.3-1.22c-1.21-.82-2.14-1.98-2.79-3.49-.65-1.51-.97-3.3-.97-5.36ZM1293.27,407.48c0,2.38.5,4.26,1.49,5.65,1,1.39,2.35,2.09,4.05,2.09s3.01-.7,4-2.09c.98-1.39,1.48-3.28,1.48-5.65s-.49-4.34-1.48-5.74c-.98-1.4-2.32-2.11-4-2.11s-3.05.7-4.05,2.11c-1,1.4-1.49,3.32-1.49,5.74ZM1315.37,425.26h-2.52v-29.63h-2.34v-2.34h4.86v31.97Z"/><path class="cls-4" d="M522.26,475.8h-29.23v-2.34h13.32v-7.74h2.52v7.74h13.39v2.34ZM496.52,467.88l-1.26-1.98,11.09-7.63v-5.08h-9.72v-2.34h21.89v2.34h-9.65v5.08l11.09,7.63-1.26,1.98-11.09-7.63-11.09,7.63Z"/><path class="cls-4" d="M525.39,465.9l-1.66-1.69,8.24-7.7v-4.72h-7.09v-2.34h16.67v2.34h-7.06v4.68l8.46,7.02-1.58,1.69-8.1-6.66-7.88,7.38ZM546.89,470.76h-18.76v-2.34h21.28v11.34h-2.52v-9ZM546.89,449.77h-2.34v-2.34h4.86v19.15h-2.52v-16.81Z"/><path class="cls-4" d="M567.12,466.12h-13.64v-2.34h28.48v2.34h-12.31v6.55h-2.52v-6.55ZM579.25,479.11h-21.71v-9.61h2.52v7.27h19.19v2.34ZM578.49,460.07h-20.38v-11.41h20.38v11.41ZM560.64,451v6.73h15.34v-6.73h-15.34Z"/><path class="cls-4" d="M608.34,479.76h-2.52v-5.98h-22v-2.34h8.53v-3.38c-1.15-.19-2.18-.58-3.1-1.15-.91-.58-1.63-1.3-2.16-2.18-.53-.88-.79-1.83-.79-2.86,0-1.18.33-2.24.99-3.19s1.55-1.7,2.68-2.27,2.38-.85,3.74-.85,2.6.28,3.69.85c1.09.56,1.96,1.32,2.61,2.27.65.95.97,2.01.97,3.19,0,1.06-.27,2.03-.81,2.92-.54.89-1.27,1.62-2.18,2.2-.91.58-1.96.95-3.13,1.12v3.35h10.94v-21.78h-2.34v-2.34h4.86v14.47h5.29v2.34h-5.29v15.62ZM602.72,454.02h-18.65v-2.27h8.35v-4.46h2.45v4.46h7.85v2.27ZM588.83,461.9c0,.72.22,1.38.65,1.98.43.6,1.02,1.07,1.76,1.42.74.35,1.57.52,2.48.52s1.69-.17,2.41-.5c.72-.34,1.29-.8,1.71-1.39.42-.59.63-1.24.63-1.96,0-.77-.21-1.46-.63-2.07-.42-.61-.99-1.1-1.71-1.46-.72-.36-1.52-.54-2.41-.54s-1.74.18-2.48.54c-.74.36-1.33.84-1.76,1.44-.43.6-.65,1.27-.65,2.02Z"/><path class="cls-4" d="M615.68,456.76c0-1.39.34-2.65,1.03-3.78.68-1.13,1.61-2.03,2.77-2.7,1.16-.67,2.47-1.01,3.91-1.01,1.44.05,2.74.42,3.89,1.12,1.15.7,2.06,1.6,2.74,2.7.67,1.1,1.01,2.33,1.01,3.67s-.34,2.61-1.01,3.73c-.67,1.12-1.58,2-2.74,2.66-1.15.66-2.45.99-3.89.99s-2.74-.33-3.91-.99c-1.16-.66-2.09-1.55-2.77-2.66-.68-1.12-1.03-2.36-1.03-3.73ZM618.2,456.76c0,.94.23,1.79.68,2.56.46.77,1.08,1.37,1.87,1.82.79.44,1.67.67,2.63.67s1.82-.22,2.59-.67c.77-.44,1.38-1.05,1.84-1.82s.68-1.62.68-2.56-.23-1.83-.68-2.61c-.46-.78-1.07-1.4-1.84-1.85-.77-.46-1.63-.68-2.59-.68s-1.84.23-2.63.68c-.79.46-1.42,1.07-1.87,1.85-.46.78-.68,1.65-.68,2.61ZM640.38,479.65h-20.38v-12.78h2.52v3.78h15.34v-3.78h2.52v12.78ZM622.52,472.99v4.32h15.34v-4.32h-15.34ZM637.82,449.3h-2.34v-2.16h4.86v17.96h-2.52v-15.8Z"/><path class="cls-4" d="M667.41,470.29h-20.84l.07-20.2h2.52l-.07,17.86h18.32v-18.32h-1.98v-2.16h4.5v31.97h-2.52v-9.14Z"/><path class="cls-4" d="M696.43,470.69h-20.27l.07-17.68v-1.33h14.51v2.34h-11.99l-.07,14.33h17.75v-18.72h-2.34v-2.34h4.86v12.78h5.54v2.34h-5.54v16.81h-2.52v-8.53Z"/><path class="cls-4" d="M704.92,475.3v-4h4v4h-4Z"/><path class="cls-4" d="M759,465.4h-20.48v-14.83h14.04v2.34h-11.52v10.15h17.96v-12.71h-2.34v-2.34h4.86v9.36h5.22v2.34h-5.22v11.38h-2.52v-5.69ZM763.28,479.36h-21.35v-10.55h2.52v8.21h18.83v2.34Z"/><path class="cls-4" d="M769.26,472.78l-1.8-1.58,8.32-9.47v-8.35h-7.27v-2.34h17.17v2.34h-7.38v8.35l8.32,9.47-1.8,1.58-7.78-8.82-7.78,8.82ZM793.23,479.44h-2.52v-29.63h-2.34v-2.34h4.86v31.97Z"/><path class="cls-4" d="M842.84,468.64h-2.52v-10.73h-7.45v5.87h-14.04v-13.68h14.04v5.47h7.45v-5.94h-2.34v-2.16h4.86v21.17ZM821.46,479.54l-1.33-1.94,11.2-7.02v-3.56h2.52v3.6l11.27,7.09-1.33,1.94-11.23-7.06-11.09,6.95ZM821.35,452.44v9h9v-9h-9Z"/><path class="cls-4" d="M849.03,466.69l-1.62-1.69,8.28-7.96v-4.64h-7.24v-2.34h17.03v2.34h-7.27v4.86l8.32,7.74-1.62,1.69-8.1-7.49-7.78,7.49ZM853.1,479.11v-10.26h2.52v7.92h19.12v2.34h-21.64ZM870.56,449.45h-2.34v-2.16h4.86v23.69h-2.52v-21.53Z"/><path class="cls-4" d="M918.83,465.4h-20.48v-14.83h14.04v2.34h-11.52v10.15h17.96v-12.71h-2.34v-2.34h4.86v9.36h5.22v2.34h-5.22v11.38h-2.52v-5.69ZM923.12,479.36h-21.35v-10.55h2.52v8.21h18.83v2.34Z"/><path class="cls-4" d="M953.07,479.94h-2.52v-17.5h-7.52c-.14,2.9-.87,5.13-2.18,6.68-1.31,1.55-3.11,2.32-5.42,2.32-2.47,0-4.37-.87-5.71-2.61-1.33-1.74-2-4.23-2-7.47s.67-5.81,2-7.56c1.33-1.75,3.23-2.63,5.71-2.63,2.28.1,4.07.91,5.38,2.45,1.31,1.54,2.05,3.7,2.21,6.48h7.52v-9.94h-2.34v-2.34h4.86v32.11ZM930.25,461.36c0,2.47.45,4.38,1.35,5.72.9,1.34,2.18,2.02,3.83,2.02s2.89-.67,3.78-2.02c.89-1.34,1.33-3.25,1.33-5.72s-.44-4.46-1.33-5.81c-.89-1.36-2.15-2.03-3.78-2.03s-2.93.68-3.83,2.03c-.9,1.36-1.35,3.29-1.35,5.81Z"/><path class="cls-4" d="M977.87,479.36h-2.52v-17.35h-4.28c-.24,5.62-2.53,8.42-6.88,8.42-4.66,0-6.98-3.18-6.98-9.54s2.33-9.65,6.98-9.65c4.3.14,6.59,2.95,6.88,8.42h4.28v-10.04h-2.34v-2.34h4.86v32.08ZM959.73,460.9c0,4.8,1.49,7.2,4.46,7.2s4.39-2.4,4.39-7.2-1.46-7.31-4.39-7.31-4.46,2.44-4.46,7.31ZM984.17,479.36h-2.52v-32.08h2.52v32.08Z"/><path class="cls-4" d="M1013.73,456v-6.19h2.52v6.48l6.73,7.42-1.76,1.55-6.34-6.95-6.37,6.95-1.76-1.55,6.98-7.7ZM1013.55,473.24c0-1.9.89-3.35,2.68-4.37,1.79-1.02,4.35-1.53,7.69-1.53s5.9.51,7.69,1.53c1.79,1.02,2.68,2.48,2.68,4.37s-.89,3.35-2.68,4.37c-1.79,1.02-4.35,1.53-7.69,1.53s-5.9-.51-7.69-1.53c-1.79-1.02-2.68-2.48-2.68-4.37ZM1016,473.24c0,1.18.68,2.08,2.05,2.7,1.37.62,3.32.94,5.87.94s4.5-.31,5.87-.94c1.37-.62,2.05-1.52,2.05-2.7s-.68-2.08-2.05-2.7c-1.37-.62-3.32-.94-5.87-.94s-4.5.31-5.87.94c-1.37.62-2.05,1.52-2.05,2.7ZM1024.49,450.2h-2.34v-2.34h4.86v7.78h4.1v-7.78h2.52v18.58h-2.52v-8.46h-4.1v8.46h-2.52v-16.24Z"/><path class="cls-4" d="M1065.86,467.05h-28.48v-2.34h13v-5.18h2.52v5.18h12.96v2.34ZM1040.73,461.65l-1.12-2.05,10.76-6.23v-1.84h-9.65v-2.34h21.56v2.34h-9.4v1.84l10.55,6.12-1.12,2.05-10.69-6.23-10.91,6.34ZM1041.41,478.75v-9h2.52v6.66h18.68v2.34h-21.2Z"/><path class="cls-4" d="M1096.24,464.1h-28.94v-2.34h28.94v2.34ZM1090.12,469.18h-19.04v-2.34h21.56v7.52h-19.04v3.02h20.02v2.34h-22.54v-7.7h19.04v-2.84ZM1071.58,453.84c0-1.1.43-2.08,1.3-2.93.86-.85,2.07-1.52,3.62-2,1.55-.48,3.32-.72,5.31-.72s3.79.24,5.33.72c1.54.48,2.74,1.15,3.6,2,.86.85,1.3,1.83,1.3,2.93s-.43,2.09-1.3,2.95c-.86.86-2.06,1.54-3.6,2.02-1.54.48-3.31.72-5.33.72s-3.76-.24-5.31-.72c-1.55-.48-2.75-1.15-3.62-2.02-.86-.86-1.3-1.85-1.3-2.95ZM1074.1,453.84c0,.65.33,1.23.99,1.75.66.52,1.57.92,2.72,1.21,1.15.29,2.48.43,4,.43s2.85-.14,4.01-.43,2.07-.69,2.72-1.21c.65-.52.97-1.1.97-1.75s-.32-1.22-.97-1.71c-.65-.49-1.55-.88-2.72-1.15s-2.5-.41-4.01-.41-2.84.14-4,.41c-1.15.28-2.06.66-2.72,1.15-.66.49-.99,1.06-.99,1.71Z"/><path class="cls-4" d="M1132.75,463.06h-14.04v-12.96h14.04v12.96ZM1121.23,452.44v8.28h9v-8.28h-9ZM1142.47,478.93h-19.33v-13.03h18.61v2.34h-16.09v2.88h15.7v2.34h-15.7v3.13h16.81v2.34ZM1139.05,449.45h-2.34v-2.16h4.86v8.32h4.79v2.34h-4.79v6.34h-2.52v-14.83Z"/><path class="cls-4" d="M1149.09,462.91c1.06-.22,2.23-.64,3.53-1.26,1.3-.62,2.57-1.42,3.82-2.39,1.25-.97,2.35-2.09,3.31-3.35.96-1.26,1.62-2.65,1.98-4.16h-11.66v-2.52h14.08c0,2.26-.43,4.29-1.28,6.1-.85,1.81-1.97,3.38-3.37,4.7-1.39,1.32-2.92,2.41-4.57,3.26-1.66.85-3.28,1.46-4.86,1.82l-.97-2.2ZM1175.19,479.58h-22.21v-8.14h18.14v-3.1h-18.22v-2.34h20.74v7.78h-18.14v3.46h19.69v2.34ZM1171.12,450.35h-2.34v-2.34h4.86v16.27h-2.52v-13.93Z"/><path class="cls-4" d="M1213.1,472.2h-2.52v-6.59h-13.36v-2.34h28.48v2.34h-12.6v6.59ZM1200.57,460.72l-1.12-2.05,10.76-6.23v-4.32h2.52v4.32l10.55,6.12-1.12,2.05-10.69-6.23-10.91,6.34ZM1222.74,478.75h-21.49v-9h2.52v6.66h18.97v2.34Z"/><path class="cls-4" d="M1247.26,456.86c0-1.46.32-2.75.97-3.87.65-1.12,1.55-1.99,2.72-2.63,1.16-.64,2.49-.95,3.98-.95,1.99,0,3.66.56,5,1.67,1.34,1.12,2.15,2.6,2.41,4.45h7.38v-5.33h-2.34v-2.34h4.86v17.28h-2.52v-7.27h-7.31c-.22,2.02-1,3.64-2.36,4.86-1.36,1.22-3.07,1.84-5.13,1.84-1.49,0-2.81-.33-3.98-.99s-2.07-1.57-2.72-2.72c-.65-1.15-.97-2.48-.97-4ZM1249.78,456.9c0,1.56.47,2.84,1.42,3.83.95,1,2.17,1.49,3.65,1.49s2.71-.5,3.65-1.51c.95-1.01,1.42-2.29,1.42-3.85s-.46-2.71-1.39-3.67c-.92-.96-2.13-1.44-3.62-1.44s-2.75.48-3.71,1.44c-.96.96-1.44,2.2-1.44,3.71ZM1268.25,473.64l-5.44,5.94-.11-.11v.11h-12.35v-12.85h2.52v4.18h6.48v-4.18h2.52l.04,10.51,5-5.51v-5.29h2.52v5.22l6.88,6.44-1.69,1.48-6.37-5.94ZM1252.88,473.24v4h6.48v-4h-6.48Z"/><path class="cls-4" d="M1305.62,464.82h-28.48v-2.34h28.48v2.34ZM1280.13,459.85l-1.12-2.05,11.12-6.01v-4.28h2.52v4.28l10.91,5.9-1.12,2.05-11.05-5.98-11.27,6.08ZM1302.34,479.36h-21.89v-12.02h2.52v3.78h16.85v-3.78h2.52v12.02ZM1282.97,473.46v3.56h16.85v-3.56h-16.85Z"/><path class="cls-4" d="M1330.2,470.29h-20.84l.07-20.2h2.52l-.07,17.86h18.32v-18.32h-1.98v-2.16h4.5v31.97h-2.52v-9.14Z"/><path class="cls-4" d="M1359.22,470.69h-20.27l.07-17.68v-1.33h14.51v2.34h-11.99l-.07,14.33h17.75v-18.72h-2.34v-2.34h4.86v12.78h5.54v2.34h-5.54v16.81h-2.52v-8.53Z"/><path class="cls-4" d="M1367.71,475.3v-4h4v4h-4Z"/><path class="cls-4" d="M506.35,522.81h-13.36v-2.34h29.2v2.34h-13.32v11.12h-2.52v-11.12ZM507.61,517.19c-1.68,0-3.2-.33-4.57-.99-1.37-.66-2.45-1.54-3.26-2.65-.8-1.1-1.21-2.34-1.21-3.71s.4-2.6,1.21-3.69c.8-1.09,1.89-1.96,3.26-2.61,1.37-.65,2.89-.97,4.57-.97s3.23.32,4.59.97c1.36.65,2.44,1.52,3.24,2.61.8,1.09,1.21,2.32,1.21,3.69s-.4,2.6-1.21,3.71c-.8,1.1-1.88,1.99-3.24,2.65-1.36.66-2.89.99-4.59.99ZM501.09,509.85c0,.94.29,1.78.86,2.54.58.76,1.36,1.36,2.36,1.8,1,.44,2.09.67,3.29.67s2.33-.22,3.31-.67c.98-.44,1.76-1.04,2.34-1.8s.86-1.6.86-2.54-.29-1.78-.86-2.52c-.58-.74-1.36-1.33-2.34-1.76-.98-.43-2.09-.65-3.31-.65s-2.3.22-3.29.65c-1,.43-1.78,1.02-2.36,1.76-.58.74-.86,1.58-.86,2.52Z"/><path class="cls-4" d="M549.51,525.65h-2.52v-4.86h-21.71v-9.54h11.81v-4.46h-12.06v-2.34h14.58v9.14h-11.81v4.86h19.19v-13.93h-2.34v-2.34h4.86v23.47ZM550.85,533.39h-21.82v-9.5h2.52v7.16h19.3v2.34Z"/><path class="cls-4" d="M595.13,518.42h-20.48v-14.22h14.26v2.34h-11.74v9.54h17.96v-11.74h-2.34v-2.34h4.86v8.39h5.11v2.34h-5.11v8.03h-2.52v-2.34ZM577.27,527.92c0-1.85.94-3.31,2.83-4.39s4.43-1.62,7.65-1.62c3.22-.02,5.77.5,7.67,1.58,1.9,1.08,2.84,2.56,2.84,4.43s-.95,3.31-2.84,4.39c-1.9,1.08-4.45,1.62-7.67,1.62s-5.77-.54-7.65-1.62c-1.88-1.08-2.83-2.54-2.83-4.39ZM579.79,527.92c0,1.13.71,2.02,2.14,2.68s3.37.99,5.81.99,4.39-.33,5.83-.99c1.44-.66,2.16-1.55,2.16-2.68s-.72-2.02-2.16-2.68c-1.44-.66-3.38-.99-5.83-.99s-4.39.33-5.81.99c-1.43.66-2.14,1.55-2.14,2.68Z"/><path class="cls-4" d="M605.21,520.4l-1.62-1.69,7.92-8.32v-6.59h2.52v6.84l7.96,7.7-1.62,1.69-7.7-7.45-7.45,7.81ZM630.62,533.07h-21.46v-10.37h2.52v8.03h18.94v2.34ZM629.33,525.47h-2.52v-21.67h-2.34v-2.16h4.86v23.83Z"/><path class="cls-4" d="M634.76,515.83c0-2.09.32-3.89.97-5.42.65-1.52,1.58-2.7,2.79-3.53,1.21-.83,2.65-1.24,4.3-1.24,1.63.05,3.05.5,4.25,1.35,1.2.85,2.12,2.03,2.77,3.53.65,1.5.97,3.27.97,5.31s-.32,3.85-.97,5.36c-.65,1.51-1.57,2.68-2.77,3.49-1.2.82-2.62,1.22-4.25,1.22s-3.09-.41-4.3-1.22c-1.21-.82-2.14-1.98-2.79-3.49-.65-1.51-.97-3.3-.97-5.36ZM637.28,515.83c0,2.38.5,4.26,1.49,5.65,1,1.39,2.35,2.09,4.05,2.09s3.01-.7,4-2.09c.98-1.39,1.48-3.28,1.48-5.65s-.49-4.34-1.48-5.74c-.98-1.4-2.32-2.11-4-2.11s-3.05.7-4.05,2.11c-1,1.4-1.49,3.32-1.49,5.74ZM659.39,533.61h-2.52v-29.63h-2.34v-2.34h4.86v31.97Z"/><path class="cls-4" d="M685.2,520.87l-1.62-1.69,8.28-7.96v-4.64h-7.24v-2.34h17.03v2.34h-7.27v4.86l8.32,7.74-1.62,1.69-8.1-7.49-7.78,7.49ZM689.27,533.29v-10.26h2.52v7.92h19.12v2.34h-21.64ZM706.73,503.62h-2.34v-2.16h4.86v23.69h-2.52v-21.53Z"/><path class="cls-4" d="M718.42,507.65h-4.1v-2.34h18.54v2.34h-3.85v10.37l5.62,6.84-1.62,1.62-5.18-6.23-4.07,5.47-4.14-5.51-5.22,6.26-1.55-1.62,5.58-6.88v-10.33ZM720.94,507.65v10.48l2.81,3.71,2.74-3.67v-10.51h-5.54ZM736.21,504.27h-2.34v-2.16h4.86v12.28h4.86v2.34h-4.86v16.85h-2.52v-29.3Z"/><path class="cls-4" d="M779.01,516.91h-14.04v-13.21h14.04v13.21ZM767.49,506.03v8.53h9v-8.53h-9ZM789.31,533.29h-21.02v-8.32h16.99v-3.02h-16.99v-2.23h19.51v7.6h-16.99v3.64h18.5v2.34ZM787.87,518.17h-2.52v-14.36h-2.34v-2.34h4.86v7.27h4.43v2.34h-4.43v7.09Z"/><path class="cls-4" d="M811.88,509.85h-18.32v-2.34h7.92v-5.29h2.52v5.29h7.88v2.34ZM802.74,526.48c-1.39,0-2.65-.31-3.78-.94-1.13-.62-2.02-1.46-2.68-2.5-.66-1.04-.99-2.21-.99-3.51s.33-2.5.99-3.55,1.55-1.88,2.68-2.5c1.13-.62,2.39-.94,3.78-.94s2.61.31,3.73.94c1.12.62,2,1.46,2.65,2.5.65,1.04.97,2.23.97,3.55s-.32,2.47-.97,3.51c-.65,1.04-1.53,1.88-2.65,2.5-1.12.62-2.36.94-3.73.94ZM797.8,519.61c0,.84.22,1.61.65,2.3.43.7,1.03,1.24,1.78,1.64s1.59.59,2.5.59,1.73-.2,2.45-.59,1.3-.94,1.73-1.62c.43-.68.65-1.43.65-2.25,0-.89-.22-1.69-.65-2.41-.43-.72-1.01-1.3-1.73-1.73-.72-.43-1.54-.65-2.45-.65s-1.75.21-2.5.63c-.76.42-1.35.98-1.78,1.69-.43.71-.65,1.51-.65,2.39ZM814.72,503.98h-2.34v-2.34h4.86v13h6.48v2.34h-6.48v16.63h-2.52v-29.63Z"/><path class="cls-4" d="M852.06,529.69h-27.9v-2.34h11.12v-11.41h2.52v11.41h7.96v-20.34h-17.93v-2.34h20.45v22.68h3.78v2.34Z"/><path class="cls-4" d="M863.07,508.16h-7.45v-2.34h17.39v2.34h-7.42v7.7l8.57,10.44-1.8,1.48-7.99-9.72-7.7,9.72-1.84-1.44,8.24-10.4v-7.78ZM877.54,504.09h-2.34v-2.34h4.86v12.92h5.87v2.34h-5.87v16.7h-2.52v-29.63Z"/><path class="cls-4" d="M924.92,509.85h-18.32v-2.34h7.92v-5.29h2.52v5.29h7.88v2.34ZM915.77,526.48c-1.39,0-2.65-.31-3.78-.94-1.13-.62-2.02-1.46-2.68-2.5-.66-1.04-.99-2.21-.99-3.51s.33-2.5.99-3.55,1.55-1.88,2.68-2.5c1.13-.62,2.39-.94,3.78-.94s2.61.31,3.73.94c1.12.62,2,1.46,2.65,2.5.65,1.04.97,2.23.97,3.55s-.32,2.47-.97,3.51c-.65,1.04-1.53,1.88-2.65,2.5-1.12.62-2.36.94-3.73.94ZM910.84,519.61c0,.84.22,1.61.65,2.3.43.7,1.03,1.24,1.78,1.64s1.59.59,2.5.59,1.73-.2,2.45-.59,1.3-.94,1.73-1.62c.43-.68.65-1.43.65-2.25,0-.89-.22-1.69-.65-2.41-.43-.72-1.01-1.3-1.73-1.73-.72-.43-1.54-.65-2.45-.65s-1.75.21-2.5.63c-.76.42-1.35.98-1.78,1.69-.43.71-.65,1.51-.65,2.39ZM927.76,503.98h-2.34v-2.34h4.86v13h6.48v2.34h-6.48v16.63h-2.52v-29.63Z"/><path class="cls-4" d="M965.46,520.25h-28.73v-2.34h28.73v2.34ZM962.5,532.93h-22.14v-9.32h2.52v6.98h19.62v2.34ZM961.53,513.63h-20.3v-11.02h2.52v8.68h17.78v2.34Z"/><path class="cls-4" d="M999.62,511.9c-1.01,1.34-2.18,2.51-3.53,3.49-1.34.98-2.72,1.78-4.14,2.38-1.42.6-2.75,1.04-4,1.33l-.97-2.2c1.32-.29,2.65-.75,4-1.39,1.34-.64,2.61-1.43,3.8-2.38,1.19-.95,2.21-2.02,3.08-3.22s1.46-2.5,1.8-3.89h-11.2v-2.45h13.9c0,1.13-.12,2.19-.36,3.19-.24,1-.56,1.93-.97,2.79h9.14v-5.04h-2.34v-2.34h4.86v16.63h-2.52v-6.91h-10.55ZM1010.24,522.52h-17.93v-2.34h20.38v7.78h-17.86v3.46h19.04v2.34h-21.49v-8.14h17.86v-3.1Z"/><path class="cls-4" d="M1044.08,507.65h-6.84v-2.34h6.84v-3.85h2.52v3.85h6.84v2.34h-6.84v3.13l7.7,6.8-1.62,1.69-7.38-6.52-7.78,6.84-1.62-1.69,8.17-7.16v-3.1ZM1040.66,533.75l-1.22-1.98,10.44-6.08v-1.48h-9.22v-2.34h20.56v2.34h-8.82v1.51l10.37,6.05-1.22,1.98-10.44-6.08-10.44,6.08ZM1058.08,504.13h-2.34v-2.34h4.86v7.74h4.75v2.34h-4.75v8.24h-2.52v-15.98Z"/><path class="cls-4" d="M1067.01,515.25c0-3.29.67-5.81,2-7.56s3.23-2.63,5.71-2.63c2.45.1,4.33,1.03,5.65,2.79,1.32,1.76,1.98,4.23,1.98,7.4s-.66,5.73-1.98,7.47c-1.32,1.74-3.2,2.61-5.65,2.61s-4.37-.87-5.71-2.61c-1.33-1.74-2-4.23-2-7.47ZM1069.53,515.25c0,2.47.45,4.38,1.35,5.72.9,1.34,2.18,2.02,3.83,2.02s2.89-.67,3.78-2.02c.89-1.34,1.33-3.25,1.33-5.72s-.44-4.46-1.33-5.81c-.89-1.36-2.15-2.03-3.78-2.03s-2.93.68-3.83,2.03c-.9,1.36-1.35,3.29-1.35,5.81ZM1090.55,534.11h-2.52v-29.77h-2.34v-2.34h4.86v12.89h5.8v2.34h-5.8v16.88Z"/><path class="cls-4" d="M1114.17,517.12h-16.02v-12.6h2.52v10.26h13.5v-10.19h-2.34v-2.34h4.86v8.17h4.14v-8.17h2.52v17.35h-2.52v-6.84h-4.14v6.84h-2.52v-2.48ZM1102.72,533.83v-12.64h2.52v3.71h15.73v-3.71h2.52v12.64h-20.77ZM1105.24,527.24v4.25h15.73v-4.25h-15.73Z"/><path class="cls-4" d="M1149.81,524.47h-20.84l.07-20.2h2.52l-.07,17.86h18.32v-18.32h-1.98v-2.16h4.5v31.97h-2.52v-9.14Z"/><path class="cls-4" d="M1178.83,524.86h-20.27l.07-17.68v-1.33h14.51v2.34h-11.99l-.07,14.33h17.75v-18.72h-2.34v-2.34h4.86v12.78h5.54v2.34h-5.54v16.81h-2.52v-8.53Z"/><path class="cls-4" d="M1187.32,529.47v-4h4v4h-4Z"/><path class="cls-4" d="M522.26,584.15h-29.23v-2.34h13.32v-7.74h2.52v7.74h13.39v2.34ZM496.52,576.23l-1.26-1.98,11.09-7.63v-5.08h-9.72v-2.34h21.89v2.34h-9.65v5.08l11.09,7.63-1.26,1.98-11.09-7.63-11.09,7.63Z"/><path class="cls-4" d="M525.39,574.25l-1.66-1.69,8.24-7.7v-4.72h-7.09v-2.34h16.67v2.34h-7.06v4.68l8.46,7.02-1.58,1.69-8.1-6.66-7.88,7.38ZM546.89,579.11h-18.76v-2.34h21.28v11.34h-2.52v-9ZM546.89,558.12h-2.34v-2.34h4.86v19.15h-2.52v-16.81Z"/><path class="cls-4" d="M576.95,580.66h-23v-2.34h22.97l-.04-20.12h-2.38v-2.34h4.97v32.26h-2.52v-7.45ZM556.35,566.18c0-1.32.35-2.52,1.06-3.6.71-1.08,1.66-1.95,2.84-2.61,1.19-.66,2.48-.99,3.87-.99,1.39.05,2.67.41,3.83,1.1,1.16.68,2.1,1.56,2.81,2.63.71,1.07,1.06,2.23,1.06,3.47s-.35,2.45-1.06,3.53c-.71,1.08-1.64,1.94-2.81,2.59-1.16.65-2.44.97-3.83.97s-2.68-.32-3.87-.97c-1.19-.65-2.14-1.51-2.84-2.59s-1.06-2.26-1.06-3.53ZM558.87,566.18c0,.84.24,1.62.72,2.34s1.12,1.3,1.93,1.73c.8.43,1.67.65,2.61.65s1.8-.22,2.59-.65c.79-.43,1.42-1.01,1.89-1.73.47-.72.7-1.5.7-2.34,0-.89-.23-1.7-.7-2.43-.47-.73-1.1-1.32-1.89-1.76-.79-.44-1.66-.67-2.59-.67s-1.81.22-2.61.67c-.8.44-1.45,1.03-1.93,1.76s-.72,1.54-.72,2.43Z"/><path class="cls-4" d="M604.92,574.28l-1.76-1.55,6.98-8.06v-6.59h2.52v6.91l6.73,7.74-1.76,1.55-6.34-7.31-6.37,7.31ZM627.42,579.94h-18.61v-2.34h21.13v10.51h-2.52v-8.17ZM620.87,559.16h-2.34v-2.34h4.86v7.81h4.21v-7.81h2.52v18.43h-2.52v-8.28h-4.21v8.28h-2.52v-16.09Z"/><path class="cls-4" d="M633.79,569.64c1.2-.91,2.23-1.79,3.08-2.63s1.55-1.8,2.11-2.88c.55-1.08.96-2.4,1.22-3.96l-5.29.04v-2.34h16.7c-.07,2.38-.34,4.43-.81,6.16-.47,1.73-1.21,3.29-2.21,4.68-1.01,1.39-2.38,2.77-4.1,4.14l-1.69-1.62c1.32-1.06,2.39-2.11,3.22-3.15s1.48-2.2,1.96-3.47c.48-1.27.82-2.75,1.01-4.43h-6.23c-.24,1.44-.55,2.68-.94,3.71s-.86,1.96-1.42,2.77c-.56.82-1.25,1.6-2.07,2.34-.82.74-1.79,1.54-2.92,2.38l-1.62-1.73ZM660.14,587.46h-21.53v-7.74h17.14v-2.88h-17.5v-2.34h20.02v7.56h-17.14v3.06h19.01v2.34ZM655.93,557.98h-2.34v-2.34h4.86v7.49h4.75v2.34h-4.75v7.38h-2.52v-14.87Z"/><path class="cls-4" d="M692.65,572.45h-28.95v-2.34h28.95v2.34ZM686.53,577.52h-19.04v-2.34h21.56v7.52h-19.04v3.02h20.02v2.34h-22.54v-7.7h19.04v-2.84ZM667.99,562.19c0-1.1.43-2.08,1.29-2.93.87-.85,2.07-1.52,3.62-2,1.55-.48,3.32-.72,5.31-.72s3.79.24,5.33.72,2.74,1.15,3.6,2c.87.85,1.3,1.83,1.3,2.93s-.43,2.09-1.3,2.95c-.86.86-2.06,1.54-3.6,2.02-1.54.48-3.31.72-5.33.72s-3.76-.24-5.31-.72c-1.55-.48-2.75-1.15-3.62-2.02-.86-.86-1.29-1.85-1.29-2.95ZM670.51,562.19c0,.65.33,1.23.99,1.75.66.52,1.57.92,2.72,1.21,1.15.29,2.48.43,4,.43s2.85-.14,4.01-.43,2.07-.69,2.72-1.21c.65-.52.97-1.1.97-1.75s-.32-1.22-.97-1.71c-.65-.49-1.55-.88-2.72-1.15-1.16-.28-2.5-.41-4.01-.41s-2.84.14-4,.41c-1.15.28-2.06.66-2.72,1.15-.66.49-.99,1.06-.99,1.71Z"/><path class="cls-4" d="M721.52,561.83h-6.84v-2.34h6.84v-3.85h2.52v3.85h6.84v2.34h-6.84v3.13l7.7,6.8-1.62,1.69-7.38-6.52-7.78,6.84-1.62-1.69,8.17-7.16v-3.1ZM718.1,587.93l-1.22-1.98,10.44-6.08v-1.48h-9.22v-2.34h20.56v2.34h-8.82v1.51l10.37,6.05-1.22,1.98-10.44-6.08-10.44,6.08ZM735.52,558.3h-2.34v-2.34h4.86v7.74h4.75v2.34h-4.75v8.24h-2.52v-15.98Z"/><path class="cls-4" d="M744.45,569.42c0-3.29.67-5.81,2-7.56,1.33-1.75,3.23-2.63,5.71-2.63,2.45.1,4.33,1.03,5.65,2.79,1.32,1.76,1.98,4.23,1.98,7.4s-.66,5.73-1.98,7.47-3.2,2.61-5.65,2.61-4.37-.87-5.71-2.61-2-4.23-2-7.47ZM746.97,569.42c0,2.47.45,4.38,1.35,5.72.9,1.34,2.18,2.02,3.83,2.02s2.89-.67,3.78-2.02c.89-1.34,1.33-3.25,1.33-5.72s-.44-4.46-1.33-5.81c-.89-1.36-2.15-2.03-3.78-2.03s-2.93.68-3.83,2.03c-.9,1.36-1.35,3.29-1.35,5.81ZM768,588.29h-2.52v-29.77h-2.34v-2.34h4.86v12.89h5.8v2.34h-5.8v16.88Z"/><path class="cls-4" d="M793.56,587.57h-2.52v-7.85h-15.62v-20.16h2.52v17.82h13.1v-19.26h-2.34v-2.34h4.86v13.14h5.15v-13.14h2.52v31.79h-2.52v-16.31h-5.15v16.31Z"/><path class="cls-4" d="M832.62,583.86h-27.9v-2.34h11.12v-11.41h2.52v11.41h7.96v-20.34h-17.93v-2.34h20.45v22.68h3.78v2.34Z"/><path class="cls-4" d="M877.18,580.66h-23v-2.34h22.97l-.04-20.12h-2.38v-2.34h4.97v32.26h-2.52v-7.45ZM856.59,566.18c0-1.32.35-2.52,1.06-3.6.71-1.08,1.66-1.95,2.84-2.61,1.19-.66,2.48-.99,3.87-.99,1.39.05,2.67.41,3.83,1.1,1.16.68,2.1,1.56,2.81,2.63.71,1.07,1.06,2.23,1.06,3.47s-.35,2.45-1.06,3.53-1.64,1.94-2.81,2.59c-1.16.65-2.44.97-3.83.97s-2.68-.32-3.87-.97c-1.19-.65-2.14-1.51-2.84-2.59-.71-1.08-1.06-2.26-1.06-3.53ZM859.11,566.18c0,.84.24,1.62.72,2.34.48.72,1.12,1.3,1.93,1.73.8.43,1.67.65,2.61.65s1.8-.22,2.59-.65c.79-.43,1.42-1.01,1.89-1.73.47-.72.7-1.5.7-2.34,0-.89-.23-1.7-.7-2.43-.47-.73-1.1-1.32-1.89-1.76-.79-.44-1.66-.67-2.59-.67s-1.81.22-2.61.67c-.8.44-1.45,1.03-1.93,1.76-.48.73-.72,1.54-.72,2.43Z"/><path class="cls-4" d="M900.01,578.78h-14.11v-19.33h14.11v19.33ZM888.42,561.79v14.65h9.07v-14.65h-9.07ZM909.58,587.78h-2.52v-29.63h-2.34v-2.34h4.86v31.97Z"/><path class="cls-4" d="M943.42,573.53h-28.84v-2.34h28.84v2.34ZM939.72,587.42h-21.2v-6.98h18.36v-2.16h-18.36v-2.34h20.88v6.66h-18.36v2.48h18.68v2.34ZM936.91,559.52h-18.36v-2.34h20.88v6.73h-18.36v2.66h18.68v2.34h-21.2v-7.16h18.36v-2.23Z"/><path class="cls-4" d="M964.52,579.94l-1.76-1.73,7.34-9.58v-9.54h2.52v9.5l7.02,9.61-1.8,1.73-6.48-8.42-6.84,8.42ZM990.91,587.71h-2.52v-16.6h-4.79v16.6h-2.52v-29.74h-2.34v-2.34h4.86v13.14h4.79v-13.14h2.52v32.08Z"/><path class="cls-4" d="M1016.97,559.24h-18.68v-2.34h21.2v7.6h-18.68v2.92h19.33v2.34h-10.22v3.1h13.07v2.34h-28.44v-2.34h12.85v-3.1h-9.11v-7.6h18.68v-2.92ZM1019.71,588.07h-21.89v-11.3h2.52v3.17h16.85v-3.17h2.52v11.3ZM1000.34,582.28v3.46h16.85v-3.46h-16.85Z"/><path class="cls-4" d="M1035.62,562.26h-9.9v-2.34h12.42c.14,3.26-.32,6.29-1.4,9.07h5.47v-11.02h-2.34v-2.34h4.86v32.08h-2.52v-16.38h-6.55l-.32.58c-.65,1.1-1.49,2.25-2.54,3.44-1.04,1.19-2.16,2.29-3.35,3.29-1.19,1.01-2.35,1.82-3.47,2.45l-1.37-2.09c1.06-.62,2.14-1.4,3.24-2.32,1.1-.92,2.12-1.91,3.06-2.95.94-1.04,1.68-2.05,2.23-3.01,1.46-2.52,2.29-5.34,2.48-8.46ZM1051.46,587.71h-2.52v-32.08h2.52v32.08Z"/><path class="cls-4" d="M1089.83,588.11h-2.52v-10.48h-13.28v-2.34h29.2v2.34h-13.39v10.48ZM1098.83,571.4h-20.45v-13.93h2.52v4.46h15.41v-4.46h2.52v13.93ZM1080.91,564.28v4.79h15.41v-4.79h-15.41Z"/><path class="cls-4" d="M1130.51,588.29h-2.52v-12.96h-8.39c-.67,1.15-1.58,2.05-2.72,2.68-1.14.64-2.45.95-3.94.95-1.66,0-3.09-.38-4.3-1.15-1.21-.77-2.15-1.85-2.81-3.26-.66-1.4-.99-3.07-.99-4.99,0-2.93.73-5.24,2.2-6.93,1.46-1.69,3.43-2.54,5.9-2.54,1.66.1,3.09.55,4.3,1.35,1.21.8,2.13,1.9,2.75,3.29h7.99v-6.23h-2.34v-2.34h4.86v32.11ZM1107.37,569.57c0,2.16.5,3.88,1.51,5.15s2.36,1.91,4.07,1.91,3.05-.64,4.03-1.91,1.48-2.99,1.48-5.15-.49-3.95-1.48-5.22c-.98-1.27-2.33-1.91-4.03-1.91s-3.06.64-4.07,1.91c-1.01,1.27-1.51,3.01-1.51,5.22ZM1120.97,569.57c0,1.22-.14,2.36-.43,3.42h7.45v-5.9h-7.24c.14.79.22,1.62.22,2.48Z"/><path class="cls-4" d="M1153.16,561.9h-18.22v-2.34h8.28v-3.67h2.52v3.67h7.42v2.34ZM1136.49,568.96c0-1.15.32-2.16.97-3.02s1.55-1.54,2.7-2.03c1.15-.49,2.47-.74,3.96-.74s2.8.25,3.92.74c1.13.49,2.01,1.17,2.65,2.03.63.86.95,1.87.95,3.02s-.32,2.12-.95,2.99c-.64.86-1.52,1.54-2.65,2.03-1.13.49-2.44.74-3.92.74s-2.81-.25-3.96-.74c-1.15-.49-2.05-1.17-2.7-2.03s-.97-1.86-.97-2.99ZM1139.01,568.99c0,.98.48,1.79,1.44,2.43.96.64,2.18.95,3.67.95s2.69-.31,3.62-.94c.92-.62,1.39-1.42,1.39-2.38,0-1.06-.46-1.91-1.39-2.57-.92-.66-2.13-.99-3.62-.99s-2.71.32-3.67.97c-.96.65-1.44,1.49-1.44,2.52ZM1159.24,587.64h-19.76v-11.27h2.52v3.46h14.72v-3.46h2.52v11.27ZM1142,582.17v3.13h14.72v-3.13h-14.72ZM1156.72,558.7h-2.34v-2.34h4.86v7.31h5.08v2.34h-5.08v8.78h-2.52v-16.09Z"/><path class="cls-4" d="M1187.97,578.64h-20.84l.07-20.2h2.52l-.07,17.86h18.32v-18.32h-1.98v-2.16h4.5v31.97h-2.52v-9.14Z"/><path class="cls-4" d="M1216.98,579.04h-20.27l.07-17.68v-1.33h14.51v2.34h-11.99l-.07,14.33h17.75v-18.72h-2.34v-2.34h4.86v12.78h5.54v2.34h-5.54v16.81h-2.52v-8.53Z"/><path class="cls-4" d="M1225.48,583.64v-4h4v4h-4Z"/><path class="cls-4" d="M492.96,636.02h13.39v-7.02c-1.7-.17-3.25-.63-4.63-1.39-1.38-.76-2.47-1.73-3.26-2.93s-1.19-2.52-1.19-3.96c0-1.56.46-2.98,1.37-4.25s2.15-2.28,3.71-3.02c1.56-.74,3.3-1.12,5.22-1.12s3.66.37,5.22,1.12c1.56.74,2.79,1.75,3.71,3.02.91,1.27,1.37,2.69,1.37,4.25,0,1.44-.4,2.75-1.19,3.94-.79,1.19-1.87,2.17-3.22,2.93-1.36.77-2.89,1.24-4.59,1.4v7.02h13.28v2.34h-29.2v-2.34ZM499.8,620.72c0,1.13.35,2.15,1.04,3.06.7.91,1.63,1.63,2.81,2.16,1.18.53,2.48.79,3.92.79s2.78-.26,3.94-.79c1.16-.53,2.09-1.25,2.79-2.16.7-.91,1.04-1.93,1.04-3.06s-.35-2.15-1.04-3.06c-.7-.91-1.63-1.64-2.79-2.18s-2.48-.81-3.94-.81-2.75.27-3.92.81-2.11,1.27-2.81,2.18c-.7.91-1.04,1.93-1.04,3.06Z"/><path class="cls-4" d="M539.51,618.16h-16.24v-2.34h6.8v-4.97h2.52v4.97h6.91v2.34ZM531.26,633.79c-1.3,0-2.47-.29-3.51-.88-1.04-.59-1.87-1.38-2.48-2.38-.61-1-.92-2.11-.92-3.33s.31-2.37.92-3.37c.61-1,1.44-1.79,2.48-2.38,1.04-.59,2.21-.88,3.51-.88s2.42.29,3.46.88c1.03.59,1.85,1.38,2.45,2.38.6,1,.9,2.12.9,3.37s-.3,2.33-.9,3.33c-.6,1-1.42,1.79-2.45,2.38-1.03.59-2.18.88-3.46.88ZM526.87,627.27c0,.77.2,1.47.59,2.11.4.64.92,1.14,1.58,1.51s1.4.56,2.21.56c1.2,0,2.21-.4,3.04-1.19.83-.79,1.24-1.76,1.24-2.92,0-1.25-.41-2.3-1.24-3.15-.83-.85-1.84-1.28-3.04-1.28-.82,0-1.55.19-2.21.58-.66.38-1.19.91-1.58,1.57-.4.66-.59,1.4-.59,2.21ZM540.91,612.33h-1.98v-2.34h4.5v13.46h4.21v-13.46h2.52v31.9h-2.52v-16.09h-4.21v16.09h-2.52v-29.56Z"/><path class="cls-4" d="M569.89,613.45c.12,3.24-.39,6.28-1.53,9.13-1.14,2.84-2.81,5.39-5,7.63-2.2,2.25-4.83,4.11-7.9,5.6l-1.08-2.27c2.59-1.25,4.82-2.79,6.68-4.63s3.32-3.87,4.39-6.1c1.07-2.23,1.69-4.57,1.85-7.02h-11.77v-2.34h14.36ZM575.29,612.33h-2.34v-2.34h4.86v13.5h5.47v2.34h-5.47v16.45h-2.52v-29.95Z"/><path class="cls-4" d="M603.91,619.39c0-1.46.32-2.75.97-3.87.65-1.12,1.55-1.99,2.72-2.63s2.49-.95,3.98-.95c1.99,0,3.66.56,5,1.67,1.34,1.12,2.15,2.6,2.41,4.45h7.38v-5.33h-2.34v-2.34h4.86v17.28h-2.52v-7.27h-7.31c-.22,2.02-1,3.64-2.36,4.86-1.36,1.22-3.07,1.84-5.13,1.84-1.49,0-2.81-.33-3.98-.99s-2.07-1.57-2.72-2.72c-.65-1.15-.97-2.48-.97-4ZM606.43,619.42c0,1.56.47,2.84,1.42,3.83s2.17,1.49,3.65,1.49,2.71-.5,3.65-1.51c.95-1.01,1.42-2.29,1.42-3.85s-.46-2.71-1.39-3.67-2.13-1.44-3.62-1.44-2.75.48-3.71,1.44c-.96.96-1.44,2.2-1.44,3.71ZM624.9,636.16l-5.44,5.94-.11-.11v.11h-12.35v-12.85h2.52v4.18h6.48v-4.18h2.52l.04,10.51,5-5.51v-5.29h2.52v5.22l6.88,6.44-1.69,1.48-6.37-5.94ZM609.53,635.77v4h6.48v-4h-6.48Z"/><path class="cls-4" d="M662.34,628.6h-28.73v-2.34h28.73v2.34ZM659.39,641.28h-22.14v-9.32h2.52v6.98h19.62v2.34ZM658.41,621.98h-20.3v-11.02h2.52v8.68h17.78v2.34Z"/><path class="cls-4" d="M685.23,628.42l-1.66-1.69,8.24-7.7v-4.72h-7.09v-2.34h16.67v2.34h-7.06v4.68l8.46,7.02-1.58,1.69-8.1-6.66-7.88,7.38ZM706.73,633.28h-18.76v-2.34h21.28v11.34h-2.52v-9ZM706.73,620.65h-6.62v-2.34h6.62v-6.01h-2.34v-2.34h4.86v19.15h-2.52v-8.46Z"/><path class="cls-4" d="M715.36,626.52l-1.62-1.69,7.88-6.91v-3.96h-6.77v-2.34h16.34v2.34h-7.06v4.07l7.99,6.8-1.62,1.69-7.7-6.52-7.45,6.52ZM736.86,630.73h-17.17v-2.34h19.69v7.56h-17.14v3.46h18.72v2.34h-21.24v-8.14h17.14v-2.88ZM736.86,619.24h-6.52v-2.34h6.52v-4.72h-2.34v-2.16h4.86v16.38h-2.52v-7.16Z"/><path class="cls-4" d="M762.06,616.54h-17.86v-2.34h7.49v-3.67h2.52v3.67h7.85v2.34ZM745.79,624.36c0-1.2.32-2.26.95-3.19.63-.92,1.52-1.65,2.65-2.18,1.13-.53,2.41-.79,3.85-.79s2.71.26,3.82.79c1.1.53,1.97,1.25,2.59,2.18.62.92.94,1.99.94,3.19s-.31,2.27-.94,3.2c-.62.94-1.49,1.67-2.59,2.2-1.1.53-2.38.79-3.82.79s-2.72-.26-3.85-.79c-1.13-.53-2.01-1.26-2.65-2.2-.64-.94-.95-2-.95-3.2ZM748.3,624.39c0,1.1.46,2.02,1.39,2.74.92.72,2.11,1.08,3.55,1.08s2.57-.35,3.47-1.04c.9-.7,1.35-1.6,1.35-2.7s-.45-2.09-1.35-2.83-2.06-1.1-3.47-1.1-2.62.36-3.55,1.08-1.39,1.64-1.39,2.77ZM748.88,641.82v-9h2.52v6.66h19.44v2.34h-21.96ZM765.87,612.33h-2.34v-2.34h4.86v11.27h5.18v2.34h-5.18v11.2h-2.52v-22.46Z"/><path class="cls-4" d="M822.68,638.36h-29.34v-2.34h8.89l-.04-8.03h-5.47v-2.34h5.44l-.04-10.87h-5.22v-2.34h21.96v2.34h-5.36l.04,10.87h5.51v2.34h-5.47l.04,8.03h9.07v2.34ZM811.09,614.78h-6.55l.04,10.87h6.55l-.04-10.87ZM811.16,627.99h-6.55l.04,8.03h6.55l-.04-8.03Z"/><path class="cls-4" d="M841.62,616.54h-17.86v-2.34h7.49v-3.67h2.52v3.67h7.85v2.34ZM825.45,624.39c0-1.18.32-2.21.95-3.11.63-.9,1.51-1.61,2.63-2.12,1.12-.52,2.41-.77,3.87-.77.98,0,1.9.13,2.75.38.85.25,1.59.61,2.21,1.06h9.5v-7.49h-2.34v-2.34h4.86v24.19h-2.52v-5.44h-9.22c-.65.53-1.42.94-2.32,1.22s-1.88.43-2.93.43c-1.46,0-2.75-.26-3.87-.77-1.12-.52-1.99-1.22-2.63-2.12-.64-.9-.95-1.94-.95-3.11ZM827.97,624.43c0,1.06.46,1.93,1.39,2.61.92.68,2.11,1.03,3.55,1.03s2.57-.34,3.47-1.01c.9-.67,1.35-1.52,1.35-2.56,0-1.13-.45-2.04-1.35-2.74-.9-.7-2.06-1.04-3.47-1.04s-2.62.35-3.55,1.04-1.39,1.58-1.39,2.66ZM829.34,641.42v-8.6h2.52v6.26h18.68v2.34h-21.2ZM839.78,622.16c.31.65.47,1.39.47,2.23,0,.77-.12,1.44-.36,2.02h7.49v-4.25h-7.6Z"/><path class="cls-4" d="M882.73,626.62h-28.94v-2.34h28.94v2.34ZM876.61,631.7h-19.04v-2.34h21.56v7.52h-19.04v3.02h20.02v2.34h-22.54v-7.7h19.04v-2.84ZM858.07,616.36c0-1.1.43-2.08,1.3-2.93s2.07-1.52,3.62-2c1.55-.48,3.32-.72,5.31-.72s3.79.24,5.33.72c1.54.48,2.74,1.15,3.6,2,.86.85,1.3,1.83,1.3,2.93s-.43,2.09-1.3,2.95c-.86.86-2.06,1.54-3.6,2.02-1.54.48-3.31.72-5.33.72s-3.76-.24-5.31-.72c-1.55-.48-2.75-1.15-3.62-2.02s-1.3-1.85-1.3-2.95ZM860.59,616.36c0,.65.33,1.23.99,1.75.66.52,1.57.92,2.72,1.21,1.15.29,2.48.43,4,.43s2.85-.14,4.01-.43,2.07-.69,2.72-1.21c.65-.52.97-1.1.97-1.75s-.32-1.22-.97-1.71c-.65-.49-1.55-.88-2.72-1.15-1.16-.28-2.5-.41-4.01-.41s-2.84.14-4,.41c-1.15.28-2.06.66-2.72,1.15-.66.49-.99,1.06-.99,1.71Z"/><path class="cls-4" d="M904.97,635.23l-1.84-1.44,8.35-10.55v-10.22h2.52v10.22l8.39,10.55-1.87,1.44-7.78-9.79-7.78,9.79ZM927.83,641.96h-2.52v-29.81h-2.34v-2.16h4.86v12.24h5.33v2.34h-5.33v17.39Z"/><path class="cls-4" d="M962.47,628.06h-28.84v-2.34h7.52v-4.39c-1.97-1.03-2.95-2.56-2.95-4.57,0-1.87.85-3.31,2.56-4.32s4.14-1.51,7.31-1.51,5.6.5,7.31,1.51,2.56,2.45,2.56,4.32-.86,3.37-2.59,4.36v4.61h7.13v2.34ZM937.3,636.67c0-3.91,3.59-5.87,10.76-5.87s10.76,1.96,10.76,5.87-3.59,5.98-10.76,5.98-10.76-1.99-10.76-5.98ZM939.82,636.67c0,2.42,2.75,3.64,8.24,3.64s8.24-1.21,8.24-3.64-2.75-3.53-8.24-3.53-8.24,1.18-8.24,3.53ZM940.72,616.79c0,1.13.64,2,1.91,2.61,1.27.61,3.08.92,5.44.92s4.16-.31,5.44-.92c1.27-.61,1.91-1.48,1.91-2.61s-.64-1.99-1.91-2.59c-1.27-.6-3.08-.9-5.44-.9s-4.17.3-5.44.9c-1.27.6-1.91,1.46-1.91,2.59ZM943.67,622.2v3.53h9.14v-3.6c-.67.17-1.4.29-2.2.38-.79.08-1.64.13-2.56.13-1.66,0-3.12-.14-4.39-.43Z"/><path class="cls-4" d="M982.52,616.08h-18.22v-2.34h8.28v-3.67h2.52v3.67h7.42v2.34ZM965.85,623.13c0-1.15.32-2.16.97-3.02s1.55-1.54,2.7-2.03c1.15-.49,2.47-.74,3.96-.74s2.8.25,3.92.74c1.13.49,2.01,1.17,2.65,2.03.63.86.95,1.87.95,3.02s-.32,2.12-.95,2.99c-.64.86-1.52,1.54-2.65,2.03-1.13.49-2.44.74-3.92.74s-2.81-.25-3.96-.74c-1.15-.49-2.05-1.17-2.7-2.03s-.97-1.86-.97-2.99ZM968.37,623.17c0,.98.48,1.79,1.44,2.43.96.64,2.18.95,3.67.95s2.69-.31,3.62-.94c.92-.62,1.39-1.42,1.39-2.38,0-1.06-.46-1.91-1.39-2.57-.92-.66-2.13-.99-3.62-.99s-2.71.32-3.67.97c-.96.65-1.44,1.49-1.44,2.52ZM988.6,641.82h-19.76v-11.27h2.52v3.46h14.72v-3.46h2.52v11.27ZM971.36,636.34v3.13h14.72v-3.13h-14.72ZM986.08,612.87h-2.34v-2.34h4.86v7.31h5.08v2.34h-5.08v8.78h-2.52v-16.09Z"/><path class="cls-4" d="M1017.33,632.82h-20.84l.07-20.2h2.52l-.07,17.86h18.32v-18.32h-1.98v-2.16h4.5v31.97h-2.52v-9.14Z"/><path class="cls-4" d="M1046.35,633.21h-20.27l.07-17.68v-1.33h14.51v2.34h-11.99l-.07,14.33h17.75v-18.72h-2.34v-2.34h4.86v12.78h5.54v2.34h-5.54v16.81h-2.52v-8.53Z"/><path class="cls-4" d="M1054.84,637.82v-4h4v4h-4Z"/><path class="cls-4" d="M1115.93,628.86h-29.16v-2.34h29.16v2.34ZM1113.02,623.02h-22.64v-11.63h21.89v2.34h-9.79v6.95h10.55v2.34ZM1112.58,641.2h-22.14v-9.25h2.52v6.91h19.62v2.34ZM1092.89,613.74v6.95h7.06v-6.95h-7.06Z"/><path class="cls-4" d="M1132.82,642.07h-2.52v-13.9h-13.39v-2.34h22.28v-11.77h-17.93v-2.34h20.45v14.11h4.39v2.34h-13.28v13.9Z"/><path class="cls-4" d="M1175.48,629.43h-27.4v-2.34h27.4v2.34ZM1172.74,641.89h-21.89v-9.47h21.89v9.47ZM1169.5,613.45h-18v-2.34h20.52v7.85h-18v3.06h18.5v2.34h-21.02v-7.74h18v-3.17ZM1153.37,634.76v4.79h16.85v-4.79h-16.85Z"/><path class="cls-4" d="M1206.4,626.62h-28.94v-2.34h28.94v2.34ZM1200.28,631.7h-19.04v-2.34h21.56v7.52h-19.04v3.02h20.02v2.34h-22.54v-7.7h19.04v-2.84ZM1181.74,616.36c0-1.1.43-2.08,1.3-2.93s2.07-1.52,3.62-2c1.55-.48,3.32-.72,5.31-.72s3.79.24,5.33.72c1.54.48,2.74,1.15,3.6,2,.86.85,1.3,1.83,1.3,2.93s-.43,2.09-1.3,2.95c-.86.86-2.06,1.54-3.6,2.02-1.54.48-3.31.72-5.33.72s-3.76-.24-5.31-.72c-1.55-.48-2.75-1.15-3.62-2.02s-1.3-1.85-1.3-2.95ZM1184.26,616.36c0,.65.33,1.23.99,1.75.66.52,1.57.92,2.72,1.21,1.15.29,2.48.43,4,.43s2.85-.14,4.01-.43,2.07-.69,2.72-1.21c.65-.52.97-1.1.97-1.75s-.32-1.22-.97-1.71c-.65-.49-1.55-.88-2.72-1.15-1.16-.28-2.5-.41-4.01-.41s-2.84.14-4,.41c-1.15.28-2.06.66-2.72,1.15-.66.49-.99,1.06-.99,1.71Z"/><path class="cls-4" d="M1229.33,635.3l-1.8-1.58,8.32-9.47v-8.35h-7.27v-2.34h17.17v2.34h-7.38v8.35l8.32,9.47-1.8,1.58-7.78-8.82-7.78,8.82ZM1253.31,641.96h-2.52v-29.63h-2.34v-2.34h4.86v31.97Z"/><path class="cls-4" d="M1270.66,631.16h-13.36v-2.34h29.2v2.34h-13.32v11.12h-2.52v-11.12ZM1271.92,625.54c-1.68,0-3.2-.33-4.57-.99s-2.45-1.54-3.26-2.65c-.8-1.1-1.21-2.34-1.21-3.71s.4-2.6,1.21-3.69c.8-1.09,1.89-1.96,3.26-2.61,1.37-.65,2.89-.97,4.57-.97s3.23.32,4.59.97c1.36.65,2.44,1.52,3.24,2.61.8,1.09,1.21,2.32,1.21,3.69s-.4,2.6-1.21,3.71c-.8,1.1-1.88,1.99-3.24,2.65-1.36.66-2.89.99-4.59.99ZM1265.4,618.2c0,.94.29,1.78.86,2.54s1.36,1.36,2.36,1.8c1,.44,2.09.67,3.29.67s2.33-.22,3.31-.67c.98-.44,1.76-1.04,2.34-1.8.58-.76.86-1.6.86-2.54s-.29-1.78-.86-2.52c-.58-.74-1.36-1.33-2.34-1.76-.98-.43-2.09-.65-3.31-.65s-2.3.22-3.29.65c-1,.43-1.78,1.02-2.36,1.76s-.86,1.58-.86,2.52Z"/><path class="cls-4" d="M1316.13,638.04h-27.9v-2.34h11.12v-11.41h2.52v11.41h7.96v-20.34h-17.93v-2.34h20.45v22.68h3.78v2.34Z"/><path class="cls-4" d="M515.21,680.94h-20.48v-14.22h14.26v2.34h-11.74v9.54h17.96v-11.74h-2.34v-2.34h4.86v8.39h5.11v2.34h-5.11v8.03h-2.52v-2.34ZM497.35,690.45c0-1.85.94-3.31,2.83-4.39,1.88-1.08,4.43-1.62,7.65-1.62,3.22-.02,5.77.5,7.67,1.58,1.9,1.08,2.84,2.56,2.84,4.43s-.95,3.31-2.84,4.39c-1.9,1.08-4.45,1.62-7.67,1.62s-5.77-.54-7.65-1.62c-1.88-1.08-2.83-2.54-2.83-4.39ZM499.87,690.45c0,1.13.71,2.02,2.14,2.68,1.43.66,3.37.99,5.81.99s4.39-.33,5.83-.99c1.44-.66,2.16-1.55,2.16-2.68s-.72-2.02-2.16-2.68c-1.44-.66-3.38-.99-5.83-.99s-4.39.33-5.81.99c-1.43.66-2.14,1.55-2.14,2.68Z"/><path class="cls-4" d="M524.96,683.07l-1.62-1.69,8.35-7.27v-4.75h-7.7v-2.34h17.24v2.34h-7.02v4.86l8.1,6.55-1.62,1.69-7.81-6.26-7.92,6.88ZM527.41,690.77c0-1.92.92-3.39,2.77-4.41,1.85-1.02,4.48-1.53,7.88-1.53,3.43-.02,6.07.48,7.92,1.51,1.85,1.03,2.77,2.51,2.77,4.43s-.92,3.36-2.77,4.39c-1.85,1.03-4.49,1.55-7.92,1.55s-6.04-.52-7.88-1.55c-1.85-1.03-2.77-2.5-2.77-4.39ZM529.93,690.77c0,1.15.7,2.04,2.11,2.66,1.4.62,3.41.94,6.03.94s4.66-.31,6.07-.94c1.4-.62,2.11-1.51,2.11-2.66s-.7-2.04-2.11-2.66c-1.4-.62-3.43-.94-6.07-.94s-4.63.31-6.03.94-2.11,1.51-2.11,2.66ZM548.11,683.57h-2.52v-16.52h-2.34v-2.34h4.86v7.99h4.97v2.34h-4.97v8.53Z"/><path class="cls-4" d="M574.79,683.03l-1.62-1.69,6.62-6.05v-4.1h-5.94v-2.34h5.94v-4.14h2.52v4.14h5.94v2.34h-5.94v3.89l6.62,5.9-1.62,1.73-6.16-5.62-6.37,5.94ZM597.36,688.36h-18.86v-2.34h21.38v10.44h-2.52v-8.1ZM590.84,667.26h-2.34v-2.34h4.86v8.21h4v-8.21h2.52v19.19h-2.52v-8.64h-4v8.64h-2.52v-16.85Z"/><path class="cls-4" d="M605.13,682.63l-1.58-1.69,7.63-7.24v-7.56h2.52v7.52l7.67,7.27-1.62,1.69-7.31-6.95-7.31,6.95ZM608.3,690.99c0-1.99.87-3.52,2.61-4.59,1.74-1.07,4.21-1.6,7.4-1.6s5.69.53,7.42,1.6c1.73,1.07,2.59,2.6,2.59,4.59s-.86,3.49-2.59,4.57c-1.73,1.08-4.2,1.62-7.42,1.62s-5.66-.54-7.4-1.62c-1.74-1.08-2.61-2.6-2.61-4.57ZM610.75,690.99c0,1.25.65,2.21,1.96,2.9,1.31.68,3.17,1.03,5.6,1.03s4.29-.34,5.6-1.03c1.31-.68,1.96-1.65,1.96-2.9s-.65-2.24-1.96-2.92c-1.31-.67-3.17-1.01-5.6-1.01s-4.29.34-5.6,1.01c-1.31.67-1.96,1.64-1.96,2.92ZM627.85,684.18h-2.52v-17.86h-2.34v-2.34h4.86v8.89h5.15v2.34h-5.15v8.96Z"/><path class="cls-4" d="M654.2,673.85c0-1.37.34-2.6,1.03-3.69.68-1.09,1.61-1.96,2.77-2.61,1.16-.65,2.45-.97,3.87-.97s2.69.32,3.82.97c1.13.65,2.03,1.52,2.7,2.61.67,1.09,1.01,2.32,1.01,3.69s-.34,2.66-1.01,3.8-1.57,2.05-2.7,2.72c-1.13.67-2.4,1.01-3.82,1.01s-2.71-.34-3.87-1.01-2.09-1.58-2.77-2.72c-.68-1.14-1.03-2.41-1.03-3.8ZM656.72,673.89c0,.96.23,1.83.68,2.61.46.78,1.07,1.4,1.84,1.85.77.46,1.62.68,2.56.68s1.82-.23,2.57-.68,1.36-1.08,1.82-1.87c.46-.79.68-1.67.68-2.63s-.22-1.78-.67-2.52c-.44-.74-1.04-1.33-1.8-1.76-.76-.43-1.6-.65-2.54-.65s-1.83.22-2.61.67c-.78.44-1.4,1.04-1.85,1.78-.46.74-.68,1.58-.68,2.52ZM657.3,686.88v-2.34h21.31v2.34h-4.43v7.02h4.43v2.34h-21.31v-2.34h4.28v-7.02h-4.28ZM664.1,686.88v7.02h7.56v-7.02h-7.56ZM674.72,666.36h-2.34v-2.16h4.86v8.17h5.29v2.34h-5.29v7.99h-2.52v-16.34Z"/><path class="cls-4" d="M703.88,696.06h-2.52v-17.35h-4.28c-.24,5.62-2.53,8.42-6.88,8.42-4.66,0-6.98-3.18-6.98-9.54s2.33-9.65,6.98-9.65c4.3.14,6.59,2.95,6.88,8.42h4.28v-10.04h-2.34v-2.34h4.86v32.08ZM685.74,677.59c0,4.8,1.49,7.2,4.46,7.2s4.39-2.4,4.39-7.2-1.46-7.31-4.39-7.31-4.46,2.44-4.46,7.31ZM710.18,696.06h-2.52v-32.08h2.52v32.08Z"/><path class="cls-4" d="M715.36,689.08l-1.84-1.44,8.21-9.32v-10.91h2.52v10.76l8.6,9.43-1.8,1.48-7.99-8.78-7.7,8.78ZM739.52,696.13h-2.52v-18.83h-7.34v-2.34h7.34v-8.46h-2.34v-2.34h4.86v31.97Z"/><path class="cls-4" d="M765.3,680.37l-1.58-1.73,7.96-7.38v-5.8h2.52v5.94l7.81,7.24-1.58,1.73-7.56-7.02-7.56,7.02ZM769.15,695.95v-7.88h17.64v-2.77h-17.68v-2.34h20.2v7.45h-17.64v3.2h18.83v2.34h-21.35ZM786.79,666.33h-2.34v-2.34h4.86v17.1h-2.52v-14.76Z"/><path class="cls-4" d="M794.56,683.28l-1.62-1.69,8.64-6.95v-3.78h-6.95v-2.34h6.95v-4.25h2.52v4.25h6.73v2.34h-6.73v3.96l7.96,6.05-1.62,1.69-7.7-5.83-8.17,6.55ZM798.88,695.59v-9.72h2.52v7.38h19.26v2.34h-21.78ZM816.74,676.33h-6.41v-2.34h6.41v-7.49h-2.34v-2.34h4.86v23.83h-2.52v-11.66Z"/><path class="cls-4" d="M842.62,669.67h-19.37v-2.34h8.78v-3.28h2.52v3.28h8.06v2.34ZM825.13,676.44c0-1.08.34-2.03,1.01-2.84.67-.82,1.6-1.45,2.77-1.91,1.17-.46,2.52-.68,4.03-.68s2.85.23,4.01.68c1.16.46,2.07,1.09,2.72,1.91.65.82.97,1.76.97,2.84s-.32,1.99-.97,2.81c-.65.82-1.55,1.45-2.72,1.91-1.17.46-2.5.68-4.01.68s-2.86-.23-4.03-.68c-1.18-.46-2.1-1.09-2.77-1.91-.67-.82-1.01-1.75-1.01-2.81ZM827.65,676.48c0,.89.5,1.61,1.49,2.18,1,.56,2.26.85,3.8.85s2.78-.28,3.74-.83c.96-.55,1.44-1.26,1.44-2.12,0-.94-.48-1.7-1.44-2.3-.96-.6-2.21-.9-3.74-.9s-2.8.29-3.8.88-1.49,1.34-1.49,2.25ZM845.32,686.2h-17.46v-2.34h19.98v7.13h-17.28v2.48h18.86v2.34h-21.38v-7.16h17.28v-2.45ZM845.32,666.18h-2.34v-2.34h4.86v8.42h5.51v2.34h-5.51v7.45h-2.52v-15.88Z"/><path class="cls-4" d="M886.47,685.08h-13.28v-2.34h29.23v2.34h-13.43v11.38h-2.52v-11.38ZM876.68,679.54l-1.26-1.98,11.05-6.55v-5.18h2.52v5.15l11.12,6.59-1.26,1.98-11.09-6.55-11.09,6.55Z"/><path class="cls-4" d="M924.13,673.89c0-1.54.34-2.88,1.01-4.05.67-1.16,1.6-2.08,2.79-2.74,1.19-.66,2.55-.99,4.09-.99s2.89.33,4.05.99c1.16.66,2.08,1.57,2.74,2.74.66,1.17.99,2.51.99,4.05s-.33,2.84-.99,4c-.66,1.15-1.57,2.06-2.74,2.72-1.17.66-2.51.99-4.05.99s-2.9-.33-4.09-.99c-1.19-.66-2.12-1.57-2.79-2.72-.67-1.15-1.01-2.48-1.01-4ZM926.07,696.6l-1.73-1.51,6.7-6.08v-4.64h2.45v4.68l4.86,4.25,4.93-4.32v-4.61h2.52v4.79l6.62,6.01-1.73,1.51-6.26-5.72-6.08,5.36h-.04l-6.05-5.33-6.19,5.62ZM926.65,673.92c0,1.56.5,2.84,1.49,3.83,1,1,2.26,1.49,3.8,1.49s2.84-.5,3.83-1.51c1-1.01,1.49-2.29,1.49-3.85s-.49-2.92-1.46-3.92c-.97-1.01-2.24-1.51-3.8-1.51s-2.84.51-3.85,1.53-1.51,2.33-1.51,3.94ZM948.75,682.99h-2.52v-16.16h-2.52v-2.34h5.04v18.5Z"/><path class="cls-4" d="M982.01,682.78h-28.73v-2.34h28.73v2.34ZM979.06,695.45h-22.14v-9.32h2.52v6.98h19.62v2.34ZM978.09,676.15h-20.3v-11.02h2.52v8.68h17.78v2.34Z"/><path class="cls-4" d="M1004.12,678.35c0-2.09.32-3.89.97-5.42.65-1.52,1.58-2.7,2.79-3.53s2.65-1.24,4.3-1.24c1.63.05,3.05.5,4.25,1.35,1.2.85,2.12,2.03,2.77,3.53s.97,3.27.97,5.31-.32,3.85-.97,5.36c-.65,1.51-1.57,2.68-2.77,3.49-1.2.82-2.62,1.22-4.25,1.22s-3.09-.41-4.3-1.22c-1.21-.82-2.14-1.98-2.79-3.49-.65-1.51-.97-3.3-.97-5.36ZM1006.64,678.35c0,2.38.5,4.26,1.49,5.65,1,1.39,2.35,2.09,4.05,2.09s3.01-.7,4-2.09c.98-1.39,1.48-3.28,1.48-5.65s-.49-4.34-1.48-5.74c-.98-1.4-2.32-2.11-4-2.11s-3.05.7-4.05,2.11c-1,1.4-1.49,3.32-1.49,5.74ZM1028.74,696.13h-2.52v-29.63h-2.34v-2.34h4.86v31.97Z"/><path class="cls-4" d="M1033.57,677.92c0-2.93.73-5.24,2.2-6.93,1.46-1.69,3.43-2.54,5.9-2.54,2.47.12,4.43,1.03,5.87,2.74,1.44,1.7,2.16,3.95,2.16,6.73,0,1.92-.32,3.58-.97,4.99-.65,1.4-1.57,2.49-2.77,3.26-1.2.77-2.63,1.15-4.28,1.15s-3.09-.38-4.3-1.15c-1.21-.77-2.15-1.85-2.81-3.26-.66-1.4-.99-3.07-.99-4.99ZM1036.08,677.92c0,2.16.5,3.88,1.51,5.15s2.36,1.91,4.07,1.91,3.05-.64,4.03-1.91,1.48-2.99,1.48-5.15-.49-3.95-1.48-5.22c-.98-1.27-2.33-1.91-4.03-1.91s-3.06.64-4.07,1.91c-1.01,1.27-1.51,3.01-1.51,5.22ZM1057.43,696.64h-2.52v-29.77h-2.34v-2.34h4.86v8.21h5.8v2.34h-5.8v7.27h5.8v2.34h-5.8v11.95Z"/><path class="cls-4" d="M1064.35,687.6c2.42-1.1,4.59-2.54,6.5-4.3,1.91-1.76,3.45-3.75,4.63-5.96,1.18-2.21,1.86-4.52,2.05-6.95h-11.66v-2.34h14.26c.07,2.45-.24,4.77-.94,6.97-.7,2.2-1.71,4.23-3.04,6.1s-2.91,3.55-4.73,5.02c-1.82,1.48-3.82,2.72-5.98,3.73l-1.08-2.27ZM1088.83,696.46h-2.52v-29.02h-2.34v-2.34h4.86v31.36Z"/><path class="cls-4" d="M1122.7,681.37h-29.2v-2.34h29.2v2.34ZM1118.99,695.77h-21.2v-6.98h18.36v-2.16h-18.36v-2.34h20.88v6.66h-18.36v2.48h18.68v2.34ZM1118.02,676.51h-20.16v-10.66h20.16v2.23h-17.75v6.19h17.75v2.23Z"/><path class="cls-4" d="M1152.73,680.8h-28.94v-2.34h28.94v2.34ZM1146.61,685.87h-19.04v-2.34h21.56v7.52h-19.04v3.02h20.02v2.34h-22.54v-7.7h19.04v-2.84ZM1128.07,670.54c0-1.1.43-2.08,1.3-2.93s2.07-1.52,3.62-2c1.55-.48,3.32-.72,5.31-.72s3.79.24,5.33.72c1.54.48,2.74,1.15,3.6,2,.86.85,1.3,1.83,1.3,2.93s-.43,2.09-1.3,2.95c-.86.86-2.06,1.54-3.6,2.02-1.54.48-3.31.72-5.33.72s-3.76-.24-5.31-.72c-1.55-.48-2.75-1.15-3.62-2.02s-1.3-1.85-1.3-2.95ZM1130.58,670.54c0,.65.33,1.23.99,1.75.66.52,1.57.92,2.72,1.21,1.15.29,2.48.43,4,.43s2.85-.14,4.01-.43,2.07-.69,2.72-1.21c.65-.52.97-1.1.97-1.75s-.32-1.22-.97-1.71c-.65-.49-1.55-.88-2.72-1.15-1.16-.28-2.5-.41-4.01-.41s-2.84.14-4,.41c-1.15.28-2.06.66-2.72,1.15-.66.49-.99,1.06-.99,1.71Z"/><path class="cls-4" d="M1192.04,670.25h-18.22v-2.34h8.28v-3.67h2.52v3.67h7.42v2.34ZM1175.37,677.31c0-1.15.32-2.16.97-3.02s1.55-1.54,2.7-2.03c1.15-.49,2.47-.74,3.96-.74s2.8.25,3.92.74c1.13.49,2.01,1.17,2.65,2.03.63.86.95,1.87.95,3.02s-.32,2.12-.95,2.99c-.64.86-1.52,1.54-2.65,2.03-1.13.49-2.44.74-3.92.74s-2.81-.25-3.96-.74c-1.15-.49-2.05-1.17-2.7-2.03s-.97-1.86-.97-2.99ZM1177.89,677.34c0,.98.48,1.79,1.44,2.43.96.64,2.18.95,3.67.95s2.69-.31,3.62-.94c.92-.62,1.39-1.42,1.39-2.38,0-1.06-.46-1.91-1.39-2.57-.92-.66-2.13-.99-3.62-.99s-2.71.32-3.67.97c-.96.65-1.44,1.49-1.44,2.52ZM1198.12,695.99h-19.76v-11.27h2.52v3.46h14.72v-3.46h2.52v11.27ZM1180.88,690.52v3.13h14.72v-3.13h-14.72ZM1195.6,667.05h-2.34v-2.34h4.86v7.31h5.08v2.34h-5.08v8.78h-2.52v-16.09Z"/><path class="cls-4" d="M1226.85,686.99h-20.84l.07-20.2h2.52l-.07,17.86h18.32v-18.32h-1.98v-2.16h4.5v31.97h-2.52v-9.14Z"/><path class="cls-4" d="M1255.86,687.39h-20.27l.07-17.68v-1.33h14.51v2.34h-11.99l-.07,14.33h17.75v-18.72h-2.34v-2.34h4.86v12.78h5.54v2.34h-5.54v16.81h-2.52v-8.53Z"/><path class="cls-4" d="M1264.36,691.99v-4h4v4h-4Z"/></svg>