<?xml version="1.0" encoding="UTF-8"?><svg id="_레이어_1" xmlns="http://www.w3.org/2000/svg" viewBox="0 0 1920 1080"><defs><style>.cls-1{stroke-dasharray:6.37 6.37 6.37 6.37 6.37 6.37;}.cls-1,.cls-2,.cls-3,.cls-4{stroke:#012b3a;stroke-miterlimit:10;}.cls-1,.cls-3,.cls-4{fill:none;stroke-width:1.08px;}.cls-2{fill:#fff;stroke-width:2px;}.cls-5{fill:#42d49c;}.cls-6{fill:#012b3a;}.cls-3{stroke-dasharray:6.37 6.37 6.37 6.37;}</style></defs><rect class="cls-5" y="0" width="1920" height="1080"/><rect class="cls-2" x="497.91" y="78.45" width="937.04" height="918.29"/><path class="cls-6" d="M553.79,163.02l-10.84-8.32,1.4-1.8,13.36,10.12-13.36,10.08-1.4-1.76,10.84-8.32Z"/><path class="cls-6" d="M594.38,177.71v-28.73h6.88v2.34h-4.36v24.05h4.36v2.34h-6.88Z"/><path class="cls-6" d="M620.23,175.62h-16.06v-2.52h7.38v-19.69l-5.51,5.8-1.76-1.58,7.27-7.56h2.7v23.04h5.98v2.52Z"/><path class="cls-6" d="M629.23,148.98v28.73h-6.88v-2.34h4.36v-24.05h-4.36v-2.34h6.88Z"/><path class="cls-6" d="M663.32,167.02l-1.62-1.69,8.28-7.96v-4.64h-7.24v-2.34h17.03v2.34h-7.27v4.86l8.32,7.74-1.62,1.69-8.1-7.49-7.78,7.49ZM667.39,179.44v-10.26h2.52v7.92h19.12v2.34h-21.64ZM684.85,149.77h-2.34v-2.16h4.86v23.69h-2.52v-21.53Z"/><path class="cls-6" d="M696.54,153.8h-4.1v-2.34h18.54v2.34h-3.85v10.37l5.62,6.84-1.62,1.62-5.18-6.23-4.07,5.47-4.14-5.51-5.22,6.26-1.55-1.62,5.58-6.88v-10.33ZM699.06,153.8v10.48l2.81,3.71,2.74-3.67v-10.51h-5.54ZM714.33,150.42h-2.34v-2.16h4.86v12.28h4.86v2.34h-4.86v16.85h-2.52v-29.3Z"/><path class="cls-6" d="M759.76,156h-18.32v-2.34h7.92v-5.29h2.52v5.29h7.88v2.34ZM750.62,172.63c-1.39,0-2.65-.31-3.78-.94-1.13-.62-2.02-1.46-2.68-2.5-.66-1.04-.99-2.21-.99-3.51s.33-2.5.99-3.55,1.55-1.88,2.68-2.5c1.13-.62,2.39-.94,3.78-.94s2.61.31,3.73.94c1.12.62,2,1.46,2.65,2.5.65,1.04.97,2.23.97,3.55s-.32,2.47-.97,3.51c-.65,1.04-1.53,1.88-2.65,2.5-1.12.62-2.36.94-3.73.94ZM745.68,165.76c0,.84.22,1.61.65,2.3.43.7,1.03,1.24,1.78,1.64s1.59.59,2.5.59,1.73-.2,2.45-.59,1.3-.94,1.73-1.62c.43-.68.65-1.43.65-2.25,0-.89-.22-1.69-.65-2.41-.43-.72-1.01-1.3-1.73-1.73-.72-.43-1.54-.65-2.45-.65s-1.75.21-2.5.63c-.76.42-1.35.98-1.78,1.69-.43.71-.65,1.51-.65,2.39ZM762.6,150.13h-2.34v-2.34h4.86v13h6.48v2.34h-6.48v16.63h-2.52v-29.63Z"/><path class="cls-6" d="M799.94,175.83h-27.9v-2.34h11.12v-11.41h2.52v11.41h7.96v-20.34h-17.93v-2.34h20.45v22.68h3.78v2.34Z"/><path class="cls-6" d="M823.3,164.85l-1.66-1.66,8.06-8.17v-6.41h2.52v6.44l7.88,7.27-1.66,1.66-7.49-6.88-7.67,7.74ZM847.1,179.11h-20.92v-2.34h3.89v-6.8h-3.89v-2.34h20.92v2.34h-4v6.8h4v2.34ZM832.59,169.97v6.8h7.99v-6.8h-7.99ZM847.2,165.54h-2.52v-15.77h-2.34v-2.16h4.86v17.93Z"/><path class="cls-6" d="M880.03,167.2h-28.48v-2.34h28.48v2.34ZM855.34,179.65v-9.22h2.52v6.88h18.97v2.34h-21.49ZM855.63,155.78c0-1.2.44-2.27,1.31-3.2s2.09-1.67,3.65-2.2c1.56-.53,3.34-.79,5.33-.79s3.8.26,5.35.79,2.77,1.26,3.65,2.2c.89.94,1.33,2,1.33,3.2s-.44,2.27-1.33,3.2c-.89.94-2.11,1.67-3.65,2.2-1.55.53-3.33.79-5.35.79s-3.77-.26-5.33-.79c-1.56-.53-2.78-1.26-3.65-2.2s-1.31-2-1.31-3.2ZM858.15,155.82c0,.74.34,1.4,1.01,1.98.67.58,1.59,1.03,2.75,1.35,1.16.32,2.5.49,4.01.49s2.89-.16,4.05-.49c1.16-.32,2.08-.77,2.75-1.35.67-.58,1.01-1.24,1.01-1.98s-.34-1.44-1.01-2.02c-.67-.58-1.59-1.03-2.75-1.37-1.16-.34-2.51-.5-4.05-.5s-2.85.17-4.01.5c-1.16.34-2.08.79-2.75,1.37-.67.58-1.01,1.25-1.01,2.02Z"/><path class="cls-6" d="M916.97,163.06h-14.04v-13.21h14.04v13.21ZM905.45,152.18v8.53h9v-8.53h-9ZM927.27,179.44h-21.02v-8.32h16.99v-3.02h-16.99v-2.23h19.51v7.6h-16.99v3.64h18.5v2.34ZM925.83,164.31h-2.52v-14.36h-2.34v-2.34h4.86v7.27h4.43v2.34h-4.43v7.09Z"/><path class="cls-6" d="M960.21,164.42h-28.94v-2.34h28.94v2.34ZM954.09,169.5h-19.04v-2.34h21.56v7.52h-19.04v3.02h20.02v2.34h-22.54v-7.7h19.04v-2.84ZM935.55,154.16c0-1.1.43-2.08,1.3-2.93.86-.85,2.07-1.52,3.62-2,1.55-.48,3.32-.72,5.31-.72s3.79.24,5.33.72c1.54.48,2.74,1.15,3.6,2,.86.85,1.3,1.83,1.3,2.93s-.43,2.09-1.3,2.95c-.86.86-2.06,1.54-3.6,2.02-1.54.48-3.31.72-5.33.72s-3.76-.24-5.31-.72c-1.55-.48-2.75-1.15-3.62-2.02-.86-.86-1.3-1.85-1.3-2.95ZM938.07,154.16c0,.65.33,1.23.99,1.75.66.52,1.57.92,2.72,1.21,1.15.29,2.48.43,4,.43s2.85-.14,4.01-.43,2.07-.69,2.72-1.21c.65-.52.97-1.1.97-1.75s-.32-1.22-.97-1.71c-.65-.49-1.55-.88-2.72-1.15s-2.5-.41-4.01-.41-2.84.14-4,.41c-1.15.28-2.06.66-2.72,1.15-.66.49-.99,1.06-.99,1.71Z"/><path class="cls-6" d="M1002.25,172.02h-21.17l.07-2.34h4.1v-16.02h-4.1v-2.34h18.11v2.34h-3.56v16.02h6.55v-19.55h-2.34v-2.34h4.86v12.6h6.98v2.34h-6.98v17.03h-2.52v-7.74ZM987.78,153.66v16.02h5.4v-16.02h-5.4Z"/><path class="cls-6" d="M1012.41,157.44c0-1.39.34-2.65,1.03-3.78.68-1.13,1.61-2.02,2.77-2.68,1.16-.66,2.45-.99,3.87-.99s2.69.33,3.82.99c1.13.66,2.03,1.55,2.7,2.68.67,1.13,1.01,2.39,1.01,3.78s-.34,2.74-1.01,3.91c-.67,1.16-1.57,2.09-2.7,2.77-1.13.68-2.4,1.03-3.82,1.03s-2.71-.34-3.87-1.03-2.09-1.61-2.77-2.77c-.68-1.16-1.03-2.47-1.03-3.91ZM1014.93,157.48c0,.98.23,1.88.68,2.7s1.07,1.46,1.84,1.93c.77.47,1.62.7,2.56.7s1.82-.24,2.57-.72c.76-.48,1.36-1.13,1.82-1.94.46-.82.68-1.72.68-2.7s-.22-1.82-.67-2.59c-.44-.77-1.04-1.38-1.8-1.84-.76-.46-1.6-.68-2.54-.68s-1.83.23-2.61.68c-.78.46-1.4,1.07-1.85,1.85-.46.78-.68,1.65-.68,2.61ZM1033.29,171.26h-17.96v-2.34h20.48v11.3h-2.52v-8.96ZM1033.29,150.46h-2.34v-2.34h4.86v8.39h5.15v2.34h-5.15v8.5h-2.52v-16.88Z"/><path class="cls-6" d="M1060,153.88h-18.22v-2.34h8.28v-3.67h2.52v3.67h7.42v2.34ZM1043.33,160.93c0-1.15.32-2.16.97-3.02.65-.86,1.55-1.54,2.7-2.03,1.15-.49,2.47-.74,3.96-.74s2.8.25,3.92.74c1.13.49,2.01,1.17,2.65,2.03.63.86.95,1.87.95,3.02s-.32,2.12-.95,2.99c-.64.86-1.52,1.54-2.65,2.03-1.13.49-2.44.74-3.92.74s-2.81-.25-3.96-.74c-1.15-.49-2.05-1.17-2.7-2.03-.65-.86-.97-1.86-.97-2.99ZM1045.85,160.97c0,.98.48,1.79,1.44,2.43.96.64,2.18.95,3.67.95s2.69-.31,3.62-.94c.92-.62,1.39-1.42,1.39-2.38,0-1.06-.46-1.91-1.39-2.57-.92-.66-2.13-.99-3.62-.99s-2.71.32-3.67.97c-.96.65-1.44,1.49-1.44,2.52ZM1066.08,179.62h-19.76v-11.27h2.52v3.46h14.72v-3.46h2.52v11.27ZM1048.84,174.14v3.13h14.72v-3.13h-14.72ZM1063.56,150.67h-2.34v-2.34h4.86v7.31h5.08v2.34h-5.08v8.78h-2.52v-16.09Z"/><path class="cls-6" d="M1094.81,170.62h-20.84l.07-20.2h2.52l-.07,17.86h18.32v-18.32h-1.98v-2.16h4.5v31.97h-2.52v-9.14Z"/><path class="cls-6" d="M1123.82,171.01h-20.27l.07-17.68v-1.33h14.51v2.34h-11.99l-.07,14.33h17.75v-18.72h-2.34v-2.34h4.86v12.78h5.54v2.34h-5.54v16.81h-2.52v-8.53Z"/><path class="cls-6" d="M1132.32,175.62v-4h4v4h-4Z"/><path class="cls-6" d="M553.79,253.19l-10.84-8.32,1.4-1.8,13.36,10.12-13.36,10.08-1.4-1.76,10.84-8.32Z"/><path class="cls-6" d="M594.38,267.88v-28.73h6.88v2.34h-4.36v24.05h4.36v2.34h-6.88Z"/><path class="cls-6" d="M607.88,263.09h12.85v2.7h-17.42v-1.94c2.06-2.16,3.88-4.01,5.45-5.54,1.57-1.54,2.9-2.89,4-4.05,1.09-1.16,1.96-2.23,2.61-3.19.65-.96,1.06-1.94,1.22-2.95.22-1.13.14-2.14-.23-3.02-.37-.89-.95-1.58-1.75-2.09s-1.74-.73-2.84-.68c-1.49.02-2.67.46-3.55,1.31-.88.85-1.31,1.99-1.31,3.4h-2.7c0-1.46.32-2.75.95-3.85.64-1.1,1.52-1.97,2.66-2.61,1.14-.64,2.45-.95,3.94-.95,1.73,0,3.21.4,4.45,1.21s2.14,1.88,2.72,3.22c.58,1.34.71,2.86.4,4.54-.19,1.01-.61,2.06-1.26,3.15-.65,1.09-1.43,2.19-2.36,3.29-.92,1.1-1.88,2.17-2.88,3.19-1,1.02-1.93,1.95-2.81,2.79-.88.84-1.59,1.54-2.14,2.09Z"/><path class="cls-6" d="M629.23,239.15v28.73h-6.88v-2.34h4.36v-24.05h-4.36v-2.34h6.88Z"/><path class="cls-6" d="M689.78,266.01h-27.9v-2.34h21.6v-20.34h-17.93v-2.34h20.45v22.68h3.78v2.34Z"/><path class="cls-6" d="M702.7,244.41h-9.9v-2.34h12.42c.14,3.26-.32,6.29-1.4,9.07h5.47v-11.02h-2.34v-2.34h4.86v32.08h-2.52v-16.38h-6.55l-.32.58c-.65,1.1-1.49,2.25-2.54,3.44s-2.16,2.29-3.35,3.29c-1.19,1.01-2.35,1.82-3.47,2.45l-1.37-2.09c1.06-.62,2.14-1.4,3.24-2.32,1.1-.92,2.12-1.91,3.06-2.95.94-1.04,1.68-2.05,2.23-3.01,1.46-2.52,2.29-5.34,2.48-8.46ZM718.54,269.86h-2.52v-32.08h2.52v32.08Z"/><path class="cls-6" d="M764.76,253.12h-23v-2.34h4.18v-8.39h-3.38v-2.34h17.64v2.34h-3.67v8.39h8.24v-10.62h-2.34v-2.34h4.86v16.74h-2.52v-1.44ZM764.73,258.81h-18.07v-2.34h20.59v7.67h-18.07v3.1h19.98v2.34h-22.5v-7.78h18.07v-2.99ZM748.46,242.39v8.39h5.54v-8.39h-5.54Z"/><path class="cls-6" d="M800.51,266.33h-29.2v-2.34h7.67v-9.86c-1.03-.7-1.85-1.54-2.45-2.52-.6-.98-.9-2.08-.9-3.28,0-1.49.44-2.81,1.31-3.96.88-1.15,2.09-2.06,3.65-2.72,1.56-.66,3.34-.99,5.33-.99s3.8.33,5.35.99c1.55.66,2.76,1.57,3.64,2.72.88,1.15,1.31,2.47,1.31,3.96,0,1.18-.29,2.26-.86,3.24-.58.98-1.38,1.82-2.41,2.52v9.9h7.56v2.34ZM778.16,248.33c0,1.03.34,1.94,1.01,2.74.67.79,1.59,1.42,2.75,1.87,1.16.46,2.5.68,4.01.68s2.86-.23,4.03-.68c1.18-.46,2.09-1.08,2.75-1.87s.99-1.7.99-2.74-.33-1.95-.99-2.75c-.66-.8-1.58-1.43-2.75-1.89-1.18-.46-2.52-.68-4.03-.68s-2.85.23-4.01.68c-1.17.46-2.08,1.09-2.75,1.89-.67.8-1.01,1.72-1.01,2.75ZM781.5,255.32v8.68h8.93v-8.71c-.67.22-1.38.38-2.12.5s-1.54.18-2.38.18c-1.61,0-3.08-.22-4.43-.65Z"/><path class="cls-6" d="M820.1,244.52h-17.86v-2.34h7.49v-3.67h2.52v3.67h7.85v2.34ZM803.82,252.33c0-1.2.32-2.26.95-3.19.63-.92,1.52-1.65,2.65-2.18,1.13-.53,2.41-.79,3.85-.79s2.71.26,3.82.79c1.1.53,1.97,1.25,2.59,2.18.62.92.94,1.99.94,3.19s-.31,2.27-.94,3.2c-.62.94-1.49,1.67-2.59,2.2-1.1.53-2.38.79-3.82.79s-2.72-.26-3.85-.79c-1.13-.53-2.01-1.26-2.65-2.2-.64-.94-.95-2-.95-3.2ZM806.34,252.37c0,1.1.46,2.02,1.39,2.74.92.72,2.11,1.08,3.55,1.08s2.57-.35,3.47-1.04,1.35-1.6,1.35-2.7-.45-2.09-1.35-2.83c-.9-.73-2.06-1.1-3.47-1.1s-2.62.36-3.55,1.08c-.92.72-1.39,1.64-1.39,2.77ZM806.92,269.79v-9h2.52v6.66h19.44v2.34h-21.96ZM823.91,240.31h-2.34v-2.34h4.86v11.27h5.18v2.34h-5.18v11.2h-2.52v-22.46Z"/><path class="cls-6" d="M852.64,252.15c0-2.09.32-3.89.97-5.42.65-1.52,1.58-2.7,2.79-3.53,1.21-.83,2.65-1.24,4.3-1.24,1.63.05,3.05.5,4.25,1.35,1.2.85,2.12,2.03,2.77,3.53.65,1.5.97,3.27.97,5.31s-.32,3.85-.97,5.36c-.65,1.51-1.57,2.68-2.77,3.49-1.2.82-2.62,1.22-4.25,1.22s-3.09-.41-4.3-1.22c-1.21-.82-2.14-1.98-2.79-3.49-.65-1.51-.97-3.3-.97-5.36ZM855.16,252.15c0,2.38.5,4.26,1.49,5.65,1,1.39,2.35,2.09,4.05,2.09s3.01-.7,4-2.09c.98-1.39,1.48-3.28,1.48-5.65s-.49-4.34-1.48-5.74c-.98-1.4-2.32-2.11-4-2.11s-3.05.7-4.05,2.11c-1,1.4-1.49,3.32-1.49,5.74ZM877.26,269.93h-2.52v-29.63h-2.34v-2.34h4.86v31.97Z"/><path class="cls-6" d="M889.61,259.13h-8.1v-2.34h29.2v2.34h-8.06v11.12h-2.52v-11.12h-7.99v11.12h-2.52v-11.12ZM896.13,253.52c-1.68,0-3.2-.33-4.57-.99-1.37-.66-2.45-1.54-3.26-2.65-.8-1.1-1.21-2.34-1.21-3.71s.4-2.6,1.21-3.69c.8-1.09,1.89-1.96,3.26-2.61s2.89-.97,4.57-.97,3.23.32,4.59.97c1.36.65,2.44,1.52,3.24,2.61.8,1.09,1.21,2.32,1.21,3.69s-.4,2.6-1.21,3.71c-.8,1.1-1.88,1.99-3.24,2.65-1.36.66-2.89.99-4.59.99ZM889.61,246.17c0,.94.29,1.78.86,2.54s1.36,1.36,2.36,1.8c1,.44,2.09.67,3.29.67s2.33-.22,3.31-.67c.98-.44,1.76-1.04,2.34-1.8.58-.76.86-1.6.86-2.54s-.29-1.78-.86-2.52c-.58-.74-1.36-1.33-2.34-1.76-.98-.43-2.09-.65-3.31-.65s-2.3.22-3.29.65c-1,.43-1.78,1.02-2.36,1.76-.58.74-.86,1.58-.86,2.52Z"/><path class="cls-6" d="M936.7,270.26h-2.52v-6.95h-22.75v-2.34h8.75v-5.98c-1.3-.17-2.44-.57-3.42-1.21-.98-.64-1.75-1.45-2.3-2.45-.55-1-.83-2.12-.83-3.37,0-1.42.34-2.66,1.01-3.74s1.59-1.93,2.75-2.54,2.5-.92,4.01-.92c1.51.05,2.84.4,4,1.04,1.15.65,2.06,1.5,2.72,2.56.66,1.06.99,2.26.99,3.6,0,1.87-.59,3.44-1.76,4.72-1.18,1.27-2.72,2.04-4.64,2.3v5.98h11.48v-20.2h-2.34v-2.34h4.86v13.28h5.04v2.34h-5.04v16.2ZM916.14,247.97c0,1.39.49,2.53,1.48,3.4.98.88,2.24,1.31,3.78,1.31s2.75-.44,3.73-1.31c.97-.88,1.46-2.01,1.46-3.4s-.49-2.58-1.46-3.49c-.97-.91-2.21-1.37-3.73-1.37s-2.8.46-3.78,1.37c-.98.91-1.48,2.08-1.48,3.49Z"/><path class="cls-6" d="M949.84,269.9l-7.96-.04v-2.34l5.69.04v-1.91h-2.38v-3.96h4.64v8.21Z"/><path class="cls-6" d="M980.15,257.44l-1.62-1.69,8.64-8.32v-7.31h2.52v7.52l7.96,7.38-1.62,1.69-7.74-7.13-8.14,7.85ZM1006.11,269.39h-21.64v-9.72h2.52v7.38h19.12v2.34ZM1002.47,247.69h-7.06v-2.34h7.06v-5.22h-2.34v-2.16h4.86v23.83h-2.52v-14.11Z"/><path class="cls-6" d="M1024.93,270.26h-2.52v-8.75h-13.36v-2.34h29.2v2.34h-13.32v8.75ZM1034.62,244.48h-21.89v-2.34h9.72v-4.1h2.52v4.1h9.65v2.34ZM1014.24,251.57c0-1.7.86-3.05,2.57-4.05,1.72-1,4.04-1.49,6.97-1.49s5.17.5,6.86,1.49c1.69,1,2.54,2.35,2.54,4.05s-.85,3.01-2.54,3.98c-1.69.97-3.98,1.46-6.86,1.46s-5.25-.49-6.97-1.46c-1.72-.97-2.57-2.3-2.57-3.98ZM1016.76,251.54c0,.96.62,1.72,1.87,2.29,1.25.56,2.94.85,5.08.85s3.83-.28,5.08-.85c1.25-.56,1.87-1.33,1.87-2.29s-.62-1.76-1.85-2.32c-1.24-.56-2.92-.85-5.06-.85s-3.83.28-5.09.85c-1.26.56-1.89,1.34-1.89,2.32Z"/><path class="cls-6" d="M1061.69,257.05h-22.1v-2.34h6.59v-6.77h2.52v6.77h13v-14.58h-2.34v-2.34h4.86v10.8h5.47v2.34h-5.47v10.87h-2.52v-4.75ZM1053.88,242.75h-12.85v-2.16h15.37v11.52h-2.52v-9.36ZM1044.23,269.5v-9.47h2.52v7.13h19.12v2.34h-21.64Z"/><path class="cls-6" d="M1070.37,260.97c3.36-1.94,5.94-4.45,7.74-7.52,1.63-2.74,2.5-5.75,2.59-9.04h-9.36v-2.34h11.92c.05.84.05,1.67,0,2.48-.05.82-.13,1.61-.25,2.38h4.86v-6.8h-2.34v-2.34h4.86v32.08h-2.52v-12.71h-6.01v-2.34h6.01v-5.54h-5.33c-.5,1.92-1.26,3.74-2.27,5.47-1.03,1.75-2.3,3.34-3.8,4.77-1.5,1.43-3.14,2.63-4.91,3.62l-1.19-2.16ZM1096.57,269.86h-2.52v-32.08h2.52v32.08Z"/><path class="cls-6" d="M1129.01,255.68h-28.84v-2.34h28.84v2.34ZM1125.3,269.57h-21.2v-6.98h18.36v-2.16h-18.36v-2.34h20.88v6.66h-18.36v2.48h18.68v2.34ZM1122.49,241.67h-18.36v-2.34h20.88v6.73h-18.36v2.66h18.68v2.34h-21.2v-7.16h18.36v-2.23Z"/><path class="cls-6" d="M1151.76,256.69l-1.58-1.73,7.88-7.31v-4.72h-7.56v-2.34h17.24v2.34h-7.16v4.72l7.88,7.31-1.58,1.73-7.56-7.02-7.56,7.02ZM1154.82,264.57c0-1.82.96-3.27,2.88-4.34,1.92-1.07,4.51-1.6,7.78-1.6,2.18-.02,4.07.21,5.67.7,1.6.49,2.83,1.18,3.71,2.07.88.89,1.31,1.94,1.31,3.17s-.44,2.25-1.31,3.15c-.88.9-2.11,1.59-3.71,2.07-1.6.48-3.49.72-5.67.72-3.26,0-5.86-.53-7.78-1.6s-2.88-2.51-2.88-4.34ZM1157.34,264.57c0,1.1.73,1.98,2.2,2.63s3.44.97,5.94.97,4.48-.32,5.96-.97c1.48-.65,2.21-1.52,2.21-2.63s-.74-1.98-2.21-2.63c-1.48-.65-3.46-.97-5.96-.97s-4.48.32-5.94.97-2.2,1.52-2.2,2.63ZM1173.18,249.09h-6.48v-2.34h6.48v-6.05h-2.34v-2.34h4.86v19.19h-2.52v-8.46Z"/><path class="cls-6" d="M1203.46,262.09h-21.64l.07-10.76v-1.33h11.88v-6.84h-11.88v-2.34h14.4v11.52h-11.88l-.07,7.42h19.12v-19.44h-2.34v-2.34h4.86v31.97h-2.52v-7.85Z"/><path class="cls-6" d="M1228.58,244.05h-18.22v-2.34h8.28v-3.67h2.52v3.67h7.42v2.34ZM1211.92,251.11c0-1.15.32-2.16.97-3.02.65-.86,1.55-1.54,2.7-2.03,1.15-.49,2.47-.74,3.96-.74s2.8.25,3.92.74c1.13.49,2.01,1.17,2.65,2.03.63.86.95,1.87.95,3.02s-.32,2.12-.95,2.99c-.64.86-1.52,1.54-2.65,2.03-1.13.49-2.44.74-3.92.74s-2.81-.25-3.96-.74c-1.15-.49-2.05-1.17-2.7-2.03-.65-.86-.97-1.86-.97-2.99ZM1214.44,251.14c0,.98.48,1.79,1.44,2.43.96.64,2.18.95,3.67.95s2.69-.31,3.62-.94c.92-.62,1.39-1.42,1.39-2.38,0-1.06-.46-1.91-1.39-2.57-.92-.66-2.13-.99-3.62-.99s-2.71.32-3.67.97c-.96.65-1.44,1.49-1.44,2.52ZM1234.67,269.79h-19.76v-11.27h2.52v3.46h14.72v-3.46h2.52v11.27ZM1217.42,264.32v3.13h14.72v-3.13h-14.72ZM1232.15,240.85h-2.34v-2.34h4.86v7.31h5.08v2.34h-5.08v8.78h-2.52v-16.09Z"/><path class="cls-6" d="M1263.4,260.79h-20.84l.07-20.2h2.52l-.07,17.86h18.32v-18.32h-1.98v-2.16h4.5v31.97h-2.52v-9.14Z"/><path class="cls-6" d="M1292.41,261.19h-20.27l.07-17.68v-1.33h14.51v2.34h-11.99l-.07,14.33h17.75v-18.72h-2.34v-2.34h4.86v12.78h5.54v2.34h-5.54v16.81h-2.52v-8.53Z"/><path class="cls-6" d="M1300.91,265.79v-4h4v4h-4Z"/><path class="cls-6" d="M553.79,343.37l-10.84-8.32,1.4-1.8,13.36,10.12-13.36,10.08-1.4-1.76,10.84-8.32Z"/><path class="cls-6" d="M594.38,358.06v-28.73h6.88v2.34h-4.36v24.05h4.36v2.34h-6.88Z"/><path class="cls-6" d="M611.73,332.5c-1.54.02-2.8.49-3.8,1.4-1,.91-1.49,2.08-1.49,3.49h-2.52c0-1.49.34-2.8,1.01-3.94.67-1.14,1.6-2.03,2.77-2.68,1.18-.65,2.52-.97,4.03-.97s2.94.29,4.14.86c1.2.58,2.14,1.38,2.81,2.41.67,1.03,1,2.22.97,3.56,0,1.18-.29,2.27-.88,3.28-.59,1.01-1.38,1.84-2.36,2.48,1.25.62,2.25,1.5,3.01,2.63.76,1.13,1.13,2.39,1.13,3.78,0,1.51-.37,2.85-1.1,4.01-.73,1.16-1.75,2.08-3.04,2.74s-2.78.99-4.46.99-3.14-.37-4.46-1.1c-1.32-.73-2.35-1.72-3.1-2.97-.74-1.25-1.09-2.63-1.04-4.14h2.56c0,1.68.54,3.02,1.64,4.01,1.09,1,2.56,1.49,4.41,1.49s3.26-.46,4.32-1.37c1.06-.91,1.58-2.14,1.58-3.67,0-.96-.25-1.82-.76-2.59-.5-.77-1.19-1.38-2.05-1.84s-1.84-.68-2.92-.68h-2.56v-2.41h2.34c.94,0,1.79-.21,2.56-.63.77-.42,1.37-.98,1.82-1.69.44-.71.67-1.48.67-2.32,0-1.22-.49-2.22-1.46-2.99s-2.23-1.15-3.76-1.15Z"/><path class="cls-6" d="M629.23,329.33v28.73h-6.88v-2.34h4.36v-24.05h-4.36v-2.34h6.88Z"/><path class="cls-6" d="M677.1,360.22h-2.52v-13.9h-13.39v-2.34h22.28v-11.77h-17.93v-2.34h20.45v14.11h4.39v2.34h-13.28v13.9Z"/><path class="cls-6" d="M694.42,346.28l-1.66-1.66,7.13-8.17v-6.7h2.52v6.55l7.81,7.56-1.66,1.66-7.31-7.02-6.84,7.78ZM697.98,354.42c0-1.99.87-3.52,2.61-4.59,1.74-1.07,4.21-1.6,7.4-1.6s5.69.53,7.42,1.6c1.73,1.07,2.59,2.6,2.59,4.59s-.86,3.49-2.59,4.57c-1.73,1.08-4.2,1.62-7.42,1.62s-5.66-.54-7.4-1.62-2.61-2.6-2.61-4.57ZM700.43,354.42c0,1.25.65,2.21,1.96,2.9,1.31.68,3.17,1.03,5.6,1.03s4.29-.34,5.6-1.03c1.31-.68,1.96-1.65,1.96-2.9s-.65-2.24-1.96-2.92c-1.31-.67-3.17-1.01-5.6-1.01s-4.29.34-5.6,1.01c-1.31.67-1.96,1.64-1.96,2.92ZM717.57,347.15h-2.52v-10.08h-6.98v-2.34h6.98v-4.61h-2.34v-2.16h4.86v19.19Z"/><path class="cls-6" d="M732.36,347.26h-10.66v-2.34h20.38v2.34h-7.2v5.26h-2.52v-5.26ZM723.4,336.06c0-1.32.32-2.49.95-3.51.63-1.02,1.52-1.82,2.65-2.41,1.13-.59,2.41-.88,3.85-.88,1.99,0,3.67.52,5.04,1.57,1.37,1.04,2.18,2.42,2.45,4.12h6.7v-4.43h-2.45v-2.16h4.97v24.84h-2.52v-15.91h-6.73c-.29,1.61-1.1,2.92-2.45,3.92-1.34,1.01-3.01,1.51-5,1.51-1.44,0-2.72-.29-3.85-.86-1.13-.58-2.01-1.36-2.65-2.36-.64-1-.95-2.14-.95-3.44ZM725.92,336.06c0,1.25.46,2.28,1.39,3.1.92.82,2.11,1.22,3.55,1.22s2.7-.41,3.64-1.22c.94-.82,1.4-1.85,1.4-3.1s-.48-2.36-1.44-3.2c-.96-.84-2.2-1.26-3.71-1.26-1.39,0-2.54.42-3.46,1.26-.91.84-1.37,1.91-1.37,3.2ZM726.21,359.96v-9.9h2.52v7.56h20.56v2.34h-23.08Z"/><path class="cls-6" d="M753.28,342.32c0-2.09.32-3.89.97-5.42.65-1.52,1.58-2.7,2.79-3.53,1.21-.83,2.65-1.24,4.3-1.24,1.63.05,3.05.5,4.25,1.35,1.2.85,2.12,2.03,2.77,3.53.65,1.5.97,3.27.97,5.31s-.32,3.85-.97,5.36c-.65,1.51-1.57,2.68-2.77,3.49-1.2.82-2.62,1.22-4.25,1.22s-3.09-.41-4.3-1.22c-1.21-.82-2.14-1.98-2.79-3.49-.65-1.51-.97-3.3-.97-5.36ZM755.8,342.32c0,2.38.5,4.26,1.49,5.65,1,1.39,2.35,2.09,4.05,2.09s3.01-.7,4-2.09c.98-1.39,1.48-3.28,1.48-5.65s-.49-4.34-1.48-5.74c-.98-1.4-2.32-2.11-4-2.11s-3.05.7-4.05,2.11c-1,1.4-1.49,3.32-1.49,5.74ZM777.9,360.11h-2.52v-29.63h-2.34v-2.34h4.86v31.97Z"/><path class="cls-6" d="M801.56,354.17h13.39v-7.02c-1.71-.17-3.25-.63-4.63-1.39-1.38-.76-2.47-1.73-3.26-2.93-.79-1.2-1.19-2.52-1.19-3.96,0-1.56.46-2.98,1.37-4.25.91-1.27,2.15-2.28,3.71-3.02,1.56-.74,3.3-1.12,5.22-1.12s3.66.37,5.22,1.12c1.56.74,2.8,1.75,3.71,3.02.91,1.27,1.37,2.69,1.37,4.25,0,1.44-.4,2.75-1.19,3.94s-1.87,2.17-3.22,2.93c-1.36.77-2.89,1.24-4.59,1.4v7.02h13.28v2.34h-29.2v-2.34ZM808.4,338.87c0,1.13.35,2.15,1.04,3.06.7.91,1.63,1.63,2.81,2.16,1.18.53,2.48.79,3.92.79s2.78-.26,3.94-.79c1.16-.53,2.09-1.25,2.79-2.16.7-.91,1.04-1.93,1.04-3.06s-.35-2.15-1.04-3.06c-.7-.91-1.63-1.64-2.79-2.18-1.17-.54-2.48-.81-3.94-.81s-2.75.27-3.92.81c-1.18.54-2.11,1.27-2.81,2.18-.7.91-1.04,1.93-1.04,3.06Z"/><path class="cls-6" d="M848.1,336.31h-16.24v-2.34h6.8v-4.97h2.52v4.97h6.91v2.34ZM839.86,351.94c-1.3,0-2.47-.29-3.51-.88-1.04-.59-1.87-1.38-2.48-2.38-.61-1-.92-2.11-.92-3.33s.31-2.37.92-3.37c.61-1,1.44-1.79,2.48-2.38,1.04-.59,2.21-.88,3.51-.88s2.42.29,3.46.88c1.03.59,1.85,1.38,2.45,2.38.6,1,.9,2.12.9,3.37s-.3,2.33-.9,3.33c-.6,1-1.42,1.79-2.45,2.38-1.03.59-2.18.88-3.46.88ZM835.47,345.42c0,.77.2,1.47.59,2.11.4.64.92,1.14,1.58,1.51.66.37,1.4.56,2.21.56,1.2,0,2.21-.4,3.04-1.19s1.24-1.76,1.24-2.92c0-1.25-.41-2.3-1.24-3.15-.83-.85-1.84-1.28-3.04-1.28-.82,0-1.55.19-2.21.58-.66.38-1.19.91-1.58,1.57-.4.66-.59,1.4-.59,2.21ZM849.51,330.48h-1.98v-2.34h4.5v13.46h4.21v-13.46h2.52v31.9h-2.52v-16.09h-4.21v16.09h-2.52v-29.56Z"/><path class="cls-6" d="M880.72,336.35h-18.32v-2.34h7.92v-5.29h2.52v5.29h7.88v2.34ZM871.57,352.98c-1.39,0-2.65-.31-3.78-.94-1.13-.62-2.02-1.46-2.68-2.5-.66-1.04-.99-2.21-.99-3.51s.33-2.5.99-3.55,1.55-1.88,2.68-2.5c1.13-.62,2.39-.94,3.78-.94s2.61.31,3.73.94c1.12.62,2,1.46,2.65,2.5.65,1.04.97,2.23.97,3.55s-.32,2.47-.97,3.51c-.65,1.04-1.53,1.88-2.65,2.5-1.12.62-2.36.94-3.73.94ZM866.64,346.1c0,.84.22,1.61.65,2.3.43.7,1.03,1.24,1.78,1.64s1.59.59,2.5.59,1.73-.2,2.45-.59,1.3-.94,1.73-1.62c.43-.68.65-1.43.65-2.25,0-.89-.22-1.69-.65-2.41-.43-.72-1.01-1.3-1.73-1.73-.72-.43-1.54-.65-2.45-.65s-1.75.21-2.5.63c-.76.42-1.35.98-1.78,1.69-.43.71-.65,1.51-.65,2.39ZM883.56,330.48h-2.34v-2.34h4.86v13h6.48v2.34h-6.48v16.63h-2.52v-29.63Z"/><path class="cls-6" d="M921.26,346.75h-28.73v-2.34h28.73v2.34ZM918.3,359.42h-22.14v-9.32h2.52v6.98h19.62v2.34ZM917.33,340.13h-20.3v-11.02h2.52v8.68h17.78v2.34Z"/><path class="cls-6" d="M957.79,360.43h-2.52v-10.48h-13.28v-2.34h29.2v2.34h-13.39v10.48ZM966.79,343.73h-20.45v-13.93h2.52v4.46h15.41v-4.46h2.52v13.93ZM948.87,336.6v4.79h15.41v-4.79h-15.41Z"/><path class="cls-6" d="M985.59,347.98h-13.39v-2.34h29.3v2.34h-13.39v6.16h-2.52v-6.16ZM998.11,360.04h-21.89v-8.75h2.52v6.41h19.37v2.34ZM997.03,342.4h-20.45v-12.6h2.52v3.92h15.41v-3.92h2.52v12.6ZM979.11,336.06v4h15.41v-4h-15.41Z"/><path class="cls-6" d="M1031.49,344.77h-28.94v-2.34h28.94v2.34ZM1025.37,349.85h-19.04v-2.34h21.56v7.52h-19.04v3.02h20.02v2.34h-22.54v-7.7h19.04v-2.84ZM1006.83,334.51c0-1.1.43-2.08,1.3-2.93.86-.85,2.07-1.52,3.62-2,1.55-.48,3.32-.72,5.31-.72s3.79.24,5.33.72c1.54.48,2.74,1.15,3.6,2,.86.85,1.3,1.83,1.3,2.93s-.43,2.09-1.3,2.95c-.86.86-2.06,1.54-3.6,2.02-1.54.48-3.31.72-5.33.72s-3.76-.24-5.31-.72c-1.55-.48-2.75-1.15-3.62-2.02-.86-.86-1.3-1.85-1.3-2.95ZM1009.35,334.51c0,.65.33,1.23.99,1.75.66.52,1.57.92,2.72,1.21,1.15.29,2.48.43,4,.43s2.85-.14,4.01-.43,2.07-.69,2.72-1.21c.65-.52.97-1.1.97-1.75s-.32-1.22-.97-1.71c-.65-.49-1.55-.88-2.72-1.15s-2.5-.41-4.01-.41-2.84.14-4,.41c-1.15.28-2.06.66-2.72,1.15-.66.49-.99,1.06-.99,1.71Z"/><path class="cls-6" d="M1073.53,352.37h-21.17l.07-2.34h4.1v-16.02h-4.1v-2.34h18.11v2.34h-3.56v16.02h6.55v-19.55h-2.34v-2.34h4.86v12.6h6.98v2.34h-6.98v17.03h-2.52v-7.74ZM1059.06,334.01v16.02h5.4v-16.02h-5.4Z"/><path class="cls-6" d="M1083.69,337.79c0-1.39.34-2.65,1.03-3.78.68-1.13,1.61-2.02,2.77-2.68,1.16-.66,2.45-.99,3.87-.99s2.69.33,3.82.99c1.13.66,2.03,1.55,2.7,2.68.67,1.13,1.01,2.39,1.01,3.78s-.34,2.74-1.01,3.91c-.67,1.16-1.57,2.09-2.7,2.77-1.13.68-2.4,1.03-3.82,1.03s-2.71-.34-3.87-1.03-2.09-1.61-2.77-2.77c-.68-1.16-1.03-2.47-1.03-3.91ZM1086.21,337.82c0,.98.23,1.88.68,2.7s1.07,1.46,1.84,1.93c.77.47,1.62.7,2.56.7s1.82-.24,2.57-.72c.76-.48,1.36-1.13,1.82-1.94.46-.82.68-1.72.68-2.7s-.22-1.82-.67-2.59c-.44-.77-1.04-1.38-1.8-1.84-.76-.46-1.6-.68-2.54-.68s-1.83.23-2.61.68c-.78.46-1.4,1.07-1.85,1.85-.46.78-.68,1.65-.68,2.61ZM1104.56,351.61h-17.96v-2.34h20.48v11.3h-2.52v-8.96ZM1104.56,330.8h-2.34v-2.34h4.86v8.39h5.15v2.34h-5.15v8.5h-2.52v-16.88Z"/><path class="cls-6" d="M1131.28,334.22h-18.22v-2.34h8.28v-3.67h2.52v3.67h7.42v2.34ZM1114.61,341.28c0-1.15.32-2.16.97-3.02.65-.86,1.55-1.54,2.7-2.03,1.15-.49,2.47-.74,3.96-.74s2.8.25,3.92.74c1.13.49,2.01,1.17,2.65,2.03.63.86.95,1.87.95,3.02s-.32,2.12-.95,2.99c-.64.86-1.52,1.54-2.65,2.03-1.13.49-2.44.74-3.92.74s-2.81-.25-3.96-.74c-1.15-.49-2.05-1.17-2.7-2.03-.65-.86-.97-1.86-.97-2.99ZM1117.13,341.32c0,.98.48,1.79,1.44,2.43.96.64,2.18.95,3.67.95s2.69-.31,3.62-.94c.92-.62,1.39-1.42,1.39-2.38,0-1.06-.46-1.91-1.39-2.57-.92-.66-2.13-.99-3.62-.99s-2.71.32-3.67.97c-.96.65-1.44,1.49-1.44,2.52ZM1137.36,359.96h-19.76v-11.27h2.52v3.46h14.72v-3.46h2.52v11.27ZM1120.12,354.49v3.13h14.72v-3.13h-14.72ZM1134.84,331.02h-2.34v-2.34h4.86v7.31h5.08v2.34h-5.08v8.78h-2.52v-16.09Z"/><path class="cls-6" d="M1166.09,350.96h-20.84l.07-20.2h2.52l-.07,17.86h18.32v-18.32h-1.98v-2.16h4.5v31.97h-2.52v-9.14Z"/><path class="cls-6" d="M1195.1,351.36h-20.27l.07-17.68v-1.33h14.51v2.34h-11.99l-.07,14.33h17.75v-18.72h-2.34v-2.34h4.86v12.78h5.54v2.34h-5.54v16.81h-2.52v-8.53Z"/><path class="cls-6" d="M1203.6,355.97v-4h4v4h-4Z"/><path class="cls-6" d="M553.79,433.54l-10.84-8.32,1.4-1.8,13.36,10.12-13.36,10.08-1.4-1.76,10.84-8.32Z"/><path class="cls-6" d="M594.38,448.23v-28.73h6.88v2.34h-4.36v24.05h4.36v2.34h-6.88Z"/><path class="cls-6" d="M617.17,440.42v5.72h-2.7v-5.72h-11.99v-2.52l10.48-17.32h4.21v17.32h4.64v2.52h-4.64ZM614.47,422.92l-8.89,14.98h8.89v-14.98Z"/><path class="cls-6" d="M629.23,419.5v28.73h-6.88v-2.34h4.36v-24.05h-4.36v-2.34h6.88Z"/><path class="cls-6" d="M663.35,436.75l-1.66-1.69,8.24-7.7v-4.72h-7.09v-2.34h16.67v2.34h-7.06v4.68l8.46,7.02-1.58,1.69-8.1-6.66-7.88,7.38ZM684.85,441.61h-18.76v-2.34h21.28v11.34h-2.52v-9ZM684.85,428.97h-6.62v-2.34h6.62v-6.01h-2.34v-2.34h4.86v19.15h-2.52v-8.46Z"/><path class="cls-6" d="M710.08,424.4h-18.22v-2.34h8.28v-3.67h2.52v3.67h7.42v2.34ZM693.41,431.46c0-1.15.32-2.16.97-3.02.65-.86,1.55-1.54,2.7-2.03,1.15-.49,2.47-.74,3.96-.74s2.8.25,3.92.74c1.13.49,2.01,1.17,2.65,2.03.63.86.95,1.87.95,3.02s-.32,2.12-.95,2.99c-.64.86-1.52,1.54-2.65,2.03-1.13.49-2.44.74-3.92.74s-2.81-.25-3.96-.74c-1.15-.49-2.05-1.17-2.7-2.03-.65-.86-.97-1.86-.97-2.99ZM695.93,431.49c0,.98.48,1.79,1.44,2.43.96.64,2.18.95,3.67.95s2.69-.31,3.62-.94c.92-.62,1.39-1.42,1.39-2.38,0-1.06-.46-1.91-1.39-2.57-.92-.66-2.13-.99-3.62-.99s-2.71.32-3.67.97c-.96.65-1.44,1.49-1.44,2.52ZM716.16,450.14h-19.76v-11.27h2.52v3.46h14.72v-3.46h2.52v11.27ZM698.92,444.67v3.13h14.72v-3.13h-14.72ZM713.64,421.2h-2.34v-2.34h4.86v7.31h5.08v2.34h-5.08v8.78h-2.52v-16.09Z"/><path class="cls-6" d="M740.18,424.87h-17.86v-2.34h7.49v-3.67h2.52v3.67h7.85v2.34ZM723.9,432.68c0-1.2.32-2.26.95-3.19.63-.92,1.52-1.65,2.65-2.18,1.13-.53,2.41-.79,3.85-.79s2.71.26,3.82.79c1.1.53,1.97,1.25,2.59,2.18.62.92.94,1.99.94,3.19s-.31,2.27-.94,3.2c-.62.94-1.49,1.67-2.59,2.2-1.1.53-2.38.79-3.82.79s-2.72-.26-3.85-.79c-1.13-.53-2.01-1.26-2.65-2.2-.64-.94-.95-2-.95-3.2ZM726.42,432.72c0,1.1.46,2.02,1.39,2.74.92.72,2.11,1.08,3.55,1.08s2.57-.35,3.47-1.04,1.35-1.6,1.35-2.7-.45-2.09-1.35-2.83c-.9-.73-2.06-1.1-3.47-1.1s-2.62.36-3.55,1.08c-.92.72-1.39,1.64-1.39,2.77ZM727,450.14v-9h2.52v6.66h19.44v2.34h-21.96ZM743.99,420.66h-2.34v-2.34h4.86v11.27h5.18v2.34h-5.18v11.2h-2.52v-22.46Z"/><path class="cls-6" d="M800.8,446.68h-29.34v-2.34h8.89l-.04-8.03h-5.47v-2.34h5.44l-.04-10.87h-5.22v-2.34h21.96v2.34h-5.36l.04,10.87h5.51v2.34h-5.47l.04,8.03h9.07v2.34ZM789.21,423.1h-6.55l.04,10.87h6.55l-.04-10.87ZM789.28,436.32h-6.55l.04,8.03h6.55l-.04-8.03Z"/><path class="cls-6" d="M819.74,424.87h-17.86v-2.34h7.49v-3.67h2.52v3.67h7.85v2.34ZM803.57,432.72c0-1.18.32-2.21.95-3.11.63-.9,1.51-1.61,2.63-2.12,1.12-.52,2.41-.77,3.87-.77.98,0,1.9.13,2.75.38.85.25,1.59.61,2.21,1.06h9.5v-7.49h-2.34v-2.34h4.86v24.19h-2.52v-5.44h-9.22c-.65.53-1.42.94-2.32,1.22s-1.88.43-2.93.43c-1.46,0-2.75-.26-3.87-.77-1.12-.52-1.99-1.22-2.63-2.12-.64-.9-.95-1.94-.95-3.11ZM806.09,432.75c0,1.06.46,1.93,1.39,2.61.92.68,2.11,1.03,3.55,1.03s2.57-.34,3.47-1.01c.9-.67,1.35-1.52,1.35-2.56,0-1.13-.45-2.04-1.35-2.74-.9-.7-2.06-1.04-3.47-1.04s-2.62.35-3.55,1.04c-.92.7-1.39,1.58-1.39,2.66ZM807.46,449.74v-8.6h2.52v6.26h18.68v2.34h-21.2ZM817.9,430.48c.31.65.47,1.39.47,2.23,0,.77-.12,1.44-.36,2.02h7.49v-4.25h-7.6Z"/><path class="cls-6" d="M856.42,450.61h-2.52v-7.2h-22.39v-2.34h7.24v-9.58h2.52v9.58h12.64v-20.05h-2.34v-2.16h4.86v12.85h5.33v2.34h-5.33v16.56ZM847.17,424.29h-13.9v-2.23h16.31v14.26h-2.41v-12.02Z"/><path class="cls-6" d="M883.56,437.61l-1.62-1.69,7.88-6.59v-5.98h-6.77v-2.34h16.34v2.34h-7.06v6.08l7.99,6.48-1.62,1.69-7.7-6.23-7.45,6.23ZM887.96,449.96v-10.44h2.52v8.1h18.94v2.34h-21.46ZM905.06,429.48h-7.74v-2.34h7.74v-6.62h-2.34v-2.16h4.86v23.9h-2.52v-12.78Z"/><path class="cls-6" d="M934,433.65h-20.52v-13.14h14.72v2.34h-12.2v8.46h18v-10.37h-2.34v-2.34h4.86v7.2h4.61v2.34h-4.61v6.73h-2.52v-1.22ZM934.5,438.91h-18.11v-2.34h20.45v7.67h-17.89v3.28h19.22v2.34h-21.56v-7.96h17.89v-2.99Z"/><path class="cls-6" d="M957.76,435.49h-14.04v-14.98h2.52v4.93h9.14v-4.93h2.38v14.98ZM946.24,427.78v5.36h9.14v-5.36h-9.14ZM946.64,444.6c0-1.82.89-3.22,2.68-4.19,1.79-.97,4.35-1.46,7.69-1.46,3.34-.02,5.9.45,7.69,1.42,1.79.97,2.68,2.38,2.68,4.23s-.89,3.4-2.68,4.45c-1.79,1.04-4.35,1.57-7.69,1.57s-5.9-.52-7.69-1.57-2.68-2.53-2.68-4.45ZM949.15,444.6c0,1.18.68,2.08,2.03,2.72,1.36.64,3.29.95,5.81.95s4.46-.32,5.81-.95c1.36-.64,2.03-1.54,2.03-2.72,0-1.06-.68-1.87-2.03-2.45-1.36-.58-3.29-.86-5.81-.86s-4.46.29-5.81.86c-1.36.58-2.03,1.39-2.03,2.45ZM964.35,420.48h-2.34v-2.34h4.86v8.17h5.08v2.34h-5.08v9.47h-2.52v-17.64Z"/><path class="cls-6" d="M974.86,435.38l-1.66-1.66,7.7-7.45v-6.59h2.52v6.59l7.88,6.95-1.66,1.66-7.49-6.55-7.31,7.06ZM998.26,450.61h-2.52v-9.04h-18.04v-2.34h20.56v11.38ZM995.74,420.66h-2.34v-2.34h4.86v18.9h-2.52v-16.56Z"/><path class="cls-6" d="M1031.49,434.95h-28.94v-2.34h28.94v2.34ZM1025.37,440.02h-19.04v-2.34h21.56v7.52h-19.04v3.02h20.02v2.34h-22.54v-7.7h19.04v-2.84ZM1006.83,424.69c0-1.1.43-2.08,1.3-2.93.86-.85,2.07-1.52,3.62-2,1.55-.48,3.32-.72,5.31-.72s3.79.24,5.33.72c1.54.48,2.74,1.15,3.6,2,.86.85,1.3,1.83,1.3,2.93s-.43,2.09-1.3,2.95c-.86.86-2.06,1.54-3.6,2.02-1.54.48-3.31.72-5.33.72s-3.76-.24-5.31-.72c-1.55-.48-2.75-1.15-3.62-2.02-.86-.86-1.3-1.85-1.3-2.95ZM1009.35,424.69c0,.65.33,1.23.99,1.75.66.52,1.57.92,2.72,1.21,1.15.29,2.48.43,4,.43s2.85-.14,4.01-.43,2.07-.69,2.72-1.21c.65-.52.97-1.1.97-1.75s-.32-1.22-.97-1.71c-.65-.49-1.55-.88-2.72-1.15s-2.5-.41-4.01-.41-2.84.14-4,.41c-1.15.28-2.06.66-2.72,1.15-.66.49-.99,1.06-.99,1.71Z"/><path class="cls-6" d="M1054.45,435.02l-1.58-1.73,7.88-7.31v-6.26h2.52v6.26l7.88,7.31-1.58,1.73-7.56-7.02-7.56,7.02ZM1058.41,450.57v-8.24h17.6v-2.95h-17.64v-2.34h20.16v7.63h-17.6v3.56h19.08v2.34h-21.6ZM1075.84,426.92h-7.63v-2.34h7.63v-3.53h-2.34v-2.34h4.86v16.6h-2.52v-8.39Z"/><path class="cls-6" d="M1083.22,441.32c3.36-1.94,5.94-4.45,7.74-7.52,1.63-2.74,2.5-5.75,2.59-9.04h-9.36v-2.34h11.92c.05.84.05,1.67,0,2.48-.05.82-.13,1.61-.25,2.38h4.86v-6.8h-2.34v-2.34h4.86v32.08h-2.52v-12.71h-6.01v-2.34h6.01v-5.54h-5.33c-.5,1.92-1.26,3.74-2.27,5.47-1.03,1.75-2.3,3.34-3.8,4.77-1.5,1.43-3.14,2.63-4.91,3.62l-1.19-2.16ZM1109.43,450.21h-2.52v-32.08h2.52v32.08Z"/><path class="cls-6" d="M1131.28,424.4h-18.22v-2.34h8.28v-3.67h2.52v3.67h7.42v2.34ZM1114.61,431.46c0-1.15.32-2.16.97-3.02.65-.86,1.55-1.54,2.7-2.03,1.15-.49,2.47-.74,3.96-.74s2.8.25,3.92.74c1.13.49,2.01,1.17,2.65,2.03.63.86.95,1.87.95,3.02s-.32,2.12-.95,2.99c-.64.86-1.52,1.54-2.65,2.03-1.13.49-2.44.74-3.92.74s-2.81-.25-3.96-.74c-1.15-.49-2.05-1.17-2.7-2.03-.65-.86-.97-1.86-.97-2.99ZM1117.13,431.49c0,.98.48,1.79,1.44,2.43.96.64,2.18.95,3.67.95s2.69-.31,3.62-.94c.92-.62,1.39-1.42,1.39-2.38,0-1.06-.46-1.91-1.39-2.57-.92-.66-2.13-.99-3.62-.99s-2.71.32-3.67.97c-.96.65-1.44,1.49-1.44,2.52ZM1137.36,450.14h-19.76v-11.27h2.52v3.46h14.72v-3.46h2.52v11.27ZM1120.12,444.67v3.13h14.72v-3.13h-14.72ZM1134.84,421.2h-2.34v-2.34h4.86v7.31h5.08v2.34h-5.08v8.78h-2.52v-16.09Z"/><path class="cls-6" d="M1166.09,441.14h-20.84l.07-20.2h2.52l-.07,17.86h18.32v-18.32h-1.98v-2.16h4.5v31.97h-2.52v-9.14Z"/><path class="cls-6" d="M1195.1,441.54h-20.27l.07-17.68v-1.33h14.51v2.34h-11.99l-.07,14.33h17.75v-18.72h-2.34v-2.34h4.86v12.78h5.54v2.34h-5.54v16.81h-2.52v-8.53Z"/><path class="cls-6" d="M1203.6,446.14v-4h4v4h-4Z"/><path class="cls-6" d="M553.79,523.72l-10.84-8.32,1.4-1.8,13.36,10.12-13.36,10.08-1.4-1.76,10.84-8.32Z"/><path class="cls-6" d="M594.38,538.41v-28.73h6.88v2.34h-4.36v24.05h4.36v2.34h-6.88Z"/><path class="cls-6" d="M612.74,519.79c1.66,0,3.12.35,4.39,1.04,1.27.7,2.27,1.65,2.99,2.86.72,1.21,1.08,2.61,1.08,4.19,0,1.73-.35,3.26-1.06,4.61-.71,1.34-1.69,2.39-2.95,3.15-1.26.76-2.72,1.13-4.37,1.13s-3.08-.35-4.34-1.04c-1.26-.7-2.25-1.66-2.95-2.88-.71-1.22-1.06-2.63-1.06-4.21h2.34c0,1.66.56,3.01,1.69,4.05,1.13,1.04,2.57,1.57,4.32,1.57,1.13,0,2.12-.27,2.97-.81.85-.54,1.52-1.3,2-2.27.48-.97.72-2.08.72-3.33,0-1.61-.53-2.93-1.58-3.96-1.06-1.03-2.42-1.56-4.1-1.58-1.15-.02-2.21.29-3.17.94-.96.65-1.61,1.5-1.94,2.56h-2.95v-15.05h15.05v2.7h-12.53v8.5c.72-.7,1.55-1.24,2.5-1.62.95-.38,1.94-.56,2.97-.54Z"/><path class="cls-6" d="M629.23,509.68v28.73h-6.88v-2.34h4.36v-24.05h-4.36v-2.34h6.88Z"/><path class="cls-6" d="M681.86,540.03h-2.52v-16.6h-4.72v8.03h-12.24v-19.33h12.24v8.96h4.72v-10.3h-2.34v-2.34h4.86v31.57ZM664.9,514.47v14.65h7.2v-14.65h-7.2ZM688.05,540.03h-2.52v-31.57h2.52v31.57Z"/><path class="cls-6" d="M693.88,533.08l-1.84-1.44,8.21-11.05v-9.18h2.52v9l8.6,11.2-1.8,1.48-7.99-10.37-7.7,10.37ZM717.89,540.46h-2.52v-29.63h-2.34v-2.34h4.86v31.97Z"/><path class="cls-6" d="M723.94,533.8l-1.8-1.58,8.32-9.47v-8.35h-7.27v-2.34h17.17v2.34h-7.38v8.35l8.32,9.47-1.8,1.58-7.78-8.82-7.78,8.82ZM747.92,540.46h-2.52v-29.63h-2.34v-2.34h4.86v31.97Z"/><path class="cls-6" d="M781.14,526.2h-28.84v-2.34h28.84v2.34ZM777.44,540.1h-21.2v-6.98h18.36v-2.16h-18.36v-2.34h20.88v6.66h-18.36v2.48h18.68v2.34ZM774.63,512.2h-18.36v-2.34h20.88v6.73h-18.36v2.66h18.68v2.34h-21.2v-7.16h18.36v-2.23Z"/><path class="cls-6" d="M803.9,524.69l-1.58-1.73,7.96-7.38v-5.8h2.52v5.94l7.81,7.24-1.58,1.73-7.56-7.02-7.56,7.02ZM807.75,540.28v-7.88h17.64v-2.77h-17.68v-2.34h20.2v7.45h-17.64v3.2h18.83v2.34h-21.35ZM825.39,510.65h-2.34v-2.34h4.86v17.1h-2.52v-14.76Z"/><path class="cls-6" d="M833.16,527.61l-1.62-1.69,8.64-6.95v-3.78h-6.95v-2.34h6.95v-4.25h2.52v4.25h6.73v2.34h-6.73v3.96l7.96,6.05-1.62,1.69-7.7-5.83-8.17,6.55ZM837.48,539.92v-9.72h2.52v7.38h19.26v2.34h-21.78ZM855.34,520.66h-6.41v-2.34h6.41v-7.49h-2.34v-2.34h4.86v23.83h-2.52v-11.66Z"/><path class="cls-6" d="M881.22,514h-19.37v-2.34h8.78v-3.28h2.52v3.28h8.06v2.34ZM863.73,520.77c0-1.08.34-2.03,1.01-2.84.67-.82,1.6-1.45,2.77-1.91,1.17-.46,2.52-.68,4.03-.68s2.85.23,4.01.68c1.16.46,2.07,1.09,2.72,1.91.65.82.97,1.76.97,2.84s-.32,1.99-.97,2.81c-.65.82-1.55,1.45-2.72,1.91-1.17.46-2.5.68-4.01.68s-2.86-.23-4.03-.68c-1.18-.46-2.1-1.09-2.77-1.91-.67-.82-1.01-1.75-1.01-2.81ZM866.25,520.8c0,.89.5,1.61,1.49,2.18s2.26.85,3.8.85,2.78-.28,3.74-.83c.96-.55,1.44-1.26,1.44-2.12,0-.94-.48-1.7-1.44-2.3-.96-.6-2.21-.9-3.74-.9s-2.8.29-3.8.88c-1,.59-1.49,1.34-1.49,2.25ZM883.92,530.52h-17.46v-2.34h19.98v7.13h-17.28v2.48h18.86v2.34h-21.38v-7.16h17.28v-2.45ZM883.92,510.51h-2.34v-2.34h4.86v8.42h5.51v2.34h-5.51v7.45h-2.52v-15.88Z"/><path class="cls-6" d="M927.52,525.66h-14.04v-14.98h2.52v4.93h9.14v-4.93h2.38v14.98ZM916,517.96v5.36h9.14v-5.36h-9.14ZM916.4,534.77c0-1.82.89-3.22,2.68-4.19,1.79-.97,4.35-1.46,7.69-1.46,3.34-.02,5.9.45,7.69,1.42,1.79.97,2.68,2.38,2.68,4.23s-.89,3.4-2.68,4.45c-1.79,1.04-4.35,1.57-7.69,1.57s-5.9-.52-7.69-1.57-2.68-2.53-2.68-4.45ZM918.91,534.77c0,1.18.68,2.08,2.03,2.72,1.36.64,3.29.95,5.81.95s4.46-.32,5.81-.95c1.36-.64,2.03-1.54,2.03-2.72,0-1.06-.68-1.87-2.03-2.45-1.36-.58-3.29-.86-5.81-.86s-4.46.29-5.81.86c-1.36.58-2.03,1.39-2.03,2.45ZM934.11,510.65h-2.34v-2.34h4.86v8.17h5.08v2.34h-5.08v9.47h-2.52v-17.64Z"/><path class="cls-6" d="M957.79,524.98h-13.46v-14.62h2.52v4.86h8.42v-4.86h2.52v5.62h7.38v-4.21h-2.34v-2.34h4.86v16.67h-2.52v-7.78h-7.38v6.66ZM946.85,517.56v5.08h8.42v-5.08h-8.42ZM967.66,540.06h-19.51v-12.49h2.52v4.28h14.47v-4.18h2.52v12.38ZM950.67,534.19v3.53h14.47v-3.53h-14.47Z"/><path class="cls-6" d="M1001.25,525.12h-28.94v-2.34h28.94v2.34ZM995.13,530.2h-19.04v-2.34h21.56v7.52h-19.04v3.02h20.02v2.34h-22.54v-7.7h19.04v-2.84ZM976.59,514.86c0-1.1.43-2.08,1.3-2.93.86-.85,2.07-1.52,3.62-2,1.55-.48,3.32-.72,5.31-.72s3.79.24,5.33.72c1.54.48,2.74,1.15,3.6,2,.86.85,1.3,1.83,1.3,2.93s-.43,2.09-1.3,2.95c-.86.86-2.06,1.54-3.6,2.02-1.54.48-3.31.72-5.33.72s-3.76-.24-5.31-.72c-1.55-.48-2.75-1.15-3.62-2.02-.86-.86-1.3-1.85-1.3-2.95ZM979.11,514.86c0,.65.33,1.23.99,1.75.66.52,1.57.92,2.72,1.21,1.15.29,2.48.43,4,.43s2.85-.14,4.01-.43,2.07-.69,2.72-1.21c.65-.52.97-1.1.97-1.75s-.32-1.22-.97-1.71c-.65-.49-1.55-.88-2.72-1.15s-2.5-.41-4.01-.41-2.84.14-4,.41c-1.15.28-2.06.66-2.72,1.15-.66.49-.99,1.06-.99,1.71Z"/><path class="cls-6" d="M1022.74,531.49c3.36-1.94,5.94-4.45,7.74-7.52,1.63-2.74,2.5-5.75,2.59-9.04h-9.36v-2.34h11.92c.05.84.05,1.67,0,2.48-.05.82-.13,1.61-.25,2.38h4.86v-6.8h-2.34v-2.34h4.86v32.08h-2.52v-12.71h-6.01v-2.34h6.01v-5.54h-5.33c-.5,1.92-1.26,3.74-2.27,5.47-1.03,1.75-2.3,3.34-3.8,4.77-1.5,1.43-3.14,2.63-4.91,3.62l-1.19-2.16ZM1048.95,540.39h-2.52v-32.08h2.52v32.08Z"/><path class="cls-6" d="M1071.19,514h-17.71v-2.34h7.38v-3.17h2.52v3.17h7.81v2.34ZM1077.96,529.98h-2.52v-1.12h-21.96v-2.34h7.38v-1.69c-1.75-.19-3.16-.72-4.23-1.58-1.07-.86-1.6-1.92-1.6-3.17,0-.98.31-1.85.94-2.59.62-.74,1.49-1.33,2.59-1.75,1.1-.42,2.36-.63,3.78-.63s2.66.21,3.74.63c1.08.42,1.93,1,2.54,1.75.61.74.92,1.61.92,2.59,0,1.3-.57,2.38-1.71,3.24-1.14.86-2.62,1.38-4.45,1.55v1.66h12.06v-15.66h-2.09v-2.34h4.61v21.46ZM1075.4,533.94h-18.79v-2.34h21.31v9.14h-2.52v-6.8ZM1057.48,520.12c0,.74.46,1.35,1.37,1.82.91.47,2.08.7,3.49.7s2.56-.23,3.44-.68,1.31-1.04,1.31-1.76c0-.84-.44-1.52-1.31-2.03-.88-.52-2.02-.77-3.44-.77s-2.58.25-3.49.76c-.91.5-1.37,1.16-1.37,1.98Z"/><path class="cls-6" d="M1101.04,514.57h-18.22v-2.34h8.28v-3.67h2.52v3.67h7.42v2.34ZM1084.37,521.63c0-1.15.32-2.16.97-3.02.65-.86,1.55-1.54,2.7-2.03,1.15-.49,2.47-.74,3.96-.74s2.8.25,3.92.74c1.13.49,2.01,1.17,2.65,2.03.63.86.95,1.87.95,3.02s-.32,2.12-.95,2.99c-.64.86-1.52,1.54-2.65,2.03-1.13.49-2.44.74-3.92.74s-2.81-.25-3.96-.74c-1.15-.49-2.05-1.17-2.7-2.03-.65-.86-.97-1.86-.97-2.99ZM1086.89,521.67c0,.98.48,1.79,1.44,2.43.96.64,2.18.95,3.67.95s2.69-.31,3.62-.94c.92-.62,1.39-1.42,1.39-2.38,0-1.06-.46-1.91-1.39-2.57-.92-.66-2.13-.99-3.62-.99s-2.71.32-3.67.97c-.96.65-1.44,1.49-1.44,2.52ZM1107.12,540.31h-19.76v-11.27h2.52v3.46h14.72v-3.46h2.52v11.27ZM1089.88,534.84v3.13h14.72v-3.13h-14.72ZM1104.6,511.37h-2.34v-2.34h4.86v7.31h5.08v2.34h-5.08v8.78h-2.52v-16.09Z"/><path class="cls-6" d="M1135.85,531.31h-20.84l.07-20.2h2.52l-.07,17.86h18.32v-18.32h-1.98v-2.16h4.5v31.97h-2.52v-9.14Z"/><path class="cls-6" d="M1164.86,531.71h-20.27l.07-17.68v-1.33h14.51v2.34h-11.99l-.07,14.33h17.75v-18.72h-2.34v-2.34h4.86v12.78h5.54v2.34h-5.54v16.81h-2.52v-8.53Z"/><path class="cls-6" d="M1173.36,536.32v-4h4v4h-4Z"/><path class="cls-6" d="M553.79,613.89l-10.84-8.32,1.4-1.8,13.36,10.12-13.36,10.08-1.4-1.76,10.84-8.32Z"/><path class="cls-6" d="M594.38,628.58v-28.73h6.88v2.34h-4.36v24.05h4.36v2.34h-6.88Z"/><path class="cls-6" d="M612.63,611.41c1.54,0,2.92.35,4.16,1.04,1.24.7,2.22,1.63,2.95,2.79.73,1.16,1.1,2.48,1.1,3.94s-.37,2.75-1.1,3.92c-.73,1.18-1.72,2.11-2.95,2.81-1.24.7-2.62,1.04-4.16,1.04s-2.92-.35-4.16-1.04c-1.24-.7-2.22-1.63-2.95-2.81-.73-1.18-1.1-2.5-1.1-3.96,0-.7.09-1.36.27-2,.18-.64.43-1.23.74-1.78l8.06-14.44h2.99l-6.23,10.8c.77-.22,1.56-.32,2.38-.32ZM607.12,619.15c0,.98.25,1.88.74,2.68.49.8,1.15,1.44,1.98,1.91s1.76.7,2.79.7,1.96-.23,2.79-.7,1.49-1.1,1.98-1.91c.49-.8.74-1.7.74-2.68s-.25-1.87-.74-2.65c-.49-.78-1.15-1.4-1.98-1.87-.83-.47-1.76-.7-2.79-.7s-1.96.23-2.79.7c-.83.47-1.49,1.09-1.98,1.87-.49.78-.74,1.66-.74,2.65Z"/><path class="cls-6" d="M629.23,599.85v28.73h-6.88v-2.34h4.36v-24.05h-4.36v-2.34h6.88Z"/><path class="cls-6" d="M690.06,614.54h-28.48v-2.34h28.48v2.34ZM680.6,603.74v-4.82h2.45v4.97l5.47,5.36-1.73,1.51-5.04-4.97-5.8,4.25-5.8-4.36-5.11,5.04-1.73-1.51,5.47-5.36v-4.97h2.45v4.72l4.72,3.6,4.64-3.46ZM686.97,630.42h-21.28v-7.74h17.82v-2.84h-17.82v-2.34h20.34v7.52h-17.82v3.06h18.76v2.34Z"/><path class="cls-6" d="M724.19,619.58h-13.28v-2.34h29.23v2.34h-13.43v11.38h-2.52v-11.38ZM714.4,614.04l-1.26-1.98,11.05-6.55v-5.18h2.52v5.15l11.12,6.59-1.26,1.98-11.09-6.55-11.09,6.55Z"/><path class="cls-6" d="M761.85,608.39c0-1.54.34-2.88,1.01-4.05.67-1.16,1.6-2.08,2.79-2.74,1.19-.66,2.55-.99,4.09-.99s2.89.33,4.05.99c1.16.66,2.08,1.57,2.74,2.74.66,1.17.99,2.51.99,4.05s-.33,2.84-.99,4c-.66,1.15-1.57,2.06-2.74,2.72-1.17.66-2.51.99-4.05.99s-2.9-.33-4.09-.99c-1.19-.66-2.12-1.57-2.79-2.72-.67-1.15-1.01-2.48-1.01-4ZM763.79,631.1l-1.73-1.51,6.7-6.08v-4.64h2.45v4.68l4.86,4.25,4.93-4.32v-4.61h2.52v4.79l6.62,6.01-1.73,1.51-6.26-5.72-6.08,5.36h-.04l-6.05-5.33-6.19,5.62ZM764.37,608.42c0,1.56.5,2.84,1.49,3.83,1,1,2.26,1.49,3.8,1.49s2.84-.5,3.83-1.51c1-1.01,1.49-2.29,1.49-3.85s-.49-2.92-1.46-3.92c-.97-1.01-2.24-1.51-3.8-1.51s-2.84.51-3.85,1.53-1.51,2.33-1.51,3.94ZM786.47,617.49h-2.52v-16.16h-2.52v-2.34h5.04v18.5Z"/><path class="cls-6" d="M819.74,617.28h-28.73v-2.34h28.73v2.34ZM816.78,629.95h-22.14v-9.32h2.52v6.98h19.62v2.34ZM815.81,610.65h-20.3v-11.02h2.52v8.68h17.78v2.34Z"/><path class="cls-6" d="M861.14,630.2h-2.52v-16.6h-4.72v8.03h-12.24v-19.33h12.24v8.96h4.72v-10.3h-2.34v-2.34h4.86v31.57ZM844.18,604.64v14.65h7.2v-14.65h-7.2ZM867.33,630.2h-2.52v-31.57h2.52v31.57Z"/><path class="cls-6" d="M873.16,623.25l-1.84-1.44,8.21-11.05v-9.18h2.52v9l8.6,11.2-1.8,1.48-7.99-10.37-7.7,10.37ZM897.17,630.63h-2.52v-29.63h-2.34v-2.34h4.86v31.97Z"/><path class="cls-6" d="M903.22,623.97l-1.8-1.58,8.32-9.47v-8.35h-7.27v-2.34h17.17v2.34h-7.38v8.35l8.32,9.47-1.8,1.58-7.78-8.82-7.78,8.82ZM927.19,630.63h-2.52v-29.63h-2.34v-2.34h4.86v31.97Z"/><path class="cls-6" d="M960.42,616.38h-28.84v-2.34h28.84v2.34ZM956.71,630.27h-21.2v-6.98h18.36v-2.16h-18.36v-2.34h20.88v6.66h-18.36v2.48h18.68v2.34ZM953.91,602.37h-18.36v-2.34h20.88v6.73h-18.36v2.66h18.68v2.34h-21.2v-7.16h18.36v-2.23Z"/><path class="cls-6" d="M989.22,603.81h-6.95v-2.34h16.2v2.34h-6.73v5.29l7.6,6.37-1.62,1.69-7.24-6.01h-.29l-7.63,6.37-1.62-1.69,8.28-6.91v-5.11ZM1002.72,622.28h-18.22v-2.34h20.74v11.02h-2.52v-8.68ZM1002.72,601.11h-2.34v-2.34h4.86v7.7h5.18v2.34h-5.18v9.14h-2.52v-16.85Z"/><path class="cls-6" d="M1014.1,616.81l-1.66-1.66,7.13-8.17v-6.7h2.52v6.55l7.81,7.56-1.66,1.66-7.31-7.02-6.84,7.78ZM1017.66,624.95c0-1.99.87-3.52,2.61-4.59s4.21-1.6,7.4-1.6,5.69.53,7.42,1.6c1.73,1.07,2.59,2.6,2.59,4.59s-.86,3.49-2.59,4.57c-1.73,1.08-4.2,1.62-7.42,1.62s-5.66-.54-7.4-1.62c-1.74-1.08-2.61-2.6-2.61-4.57ZM1020.11,624.95c0,1.25.65,2.21,1.96,2.9,1.31.68,3.17,1.03,5.6,1.03s4.29-.34,5.6-1.03c1.31-.68,1.96-1.65,1.96-2.9s-.65-2.24-1.96-2.92c-1.31-.67-3.17-1.01-5.6-1.01s-4.29.34-5.6,1.01c-1.31.67-1.96,1.64-1.96,2.92ZM1037.25,617.67h-2.52v-10.08h-6.98v-2.34h6.98v-4.61h-2.34v-2.16h4.86v19.19Z"/><path class="cls-6" d="M1060,604.75h-18.22v-2.34h8.28v-3.67h2.52v3.67h7.42v2.34ZM1043.33,611.81c0-1.15.32-2.16.97-3.02s1.55-1.54,2.7-2.03c1.15-.49,2.47-.74,3.96-.74s2.8.25,3.92.74c1.13.49,2.01,1.17,2.65,2.03.63.86.95,1.87.95,3.02s-.32,2.12-.95,2.99c-.64.86-1.52,1.54-2.65,2.03-1.13.49-2.44.74-3.92.74s-2.81-.25-3.96-.74c-1.15-.49-2.05-1.17-2.7-2.03s-.97-1.86-.97-2.99ZM1045.85,611.84c0,.98.48,1.79,1.44,2.43.96.64,2.18.95,3.67.95s2.69-.31,3.62-.94c.92-.62,1.39-1.42,1.39-2.38,0-1.06-.46-1.91-1.39-2.57-.92-.66-2.13-.99-3.62-.99s-2.71.32-3.67.97c-.96.65-1.44,1.49-1.44,2.52ZM1066.08,630.49h-19.76v-11.27h2.52v3.46h14.72v-3.46h2.52v11.27ZM1048.84,625.02v3.13h14.72v-3.13h-14.72ZM1063.56,601.55h-2.34v-2.34h4.86v7.31h5.08v2.34h-5.08v8.78h-2.52v-16.09Z"/><path class="cls-6" d="M1094.81,621.49h-20.84l.07-20.2h2.52l-.07,17.86h18.32v-18.32h-1.98v-2.16h4.5v31.97h-2.52v-9.14Z"/><path class="cls-6" d="M1123.82,621.89h-20.27l.07-17.68v-1.33h14.51v2.34h-11.99l-.07,14.33h17.75v-18.72h-2.34v-2.34h4.86v12.78h5.54v2.34h-5.54v16.81h-2.52v-8.53Z"/><path class="cls-6" d="M1132.32,626.49v-4h4v4h-4Z"/><path class="cls-6" d="M553.79,704.07l-10.84-8.32,1.4-1.8,13.36,10.12-13.36,10.08-1.4-1.76,10.84-8.32Z"/><path class="cls-6" d="M594.38,718.76v-28.73h6.88v2.34h-4.36v24.05h4.36v2.34h-6.88Z"/><path class="cls-6" d="M604.46,691.11h16.34v2.7l-9.5,22.86h-2.99l9.72-22.86h-13.57v-2.7Z"/><path class="cls-6" d="M629.23,690.03v28.73h-6.88v-2.34h4.36v-24.05h-4.36v-2.34h6.88Z"/><path class="cls-6" d="M681.86,720.38h-2.52v-16.6h-4.72v8.03h-12.24v-19.33h12.24v8.96h4.72v-10.3h-2.34v-2.34h4.86v31.57ZM664.9,694.82v14.65h7.2v-14.65h-7.2ZM688.05,720.38h-2.52v-31.57h2.52v31.57Z"/><path class="cls-6" d="M693.88,713.43l-1.84-1.44,8.21-11.05v-9.18h2.52v9l8.6,11.2-1.8,1.48-7.99-10.37-7.7,10.37ZM717.89,720.81h-2.52v-29.63h-2.34v-2.34h4.86v31.97Z"/><path class="cls-6" d="M723.94,714.15l-1.8-1.58,8.32-9.47v-8.35h-7.27v-2.34h17.17v2.34h-7.38v8.35l8.32,9.47-1.8,1.58-7.78-8.82-7.78,8.82ZM747.92,720.81h-2.52v-29.63h-2.34v-2.34h4.86v31.97Z"/><path class="cls-6" d="M768.33,692.3c.12,3.24-.39,6.28-1.53,9.13s-2.81,5.39-5,7.63c-2.2,2.25-4.83,4.11-7.9,5.6l-1.08-2.27c2.59-1.25,4.82-2.79,6.68-4.63,1.86-1.84,3.32-3.87,4.39-6.1,1.07-2.23,1.69-4.57,1.85-7.02h-11.77v-2.34h14.36ZM773.73,691.18h-2.34v-2.34h4.86v13.5h5.47v2.34h-5.47v16.45h-2.52v-29.95Z"/><path class="cls-6" d="M830.82,707.09h-29.2v-2.34h29.2v2.34ZM826.86,701.3h-21.24v-10.73h21.24v2.23h-18.83v6.26h18.83v2.23ZM816.28,721.42c-3.34,0-5.9-.52-7.7-1.57-1.8-1.04-2.7-2.51-2.7-4.41s.9-3.35,2.7-4.36,4.37-1.51,7.7-1.51,5.9.5,7.7,1.51c1.8,1.01,2.7,2.46,2.7,4.36s-.9,3.37-2.7,4.41c-1.8,1.04-4.37,1.57-7.7,1.57ZM808.4,715.45c0,1.18.68,2.08,2.05,2.7s3.31.94,5.83.94,4.46-.31,5.83-.94c1.37-.62,2.05-1.52,2.05-2.7s-.68-2-2.05-2.61c-1.37-.61-3.31-.92-5.83-.92s-4.46.31-5.83.92-2.05,1.48-2.05,2.61Z"/><path class="cls-6" d="M833.56,707.74l-1.62-1.69,8.35-7.27v-4.75h-7.7v-2.34h17.24v2.34h-7.02v4.86l8.1,6.55-1.62,1.69-7.81-6.26-7.92,6.88ZM836.01,715.45c0-1.92.92-3.39,2.77-4.41,1.85-1.02,4.48-1.53,7.88-1.53,3.43-.02,6.07.48,7.92,1.51,1.85,1.03,2.77,2.51,2.77,4.43s-.92,3.36-2.77,4.39c-1.85,1.03-4.49,1.55-7.92,1.55s-6.04-.52-7.88-1.55c-1.85-1.03-2.77-2.5-2.77-4.39ZM838.53,715.45c0,1.15.7,2.04,2.11,2.66,1.4.62,3.41.94,6.03.94s4.66-.31,6.07-.94c1.4-.62,2.11-1.51,2.11-2.66s-.7-2.04-2.11-2.66c-1.4-.62-3.43-.94-6.07-.94s-4.63.31-6.03.94c-1.4.62-2.11,1.51-2.11,2.66ZM856.71,708.25h-2.52v-16.52h-2.34v-2.34h4.86v7.99h4.97v2.34h-4.97v8.53Z"/><path class="cls-6" d="M877.8,695.46h-15.37v-2.16h6.52v-3.89h2.34v3.89h6.52v2.16ZM864.77,721.28l-1.73-1.51,6.7-6.08v-3.67h2.45v3.71l5.04,4.28,5.11-4.39v-3.6h2.52v3.82l6.62,6.01-1.73,1.51-6.3-5.72-6.23,5.36h-.04l-6.23-5.36-6.19,5.65ZM863.3,702.59c0-1.06.31-2,.92-2.84.61-.84,1.44-1.51,2.48-2.02,1.04-.5,2.2-.76,3.47-.76s2.42.25,3.46.76c1.03.5,1.85,1.18,2.45,2.02s.9,1.79.9,2.84-.3,1.97-.9,2.81-1.42,1.51-2.45,2c-1.03.49-2.18.74-3.46.74s-2.43-.25-3.47-.74-1.87-1.16-2.48-2c-.61-.84-.92-1.78-.92-2.81ZM865.81,702.63c0,.89.42,1.64,1.26,2.25s1.87.92,3.1.92,2.21-.3,3.04-.9c.83-.6,1.24-1.33,1.24-2.2,0-.96-.41-1.76-1.24-2.41-.83-.65-1.84-.97-3.04-.97s-2.26.32-3.1.95c-.84.64-1.26,1.42-1.26,2.36ZM879.75,691.97h-2.34v-2.34h4.86v8.42h4.07v-8.42h2.52v19.3h-2.52v-8.53h-4.07v8.53h-2.52v-16.96Z"/><path class="cls-6" d="M921.18,706.19h-28.48v-2.34h28.48v2.34ZM895.69,701.22l-1.12-2.05,11.12-6.01v-4.28h2.52v4.28l10.91,5.9-1.12,2.05-11.05-5.98-11.27,6.08ZM917.91,720.74h-21.89v-12.02h2.52v3.78h16.85v-3.78h2.52v12.02ZM898.54,714.83v3.56h16.85v-3.56h-16.85Z"/><path class="cls-6" d="M945.77,711.67h-20.84l.07-20.2h2.52l-.07,17.86h18.32v-18.32h-1.98v-2.16h4.5v31.97h-2.52v-9.14Z"/><path class="cls-6" d="M974.79,712.06h-20.27l.07-17.68v-1.33h14.51v2.34h-11.99l-.07,14.33h17.75v-18.72h-2.34v-2.34h4.86v12.78h5.54v2.34h-5.54v16.81h-2.52v-8.53Z"/><path class="cls-6" d="M983.28,716.67v-4h4v4h-4Z"/><path class="cls-6" d="M1019.35,716.45h-2.7v-25.34h10.01c2.28,0,4.04.59,5.27,1.78,1.24,1.19,1.85,2.95,1.85,5.27,0,2.21-.62,3.91-1.85,5.11s-2.99,1.8-5.27,1.8h-7.31v11.38ZM1019.35,693.63v8.93h7.31c1.46.02,2.57-.35,3.31-1.12.74-.77,1.12-1.86,1.12-3.28,0-1.51-.38-2.65-1.15-3.4-.77-.76-1.86-1.13-3.28-1.13h-7.31Z"/><path class="cls-6" d="M1042.75,716.67h-6.77v-25.56h6.77c3.7,0,6.39,1.02,8.08,3.06,1.69,2.04,2.54,5.28,2.54,9.72s-.85,7.68-2.54,9.72c-1.69,2.04-4.39,3.06-8.08,3.06ZM1038.69,693.81v20.16h4.07c2.76,0,4.77-.8,6.03-2.41,1.26-1.61,1.89-4.16,1.89-7.67s-.63-6.06-1.89-7.67c-1.26-1.61-3.27-2.41-6.03-2.41h-4.07Z"/><path class="cls-6" d="M1058.7,703.89v12.78h-2.7v-25.56h15.52v2.52h-12.82v7.74h12.2v2.52h-12.2Z"/><path class="cls-6" d="M1095.28,712.46h-20.2l.07-20.45h2.52l-.07,18.11h17.68v-18.4h-2.34v-2.34h4.86v12.78h5.62v2.34h-5.62v16.09h-2.52v-8.14Z"/><path class="cls-6" d="M1124.98,707.71l-1.62-1.69,6.62-6.05v-4.1h-5.94v-2.34h5.94v-4.14h2.52v4.14h5.94v2.34h-5.94v3.89l6.62,5.9-1.62,1.73-6.16-5.62-6.37,5.94ZM1147.55,713.03h-18.86v-2.34h21.38v10.44h-2.52v-8.1ZM1141.03,691.94h-2.34v-2.34h4.86v8.21h4v-8.21h2.52v19.19h-2.52v-8.64h-4v8.64h-2.52v-16.85Z"/><path class="cls-6" d="M1162.7,695.36h-7.45v-2.34h17.39v2.34h-7.42v7.7l8.57,10.44-1.8,1.48-7.99-9.72-7.7,9.72-1.84-1.44,8.24-10.4v-7.78ZM1177.18,691.29h-2.34v-2.34h4.86v12.92h5.87v2.34h-5.87v16.7h-2.52v-29.63Z"/><path class="cls-6" d="M1188.19,698.13c0-1.39.34-2.65,1.03-3.78.68-1.13,1.61-2.03,2.77-2.7,1.16-.67,2.47-1.01,3.91-1.01,1.44.05,2.74.42,3.89,1.12,1.15.7,2.06,1.6,2.74,2.7.67,1.1,1.01,2.33,1.01,3.67s-.34,2.61-1.01,3.73c-.67,1.12-1.58,2-2.74,2.66-1.15.66-2.45.99-3.89.99s-2.74-.33-3.91-.99c-1.17-.66-2.09-1.55-2.77-2.66-.68-1.12-1.03-2.36-1.03-3.73ZM1190.71,698.13c0,.94.23,1.79.68,2.56.46.77,1.08,1.38,1.87,1.82.79.44,1.67.67,2.63.67s1.82-.22,2.59-.67c.77-.44,1.38-1.05,1.84-1.82.46-.77.68-1.62.68-2.56s-.23-1.83-.68-2.61c-.46-.78-1.07-1.4-1.84-1.85-.77-.46-1.63-.68-2.59-.68s-1.84.23-2.63.68-1.42,1.07-1.87,1.85c-.46.78-.68,1.65-.68,2.61ZM1212.89,721.03h-20.38v-12.78h2.52v3.78h15.34v-3.78h2.52v12.78ZM1195.03,714.37v4.32h15.34v-4.32h-15.34ZM1210.33,690.68h-2.34v-2.16h4.86v17.96h-2.52v-15.8Z"/><path class="cls-6" d="M1239.92,711.67h-20.84l.07-20.2h2.52l-.07,17.86h18.32v-18.32h-1.98v-2.16h4.5v31.97h-2.52v-9.14Z"/><path class="cls-6" d="M1268.94,712.06h-20.27l.07-17.68v-1.33h14.51v2.34h-11.99l-.07,14.33h17.75v-18.72h-2.34v-2.34h4.86v12.78h5.54v2.34h-5.54v16.81h-2.52v-8.53Z"/><path class="cls-6" d="M1277.44,716.67v-4h4v4h-4Z"/><path class="cls-6" d="M553.79,794.24l-10.84-8.32,1.4-1.8,13.36,10.12-13.36,10.08-1.4-1.76,10.84-8.32Z"/><path class="cls-6" d="M594.38,808.93v-28.73h6.88v2.34h-4.36v24.05h4.36v2.34h-6.88Z"/><path class="cls-6" d="M603.88,799.5c0-1.51.38-2.85,1.13-4.01.76-1.16,1.79-2.06,3.11-2.68-1.01-.58-1.79-1.34-2.36-2.29-.56-.95-.85-2.02-.85-3.22,0-1.3.33-2.44.99-3.44.66-1,1.57-1.78,2.72-2.34,1.15-.56,2.48-.85,4-.85s2.81.29,3.96.86c1.15.58,2.05,1.36,2.7,2.36.65,1,.97,2.14.97,3.44,0,1.18-.28,2.24-.85,3.19-.56.95-1.34,1.71-2.32,2.29,1.32.62,2.36,1.52,3.11,2.68.76,1.17,1.13,2.51,1.13,4.05s-.37,2.8-1.12,3.94c-.74,1.14-1.77,2.03-3.08,2.68-1.31.65-2.81.97-4.52.97s-3.25-.32-4.55-.97c-1.31-.65-2.33-1.55-3.08-2.7-.74-1.15-1.12-2.47-1.12-3.96ZM612.63,794.35c-1.78,0-3.23.48-4.36,1.44-1.13.96-1.69,2.2-1.69,3.71s.56,2.71,1.69,3.67c1.13.96,2.58,1.44,4.36,1.44s3.22-.48,4.34-1.44c1.12-.96,1.67-2.18,1.67-3.67s-.56-2.75-1.67-3.71c-1.12-.96-2.56-1.44-4.34-1.44ZM607.63,787.3c0,1.3.47,2.35,1.4,3.17.94.82,2.14,1.22,3.6,1.22s2.62-.41,3.55-1.22c.92-.82,1.39-1.87,1.39-3.17,0-1.2-.46-2.18-1.39-2.95-.92-.77-2.11-1.15-3.55-1.15s-2.66.38-3.6,1.15c-.94.77-1.4,1.75-1.4,2.95Z"/><path class="cls-6" d="M629.23,780.2v28.73h-6.88v-2.34h4.36v-24.05h-4.36v-2.34h6.88Z"/><path class="cls-6" d="M684.52,805.55h-22.5v-2.34h22.5v-21.78h-1.98v-2.34h4.5v32.22h-2.52v-5.76ZM681.24,785.75h-18.58v-2.34h8.03v-3.85h2.52v3.85h8.03v2.34ZM664.51,793.7c0-1.94.67-3.48,2.02-4.61,1.34-1.13,3.18-1.69,5.51-1.69s4.09.56,5.42,1.69c1.33,1.13,2,2.66,2,4.61s-.67,3.44-2,4.57c-1.33,1.13-3.14,1.69-5.42,1.69s-4.16-.56-5.51-1.69c-1.34-1.13-2.02-2.65-2.02-4.57ZM667.02,793.74c0,1.18.45,2.12,1.35,2.83.9.71,2.12,1.06,3.65,1.06s2.68-.35,3.56-1.04c.89-.7,1.33-1.63,1.33-2.81,0-1.25-.44-2.23-1.33-2.95-.89-.72-2.08-1.08-3.56-1.08s-2.75.36-3.65,1.08c-.9.72-1.35,1.69-1.35,2.92Z"/><path class="cls-6" d="M708.68,802.38h-15.8v-18.54h11.77v2.34h-9.25v13.86h13.28v-18.07h-2.34v-2.34h4.86v12.2h4.64v-12.2h2.52v31.28h-2.52v-16.74h-4.64v16.74h-2.52v-8.53Z"/><path class="cls-6" d="M745.14,803.86h-23v-2.34h22.97l-.04-20.12h-2.38v-2.34h4.97v32.26h-2.52v-7.45ZM724.55,789.38c0-1.32.35-2.52,1.06-3.6.71-1.08,1.66-1.95,2.84-2.61,1.19-.66,2.48-.99,3.87-.99,1.39.05,2.67.41,3.83,1.1,1.16.68,2.1,1.56,2.81,2.63.71,1.07,1.06,2.23,1.06,3.47s-.35,2.45-1.06,3.53-1.64,1.94-2.81,2.59c-1.16.65-2.44.97-3.83.97s-2.68-.32-3.87-.97c-1.19-.65-2.14-1.51-2.84-2.59-.71-1.08-1.06-2.26-1.06-3.53ZM727.07,789.38c0,.84.24,1.62.72,2.34.48.72,1.12,1.3,1.93,1.73.8.43,1.67.65,2.61.65s1.8-.22,2.59-.65c.79-.43,1.42-1.01,1.89-1.73.47-.72.7-1.5.7-2.34,0-.89-.23-1.7-.7-2.43-.47-.73-1.1-1.32-1.89-1.76-.79-.44-1.66-.67-2.59-.67s-1.81.22-2.61.67c-.8.44-1.45,1.03-1.93,1.76-.48.73-.72,1.54-.72,2.43Z"/><path class="cls-6" d="M772.58,789.67c0-1.58.34-2.99,1.03-4.21.68-1.22,1.63-2.18,2.83-2.86,1.2-.68,2.58-1.03,4.14-1.03,1.37,0,2.6.27,3.69.81,1.09.54,1.97,1.29,2.65,2.25h7.92v-3.13h-2.34v-2.34h4.86v23.8h-2.52v-8.53h-7.88c-.7.91-1.59,1.63-2.68,2.14-1.09.52-2.32.77-3.69.77-1.56,0-2.94-.32-4.14-.97-1.2-.65-2.14-1.55-2.83-2.72-.68-1.16-1.03-2.49-1.03-3.98ZM775.1,789.71c0,1.54.5,2.8,1.51,3.78,1.01.98,2.3,1.48,3.89,1.48s2.84-.5,3.85-1.49c1.01-1,1.51-2.26,1.51-3.8,0-1.7-.49-3.09-1.48-4.16-.98-1.07-2.26-1.6-3.82-1.6s-2.92.54-3.94,1.62c-1.02,1.08-1.53,2.47-1.53,4.18ZM799.04,810.73h-22v-10.4h2.52v8.06h19.48v2.34ZM788.06,786.97c.26.86.4,1.76.4,2.7,0,.84-.11,1.64-.32,2.41h6.7v-5.11h-6.77Z"/><path class="cls-6" d="M803.9,795.72l-1.58-1.73,7.88-7.31v-6.26h2.52v6.26l7.88,7.31-1.58,1.73-7.56-7.02-7.56,7.02ZM807.85,811.27v-8.24h17.6v-2.95h-17.64v-2.34h20.16v7.63h-17.6v3.56h19.08v2.34h-21.6ZM825.28,787.62h-7.63v-2.34h7.63v-3.53h-2.34v-2.34h4.86v16.6h-2.52v-8.39Z"/><path class="cls-6" d="M860.85,795.65h-28.94v-2.34h28.94v2.34ZM854.73,800.72h-19.04v-2.34h21.56v7.52h-19.04v3.02h20.02v2.34h-22.54v-7.7h19.04v-2.84ZM836.19,785.39c0-1.1.43-2.08,1.3-2.93s2.07-1.52,3.62-2c1.55-.48,3.32-.72,5.31-.72s3.79.24,5.33.72c1.54.48,2.74,1.15,3.6,2,.86.85,1.3,1.83,1.3,2.93s-.43,2.09-1.3,2.95c-.86.86-2.06,1.54-3.6,2.02-1.54.48-3.31.72-5.33.72s-3.76-.24-5.31-.72c-1.55-.48-2.75-1.15-3.62-2.02s-1.3-1.85-1.3-2.95ZM838.71,785.39c0,.65.33,1.23.99,1.75.66.52,1.57.92,2.72,1.21,1.15.29,2.48.43,4,.43s2.85-.14,4.01-.43,2.07-.69,2.72-1.21c.65-.52.97-1.1.97-1.75s-.32-1.22-.97-1.71c-.65-.49-1.55-.88-2.72-1.15-1.16-.28-2.5-.41-4.01-.41s-2.84.14-4,.41c-1.15.28-2.06.66-2.72,1.15-.66.49-.99,1.06-.99,1.71Z"/><path class="cls-6" d="M894.9,797.16h-13v-2.34h28.48v2.34h-12.96v6.98h-2.52v-6.98ZM885.26,792.84l-1.12-2.05,10.76-6.23v-1.84h-9.65v-2.34h21.56v2.34h-9.4v1.84l10.55,6.12-1.12,2.05-10.69-6.23-10.91,6.34ZM885.94,810.3v-9h2.52v6.66h18.25v2.34h-20.77Z"/><path class="cls-6" d="M928.24,801.98h-14.47v-19.33h2.52v8.17h9.43v-8.17h2.52v19.33ZM916.29,793.16v6.48h9.43v-6.48h-9.43ZM937.78,810.98h-2.52v-29.81h-2.34v-2.16h4.86v31.97Z"/><path class="cls-6" d="M960.64,785.1h-18.22v-2.34h8.28v-3.67h2.52v3.67h7.42v2.34ZM943.97,792.16c0-1.15.32-2.16.97-3.02s1.55-1.54,2.7-2.03c1.15-.49,2.47-.74,3.96-.74s2.8.25,3.92.74c1.13.49,2.01,1.17,2.65,2.03.63.86.95,1.87.95,3.02s-.32,2.12-.95,2.99c-.64.86-1.52,1.54-2.65,2.03-1.13.49-2.44.74-3.92.74s-2.81-.25-3.96-.74c-1.15-.49-2.05-1.17-2.7-2.03s-.97-1.86-.97-2.99ZM946.49,792.19c0,.98.48,1.79,1.44,2.43.96.64,2.18.95,3.67.95s2.69-.31,3.62-.94c.92-.62,1.39-1.42,1.39-2.38,0-1.06-.46-1.91-1.39-2.57-.92-.66-2.13-.99-3.62-.99s-2.71.32-3.67.97c-.96.65-1.44,1.49-1.44,2.52ZM966.72,810.84h-19.76v-11.27h2.52v3.46h14.72v-3.46h2.52v11.27ZM949.48,805.37v3.13h14.72v-3.13h-14.72ZM964.2,781.9h-2.34v-2.34h4.86v7.31h5.08v2.34h-5.08v8.78h-2.52v-16.09Z"/><path class="cls-6" d="M995.45,801.84h-20.84l.07-20.2h2.52l-.07,17.86h18.32v-18.32h-1.98v-2.16h4.5v31.97h-2.52v-9.14Z"/><path class="cls-6" d="M1024.47,802.24h-20.27l.07-17.68v-1.33h14.51v2.34h-11.99l-.07,14.33h17.75v-18.72h-2.34v-2.34h4.86v12.78h5.54v2.34h-5.54v16.81h-2.52v-8.53Z"/><path class="cls-6" d="M1032.96,806.84v-4h4v4h-4Z"/><path class="cls-6" d="M553.79,884.42l-10.84-8.32,1.4-1.8,13.36,10.12-13.36,10.08-1.4-1.76,10.84-8.32Z"/><path class="cls-6" d="M594.38,899.11v-28.73h6.88v2.34h-4.36v24.05h4.36v2.34h-6.88Z"/><path class="cls-6" d="M612.63,886.47c-1.54,0-2.92-.35-4.16-1.04-1.24-.7-2.22-1.63-2.95-2.81-.73-1.17-1.1-2.48-1.1-3.92s.37-2.78,1.1-3.96c.73-1.18,1.71-2.12,2.95-2.83,1.24-.71,2.62-1.06,4.16-1.06s2.92.35,4.16,1.06c1.24.71,2.22,1.66,2.95,2.84.73,1.19,1.1,2.51,1.1,3.98,0,1.37-.34,2.63-1.01,3.78l-8.14,14.51h-2.99l6.3-10.87c-.74.22-1.54.32-2.38.32ZM607.12,878.73c0,.96.25,1.84.74,2.63.49.79,1.15,1.42,1.98,1.89.83.47,1.76.7,2.79.7s1.96-.23,2.79-.7c.83-.47,1.49-1.1,1.98-1.89.49-.79.74-1.67.74-2.63s-.25-1.88-.74-2.7c-.49-.82-1.15-1.46-1.98-1.94s-1.76-.72-2.79-.72-1.96.24-2.79.72-1.49,1.13-1.98,1.94c-.49.82-.74,1.72-.74,2.7Z"/><path class="cls-6" d="M629.23,870.38v28.73h-6.88v-2.34h4.36v-24.05h-4.36v-2.34h6.88Z"/><path class="cls-6" d="M677.28,888.02h-14.44v-15.48h2.52v4.82h9.4v-4.82h2.52v15.48ZM665.37,879.7v5.98h9.4v-5.98h-9.4ZM687.62,900.98h-21.13v-10.01h2.52v7.67h18.61v2.34ZM686.1,893.13h-2.52v-21.06h-2.34v-2.34h4.86v9.76h5.11v2.34h-5.11v11.3Z"/><path class="cls-6" d="M708.68,892.55h-15.8v-18.54h11.77v2.34h-9.25v13.86h13.28v-18.07h-2.34v-2.34h4.86v12.2h4.64v-12.2h2.52v31.28h-2.52v-16.74h-4.64v16.74h-2.52v-8.53Z"/><path class="cls-6" d="M745.14,894.03h-23v-2.34h22.97l-.04-20.12h-2.38v-2.34h4.97v32.26h-2.52v-7.45ZM724.55,879.56c0-1.32.35-2.52,1.06-3.6.71-1.08,1.66-1.95,2.84-2.61,1.19-.66,2.48-.99,3.87-.99,1.39.05,2.67.41,3.83,1.1,1.16.68,2.1,1.56,2.81,2.63.71,1.07,1.06,2.23,1.06,3.47s-.35,2.45-1.06,3.53-1.64,1.94-2.81,2.59c-1.16.65-2.44.97-3.83.97s-2.68-.32-3.87-.97c-1.19-.65-2.14-1.51-2.84-2.59-.71-1.08-1.06-2.26-1.06-3.53ZM727.07,879.56c0,.84.24,1.62.72,2.34.48.72,1.12,1.3,1.93,1.73.8.43,1.67.65,2.61.65s1.8-.22,2.59-.65c.79-.43,1.42-1.01,1.89-1.73.47-.72.7-1.5.7-2.34,0-.89-.23-1.7-.7-2.43-.47-.73-1.1-1.32-1.89-1.76-.79-.44-1.66-.67-2.59-.67s-1.81.22-2.61.67c-.8.44-1.45,1.03-1.93,1.76-.48.73-.72,1.54-.72,2.43Z"/><path class="cls-6" d="M763.9,883.77c-1.25,1.3-2.69,2.42-4.34,3.37-1.64.95-3.4,1.67-5.27,2.18l-.72-2.41c1.68-.46,3.25-1.09,4.7-1.91,1.45-.82,2.74-1.81,3.87-2.99,1.13-1.13,2.02-2.35,2.68-3.65.66-1.31,1.1-2.67,1.31-4.09h-12.38v-2.45h14.94l-.07,2.45c-.05.86-.17,1.67-.36,2.41h7.42v-4.1h-2.34v-2.34h4.86v22.79h-2.52v-7.02h-9.14v-2.34h9.14v-4.64h-8.32c-.41.86-.91,1.69-1.51,2.48-.6.79-1.25,1.55-1.94,2.27ZM779.81,900.73h-21.35v-9.9h2.52v7.56h18.83v2.34Z"/><path class="cls-6" d="M806.74,901.48h-2.52v-7.2h-22.39v-2.34h7.24v-9.58h2.52v9.58h12.64v-20.05h-2.34v-2.16h4.86v12.85h5.33v2.34h-5.33v16.56ZM797.49,875.17h-13.9v-2.23h16.31v14.26h-2.41v-12.02Z"/><path class="cls-6" d="M854.62,873.44h-19.26v-2.34h21.78v13.54h3.56v2.34h-28.8v-2.34h12.1v-6.3h2.52v6.3h8.1v-11.2ZM835.36,895.79c0-1.97.92-3.44,2.77-4.41,1.85-.97,4.57-1.46,8.17-1.46s6.33.49,8.19,1.46c1.86.97,2.79,2.44,2.79,4.41s-.93,3.49-2.79,4.48c-1.86,1-4.59,1.49-8.19,1.49s-6.32-.5-8.17-1.49c-1.85-1-2.77-2.49-2.77-4.48ZM837.88,895.79c0,1.22.71,2.14,2.14,2.74,1.43.6,3.52.9,6.28.9s4.86-.3,6.3-.9c1.44-.6,2.16-1.51,2.16-2.74s-.72-2.09-2.16-2.66c-1.44-.58-3.54-.86-6.3-.86s-4.85.29-6.28.86c-1.43.58-2.14,1.46-2.14,2.66Z"/><path class="cls-6" d="M863.01,885.61c1.06-.26,2.15-.62,3.29-1.06,1.14-.44,2.24-.97,3.29-1.57,1.06-.6,1.98-1.25,2.77-1.94,1.13-.98,2.02-2.05,2.68-3.2.66-1.15,1.11-2.42,1.35-3.82h-11.92v-2.34h14.29l-.22,3.17h7.16v-3.28h-2.34v-2.34h4.86v19.26h-2.52v-5.22h-8.35v-2.34h8.35v-3.74h-7.81c-.43,1.18-.97,2.2-1.6,3.08-.64.88-1.43,1.76-2.39,2.65-.89.82-1.91,1.56-3.08,2.23-1.17.67-2.38,1.26-3.65,1.76-1.27.5-2.5.91-3.67,1.22l-.5-2.52ZM885.72,892.27h-18.36v-2.34h20.88v11.56h-2.52v-9.22Z"/><path class="cls-6" d="M921.33,885.82h-28.94v-2.34h28.94v2.34ZM915.21,890.9h-19.04v-2.34h21.56v7.52h-19.04v3.02h20.02v2.34h-22.54v-7.7h19.04v-2.84ZM896.67,875.56c0-1.1.43-2.08,1.3-2.93s2.07-1.52,3.62-2c1.55-.48,3.32-.72,5.31-.72s3.79.24,5.33.72c1.54.48,2.74,1.15,3.6,2,.86.85,1.3,1.83,1.3,2.93s-.43,2.09-1.3,2.95c-.86.86-2.06,1.54-3.6,2.02-1.54.48-3.31.72-5.33.72s-3.76-.24-5.31-.72c-1.55-.48-2.75-1.15-3.62-2.02s-1.3-1.85-1.3-2.95ZM899.19,875.56c0,.65.33,1.23.99,1.75.66.52,1.57.92,2.72,1.21,1.15.29,2.48.43,4,.43s2.85-.14,4.01-.43,2.07-.69,2.72-1.21c.65-.52.97-1.1.97-1.75s-.32-1.22-.97-1.71c-.65-.49-1.55-.88-2.72-1.15-1.16-.28-2.5-.41-4.01-.41s-2.84.14-4,.41c-1.15.28-2.06.66-2.72,1.15-.66.49-.99,1.06-.99,1.71Z"/><path class="cls-6" d="M957.76,886.36h-14.04v-14.98h2.52v4.93h9.14v-4.93h2.38v14.98ZM946.24,878.66v5.36h9.14v-5.36h-9.14ZM946.64,895.47c0-1.82.89-3.22,2.68-4.19,1.79-.97,4.35-1.46,7.69-1.46,3.34-.02,5.9.45,7.69,1.42,1.79.97,2.68,2.38,2.68,4.23s-.89,3.4-2.68,4.45c-1.79,1.04-4.35,1.57-7.69,1.57s-5.9-.52-7.69-1.57c-1.79-1.04-2.68-2.53-2.68-4.45ZM949.15,895.47c0,1.18.68,2.08,2.03,2.72,1.36.64,3.29.95,5.81.95s4.46-.32,5.81-.95c1.36-.64,2.03-1.54,2.03-2.72,0-1.06-.68-1.87-2.03-2.45-1.36-.58-3.29-.86-5.81-.86s-4.46.29-5.81.86c-1.36.58-2.03,1.39-2.03,2.45ZM964.35,871.35h-2.34v-2.34h4.86v8.17h5.08v2.34h-5.08v9.47h-2.52v-17.64Z"/><path class="cls-6" d="M998.47,901.66h-2.52v-17.5h-7.52c-.14,2.9-.87,5.13-2.18,6.68-1.31,1.55-3.11,2.32-5.42,2.32-2.47,0-4.37-.87-5.71-2.61s-2-4.23-2-7.47.67-5.81,2-7.56c1.33-1.75,3.23-2.63,5.71-2.63,2.28.1,4.07.91,5.38,2.45,1.31,1.54,2.05,3.7,2.21,6.48h7.52v-9.94h-2.34v-2.34h4.86v32.11ZM975.65,883.09c0,2.47.45,4.38,1.35,5.72.9,1.34,2.18,2.02,3.83,2.02s2.89-.67,3.78-2.02c.89-1.34,1.33-3.25,1.33-5.72s-.44-4.46-1.33-5.81c-.89-1.36-2.15-2.03-3.78-2.03s-2.93.68-3.83,2.03c-.9,1.36-1.35,3.29-1.35,5.81Z"/><path class="cls-6" d="M1021.62,874.7h-19.37v-2.34h8.78v-3.28h2.52v3.28h8.06v2.34ZM1004.13,881.47c0-1.08.34-2.03,1.01-2.84.67-.82,1.6-1.45,2.77-1.91,1.17-.46,2.52-.68,4.03-.68s2.85.23,4.01.68c1.16.46,2.07,1.09,2.72,1.91.65.82.97,1.76.97,2.84s-.32,1.99-.97,2.81c-.65.82-1.55,1.45-2.72,1.91-1.17.46-2.5.68-4.01.68s-2.86-.23-4.03-.68c-1.18-.46-2.1-1.09-2.77-1.91-.67-.82-1.01-1.75-1.01-2.81ZM1006.65,881.5c0,.89.5,1.61,1.49,2.18,1,.56,2.26.85,3.8.85s2.78-.28,3.74-.83c.96-.55,1.44-1.26,1.44-2.12,0-.94-.48-1.7-1.44-2.3-.96-.6-2.21-.9-3.74-.9s-2.8.29-3.8.88-1.49,1.34-1.49,2.25ZM1024.32,891.22h-17.46v-2.34h19.98v7.13h-17.28v2.48h18.86v2.34h-21.38v-7.16h17.28v-2.45ZM1024.32,871.21h-2.34v-2.34h4.86v8.42h5.51v2.34h-5.51v7.45h-2.52v-15.88Z"/><path class="cls-6" d="M1074.36,885.21h-20.41v-13.46h14.11v2.34h-11.59v8.78h17.89v-10.8h-2.34v-2.34h4.86v6.95h4.72v.36h.36v2.34h-5.08v7.74h-2.52v-1.91ZM1076.88,901.01h-19.76v-12.31h2.52v3.82h14.72v-3.82h2.52v12.31ZM1059.64,894.86v3.82h14.72v-3.82h-14.72Z"/><path class="cls-6" d="M1097.94,887.59h-13.68v-16.31h2.52v5.69h8.64v-5.69h2.52v5.69h8.24v-5.26h-2.34v-2.34h4.86v23.54h-2.52v-8.6h-8.24v3.28ZM1086.78,879.31v5.94h8.64v-5.94h-8.64ZM1109.79,900.62h-20.95v-9.86h2.52v7.52h18.43v2.34ZM1097.94,879.31v2.66h8.24v-2.66h-8.24Z"/><path class="cls-6" d="M1141.65,885.82h-28.94v-2.34h28.94v2.34ZM1135.52,890.9h-19.04v-2.34h21.56v7.52h-19.04v3.02h20.02v2.34h-22.54v-7.7h19.04v-2.84ZM1116.98,875.56c0-1.1.43-2.08,1.3-2.93s2.07-1.52,3.62-2c1.55-.48,3.32-.72,5.31-.72s3.79.24,5.33.72c1.54.48,2.74,1.15,3.6,2,.86.85,1.3,1.83,1.3,2.93s-.43,2.09-1.3,2.95c-.86.86-2.06,1.54-3.6,2.02-1.54.48-3.31.72-5.33.72s-3.76-.24-5.31-.72c-1.55-.48-2.75-1.15-3.62-2.02s-1.3-1.85-1.3-2.95ZM1119.5,875.56c0,.65.33,1.23.99,1.75.66.52,1.57.92,2.72,1.21,1.15.29,2.48.43,4,.43s2.85-.14,4.01-.43,2.07-.69,2.72-1.21c.65-.52.97-1.1.97-1.75s-.32-1.22-.97-1.71c-.65-.49-1.55-.88-2.72-1.15-1.16-.28-2.5-.41-4.01-.41s-2.84.14-4,.41c-1.15.28-2.06.66-2.72,1.15-.66.49-.99,1.06-.99,1.71Z"/><path class="cls-6" d="M1175.7,887.33h-13v-2.34h28.48v2.34h-12.96v6.98h-2.52v-6.98ZM1166.05,883.01l-1.12-2.05,10.76-6.23v-1.84h-9.65v-2.34h21.56v2.34h-9.4v1.84l10.55,6.12-1.12,2.05-10.69-6.23-10.91,6.34ZM1166.74,900.47v-9h2.52v6.66h18.25v2.34h-20.77Z"/><path class="cls-6" d="M1209.04,892.16h-14.47v-19.33h2.52v8.17h9.43v-8.17h2.52v19.33ZM1197.08,883.34v6.48h9.43v-6.48h-9.43ZM1218.58,901.16h-2.52v-29.81h-2.34v-2.16h4.86v31.97Z"/><path class="cls-6" d="M1241.44,875.27h-18.22v-2.34h8.28v-3.67h2.52v3.67h7.42v2.34ZM1224.77,882.33c0-1.15.32-2.16.97-3.02s1.55-1.54,2.7-2.03c1.15-.49,2.47-.74,3.96-.74s2.8.25,3.92.74c1.13.49,2.01,1.17,2.65,2.03.63.86.95,1.87.95,3.02s-.32,2.12-.95,2.99c-.64.86-1.52,1.54-2.65,2.03-1.13.49-2.44.74-3.92.74s-2.81-.25-3.96-.74c-1.15-.49-2.05-1.17-2.7-2.03s-.97-1.86-.97-2.99ZM1227.29,882.37c0,.98.48,1.79,1.44,2.43.96.64,2.18.95,3.67.95s2.69-.31,3.62-.94c.92-.62,1.39-1.42,1.39-2.38,0-1.06-.46-1.91-1.39-2.57-.92-.66-2.13-.99-3.62-.99s-2.71.32-3.67.97c-.96.65-1.44,1.49-1.44,2.52ZM1247.52,901.01h-19.76v-11.27h2.52v3.46h14.72v-3.46h2.52v11.27ZM1230.28,895.54v3.13h14.72v-3.13h-14.72ZM1245,872.07h-2.34v-2.34h4.86v7.31h5.08v2.34h-5.08v8.78h-2.52v-16.09Z"/><path class="cls-6" d="M1276.25,892.01h-20.84l.07-20.2h2.52l-.07,17.86h18.32v-18.32h-1.98v-2.16h4.5v31.97h-2.52v-9.14Z"/><path class="cls-6" d="M1305.26,892.41h-20.27l.07-17.68v-1.33h14.51v2.34h-11.99l-.07,14.33h17.75v-18.72h-2.34v-2.34h4.86v12.78h5.54v2.34h-5.54v16.81h-2.52v-8.53Z"/><path class="cls-6" d="M1313.76,897.02v-4h4v4h-4Z"/><line class="cls-4" x1="542.24" y1="205.63" x2="545.47" y2="205.63"/><line class="cls-3" x1="551.84" y1="205.63" x2="574.13" y2="205.63"/><line class="cls-1" x1="577.31" y1="205.63" x2="1376.42" y2="205.63"/><line class="cls-4" x1="1379.6" y1="205.63" x2="1382.84" y2="205.63"/><line class="cls-4" x1="542.24" y1="296.01" x2="545.47" y2="296.01"/><line class="cls-3" x1="551.84" y1="296.01" x2="574.13" y2="296.01"/><line class="cls-1" x1="577.31" y1="296.01" x2="1376.42" y2="296.01"/><line class="cls-4" x1="1379.6" y1="296.01" x2="1382.84" y2="296.01"/><line class="cls-4" x1="542.24" y1="386.4" x2="545.47" y2="386.4"/><line class="cls-3" x1="551.84" y1="386.4" x2="574.13" y2="386.4"/><line class="cls-1" x1="577.31" y1="386.4" x2="1376.42" y2="386.4"/><line class="cls-4" x1="1379.6" y1="386.4" x2="1382.84" y2="386.4"/><line class="cls-4" x1="542.24" y1="476.78" x2="545.47" y2="476.78"/><line class="cls-3" x1="551.84" y1="476.78" x2="574.13" y2="476.78"/><line class="cls-1" x1="577.31" y1="476.78" x2="1376.42" y2="476.78"/><line class="cls-4" x1="1379.6" y1="476.78" x2="1382.84" y2="476.78"/><line class="cls-4" x1="542.24" y1="567.16" x2="545.47" y2="567.16"/><line class="cls-3" x1="551.84" y1="567.16" x2="574.13" y2="567.16"/><line class="cls-1" x1="577.31" y1="567.16" x2="1376.42" y2="567.16"/><line class="cls-4" x1="1379.6" y1="567.16" x2="1382.84" y2="567.16"/><line class="cls-4" x1="542.24" y1="657.55" x2="545.47" y2="657.55"/><line class="cls-3" x1="551.84" y1="657.55" x2="574.13" y2="657.55"/><line class="cls-1" x1="577.31" y1="657.55" x2="1376.42" y2="657.55"/><line class="cls-4" x1="1379.6" y1="657.55" x2="1382.84" y2="657.55"/><line class="cls-4" x1="542.24" y1="747.93" x2="545.47" y2="747.93"/><line class="cls-3" x1="551.84" y1="747.93" x2="574.13" y2="747.93"/><line class="cls-1" x1="577.31" y1="747.93" x2="1376.42" y2="747.93"/><line class="cls-4" x1="1379.6" y1="747.93" x2="1382.84" y2="747.93"/><line class="cls-4" x1="542.24" y1="838.32" x2="545.47" y2="838.32"/><line class="cls-3" x1="551.84" y1="838.32" x2="574.13" y2="838.32"/><line class="cls-1" x1="577.31" y1="838.32" x2="1376.42" y2="838.32"/><line class="cls-4" x1="1379.6" y1="838.32" x2="1382.84" y2="838.32"/><line class="cls-4" x1="542.24" y1="928.7" x2="545.47" y2="928.7"/><line class="cls-3" x1="551.84" y1="928.7" x2="574.13" y2="928.7"/><line class="cls-1" x1="577.31" y1="928.7" x2="1376.42" y2="928.7"/><line class="cls-4" x1="1379.6" y1="928.7" x2="1382.84" y2="928.7"/><rect class="cls-2" x="177.79" y="78.45" width="320.12" height="80.81"/><path d="M249.6,112.67c0-1.35.34-2.57,1.03-3.64.69-1.07,1.62-1.93,2.8-2.57,1.18-.64,2.49-.96,3.94-.96s2.75.32,3.9.96c1.16.64,2.07,1.5,2.75,2.57.68,1.07,1.01,2.29,1.01,3.64s-.34,2.53-1.01,3.6c-.68,1.07-1.59,1.92-2.75,2.56-1.15.63-2.46.94-3.9.94s-2.76-.31-3.94-.94c-1.18-.63-2.11-1.48-2.8-2.56-.69-1.07-1.03-2.27-1.03-3.6ZM252.04,112.7c0,.89.23,1.7.7,2.43.47.74,1.1,1.31,1.89,1.73.79.42,1.68.63,2.66.63s1.9-.22,2.7-.65,1.42-1.02,1.89-1.75c.47-.74.7-1.55.7-2.43s-.23-1.74-.7-2.48c-.47-.75-1.09-1.34-1.87-1.77-.78-.43-1.66-.65-2.64-.65s-1.87.22-2.68.67c-.8.44-1.45,1.03-1.92,1.77-.48.74-.72,1.57-.72,2.5ZM271.68,124.39h-17.43v-2.28h19.88v7.98h-17.43v3.36h18.48v2.27h-20.93v-7.91h17.43v-3.43ZM271.54,106.61h-2.27v-2.27h4.72v16.24h-2.45v-13.97Z"/><path d="M295.93,112.28h-17.81v-2.27h7.7v-5.15h2.45v5.15h7.67v2.27ZM287.04,128.45c-1.35,0-2.58-.3-3.67-.91-1.1-.61-1.97-1.42-2.61-2.43-.64-1.02-.96-2.15-.96-3.41s.32-2.43.96-3.45c.64-1.02,1.51-1.83,2.61-2.43,1.1-.61,2.32-.91,3.67-.91s2.54.3,3.62.91c1.08.61,1.94,1.42,2.57,2.43.63,1.02.94,2.16.94,3.45s-.31,2.4-.94,3.41c-.63,1.02-1.49,1.83-2.57,2.43-1.08.61-2.29.91-3.62.91ZM282.25,121.77c0,.82.21,1.56.63,2.24.42.68,1,1.21,1.73,1.59.74.38,1.55.58,2.43.58s1.68-.19,2.38-.58c.7-.39,1.26-.91,1.68-1.58s.63-1.39.63-2.19c0-.86-.21-1.65-.63-2.35-.42-.7-.98-1.26-1.68-1.68s-1.49-.63-2.38-.63-1.7.2-2.43.61c-.74.41-1.31.96-1.73,1.65-.42.69-.63,1.46-.63,2.33ZM298.7,106.58h-2.28v-2.28h4.72v12.64h6.3v2.27h-6.3v16.17h-2.45v-28.8Z"/><path d="M335.34,122.4h-27.93v-2.27h27.93v2.27ZM332.48,134.72h-21.53v-9.06h2.45v6.79h19.08v2.27ZM331.53,115.96h-19.74v-10.71h2.45v8.44h17.29v2.27Z"/><path d="M371.32,128.35h-2.45v-6.41h-12.99v-2.27h27.69v2.27h-12.25v6.41ZM359.14,117.18l-1.08-2,10.47-6.06v-4.2h2.45v4.2l10.26,5.95-1.09,2-10.39-6.06-10.61,6.16ZM380.7,134.72h-20.9v-8.75h2.45v6.48h18.45v2.27Z"/><path d="M386.9,128.52l-1.79-1.4,7.98-9.06v-10.6h2.45v10.46l8.37,9.17-1.75,1.44-7.77-8.54-7.49,8.54ZM410.38,135.38h-2.45v-18.3h-7.14v-2.28h7.14v-8.22h-2.28v-2.28h4.73v31.08Z"/></svg>