<?xml version="1.0" encoding="UTF-8"?><svg id="_레이어_1" xmlns="http://www.w3.org/2000/svg" viewBox="0 0 1920 1080"><defs><style>.cls-1,.cls-2{fill:#dfffde;}.cls-1,.cls-3,.cls-4{stroke:#0000fe;stroke-miterlimit:10;stroke-width:2px;}.cls-3,.cls-5{fill:#0000fe;}.cls-4{fill:#fff;}</style></defs><rect class="cls-2" y="0" width="1920" height="1080"/><rect class="cls-4" x="168.81" y="124.15" width="273.41" height="46.27"/><rect class="cls-4" x="168.81" y="170.43" width="164.33" height="46.27"/><path class="cls-5" d="M218.26,158.3h-27.73v-2.2h7.43v-10.17l2.36.03v10.13h4.86v-10.17h2.36v10.17h4.15v-18.71h-18.31v-2.2h20.67v20.91h4.19v2.2Z"/><path class="cls-5" d="M240.31,155.02h-18.24v-2.2h4.46v-3.55h-7.43v-2.2h26.99v2.2h-7.5v3.55h4.09v9.05h-2.36v-6.86ZM222.89,138.71c0-1.8.87-3.22,2.6-4.26s4.06-1.55,6.99-1.55,5.29.52,7.01,1.55,2.58,2.45,2.58,4.26-.86,3.2-2.58,4.26-4.06,1.59-7.01,1.59-5.26-.53-6.99-1.59-2.6-2.48-2.6-4.26ZM225.25,138.74c0,1.1.65,1.99,1.96,2.65,1.31.66,3.06,1,5.27,1s3.96-.33,5.27-1c1.31-.66,1.96-1.55,1.96-2.65s-.65-2.01-1.96-2.65c-1.31-.64-3.06-.96-5.27-.96s-3.96.32-5.27.96c-1.31.64-1.96,1.53-1.96,2.65ZM228.9,149.28v3.55h7.33v-3.55h-7.33Z"/><path class="cls-5" d="M292.97,158.67h-27.53v-2.2h27.53v2.2ZM289.43,149.62h-20.54v-2.2h4.26v-10.44h-4.26v-2.2h20.54v2.2h-4.26v10.44h4.26v2.2ZM275.51,136.98v10.44h7.3v-10.44h-7.3Z"/><path class="cls-5" d="M297.94,148.94v-8.51h16.82v-3.45h-16.82v-2.2h19.19v7.84h-16.82v4.12h16.82v2.2h-8.34v7.6h12.53v2.2h-27.43v-2.2h12.53v-7.6h-8.48Z"/><path class="cls-5" d="M349.04,158.26h-26.18v-2.2h20.27v-19.08h-16.82v-2.2h19.19v21.28h3.55v2.2Z"/><path class="cls-5" d="M360.83,136.55h-9.02v-2.2h11.38v8.17h-8.71v4.19h12.23v-12.19h-2.2v-2.2h4.56v7.73h4.29v-7.73h2.36v18.24h-2.36v-8.31h-4.29v8.31h-2.36v-1.65h-14.59v-8.58h8.71v-3.78ZM356.54,162.01v-10.07h19.52v10.07h-19.52ZM358.91,154.14v5.67l14.79-.07v-5.61h-14.79Z"/><path class="cls-5" d="M380.25,145.26c0-1.96.3-3.65.91-5.08.61-1.43,1.48-2.53,2.62-3.31,1.14-.78,2.48-1.17,4.04-1.17,1.53.05,2.86.47,3.99,1.27,1.13.8,1.99,1.9,2.6,3.31.61,1.41.91,3.07.91,4.98s-.3,3.61-.91,5.03c-.61,1.42-1.48,2.51-2.6,3.28-1.13.77-2.45,1.15-3.99,1.15s-2.9-.38-4.04-1.15-2.01-1.86-2.62-3.28c-.61-1.42-.91-3.1-.91-5.03ZM382.62,145.26c0,2.23.47,4,1.4,5.3.93,1.31,2.2,1.96,3.8,1.96s2.83-.65,3.75-1.96c.92-1.31,1.38-3.07,1.38-5.3s-.46-4.07-1.38-5.39c-.92-1.32-2.17-1.98-3.75-1.98s-2.87.66-3.8,1.98c-.94,1.32-1.4,3.11-1.4,5.39ZM403.36,161.95h-2.36v-27.8h-2.2v-2.2h4.56v30Z"/><path class="cls-5" d="M191.71,187.74c0-1.44.31-2.71.95-3.8.63-1.09,1.5-1.95,2.62-2.57,1.11-.62,2.39-.93,3.83-.93s2.71.31,3.8.93c1.09.62,1.95,1.48,2.57,2.57.62,1.09.93,2.36.93,3.8s-.31,2.67-.93,3.75c-.62,1.08-1.48,1.93-2.57,2.55s-2.36.93-3.8.93-2.72-.31-3.83-.93-1.99-1.47-2.62-2.55c-.63-1.08-.95-2.33-.95-3.75ZM193.53,209.05l-1.62-1.42,6.28-5.71v-4.36h2.3v4.39l4.56,3.99,4.63-4.05v-4.32h2.36v4.49l6.21,5.64-1.62,1.42-5.88-5.37-5.71,5.03h-.03l-5.67-5-5.81,5.27ZM194.07,187.77c0,1.46.47,2.66,1.4,3.6.93.93,2.12,1.4,3.56,1.4s2.66-.47,3.6-1.42c.93-.95,1.4-2.15,1.4-3.61s-.46-2.74-1.37-3.68c-.91-.95-2.1-1.42-3.56-1.42s-2.67.48-3.61,1.44-1.42,2.19-1.42,3.7ZM214.81,196.28h-2.36v-15.17h-2.36v-2.2h4.73v17.36Z"/><path class="cls-5" d="M245.96,194.9h-26.72v-2.2h26.72v2.2ZM222.04,190.24l-1.05-1.93,10.44-5.64v-4.02h2.36v4.02l10.23,5.54-1.05,1.93-10.37-5.61-10.57,5.71ZM242.88,208.55h-20.54v-11.28h2.36v3.55h15.81v-3.55h2.36v11.28ZM224.71,203.01v3.34h15.81v-3.34h-15.81Z"/><path class="cls-5" d="M269.03,200.03h-19.56l.07-18.95h2.36l-.07,16.75h17.19v-17.19h-1.86v-2.03h4.22v30h-2.36v-8.58Z"/><path class="cls-5" d="M296.25,200.41h-19.02l.07-16.58v-1.25h13.61v2.2h-11.25l-.07,13.44h16.65v-17.56h-2.2v-2.2h4.56v11.99h5.2v2.2h-5.2v15.77h-2.36v-8Z"/><path class="cls-5" d="M304.22,204.73v-3.75h3.75v3.75h-3.75Z"/><rect class="cls-1" x="679.54" y="687.41" width="544.15" height="49.46"/><rect class="cls-3" x="669.54" y="687.41" width="544.15" height="49.46"/><path class="cls-2" d="M718.68,722.79h-27.43v-2.2h12.5v-7.26h2.36v7.26h12.57v2.2ZM694.53,715.36l-1.18-1.86,10.4-7.16v-4.76h-9.12v-2.2h20.54v2.2h-9.05v4.76l10.4,7.16-1.18,1.86-10.4-7.16-10.4,7.16Z"/><path class="cls-2" d="M721.62,713.5l-1.55-1.59,7.74-7.23v-4.42h-6.65v-2.2h15.64v2.2h-6.62v4.39l7.94,6.59-1.49,1.59-7.6-6.25-7.4,6.92ZM741.78,718.06h-17.6v-2.2h19.96v10.64h-2.36v-8.44ZM741.78,698.37h-2.2v-2.2h4.56v17.97h-2.36v-15.77Z"/><path class="cls-2" d="M760.77,713.71h-12.8v-2.2h26.72v2.2h-11.55v6.15h-2.36v-6.15ZM772.15,725.9h-20.37v-9.02h2.36v6.82h18v2.2ZM771.44,708.03h-19.12v-10.71h19.12v10.71ZM754.69,699.52v6.32h14.39v-6.32h-14.39Z"/><path class="cls-2" d="M799.44,726.51h-2.36v-5.61h-20.64v-2.2h8.01v-3.17c-1.08-.18-2.05-.54-2.9-1.08-.86-.54-1.53-1.22-2.03-2.04-.5-.82-.74-1.72-.74-2.69,0-1.1.31-2.1.93-2.99.62-.89,1.46-1.6,2.52-2.13,1.06-.53,2.23-.79,3.51-.79s2.44.27,3.46.79c1.02.53,1.84,1.24,2.45,2.13.61.89.91,1.89.91,2.99,0,.99-.25,1.9-.76,2.74-.51.83-1.19,1.52-2.04,2.06-.86.54-1.84.89-2.94,1.05v3.14h10.27v-20.44h-2.2v-2.2h4.56v13.58h4.97v2.2h-4.97v14.66ZM794.17,702.36h-17.5v-2.13h7.84v-4.19h2.3v4.19h7.36v2.13ZM781.13,709.76c0,.68.2,1.29.61,1.86.41.56.96,1.01,1.66,1.33.7.33,1.47.49,2.33.49s1.59-.16,2.26-.47c.68-.32,1.21-.75,1.6-1.3.39-.55.59-1.17.59-1.84,0-.72-.2-1.37-.59-1.94-.39-.57-.93-1.03-1.6-1.37-.68-.34-1.43-.51-2.26-.51s-1.63.17-2.33.51c-.7.34-1.25.79-1.66,1.35-.41.56-.61,1.19-.61,1.89Z"/><path class="cls-2" d="M846.26,713.74h-2.36v-1.76h-19.35v-13.38h13.11v2.2h-10.74v8.99h16.99v-10.94h-2.2v-2.2h4.56v7.43h4.56v2.2h-4.56v7.47ZM827.68,724.96h-.03v-9.66h18.61v10.71h-18.58v-1.05ZM830.01,717.49v6.32h13.88v-6.32h-13.88Z"/><path class="cls-2" d="M872.16,711.95h-19.22v-13.34h13.38v2.2h-11.01v8.95h16.85v-11.01h-2.2v-2.2h4.56v7.87h4.8v2.2h-4.8v7.53h-2.36v-2.2ZM855.41,720.87c0-1.73.88-3.11,2.65-4.12,1.77-1.01,4.16-1.52,7.18-1.52,3.02-.02,5.42.47,7.19,1.49,1.78,1.01,2.67,2.4,2.67,4.16s-.89,3.11-2.67,4.12c-1.78,1.01-4.18,1.52-7.19,1.52s-5.41-.51-7.18-1.52c-1.77-1.01-2.65-2.39-2.65-4.12ZM857.77,720.87c0,1.06.67,1.9,2.01,2.52,1.34.62,3.16.93,5.46.93s4.12-.31,5.47-.93c1.35-.62,2.03-1.46,2.03-2.52s-.68-1.9-2.03-2.52-3.17-.93-5.47-.93-4.12.31-5.46.93-2.01,1.46-2.01,2.52Z"/><path class="cls-2" d="M888.48,702.32h-6.99v-2.2h16.31v2.2h-6.96v7.23l8.04,9.79-1.69,1.38-7.5-9.12-7.23,9.12-1.72-1.35,7.74-9.76v-7.3ZM902.06,698.51h-2.2v-2.2h4.56v12.13h5.51v2.2h-5.51v15.67h-2.36v-27.8Z"/><path class="cls-2" d="M945.19,718.13h-14.83v-17.4h11.05v2.2h-8.68v13h12.46v-16.96h-2.2v-2.2h4.56v11.45h4.36v-11.45h2.36v29.35h-2.36v-15.71h-4.36v15.71h-2.36v-8.01Z"/><path class="cls-2" d="M959.24,713.54l-1.49-1.59,7.16-6.79v-7.09h2.36v7.06l7.19,6.82-1.52,1.59-6.86-6.52-6.86,6.52ZM962.22,721.38c0-1.87.82-3.3,2.45-4.31,1.63-1,3.95-1.5,6.94-1.5s5.34.5,6.96,1.5c1.62,1,2.43,2.44,2.43,4.31s-.81,3.28-2.43,4.29c-1.62,1.01-3.94,1.52-6.96,1.52s-5.31-.51-6.94-1.52c-1.63-1.01-2.45-2.44-2.45-4.29ZM964.51,721.38c0,1.17.61,2.08,1.84,2.72,1.23.64,2.98.96,5.25.96s4.02-.32,5.25-.96c1.23-.64,1.84-1.55,1.84-2.72s-.61-2.11-1.84-2.74c-1.23-.63-2.98-.95-5.25-.95s-4.03.32-5.25.95c-1.23.63-1.84,1.54-1.84,2.74ZM980.56,714.99h-2.36v-16.75h-2.2v-2.2h4.56v8.34h4.83v2.2h-4.83v8.41Z"/><rect class="cls-3" x="679.54" y="767.42" width="544.15" height="49.46"/><rect class="cls-4" x="669.54" y="767.42" width="544.15" height="49.46"/><path class="cls-5" d="M704.26,792.26h-11.52v-13.07h11.52v13.07ZM695.1,781.22v8.85h6.79v-8.85h-6.79ZM713.82,798.55h-17.4v-2.2h19.76v10.17h-2.36v-7.97ZM708.04,778.79h-2.3v-2.2h4.56v7.73h3.61v-7.73h2.36v18h-2.36v-8.17h-3.61v8.17h-2.26v-15.81Z"/><path class="cls-5" d="M740.47,793.51h-19.29v-8.92h10.94v-4.15h-10.94v-2.2h13.31v8.55h-10.94v4.53h16.92v-13.21h-2.2v-2.03h4.56v8.28h4.73v2.2h-4.73v8.11h-2.36v-1.15ZM740.47,798.51h-16.75v-2.2h19.12v10.07h-2.36v-7.87Z"/><path class="cls-5" d="M749.18,785.34c0-1.44.31-2.71.95-3.8.63-1.09,1.5-1.95,2.62-2.57,1.11-.62,2.39-.93,3.83-.93s2.71.31,3.8.93c1.09.62,1.95,1.48,2.57,2.57.62,1.09.93,2.36.93,3.8s-.31,2.67-.93,3.75c-.62,1.08-1.48,1.93-2.57,2.55s-2.36.93-3.8.93-2.72-.31-3.83-.93-1.99-1.47-2.62-2.55c-.63-1.08-.95-2.33-.95-3.75ZM751,806.65l-1.62-1.42,6.28-5.71v-4.36h2.3v4.39l4.56,3.99,4.63-4.05v-4.32h2.36v4.49l6.21,5.64-1.62,1.42-5.88-5.37-5.71,5.03h-.03l-5.67-5-5.81,5.27ZM751.54,785.37c0,1.46.47,2.66,1.4,3.6.93.93,2.12,1.4,3.56,1.4s2.66-.47,3.6-1.42c.93-.95,1.4-2.15,1.4-3.61s-.46-2.74-1.37-3.68c-.91-.95-2.1-1.42-3.56-1.42s-2.67.48-3.61,1.44-1.42,2.19-1.42,3.7ZM772.28,793.88h-2.36v-15.17h-2.36v-2.2h4.73v17.36Z"/><path class="cls-5" d="M803.5,793.68h-26.95v-2.2h26.95v2.2ZM800.73,805.57h-20.77v-8.75h2.36v6.55h18.41v2.2ZM799.81,787.47h-19.05v-10.34h2.36v8.14h16.69v2.2Z"/><path class="cls-5" d="M850.45,802.94h-27.53v-2.2h27.53v2.2ZM846.9,793.88h-20.54v-2.2h4.26v-10.44h-4.26v-2.2h20.54v2.2h-4.26v10.44h4.26v2.2ZM832.98,781.25v10.44h7.3v-10.44h-7.3Z"/><path class="cls-5" d="M855.41,793.21v-8.51h16.82v-3.45h-16.82v-2.2h19.19v7.84h-16.82v4.12h16.82v2.2h-8.34v7.6h12.53v2.2h-27.43v-2.2h12.53v-7.6h-8.48Z"/><path class="cls-5" d="M906.52,802.53h-26.18v-2.2h20.27v-19.08h-16.82v-2.2h19.19v21.28h3.55v2.2Z"/><path class="cls-5" d="M918.3,780.81h-9.02v-2.2h11.38v8.17h-8.71v4.19h12.23v-12.19h-2.2v-2.2h4.56v7.73h4.29v-7.73h2.36v18.24h-2.36v-8.31h-4.29v8.31h-2.36v-1.65h-14.59v-8.58h8.71v-3.78ZM914.02,806.28v-10.07h19.52v10.07h-19.52ZM916.38,798.41v5.67l14.79-.07v-5.61h-14.79Z"/><path class="cls-5" d="M955.73,798.21c2.27-1.04,4.31-2.38,6.1-4.04,1.79-1.66,3.24-3.52,4.34-5.59,1.1-2.07,1.74-4.24,1.93-6.52h-10.94v-2.2h13.38c.07,2.3-.23,4.48-.88,6.54-.65,2.06-1.6,3.97-2.85,5.72-1.25,1.76-2.73,3.33-4.44,4.71-1.71,1.38-3.58,2.55-5.61,3.5l-1.01-2.13ZM978.7,806.52h-2.36v-27.22h-2.2v-2.2h4.56v29.42Z"/><path class="cls-5" d="M1000.92,781.39h-16.62v-2.2h6.92v-2.97h2.36v2.97h7.33v2.2ZM1007.27,796.38h-2.36v-1.05h-20.6v-2.2h6.92v-1.59c-1.64-.18-2.97-.68-3.97-1.49s-1.5-1.8-1.5-2.97c0-.92.29-1.73.88-2.43.59-.7,1.4-1.24,2.43-1.64,1.04-.39,2.22-.59,3.55-.59s2.5.2,3.51.59c1.01.39,1.81.94,2.38,1.64.57.7.86,1.51.86,2.43,0,1.22-.54,2.23-1.6,3.04-1.07.81-2.46,1.29-4.17,1.45v1.55h11.32v-14.69h-1.96v-2.2h4.32v20.13ZM1004.88,800.1h-17.63v-2.2h20v8.58h-2.36v-6.38ZM988.06,787.13c0,.7.43,1.27,1.28,1.71.86.44,1.95.66,3.28.66s2.4-.21,3.23-.64c.82-.43,1.23-.98,1.23-1.66,0-.79-.41-1.42-1.23-1.91-.82-.48-1.9-.73-3.23-.73s-2.42.24-3.28.71c-.86.47-1.28,1.09-1.28,1.86Z"/><path class="cls-5" d="M1028.93,783.92h-17.19v-2.2h7.43v-4.97h2.36v4.97h7.4v2.2ZM1020.35,799.53c-1.31,0-2.49-.29-3.55-.88-1.06-.59-1.9-1.37-2.52-2.35-.62-.98-.93-2.08-.93-3.29s.31-2.35.93-3.33c.62-.98,1.46-1.76,2.52-2.35,1.06-.59,2.24-.88,3.55-.88s2.45.29,3.5.88c1.05.59,1.87,1.37,2.48,2.35.61.98.91,2.09.91,3.33s-.3,2.31-.91,3.29c-.61.98-1.44,1.76-2.48,2.35-1.05.59-2.21.88-3.5.88ZM1015.72,793.07c0,.79.2,1.51.61,2.16.41.65.96,1.17,1.67,1.54.71.37,1.49.56,2.35.56s1.62-.19,2.3-.56c.68-.37,1.22-.88,1.62-1.52s.61-1.35.61-2.11c0-.83-.2-1.59-.61-2.26-.41-.67-.95-1.22-1.62-1.62-.68-.41-1.44-.61-2.3-.61s-1.64.2-2.35.59c-.71.39-1.27.92-1.67,1.59s-.61,1.41-.61,2.25ZM1031.59,778.41h-2.2v-2.2h4.56v12.19h6.08v2.2h-6.08v15.61h-2.36v-27.8Z"/><path class="cls-5" d="M1040.85,798.21c2.27-1.04,4.31-2.38,6.1-4.04,1.79-1.66,3.24-3.52,4.34-5.59,1.1-2.07,1.74-4.24,1.93-6.52h-10.94v-2.2h13.38c.07,2.3-.23,4.48-.88,6.54-.65,2.06-1.6,3.97-2.85,5.72-1.25,1.76-2.73,3.33-4.44,4.71-1.71,1.38-3.58,2.55-5.61,3.5l-1.01-2.13ZM1063.82,806.52h-2.36v-27.22h-2.2v-2.2h4.56v29.42Z"/><rect class="cls-3" x="679.54" y="827.43" width="544.15" height="49.46"/><rect class="cls-4" x="669.54" y="827.43" width="544.15" height="49.46"/><path class="cls-5" d="M692.1,846.16c0-1.49.32-2.79.96-3.92.64-1.13,1.53-2.01,2.67-2.65,1.14-.64,2.45-.96,3.94-.96,1.46.04,2.76.4,3.88,1.06,1.13.67,2.01,1.55,2.65,2.67.64,1.11.96,2.38.96,3.8s-.32,2.72-.96,3.85c-.64,1.13-1.53,2-2.65,2.63-1.13.63-2.42.95-3.88.95s-2.8-.32-3.94-.95c-1.14-.63-2.03-1.51-2.67-2.63-.64-1.13-.96-2.41-.96-3.85ZM694.46,846.16c0,1.53.49,2.79,1.47,3.77s2.22,1.47,3.73,1.47,2.74-.49,3.7-1.47c.96-.98,1.44-2.24,1.44-3.77s-.48-2.86-1.44-3.85c-.96-.99-2.19-1.49-3.7-1.49s-2.75.5-3.73,1.49c-.98.99-1.47,2.27-1.47,3.85ZM717.06,865.65h-19.9v-9.15h2.36v6.96h17.53v2.2ZM715.91,858.42h-2.36v-20.47h-2.2v-2.03h4.56v22.5Z"/><path class="cls-5" d="M720.44,852.2c.95-.2,1.9-.51,2.85-.93.96-.42,1.86-.9,2.72-1.45.86-.55,1.59-1.11,2.2-1.67,1.13-1.06,2-2.23,2.63-3.51.63-1.28,1.02-2.54,1.18-3.78h-10.64v-2.3h13.07v.61c0,1.31-.2,2.61-.61,3.9-.41,1.3-.96,2.51-1.67,3.65s-1.51,2.13-2.42,2.99c-1.06.99-2.36,1.91-3.9,2.75-1.54.84-3.09,1.44-4.64,1.77l-.78-2.03ZM744.32,865.48h-19.73v-9.66h2.36v7.46h17.36v2.2ZM740.36,838.45h-2.2v-2.2h4.56v9.25h4.83v2.2h-4.83v10.67h-2.36v-19.93Z"/><path class="cls-5" d="M774.99,842.34h-6.99v-2.2h16.31v2.2h-6.96v7.23l8.04,9.79-1.69,1.38-7.5-9.12-7.23,9.12-1.72-1.35,7.74-9.76v-7.3ZM788.57,838.52h-2.2v-2.2h4.56v12.13h5.51v2.2h-5.51v15.67h-2.36v-27.8Z"/><path class="cls-5" d="M803.63,844.43h-5.78v-2.2h5.78v-4.7h2.36v4.7h5.71v2.2h-5.71v5.57l6.25,8.65-1.76,1.32-5.74-7.97-6.08,8.24-1.76-1.32,6.72-9.12v-5.37ZM814.51,850.21h-4.86v-2.2h4.86v-9.22h-2.2v-2.2h4.56v29.59h-2.36v-15.98ZM822.75,866.19h-2.36v-29.59h2.36v29.59Z"/><path class="cls-5" d="M845.18,866.15h-2.36v-16.28h-4.02c-.23,5.27-2.38,7.9-6.45,7.9-4.37,0-6.55-2.98-6.55-8.95s2.18-9.05,6.55-9.05c4.03.13,6.18,2.77,6.45,7.9h4.02v-9.42h-2.2v-2.2h4.56v30.1ZM828.15,848.82c0,4.5,1.4,6.75,4.19,6.75s4.12-2.25,4.12-6.75-1.37-6.86-4.12-6.86-4.19,2.29-4.19,6.86ZM851.09,866.15h-2.36v-30.1h2.36v30.1Z"/><path class="cls-5" d="M888.45,858.15h-14.83v-17.4h11.05v2.2h-8.68v13h12.46v-16.96h-2.2v-2.2h4.56v11.45h4.36v-11.45h2.36v29.35h-2.36v-15.71h-4.36v15.71h-2.36v-8.01Z"/><path class="cls-5" d="M915.91,843.89h-15.23v-2.2h6.38v-4.66h2.36v4.66h6.49v2.2ZM908.17,858.55c-1.22,0-2.31-.28-3.29-.83s-1.76-1.29-2.33-2.23-.86-1.98-.86-3.12.29-2.22.86-3.16c.57-.93,1.35-1.68,2.33-2.23s2.08-.83,3.29-.83,2.27.28,3.24.83c.97.55,1.73,1.29,2.3,2.23.56.93.84,1.99.84,3.16s-.28,2.19-.84,3.12c-.56.93-1.33,1.68-2.3,2.23-.97.55-2.05.83-3.24.83ZM904.05,852.44c0,.72.19,1.38.56,1.98s.87,1.07,1.49,1.42c.62.35,1.31.52,2.08.52,1.13,0,2.08-.37,2.85-1.12.78-.74,1.17-1.65,1.17-2.74,0-1.17-.39-2.16-1.17-2.96-.78-.8-1.73-1.2-2.85-1.2-.77,0-1.46.18-2.08.54-.62.36-1.11.85-1.49,1.47-.37.62-.56,1.31-.56,2.08ZM917.22,838.42h-1.86v-2.2h4.22v12.63h3.95v-12.63h2.36v29.93h-2.36v-15.1h-3.95v15.1h-2.36v-27.73Z"/><path class="cls-5" d="M968.63,840.21h-18.07v-2.2h20.44v12.7h3.34v2.2h-27.02v-2.2h11.35v-5.91h2.36v5.91h7.6v-10.5ZM950.56,861.19c0-1.85.87-3.23,2.6-4.14,1.73-.91,4.29-1.37,7.67-1.37s5.94.46,7.68,1.37c1.74.91,2.62,2.29,2.62,4.14s-.87,3.27-2.62,4.21c-1.75.93-4.31,1.4-7.68,1.4s-5.93-.47-7.67-1.4c-1.73-.93-2.6-2.34-2.6-4.21ZM952.93,861.19c0,1.15.67,2,2.01,2.57,1.34.56,3.3.84,5.89.84s4.56-.28,5.91-.84c1.35-.56,2.03-1.42,2.03-2.57s-.68-1.96-2.03-2.5c-1.35-.54-3.32-.81-5.91-.81s-4.55.27-5.89.81c-1.34.54-2.01,1.37-2.01,2.5Z"/><path class="cls-5" d="M990.45,866.52h-2.36v-9.83h-12.46v-2.2h27.39v2.2h-12.57v9.83ZM998.9,850.85h-19.19v-13.07h2.36v4.19h14.46v-4.19h2.36v13.07ZM982.08,844.16v4.49h14.46v-4.49h-14.46Z"/><path class="cls-5" d="M1021.5,843.93h-17.19v-2.2h7.43v-4.97h2.36v4.97h7.4v2.2ZM1012.92,859.53c-1.31,0-2.49-.29-3.55-.88-1.06-.59-1.9-1.37-2.52-2.35-.62-.98-.93-2.08-.93-3.29s.31-2.35.93-3.33c.62-.98,1.46-1.76,2.52-2.35,1.06-.59,2.24-.88,3.55-.88s2.45.29,3.5.88c1.05.59,1.87,1.37,2.48,2.35.61.98.91,2.09.91,3.33s-.3,2.31-.91,3.29c-.61.98-1.44,1.76-2.48,2.35-1.05.59-2.21.88-3.5.88ZM1008.29,853.08c0,.79.2,1.51.61,2.16.41.65.96,1.17,1.67,1.54.71.37,1.49.56,2.35.56s1.62-.19,2.3-.56c.68-.37,1.22-.88,1.62-1.52s.61-1.35.61-2.11c0-.83-.2-1.59-.61-2.26-.41-.67-.95-1.22-1.62-1.62-.68-.41-1.44-.61-2.3-.61s-1.64.2-2.35.59c-.71.39-1.27.92-1.67,1.59s-.61,1.41-.61,2.25ZM1024.16,838.42h-2.2v-2.2h4.56v12.19h6.08v2.2h-6.08v15.61h-2.36v-27.8Z"/><path class="cls-5" d="M1033.42,858.21c2.27-1.04,4.31-2.38,6.1-4.04,1.79-1.66,3.24-3.52,4.34-5.59,1.1-2.07,1.74-4.24,1.93-6.52h-10.94v-2.2h13.38c.07,2.3-.23,4.48-.88,6.54-.65,2.06-1.6,3.97-2.85,5.72-1.25,1.76-2.73,3.33-4.44,4.71-1.71,1.38-3.58,2.55-5.61,3.5l-1.01-2.13ZM1056.39,866.52h-2.36v-27.22h-2.2v-2.2h4.56v29.42Z"/><rect class="cls-3" x="679.54" y="887.43" width="544.15" height="49.46"/><rect class="cls-4" x="669.54" y="887.43" width="544.15" height="49.46"/><path class="cls-5" d="M693.38,911.9l-1.49-1.62,7.4-6.86v-5.88h2.36v5.88l7.4,6.86-1.49,1.62-7.09-6.59-7.09,6.59ZM697.1,926.5v-7.73h16.52v-2.77h-16.55v-2.2h18.92v7.16h-16.52v3.34h17.9v2.2h-20.27ZM713.44,904.3h-7.16v-2.2h7.16v-3.31h-2.2v-2.2h4.56v15.57h-2.36v-7.87Z"/><path class="cls-5" d="M747.02,913.19h-27.39v-2.2h27.39v2.2ZM741.24,919.47h-18.44v-2.2h20.81v9.25h-2.36v-7.06ZM743.3,907.65h-19.59v-9.83h19.59v2.09h-17.33v5.64h17.33v2.09Z"/><path class="cls-5" d="M765.46,903.93h-17.19v-2.2h7.43v-4.97h2.36v4.97h7.4v2.2ZM756.88,919.54c-1.31,0-2.49-.29-3.55-.88-1.06-.59-1.9-1.37-2.52-2.35-.62-.98-.93-2.08-.93-3.29s.31-2.35.93-3.33c.62-.98,1.46-1.76,2.52-2.35,1.06-.59,2.24-.88,3.55-.88s2.45.29,3.5.88c1.05.59,1.87,1.37,2.48,2.35.61.98.91,2.09.91,3.33s-.3,2.31-.91,3.29c-.61.98-1.44,1.76-2.48,2.35-1.05.59-2.21.88-3.5.88ZM752.25,913.09c0,.79.2,1.51.61,2.16.41.65.96,1.17,1.67,1.54.71.37,1.49.56,2.35.56s1.62-.19,2.3-.56c.68-.37,1.22-.88,1.62-1.52s.61-1.35.61-2.11c0-.83-.2-1.59-.61-2.26-.41-.67-.95-1.22-1.62-1.62-.68-.41-1.44-.61-2.3-.61s-1.64.2-2.35.59c-.71.39-1.27.92-1.67,1.59s-.61,1.41-.61,2.25ZM768.13,898.43h-2.2v-2.2h4.56v12.19h6.08v2.2h-6.08v15.61h-2.36v-27.8Z"/><path class="cls-5" d="M803.16,922.54h-26.18v-2.2h10.44v-10.71h2.36v10.71h7.46v-19.08h-16.82v-2.2h19.19v21.28h3.55v2.2Z"/><path class="cls-5" d="M812.07,926.19l-7.46-.03v-2.2l5.34.03v-1.79h-2.23v-3.72h4.36v7.7Z"/><path class="cls-5" d="M851.83,914.17h-12.33v-2.2h26.99v2.2h-12.29v6.21h-2.36v-6.21ZM843.08,926.02v-8.65h2.36v6.45h17.8v2.2h-20.17ZM843.59,903.29c0-1.85.85-3.3,2.55-4.37s3.99-1.6,6.87-1.6,5.17.54,6.87,1.6,2.55,2.53,2.55,4.37-.85,3.31-2.55,4.39c-1.7,1.08-3.99,1.62-6.87,1.62s-5.17-.54-6.87-1.62c-1.7-1.08-2.55-2.54-2.55-4.39ZM845.95,903.32c0,1.17.64,2.1,1.91,2.79,1.27.69,2.99,1.03,5.15,1.03s3.88-.34,5.15-1.03c1.27-.69,1.91-1.62,1.91-2.79s-.64-2.09-1.91-2.77c-1.27-.67-2.99-1.01-5.15-1.01s-3.88.34-5.15,1.01c-1.27.68-1.91,1.6-1.91,2.77Z"/><path class="cls-5" d="M891.59,914.44h-2.36v-4.93h-7.6c-.61.97-1.42,1.72-2.43,2.26-1.01.54-2.17.81-3.48.81-1.4,0-2.64-.31-3.73-.93-1.09-.62-1.94-1.47-2.55-2.55s-.91-2.33-.91-3.75.3-2.58.91-3.63c.61-1.05,1.46-1.87,2.55-2.47,1.09-.6,2.34-.9,3.73-.9s2.55.28,3.6.84c1.05.56,1.86,1.34,2.45,2.33h7.46v-2.8h-2.2v-2.2h4.56v17.9ZM870.88,905.38c0,1.46.44,2.66,1.33,3.6.89.93,2.03,1.4,3.43,1.4s2.54-.47,3.43-1.42c.89-.95,1.33-2.15,1.33-3.61s-.43-2.54-1.3-3.45c-.87-.9-2-1.35-3.39-1.35s-2.58.45-3.48,1.35c-.9.9-1.35,2.06-1.35,3.48ZM872.87,920.85c0-1.82.84-3.23,2.52-4.22,1.68-.99,4.07-1.49,7.18-1.49,3.11-.02,5.5.46,7.18,1.45,1.68.99,2.52,2.41,2.52,4.26s-.84,3.23-2.52,4.22c-1.68.99-4.07,1.49-7.18,1.49s-5.5-.5-7.18-1.49c-1.68-.99-2.52-2.4-2.52-4.22ZM875.17,920.85c0,1.13.64,1.99,1.93,2.6,1.28.61,3.11.91,5.47.91s4.19-.3,5.47-.91c1.28-.61,1.93-1.47,1.93-2.6s-.64-1.99-1.93-2.6c-1.28-.61-3.11-.91-5.47-.91s-4.19.3-5.47.91c-1.28.61-1.93,1.47-1.93,2.6ZM882.77,905.35c0,.34-.02.67-.05,1-.03.33-.1.65-.19.96h6.69v-3.58h-6.62c.04.25.08.51.12.78.03.27.05.55.05.84Z"/><path class="cls-5" d="M913.51,903.93h-17.19v-2.2h7.43v-4.97h2.36v4.97h7.4v2.2ZM904.93,919.54c-1.31,0-2.49-.29-3.55-.88-1.06-.59-1.9-1.37-2.52-2.35-.62-.98-.93-2.08-.93-3.29s.31-2.35.93-3.33c.62-.98,1.46-1.76,2.52-2.35,1.06-.59,2.24-.88,3.55-.88s2.45.29,3.5.88c1.05.59,1.87,1.37,2.48,2.35.61.98.91,2.09.91,3.33s-.3,2.31-.91,3.29c-.61.98-1.44,1.76-2.48,2.35-1.05.59-2.21.88-3.5.88ZM900.3,913.09c0,.79.2,1.51.61,2.16.41.65.96,1.17,1.67,1.54.71.37,1.49.56,2.35.56s1.62-.19,2.3-.56c.68-.37,1.22-.88,1.62-1.52s.61-1.35.61-2.11c0-.83-.2-1.59-.61-2.26-.41-.67-.95-1.22-1.62-1.62-.68-.41-1.44-.61-2.3-.61s-1.64.2-2.35.59c-.71.39-1.27.92-1.67,1.59s-.61,1.41-.61,2.25ZM916.18,898.43h-2.2v-2.2h4.56v12.19h6.08v2.2h-6.08v15.61h-2.36v-27.8Z"/><path class="cls-5" d="M951.54,913.69h-26.95v-2.2h26.95v2.2ZM948.77,925.58h-20.77v-8.75h2.36v6.55h18.41v2.2ZM947.86,907.48h-19.05v-10.34h2.36v8.14h16.69v2.2Z"/><path class="cls-5" d="M973.16,911.43l-1.49-1.62,7.46-6.92v-5.44h2.36v5.57l7.33,6.79-1.49,1.62-7.09-6.59-7.09,6.59ZM976.77,926.06v-7.4h16.55v-2.6h-16.58v-2.2h18.95v6.99h-16.55v3.01h17.67v2.2h-20.03ZM993.33,898.26h-2.2v-2.2h4.56v16.04h-2.36v-13.85Z"/><path class="cls-5" d="M1014.3,926.16h-2.36v-9.9h-12.13v-2.2h26.62v2.2h-12.13v9.9ZM1022.64,910.18h-19.19v-11.79h19.19v11.79ZM1005.82,900.59v7.4h14.46v-7.4h-14.46Z"/><path class="cls-5" d="M1049.94,912.34h-19.96v-13.95h13.92v2.2h-11.55v3.51h10.71v2.2h-10.71v3.85h17.6v-11.35h-2.2v-2.2h4.56v16.99h-2.36v-1.25ZM1052.33,926.33h-19.08v-11.45h2.36v3.17h14.36v-3.14h2.36v11.42ZM1035.61,920.25v3.88h14.36v-3.88h-14.36Z"/><path class="cls-5" d="M1087.46,918.46h-11.86v-18.81h2.36v8.34h7.13v-8.34h2.36v18.81ZM1077.97,910.18v6.08h7.13v-6.08h-7.13ZM1100.47,926.16h-2.36v-14.83h-4.22v14.83h-2.36v-27.9h-2.2v-2.2h4.56v13.07h4.22v-13.07h2.36v30.1Z"/><path class="cls-5" d="M1115.26,916.09h-12.53v-2.2h27.39v2.2h-12.5v10.44h-2.36v-10.44ZM1116.44,910.82c-1.58,0-3.01-.31-4.29-.93-1.28-.62-2.3-1.45-3.06-2.48-.75-1.04-1.13-2.2-1.13-3.48s.38-2.44,1.13-3.46,1.77-1.84,3.06-2.45c1.28-.61,2.71-.91,4.29-.91s3.03.3,4.31.91c1.27.61,2.29,1.42,3.04,2.45s1.13,2.18,1.13,3.46-.38,2.44-1.13,3.48c-.75,1.04-1.77,1.86-3.04,2.48-1.27.62-2.71.93-4.31.93ZM1110.33,903.93c0,.88.27,1.67.81,2.38.54.71,1.28,1.27,2.21,1.69.93.42,1.96.62,3.09.62s2.18-.21,3.11-.62c.92-.42,1.65-.98,2.2-1.69.54-.71.81-1.5.81-2.38s-.27-1.67-.81-2.36c-.54-.7-1.27-1.25-2.2-1.66-.92-.41-1.96-.61-3.11-.61s-2.16.2-3.09.61c-.93.41-1.67.96-2.21,1.66-.54.7-.81,1.49-.81,2.36Z"/><path class="cls-5" d="M1132.15,918.22c2.27-1.04,4.31-2.38,6.1-4.04,1.79-1.66,3.24-3.52,4.34-5.59,1.1-2.07,1.74-4.24,1.93-6.52h-10.94v-2.2h13.38c.07,2.3-.23,4.48-.88,6.54-.65,2.06-1.6,3.97-2.85,5.72-1.25,1.76-2.73,3.33-4.44,4.71-1.71,1.38-3.58,2.55-5.61,3.5l-1.01-2.13ZM1155.12,926.53h-2.36v-27.22h-2.2v-2.2h4.56v29.42Z"/><rect class="cls-1" x="1279.23" y="687.41" width="544.15" height="49.46"/><rect class="cls-3" x="1269.23" y="687.41" width="544.15" height="49.46"/><path class="cls-2" d="M1303.27,712.42h-11.99v-2.2h26.72v2.2h-12.36v3.31c2.75.11,4.86.64,6.35,1.57s2.23,2.23,2.23,3.9c0,1.78-.84,3.16-2.53,4.14-1.69.98-4.1,1.47-7.23,1.47s-5.54-.49-7.23-1.47-2.53-2.36-2.53-4.14c0-1.67.74-2.97,2.23-3.9s3.6-1.46,6.35-1.57v-3.31ZM1294.42,708.51l-1.05-1.92,10.1-4.63v-2.26h-8.95v-2.2h20.23v2.2h-8.92v2.26l9.9,4.53-1.05,1.93-10.03-4.59-10.23,4.7ZM1297.06,721.21c0,1.1.64,1.95,1.93,2.53,1.28.58,3.11.88,5.47.88s4.19-.29,5.47-.88c1.28-.59,1.93-1.43,1.93-2.53s-.64-1.88-1.93-2.45c-1.28-.57-3.11-.86-5.47-.86s-4.19.29-5.47.86-1.93,1.39-1.93,2.45Z"/><path class="cls-2" d="M1320.13,712.19c.95-.2,1.9-.51,2.85-.93.96-.42,1.86-.9,2.72-1.45.86-.55,1.59-1.11,2.2-1.67,1.13-1.06,2-2.23,2.63-3.51.63-1.28,1.02-2.54,1.18-3.78h-10.64v-2.3h13.07v.61c0,1.31-.2,2.61-.61,3.9-.41,1.3-.96,2.51-1.67,3.65s-1.51,2.13-2.42,2.99c-1.06.99-2.36,1.91-3.9,2.75-1.54.84-3.09,1.44-4.64,1.77l-.78-2.03ZM1344.01,725.46h-19.73v-9.66h2.36v7.46h17.36v2.2ZM1340.06,698.44h-2.2v-2.2h4.56v9.25h4.83v2.2h-4.83v10.67h-2.36v-19.93Z"/><path class="cls-2" d="M1367.18,726.14h-2.36v-16.28h-4.02c-.23,5.27-2.38,7.9-6.45,7.9-4.37,0-6.55-2.98-6.55-8.95s2.18-9.05,6.55-9.05c4.03.13,6.18,2.77,6.45,7.9h4.02v-9.42h-2.2v-2.2h4.56v30.1ZM1350.16,708.81c0,4.5,1.4,6.75,4.19,6.75s4.12-2.25,4.12-6.75-1.37-6.86-4.12-6.86-4.19,2.29-4.19,6.86ZM1373.09,726.14h-2.36v-30.1h2.36v30.1Z"/><path class="cls-2" d="M1395.45,711.88c1.87-1.31,3.32-2.9,4.36-4.8,1.04-1.89,1.72-3.85,2.06-5.88l-5.67.03v-2.2h15.64c.02,2.14-.15,4.16-.52,6.06-.37,1.9-1.02,3.68-1.94,5.32-.92,1.64-2.21,3.17-3.85,4.59l-1.86-1.49c1.37-1.15,2.46-2.36,3.26-3.65.8-1.28,1.38-2.65,1.74-4.1.36-1.45.59-2.98.68-4.58h-5.03c-.2,1.53-.6,3.06-1.2,4.58-.6,1.52-1.4,2.93-2.4,4.24-1,1.31-2.21,2.43-3.63,3.38l-1.62-1.52ZM1420.11,725.8h-20.4v-8.88h2.36v6.69h18.04v2.2ZM1416.23,699.25h-2.2v-2.2h4.56v21.62h-2.36v-19.42Z"/><path class="cls-2" d="M1463.08,712.52h-19.96v-14.15h13.92v2.2h-11.55v3.72h10.71v2.2h-10.71v3.85h17.6v-11.55h-2.2v-2.2h4.56v18.1h-2.36v-2.16ZM1465.47,726.31h-19.08v-10.07h19.08v10.07ZM1448.75,718.23v5.88h14.36v-5.88h-14.36Z"/><path class="cls-2" d="M1470.88,713.94l-1.52-1.59,7.84-6.82v-4.46h-7.23v-2.2h16.18v2.2h-6.59v4.56l7.6,6.15-1.52,1.59-7.33-5.88-7.43,6.45ZM1473.18,721.17c0-1.8.87-3.18,2.6-4.14,1.73-.96,4.2-1.44,7.4-1.44,3.22-.02,5.7.45,7.43,1.42,1.73.97,2.6,2.35,2.6,4.15s-.87,3.15-2.6,4.12c-1.73.97-4.21,1.45-7.43,1.45s-5.66-.48-7.4-1.45c-1.73-.97-2.6-2.34-2.6-4.12ZM1475.54,721.17c0,1.08.66,1.91,1.98,2.5,1.32.58,3.2.88,5.66.88s4.37-.29,5.69-.88c1.32-.59,1.98-1.42,1.98-2.5s-.66-1.91-1.98-2.5c-1.32-.58-3.21-.88-5.69-.88s-4.34.29-5.66.88c-1.32.59-1.98,1.42-1.98,2.5ZM1492.6,714.42h-2.36v-15.5h-2.2v-2.2h4.56v7.5h4.66v2.2h-4.66v8Z"/><path class="cls-2" d="M1525.06,712.36h-27.39v-2.2h27.39v2.2ZM1521.58,725.87h-19.9v-6.55h17.23v-2.03h-17.23v-2.2h19.59v6.25h-17.23v2.33h17.53v2.2ZM1520.67,707.8h-18.92v-10h18.92v2.09h-16.65v5.81h16.65v2.09Z"/><rect class="cls-3" x="1279.23" y="767.42" width="544.15" height="49.46"/><rect class="cls-4" x="1269.23" y="767.42" width="544.15" height="49.46"/><path class="cls-5" d="M1293.72,793.24l-1.55-1.55,6.69-7.67v-6.28h2.36v6.15l7.33,7.09-1.55,1.55-6.86-6.59-6.42,7.3ZM1297.06,800.88c0-1.87.82-3.3,2.45-4.31,1.63-1,3.95-1.5,6.94-1.5s5.34.5,6.96,1.5c1.62,1,2.43,2.44,2.43,4.31s-.81,3.28-2.43,4.29c-1.62,1.01-3.94,1.52-6.96,1.52s-5.31-.51-6.94-1.52c-1.63-1.01-2.45-2.44-2.45-4.29ZM1299.36,800.88c0,1.17.61,2.08,1.84,2.72,1.23.64,2.98.96,5.25.96s4.02-.32,5.25-.96c1.23-.64,1.84-1.55,1.84-2.72s-.61-2.11-1.84-2.74c-1.23-.63-2.98-.95-5.25-.95s-4.03.32-5.25.95c-1.23.63-1.84,1.54-1.84,2.74ZM1315.43,794.05h-2.36v-9.46h-6.55v-2.2h6.55v-4.32h-2.2v-2.03h4.56v18Z"/><path class="cls-5" d="M1342.93,806.52h-2.2v-7.87h-17.6v-2.03h8.65v-4.39h-12.13v-2.2h26.72v2.2h-12.23v4.39h8.78v9.9ZM1322.8,788.18l-1.05-1.92,10.1-5.84v-4.05h2.36v4.05l9.9,5.74-1.05,1.93-10.03-5.84-10.23,5.94Z"/><path class="cls-5" d="M1365.02,782.37h-16.75v-2.2h7.03v-3.45h2.36v3.45h7.36v2.2ZM1349.75,789.7c0-1.13.3-2.12.9-2.99.6-.87,1.42-1.55,2.48-2.04,1.06-.5,2.26-.74,3.61-.74s2.54.25,3.58.74c1.04.5,1.85,1.18,2.43,2.04.58.87.88,1.86.88,2.99s-.29,2.13-.88,3.01c-.59.88-1.4,1.57-2.43,2.06-1.04.5-2.23.74-3.58.74s-2.56-.25-3.61-.74c-1.06-.5-1.89-1.18-2.48-2.06-.6-.88-.9-1.88-.9-3.01ZM1352.12,789.73c0,1.04.43,1.89,1.3,2.57.87.68,1.98,1.01,3.33,1.01s2.42-.33,3.26-.98c.84-.65,1.27-1.5,1.27-2.53s-.42-1.96-1.27-2.65c-.84-.69-1.93-1.03-3.26-1.03s-2.46.34-3.33,1.01c-.87.68-1.3,1.54-1.3,2.6ZM1352.66,806.08v-8.44h2.36v6.25h18.24v2.2h-20.6ZM1368.6,778.41h-2.2v-2.2h4.56v10.57h4.86v2.2h-4.86v10.5h-2.36v-21.08Z"/><path class="cls-5" d="M1398.63,781.86h-3.28v-2.2h18.1v2.2h-4.76v14.79h8.38v-18.24h-2.2v-2.2h4.56v30h-2.36v-7.36h-22.29v-2.2h3.85v-14.79ZM1400.99,781.86v14.79h5.34v-14.79h-5.34Z"/><path class="cls-5" d="M1450.14,803.01h-27.53v-2.2h27.53v2.2ZM1445.92,793.21h-19.19v-14.15h19.19v2.2h-16.82v9.76h16.82v2.2Z"/><path class="cls-5" d="M1464.06,792.53h-11.52v-13.85h2.36v4.73h6.79v-4.73h2.36v13.85ZM1454.9,785.44v4.9h6.79v-4.9h-6.79ZM1473.61,798.78h-17.4v-2.2h19.76v9.93h-2.36v-7.74ZM1467.84,778.79h-2.3v-2.2h4.56v8h3.61v-8h2.36v18.24h-2.36v-8.14h-3.61v8.14h-2.26v-16.04Z"/><path class="cls-5" d="M1515.13,783.92h-17.19v-2.2h7.43v-4.97h2.36v4.97h7.4v2.2ZM1506.55,799.53c-1.31,0-2.49-.29-3.55-.88-1.06-.59-1.9-1.37-2.52-2.35-.62-.98-.93-2.08-.93-3.29s.31-2.35.93-3.33c.62-.98,1.46-1.76,2.52-2.35,1.06-.59,2.24-.88,3.55-.88s2.45.29,3.5.88c1.05.59,1.87,1.37,2.48,2.35.61.98.91,2.09.91,3.33s-.3,2.31-.91,3.29c-.61.98-1.44,1.76-2.48,2.35-1.05.59-2.21.88-3.5.88ZM1501.92,793.07c0,.79.2,1.51.61,2.16.41.65.96,1.17,1.67,1.54.71.37,1.49.56,2.35.56s1.62-.19,2.3-.56c.68-.37,1.22-.88,1.62-1.52s.61-1.35.61-2.11c0-.83-.2-1.59-.61-2.26-.41-.67-.95-1.22-1.62-1.62-.68-.41-1.44-.61-2.3-.61s-1.64.2-2.35.59c-.71.39-1.27.92-1.67,1.59s-.61,1.41-.61,2.25ZM1517.8,778.41h-2.2v-2.2h4.56v12.19h6.08v2.2h-6.08v15.61h-2.36v-27.8Z"/><path class="cls-5" d="M1527.05,798.21c2.27-1.04,4.31-2.38,6.1-4.04,1.79-1.66,3.24-3.52,4.34-5.59,1.1-2.07,1.74-4.24,1.93-6.52h-10.94v-2.2h13.38c.07,2.3-.23,4.48-.88,6.54-.65,2.06-1.6,3.97-2.85,5.72-1.25,1.76-2.73,3.33-4.44,4.71-1.71,1.38-3.58,2.55-5.61,3.5l-1.01-2.13ZM1550.02,806.52h-2.36v-27.22h-2.2v-2.2h4.56v29.42Z"/><rect class="cls-3" x="1279.23" y="827.43" width="544.15" height="49.46"/><rect class="cls-4" x="1269.23" y="827.43" width="544.15" height="49.46"/><path class="cls-5" d="M1293.04,859.97l-1.69-1.49,7.8-8.88v-7.84h-6.82v-2.2h16.11v2.2h-6.92v7.84l7.8,8.88-1.69,1.49-7.3-8.28-7.3,8.28ZM1315.54,866.22h-2.36v-27.8h-2.2v-2.2h4.56v30Z"/><path class="cls-5" d="M1321.58,859.3l-1.72-1.35,7.7-10.37v-8.61h2.36v8.44l8.07,10.5-1.69,1.38-7.5-9.73-7.23,9.73ZM1344.11,866.22h-2.36v-27.8h-2.2v-2.2h4.56v30Z"/><path class="cls-5" d="M1365.16,843.93h-17.19v-2.2h7.43v-4.97h2.36v4.97h7.4v2.2ZM1356.58,859.53c-1.31,0-2.49-.29-3.55-.88-1.06-.59-1.9-1.37-2.52-2.35-.62-.98-.93-2.08-.93-3.29s.31-2.35.93-3.33c.62-.98,1.46-1.76,2.52-2.35,1.06-.59,2.24-.88,3.55-.88s2.45.29,3.5.88c1.05.59,1.87,1.37,2.48,2.35.61.98.91,2.09.91,3.33s-.3,2.31-.91,3.29c-.61.98-1.44,1.76-2.48,2.35-1.05.59-2.21.88-3.5.88ZM1351.95,853.08c0,.79.2,1.51.61,2.16.41.65.96,1.17,1.67,1.54.71.37,1.49.56,2.35.56s1.62-.19,2.3-.56c.68-.37,1.22-.88,1.62-1.52s.61-1.35.61-2.11c0-.83-.2-1.59-.61-2.26-.41-.67-.95-1.22-1.62-1.62-.68-.41-1.44-.61-2.3-.61s-1.64.2-2.35.59c-.71.39-1.27.92-1.67,1.59s-.61,1.41-.61,2.25ZM1367.82,838.42h-2.2v-2.2h4.56v12.19h6.08v2.2h-6.08v15.61h-2.36v-27.8Z"/><path class="cls-5" d="M1403.19,853.69h-26.95v-2.2h26.95v2.2ZM1400.42,865.58h-20.77v-8.75h2.36v6.55h18.41v2.2ZM1399.51,847.47h-19.05v-10.34h2.36v8.14h16.69v2.2Z"/><path class="cls-5" d="M1437.47,851.7h-12.63v-13.71h2.36v4.56h7.9v-4.56h2.36v5.27h6.92v-3.95h-2.2v-2.2h4.56v15.64h-2.36v-7.3h-6.92v6.25ZM1427.2,844.74v4.76h7.9v-4.76h-7.9ZM1446.73,865.85h-18.31v-11.72h2.36v4.02h13.58v-3.92h2.36v11.62ZM1430.78,860.34v3.31h13.58v-3.31h-13.58Z"/><rect class="cls-3" x="1279.23" y="887.43" width="544.15" height="49.46"/><rect class="cls-4" x="1269.23" y="887.43" width="544.15" height="49.46"/><path class="cls-5" d="M1292.06,904.3c0-1.31.33-2.48,1-3.51.66-1.04,1.56-1.86,2.7-2.48,1.14-.62,2.4-.93,3.8-.93s2.65.31,3.77.93c1.11.62,2,1.45,2.65,2.48.65,1.04.98,2.21.98,3.51s-.33,2.44-.98,3.48c-.65,1.04-1.54,1.86-2.65,2.47-1.11.61-2.37.91-3.77.91s-2.66-.3-3.8-.91c-1.14-.61-2.04-1.43-2.7-2.47-.66-1.04-1-2.2-1-3.48ZM1294.42,904.34c0,.86.22,1.64.68,2.35.45.71,1.06,1.27,1.82,1.67.77.41,1.62.61,2.57.61s1.83-.21,2.6-.62c.77-.42,1.37-.98,1.82-1.69.45-.71.68-1.49.68-2.35s-.23-1.68-.68-2.4c-.45-.72-1.05-1.29-1.81-1.71-.75-.42-1.6-.62-2.55-.62s-1.81.21-2.58.64-1.4,1-1.86,1.71c-.46.71-.69,1.51-.69,2.42ZM1313.37,915.62h-16.82v-2.2h19.19v7.7h-16.82v3.24h17.83v2.2h-20.2v-7.63h16.82v-3.31ZM1313.24,898.46h-2.2v-2.2h4.56v15.67h-2.36v-13.48Z"/><path class="cls-5" d="M1341.31,919.54h-21.58v-2.2h21.55l-.03-18.88h-2.23v-2.2h4.66v30.26h-2.36v-6.99ZM1321.99,905.96c0-1.24.33-2.37,1-3.38.66-1.01,1.55-1.83,2.67-2.45,1.11-.62,2.33-.93,3.63-.93,1.31.04,2.5.39,3.6,1.03s1.97,1.46,2.63,2.47c.66,1,1,2.09,1,3.26s-.33,2.3-1,3.31c-.66,1.01-1.54,1.82-2.63,2.43-1.09.61-2.29.91-3.6.91s-2.52-.3-3.63-.91c-1.11-.61-2-1.42-2.67-2.43-.66-1.01-1-2.12-1-3.31ZM1324.35,905.96c0,.79.23,1.52.68,2.2.45.68,1.05,1.22,1.81,1.62.75.41,1.57.61,2.45.61s1.69-.2,2.43-.61,1.33-.95,1.77-1.62c.44-.68.66-1.41.66-2.2,0-.83-.22-1.59-.66-2.28-.44-.69-1.03-1.24-1.77-1.66-.74-.42-1.55-.62-2.43-.62s-1.69.21-2.45.62c-.75.42-1.36.97-1.81,1.66-.45.69-.68,1.45-.68,2.28Z"/><path class="cls-5" d="M1380.69,912.34h-13.17v-14.05h2.36v4.63h8.58v-4.63h2.23v14.05ZM1369.88,905.11v5.03h8.58v-5.03h-8.58ZM1370.26,920.89c0-1.71.84-3.02,2.52-3.94,1.68-.91,4.08-1.37,7.21-1.37,3.13-.02,5.53.42,7.21,1.33,1.68.91,2.52,2.23,2.52,3.97s-.84,3.19-2.52,4.17c-1.68.98-4.08,1.47-7.21,1.47s-5.53-.49-7.21-1.47c-1.68-.98-2.52-2.37-2.52-4.17ZM1372.62,920.89c0,1.1.64,1.95,1.91,2.55,1.27.6,3.09.9,5.46.9s4.18-.3,5.46-.9c1.27-.6,1.91-1.45,1.91-2.55,0-.99-.64-1.76-1.91-2.3-1.27-.54-3.09-.81-5.46-.81s-4.18.27-5.46.81c-1.27.54-1.91,1.31-1.91,2.3ZM1386.87,898.26h-2.2v-2.2h4.56v7.67h4.76v2.2h-4.76v8.88h-2.36v-16.55Z"/><path class="cls-5" d="M1409.1,911.7h-12.63v-13.71h2.36v4.56h7.9v-4.56h2.36v5.27h6.92v-3.95h-2.2v-2.2h4.56v15.64h-2.36v-7.3h-6.92v6.25ZM1398.83,904.74v4.76h7.9v-4.76h-7.9ZM1418.35,925.85h-18.31v-11.72h2.36v4.02h13.58v-3.92h2.36v11.62ZM1402.41,920.35v3.31h13.58v-3.31h-13.58Z"/><path class="cls-5" d="M1449.73,915.55h-26.68v-2.2h12.06v-3.34h-8.21v-7.63h16.85v-2.6h-16.85v-2.2h19.22v6.99h-16.86v3.24h17.46v2.2h-9.26v3.34h12.26v2.2ZM1447,926.43h-20.57v-8.24h2.2v6.05h18.38v2.2Z"/><path class="cls-5" d="M1482.36,918.46h-11.86v-18.81h2.36v8.34h7.13v-8.34h2.36v18.81ZM1472.87,910.18v6.08h7.13v-6.08h-7.13ZM1495.37,926.16h-2.36v-14.83h-4.22v14.83h-2.36v-27.9h-2.2v-2.2h4.56v13.07h4.22v-13.07h2.36v30.1Z"/><path class="cls-5" d="M1510.16,916.09h-12.53v-2.2h27.39v2.2h-12.5v10.44h-2.36v-10.44ZM1511.34,910.82c-1.58,0-3.01-.31-4.29-.93-1.28-.62-2.3-1.45-3.06-2.48-.75-1.04-1.13-2.2-1.13-3.48s.38-2.44,1.13-3.46,1.77-1.84,3.06-2.45c1.28-.61,2.71-.91,4.29-.91s3.03.3,4.31.91c1.27.61,2.29,1.42,3.04,2.45s1.13,2.18,1.13,3.46-.38,2.44-1.13,3.48c-.75,1.04-1.77,1.86-3.04,2.48-1.27.62-2.71.93-4.31.93ZM1505.23,903.93c0,.88.27,1.67.81,2.38.54.71,1.28,1.27,2.21,1.69.93.42,1.96.62,3.09.62s2.18-.21,3.11-.62c.92-.42,1.65-.98,2.2-1.69.54-.71.81-1.5.81-2.38s-.27-1.67-.81-2.36c-.54-.7-1.27-1.25-2.2-1.66-.92-.41-1.96-.61-3.11-.61s-2.16.2-3.09.61c-.93.41-1.67.96-2.21,1.66-.54.7-.81,1.49-.81,2.36Z"/><path class="cls-5" d="M1527.05,918.22c2.27-1.04,4.31-2.38,6.1-4.04,1.79-1.66,3.24-3.52,4.34-5.59,1.1-2.07,1.74-4.24,1.93-6.52h-10.94v-2.2h13.38c.07,2.3-.23,4.48-.88,6.54-.65,2.06-1.6,3.97-2.85,5.72-1.25,1.76-2.73,3.33-4.44,4.71-1.71,1.38-3.58,2.55-5.61,3.5l-1.01-2.13ZM1550.02,926.53h-2.36v-27.22h-2.2v-2.2h4.56v29.42Z"/><path class="cls-5" d="M709.24,176.31h-4v-26.34h-7.49v12.74h-19.43v-30.68h19.43v14.23h7.49v-16.34h-3.71v-3.71h7.71v50.11ZM682.33,135.75v23.25h11.43v-23.25h-11.43ZM719.07,176.31h-4v-50.11h4v50.11Z"/><path class="cls-5" d="M728.33,165.29l-2.91-2.29,13.03-17.54v-14.57h4v14.29l13.66,17.77-2.86,2.34-12.69-16.46-12.23,16.46ZM766.44,177h-4v-47.03h-3.71v-3.71h7.71v50.74Z"/><path class="cls-5" d="M776.04,166.43l-2.86-2.51,13.2-15.03v-13.26h-11.54v-3.71h27.25v3.71h-11.71v13.26l13.2,15.03-2.86,2.51-12.34-14-12.34,14ZM814.09,177h-4v-47.03h-3.71v-3.71h7.71v50.74Z"/><path class="cls-5" d="M866.83,154.37h-45.77v-3.71h45.77v3.71ZM860.95,176.43h-33.65v-11.08h29.14v-3.43h-29.14v-3.71h33.14v10.57h-29.14v3.94h29.65v3.71ZM856.49,132.14h-29.14v-3.71h33.14v10.69h-29.14v4.23h29.65v3.71h-33.65v-11.37h29.14v-3.54Z"/><path class="cls-5" d="M945.74,170.6h-46.4v-3.71h46.4v3.71ZM903.4,157.11l-2.74-2.4,10.29-10.8v-13.94h3.89v13.77l7.83,7.08,7.6-6.91v-13.88h3.89v13.83l10.51,10.86-2.74,2.4-9.77-10.11-9.48,8.68-9.6-8.74-9.66,10.17Z"/><path class="cls-5" d="M988.93,177h-4v-20.28h-14.8v-3.71h14.8v-10.06h-13.31v5.54h-16.91v11.77h20.74v3.71h-24.74v-19.2h16.91v-9.54h-16.91v-3.71h20.91v7.71h13.31v-8.69h-3.71v-3.71h7.71v50.17Z"/><path class="cls-5" d="M1029.62,125.97h7.14v37.43h-4v-13.6h-11.83v4.29h-22.68v-23.37h22.68v4.4h11.83v-5.43h-3.14v-3.71ZM1002.25,134.43v15.94h14.68v-15.94h-14.68ZM1038.64,176.2h-33.83v-16.4h4v12.68h29.83v3.71ZM1020.93,138.83v7.26h11.83v-7.26h-11.83Z"/><path class="cls-5" d="M1055.73,176.94l-12.63-.06v-3.71l9.03.06v-3.03h-3.77v-6.29h7.37v13.03Z"/><path class="cls-5" d="M1103.5,163.46c3.85-1.75,7.29-4.03,10.31-6.83s5.48-5.95,7.34-9.46c1.87-3.5,2.95-7.18,3.26-11.03h-18.51v-3.71h22.63c.11,3.89-.38,7.57-1.49,11.06-1.1,3.49-2.71,6.71-4.83,9.68-2.11,2.97-4.62,5.63-7.51,7.97-2.9,2.34-6.06,4.31-9.48,5.91l-1.71-3.6ZM1142.35,177.51h-4v-46.05h-3.71v-3.71h7.71v49.77Z"/><path class="cls-5" d="M1195.66,158.6h-45.65v-3.71h20.91v-6.34h-14.28v-19.83h4v6.69h24.46v-6.69h4v19.83h-14.17v6.34h20.74v3.71ZM1155.95,177.86v-14.63h4v10.97h31.6v3.66h-35.6ZM1160.63,139.12v5.71h24.46v-5.71h-24.46Z"/><path class="cls-5" d="M1201.14,155.51l-2.63-2.69,13.08-12.23v-7.49h-11.26v-3.71h26.46v3.71h-11.2v7.43l13.43,11.14-2.51,2.69-12.86-10.57-12.51,11.71ZM1235.26,163.23h-29.77v-3.71h33.77v18h-4v-14.28ZM1235.26,143.17h-10.51v-3.71h10.51v-9.54h-3.71v-3.71h7.71v30.4h-4v-13.43Z"/><path class="cls-5" d="M1291.99,171.29h-46.34v-3.71h46.34v3.71ZM1268.85,158.26c-3.05,0-5.81-.59-8.29-1.77-2.48-1.18-4.44-2.77-5.89-4.77-1.45-2-2.17-4.24-2.17-6.71s.72-4.72,2.17-6.74c1.45-2.02,3.41-3.62,5.89-4.8,2.48-1.18,5.24-1.77,8.29-1.77s5.81.59,8.29,1.77c2.48,1.18,4.44,2.78,5.89,4.8,1.45,2.02,2.17,4.27,2.17,6.74s-.72,4.71-2.17,6.71c-1.45,2-3.41,3.59-5.89,4.77-2.48,1.18-5.24,1.77-8.29,1.77ZM1256.51,145c0,1.79.55,3.41,1.66,4.86,1.1,1.45,2.59,2.59,4.46,3.43,1.87.84,3.94,1.26,6.23,1.26s4.41-.42,6.26-1.26c1.85-.84,3.32-1.98,4.43-3.43,1.1-1.45,1.66-3.07,1.66-4.86s-.55-3.41-1.66-4.86c-1.1-1.45-2.58-2.6-4.43-3.46-1.85-.86-3.93-1.29-6.26-1.29s-4.36.43-6.23,1.29c-1.87.86-3.35,2.01-4.46,3.46-1.11,1.45-1.66,3.07-1.66,4.86Z"/><path class="cls-5" d="M1300.62,155v-14.4h28.46v-5.83h-28.46v-3.71h32.45v13.26h-28.45v6.97h28.45v3.71h-14.11v12.86h21.2v3.71h-46.4v-3.71h21.2v-12.86h-14.34Z"/><path class="cls-5" d="M1418.95,156.26h-46.34v-3.71h21.08v-6.4h-15.88v-17.2h34.85v3.54h-14.97v10.11h14.97v3.54h-14.97v6.4h21.26v3.71ZM1409.18,164.89h-31.2v-3.71h35.2v16.34h-4v-12.63ZM1381.64,132.49v10.11h12.06v-10.11h-12.06Z"/><path class="cls-5" d="M1466.95,156.26h-46.34v-3.71h21.08v-6.4h-15.88v-17.2h34.85v3.54h-14.97v10.11h14.97v3.54h-14.97v6.4h21.26v3.71ZM1457.18,164.89h-31.2v-3.71h35.2v16.34h-4v-12.63ZM1429.64,132.49v10.11h12.06v-10.11h-12.06Z"/><path class="cls-5" d="M1494.38,139.23h-25.77v-3.71h10.8v-7.89h4v7.89h10.97v3.71ZM1481.29,164.03c-2.06,0-3.91-.47-5.57-1.4-1.66-.93-2.97-2.19-3.94-3.77-.97-1.58-1.46-3.34-1.46-5.29s.49-3.76,1.46-5.34c.97-1.58,2.29-2.84,3.94-3.77,1.66-.93,3.51-1.4,5.57-1.4s3.85.47,5.49,1.4c1.64.93,2.93,2.19,3.89,3.77.95,1.58,1.43,3.36,1.43,5.34s-.48,3.71-1.43,5.29c-.95,1.58-2.25,2.84-3.89,3.77-1.64.93-3.47,1.4-5.49,1.4ZM1474.32,153.69c0,1.22.31,2.33.94,3.34.63,1.01,1.47,1.81,2.51,2.4,1.05.59,2.22.89,3.51.89,1.9,0,3.51-.63,4.83-1.89,1.31-1.26,1.97-2.8,1.97-4.63,0-1.98-.66-3.65-1.97-5-1.31-1.35-2.92-2.03-4.83-2.03-1.3,0-2.47.31-3.51.91-1.05.61-1.89,1.44-2.51,2.49-.63,1.05-.94,2.22-.94,3.51ZM1496.6,129.97h-3.14v-3.71h7.14v21.37h6.69v-21.37h4v50.62h-4v-25.54h-6.69v25.54h-4v-46.91Z"/><path class="cls-5" d="M1517.46,148.09c0-4.65,1.16-8.31,3.49-11,2.32-2.69,5.45-4.03,9.37-4.03,3.92.19,7.03,1.64,9.31,4.34,2.29,2.71,3.43,6.27,3.43,10.69,0,3.05-.51,5.68-1.54,7.91-1.03,2.23-2.5,3.95-4.4,5.17-1.91,1.22-4.17,1.83-6.8,1.83s-4.91-.61-6.83-1.83c-1.92-1.22-3.41-2.94-4.46-5.17-1.05-2.23-1.57-4.87-1.57-7.91ZM1521.46,148.09c0,3.43.8,6.15,2.4,8.17,1.6,2.02,3.75,3.03,6.46,3.03s4.84-1.01,6.4-3.03c1.56-2.02,2.34-4.74,2.34-8.17s-.78-6.27-2.34-8.29c-1.56-2.02-3.7-3.03-6.4-3.03s-4.86,1.01-6.46,3.03c-1.6,2.02-2.4,4.78-2.4,8.29ZM1555.34,177.8h-4v-47.25h-3.71v-3.71h7.71v13.03h9.2v3.71h-9.2v11.54h9.2v3.71h-9.2v18.97Z"/><path class="cls-5" d="M1624.99,135.92h-28.91v-3.71h13.14v-5.83h4v5.83h11.77v3.71ZM1598.54,147.12c0-1.83.51-3.43,1.54-4.8,1.03-1.37,2.46-2.45,4.29-3.23,1.83-.78,3.92-1.17,6.29-1.17s4.44.39,6.23,1.17c1.79.78,3.19,1.86,4.2,3.23,1.01,1.37,1.51,2.97,1.51,4.8s-.51,3.37-1.51,4.74c-1.01,1.37-2.41,2.45-4.2,3.23-1.79.78-3.87,1.17-6.23,1.17s-4.46-.39-6.29-1.17c-1.83-.78-3.26-1.86-4.29-3.23-1.03-1.37-1.54-2.95-1.54-4.74ZM1602.54,147.17c0,1.56.76,2.85,2.29,3.86,1.52,1.01,3.47,1.51,5.83,1.51s4.28-.49,5.74-1.49c1.47-.99,2.2-2.25,2.2-3.77,0-1.68-.73-3.04-2.2-4.09-1.47-1.05-3.38-1.57-5.74-1.57s-4.31.51-5.83,1.54c-1.52,1.03-2.29,2.36-2.29,4ZM1634.65,176.77h-31.37v-17.88h4v5.49h23.37v-5.49h4v17.88ZM1607.28,168.09v4.97h23.37v-4.97h-23.37ZM1630.65,130.83h-3.71v-3.71h7.71v11.6h8.06v3.71h-8.06v13.94h-4v-25.54Z"/><path class="cls-5" d="M1680.25,162.49h-33.08l.11-32.05h4l-.11,28.34h29.08v-29.08h-3.14v-3.43h7.14v50.74h-4v-14.51Z"/><path class="cls-5" d="M1726.3,163.11h-32.17l.11-28.06v-2.11h23.03v3.71h-19.03l-.11,22.74h28.17v-29.71h-3.71v-3.71h7.71v20.28h8.8v3.71h-8.8v26.68h-4v-13.54Z"/><path class="cls-5" d="M1739.78,170.43v-6.34h6.34v6.34h-6.34Z"/><path class="cls-5" d="M701.87,222.66h-22.28v-20.97h22.28v20.97ZM683.59,205.41v13.54h14.28v-13.54h-14.28ZM718.21,248.66h-33.37v-13.2h26.97v-4.8h-26.97v-3.54h30.97v12.06h-26.97v5.77h29.37v3.71ZM715.93,224.66h-4v-22.8h-3.71v-3.71h7.71v11.54h7.03v3.71h-7.03v11.26Z"/><path class="cls-5" d="M765.64,248.83h-4v-20.17h-17.66v20.17h-4v-20.17h-14.91v-3.71h24.63v-17.71h-20.06v-3.71h24.06v21.43h7.94v-21.94h-3.71v-3.71h7.71v49.54Z"/><path class="cls-5" d="M818.83,226.55h-45.77v-3.71h45.77v3.71ZM812.95,248.6h-33.65v-11.08h29.14v-3.43h-29.14v-3.71h33.14v10.57h-29.14v3.94h29.65v3.71ZM808.49,204.32h-29.14v-3.71h33.14v10.69h-29.14v4.23h29.65v3.71h-33.65v-11.37h29.14v-3.54Z"/><path class="cls-5" d="M853.35,211.98c0-2.13.54-4.05,1.63-5.74,1.09-1.7,2.55-3.05,4.4-4.06,1.85-1.01,3.89-1.51,6.14-1.51s4.27.5,6.06,1.51c1.79,1.01,3.22,2.36,4.29,4.06,1.07,1.7,1.6,3.61,1.6,5.74s-.53,4.14-1.6,5.91c-1.07,1.77-2.5,3.18-4.29,4.23-1.79,1.05-3.81,1.57-6.06,1.57s-4.3-.52-6.14-1.57c-1.85-1.05-3.31-2.46-4.4-4.23-1.09-1.77-1.63-3.74-1.63-5.91ZM857.35,212.03c0,1.49.36,2.83,1.09,4.03.72,1.2,1.69,2.15,2.91,2.86,1.22.71,2.57,1.06,4.06,1.06s2.89-.35,4.09-1.06c1.2-.71,2.16-1.67,2.89-2.89.72-1.22,1.09-2.57,1.09-4.06s-.35-2.69-1.06-3.83c-.71-1.14-1.66-2.06-2.86-2.74-1.2-.69-2.54-1.03-4.03-1.03s-2.91.34-4.14,1.03c-1.24.69-2.22,1.6-2.94,2.74-.72,1.14-1.09,2.44-1.09,3.88ZM893,249.63h-33.65v-13.03h27.31v-5.31h-27.66v-3.71h31.65v12.74h-27.31v5.6h29.65v3.71ZM886.43,202.78h-3.71v-3.71h7.71v11.03h8.17v3.71h-8.17v11.26h-4v-22.28Z"/><path class="cls-5" d="M900.71,220.03c0-5.22,1.06-9.22,3.17-12s5.13-4.17,9.06-4.17c3.89.15,6.88,1.63,8.97,4.43,2.09,2.8,3.14,6.71,3.14,11.74s-1.05,9.09-3.14,11.86c-2.1,2.76-5.09,4.14-8.97,4.14s-6.94-1.38-9.06-4.14c-2.11-2.76-3.17-6.71-3.17-11.86ZM904.71,220.03c0,3.92.71,6.95,2.14,9.08,1.43,2.13,3.46,3.2,6.08,3.2s4.59-1.07,6-3.2c1.41-2.13,2.11-5.16,2.11-9.08s-.71-7.08-2.11-9.23c-1.41-2.15-3.41-3.23-6-3.23s-4.66,1.08-6.08,3.23c-1.43,2.15-2.14,5.23-2.14,9.23ZM938.08,249.97h-4v-47.25h-3.71v-3.71h7.71v20.46h9.2v3.71h-9.2v26.8Z"/><path class="cls-5" d="M993.68,225.75h-46.34v-3.71h46.34v3.71ZM987.79,248.6h-33.65v-11.08h29.14v-3.43h-29.14v-3.71h33.14v10.57h-29.14v3.94h29.65v3.71ZM986.25,218.03h-32v-16.91h32v3.54h-28.17v9.83h28.17v3.54Z"/><path class="cls-5" d="M1036.93,249.97h-4v-27.77h-11.94c-.23,4.61-1.38,8.14-3.46,10.6-2.08,2.46-4.94,3.68-8.6,3.68-3.92,0-6.94-1.38-9.06-4.14s-3.17-6.71-3.17-11.86,1.06-9.22,3.17-12,5.13-4.17,9.06-4.17c3.62.15,6.47,1.45,8.54,3.89,2.08,2.44,3.25,5.87,3.51,10.29h11.94v-15.77h-3.71v-3.71h7.71v50.97ZM1000.7,220.49c0,3.92.71,6.95,2.14,9.08,1.43,2.13,3.46,3.2,6.08,3.2s4.59-1.07,6-3.2c1.41-2.13,2.11-5.16,2.11-9.08s-.71-7.08-2.11-9.23c-1.41-2.15-3.41-3.23-6-3.23s-4.66,1.08-6.08,3.23c-1.43,2.15-2.14,5.23-2.14,9.23Z"/><path class="cls-5" d="M1044.19,220.26c0-4.65,1.16-8.31,3.49-11,2.32-2.69,5.45-4.03,9.37-4.03,3.92.19,7.03,1.64,9.31,4.34,2.29,2.71,3.43,6.27,3.43,10.69,0,3.05-.51,5.68-1.54,7.91-1.03,2.23-2.5,3.95-4.4,5.17-1.91,1.22-4.17,1.83-6.8,1.83s-4.91-.61-6.83-1.83c-1.92-1.22-3.41-2.94-4.46-5.17-1.05-2.23-1.57-4.87-1.57-7.91ZM1048.19,220.26c0,3.43.8,6.15,2.4,8.17,1.6,2.02,3.75,3.03,6.46,3.03s4.84-1.01,6.4-3.03c1.56-2.02,2.34-4.74,2.34-8.17s-.78-6.27-2.34-8.29c-1.56-2.02-3.7-3.03-6.4-3.03s-4.86,1.01-6.46,3.03c-1.6,2.02-2.4,4.78-2.4,8.29ZM1082.07,249.97h-4v-47.25h-3.71v-3.71h7.71v13.03h9.2v3.71h-9.2v11.54h9.2v3.71h-9.2v18.97Z"/><path class="cls-5" d="M1151.72,211.46h-29.08v-3.71h12.57v-8.4h4v8.4h12.51v3.71ZM1137.21,237.86c-2.21,0-4.21-.5-6-1.49-1.79-.99-3.21-2.31-4.26-3.97-1.05-1.66-1.57-3.51-1.57-5.57s.52-3.97,1.57-5.63c1.05-1.66,2.47-2.98,4.26-3.97,1.79-.99,3.79-1.49,6-1.49s4.14.5,5.91,1.49c1.77.99,3.17,2.31,4.2,3.97,1.03,1.66,1.54,3.53,1.54,5.63s-.51,3.91-1.54,5.57c-1.03,1.66-2.43,2.98-4.2,3.97-1.77.99-3.74,1.49-5.91,1.49ZM1129.38,226.95c0,1.33.34,2.55,1.03,3.66.69,1.11,1.63,1.97,2.83,2.6,1.2.63,2.52.94,3.97.94s2.74-.31,3.89-.94c1.14-.63,2.06-1.49,2.74-2.57.69-1.08,1.03-2.28,1.03-3.57,0-1.41-.34-2.69-1.03-3.83s-1.6-2.06-2.74-2.74c-1.14-.69-2.44-1.03-3.89-1.03s-2.77.33-3.97,1c-1.2.67-2.14,1.56-2.83,2.69-.69,1.12-1.03,2.39-1.03,3.8ZM1156.23,202.15h-3.71v-3.71h7.71v20.63h10.28v3.71h-10.28v26.4h-4v-47.03Z"/><path class="cls-5" d="M1215.49,242.95h-44.28v-3.71h17.66v-18.11h4v18.11h12.63v-32.28h-28.46v-3.71h32.45v36h6v3.71Z"/><path class="cls-5" d="M1274,225.69h-22.28v-23.77h4v7.83h14.51v-7.83h3.77v23.77ZM1255.71,213.46v8.51h14.51v-8.51h-14.51ZM1256.34,240.15c0-2.89,1.42-5.11,4.26-6.66,2.84-1.54,6.9-2.31,12.2-2.31,5.29-.04,9.36.71,12.2,2.26,2.84,1.54,4.26,3.78,4.26,6.71s-1.42,5.4-4.26,7.06c-2.84,1.66-6.9,2.49-12.2,2.49s-9.36-.83-12.2-2.49c-2.84-1.66-4.26-4.01-4.26-7.06ZM1260.34,240.15c0,1.87,1.08,3.3,3.23,4.31,2.15,1.01,5.23,1.51,9.23,1.51s7.08-.5,9.23-1.51c2.15-1.01,3.23-2.45,3.23-4.31,0-1.68-1.08-2.97-3.23-3.89-2.15-.91-5.23-1.37-9.23-1.37s-7.08.46-9.23,1.37c-2.15.92-3.23,2.21-3.23,3.89ZM1284.45,201.86h-3.71v-3.71h7.71v12.97h8.06v3.71h-8.06v15.03h-4v-28Z"/><path class="cls-5" d="M1322.05,224.6h-21.37v-23.2h4v7.71h13.37v-7.71h4v8.91h11.71v-6.69h-3.71v-3.71h7.71v26.46h-4v-12.34h-11.71v10.57ZM1304.68,212.83v8.06h13.37v-8.06h-13.37ZM1337.7,248.55h-30.97v-19.83h4v6.8h22.97v-6.63h4v19.66ZM1310.73,239.23v5.6h22.97v-5.6h-22.97Z"/><path class="cls-5" d="M1391.01,224.83h-45.94v-3.71h45.94v3.71ZM1381.3,232.89h-30.23v-3.71h34.23v11.94h-30.23v4.8h31.77v3.71h-35.77v-12.23h30.23v-4.51ZM1351.87,208.55c0-1.75.69-3.3,2.06-4.66,1.37-1.35,3.29-2.41,5.74-3.17,2.46-.76,5.27-1.14,8.43-1.14s6.02.38,8.46,1.14c2.44.76,4.34,1.82,5.71,3.17,1.37,1.35,2.06,2.91,2.06,4.66s-.69,3.31-2.06,4.69c-1.37,1.37-3.28,2.44-5.71,3.2-2.44.76-5.26,1.14-8.46,1.14s-5.97-.38-8.43-1.14c-2.46-.76-4.37-1.83-5.74-3.2-1.37-1.37-2.06-2.93-2.06-4.69ZM1355.87,208.55c0,1.03.52,1.95,1.57,2.77,1.05.82,2.49,1.46,4.31,1.91,1.83.46,3.94.69,6.34.69s4.52-.23,6.37-.69c1.85-.46,3.29-1.09,4.31-1.91,1.03-.82,1.54-1.74,1.54-2.77s-.51-1.93-1.54-2.71c-1.03-.78-2.47-1.39-4.31-1.83-1.85-.44-3.97-.66-6.37-.66s-4.51.22-6.34.66c-1.83.44-3.27,1.05-4.31,1.83-1.05.78-1.57,1.69-1.57,2.71Z"/><path class="cls-5" d="M1456.84,236.43h-28.4v-31.77h26.8v3.71h-9.49v24.34h11.08v3.71ZM1432.44,208.38v24.34h9.31v-24.34h-9.31ZM1462.55,221.29h-11.03v-3.71h11.03v-14.57h-3.71v-3.71h7.71v50.4h-4v-28.4Z"/><path class="cls-5" d="M1517.86,225.23h-45.65v-3.71h20.86v-4.06c-9.1-.34-13.66-3.33-13.66-8.97,0-5.98,5.22-8.97,15.66-8.97s15.66,2.99,15.66,8.97c0,5.64-4.55,8.63-13.66,8.97v4.06h20.8v3.71ZM1508.09,232.77h-30.05v-3.71h34.05v11.94h-30.06v5.2h31.48v3.71h-35.48v-12.63h30.05v-4.51ZM1483.41,208.55c0,3.54,3.89,5.31,11.66,5.31s11.66-1.77,11.66-5.31-3.89-5.26-11.66-5.26-11.66,1.75-11.66,5.26Z"/><path class="cls-5" d="M1561.46,249.17h-4v-20.28h-14.8v-3.71h14.8v-10.06h-13.31v5.54h-16.91v11.77h20.74v3.71h-24.74v-19.2h16.91v-9.54h-16.91v-3.71h20.91v7.71h13.31v-8.69h-3.71v-3.71h7.71v50.17Z"/><path class="cls-5" d="M1568.71,220.26c0-4.65,1.16-8.31,3.49-11,2.32-2.69,5.45-4.03,9.37-4.03,3.92.19,7.03,1.64,9.31,4.34,2.29,2.71,3.43,6.27,3.43,10.69,0,3.05-.51,5.68-1.54,7.91-1.03,2.23-2.5,3.95-4.4,5.17-1.91,1.22-4.17,1.83-6.8,1.83s-4.91-.61-6.83-1.83c-1.92-1.22-3.41-2.94-4.46-5.17-1.05-2.23-1.57-4.87-1.57-7.91ZM1572.71,220.26c0,3.43.8,6.15,2.4,8.17,1.6,2.02,3.75,3.03,6.46,3.03s4.84-1.01,6.4-3.03c1.56-2.02,2.34-4.74,2.34-8.17s-.78-6.27-2.34-8.29c-1.56-2.02-3.7-3.03-6.4-3.03s-4.86,1.01-6.46,3.03c-1.6,2.02-2.4,4.78-2.4,8.29ZM1606.6,249.97h-4v-47.25h-3.71v-3.71h7.71v13.03h9.2v3.71h-9.2v11.54h9.2v3.71h-9.2v18.97Z"/><path class="cls-5" d="M1676.25,211.46h-29.08v-3.71h12.57v-8.4h4v8.4h12.51v3.71ZM1661.73,237.86c-2.21,0-4.21-.5-6-1.49-1.79-.99-3.21-2.31-4.26-3.97-1.05-1.66-1.57-3.51-1.57-5.57s.52-3.97,1.57-5.63c1.05-1.66,2.47-2.98,4.26-3.97,1.79-.99,3.79-1.49,6-1.49s4.14.5,5.91,1.49c1.77.99,3.17,2.31,4.2,3.97,1.03,1.66,1.54,3.53,1.54,5.63s-.51,3.91-1.54,5.57c-1.03,1.66-2.43,2.98-4.2,3.97-1.77.99-3.74,1.49-5.91,1.49ZM1653.9,226.95c0,1.33.34,2.55,1.03,3.66.69,1.11,1.63,1.97,2.83,2.6,1.2.63,2.52.94,3.97.94s2.74-.31,3.89-.94c1.14-.63,2.06-1.49,2.74-2.57.69-1.08,1.03-2.28,1.03-3.57,0-1.41-.34-2.69-1.03-3.83s-1.6-2.06-2.74-2.74c-1.14-.69-2.44-1.03-3.89-1.03s-2.77.33-3.97,1c-1.2.67-2.14,1.56-2.83,2.69-.69,1.12-1.03,2.39-1.03,3.8ZM1680.76,202.15h-3.71v-3.71h7.71v20.63h10.28v3.71h-10.28v26.4h-4v-47.03Z"/><path class="cls-5" d="M1741.1,243.8h-46.4v-3.71h12.8v-11.71h4v11.71h12.68v-11.71h4v11.71h12.91v3.71ZM1697.96,230.83l-2-3.14,19.88-12.68v-7.54h-17.48v-3.71h38.91v3.71h-17.43v7.54l19.88,12.68-2,3.14-19.88-12.68-19.88,12.68Z"/><path class="cls-5" d="M1743.04,242.6v-6.34h6.34v6.34h-6.34Z"/><path class="cls-5" d="M722.27,315.69h-45.14v-3.71h20.57v-12.63h-14.34v-23.94h32.45v23.94h-14.11v12.63h20.57v3.71ZM687.36,279.12v16.51h24.46v-16.51h-24.46Z"/><path class="cls-5" d="M770.9,315.92h-46.4v-3.71h46.4v3.71ZM731.36,301.64v-16.11h28.46v-6.4h-28.46v-3.71h32.45v13.83h-28.45v8.69h28.45v3.71h-32.45Z"/><path class="cls-5" d="M806.78,270.32h7.14v37.43h-4v-13.6h-11.83v4.29h-22.68v-23.37h22.68v4.4h11.83v-5.43h-3.14v-3.71ZM779.41,278.78v15.94h14.68v-15.94h-14.68ZM815.81,320.55h-33.83v-16.4h4v12.68h29.83v3.71ZM798.09,283.18v7.26h11.83v-7.26h-11.83Z"/><path class="cls-5" d="M872.43,296.84h-20.91v-3.71h45.77v3.71h-20.86v5.26h15.08v11.31h-30.34v4.86l31.94.11v3.6l-35.94-.11v-12.06h30.34v-4.11h-30.17v-3.6h15.08v-5.26ZM890.66,289.07h-32.45v-15.83h4v4.17h24.46v-4.17h4v15.83ZM862.2,281.01v4.34h24.46v-4.34h-24.46Z"/><path class="cls-5" d="M924.43,298.21h-22.28v-23.03h22.28v23.03ZM906.14,278.89v15.6h14.28v-15.6h-14.28ZM942.25,320.66h-33.37v-16.91h4v13.2h29.37v3.71ZM934.42,274.38h-3.71v-3.71h7.71v15.66h8.17v3.71h-8.17v18.06h-4v-33.71Z"/><path class="cls-5" d="M972.42,298.21h-22.28v-23.03h22.28v23.03ZM954.14,278.89v15.6h14.28v-15.6h-14.28ZM990.25,320.66h-33.37v-16.91h4v13.2h29.37v3.71ZM982.42,274.38h-3.71v-3.71h7.71v15.66h8.17v3.71h-8.17v18.06h-4v-33.71Z"/><path class="cls-5" d="M1051.56,295.47h-22.28v-20.97h22.28v20.97ZM1032.07,318.66l-.29-17.43h4.06v15.83h13.66c-.19-.69-.29-1.37-.29-2.06,0-2.36.86-4.24,2.57-5.63,1.71-1.39,4.02-2.09,6.91-2.09,3.05-.04,5.47.64,7.26,2.03,1.79,1.39,2.69,3.29,2.69,5.69,0,2.21-.9,3.95-2.69,5.23-1.79,1.28-4.21,1.91-7.26,1.91-2.48,0-4.5-.46-6.06-1.37h-20.57v-2.11ZM1033.27,278.21v13.54h14.28v-13.54h-14.28ZM1069.9,306.09h-22.11v-3.71h8.91v-5.03h4v5.03h9.2v3.71ZM1053.1,315.01c0,1.07.5,1.92,1.51,2.57,1.01.65,2.37.97,4.09.97,1.87,0,3.34-.32,4.43-.97,1.09-.65,1.63-1.5,1.63-2.57,0-1.26-.54-2.26-1.63-3-1.09-.74-2.56-1.11-4.43-1.11-1.71,0-3.08.37-4.09,1.11-1.01.74-1.51,1.74-1.51,3ZM1065.61,296.84h-4v-22.8h-3.71v-3.71h7.71v11.54h7.03v3.71h-7.03v11.26Z"/><path class="cls-5" d="M1075.55,292.21c0-5.22,1.06-9.22,3.17-12s5.13-4.17,9.06-4.17c3.89.15,6.88,1.63,8.97,4.43,2.09,2.8,3.14,6.71,3.14,11.74s-1.05,9.09-3.14,11.86c-2.1,2.76-5.09,4.14-8.97,4.14s-6.94-1.38-9.06-4.14c-2.11-2.76-3.17-6.71-3.17-11.86ZM1079.55,292.21c0,3.92.71,6.95,2.14,9.08,1.43,2.13,3.46,3.2,6.08,3.2s4.59-1.07,6-3.2c1.41-2.13,2.11-5.16,2.11-9.08s-.71-7.08-2.11-9.23c-1.41-2.15-3.41-3.23-6-3.23s-4.66,1.08-6.08,3.23c-1.43,2.15-2.14,5.23-2.14,9.23ZM1112.92,322.15h-4v-47.25h-3.71v-3.71h7.71v20.46h9.2v3.71h-9.2v26.8Z"/><path class="cls-5" d="M1125.72,310.78l-2.86-2.51,13.2-15.03v-13.26h-11.54v-3.71h27.25v3.71h-11.71v13.26l13.2,15.03-2.86,2.51-12.34-14-12.34,14ZM1163.78,321.35h-4v-47.03h-3.71v-3.71h7.71v50.74Z"/><path class="cls-5" d="M1215.49,315.12h-44.28v-3.71h17.66v-18.11h4v18.11h12.63v-32.28h-28.46v-3.71h32.45v36h6v3.71Z"/><path class="cls-5" d="M1230.57,321.29l-12.63-.06v-3.71l9.03.06v-3.03h-3.77v-6.29h7.37v13.03Z"/><path class="cls-5" d="M1322.39,315.69h-45.14v-3.71h20.57v-12.63h-14.34v-23.94h32.45v23.94h-14.11v12.63h20.57v3.71ZM1287.48,279.12v16.51h24.46v-16.51h-24.46Z"/><path class="cls-5" d="M1370.96,301.01h-46.34v-3.71h46.34v3.71ZM1365.3,321.23h-34.11v-14.68h4v10.97h30.11v3.71ZM1364.67,291.58h-33.14v-17.71h33.14v3.54h-29.31v10.63h29.31v3.54Z"/><path class="cls-5" d="M1421.3,280.84h-15.71v-3.71h19.71c.23,5.18-.51,9.98-2.23,14.4h8.69v-17.48h-3.71v-3.71h7.71v50.91h-4v-26h-10.4l-.51.91c-1.03,1.75-2.37,3.57-4.03,5.46-1.66,1.88-3.43,3.63-5.31,5.23s-3.72,2.9-5.51,3.89l-2.17-3.31c1.68-.99,3.39-2.22,5.14-3.69,1.75-1.47,3.37-3.03,4.86-4.68,1.49-1.66,2.67-3.25,3.54-4.77,2.32-4,3.64-8.48,3.94-13.43ZM1446.44,321.23h-4v-50.91h4v50.91Z"/><path class="cls-5" d="M1517.52,296.04h-32.4v-21.37h22.4v3.71h-18.4v13.94h28.4v-17.14h-3.71v-3.71h7.71v11.03h7.49v.57h.57v3.71h-8.06v12.29h-4v-3.03ZM1521.52,321.12h-31.37v-19.54h4v6.06h23.37v-6.06h4v19.54ZM1494.15,311.35v6.06h23.37v-6.06h-23.37Z"/><path class="cls-5" d="M1565.51,296.04h-32.4v-21.37h22.4v3.71h-18.4v13.94h28.4v-17.14h-3.71v-3.71h7.71v11.03h7.49v.57h.57v3.71h-8.06v12.29h-4v-3.03ZM1569.51,321.12h-31.37v-19.54h4v6.06h23.37v-6.06h4v19.54ZM1542.14,311.35v6.06h23.37v-6.06h-23.37Z"/><path class="cls-5" d="M1607.85,280.27h-28.91v-3.71h13.14v-5.83h4v5.83h11.77v3.71ZM1581.4,291.47c0-1.83.51-3.43,1.54-4.8,1.03-1.37,2.46-2.45,4.29-3.23,1.83-.78,3.92-1.17,6.29-1.17s4.44.39,6.23,1.17c1.79.78,3.19,1.86,4.2,3.23,1.01,1.37,1.51,2.97,1.51,4.8s-.51,3.37-1.51,4.74c-1.01,1.37-2.41,2.45-4.2,3.23-1.79.78-3.87,1.17-6.23,1.17s-4.46-.39-6.29-1.17c-1.83-.78-3.26-1.86-4.29-3.23-1.03-1.37-1.54-2.95-1.54-4.74ZM1585.4,291.52c0,1.56.76,2.85,2.29,3.86,1.52,1.01,3.47,1.51,5.83,1.51s4.28-.49,5.74-1.49c1.47-.99,2.2-2.25,2.2-3.77,0-1.68-.73-3.04-2.2-4.09-1.47-1.05-3.38-1.57-5.74-1.57s-4.31.51-5.83,1.54c-1.52,1.03-2.29,2.36-2.29,4ZM1617.51,321.12h-31.37v-17.88h4v5.49h23.37v-5.49h4v17.88ZM1590.14,312.43v4.97h23.37v-4.97h-23.37ZM1613.51,275.18h-3.71v-3.71h7.71v11.6h8.06v3.71h-8.06v13.94h-4v-25.54Z"/><path class="cls-5" d="M1663.1,306.84h-33.08l.11-32.05h4l-.11,28.34h29.08v-29.08h-3.14v-3.43h7.14v50.74h-4v-14.51Z"/><path class="cls-5" d="M1709.16,307.46h-32.17l.11-28.06v-2.11h23.03v3.71h-19.03l-.11,22.74h28.17v-29.71h-3.71v-3.71h7.71v20.28h8.8v3.71h-8.8v26.68h-4v-13.54Z"/><path class="cls-5" d="M1722.64,314.78v-6.34h6.34v6.34h-6.34Z"/><path class="cls-5" d="M698.62,380.38h-20.06v-31.83h4v14.11h12.06v-14.11h4v31.83ZM682.56,366.38v10.29h12.06v-10.29h-12.06ZM720.61,393.41h-4v-25.08h-7.14v25.08h-4v-47.2h-3.71v-3.71h7.71v22.11h7.14v-22.11h4v50.91Z"/><path class="cls-5" d="M742.84,393.24h-4v-18.97h-13.26v-3.71h32.74v3.71h-15.48v18.97ZM728.73,356.1c0-2.09.5-3.95,1.51-5.57,1.01-1.62,2.41-2.89,4.2-3.83,1.79-.93,3.83-1.4,6.11-1.4,3.05,0,5.63.77,7.74,2.31,2.11,1.54,3.44,3.55,3.97,6.03h9.83v-7.66h-3.71v-3.71h7.71v50.97h-4v-35.88h-9.6c-.19,1.83-.83,3.44-1.91,4.83-1.09,1.39-2.49,2.49-4.2,3.29-1.71.8-3.66,1.2-5.83,1.2-2.29,0-4.32-.46-6.11-1.37-1.79-.91-3.19-2.16-4.2-3.74-1.01-1.58-1.51-3.4-1.51-5.46ZM732.73,356.1c0,1.98.73,3.62,2.2,4.91,1.47,1.29,3.34,1.94,5.63,1.94s4.29-.65,5.77-1.94c1.49-1.29,2.23-2.93,2.23-4.91s-.74-3.75-2.23-5.09c-1.49-1.33-3.41-2-5.77-2s-4.16.67-5.63,2c-1.47,1.33-2.2,3.03-2.2,5.09Z"/><path class="cls-5" d="M818.38,375.12h-45.65v-3.71h20.91v-6.34h-14.28v-19.83h4v6.69h24.46v-6.69h4v19.83h-14.17v6.34h20.74v3.71ZM778.67,394.38v-14.63h4v10.97h31.6v3.66h-35.6ZM783.35,355.64v5.71h24.46v-5.71h-24.46Z"/><path class="cls-5" d="M854.72,372.04l-2.63-2.69,13.08-12.23v-7.49h-11.26v-3.71h26.46v3.71h-11.2v7.43l13.43,11.14-2.51,2.69-12.86-10.57-12.51,11.71ZM888.83,379.75h-29.77v-3.71h33.77v18h-4v-14.28ZM888.83,359.7h-10.51v-3.71h10.51v-9.54h-3.71v-3.71h7.71v30.4h-4v-13.43Z"/><path class="cls-5" d="M901.46,365.3c0-3.31.51-6.18,1.54-8.6,1.03-2.42,2.5-4.29,4.43-5.6,1.92-1.31,4.2-1.97,6.83-1.97,2.59.08,4.84.79,6.74,2.14,1.9,1.35,3.37,3.22,4.4,5.6,1.03,2.38,1.54,5.19,1.54,8.43s-.51,6.11-1.54,8.51c-1.03,2.4-2.5,4.25-4.4,5.54-1.91,1.3-4.15,1.94-6.74,1.94s-4.9-.65-6.83-1.94c-1.92-1.29-3.4-3.14-4.43-5.54-1.03-2.4-1.54-5.24-1.54-8.51ZM905.46,365.3c0,3.77.79,6.76,2.37,8.97,1.58,2.21,3.72,3.31,6.43,3.31s4.78-1.1,6.34-3.31c1.56-2.21,2.34-5.2,2.34-8.97s-.78-6.89-2.34-9.11c-1.56-2.23-3.68-3.34-6.34-3.34s-4.85,1.11-6.43,3.34c-1.58,2.23-2.37,5.27-2.37,9.11ZM940.54,393.52h-4v-47.03h-3.71v-3.71h7.71v50.74Z"/><path class="cls-5" d="M979.33,357.7c0-2.32.51-4.37,1.54-6.14,1.03-1.77,2.47-3.16,4.31-4.17,1.85-1.01,3.95-1.51,6.31-1.51,3.16,0,5.81.89,7.94,2.66,2.13,1.77,3.41,4.12,3.83,7.06h11.71v-8.46h-3.71v-3.71h7.71v27.43h-4v-11.54h-11.6c-.34,3.2-1.59,5.77-3.74,7.71-2.15,1.94-4.87,2.91-8.14,2.91-2.36,0-4.47-.52-6.31-1.57-1.85-1.05-3.29-2.49-4.31-4.31-1.03-1.83-1.54-3.94-1.54-6.34ZM983.33,357.76c0,2.48.75,4.5,2.26,6.08,1.5,1.58,3.44,2.37,5.8,2.37s4.29-.8,5.8-2.4c1.5-1.6,2.26-3.64,2.26-6.11s-.73-4.3-2.2-5.83c-1.47-1.52-3.38-2.29-5.74-2.29s-4.36.76-5.89,2.29c-1.52,1.52-2.29,3.49-2.29,5.89ZM1012.65,384.32l-8.63,9.43-.17-.17v.17h-19.6v-20.4h4v6.63h10.29v-6.63h4l.06,16.68,7.94-8.74v-8.4h4v8.29l10.91,10.23-2.69,2.34-10.11-9.43ZM988.25,383.7v6.34h10.29v-6.34h-10.29Z"/><path class="cls-5" d="M1061.04,379.64h-32.17l.11-28.06v-2.11h23.03v3.71h-19.03l-.11,22.74h28.17v-29.71h-3.71v-3.71h7.71v20.28h8.8v3.71h-8.8v26.68h-4v-13.54Z"/><path class="cls-5" d="M1108.47,342.5h7.14v37.43h-4v-13.6h-11.83v4.29h-22.68v-23.37h22.68v4.4h11.83v-5.43h-3.14v-3.71ZM1081.1,350.96v15.94h14.68v-15.94h-14.68ZM1117.49,392.72h-33.83v-16.4h4v12.68h29.83v3.71ZM1099.78,355.35v7.26h11.83v-7.26h-11.83Z"/><path class="cls-5" d="M1134.58,393.47l-12.63-.06v-3.71l9.03.06v-3.03h-3.77v-6.29h7.37v13.03Z"/><path class="cls-5" d="M1182.75,365.3c0-3.31.51-6.18,1.54-8.6,1.03-2.42,2.5-4.29,4.43-5.6,1.92-1.31,4.2-1.97,6.83-1.97,2.59.08,4.84.79,6.74,2.14,1.9,1.35,3.37,3.22,4.4,5.6,1.03,2.38,1.54,5.19,1.54,8.43s-.51,6.11-1.54,8.51c-1.03,2.4-2.5,4.25-4.4,5.54-1.91,1.3-4.15,1.94-6.74,1.94s-4.9-.65-6.83-1.94c-1.92-1.29-3.4-3.14-4.43-5.54-1.03-2.4-1.54-5.24-1.54-8.51ZM1186.75,365.3c0,3.77.79,6.76,2.37,8.97,1.58,2.21,3.72,3.31,6.43,3.31s4.78-1.1,6.34-3.31c1.56-2.21,2.34-5.2,2.34-8.97s-.78-6.89-2.34-9.11c-1.56-2.23-3.68-3.34-6.34-3.34s-4.85,1.11-6.43,3.34c-1.58,2.23-2.37,5.27-2.37,9.11ZM1221.83,393.52h-4v-47.03h-3.71v-3.71h7.71v50.74Z"/><path class="cls-5" d="M1239.6,353.58h-9.77v-3.71h23.14v3.71h-9.37v11.71l10.46,13.31-2.86,2.34-9.66-12.46-10.86,13.26-2.8-2.46,11.71-14.17v-11.54ZM1257.71,364.78h-8.8v-3.71h8.8v-14.46h-3.89v-3.71h7.89v50.51h-4v-28.63ZM1271.71,393.41h-4v-50.51h4v50.51Z"/><path class="cls-5" d="M1311.54,381.98h-32.28l.11-17.94v-2.11h18.17v-10.51h-18.17v-3.71h22.17v17.94h-18.17l-.11,12.63h28.28v-31.77h-3.71v-3.71h7.71v20.63h8.97v3.71h-8.97v26.4h-4v-11.54Z"/><path class="cls-5" d="M1371.07,388.09h-46.57v-3.71h21.26v-12.86h-14.28v-23.94h32.45v3.71h-28.45v16.51h28.45v3.71h-14.17v12.86h21.31v3.71Z"/><path class="cls-5" d="M1425.58,380.38h-20.06v-31.83h4v14.11h12.06v-14.11h4v31.83ZM1409.53,366.38v10.29h12.06v-10.29h-12.06ZM1447.58,393.41h-4v-25.08h-7.14v25.08h-4v-47.2h-3.71v-3.71h7.71v22.11h7.14v-22.11h4v50.91Z"/><path class="cls-5" d="M1469.81,393.24h-4v-18.97h-13.26v-3.71h32.74v3.71h-15.48v18.97ZM1455.69,356.1c0-2.09.5-3.95,1.51-5.57,1.01-1.62,2.41-2.89,4.2-3.83,1.79-.93,3.83-1.4,6.11-1.4,3.05,0,5.63.77,7.74,2.31,2.11,1.54,3.44,3.55,3.97,6.03h9.83v-7.66h-3.71v-3.71h7.71v50.97h-4v-35.88h-9.6c-.19,1.83-.83,3.44-1.91,4.83-1.09,1.39-2.49,2.49-4.2,3.29-1.71.8-3.66,1.2-5.83,1.2-2.29,0-4.32-.46-6.11-1.37-1.79-.91-3.19-2.16-4.2-3.74-1.01-1.58-1.51-3.4-1.51-5.46ZM1459.69,356.1c0,1.98.73,3.62,2.2,4.91,1.47,1.29,3.34,1.94,5.63,1.94s4.29-.65,5.77-1.94c1.49-1.29,2.23-2.93,2.23-4.91s-.74-3.75-2.23-5.09c-1.49-1.33-3.41-2-5.77-2s-4.16.67-5.63,2c-1.47,1.33-2.2,3.03-2.2,5.09Z"/><path class="cls-5" d="M1500.32,364.61c0-4.65,1.16-8.31,3.49-11,2.32-2.69,5.45-4.03,9.37-4.03,3.92.19,7.03,1.64,9.31,4.34,2.29,2.71,3.43,6.27,3.43,10.69,0,3.05-.51,5.68-1.54,7.91-1.03,2.23-2.5,3.95-4.4,5.17-1.91,1.22-4.17,1.83-6.8,1.83s-4.91-.61-6.83-1.83c-1.92-1.22-3.41-2.94-4.46-5.17-1.05-2.23-1.57-4.87-1.57-7.91ZM1504.32,364.61c0,3.43.8,6.15,2.4,8.17,1.6,2.02,3.75,3.03,6.46,3.03s4.84-1.01,6.4-3.03c1.56-2.02,2.34-4.74,2.34-8.17s-.78-6.27-2.34-8.29c-1.56-2.02-3.7-3.03-6.4-3.03s-4.86,1.01-6.46,3.03c-1.6,2.02-2.4,4.78-2.4,8.29ZM1538.2,394.32h-4v-47.25h-3.71v-3.71h7.71v13.03h9.2v3.71h-9.2v11.54h9.2v3.71h-9.2v18.97Z"/><path class="cls-5" d="M1607.85,352.44h-28.91v-3.71h13.14v-5.83h4v5.83h11.77v3.71ZM1581.4,363.64c0-1.83.51-3.43,1.54-4.8,1.03-1.37,2.46-2.45,4.29-3.23,1.83-.78,3.92-1.17,6.29-1.17s4.44.39,6.23,1.17c1.79.78,3.19,1.86,4.2,3.23,1.01,1.37,1.51,2.97,1.51,4.8s-.51,3.37-1.51,4.74c-1.01,1.37-2.41,2.45-4.2,3.23-1.79.78-3.87,1.17-6.23,1.17s-4.46-.39-6.29-1.17c-1.83-.78-3.26-1.86-4.29-3.23-1.03-1.37-1.54-2.95-1.54-4.74ZM1585.4,363.7c0,1.56.76,2.85,2.29,3.86,1.52,1.01,3.47,1.51,5.83,1.51s4.28-.49,5.74-1.49c1.47-.99,2.2-2.25,2.2-3.77,0-1.68-.73-3.04-2.2-4.09-1.47-1.05-3.38-1.57-5.74-1.57s-4.31.51-5.83,1.54c-1.52,1.03-2.29,2.36-2.29,4ZM1617.51,393.3h-31.37v-17.88h4v5.49h23.37v-5.49h4v17.88ZM1590.14,384.61v4.97h23.37v-4.97h-23.37ZM1613.51,347.36h-3.71v-3.71h7.71v11.6h8.06v3.71h-8.06v13.94h-4v-25.54Z"/><path class="cls-5" d="M1663.1,379.01h-33.08l.11-32.05h4l-.11,28.34h29.08v-29.08h-3.14v-3.43h7.14v50.74h-4v-14.51Z"/><path class="cls-5" d="M1709.16,379.64h-32.17l.11-28.06v-2.11h23.03v3.71h-19.03l-.11,22.74h28.17v-29.71h-3.71v-3.71h7.71v20.28h8.8v3.71h-8.8v26.68h-4v-13.54Z"/><path class="cls-5" d="M1722.64,386.95v-6.34h6.34v6.34h-6.34Z"/></svg>