<?xml version="1.0" encoding="UTF-8"?><svg id="_레이어_1" xmlns="http://www.w3.org/2000/svg" viewBox="0 0 1920 1080"><defs><style>.cls-1,.cls-2{fill:#fff;}.cls-3,.cls-2{stroke:#000;stroke-miterlimit:10;stroke-width:2px;}.cls-4{fill:#004638;}</style></defs><rect class="cls-4" width="1920" height="1080"/><rect class="cls-3" x="696.17" y="483.11" width="537.67" height="123.77"/><rect class="cls-2" x="686.16" y="473.11" width="537.67" height="123.77"/><path d="M798.58,534.5c3.65-.98,6.94-2.39,9.87-4.21,2.93-1.82,5.38-4.03,7.35-6.61,1.97-2.58,3.28-5.5,3.94-8.73h-19.56v-4h24.3c0,3.44-.66,6.65-1.97,9.63-1.31,2.97-3.11,5.66-5.38,8.06-2.28,2.4-4.91,4.45-7.9,6.15-2.99,1.7-6.17,3-9.53,3.91l-1.11-4.18ZM839.97,562.11h-35.49v-22.27h33.95v4h-29.65v4.92h28.66v4h-28.66v5.35h31.19v4ZM829.76,507.31h8.3v12.55h9.23v4h-9.23v13.22h-4.31v-25.77h-4v-4Z"/><path d="M850.31,531.85c0-3.57.55-6.65,1.66-9.26,1.11-2.6,2.7-4.61,4.77-6.03,2.07-1.42,4.52-2.12,7.35-2.12,2.79.08,5.21.85,7.26,2.31,2.05,1.46,3.63,3.47,4.74,6.03,1.11,2.56,1.66,5.59,1.66,9.07s-.55,6.58-1.66,9.16c-1.11,2.58-2.69,4.57-4.74,5.97-2.05,1.39-4.47,2.09-7.26,2.09s-5.28-.7-7.35-2.09c-2.07-1.39-3.66-3.38-4.77-5.97-1.11-2.58-1.66-5.64-1.66-9.16ZM854.61,531.85c0,4.06.85,7.28,2.55,9.66,1.7,2.38,4.01,3.57,6.92,3.57s5.15-1.19,6.83-3.57c1.68-2.38,2.52-5.6,2.52-9.66s-.84-7.41-2.52-9.81c-1.68-2.4-3.96-3.6-6.83-3.6s-5.22,1.2-6.92,3.6c-1.7,2.4-2.55,5.67-2.55,9.81ZM892.38,562.24h-4.31v-50.62h-4v-4h8.3v54.62Z"/><path d="M960.65,521.58h-27.74v-4h11.63v-8.49h4.3v8.49h11.81v4ZM946.57,548.27c-2.21,0-4.21-.5-6-1.51s-3.2-2.36-4.24-4.06-1.57-3.6-1.57-5.69.52-4.05,1.57-5.75c1.05-1.7,2.46-3.05,4.24-4.06,1.78-1,3.78-1.51,6-1.51s4.14.5,5.91,1.51c1.76,1.01,3.16,2.36,4.18,4.06,1.02,1.7,1.54,3.62,1.54,5.75s-.51,3.99-1.54,5.69c-1.03,1.7-2.42,3.05-4.18,4.06-1.76,1-3.73,1.51-5.91,1.51ZM939.06,537.14c0,1.31.34,2.51,1.01,3.6.68,1.09,1.58,1.95,2.71,2.58,1.13.64,2.39.95,3.78.95,2.05,0,3.78-.68,5.2-2.03,1.42-1.35,2.12-3.01,2.12-4.98,0-2.13-.71-3.93-2.12-5.38-1.41-1.46-3.15-2.18-5.2-2.18-1.39,0-2.66.33-3.78.98-1.13.66-2.03,1.55-2.71,2.68s-1.01,2.39-1.01,3.78ZM963.05,511.61h-3.38v-4h7.69v23h7.2v-23h4.31v54.5h-4.31v-27.49h-7.2v27.49h-4.31v-50.5Z"/><path d="M1033.17,556.15h-48.65v-4h22.76v-12.98h-15.32v-26.39h4.31v10.21h26.33v-10.21h4.31v26.39h-15.32v12.98h21.59v4ZM996.27,526.99v8.18h26.33v-8.18h-26.33Z"/><path d="M1052.18,518.75h-12.73v-4h29.71v4h-12.67v13.16l14.64,17.84-3.08,2.52-13.66-16.61-13.16,16.61-3.14-2.46,14.08-17.78v-13.29ZM1076.91,511.8h-4v-4h8.3v22.08h10.03v4h-10.03v28.54h-4.3v-50.62Z"/><path d="M1093.2,555.16v-6.83h6.83v6.83h-6.83Z"/><path class="cls-1" d="M791.98,644.74h-12.57v-2.28h27.58v2.28h-12.57v10.67h-2.45v-10.67ZM783.2,637.81v-2.27l.04-8.92h2.45l-.03,8.92h17.43v2.27h-19.88Z"/><path class="cls-1" d="M836.82,652.16h-28.42v-2.28h28.42v2.28ZM812.6,643.41v-9.87h17.43v-3.92h-17.43v-2.28h19.88v8.47h-17.43v5.32h17.43v2.28h-19.88Z"/><path class="cls-1" d="M858.8,624.23h4.38v22.93h-2.45v-8.33h-7.25v2.62h-13.89v-14.32h13.89v2.7h7.25v-3.33h-1.92v-2.28ZM842.03,629.41v9.76h8.99v-9.76h-8.99ZM864.33,655h-20.72v-10.04h2.45v7.77h18.27v2.28ZM853.48,632.11v4.45h7.25v-4.45h-7.25Z"/><path class="cls-1" d="M887.36,639.7c2.08-.56,3.95-1.36,5.62-2.4,1.67-1.04,3.06-2.29,4.18-3.76,1.12-1.47,1.87-3.13,2.24-4.97h-11.13v-2.28h13.83c0,1.96-.37,3.79-1.12,5.48-.75,1.69-1.77,3.22-3.06,4.58s-2.79,2.53-4.5,3.5c-1.7.97-3.51,1.71-5.43,2.22l-.63-2.38ZM910.91,655.42h-20.2v-12.67h19.32v2.27h-16.87v2.8h16.31v2.27h-16.31v3.04h17.75v2.28ZM905.1,624.23h4.72v7.14h5.25v2.27h-5.25v7.53h-2.45v-14.67h-2.28v-2.28Z"/><path class="cls-1" d="M916.79,638.2c0-2.03.32-3.79.95-5.27s1.53-2.62,2.71-3.43c1.18-.8,2.57-1.21,4.18-1.21,1.59.05,2.96.48,4.13,1.31s2.07,1.97,2.7,3.43c.63,1.46.95,3.18.95,5.16s-.32,3.75-.95,5.21-1.53,2.6-2.7,3.39c-1.17.79-2.54,1.19-4.13,1.19s-3-.4-4.18-1.19c-1.18-.79-2.08-1.92-2.71-3.39s-.95-3.21-.95-5.21ZM919.24,638.2c0,2.31.48,4.14,1.45,5.5.97,1.35,2.28,2.03,3.94,2.03s2.93-.68,3.88-2.03,1.44-3.19,1.44-5.5-.48-4.22-1.44-5.58-2.25-2.05-3.88-2.05-2.97.68-3.94,2.05c-.97,1.37-1.45,3.23-1.45,5.58ZM940.73,655.49h-2.45v-28.81h-2.28v-2.27h4.73v31.08Z"/><path class="cls-1" d="M981.89,632.39h-17.81v-2.27h7.7v-5.15h2.45v5.15h7.67v2.27ZM973,648.56c-1.35,0-2.58-.3-3.67-.91-1.1-.61-1.97-1.42-2.61-2.43-.64-1.02-.96-2.15-.96-3.41s.32-2.43.96-3.45c.64-1.01,1.51-1.83,2.61-2.43,1.1-.61,2.32-.91,3.67-.91s2.54.3,3.62.91c1.08.61,1.94,1.42,2.57,2.43.63,1.01.94,2.16.94,3.45s-.31,2.4-.94,3.41c-.63,1.01-1.49,1.83-2.57,2.43-1.08.61-2.29.91-3.62.91ZM968.21,641.87c0,.82.21,1.56.63,2.24s1,1.21,1.73,1.59c.74.39,1.55.58,2.43.58s1.68-.19,2.38-.58c.7-.38,1.26-.91,1.68-1.57.42-.67.63-1.39.63-2.19,0-.86-.21-1.65-.63-2.35s-.98-1.26-1.68-1.68-1.49-.63-2.38-.63-1.7.2-2.43.61-1.31.96-1.73,1.64c-.42.69-.63,1.46-.63,2.33ZM984.66,626.68h-2.28v-2.27h4.72v12.63h6.3v2.28h-6.3v16.17h-2.45v-28.81Z"/><path class="cls-1" d="M1021.3,642.5h-27.93v-2.28h27.93v2.28ZM1018.43,654.82h-21.53v-9.07h2.45v6.79h19.08v2.28ZM1017.49,636.06h-19.74v-10.71h2.45v8.44h17.29v2.27Z"/><path class="cls-1" d="M1042.3,640.12c1.03-.21,2.19-.62,3.48-1.23,1.29-.61,2.57-1.38,3.83-2.33s2.37-2.03,3.33-3.25c.96-1.22,1.62-2.57,2-4.04h-11.34v-2.45h13.69c0,1.12-.12,2.18-.37,3.18-.24,1-.58,1.95-1,2.83h8.71v-5.71h-2.27v-2.27h4.72v16.83h-2.45v-6.58h-10.08c-.96,1.28-2.06,2.4-3.33,3.36-1.26.96-2.58,1.75-3.95,2.38-1.38.63-2.72,1.1-4.03,1.4l-.95-2.13ZM1067.22,655.7h-19.88v-12.46h2.45v3.92h14.98v-3.92h2.45v12.46ZM1049.79,649.43v3.99h14.98v-3.99h-14.98Z"/><path class="cls-1" d="M1093.44,646.6h-20.26l.07-19.63h2.45l-.07,17.36h17.82v-17.82h-1.92v-2.1h4.38v31.08h-2.45v-8.89Z"/><path class="cls-1" d="M1121.65,646.98h-19.71l.07-17.18v-1.29h14.11v2.28h-11.66l-.07,13.93h17.25v-18.2h-2.27v-2.28h4.72v12.43h5.39v2.27h-5.39v16.35h-2.45v-8.3Z"/><path class="cls-1" d="M1129.91,651.46v-3.88h3.88v3.88h-3.88Z"/></svg>