<?xml version="1.0" encoding="UTF-8"?><svg id="_레이어_1" xmlns="http://www.w3.org/2000/svg" viewBox="0 0 1080 1920"><defs><style>.cls-1,.cls-2,.cls-3,.cls-4,.cls-5,.cls-6{fill:#fff;}.cls-1,.cls-7,.cls-3,.cls-8,.cls-9,.cls-10,.cls-4,.cls-5,.cls-11,.cls-12,.cls-13,.cls-14,.cls-15,.cls-16,.cls-6,.cls-17{stroke:#ff4c46;stroke-miterlimit:10;}.cls-1,.cls-11{stroke-width:2.61px;}.cls-7{stroke-width:3.67px;}.cls-7,.cls-8,.cls-9,.cls-10,.cls-11,.cls-12,.cls-14,.cls-16{fill:#f2f6f7;}.cls-3,.cls-12{stroke-width:3.16px;}.cls-8,.cls-6{stroke-width:2px;}.cls-18{fill:#ff4c46;}.cls-9,.cls-4{stroke-width:3.23px;}.cls-10{stroke-width:3.68px;}.cls-5,.cls-16{stroke-width:2.94px;}.cls-13{stroke-width:1.89px;}.cls-14{stroke-width:2.89px;}.cls-15{stroke-width:1.76px;}.cls-17{stroke-width:2.23px;}</style></defs><rect class="cls-2" width="1080" height="1920"/><rect class="cls-18" x="-420" y="420" width="1920" height="1080" transform="translate(1500 420) rotate(90)"/><rect class="cls-11" x="96.38" y="485.62" width="396.56" height="253.65"/><rect class="cls-1" x="85.34" y="474.58" width="396.56" height="253.65"/><rect class="cls-11" x="74.3" y="463.54" width="396.56" height="253.65"/><rect class="cls-11" x="63.26" y="452.5" width="396.56" height="253.65"/><path class="cls-18" d="M92.13,498h-17.76v-3.9h33.96v3.9h-12v8.76h-4.2v-8.76ZM77.19,479.34c0-2.2.53-4.15,1.59-5.85,1.06-1.7,2.53-3.04,4.41-4.02,1.88-.98,4.02-1.47,6.42-1.47,3.32,0,6.12.87,8.4,2.61,2.28,1.74,3.64,4.03,4.08,6.87h11.16v-7.38h-4.08v-3.6h8.28v41.4h-4.2v-26.52h-11.22c-.48,2.68-1.84,4.86-4.08,6.54-2.24,1.68-5.02,2.52-8.34,2.52-2.4,0-4.54-.48-6.42-1.44-1.88-.96-3.35-2.27-4.41-3.93-1.06-1.66-1.59-3.57-1.59-5.73ZM81.39,479.34c0,2.08.77,3.8,2.31,5.16,1.54,1.36,3.51,2.04,5.91,2.04s4.5-.68,6.06-2.04,2.34-3.08,2.34-5.16-.8-3.94-2.4-5.34c-1.6-1.4-3.66-2.1-6.18-2.1-2.32,0-4.24.7-5.76,2.1-1.52,1.4-2.28,3.18-2.28,5.34ZM81.87,519.18v-16.5h4.2v12.6h34.26v3.9h-38.46Z"/><path class="cls-18" d="M129.93,497.1l-2.7-2.82,13.14-10.44v-7.68h-11.52v-3.72h11.52v-6.6h4.2v6.6h11.46v3.72h-11.46v7.86l13.32,10.26-2.7,2.82-12.9-9.84-12.36,9.84ZM163.89,505.14h-30.54v-3.9h34.74v18.72h-4.2v-14.82ZM163.83,470.1h-3.9v-3.9h8.1v32.1h-4.2v-28.2Z"/><path class="cls-18" d="M223.47,493.86h-48.24v-3.9h48.24v3.9ZM213.27,502.32h-31.74v-3.9h35.94v12.54h-31.74v5.04h33.36v3.9h-37.56v-12.84h31.74v-4.74ZM182.37,476.76c0-1.84.72-3.47,2.16-4.89,1.44-1.42,3.45-2.53,6.03-3.33,2.58-.8,5.53-1.2,8.85-1.2s6.32.4,8.88,1.2c2.56.8,4.56,1.91,6,3.33,1.44,1.42,2.16,3.05,2.16,4.89s-.72,3.48-2.16,4.92c-1.44,1.44-3.44,2.56-6,3.36-2.56.8-5.52,1.2-8.88,1.2s-6.27-.4-8.85-1.2c-2.58-.8-4.59-1.92-6.03-3.36-1.44-1.44-2.16-3.08-2.16-4.92ZM186.57,476.76c0,1.08.55,2.05,1.65,2.91,1.1.86,2.61,1.53,4.53,2.01,1.92.48,4.14.72,6.66.72s4.75-.24,6.69-.72c1.94-.48,3.45-1.15,4.53-2.01s1.62-1.83,1.62-2.91-.54-2.03-1.62-2.85c-1.08-.82-2.59-1.46-4.53-1.92-1.94-.46-4.17-.69-6.69-.69s-4.74.23-6.66.69c-1.92.46-3.43,1.1-4.53,1.92-1.1.82-1.65,1.77-1.65,2.85Z"/><path class="cls-18" d="M107.25,584.67h-4.2v-13.08h-26.04v-33.6h4.2v29.7h21.84v-32.1h-3.9v-3.9h8.1v21.9h8.58v-21.9h4.2v52.98h-4.2v-27.18h-8.58v27.18Z"/><path class="cls-18" d="M164.55,539.73h-5.82v-3.9h27.9v3.9h-6.18v19.08h9.48v3.9h-31.2v-3.9h5.82v-19.08ZM203.49,584.13h-35.64v-16.44h4.2v12.54h31.44v3.9ZM168.75,539.73v19.08h7.5v-19.08h-7.5ZM196.77,555.81h-9.42v-3.9h9.42v-5.16h-9.42v-3.9h9.42v-6.9h-3.9v-3.9h8.1v39.24h-4.2v-15.48Z"/><path class="cls-18" d="M238.35,542.67h-29.76v-3.9h12.48v-6.12h4.2v6.12h13.08v3.9ZM211.23,555.69c0-2,.53-3.77,1.59-5.31,1.06-1.54,2.53-2.75,4.41-3.63,1.88-.88,4.02-1.32,6.42-1.32s4.52.44,6.36,1.32c1.84.88,3.28,2.09,4.32,3.63,1.04,1.54,1.56,3.31,1.56,5.31s-.52,3.78-1.56,5.34c-1.04,1.56-2.48,2.78-4.32,3.66-1.84.88-3.96,1.32-6.36,1.32s-4.54-.44-6.42-1.32c-1.88-.88-3.35-2.1-4.41-3.66-1.06-1.56-1.59-3.34-1.59-5.34ZM215.43,555.75c0,1.84.77,3.36,2.31,4.56,1.54,1.2,3.51,1.8,5.91,1.8s4.29-.58,5.79-1.74,2.25-2.66,2.25-4.5-.75-3.49-2.25-4.71c-1.5-1.22-3.43-1.83-5.79-1.83s-4.37.6-5.91,1.8c-1.54,1.2-2.31,2.74-2.31,4.62ZM216.39,584.79v-15h4.2v11.1h32.4v3.9h-36.6ZM244.71,535.65h-3.9v-3.9h8.1v18.78h8.64v3.9h-8.64v18.66h-4.2v-37.44Z"/><path class="cls-18" d="M286.65,570.69h-26.34v-30.9h19.62v3.9h-15.42v23.1h22.14v-30.12h-3.9v-3.9h8.1v20.34h7.74v-20.34h4.2v52.14h-4.2v-27.9h-7.74v27.9h-4.2v-14.22Z"/><path class="cls-18" d="M315.57,561.93v-15.12h29.88v-6.12h-29.88v-3.9h34.08v13.92h-29.88v7.32h29.88v3.9h-14.82v13.5h22.26v3.9h-48.72v-3.9h22.26v-13.5h-15.06Z"/><path class="cls-18" d="M101.43,610.99h-27.06v-3.9h11.34v-8.28h4.2v8.28h11.52v3.9ZM87.69,637.03c-2.16,0-4.11-.49-5.85-1.47-1.74-.98-3.12-2.3-4.14-3.96-1.02-1.66-1.53-3.51-1.53-5.55s.51-3.95,1.53-5.61,2.4-2.98,4.14-3.96c1.74-.98,3.69-1.47,5.85-1.47s4.04.49,5.76,1.47c1.72.98,3.08,2.3,4.08,3.96,1,1.66,1.5,3.53,1.5,5.61s-.5,3.89-1.5,5.55c-1,1.66-2.36,2.98-4.08,3.96-1.72.98-3.64,1.47-5.76,1.47ZM80.37,626.17c0,1.28.33,2.45.99,3.51.66,1.06,1.54,1.9,2.64,2.52,1.1.62,2.33.93,3.69.93,2,0,3.69-.66,5.07-1.98,1.38-1.32,2.07-2.94,2.07-4.86,0-2.08-.69-3.83-2.07-5.25-1.38-1.42-3.07-2.13-5.07-2.13-1.36,0-2.59.32-3.69.96-1.1.64-1.98,1.51-2.64,2.61-.66,1.1-.99,2.33-.99,3.69ZM103.77,601.27h-3.3v-3.9h7.5v22.44h7.02v-22.44h4.2v53.16h-4.2v-26.82h-7.02v26.82h-4.2v-49.26Z"/><path class="cls-18" d="M128.43,628.27l-2.76-2.76,12.84-13.62v-12h4.2v12.06l12.66,11.76-2.88,3.12-11.88-11.4-12.18,12.84ZM164.55,636.55h-31.2v-3.72h35.4v18.36h-4.2v-14.64ZM164.49,613.57h-11.82v-3.9h11.82v-8.4h-3.9v-3.9h8.1v32.64h-4.2v-16.44Z"/><path class="cls-18" d="M202.23,610.99h-27.06v-3.9h11.34v-8.28h4.2v8.28h11.52v3.9ZM188.49,637.03c-2.16,0-4.11-.49-5.85-1.47-1.74-.98-3.12-2.3-4.14-3.96-1.02-1.66-1.53-3.51-1.53-5.55s.51-3.95,1.53-5.61,2.4-2.98,4.14-3.96c1.74-.98,3.69-1.47,5.85-1.47s4.04.49,5.76,1.47c1.72.98,3.08,2.3,4.08,3.96,1,1.66,1.5,3.53,1.5,5.61s-.5,3.89-1.5,5.55c-1,1.66-2.36,2.98-4.08,3.96-1.72.98-3.64,1.47-5.76,1.47ZM181.17,626.17c0,1.28.33,2.45.99,3.51.66,1.06,1.54,1.9,2.64,2.52,1.1.62,2.33.93,3.69.93,2,0,3.69-.66,5.07-1.98,1.38-1.32,2.07-2.94,2.07-4.86,0-2.08-.69-3.83-2.07-5.25-1.38-1.42-3.07-2.13-5.07-2.13-1.36,0-2.59.32-3.69.96-1.1.64-1.98,1.51-2.64,2.61-.66,1.1-.99,2.33-.99,3.69ZM204.57,601.27h-3.3v-3.9h7.5v22.44h7.02v-22.44h4.2v53.16h-4.2v-26.82h-7.02v26.82h-4.2v-49.26Z"/><path class="cls-18" d="M268.89,650.65h-4.2v-29.7h-13.02v14.7h-22.92v-32.22h4.2v13.62h14.52v-13.62h4.2v13.62h13.02v-16.08h-3.9v-3.6h8.1v53.28ZM232.95,620.95v10.8h14.52v-10.8h-14.52Z"/><path class="cls-18" d="M319.41,628.87h-4.2v-2.52h-35.58v-15.66h19.68v-6.3h-19.38v-3.9h23.58v14.1h-19.68v7.86h31.38v-21.06h-3.9v-3.6h8.1v31.08ZM285.81,648.43h-.06v-16.44h33.54v18.3h-33.48v-1.86ZM289.83,635.77v10.74h25.38v-10.74h-25.38Z"/><rect class="cls-16" x="398.25" y="429.29" width="502.74" height="253.65"/><rect class="cls-16" x="384.25" y="418.25" width="502.74" height="253.65"/><rect class="cls-5" x="370.25" y="407.21" width="502.74" height="253.65"/><rect class="cls-16" x="356.26" y="396.17" width="502.74" height="253.65"/><path class="cls-18" d="M408.25,437.62h-35.46v-25.14h24.72v3.9h-20.52v6.6h19.02v3.9h-19.02v6.84h31.26v-20.52h-3.9v-3.9h8.1v32.16h-4.2v-3.84ZM412.51,462.1h-33.9v-17.88h33.9v17.88ZM382.81,447.76v10.44h25.5v-10.44h-25.5Z"/><path class="cls-18" d="M444.79,435.1h-22.2v-23.28h4.2v6.42h13.8v-6.42h4.2v6.42h13.62v-5.1h-3.9v-3.9h8.1v28.02h-4.2v-6.36h-13.62v4.2ZM426.79,421.96v9.36h13.8v-9.36h-13.8ZM465.61,461.32h-35.76v-12.54h28.56v-4.86h-28.56v-3.9h32.76v12.66h-28.56v4.74h31.56v3.9ZM444.79,421.96v5.22h13.62v-5.22h-13.62Z"/><path class="cls-18" d="M476.89,438.82v-15.12h29.88v-6.12h-29.88v-3.9h34.08v13.92h-29.88v7.32h29.88v3.9h-14.82v13.5h22.26v3.9h-48.72v-3.9h22.26v-13.5h-15.06Z"/><path class="cls-18" d="M555.37,439.42l-2.94-2.58,11.64-13.44v-10.98h4.2v11.52l11.22,12.9-2.94,2.58-10.56-12.18-10.62,12.18ZM592.87,448.84h-31.02v-3.9h35.22v17.52h-4.2v-13.62ZM581.95,414.22h-3.9v-3.9h8.1v13.02h7.02v-13.02h4.2v30.72h-4.2v-13.8h-7.02v13.8h-4.2v-26.82Z"/><path class="cls-18" d="M651.67,456.22h-48.9v-3.9h22.32v-13.5h-15v-25.14h34.08v3.9h-29.88v17.34h29.88v3.9h-14.88v13.5h22.38v3.9Z"/><path class="cls-18" d="M722.29,447.34h-33.78l.12-29.46v-2.22h24.18v3.9h-19.98l-.12,23.88h29.58v-31.2h-3.9v-3.9h8.1v21.3h9.24v3.9h-9.24v28.02h-4.2v-14.22Z"/><path class="cls-18" d="M784.81,456.22h-48.72v-3.9h48.72v3.9ZM743.29,441.22v-16.92h29.88v-6.72h-29.88v-3.9h34.08v14.52h-29.88v9.12h29.88v3.9h-34.08Z"/><path class="cls-18" d="M834.07,455.38h-46.5v-3.9h18.54v-19.02h4.2v19.02h13.26v-33.9h-29.88v-3.9h34.08v37.8h6.3v3.9Z"/><path class="cls-18" d="M370.69,501.37c2.48-.56,4.89-1.42,7.23-2.58s4.33-2.5,5.97-4.02c2-1.88,3.65-3.88,4.95-6,1.3-2.12,2.11-4.24,2.43-6.36h-18.84v-4.08h23.22v1.08c0,2.32-.42,4.58-1.26,6.78-.84,2.2-1.94,4.26-3.3,6.18-1.36,1.92-2.84,3.64-4.44,5.16-1.88,1.76-4.09,3.29-6.63,4.59-2.54,1.3-5.19,2.25-7.95,2.85l-1.38-3.6ZM410.47,527.53h-4.2v-15.06h-29.34v-3.9h33.54v18.96ZM405.67,478.69h-3.9v-3.9h8.1v13.68h8.04v3.9h-8.04v13.62h-4.2v-27.3Z"/><path class="cls-18" d="M434.83,485.11h-12.42v-3.9h28.98v3.9h-12.36v12.84l14.28,17.4-3,2.46-13.32-16.2-12.84,16.2-3.06-2.4,13.74-17.34v-12.96ZM458.95,478.33h-3.9v-3.9h8.1v21.54h9.78v3.9h-9.78v27.84h-4.2v-49.38Z"/><path class="cls-18" d="M509.47,516.31l-3.06-2.4,13.92-17.58v-17.04h4.2v17.04l13.98,17.58-3.12,2.4-12.96-16.32-12.96,16.32ZM547.57,527.53h-4.2v-49.68h-3.9v-3.6h8.1v20.4h8.88v3.9h-8.88v28.98Z"/><path class="cls-18" d="M561.07,505.45l-2.64-2.88,13.14-12.18v-7.86h-12.6v-3.9h28.74v3.9h-11.94v7.86l13.14,12.18-2.64,2.88-12.6-11.7-12.6,11.7ZM566.17,518.59c0-3.04,1.6-5.45,4.8-7.23,3.2-1.78,7.52-2.67,12.96-2.67,3.64-.04,6.79.35,9.45,1.17,2.66.82,4.72,1.97,6.18,3.45,1.46,1.48,2.19,3.24,2.19,5.28s-.73,3.75-2.19,5.25c-1.46,1.5-3.52,2.65-6.18,3.45-2.66.8-5.81,1.2-9.45,1.2-5.44,0-9.76-.89-12.96-2.67-3.2-1.78-4.8-4.19-4.8-7.23ZM570.37,518.59c0,1.84,1.22,3.3,3.66,4.38,2.44,1.08,5.74,1.62,9.9,1.62s7.47-.54,9.93-1.62,3.69-2.54,3.69-4.38-1.23-3.3-3.69-4.38-5.77-1.62-9.93-1.62-7.46.54-9.9,1.62c-2.44,1.08-3.66,2.54-3.66,4.38ZM596.77,492.79h-10.8v-3.9h10.8v-10.08h-3.9v-3.9h8.1v31.98h-4.2v-14.1Z"/><path class="cls-18" d="M656.47,521.83h-48.9v-3.9h22.32v-13.5h-15v-25.14h34.08v3.9h-29.88v17.34h29.88v3.9h-14.88v13.5h22.38v3.9Z"/><path class="cls-18" d="M717.13,500.35h-23.4v-22.02h23.4v22.02ZM696.67,524.71l-.3-18.3h4.26v16.62h14.34c-.2-.72-.3-1.44-.3-2.16,0-2.48.9-4.45,2.7-5.91,1.8-1.46,4.22-2.19,7.26-2.19,3.2-.04,5.74.67,7.62,2.13,1.88,1.46,2.82,3.45,2.82,5.97,0,2.32-.94,4.15-2.82,5.49-1.88,1.34-4.42,2.01-7.62,2.01-2.6,0-4.72-.48-6.36-1.44h-21.6v-2.22ZM697.93,482.23v14.22h15v-14.22h-15ZM736.39,511.51h-23.22v-3.9h9.36v-5.28h4.2v5.28h9.66v3.9ZM718.75,520.87c0,1.12.53,2.02,1.59,2.7,1.06.68,2.49,1.02,4.29,1.02,1.96,0,3.51-.34,4.65-1.02,1.14-.68,1.71-1.58,1.71-2.7,0-1.32-.57-2.37-1.71-3.15-1.14-.78-2.69-1.17-4.65-1.17-1.8,0-3.23.39-4.29,1.17-1.06.78-1.59,1.83-1.59,3.15ZM731.89,501.79h-4.2v-23.94h-3.9v-3.9h8.1v12.12h7.38v3.9h-7.38v11.82Z"/><path class="cls-18" d="M789.43,504.49h-48.6v-3.9h48.6v3.9ZM782.89,527.41h-35.28v-17.16h35.28v17.16ZM748.09,486.13c0-1.96.72-3.69,2.16-5.19s3.45-2.68,6.03-3.54c2.58-.86,5.53-1.29,8.85-1.29s6.32.43,8.88,1.29c2.56.86,4.56,2.04,6,3.54,1.44,1.5,2.16,3.23,2.16,5.19s-.72,3.7-2.16,5.22c-1.44,1.52-3.44,2.71-6,3.57-2.56.86-5.52,1.29-8.88,1.29s-6.27-.43-8.85-1.29c-2.58-.86-4.59-2.05-6.03-3.57-1.44-1.52-2.16-3.26-2.16-5.22ZM751.81,514.15v9.36h26.88v-9.36h-26.88ZM752.29,486.13c0,1.2.55,2.27,1.65,3.21,1.1.94,2.61,1.68,4.53,2.22,1.92.54,4.14.81,6.66.81s4.75-.27,6.69-.81c1.94-.54,3.45-1.28,4.53-2.22,1.08-.94,1.62-2.01,1.62-3.21s-.54-2.25-1.62-3.15c-1.08-.9-2.59-1.61-4.53-2.13-1.94-.52-4.17-.78-6.69-.78s-4.74.26-6.66.78c-1.92.52-3.43,1.23-4.53,2.13-1.1.9-1.65,1.95-1.65,3.15Z"/><rect class="cls-11" x="418.71" y="639.95" width="396.56" height="253.65"/><rect class="cls-11" x="445.33" y="573.7" width="396.56" height="253.65"/><path class="cls-18" d="M460.4,627.31l-3.06-2.4,13.68-15.54v-18.18h4.2v17.94l14.34,15.72-3,2.46-13.32-14.64-12.84,14.64ZM500.66,639.07h-4.2v-31.38h-12.24v-3.9h12.24v-14.1h-3.9v-3.9h8.1v53.28Z"/><path class="cls-18" d="M530.66,625.27h-21.06v-33.42h4.2v14.82h12.66v-14.82h4.2v14.82h7.2v-17.28h-3.9v-3.9h8.1v53.46h-4.2v-28.38h-7.2v14.7ZM513.8,610.57v10.8h12.66v-10.8h-12.66ZM553.76,638.95h-4.2v-53.46h4.2v53.46Z"/><path class="cls-18" d="M560.06,609.43c0-3.48.54-6.49,1.62-9.03s2.63-4.5,4.65-5.88c2.02-1.38,4.41-2.07,7.17-2.07,2.72.08,5.08.83,7.08,2.25,2,1.42,3.54,3.38,4.62,5.88s1.62,5.45,1.62,8.85-.54,6.42-1.62,8.94c-1.08,2.52-2.62,4.46-4.62,5.82-2,1.36-4.36,2.04-7.08,2.04s-5.15-.68-7.17-2.04c-2.02-1.36-3.57-3.3-4.65-5.82-1.08-2.52-1.62-5.5-1.62-8.94ZM564.26,609.43c0,3.96.83,7.1,2.49,9.42,1.66,2.32,3.91,3.48,6.75,3.48s5.02-1.16,6.66-3.48c1.64-2.32,2.46-5.46,2.46-9.42s-.82-7.23-2.46-9.57c-1.64-2.34-3.86-3.51-6.66-3.51s-5.09,1.17-6.75,3.51c-1.66,2.34-2.49,5.53-2.49,9.57ZM601.1,639.07h-4.2v-49.38h-3.9v-3.9h8.1v53.28Z"/><path class="cls-18" d="M642.86,638.95h-4.2v-28.92h-7.14c-.4,9.36-4.22,14.04-11.46,14.04-7.76,0-11.64-5.3-11.64-15.9s3.88-16.08,11.64-16.08c7.16.24,10.98,4.92,11.46,14.04h7.14v-16.74h-3.9v-3.9h8.1v53.46ZM612.62,608.17c0,8,2.48,12,7.44,12s7.32-4,7.32-12-2.44-12.18-7.32-12.18-7.44,4.06-7.44,12.18ZM653.36,638.95h-4.2v-53.46h4.2v53.46Z"/><path class="cls-18" d="M660.8,618.25l-2.7-2.82,14.4-13.86v-12.18h4.2v12.54l13.26,12.3-2.7,2.82-12.9-11.88-13.56,13.08ZM704.06,638.17h-36.06v-16.2h4.2v12.3h31.86v3.9ZM698,601.99h-11.76v-3.9h11.76v-8.7h-3.9v-3.6h8.1v39.72h-4.2v-23.52Z"/><path class="cls-18" d="M487.04,661.55h-29.64v-3.9h12.96v-6.18h4.2v6.18h12.48v3.9ZM460.28,673.85c0-1.92.51-3.6,1.53-5.04,1.02-1.44,2.44-2.57,4.26-3.39,1.82-.82,3.93-1.23,6.33-1.23,3.24,0,5.96.78,8.16,2.34h15.78v-11.76h-3.9v-3.9h8.1v34.2h-4.2v-4.74h-14.82c-1.08,1-2.4,1.77-3.96,2.31s-3.28.81-5.16.81c-2.4,0-4.51-.41-6.33-1.23-1.82-.82-3.24-1.95-4.26-3.39s-1.53-3.1-1.53-4.98ZM464.48,673.91c0,1.64.74,2.99,2.22,4.05,1.48,1.06,3.38,1.59,5.7,1.59s4.14-.52,5.58-1.56,2.16-2.36,2.16-3.96c0-1.76-.72-3.19-2.16-4.29-1.44-1.1-3.3-1.65-5.58-1.65s-4.22.54-5.7,1.62c-1.48,1.08-2.22,2.48-2.22,4.2ZM467.36,704.15v-17.7h4.2v5.34h24.84v-5.34h4.2v17.7h-33.24ZM471.56,695.69v4.56h24.84v-4.56h-24.84ZM483.68,670.43c.44,1.08.66,2.22.66,3.42,0,.88-.12,1.74-.36,2.58h12.36v-6h-12.66Z"/><path class="cls-18" d="M509.84,667.07c0-2.44.54-4.59,1.62-6.45s2.59-3.32,4.53-4.38c1.94-1.06,4.15-1.59,6.63-1.59,3.32,0,6.1.93,8.34,2.79,2.24,1.86,3.58,4.33,4.02,7.41h12.3v-8.88h-3.9v-3.9h8.1v28.8h-4.2v-12.12h-12.18c-.24,2.2-.91,4.14-2.01,5.82-1.1,1.68-2.55,2.99-4.35,3.93-1.8.94-3.84,1.41-6.12,1.41-2.48,0-4.69-.55-6.63-1.65-1.94-1.1-3.45-2.61-4.53-4.53-1.08-1.92-1.62-4.14-1.62-6.66ZM514.04,667.13c0,2.6.79,4.73,2.37,6.39,1.58,1.66,3.61,2.49,6.09,2.49s4.51-.84,6.09-2.52c1.58-1.68,2.37-3.82,2.37-6.42s-.77-4.52-2.31-6.12c-1.54-1.6-3.55-2.4-6.03-2.4s-4.58.8-6.18,2.4c-1.6,1.6-2.4,3.66-2.4,6.18ZM516.2,704.93v-21.42h4.2v6.96h26.88v-6.96h4.2v21.42h-35.28ZM520.4,694.37v6.66h26.88v-6.66h-26.88Z"/><path class="cls-18" d="M598.76,705.23h-4.2v-12h-37.32v-3.9h12.06v-15.96h4.2v15.96h21.06v-33.42h-3.9v-3.6h8.1v21.42h8.88v3.9h-8.88v27.6ZM583.34,661.37h-23.16v-3.72h27.18v23.76h-4.02v-20.04Z"/><path class="cls-18" d="M689.48,698.69h-48.9v-3.9h22.26v-13.08h4.2v13.08h22.44v3.9ZM646.46,682.43l-2.1-3.3,18.48-12.72v-10.8h4.2v10.8l18.48,12.72-2.1,3.3-18.48-12.72-18.48,12.72Z"/><path class="cls-18" d="M697.94,675.29v-21.48l35.4.18v3.78l-31.32-.18v4.68l29.88.18v3.78l-29.88-.18v5.46l31.74.18v3.78l-16.38-.06v5.04h21.66v3.9h-48.06v-3.9h22.2v-5.1l-15.24-.06ZM697.82,697.25c0-2.84,1.52-5.03,4.56-6.57,3.04-1.54,7.4-2.31,13.08-2.31s10.04.77,13.08,2.31c3.04,1.54,4.56,3.73,4.56,6.57s-1.52,5.16-4.56,6.72c-3.04,1.56-7.4,2.34-13.08,2.34s-10.04-.78-13.08-2.34c-3.04-1.56-4.56-3.8-4.56-6.72ZM702.02,697.25c0,1.64,1.16,2.91,3.48,3.81,2.32.9,5.64,1.35,9.96,1.35s7.64-.45,9.96-1.35c2.32-.9,3.48-2.17,3.48-3.81s-1.16-2.83-3.48-3.69c-2.32-.86-5.64-1.29-9.96-1.29s-7.64.43-9.96,1.29c-2.32.86-3.48,2.09-3.48,3.69Z"/><path class="cls-18" d="M743.66,675.05c0-3.48.54-6.49,1.62-9.03s2.63-4.5,4.65-5.88c2.02-1.38,4.41-2.07,7.17-2.07,2.72.08,5.08.83,7.08,2.25,2,1.42,3.54,3.38,4.62,5.88s1.62,5.45,1.62,8.85-.54,6.42-1.62,8.94c-1.08,2.52-2.62,4.46-4.62,5.82-2,1.36-4.36,2.04-7.08,2.04s-5.15-.68-7.17-2.04c-2.02-1.36-3.57-3.3-4.65-5.82-1.08-2.52-1.62-5.5-1.62-8.94ZM747.86,675.05c0,3.96.83,7.1,2.49,9.42,1.66,2.32,3.91,3.48,6.75,3.48s5.02-1.16,6.66-3.48c1.64-2.32,2.46-5.46,2.46-9.42s-.82-7.23-2.46-9.57c-1.64-2.34-3.86-3.51-6.66-3.51s-5.09,1.17-6.75,3.51c-1.66,2.34-2.49,5.53-2.49,9.57ZM784.7,704.69h-4.2v-49.38h-3.9v-3.9h8.1v53.28Z"/><path class="cls-18" d="M479.72,748.1h-22.74v-3.9h47.46v3.9h-20.52v10.92h-4.2v-10.92ZM499.94,769.76h-36.18v-16.02h4.2v12.12h31.98v3.9ZM498.68,738.02h-33.96v-19.02h33.96v19.02ZM468.92,722.9v11.22h25.56v-11.22h-25.56Z"/><path class="cls-18" d="M518.96,728.36h-10.26v-3.9h24.3v3.9h-9.84v12.3l10.98,13.98-3,2.46-10.14-13.08-11.4,13.92-2.94-2.58,12.3-14.88v-12.12ZM537.98,740.12h-9.24v-3.9h9.24v-15.18h-4.08v-3.9h8.28v53.04h-4.2v-30.06ZM552.68,770.18h-4.2v-53.04h4.2v53.04Z"/><path class="cls-18" d="M594.5,758.18h-33.9l.12-18.84v-2.22h19.08v-11.04h-19.08v-3.9h23.28v18.84h-19.08l-.12,13.26h29.7v-33.36h-3.9v-3.9h8.1v21.66h9.42v3.9h-9.42v27.72h-4.2v-12.12Z"/><path class="cls-18" d="M655.82,763.76h-46.5v-3.9h18.54v-19.02h4.2v19.02h13.26v-33.9h-29.88v-3.9h34.08v37.8h6.3v3.9Z"/><path class="cls-18" d="M722.06,726.98h-30.36v-3.9h13.08v-5.82h4.2v5.82h13.08v3.9ZM694.4,739.52c0-1.92.54-3.6,1.62-5.04,1.08-1.44,2.58-2.57,4.5-3.39,1.92-.82,4.12-1.23,6.6-1.23s4.66.41,6.54,1.23c1.88.82,3.35,1.95,4.41,3.39,1.06,1.44,1.59,3.12,1.59,5.04s-.53,3.54-1.59,4.98c-1.06,1.44-2.53,2.57-4.41,3.39-1.88.82-4.06,1.23-6.54,1.23s-4.68-.41-6.6-1.23c-1.92-.82-3.42-1.95-4.5-3.39-1.08-1.44-1.62-3.1-1.62-4.98ZM698.6,739.58c0,1.64.8,2.99,2.4,4.05,1.6,1.06,3.64,1.59,6.12,1.59s4.49-.52,6.03-1.56c1.54-1.04,2.31-2.36,2.31-3.96,0-1.76-.77-3.19-2.31-4.29-1.54-1.1-3.55-1.65-6.03-1.65s-4.52.54-6.12,1.62c-1.6,1.08-2.4,2.48-2.4,4.2ZM732.08,769.94h-32.58v-17.04h32.58v17.04ZM703.7,756.8v9.24h24.18v-9.24h-24.18ZM727.94,721.82h-3.9v-3.9h8.1v12.6h8.4v3.9h-8.4v15.48h-4.2v-28.08Z"/><rect class="cls-11" x="494.26" y="914.95" width="477.16" height="253.65"/><rect class="cls-11" x="539.58" y="870.78" width="477.16" height="253.65"/><path class="cls-18" d="M600.66,929.14h-48.72v-3.9h22.2v-12.9h4.2v12.9h22.32v3.9ZM557.76,915.94l-2.1-3.3,18.48-12.72v-8.46h-16.2v-3.9h36.48v3.9h-16.08v8.46l18.48,12.72-2.1,3.3-18.48-12.72-18.48,12.72Z"/><path class="cls-18" d="M605.88,912.64l-2.76-2.82,13.74-12.84v-7.86h-11.82v-3.9h27.78v3.9h-11.76v7.8l14.1,11.7-2.64,2.82-13.5-11.1-13.14,12.3ZM641.7,920.74h-31.26v-3.9h35.46v18.9h-4.2v-15ZM641.7,885.76h-3.9v-3.9h8.1v31.92h-4.2v-28.02Z"/><path class="cls-18" d="M675.42,913h-22.74v-3.9h47.46v3.9h-20.52v10.92h-4.2v-10.92ZM695.64,934.66h-36.18v-16.02h4.2v12.12h31.98v3.9ZM694.38,902.92h-33.96v-19.02h33.96v19.02ZM664.62,887.8v11.22h25.56v-11.22h-25.56Z"/><path class="cls-18" d="M744.12,935.74h-4.2v-9.96h-36.66v-3.9h14.22v-5.64c-1.92-.32-3.64-.96-5.16-1.92-1.52-.96-2.72-2.17-3.6-3.63-.88-1.46-1.32-3.05-1.32-4.77,0-1.96.55-3.73,1.65-5.31,1.1-1.58,2.59-2.84,4.47-3.78,1.88-.94,3.96-1.41,6.24-1.41s4.33.47,6.15,1.41c1.82.94,3.27,2.2,4.35,3.78,1.08,1.58,1.62,3.35,1.62,5.31,0,1.76-.45,3.38-1.35,4.86-.9,1.48-2.11,2.7-3.63,3.66-1.52.96-3.26,1.58-5.22,1.86v5.58h18.24v-36.3h-3.9v-3.9h8.1v24.12h8.82v3.9h-8.82v26.04ZM734.76,892.84h-31.08v-3.78h13.92v-7.44h4.08v7.44h13.08v3.78ZM711.6,905.98c0,1.2.36,2.3,1.08,3.3.72,1,1.7,1.79,2.94,2.37,1.24.58,2.62.87,4.14.87s2.82-.28,4.02-.84c1.2-.56,2.15-1.33,2.85-2.31.7-.98,1.05-2.07,1.05-3.27,0-1.28-.35-2.43-1.05-3.45-.7-1.02-1.65-1.83-2.85-2.43-1.2-.6-2.54-.9-4.02-.9s-2.9.3-4.14.9c-1.24.6-2.22,1.4-2.94,2.4-.72,1-1.08,2.12-1.08,3.36Z"/><path class="cls-18" d="M822.66,913.3h-35.94v-3.9h13.32v-3.24c-3-.28-5.33-1.03-6.99-2.25-1.66-1.22-2.49-2.81-2.49-4.77,0-2.32,1.05-4.13,3.15-5.43,2.1-1.3,5.01-1.95,8.73-1.95s6.55.65,8.61,1.95c2.06,1.3,3.09,3.11,3.09,5.43,0,2.04-.87,3.68-2.61,4.92-1.74,1.24-4.17,1.96-7.29,2.16v3.18h18.42l.06-23.04h-3.9v-3.9h8.1v12.84h8.58v3.9h-8.64v15.96h-4.2v-1.86ZM816.42,890.62h-28.14v-3.9h12.06v-4.62h4.2v4.62h11.88v3.9ZM793.98,935.74v-11.88h29.16v-3.72h-29.16v-3.9h33.36v11.52h-29.1v4.08h31.74v3.9h-36ZM794.46,899.2c0,1.08.71,1.93,2.13,2.55,1.42.62,3.37.93,5.85.93s4.35-.3,5.73-.9c1.38-.6,2.07-1.42,2.07-2.46,0-1.24-.69-2.21-2.07-2.91s-3.29-1.05-5.73-1.05-4.43.34-5.85,1.02c-1.42.68-2.13,1.62-2.13,2.82Z"/><path class="cls-18" d="M858.54,902.68h-15.3v-17.94h34.8v3.9h-30.6v10.14h31.2v3.9h-15.9v6.54h21.6v3.9h-48.06v-3.9h22.26v-6.54ZM842.1,926.62c0-2.92,1.64-5.23,4.92-6.93,3.28-1.7,7.72-2.55,13.32-2.55,3.72,0,6.95.39,9.69,1.17,2.74.78,4.85,1.87,6.33,3.27,1.48,1.4,2.22,3.08,2.22,5.04s-.74,3.67-2.22,5.13c-1.48,1.46-3.59,2.58-6.33,3.36-2.74.78-5.97,1.17-9.69,1.17-5.6,0-10.04-.87-13.32-2.61-3.28-1.74-4.92-4.09-4.92-7.05ZM846.3,926.62c0,1.76,1.26,3.16,3.78,4.2s5.94,1.56,10.26,1.56,7.69-.52,10.23-1.56c2.54-1.04,3.81-2.44,3.81-4.2s-1.27-3.08-3.81-4.08c-2.54-1-5.95-1.5-10.23-1.5s-7.74.5-10.26,1.5-3.78,2.36-3.78,4.08Z"/><path class="cls-18" d="M934.62,914.26h-47.46v-3.9h47.46v3.9ZM893.46,935.02v-15.36h4.2v11.46h31.62v3.9h-35.82ZM893.94,895.24c0-2,.73-3.78,2.19-5.34,1.46-1.56,3.49-2.78,6.09-3.66,2.6-.88,5.56-1.32,8.88-1.32s6.33.44,8.91,1.32,4.61,2.1,6.09,3.66c1.48,1.56,2.22,3.34,2.22,5.34s-.74,3.78-2.22,5.34c-1.48,1.56-3.51,2.78-6.09,3.66s-5.55,1.32-8.91,1.32-6.28-.44-8.88-1.32c-2.6-.88-4.63-2.1-6.09-3.66-1.46-1.56-2.19-3.34-2.19-5.34ZM898.14,895.3c0,1.24.56,2.34,1.68,3.3,1.12.96,2.65,1.71,4.59,2.25,1.94.54,4.17.81,6.69.81s4.81-.27,6.75-.81c1.94-.54,3.47-1.29,4.59-2.25,1.12-.96,1.68-2.06,1.68-3.3s-.56-2.4-1.68-3.36c-1.12-.96-2.65-1.72-4.59-2.28-1.94-.56-4.19-.84-6.75-.84s-4.75.28-6.69.84c-1.94.56-3.47,1.32-4.59,2.28-1.12.96-1.68,2.08-1.68,3.36Z"/><path class="cls-18" d="M578.58,973.64h-23.4v-22.02h23.4v22.02ZM558.12,998l-.3-18.3h4.26v16.62h14.34c-.2-.72-.3-1.44-.3-2.16,0-2.48.9-4.45,2.7-5.91,1.8-1.46,4.22-2.19,7.26-2.19,3.2-.04,5.74.67,7.62,2.13,1.88,1.46,2.82,3.45,2.82,5.97,0,2.32-.94,4.15-2.82,5.49-1.88,1.34-4.42,2.01-7.62,2.01-2.6,0-4.72-.48-6.36-1.44h-21.6v-2.22ZM559.38,955.52v14.22h15v-14.22h-15ZM597.84,984.8h-23.22v-3.9h9.36v-5.28h4.2v5.28h9.66v3.9ZM580.2,994.16c0,1.12.53,2.02,1.59,2.7,1.06.68,2.49,1.02,4.29,1.02,1.96,0,3.51-.34,4.65-1.02,1.14-.68,1.71-1.58,1.71-2.7,0-1.32-.57-2.37-1.71-3.15-1.14-.78-2.69-1.17-4.65-1.17-1.8,0-3.23.39-4.29,1.17-1.06.78-1.59,1.83-1.59,3.15ZM593.34,975.08h-4.2v-23.94h-3.9v-3.9h8.1v12.12h7.38v3.9h-7.38v11.82Z"/><path class="cls-18" d="M650.22,979.88h-47.46v-3.9h47.46v3.9ZM609.06,1000.64v-15.36h4.2v11.46h31.62v3.9h-35.82ZM609.54,960.86c0-2,.73-3.78,2.19-5.34,1.46-1.56,3.49-2.78,6.09-3.66,2.6-.88,5.56-1.32,8.88-1.32s6.33.44,8.91,1.32,4.61,2.1,6.09,3.66c1.48,1.56,2.22,3.34,2.22,5.34s-.74,3.78-2.22,5.34c-1.48,1.56-3.51,2.78-6.09,3.66s-5.55,1.32-8.91,1.32-6.28-.44-8.88-1.32c-2.6-.88-4.63-2.1-6.09-3.66-1.46-1.56-2.19-3.34-2.19-5.34ZM613.74,960.92c0,1.24.56,2.34,1.68,3.3,1.12.96,2.65,1.71,4.59,2.25,1.94.54,4.17.81,6.69.81s4.81-.27,6.75-.81c1.94-.54,3.47-1.29,4.59-2.25,1.12-.96,1.68-2.06,1.68-3.3s-.56-2.4-1.68-3.36c-1.12-.96-2.65-1.72-4.59-2.28-1.94-.56-4.19-.84-6.75-.84s-4.75.28-6.69.84c-1.94.56-3.47,1.32-4.59,2.28-1.12.96-1.68,2.08-1.68,3.36Z"/><path class="cls-18" d="M677.34,988.82h-22.14v-33.9h19.92v3.9h-15.72v26.1h17.94v3.9ZM683.22,972.56h-12.18v-3.9h12.18v-16.32h-3.3v-3.9h7.5v52.26h-4.2v-28.14ZM698.16,1000.7h-4.2v-52.26h4.2v52.26Z"/><path class="cls-18" d="M766.56,961.22h-30.54v-3.9h13.2v-8.82h4.2v8.82h13.14v3.9ZM751.32,988.94c-2.32,0-4.42-.52-6.3-1.56-1.88-1.04-3.37-2.43-4.47-4.17-1.1-1.74-1.65-3.69-1.65-5.85s.55-4.17,1.65-5.91c1.1-1.74,2.59-3.13,4.47-4.17,1.88-1.04,3.98-1.56,6.3-1.56s4.35.52,6.21,1.56c1.86,1.04,3.33,2.43,4.41,4.17,1.08,1.74,1.62,3.71,1.62,5.91s-.54,4.11-1.62,5.85-2.55,3.13-4.41,4.17c-1.86,1.04-3.93,1.56-6.21,1.56ZM743.1,977.48c0,1.4.36,2.68,1.08,3.84.72,1.16,1.71,2.07,2.97,2.73s2.65.99,4.17.99,2.88-.33,4.08-.99,2.16-1.56,2.88-2.7c.72-1.14,1.08-2.39,1.08-3.75,0-1.48-.36-2.82-1.08-4.02-.72-1.2-1.68-2.16-2.88-2.88-1.2-.72-2.56-1.08-4.08-1.08s-2.91.35-4.17,1.05c-1.26.7-2.25,1.64-2.97,2.82-.72,1.18-1.08,2.51-1.08,3.99ZM771.3,951.44h-3.9v-3.9h8.1v21.66h10.8v3.9h-10.8v27.72h-4.2v-49.38Z"/><path class="cls-18" d="M822.3,986.9h-33.66l.12-34.08h4.2l-.12,30.18h29.46v-30.66h-3.9v-3.9h8.1v21.3h9.36v3.9h-9.36v26.82h-4.2v-13.56Z"/><path class="cls-18" d="M843.54,977.72v-15.12h29.88v-6.12h-29.88v-3.9h34.08v13.92h-29.88v7.32h29.88v3.9h-14.82v13.5h22.26v3.9h-48.72v-3.9h22.26v-13.5h-15.06Z"/><path class="cls-18" d="M553.92,1030.91c0-2.64.57-4.98,1.71-7.02s2.71-3.63,4.71-4.77c2-1.14,4.3-1.71,6.9-1.71,2.28,0,4.33.45,6.15,1.35,1.82.9,3.29,2.15,4.41,3.75h13.2v-5.22h-3.9v-3.9h8.1v39.66h-4.2v-14.22h-13.14c-1.16,1.52-2.65,2.71-4.47,3.57-1.82.86-3.87,1.29-6.15,1.29-2.6,0-4.9-.54-6.9-1.62-2-1.08-3.57-2.59-4.71-4.53-1.14-1.94-1.71-4.15-1.71-6.63ZM558.12,1030.97c0,2.56.84,4.66,2.52,6.3,1.68,1.64,3.84,2.46,6.48,2.46s4.74-.83,6.42-2.49c1.68-1.66,2.52-3.77,2.52-6.33,0-2.84-.82-5.15-2.46-6.93-1.64-1.78-3.76-2.67-6.36-2.67s-4.87.9-6.57,2.7c-1.7,1.8-2.55,4.12-2.55,6.96ZM598.02,1066.01h-36.66v-17.34h4.2v13.44h32.46v3.9ZM579.72,1026.41c.44,1.44.66,2.94.66,4.5,0,1.4-.18,2.74-.54,4.02h11.16v-8.52h-11.28Z"/><path class="cls-18" d="M603.18,1038.53c12.72-3.48,19.92-9.6,21.6-18.36h-18.6v-3.9h23.82l-.12,4.08-.36,1.38h12.84v-4.92h-3.9v-3.6h8.1v27.48h-4.2v-5.16h-14.7v-3.9h14.7v-6h-14.22c-3.64,8.08-11.38,13.68-23.22,16.8l-1.74-3.9ZM642.36,1047.35h-30v-3.9h34.2v13.68h-30v5.94h31.2v3.9h-35.4v-13.74h30v-5.88Z"/><path class="cls-18" d="M654.96,1036.79c0-3.48.54-6.49,1.62-9.03s2.63-4.5,4.65-5.88c2.02-1.38,4.41-2.07,7.17-2.07,2.72.08,5.08.83,7.08,2.25,2,1.42,3.54,3.38,4.62,5.88s1.62,5.45,1.62,8.85-.54,6.42-1.62,8.94c-1.08,2.52-2.62,4.46-4.62,5.82-2,1.36-4.36,2.04-7.08,2.04s-5.15-.68-7.17-2.04c-2.02-1.36-3.57-3.3-4.65-5.82-1.08-2.52-1.62-5.5-1.62-8.94ZM659.16,1036.79c0,3.96.83,7.1,2.49,9.42,1.66,2.32,3.91,3.48,6.75,3.48s5.02-1.16,6.66-3.48c1.64-2.32,2.46-5.46,2.46-9.42s-.82-7.23-2.46-9.57c-1.64-2.34-3.86-3.51-6.66-3.51s-5.09,1.17-6.75,3.51c-1.66,2.34-2.49,5.53-2.49,9.57ZM696,1066.43h-4.2v-49.38h-3.9v-3.9h8.1v53.28Z"/><path class="cls-18" d="M737.52,1030.91c0-2.52.59-4.8,1.77-6.84,1.18-2.04,2.78-3.66,4.8-4.86,2.02-1.2,4.27-1.8,6.75-1.8s4.71.6,6.69,1.8c1.98,1.2,3.55,2.82,4.71,4.86,1.16,2.04,1.74,4.32,1.74,6.84,0,2.36-.58,4.51-1.74,6.45-1.16,1.94-2.73,3.48-4.71,4.62-1.98,1.14-4.21,1.71-6.69,1.71s-4.73-.57-6.75-1.71c-2.02-1.14-3.62-2.68-4.8-4.62-1.18-1.94-1.77-4.09-1.77-6.45ZM741.72,1030.97c0,1.64.4,3.12,1.2,4.44.8,1.32,1.88,2.37,3.24,3.15,1.36.78,2.88,1.17,4.56,1.17s3.19-.39,4.53-1.17c1.34-.78,2.41-1.84,3.21-3.18.8-1.34,1.2-2.83,1.2-4.47,0-1.8-.39-3.43-1.17-4.89-.78-1.46-1.84-2.61-3.18-3.45-1.34-.84-2.83-1.26-4.47-1.26s-3.21.43-4.59,1.29-2.48,2.02-3.3,3.48c-.82,1.46-1.23,3.09-1.23,4.89ZM779.82,1066.01h-36.06v-17.34h4.2v13.44h31.86v3.9ZM772.8,1017.29h-3.9v-3.9h8.1v16.62h8.28v3.9h-8.28v19.14h-4.2v-35.76Z"/><path class="cls-18" d="M801.9,1034.81h-10.8v-18.3h25.44v3.9h-21.24v10.5h21.6v3.9h-10.98v8.28h19.2l.06-25.5h-3.9v-3.9h8.1l-.06,39.9h-4.2v-6.72h-38.7v-3.78h15.48v-8.28ZM831.54,1065.65h-36.18v-14.58h4.2v10.68h31.98v3.9Z"/><path class="cls-18" d="M917.52,1059.89h-48.9v-3.9h48.9v3.9ZM875.94,1043.33v-3.9l.06-20.1h4.2l-.06,20.1h29.88v3.9h-34.08Z"/><path class="cls-18" d="M921.48,1038.23c2.96-2.2,5.3-4.71,7.02-7.53,1.72-2.82,2.92-5.93,3.6-9.33l-10.56.06v-3.9h28.44c-.12,3.96-.57,7.47-1.35,10.53-.78,3.06-2.01,5.84-3.69,8.34-1.68,2.5-3.96,4.89-6.84,7.17l-2.82-2.7c2.2-1.76,4-3.59,5.4-5.49,1.4-1.9,2.49-4,3.27-6.3.78-2.3,1.33-4.87,1.65-7.71h-9.24c-.56,2.72-1.32,5.23-2.28,7.53-.96,2.3-2.23,4.45-3.81,6.45-1.58,2-3.61,3.92-6.09,5.76l-2.7-2.88ZM962.88,1065.89h-34.56v-18.78h34.56v18.78ZM932.52,1051.01v10.98h26.16v-10.98h-26.16ZM958.98,1017.95h-3.9v-3.9h8.1v30.36h-4.2v-26.46Z"/><path class="cls-18" d="M969.9,1059.53v-6.66h6.66v6.66h-6.66Z"/><rect class="cls-14" x="587.71" y="1134.89" width="396.56" height="310.97"/><rect class="cls-14" x="576.67" y="1121.35" width="396.56" height="310.97"/><rect class="cls-14" x="565.63" y="1107.81" width="396.56" height="310.97"/><rect class="cls-14" x="554.59" y="1094.28" width="396.56" height="310.97"/><path class="cls-18" d="M607.81,1130.58h-38.34v-3.9h6.96v-13.98h-5.64v-3.9h29.4v3.9h-6.12v13.98h13.74v-17.7h-3.9v-3.9h8.1v27.9h-4.2v-2.4ZM607.75,1140.07h-30.12v-3.9h34.32v12.78h-30.12v5.16h33.3v3.9h-37.5v-12.96h30.12v-4.98ZM580.63,1112.71v13.98h9.24v-13.98h-9.24Z"/><path class="cls-18" d="M667.39,1152.61h-48.66v-3.9h12.78v-16.44c-1.72-1.16-3.08-2.56-4.08-4.2-1-1.64-1.5-3.46-1.5-5.46,0-2.48.73-4.68,2.19-6.6,1.46-1.92,3.49-3.43,6.09-4.53,2.6-1.1,5.56-1.65,8.88-1.65s6.33.55,8.91,1.65c2.58,1.1,4.6,2.61,6.06,4.53,1.46,1.92,2.19,4.12,2.19,6.6,0,1.96-.48,3.76-1.44,5.4-.96,1.64-2.3,3.04-4.02,4.2v16.5h12.6v3.9ZM630.13,1122.61c0,1.72.56,3.24,1.68,4.56,1.12,1.32,2.65,2.36,4.59,3.12,1.94.76,4.17,1.14,6.69,1.14s4.76-.38,6.72-1.14c1.96-.76,3.49-1.8,4.59-3.12,1.1-1.32,1.65-2.84,1.65-4.56s-.55-3.25-1.65-4.59c-1.1-1.34-2.63-2.39-4.59-3.15-1.96-.76-4.2-1.14-6.72-1.14s-4.75.38-6.69,1.14c-1.94.76-3.47,1.81-4.59,3.15-1.12,1.34-1.68,2.87-1.68,4.59ZM635.71,1134.25v14.46h14.88v-14.52c-1.12.36-2.3.64-3.54.84-1.24.2-2.56.3-3.96.3-2.68,0-5.14-.36-7.38-1.08Z"/><path class="cls-18" d="M700.03,1116.25h-29.76v-3.9h12.48v-6.12h4.2v6.12h13.08v3.9ZM672.91,1129.26c0-2,.53-3.77,1.59-5.31,1.06-1.54,2.53-2.75,4.41-3.63,1.88-.88,4.02-1.32,6.42-1.32s4.52.44,6.36,1.32c1.84.88,3.28,2.09,4.32,3.63,1.04,1.54,1.56,3.31,1.56,5.31s-.52,3.78-1.56,5.34c-1.04,1.56-2.48,2.78-4.32,3.66-1.84.88-3.96,1.32-6.36,1.32s-4.54-.44-6.42-1.32c-1.88-.88-3.35-2.1-4.41-3.66-1.06-1.56-1.59-3.34-1.59-5.34ZM677.11,1129.33c0,1.84.77,3.36,2.31,4.56,1.54,1.2,3.51,1.8,5.91,1.8s4.29-.58,5.79-1.74,2.25-2.66,2.25-4.5-.75-3.49-2.25-4.71c-1.5-1.22-3.43-1.83-5.79-1.83s-4.37.6-5.91,1.8c-1.54,1.2-2.31,2.74-2.31,4.62ZM678.07,1158.37v-15h4.2v11.1h32.4v3.9h-36.6ZM706.39,1109.22h-3.9v-3.9h8.1v18.78h8.64v3.9h-8.64v18.66h-4.2v-37.44Z"/><path class="cls-18" d="M754.63,1147.38l-3.06-2.4,13.92-17.58v-17.04h4.2v17.04l13.98,17.58-3.12,2.4-12.96-16.32-12.96,16.32ZM792.73,1158.61h-4.2v-49.68h-3.9v-3.6h8.1v20.4h8.88v3.9h-8.88v28.98Z"/><path class="cls-18" d="M844.09,1138.63h-4.2v-3.9h-34.98v-15.96h19.68v-5.76h-20.1v-3.6h24.3v13.26h-19.68v8.34h30.78v-22.14h-3.9v-3.6h8.1v14.94h7.56v3.9h-7.56v14.52ZM844.27,1158.79h-34.14v-17.7h34.14v17.7ZM814.03,1144.69v10.5h26.34v-10.5h-26.34Z"/><path class="cls-18" d="M900.73,1137.67h-47.46v-3.9h47.46v3.9ZM859.57,1158.42v-15.36h4.2v11.46h31.62v3.9h-35.82ZM860.05,1118.65c0-2,.73-3.78,2.19-5.34,1.46-1.56,3.49-2.78,6.09-3.66,2.6-.88,5.56-1.32,8.88-1.32s6.33.44,8.91,1.32,4.61,2.1,6.09,3.66c1.48,1.56,2.22,3.34,2.22,5.34s-.74,3.78-2.22,5.34c-1.48,1.56-3.51,2.78-6.09,3.66s-5.55,1.32-8.91,1.32-6.28-.44-8.88-1.32c-2.6-.88-4.63-2.1-6.09-3.66-1.46-1.56-2.19-3.34-2.19-5.34ZM864.25,1118.71c0,1.24.56,2.34,1.68,3.3,1.12.96,2.65,1.71,4.59,2.25,1.94.54,4.17.81,6.69.81s4.81-.27,6.75-.81c1.94-.54,3.47-1.29,4.59-2.25,1.12-.96,1.68-2.06,1.68-3.3s-.56-2.4-1.68-3.36c-1.12-.96-2.65-1.72-4.59-2.28-1.94-.56-4.19-.84-6.75-.84s-4.75.28-6.69.84c-1.94.56-3.47,1.32-4.59,2.28-1.12.96-1.68,2.08-1.68,3.36Z"/><path class="cls-18" d="M604.81,1210.3h-33.66l.12-34.08h4.2l-.12,30.18h29.46v-30.66h-3.9v-3.9h8.1v21.3h9.36v3.9h-9.36v26.82h-4.2v-13.56Z"/><path class="cls-18" d="M646.15,1176.7c.2,5.4-.65,10.47-2.55,15.21-1.9,4.74-4.68,8.98-8.34,12.72-3.66,3.74-8.05,6.85-13.17,9.33l-1.8-3.78c4.32-2.08,8.03-4.65,11.13-7.71,3.1-3.06,5.54-6.45,7.32-10.17,1.78-3.72,2.81-7.62,3.09-11.7h-19.62v-3.9h23.94ZM655.15,1174.84h-3.9v-3.9h8.1v22.5h9.12v3.9h-9.12v27.42h-4.2v-49.92Z"/><path class="cls-18" d="M716.83,1217.68h-46.5v-3.9h18.54v-19.02h4.2v19.02h13.26v-33.9h-29.88v-3.9h34.08v37.8h6.3v3.9Z"/><path class="cls-18" d="M732.67,1224.16l-13.26-.06v-3.9l9.48.06v-3.18h-3.96v-6.6h7.74v13.68Z"/><path class="cls-18" d="M604.81,1275.92h-33.66l.12-34.08h4.2l-.12,30.18h29.46v-30.66h-3.9v-3.9h8.1v21.3h9.36v3.9h-9.36v26.82h-4.2v-13.56Z"/><path class="cls-18" d="M646.15,1242.32c.2,5.4-.65,10.47-2.55,15.21-1.9,4.74-4.68,8.98-8.34,12.72-3.66,3.74-8.05,6.85-13.17,9.33l-1.8-3.78c4.32-2.08,8.03-4.65,11.13-7.71,3.1-3.06,5.54-6.45,7.32-10.17,1.78-3.72,2.81-7.62,3.09-11.7h-19.62v-3.9h23.94ZM655.15,1240.46h-3.9v-3.9h8.1v22.5h9.12v3.9h-9.12v27.42h-4.2v-49.92Z"/><path class="cls-18" d="M670.15,1259.48c0-4.88,1.22-8.73,3.66-11.55,2.44-2.82,5.72-4.23,9.84-4.23,4.12.2,7.38,1.72,9.78,4.56,2.4,2.84,3.6,6.58,3.6,11.22,0,3.2-.54,5.97-1.62,8.31-1.08,2.34-2.62,4.15-4.62,5.43-2,1.28-4.38,1.92-7.14,1.92s-5.15-.64-7.17-1.92c-2.02-1.28-3.58-3.09-4.68-5.43-1.1-2.34-1.65-5.11-1.65-8.31ZM674.35,1259.48c0,3.6.84,6.46,2.52,8.58,1.68,2.12,3.94,3.18,6.78,3.18s5.08-1.06,6.72-3.18c1.64-2.12,2.46-4.98,2.46-8.58s-.82-6.58-2.46-8.7c-1.64-2.12-3.88-3.18-6.72-3.18s-5.1,1.06-6.78,3.18c-1.68,2.12-2.52,5.02-2.52,8.7ZM709.93,1290.68h-4.2v-49.62h-3.9v-3.9h8.1v13.68h9.66v3.9h-9.66v12.12h9.66v3.9h-9.66v19.92Z"/><path class="cls-18" d="M783.91,1245.74h-32.28v-3.9h14.64v-5.46h4.2v5.46h13.44v3.9ZM754.75,1257.02c0-1.8.56-3.38,1.68-4.74,1.12-1.36,2.66-2.42,4.62-3.18,1.96-.76,4.2-1.14,6.72-1.14s4.75.38,6.69,1.14c1.94.76,3.45,1.82,4.53,3.18,1.08,1.36,1.62,2.94,1.62,4.74s-.54,3.32-1.62,4.68c-1.08,1.36-2.59,2.42-4.53,3.18-1.94.76-4.17,1.14-6.69,1.14s-4.76-.38-6.72-1.14c-1.96-.76-3.5-1.82-4.62-3.18-1.12-1.36-1.68-2.92-1.68-4.68ZM758.95,1257.08c0,1.48.83,2.69,2.49,3.63,1.66.94,3.77,1.41,6.33,1.41s4.64-.46,6.24-1.38c1.6-.92,2.4-2.1,2.4-3.54,0-1.56-.8-2.84-2.4-3.84-1.6-1-3.68-1.5-6.24-1.5s-4.67.49-6.33,1.47c-1.66.98-2.49,2.23-2.49,3.75ZM788.41,1273.28h-29.1v-3.9h33.3v11.88h-28.8v4.14h31.44v3.9h-35.64v-11.94h28.8v-4.08ZM788.41,1239.92h-3.9v-3.9h8.1v14.04h9.18v3.9h-9.18v12.42h-4.2v-26.46Z"/><path class="cls-18" d="M571.03,1344.23l-3.06-2.4,13.92-17.58v-17.04h4.2v17.04l13.98,17.58-3.12,2.4-12.96-16.32-12.96,16.32ZM609.13,1355.45h-4.2v-49.68h-3.9v-3.6h8.1v20.4h8.88v3.9h-8.88v28.98Z"/><path class="cls-18" d="M660.49,1335.47h-4.2v-3.9h-34.98v-15.96h19.68v-5.76h-20.1v-3.6h24.3v13.26h-19.68v8.34h30.78v-22.14h-3.9v-3.6h8.1v14.94h7.56v3.9h-7.56v14.52ZM660.67,1355.63h-34.14v-17.7h34.14v17.7ZM630.43,1341.53v10.5h26.34v-10.5h-26.34Z"/><path class="cls-18" d="M717.13,1334.51h-47.46v-3.9h47.46v3.9ZM675.97,1355.27v-15.36h4.2v11.46h31.62v3.9h-35.82ZM676.45,1315.49c0-2,.73-3.78,2.19-5.34,1.46-1.56,3.49-2.78,6.09-3.66,2.6-.88,5.56-1.32,8.88-1.32s6.33.44,8.91,1.32,4.61,2.1,6.09,3.66c1.48,1.56,2.22,3.34,2.22,5.34s-.74,3.78-2.22,5.34c-1.48,1.56-3.51,2.78-6.09,3.66s-5.55,1.32-8.91,1.32-6.28-.44-8.88-1.32c-2.6-.88-4.63-2.1-6.09-3.66-1.46-1.56-2.19-3.34-2.19-5.34ZM680.65,1315.55c0,1.24.56,2.34,1.68,3.3,1.12.96,2.65,1.71,4.59,2.25,1.94.54,4.17.81,6.69.81s4.81-.27,6.75-.81c1.94-.54,3.47-1.29,4.59-2.25,1.12-.96,1.68-2.06,1.68-3.3s-.56-2.4-1.68-3.36c-1.12-.96-2.65-1.72-4.59-2.28-1.94-.56-4.19-.84-6.75-.84s-4.75.28-6.69.84c-1.94.56-3.47,1.32-4.59,2.28-1.12.96-1.68,2.08-1.68,3.36Z"/><path class="cls-18" d="M795.37,1355.45h-4.2v-29.7h-13.02v14.7h-22.92v-32.22h4.2v13.62h14.52v-13.62h4.2v13.62h13.02v-16.08h-3.9v-3.6h8.1v53.28ZM759.43,1325.75v10.8h14.52v-10.8h-14.52Z"/><path class="cls-18" d="M841.81,1331.15h-35.46v-25.14h24.72v3.9h-20.52v6.6h19.02v3.9h-19.02v6.84h31.26v-20.52h-3.9v-3.9h8.1v32.16h-4.2v-3.84ZM846.07,1355.63h-33.9v-17.88h33.9v17.88ZM816.37,1341.29v10.44h25.5v-10.44h-25.5Z"/><path class="cls-18" d="M853.21,1348.55v-6.66h6.66v6.66h-6.66Z"/><rect class="cls-6" x="123.17" y="1019.69" width="441.95" height="282.69"/><rect class="cls-8" x="110.86" y="1007.39" width="441.95" height="282.69"/><path class="cls-18" d="M152.72,1029.84h-26.34v-3.9h10.92v-6h4.2v6h11.22v3.9ZM128.48,1042.44c0-1.96.48-3.68,1.44-5.16.96-1.48,2.28-2.65,3.96-3.51,1.68-.86,3.6-1.29,5.76-1.29s4.06.43,5.7,1.29c1.64.86,2.93,2.03,3.87,3.51.94,1.48,1.41,3.2,1.41,5.16s-.47,3.62-1.41,5.1c-.94,1.48-2.23,2.64-3.87,3.48-1.64.84-3.54,1.26-5.7,1.26s-4.08-.42-5.76-1.26c-1.68-.84-3-2-3.96-3.48-.96-1.48-1.44-3.18-1.44-5.1ZM132.68,1042.5c0,1.72.65,3.13,1.95,4.23,1.3,1.1,2.97,1.65,5.01,1.65s3.63-.54,4.89-1.62c1.26-1.08,1.89-2.46,1.89-4.14,0-1.84-.63-3.34-1.89-4.5-1.26-1.16-2.89-1.74-4.89-1.74s-3.71.57-5.01,1.71c-1.3,1.14-1.95,2.61-1.95,4.41ZM166.82,1060.26h-31.68v-3.9h35.88v17.16h-4.2v-13.26ZM156.74,1024.14h-3.9v-3.9h8.1v14.58h5.94v-14.58h4.2v32.88h-4.2v-14.4h-5.94v14.4h-4.2v-28.98Z"/><path class="cls-18" d="M179.12,1048.68l-2.7-2.82,13.8-12.72v-10.92h4.2v11.34l12.66,11.7-2.7,2.82-12.18-11.22h-.24l-12.84,11.82ZM186.68,1070.16h-.06v-17.1h32.34v18.96h-32.28v-1.86ZM190.7,1056.84v11.4h24.18v-11.4h-24.18ZM219.08,1049.7h-4.2v-26.58h-3.9v-3.6h8.1v30.18Z"/><path class="cls-18" d="M253.94,1024.86c.2,5.4-.65,10.47-2.55,15.21-1.9,4.74-4.68,8.98-8.34,12.72-3.66,3.74-8.05,6.85-13.17,9.33l-1.8-3.78c4.32-2.08,8.03-4.65,11.13-7.71,3.1-3.06,5.54-6.45,7.32-10.17,1.78-3.72,2.81-7.62,3.09-11.7h-19.62v-3.9h23.94ZM262.94,1023h-3.9v-3.9h8.1v22.5h9.12v3.9h-9.12v27.42h-4.2v-49.92Z"/><path class="cls-18" d="M292.04,1031.94h-11.58v-3.9h11.58v-7.44h4.2v7.44h12.12v3.9h-12.12v9.96l14.28,17.4-3,2.46-13.32-16.2-12.84,16.2-3.06-2.4,13.74-17.34v-10.08ZM316.64,1023.3h-3.9v-3.9h8.1v53.46h-4.2v-49.56Z"/><path class="cls-18" d="M152.18,1111.89h-23.4v-22.8h23.4v22.8ZM133.76,1138.11l-2.04-3.18,17.46-9.54v-3.42h-14.82v-3.78h33.66v3.78h-14.76v3.48l17.34,9.48-2.04,3.18-17.4-9.54-17.4,9.54ZM132.98,1093v15h15v-15h-15ZM162.8,1088.85h-3.9v-3.9h8.1v12.24h8.46v3.9h-8.46v14.16h-4.2v-26.4Z"/><path class="cls-18" d="M202.88,1110.15h-23.4v-22.02h23.4v22.02ZM183.68,1092.04v14.22h15v-14.22h-15ZM220.04,1137.46h-35.04v-13.86h28.32v-5.04h-28.32v-3.72h32.52v12.66h-28.32v6.06h30.84v3.9ZM217.64,1112.25h-4.2v-23.94h-3.9v-3.9h8.1v12.12h7.38v3.9h-7.38v11.82Z"/><path class="cls-18" d="M228.14,1102.35c0-2.64.57-4.96,1.71-6.96,1.14-2,2.72-3.57,4.74-4.71,2.02-1.14,4.35-1.71,6.99-1.71,2.6.08,4.9.71,6.9,1.89,2,1.18,3.57,2.76,4.71,4.74,1.14,1.98,1.71,4.23,1.71,6.75s-.57,4.84-1.71,6.84c-1.14,2-2.71,3.56-4.71,4.68-2,1.12-4.3,1.68-6.9,1.68s-4.97-.56-6.99-1.68c-2.02-1.12-3.6-2.68-4.74-4.68-1.14-2-1.71-4.28-1.71-6.84ZM232.34,1102.35c0,2.72.87,4.95,2.61,6.69,1.74,1.74,3.95,2.61,6.63,2.61s4.87-.87,6.57-2.61c1.7-1.74,2.55-3.97,2.55-6.69s-.85-5.08-2.55-6.84c-1.7-1.76-3.89-2.64-6.57-2.64s-4.89.88-6.63,2.64c-1.74,1.76-2.61,4.04-2.61,6.84ZM272.48,1136.97h-35.34v-16.26h4.2v12.36h31.14v3.9ZM270.44,1124.13h-4.2v-36.36h-3.9v-3.6h8.1v39.96Z"/><path class="cls-18" d="M301.64,1126h-22.14v-33.9h19.92v3.9h-15.72v26.1h17.94v3.9ZM307.52,1109.73h-12.18v-3.9h12.18v-16.32h-3.3v-3.9h7.5v52.26h-4.2v-28.14ZM322.46,1137.88h-4.2v-52.26h4.2v52.26Z"/><path class="cls-18" d="M340.46,1137.93l-13.26-.06v-3.9l9.48.06v-3.18h-3.96v-6.6h7.74v13.68Z"/><path class="cls-18" d="M148.1,1187.29h-22.26v-3.9h48.72v3.9h-22.26v16.86h-4.2v-16.86ZM131.66,1178.95l-2.1-3.3,18.48-9.18v-4.8h-16.2v-3.9h16.2v-6.3h4.2v6.3h16.08v3.9h-16.08v4.8l18.48,9.18-2.1,3.3-18.48-9.18-18.48,9.18Z"/><path class="cls-18" d="M179.48,1181.11l-2.64-2.82,12.72-12.06v-12.6h4.2v12.54l12.78,12.12-2.7,2.82-12.18-11.58-12.18,11.58ZM184.76,1195.03c0-3.32,1.45-5.87,4.35-7.65,2.9-1.78,7.01-2.67,12.33-2.67s9.48.89,12.36,2.67c2.88,1.78,4.32,4.33,4.32,7.65s-1.44,5.82-4.32,7.62c-2.88,1.8-7,2.7-12.36,2.7s-9.43-.9-12.33-2.7c-2.9-1.8-4.35-4.34-4.35-7.62ZM188.84,1195.03c0,2.08,1.09,3.69,3.27,4.83,2.18,1.14,5.29,1.71,9.33,1.71s7.15-.57,9.33-1.71c2.18-1.14,3.27-2.75,3.27-4.83s-1.09-3.74-3.27-4.86c-2.18-1.12-5.29-1.68-9.33-1.68s-7.15.56-9.33,1.68c-2.18,1.12-3.27,2.74-3.27,4.86ZM217.34,1183.69h-4.2v-29.76h-3.9v-3.9h8.1v14.82h8.58v3.9h-8.58v14.94Z"/><path class="cls-18" d="M230.18,1181.05l-2.76-2.82,13.74-12.84v-7.86h-11.82v-3.9h27.78v3.9h-11.76v7.8l14.1,11.7-2.64,2.82-13.5-11.1-13.14,12.3ZM266,1189.15h-31.26v-3.9h35.46v18.9h-4.2v-15ZM266,1168.09h-11.04v-3.9h11.04v-10.02h-3.9v-3.9h8.1v31.92h-4.2v-14.1Z"/><path class="cls-18" d="M278.9,1166.35c0-2.32.6-4.42,1.8-6.3,1.2-1.88,2.81-3.38,4.83-4.5,2.02-1.12,4.29-1.68,6.81-1.68,2.48.08,4.73.7,6.75,1.86,2.02,1.16,3.62,2.66,4.8,4.5,1.18,1.84,1.77,3.88,1.77,6.12s-.59,4.35-1.77,6.21c-1.18,1.86-2.78,3.34-4.8,4.44-2.02,1.1-4.27,1.65-6.75,1.65s-4.79-.55-6.81-1.65c-2.02-1.1-3.63-2.58-4.83-4.44-1.2-1.86-1.8-3.93-1.8-6.21ZM283.1,1166.35c0,1.56.41,2.98,1.23,4.26.82,1.28,1.93,2.29,3.33,3.03,1.4.74,2.96,1.11,4.68,1.11s3.26-.37,4.62-1.11c1.36-.74,2.45-1.75,3.27-3.03.82-1.28,1.23-2.7,1.23-4.26s-.41-3.05-1.23-4.35c-.82-1.3-1.91-2.33-3.27-3.09-1.36-.76-2.9-1.14-4.62-1.14s-3.28.38-4.68,1.14c-1.4.76-2.51,1.79-3.33,3.09-.82,1.3-1.23,2.75-1.23,4.35ZM320.54,1203.67h-33.42v-19.32h33.42v19.32ZM291.32,1188.25v11.52h25.02v-11.52h-25.02ZM320.36,1180.87h-4.2v-27.18h-3.9v-3.9h8.1v31.08Z"/><path class="cls-18" d="M169.52,1270.07h-4.2v-29.16h-12.54c-.24,4.84-1.45,8.55-3.63,11.13-2.18,2.58-5.19,3.87-9.03,3.87-4.12,0-7.29-1.45-9.51-4.35-2.22-2.9-3.33-7.05-3.33-12.45s1.11-9.68,3.33-12.6c2.22-2.92,5.39-4.38,9.51-4.38,3.8.16,6.79,1.52,8.97,4.08,2.18,2.56,3.41,6.16,3.69,10.8h12.54v-16.56h-3.9v-3.9h8.1v53.52ZM131.48,1239.11c0,4.12.75,7.3,2.25,9.54s3.63,3.36,6.39,3.36,4.82-1.12,6.3-3.36c1.48-2.24,2.22-5.42,2.22-9.54s-.74-7.43-2.22-9.69c-1.48-2.26-3.58-3.39-6.3-3.39s-4.89,1.13-6.39,3.39c-1.5,2.26-2.25,5.49-2.25,9.69Z"/><path class="cls-18" d="M178.58,1258.07l-2.58-2.7,8.7-10.92v-17.28h-6.84v-3.9h31.5v3.9h-7.02v17.22l9.36,10.62-2.7,2.7-8.58-9.6-6.84,9.18-6.84-9.18-8.16,9.96ZM188.9,1227.17v17.46l4.68,6.18,4.56-6.12v-17.52h-9.24ZM216.68,1239.59h-9.66v-3.9h9.66v-15.36h-3.9v-3.6h8.1v52.44h-4.2v-29.58Z"/><path class="cls-18" d="M263.3,1257.11h-33.9l.12-18.84v-2.22h19.08v-11.04h-19.08v-3.9h23.28v18.84h-19.08l-.12,13.26h29.7v-33.36h-3.9v-3.9h8.1v21.66h9.42v3.9h-9.42v27.72h-4.2v-12.12Z"/><path class="cls-18" d="M325.22,1246.97h-47.88v-3.9h47.88v3.9ZM320.3,1268.09h-36.9v-15.54h4.2v11.64h32.7v3.9ZM318.68,1235.93h-33.84v-18.36h4.2v14.46h29.64v3.9Z"/><path class="cls-18" d="M382.34,1236.47c-2.32,3.36-5.18,6.13-8.58,8.31-3.4,2.18-6.98,3.77-10.74,4.77l-1.32-4.02c3.48-.92,6.73-2.39,9.75-4.41,3.02-2.02,5.54-4.46,7.56-7.32,2.02-2.86,3.25-6.03,3.69-9.51h-20.58v-3.9h25.26c-.04,2.28-.31,4.44-.81,6.48-.5,2.04-1.17,3.94-2.01,5.7h14.82v-12.66h-3.9v-3.9h8.1v39.66h-4.2v-19.2h-17.04ZM405.5,1268.51h-35.28v-16.86h4.2v12.96h31.08v3.9Z"/><path class="cls-18" d="M413.96,1258.13l-3-2.64,13.86-15.78v-13.92h-12.12v-3.9h28.62v3.9h-12.3v13.92l13.86,15.78-3,2.64-12.96-14.7-12.96,14.7ZM453.92,1269.23h-4.2v-49.38h-3.9v-3.9h8.1v53.28Z"/><rect class="cls-10" x="112.73" y="771.84" width="421.52" height="175.7"/><rect class="cls-7" x="96.38" y="755.17" width="420.13" height="175.7"/><path class="cls-18" d="M124.79,796h-12.24v-3.6h33.6v3.6h-17.46v6.24h25.08v11.58h-31.92v4.44h34.56v3.9h-38.64v-12.12h31.92v-4.02h-31.98v-3.78h7.08v-6.24ZM153.77,799.9h-4.02v-18.36h-10.56v7.32h-24.18v-18.54h24.18v7.62h10.56v-5.64h-4.08v-3.6h8.1v31.2ZM118.91,773.92v11.34h16.38v-11.34h-16.38Z"/><path class="cls-18" d="M224.09,782.02h-30.54v-3.9h13.2v-8.82h4.2v8.82h13.14v3.9ZM208.85,809.74c-2.32,0-4.42-.52-6.3-1.56-1.88-1.04-3.37-2.43-4.47-4.17-1.1-1.74-1.65-3.69-1.65-5.85s.55-4.17,1.65-5.91c1.1-1.74,2.59-3.13,4.47-4.17,1.88-1.04,3.98-1.56,6.3-1.56s4.35.52,6.21,1.56c1.86,1.04,3.33,2.43,4.41,4.17,1.08,1.74,1.62,3.71,1.62,5.91s-.54,4.11-1.62,5.85-2.55,3.13-4.41,4.17c-1.86,1.04-3.93,1.56-6.21,1.56ZM200.63,798.28c0,1.4.36,2.68,1.08,3.84.72,1.16,1.71,2.07,2.97,2.73s2.65.99,4.17.99,2.88-.33,4.08-.99,2.16-1.56,2.88-2.7c.72-1.14,1.08-2.39,1.08-3.75,0-1.48-.36-2.82-1.08-4.02-.72-1.2-1.68-2.16-2.88-2.88-1.2-.72-2.56-1.08-4.08-1.08s-2.91.35-4.17,1.05c-1.26.7-2.25,1.64-2.97,2.82-.72,1.18-1.08,2.51-1.08,3.99ZM228.83,772.24h-3.9v-3.9h8.1v21.66h10.8v3.9h-10.8v27.72h-4.2v-49.38Z"/><path class="cls-18" d="M259.01,779.2h-12.42v-3.9h28.98v3.9h-12.36v12.84l14.28,17.4-3,2.46-13.32-16.2-12.84,16.2-3.06-2.4,13.74-17.34v-12.96ZM283.13,772.42h-3.9v-3.9h8.1v21.54h9.78v3.9h-9.78v27.84h-4.2v-49.38Z"/><path class="cls-18" d="M346.25,815.08h-46.5v-3.9h18.54v-19.02h4.2v19.02h13.26v-33.9h-29.88v-3.9h34.08v37.8h6.3v3.9Z"/><path class="cls-18" d="M137.33,847.57h-27.06v-3.9h11.34v-8.28h4.2v8.28h11.52v3.9ZM123.59,873.61c-2.16,0-4.11-.49-5.85-1.47-1.74-.98-3.12-2.3-4.14-3.96-1.02-1.66-1.53-3.51-1.53-5.55s.51-3.95,1.53-5.61,2.4-2.98,4.14-3.96c1.74-.98,3.69-1.47,5.85-1.47s4.04.49,5.76,1.47c1.72.98,3.08,2.3,4.08,3.96,1,1.66,1.5,3.53,1.5,5.61s-.5,3.89-1.5,5.55c-1,1.66-2.36,2.98-4.08,3.96-1.72.98-3.64,1.47-5.76,1.47ZM116.27,862.75c0,1.28.33,2.45.99,3.51.66,1.06,1.54,1.9,2.64,2.52,1.1.62,2.33.93,3.69.93,2,0,3.69-.66,5.07-1.98,1.38-1.32,2.07-2.94,2.07-4.86,0-2.08-.69-3.83-2.07-5.25-1.38-1.42-3.07-2.13-5.07-2.13-1.36,0-2.59.32-3.69.96-1.1.64-1.98,1.51-2.64,2.61-.66,1.1-.99,2.33-.99,3.69ZM139.67,837.85h-3.3v-3.9h7.5v22.44h7.02v-22.44h4.2v53.16h-4.2v-26.82h-7.02v26.82h-4.2v-49.26Z"/><path class="cls-18" d="M209.45,881.53h-48.9v-3.9h22.32v-13.5h-15v-25.14h34.08v3.9h-29.88v17.34h29.88v3.9h-14.88v13.5h22.38v3.9Z"/><path class="cls-18" d="M211.43,880.33v-6.66h6.66v6.66h-6.66Z"/><path class="cls-18" d="M232.49,880.33v-6.66h6.66v6.66h-6.66Z"/><path class="cls-18" d="M253.55,880.33v-6.66h6.66v6.66h-6.66Z"/><path class="cls-18" d="M300.71,887.11h-4.2v-17.58h-21.54v-3.9h47.28v3.9h-21.54v17.58ZM315.53,858.73h-34.08v-20.94h34.08v20.94ZM285.65,841.69v13.14h25.68v-13.14h-25.68Z"/><path class="cls-18" d="M326.45,873.01c4.04-1.84,7.65-4.23,10.83-7.17,3.18-2.94,5.75-6.25,7.71-9.93,1.96-3.68,3.1-7.54,3.42-11.58h-19.44v-3.9h23.76c.12,4.08-.4,7.95-1.56,11.61-1.16,3.66-2.85,7.05-5.07,10.17-2.22,3.12-4.85,5.91-7.89,8.37-3.04,2.46-6.36,4.53-9.96,6.21l-1.8-3.78ZM367.25,887.77h-4.2v-48.36h-3.9v-3.9h8.1v52.26Z"/><path class="cls-18" d="M406.55,865.75h-28.92v-16.92h17.76v-7.2h-17.94v-3.9h22.2v6.06l15.06.12v-5.4h-3.9v-3.9h8.1v33.06h-4.2v-9.12l-12.06-.12v-3.9l12.06.12v-6.84l-15.06-.12v5.04h-17.94v9.12h24.84v3.9ZM414.71,874.39h-31.44v-3.9h35.64v17.64h-4.2v-13.74Z"/><path class="cls-18" d="M452.51,847.57h-27.06v-3.9h11.34v-8.28h4.2v8.28h11.52v3.9ZM438.77,873.61c-2.16,0-4.11-.49-5.85-1.47-1.74-.98-3.12-2.3-4.14-3.96-1.02-1.66-1.53-3.51-1.53-5.55s.51-3.95,1.53-5.61,2.4-2.98,4.14-3.96c1.74-.98,3.69-1.47,5.85-1.47s4.04.49,5.76,1.47c1.72.98,3.08,2.3,4.08,3.96,1,1.66,1.5,3.53,1.5,5.61s-.5,3.89-1.5,5.55c-1,1.66-2.36,2.98-4.08,3.96-1.72.98-3.64,1.47-5.76,1.47ZM431.45,862.75c0,1.28.33,2.45.99,3.51.66,1.06,1.54,1.9,2.64,2.52,1.1.62,2.33.93,3.69.93,2,0,3.69-.66,5.07-1.98,1.38-1.32,2.07-2.94,2.07-4.86,0-2.08-.69-3.83-2.07-5.25-1.38-1.42-3.07-2.13-5.07-2.13-1.36,0-2.59.32-3.69.96-1.1.64-1.98,1.51-2.64,2.61-.66,1.1-.99,2.33-.99,3.69ZM454.85,837.85h-3.3v-3.9h7.5v22.44h7.02v-22.44h4.2v53.16h-4.2v-26.82h-7.02v26.82h-4.2v-49.26Z"/><rect class="cls-4" x="105.09" y="1361.46" width="490.97" height="314.04"/><rect class="cls-9" x="91.42" y="1347.79" width="490.97" height="314.04"/><rect class="cls-9" x="77.75" y="1334.12" width="490.97" height="314.04"/><rect class="cls-9" x="64.08" y="1320.45" width="490.97" height="314.04"/><path class="cls-18" d="M127,1380.43h-48.72v-3.9h22.2v-12.9h4.2v12.9h22.32v3.9ZM84.1,1367.23l-2.1-3.3,18.48-12.72v-8.46h-16.2v-3.9h36.48v3.9h-16.08v8.46l18.48,12.72-2.1,3.3-18.48-12.72-18.48,12.72Z"/><path class="cls-18" d="M132.22,1363.93l-2.76-2.82,13.74-12.84v-7.86h-11.82v-3.9h27.78v3.9h-11.76v7.8l14.1,11.7-2.64,2.82-13.5-11.1-13.14,12.3ZM168.04,1372.03h-31.26v-3.9h35.46v18.9h-4.2v-15ZM168.04,1337.05h-3.9v-3.9h8.1v31.92h-4.2v-28.02Z"/><path class="cls-18" d="M201.76,1364.29h-22.74v-3.9h47.46v3.9h-20.52v10.92h-4.2v-10.92ZM221.98,1385.95h-36.18v-16.02h4.2v12.12h31.98v3.9ZM220.72,1354.21h-33.96v-19.02h33.96v19.02ZM190.96,1339.09v11.22h25.56v-11.22h-25.56Z"/><path class="cls-18" d="M270.46,1387.03h-4.2v-9.96h-36.66v-3.9h14.22v-5.64c-1.92-.32-3.64-.96-5.16-1.92-1.52-.96-2.72-2.17-3.6-3.63-.88-1.46-1.32-3.05-1.32-4.77,0-1.96.55-3.73,1.65-5.31,1.1-1.58,2.59-2.84,4.47-3.78,1.88-.94,3.96-1.41,6.24-1.41s4.33.47,6.15,1.41c1.82.94,3.27,2.2,4.35,3.78,1.08,1.58,1.62,3.35,1.62,5.31,0,1.76-.45,3.38-1.35,4.86-.9,1.48-2.11,2.7-3.63,3.66-1.52.96-3.26,1.58-5.22,1.86v5.58h18.24v-36.3h-3.9v-3.9h8.1v24.12h8.82v3.9h-8.82v26.04ZM261.1,1344.13h-31.08v-3.78h13.92v-7.44h4.08v7.44h13.08v3.78ZM237.94,1357.27c0,1.2.36,2.3,1.08,3.3.72,1,1.7,1.79,2.94,2.37,1.24.58,2.62.87,4.14.87s2.82-.28,4.02-.84c1.2-.56,2.15-1.33,2.85-2.31.7-.98,1.05-2.07,1.05-3.27,0-1.28-.35-2.43-1.05-3.45-.7-1.02-1.65-1.83-2.85-2.43-1.2-.6-2.54-.9-4.02-.9s-2.9.3-4.14.9c-1.24.6-2.22,1.4-2.94,2.4-.72,1-1.08,2.12-1.08,3.36Z"/><path class="cls-18" d="M307.18,1338.97c.2,5.4-.65,10.47-2.55,15.21-1.9,4.74-4.68,8.98-8.34,12.72-3.66,3.74-8.05,6.85-13.17,9.33l-1.8-3.78c4.32-2.08,8.03-4.65,11.13-7.71,3.1-3.06,5.54-6.45,7.32-10.17,1.78-3.72,2.81-7.62,3.09-11.7h-19.62v-3.9h23.94ZM316.18,1337.11h-3.9v-3.9h8.1v22.5h9.12v3.9h-9.12v27.42h-4.2v-49.92Z"/><path class="cls-18" d="M80.5,1422.46c0-3.48.54-6.49,1.62-9.03s2.63-4.5,4.65-5.88c2.02-1.38,4.41-2.07,7.17-2.07,2.72.08,5.08.83,7.08,2.25,2,1.42,3.54,3.38,4.62,5.88s1.62,5.45,1.62,8.85-.54,6.42-1.62,8.94c-1.08,2.52-2.62,4.46-4.62,5.82-2,1.36-4.36,2.04-7.08,2.04s-5.15-.68-7.17-2.04c-2.02-1.36-3.57-3.3-4.65-5.82-1.08-2.52-1.62-5.5-1.62-8.94ZM84.71,1422.46c0,3.96.83,7.1,2.49,9.42,1.66,2.32,3.91,3.48,6.75,3.48s5.02-1.16,6.66-3.48c1.64-2.32,2.46-5.46,2.46-9.42s-.82-7.23-2.46-9.57c-1.64-2.34-3.86-3.51-6.66-3.51s-5.09,1.17-6.75,3.51c-1.66,2.34-2.49,5.53-2.49,9.57ZM121.54,1452.1h-4.2v-49.38h-3.9v-3.9h8.1v53.28Z"/><path class="cls-18" d="M151.9,1429h-19.98v-25.68h4.2v10.5h11.58v-10.5h4.2v10.5h7.32v-10.44h-3.9v-3.9h8.1v38.28h-4.2v-20.04h-7.32v11.28ZM136.12,1417.72v7.38h11.58v-7.38h-11.58ZM139.78,1451.2v-17.4h4.2v13.5h31.32v3.9h-35.52ZM173.86,1437.76h-4.2v-38.28h4.2v38.28Z"/><path class="cls-18" d="M227.92,1446.4h-49.2v-3.9h49.2v3.9ZM220.36,1430.8h-34.08v-26.94h34.08v3.9h-29.88v7.62h29.88v3.9h-29.88v7.62h29.88v3.9Z"/><path class="cls-18" d="M263.68,1437.88c4.04-1.84,7.65-4.23,10.83-7.17,3.18-2.94,5.75-6.25,7.71-9.93,1.96-3.68,3.1-7.54,3.42-11.58h-19.44v-3.9h23.76c.12,4.08-.4,7.95-1.56,11.61-1.16,3.66-2.85,7.05-5.07,10.17-2.22,3.12-4.85,5.91-7.89,8.37-3.04,2.46-6.36,4.53-9.96,6.21l-1.8-3.78ZM304.48,1452.64h-4.2v-48.36h-3.9v-3.9h8.1v52.26Z"/><path class="cls-18" d="M343.96,1408h-29.52v-3.9h12.3v-5.28h4.2v5.28h13.02v3.9ZM355.24,1434.64h-4.2v-1.86h-36.6v-3.9h12.3v-2.82c-2.92-.32-5.27-1.2-7.05-2.64-1.78-1.44-2.67-3.2-2.67-5.28,0-1.64.52-3.08,1.56-4.32,1.04-1.24,2.48-2.21,4.32-2.91,1.84-.7,3.94-1.05,6.3-1.05s4.44.35,6.24,1.05c1.8.7,3.21,1.67,4.23,2.91,1.02,1.24,1.53,2.68,1.53,4.32,0,2.16-.95,3.96-2.85,5.4-1.9,1.44-4.37,2.3-7.41,2.58v2.76h20.1v-26.1h-3.48v-3.9h7.68v35.76ZM350.98,1441.24h-31.32v-3.9h35.52v15.24h-4.2v-11.34ZM321.1,1418.2c0,1.24.76,2.25,2.28,3.03,1.52.78,3.46,1.17,5.82,1.17s4.27-.38,5.73-1.14c1.46-.76,2.19-1.74,2.19-2.94,0-1.4-.73-2.53-2.19-3.39-1.46-.86-3.37-1.29-5.73-1.29s-4.3.42-5.82,1.26c-1.52.84-2.28,1.94-2.28,3.3Z"/><path class="cls-18" d="M410.56,1431.16h-47.46v-3.9h47.46v3.9ZM369.4,1451.92v-15.36h4.2v11.46h31.62v3.9h-35.82ZM369.88,1412.14c0-2,.73-3.78,2.19-5.34,1.46-1.56,3.49-2.78,6.09-3.66,2.6-.88,5.56-1.32,8.88-1.32s6.33.44,8.91,1.32,4.61,2.1,6.09,3.66c1.48,1.56,2.22,3.34,2.22,5.34s-.74,3.78-2.22,5.34c-1.48,1.56-3.51,2.78-6.09,3.66s-5.55,1.32-8.91,1.32-6.28-.44-8.88-1.32c-2.6-.88-4.63-2.1-6.09-3.66-1.46-1.56-2.19-3.34-2.19-5.34ZM374.08,1412.2c0,1.24.56,2.34,1.68,3.3,1.12.96,2.65,1.71,4.59,2.25,1.94.54,4.17.81,6.69.81s4.81-.27,6.75-.81c1.94-.54,3.47-1.29,4.59-2.25,1.12-.96,1.68-2.06,1.68-3.3s-.56-2.4-1.68-3.36c-1.12-.96-2.65-1.72-4.59-2.28-1.94-.56-4.19-.84-6.75-.84s-4.75.28-6.69.84c-1.94.56-3.47,1.32-4.59,2.28-1.12.96-1.68,2.08-1.68,3.36Z"/><path class="cls-18" d="M79.73,1487.12c0-5.48,1.11-9.68,3.33-12.6,2.22-2.92,5.39-4.38,9.51-4.38,4.08.16,7.22,1.71,9.42,4.65,2.2,2.94,3.3,7.05,3.3,12.33s-1.1,9.55-3.3,12.45c-2.2,2.9-5.34,4.35-9.42,4.35s-7.29-1.45-9.51-4.35c-2.22-2.9-3.33-7.05-3.33-12.45ZM83.92,1487.12c0,4.12.75,7.3,2.25,9.54,1.5,2.24,3.63,3.36,6.39,3.36s4.82-1.12,6.3-3.36c1.48-2.24,2.22-5.42,2.22-9.54s-.74-7.43-2.22-9.69c-1.48-2.26-3.58-3.39-6.3-3.39s-4.89,1.13-6.39,3.39-2.25,5.49-2.25,9.69ZM118.96,1518.56h-4.2v-49.62h-3.9v-3.9h8.1v21.48h9.66v3.9h-9.66v28.14Z"/><path class="cls-18" d="M167.32,1502.48h-34.74l.12-33.66h4.2l-.12,29.76h30.54v-30.54h-3.3v-3.6h7.5v53.28h-4.2v-15.24Z"/><path class="cls-18" d="M181.6,1495.16l-2.7-2.82,14.04-12.42v-7.14h-11.58v-3.9h27v3.9h-11.22v8.16l12.42,8.64-2.4,3.06-12.66-8.76h-.12l-12.78,11.28ZM206.92,1516.82h-21.42v-19.92h4.2v16.02h14.64c-.04-.2-.07-.41-.09-.63-.02-.22-.03-.43-.03-.63,0-1.44.44-2.73,1.32-3.87.88-1.14,2.08-2.05,3.6-2.73,1.52-.68,3.2-1.02,5.04-1.02,1.88-.04,3.57.28,5.07.96,1.5.68,2.69,1.6,3.57,2.76.88,1.16,1.32,2.46,1.32,3.9s-.44,2.67-1.32,3.81c-.88,1.14-2.07,2.04-3.57,2.7-1.5.66-3.19.99-5.07.99-1.44,0-2.78-.21-4.02-.63-1.24-.42-2.32-.99-3.24-1.71ZM224.74,1502.06h-25.62v-3.6h12v-5.4h3.84v5.4h9.78v3.6ZM207.82,1511.66c0,1.16.62,2.15,1.86,2.97,1.24.82,2.74,1.23,4.5,1.23s3.26-.41,4.5-1.23c1.24-.82,1.86-1.81,1.86-2.97s-.62-2.22-1.86-3.06c-1.24-.84-2.74-1.26-4.5-1.26s-3.26.42-4.5,1.26c-1.24.84-1.86,1.86-1.86,3.06ZM215.92,1468.34h-3.9v-3.9h8.1v16.68h10.08v3.9h-10.08v7.2h-4.2v-23.88Z"/><path class="cls-18" d="M230.92,1487.12c0-5.48,1.11-9.68,3.33-12.6,2.22-2.92,5.39-4.38,9.51-4.38,4.08.16,7.22,1.71,9.42,4.65,2.2,2.94,3.3,7.05,3.3,12.33s-1.1,9.55-3.3,12.45c-2.2,2.9-5.34,4.35-9.42,4.35s-7.29-1.45-9.51-4.35c-2.22-2.9-3.33-7.05-3.33-12.45ZM235.12,1487.12c0,4.12.75,7.3,2.25,9.54,1.5,2.24,3.63,3.36,6.39,3.36s4.82-1.12,6.3-3.36c1.48-2.24,2.22-5.42,2.22-9.54s-.74-7.43-2.22-9.69c-1.48-2.26-3.58-3.39-6.3-3.39s-4.89,1.13-6.39,3.39-2.25,5.49-2.25,9.69ZM270.16,1518.56h-4.2v-49.62h-3.9v-3.9h8.1v21.48h9.66v3.9h-9.66v28.14Z"/><path class="cls-18" d="M328.42,1511.72h-48.66v-3.9h12.78v-16.44c-1.72-1.16-3.08-2.56-4.08-4.2-1-1.64-1.5-3.46-1.5-5.46,0-2.48.73-4.68,2.19-6.6,1.46-1.92,3.49-3.43,6.09-4.53,2.6-1.1,5.56-1.65,8.88-1.65s6.33.55,8.91,1.65c2.58,1.1,4.6,2.61,6.06,4.53,1.46,1.92,2.19,4.12,2.19,6.6,0,1.96-.48,3.76-1.44,5.4-.96,1.64-2.3,3.04-4.02,4.2v16.5h12.6v3.9ZM291.16,1481.72c0,1.72.56,3.24,1.68,4.56,1.12,1.32,2.65,2.36,4.59,3.12,1.94.76,4.17,1.14,6.69,1.14s4.76-.38,6.72-1.14c1.96-.76,3.49-1.8,4.59-3.12,1.1-1.32,1.65-2.84,1.65-4.56s-.55-3.25-1.65-4.59c-1.1-1.34-2.63-2.39-4.59-3.15-1.96-.76-4.2-1.14-6.72-1.14s-4.75.38-6.69,1.14c-1.94.76-3.47,1.81-4.59,3.15-1.12,1.34-1.68,2.87-1.68,4.59ZM296.74,1493.36v14.46h14.88v-14.52c-1.12.36-2.3.64-3.54.84-1.24.2-2.56.3-3.96.3-2.68,0-5.14-.36-7.38-1.08Z"/><path class="cls-18" d="M330.64,1510.82v-6.66h6.66v6.66h-6.66Z"/><path class="cls-18" d="M80.27,1544.39c0-2.32.59-4.4,1.77-6.24,1.18-1.84,2.78-3.31,4.8-4.41,2.02-1.1,4.27-1.65,6.75-1.65s4.71.55,6.69,1.65c1.98,1.1,3.55,2.57,4.71,4.41,1.16,1.84,1.74,3.92,1.74,6.24s-.58,4.34-1.74,6.18c-1.16,1.84-2.73,3.3-4.71,4.38-1.98,1.08-4.21,1.62-6.69,1.62s-4.73-.54-6.75-1.62c-2.02-1.08-3.62-2.54-4.8-4.38-1.18-1.84-1.77-3.9-1.77-6.18ZM84.46,1544.45c0,1.52.4,2.91,1.2,4.17.8,1.26,1.88,2.25,3.24,2.97,1.36.72,2.88,1.08,4.56,1.08s3.26-.37,4.62-1.11c1.36-.74,2.44-1.74,3.24-3,.8-1.26,1.2-2.65,1.2-4.17s-.4-2.98-1.2-4.26c-.8-1.28-1.87-2.29-3.21-3.03-1.34-.74-2.85-1.11-4.53-1.11s-3.21.38-4.59,1.14-2.48,1.77-3.3,3.03c-.82,1.26-1.23,2.69-1.23,4.29ZM118.12,1564.49h-29.88v-3.9h34.08v13.68h-29.88v5.76h31.68v3.9h-35.88v-13.56h29.88v-5.88ZM117.89,1534.01h-3.9v-3.9h8.1v27.84h-4.2v-23.94Z"/><path class="cls-18" d="M176.98,1557.77h-48.24v-3.9h48.24v3.9ZM166.78,1566.23h-31.74v-3.9h35.94v12.54h-31.74v5.04h33.36v3.9h-37.56v-12.84h31.74v-4.74ZM135.88,1540.67c0-1.84.72-3.47,2.16-4.89,1.44-1.42,3.45-2.53,6.03-3.33,2.58-.8,5.53-1.2,8.85-1.2s6.32.4,8.88,1.2c2.56.8,4.56,1.91,6,3.33,1.44,1.42,2.16,3.05,2.16,4.89s-.72,3.48-2.16,4.92c-1.44,1.44-3.44,2.56-6,3.36-2.56.8-5.52,1.2-8.88,1.2s-6.27-.4-8.85-1.2c-2.58-.8-4.59-1.92-6.03-3.36-1.44-1.44-2.16-3.08-2.16-4.92ZM140.08,1540.67c0,1.08.55,2.05,1.65,2.91,1.1.86,2.61,1.53,4.53,2.01,1.92.48,4.14.72,6.66.72s4.75-.24,6.69-.72c1.94-.48,3.45-1.15,4.53-2.01s1.62-1.83,1.62-2.91-.54-2.03-1.62-2.85c-1.08-.82-2.59-1.46-4.53-1.92-1.94-.46-4.17-.69-6.69-.69s-4.74.23-6.66.69c-1.92.46-3.43,1.1-4.53,1.92-1.1.82-1.65,1.77-1.65,2.85Z"/><path class="cls-18" d="M214.24,1558.25l-2.7-2.82,13.8-11.52v-6.48h-11.58v-3.9h27v3.9h-11.22v6.72l13.26,9.72-2.52,3-13.02-9.54-13.02,10.92ZM219.7,1582.97v-12.9h28.92v-5.46h-28.98v-3.9h33.18v13.26h-28.92v5.1h30.9v3.9h-35.1ZM249.16,1534.13h-3.9v-3.9h8.1v12.3h7.86v3.9h-7.86v11.28h-4.2v-23.58Z"/><path class="cls-18" d="M292.9,1543.73h-30.54v-3.9h13.2v-8.82h4.2v8.82h13.14v3.9ZM277.66,1571.45c-2.32,0-4.42-.52-6.3-1.56-1.88-1.04-3.37-2.43-4.47-4.17-1.1-1.74-1.65-3.69-1.65-5.85s.55-4.17,1.65-5.91c1.1-1.74,2.59-3.13,4.47-4.17,1.88-1.04,3.98-1.56,6.3-1.56s4.35.52,6.21,1.56c1.86,1.04,3.33,2.43,4.41,4.17,1.08,1.74,1.62,3.71,1.62,5.91s-.54,4.11-1.62,5.85-2.55,3.13-4.41,4.17c-1.86,1.04-3.93,1.56-6.21,1.56ZM269.44,1559.99c0,1.4.36,2.68,1.08,3.84.72,1.16,1.71,2.07,2.97,2.73s2.65.99,4.17.99,2.88-.33,4.08-.99,2.16-1.56,2.88-2.7c.72-1.14,1.08-2.39,1.08-3.75,0-1.48-.36-2.82-1.08-4.02-.72-1.2-1.68-2.16-2.88-2.88-1.2-.72-2.56-1.08-4.08-1.08s-2.91.35-4.17,1.05c-1.26.7-2.25,1.64-2.97,2.82-.72,1.18-1.08,2.51-1.08,3.99ZM297.64,1533.95h-3.9v-3.9h8.1v21.66h10.8v3.9h-10.8v27.72h-4.2v-49.38Z"/><path class="cls-18" d="M359.86,1576.79h-46.5v-3.9h18.54v-19.02h4.2v19.02h13.26v-33.9h-29.88v-3.9h34.08v37.8h6.3v3.9Z"/><path class="cls-18" d="M398.8,1558.49l-2.76-2.76,13.44-13.62v-10.68h4.2v10.74l13.14,12.12-2.76,2.76-12.48-11.46-12.78,12.9ZM438.46,1582.25h-34.86v-3.9h6.48v-11.34h-6.48v-3.9h34.86v3.9h-6.66v11.34h6.66v3.9ZM414.28,1567.01v11.34h13.32v-11.34h-13.32ZM438.64,1559.63h-4.2v-26.28h-3.9v-3.6h8.1v29.88Z"/><path class="cls-18" d="M493.36,1562.39h-47.46v-3.9h47.46v3.9ZM452.2,1583.15v-15.36h4.2v11.46h31.62v3.9h-35.82ZM452.68,1543.37c0-2,.73-3.78,2.19-5.34,1.46-1.56,3.49-2.78,6.09-3.66,2.6-.88,5.56-1.32,8.88-1.32s6.33.44,8.91,1.32,4.61,2.1,6.09,3.66c1.48,1.56,2.22,3.34,2.22,5.34s-.74,3.78-2.22,5.34c-1.48,1.56-3.51,2.78-6.09,3.66s-5.55,1.32-8.91,1.32-6.28-.44-8.88-1.32c-2.6-.88-4.63-2.1-6.09-3.66-1.46-1.56-2.19-3.34-2.19-5.34ZM456.88,1543.43c0,1.24.56,2.34,1.68,3.3,1.12.96,2.65,1.71,4.59,2.25,1.94.54,4.17.81,6.69.81s4.81-.27,6.75-.81c1.94-.54,3.47-1.29,4.59-2.25,1.12-.96,1.68-2.06,1.68-3.3s-.56-2.4-1.68-3.36c-1.12-.96-2.65-1.72-4.59-2.28-1.94-.56-4.19-.84-6.75-.84s-4.75.28-6.69.84c-1.94.56-3.47,1.32-4.59,2.28-1.12.96-1.68,2.08-1.68,3.36Z"/><path class="cls-18" d="M520.48,1571.33h-22.14v-33.9h19.92v3.9h-15.72v26.1h17.94v3.9ZM526.36,1555.07h-12.18v-3.9h12.18v-16.32h-3.3v-3.9h7.5v52.26h-4.2v-28.14ZM541.3,1583.21h-4.2v-52.26h4.2v52.26Z"/><path class="cls-18" d="M546.64,1576.43v-6.66h6.66v6.66h-6.66Z"/><rect class="cls-3" x="472.01" y="1462.08" width="371.96" height="254.58"/><rect class="cls-12" x="455.26" y="1451.22" width="371.96" height="254.58"/><path class="cls-18" d="M495.23,1503.94h-26.34v-30.9h19.62v3.9h-15.42v23.1h22.14v-30.12h-3.9v-3.9h8.1v20.34h7.74v-20.34h4.2v52.14h-4.2v-27.9h-7.74v27.9h-4.2v-14.22Z"/><path class="cls-18" d="M565.97,1512.28h-48.9v-3.9h14.82l-.06-13.38h-9.12v-3.9h9.06l-.06-18.12h-8.7v-3.9h36.6v3.9h-8.94l.06,18.12h9.18v3.9h-9.12l.06,13.38h15.12v3.9ZM546.65,1472.98h-10.92l.06,18.12h10.92l-.06-18.12ZM546.77,1495h-10.92l.06,13.38h10.92l-.06-13.38Z"/><path class="cls-18" d="M610.55,1495.6h-4.2v-4.44h-34.98v-23.28h4.2v19.38h30.78v-18.24h-3.9v-3.6h8.1v30.18ZM577.55,1516.06h-.06v-17.1h32.94v18.96h-32.88v-1.86ZM581.57,1502.74v11.4h24.78v-11.4h-24.78Z"/><path class="cls-18" d="M510.23,1584.74h-4.2v-29.16h-12.54c-.24,4.84-1.45,8.55-3.63,11.13-2.18,2.58-5.19,3.87-9.03,3.87-4.12,0-7.29-1.45-9.51-4.35-2.22-2.9-3.33-7.05-3.33-12.45s1.11-9.68,3.33-12.6c2.22-2.92,5.39-4.38,9.51-4.38,3.8.16,6.79,1.52,8.97,4.08,2.18,2.56,3.41,6.16,3.69,10.8h12.54v-16.56h-3.9v-3.9h8.1v53.52ZM472.19,1553.78c0,4.12.75,7.3,2.25,9.54s3.63,3.36,6.39,3.36,4.82-1.12,6.3-3.36c1.48-2.24,2.22-5.42,2.22-9.54s-.74-7.43-2.22-9.69c-1.48-2.26-3.58-3.39-6.3-3.39s-4.89,1.13-6.39,3.39c-1.5,2.26-2.25,5.49-2.25,9.69Z"/><path class="cls-18" d="M528.47,1541.96h-10.26v-3.9h24.3v3.9h-9.84v12.3l10.98,13.98-3,2.46-10.14-13.08-11.4,13.92-2.94-2.58,12.3-14.88v-12.12ZM547.49,1553.71h-9.24v-3.9h9.24v-15.18h-4.08v-3.9h8.28v53.04h-4.2v-30.06ZM562.19,1583.78h-4.2v-53.04h4.2v53.04Z"/><path class="cls-18" d="M615.53,1561.63h-47.88v-3.9h47.88v3.9ZM610.61,1582.75h-36.9v-15.54h4.2v11.64h32.7v3.9ZM608.99,1550.59h-33.84v-18.36h4.2v14.46h29.64v3.9Z"/><path class="cls-18" d="M697.73,1577.36h-46.5v-3.9h36v-33.9h-29.88v-3.9h34.08v37.8h6.3v3.9Z"/><path class="cls-18" d="M743.15,1584.44h-4.2v-31.98h-14.82c-1.88,3.96-4.52,7.41-7.92,10.35-3.4,2.94-7.32,5.49-11.76,7.65l-1.8-3.78c5.8-2.76,10.5-6.24,14.1-10.44,3.6-4.2,5.64-9.28,6.12-15.24h-18.9v-3.9h23.16c.12,4.16-.36,7.98-1.44,11.46h13.26v-12.48h-3.9v-3.9h8.1v52.26Z"/><path class="cls-18" d="M467.99,1618.91c0-5.48,1.11-9.68,3.33-12.6,2.22-2.92,5.39-4.38,9.51-4.38,4.08.16,7.22,1.71,9.42,4.65,2.2,2.94,3.3,7.05,3.3,12.33s-1.1,9.55-3.3,12.45c-2.2,2.9-5.34,4.35-9.42,4.35s-7.29-1.45-9.51-4.35c-2.22-2.9-3.33-7.05-3.33-12.45ZM472.19,1618.91c0,4.12.75,7.3,2.25,9.54,1.5,2.24,3.63,3.36,6.39,3.36s4.82-1.12,6.3-3.36c1.48-2.24,2.22-5.42,2.22-9.54s-.74-7.43-2.22-9.69c-1.48-2.26-3.58-3.39-6.3-3.39s-4.89,1.13-6.39,3.39-2.25,5.49-2.25,9.69ZM507.23,1650.35h-4.2v-49.62h-3.9v-3.9h8.1v21.48h9.66v3.9h-9.66v28.14Z"/><path class="cls-18" d="M555.59,1634.27h-34.74l.12-33.66h4.2l-.12,29.76h30.54v-30.54h-3.3v-3.6h7.5v53.28h-4.2v-15.24Z"/><path class="cls-18" d="M571.79,1650.29l-2.88-2.52,11.16-10.14v-7.92h4.08v7.98l8.4,7.14,8.52-7.32v-7.8h4.2v8.16l11.04,10.02-2.88,2.52-10.5-9.54-10.38,8.94h-.06l-10.38-8.94-10.32,9.42ZM582.83,1625.09c-2.52,0-4.74-.53-6.66-1.59-1.92-1.06-3.42-2.54-4.5-4.44-1.08-1.9-1.62-4.07-1.62-6.51s.54-4.51,1.62-6.33,2.58-3.24,4.5-4.26c1.92-1.02,4.14-1.53,6.66-1.53,3.2,0,5.89.84,8.07,2.52,2.18,1.68,3.57,3.92,4.17,6.72h11.16v-9h-3.9v-3.9h8.1v30.54h-4.2v-13.74h-10.92c-.12,2.28-.73,4.28-1.83,6-1.1,1.72-2.56,3.07-4.38,4.05-1.82.98-3.91,1.47-6.27,1.47ZM574.25,1612.61c0,2.52.79,4.58,2.37,6.18,1.58,1.6,3.61,2.4,6.09,2.4s4.51-.8,6.09-2.4c1.58-1.6,2.37-3.68,2.37-6.24,0-2.4-.77-4.37-2.31-5.91-1.54-1.54-3.55-2.31-6.03-2.31s-4.58.77-6.18,2.31c-1.6,1.54-2.4,3.53-2.4,5.97Z"/><path class="cls-18" d="M620.27,1626.95l-2.7-2.82,14.04-12.42v-7.14h-11.58v-3.9h27v3.9h-11.22v8.16l12.42,8.64-2.4,3.06-12.66-8.76h-.12l-12.78,11.28ZM645.59,1648.61h-21.42v-19.92h4.2v16.02h14.64c-.04-.2-.07-.41-.09-.63-.02-.22-.03-.43-.03-.63,0-1.44.44-2.73,1.32-3.87.88-1.14,2.08-2.05,3.6-2.73,1.52-.68,3.2-1.02,5.04-1.02,1.88-.04,3.57.28,5.07.96,1.5.68,2.69,1.6,3.57,2.76.88,1.16,1.32,2.46,1.32,3.9s-.44,2.67-1.32,3.81c-.88,1.14-2.07,2.04-3.57,2.7-1.5.66-3.19.99-5.07.99-1.44,0-2.78-.21-4.02-.63-1.24-.42-2.32-.99-3.24-1.71ZM663.41,1633.85h-25.62v-3.6h12v-5.4h3.84v5.4h9.78v3.6ZM646.49,1643.45c0,1.16.62,2.15,1.86,2.97,1.24.82,2.74,1.23,4.5,1.23s3.26-.41,4.5-1.23c1.24-.82,1.86-1.81,1.86-2.97s-.62-2.22-1.86-3.06c-1.24-.84-2.74-1.26-4.5-1.26s-3.26.42-4.5,1.26c-1.24.84-1.86,1.86-1.86,3.06ZM654.59,1600.13h-3.9v-3.9h8.1v16.68h10.08v3.9h-10.08v7.2h-4.2v-23.88Z"/><path class="cls-18" d="M669.59,1618.91c0-5.48,1.11-9.68,3.33-12.6,2.22-2.92,5.39-4.38,9.51-4.38,4.08.16,7.22,1.71,9.42,4.65,2.2,2.94,3.3,7.05,3.3,12.33s-1.1,9.55-3.3,12.45c-2.2,2.9-5.34,4.35-9.42,4.35s-7.29-1.45-9.51-4.35c-2.22-2.9-3.33-7.05-3.33-12.45ZM673.79,1618.91c0,4.12.75,7.3,2.25,9.54,1.5,2.24,3.63,3.36,6.39,3.36s4.82-1.12,6.3-3.36c1.48-2.24,2.22-5.42,2.22-9.54s-.74-7.43-2.22-9.69c-1.48-2.26-3.58-3.39-6.3-3.39s-4.89,1.13-6.39,3.39-2.25,5.49-2.25,9.69ZM708.83,1650.35h-4.2v-49.62h-3.9v-3.9h8.1v21.48h9.66v3.9h-9.66v28.14Z"/><path class="cls-18" d="M767.09,1643.51h-48.66v-3.9h12.78v-16.44c-1.72-1.16-3.08-2.56-4.08-4.2-1-1.64-1.5-3.46-1.5-5.46,0-2.48.73-4.68,2.19-6.6,1.46-1.92,3.49-3.43,6.09-4.53,2.6-1.1,5.56-1.65,8.88-1.65s6.33.55,8.91,1.65c2.58,1.1,4.6,2.61,6.06,4.53,1.46,1.92,2.19,4.12,2.19,6.6,0,1.96-.48,3.76-1.44,5.4-.96,1.64-2.3,3.04-4.02,4.2v16.5h12.6v3.9ZM729.83,1613.51c0,1.72.56,3.24,1.68,4.56,1.12,1.32,2.65,2.36,4.59,3.12,1.94.76,4.17,1.14,6.69,1.14s4.76-.38,6.72-1.14c1.96-.76,3.49-1.8,4.59-3.12,1.1-1.32,1.65-2.84,1.65-4.56s-.55-3.25-1.65-4.59c-1.1-1.34-2.63-2.39-4.59-3.15-1.96-.76-4.2-1.14-6.72-1.14s-4.75.38-6.69,1.14c-1.94.76-3.47,1.81-4.59,3.15-1.12,1.34-1.68,2.87-1.68,4.59ZM735.41,1625.15v14.46h14.88v-14.52c-1.12.36-2.3.64-3.54.84-1.24.2-2.56.3-3.96.3-2.68,0-5.14-.36-7.38-1.08Z"/><path class="cls-18" d="M769.31,1642.61v-6.66h6.66v6.66h-6.66Z"/><rect class="cls-17" x="67.35" y="58.62" width="803.2" height="85.58"/><path class="cls-18" d="M89.84,118.94l-3.06-2.4,13.92-17.58v-17.04h4.2v17.04l13.98,17.58-3.12,2.4-12.96-16.32-12.96,16.32ZM127.94,130.16h-4.2v-49.68h-3.9v-3.6h8.1v20.4h8.88v3.9h-8.88v28.98Z"/><path class="cls-18" d="M181.7,110.18h-4.2v-3.9h-34.98v-15.96h19.68v-5.76h-20.1v-3.6h24.3v13.26h-19.68v8.34h30.78v-22.14h-3.9v-3.6h8.1v14.94h7.56v3.9h-7.56v14.52ZM181.88,130.34h-34.14v-17.7h34.14v17.7ZM151.64,116.24v10.5h26.34v-10.5h-26.34Z"/><path class="cls-18" d="M227.48,130.04h-4.2v-28.92h-7.14c-.4,9.36-4.22,14.04-11.46,14.04-7.76,0-11.64-5.3-11.64-15.9s3.88-16.08,11.64-16.08c7.16.24,10.98,4.92,11.46,14.04h7.14v-16.74h-3.9v-3.9h8.1v53.46ZM197.24,99.26c0,8,2.48,12,7.44,12s7.32-4,7.32-12-2.44-12.18-7.32-12.18-7.44,4.06-7.44,12.18ZM237.98,130.04h-4.2v-53.46h4.2v53.46Z"/><path class="cls-18" d="M264.38,87.62h-16.5v-3.9h20.7c.24,5.44-.54,10.48-2.34,15.12h9.12v-18.36h-3.9v-3.9h8.1v53.46h-4.2v-27.3h-10.92l-.54.96c-1.08,1.84-2.49,3.75-4.23,5.73-1.74,1.98-3.6,3.81-5.58,5.49s-3.91,3.04-5.79,4.08l-2.28-3.48c1.76-1.04,3.56-2.33,5.4-3.87,1.84-1.54,3.54-3.18,5.1-4.92,1.56-1.74,2.8-3.41,3.72-5.01,2.44-4.2,3.82-8.9,4.14-14.1ZM290.77,130.04h-4.2v-53.46h4.2v53.46Z"/><path class="cls-18" d="M381.91,105.56h-48.66v-3.9h48.66v3.9ZM375.73,129.56h-35.34v-11.64h30.6v-3.6h-30.6v-3.9h34.8v11.1h-30.6v4.14h31.14v3.9ZM374.11,97.46h-33.6v-17.76h33.6v3.72h-29.58v10.32h29.58v3.72Z"/><path class="cls-18" d="M425.59,117.08h-36.06l.12-17.94v-2.22h19.8v-11.4h-19.8v-3.9h24v19.2h-19.8l-.12,12.36h31.86v-32.4h-3.9v-3.9h8.1v53.28h-4.2v-13.08Z"/><path class="cls-18" d="M457.57,87.62h-16.5v-3.9h20.7c.24,5.44-.54,10.48-2.34,15.12h9.12v-18.36h-3.9v-3.9h8.1v53.46h-4.2v-27.3h-10.92l-.54.96c-1.08,1.84-2.49,3.75-4.23,5.73-1.74,1.98-3.6,3.81-5.58,5.49s-3.91,3.04-5.79,4.08l-2.28-3.48c1.76-1.04,3.56-2.33,5.4-3.87,1.84-1.54,3.54-3.18,5.1-4.92,1.56-1.74,2.8-3.41,3.72-5.01,2.44-4.2,3.82-8.9,4.14-14.1ZM483.97,130.04h-4.2v-53.46h4.2v53.46Z"/><path class="cls-18" d="M553.09,102.32h-23.4v-22.02h23.4v22.02ZM533.89,84.2v14.22h15v-14.22h-15ZM570.25,129.62h-35.04v-13.86h28.32v-5.04h-28.32v-3.72h32.52v12.66h-28.32v6.06h30.84v3.9ZM567.85,104.42h-4.2v-23.94h-3.9v-3.9h8.1v12.12h7.38v3.9h-7.38v11.82Z"/><path class="cls-18" d="M610.27,90.56h-30.54v-3.9h13.2v-8.82h4.2v8.82h13.14v3.9ZM595.03,118.28c-2.32,0-4.42-.52-6.3-1.56-1.88-1.04-3.37-2.43-4.47-4.17-1.1-1.74-1.65-3.69-1.65-5.85s.55-4.17,1.65-5.91c1.1-1.74,2.59-3.13,4.47-4.17,1.88-1.04,3.98-1.56,6.3-1.56s4.35.52,6.21,1.56c1.86,1.04,3.33,2.43,4.41,4.17,1.08,1.74,1.62,3.71,1.62,5.91s-.54,4.11-1.62,5.85-2.55,3.13-4.41,4.17c-1.86,1.04-3.93,1.56-6.21,1.56ZM586.81,106.82c0,1.4.36,2.68,1.08,3.84.72,1.16,1.71,2.07,2.97,2.73s2.65.99,4.17.99,2.88-.33,4.08-.99,2.16-1.56,2.88-2.7c.72-1.14,1.08-2.39,1.08-3.75,0-1.48-.36-2.82-1.08-4.02-.72-1.2-1.68-2.16-2.88-2.88-1.2-.72-2.56-1.08-4.08-1.08s-2.91.35-4.17,1.05c-1.26.7-2.25,1.64-2.97,2.82-.72,1.18-1.08,2.51-1.08,3.99ZM615.01,80.78h-3.9v-3.9h8.1v21.66h10.8v3.9h-10.8v27.72h-4.2v-49.38Z"/><path class="cls-18" d="M680.23,107.9h-47.88v-3.9h47.88v3.9ZM675.31,129.02h-36.9v-15.54h4.2v11.64h32.7v3.9ZM673.69,96.86h-33.84v-18.36h4.2v14.46h29.64v3.9Z"/><path class="cls-18" d="M742.15,97.4c-2.32,3.36-5.18,6.13-8.58,8.31-3.4,2.18-6.98,3.77-10.74,4.77l-1.32-4.02c3.48-.92,6.73-2.39,9.75-4.41,3.02-2.02,5.54-4.46,7.56-7.32,2.02-2.86,3.25-6.03,3.69-9.51h-20.58v-3.9h25.26c-.04,2.28-.31,4.44-.81,6.48-.5,2.04-1.17,3.94-2.01,5.7h14.82v-12.66h-3.9v-3.9h8.1v39.66h-4.2v-19.2h-17.04ZM765.31,129.44h-35.28v-16.86h4.2v12.96h31.08v3.9Z"/><rect class="cls-15" x="67.35" y="143.38" width="500.72" height="85.58"/><rect class="cls-13" x="67.35" y="226.93" width="577.72" height="85.58"/><path class="cls-18" d="M139.03,214.54h-4.2v-21.6h-13.98c-1.12,1.92-2.63,3.41-4.53,4.47-1.9,1.06-4.09,1.59-6.57,1.59-2.76,0-5.15-.64-7.17-1.92-2.02-1.28-3.58-3.09-4.68-5.43-1.1-2.34-1.65-5.11-1.65-8.31,0-4.88,1.22-8.73,3.66-11.55,2.44-2.82,5.72-4.23,9.84-4.23,2.76.16,5.15.91,7.17,2.25,2.02,1.34,3.55,3.17,4.59,5.49h13.32v-10.38h-3.9v-3.9h8.1v53.52ZM100.45,183.34c0,3.6.84,6.46,2.52,8.58,1.68,2.12,3.94,3.18,6.78,3.18s5.08-1.06,6.72-3.18c1.64-2.12,2.46-4.98,2.46-8.58s-.82-6.58-2.46-8.7c-1.64-2.12-3.88-3.18-6.72-3.18s-5.1,1.06-6.78,3.18c-1.68,2.12-2.52,5.02-2.52,8.7ZM123.13,183.34c0,2.04-.24,3.94-.72,5.7h12.42v-9.84h-12.06c.24,1.32.36,2.7.36,4.14Z"/><path class="cls-18" d="M191.83,213.7h-4.2v-34.56h-13.98v4.62h-17.76v12.36h23.58v3.9h-27.78v-20.16h17.76v-10.02h-17.76v-3.9h21.96v9.3h13.98v-10.32h-3.9v-3.9h8.1v52.68Z"/><path class="cls-18" d="M223.15,193.48h-22.32v-3.9h48.84v3.9h-22.32v10.26h-4.2v-10.26ZM244.03,213.58h-36.48v-14.58h4.2v10.68h32.28v3.9ZM242.23,184.18h-34.08v-21h4.2v6.54h25.68v-6.54h4.2v21ZM212.35,173.62v6.66h25.68v-6.66h-25.68Z"/><path class="cls-18" d="M300.13,174.64v-10.32h4.2v10.8l11.22,12.36-2.94,2.58-10.56-11.58-10.62,11.58-2.94-2.58,11.64-12.84ZM299.83,203.38c0-3.16,1.49-5.59,4.47-7.29,2.98-1.7,7.25-2.55,12.81-2.55s9.83.85,12.81,2.55c2.98,1.7,4.47,4.13,4.47,7.29s-1.49,5.59-4.47,7.29c-2.98,1.7-7.25,2.55-12.81,2.55s-9.83-.85-12.81-2.55c-2.98-1.7-4.47-4.13-4.47-7.29ZM303.91,203.38c0,1.96,1.14,3.46,3.42,4.5,2.28,1.04,5.54,1.56,9.78,1.56s7.5-.52,9.78-1.56c2.28-1.04,3.42-2.54,3.42-4.5s-1.14-3.46-3.42-4.5c-2.28-1.04-5.54-1.56-9.78-1.56s-7.5.52-9.78,1.56c-2.28,1.04-3.42,2.54-3.42,4.5ZM318.07,164.98h-3.9v-3.9h8.1v12.96h6.84v-12.96h4.2v30.96h-4.2v-14.1h-6.84v14.1h-4.2v-27.06Z"/><path class="cls-18" d="M343.15,187.54c2.48-.56,4.89-1.42,7.23-2.58s4.33-2.5,5.97-4.02c2-1.88,3.65-3.88,4.95-6,1.3-2.12,2.11-4.24,2.43-6.36h-18.84v-4.08h23.22v1.08c0,2.32-.42,4.58-1.26,6.78-.84,2.2-1.94,4.26-3.3,6.18-1.36,1.92-2.84,3.64-4.44,5.16-1.88,1.76-4.09,3.29-6.63,4.59-2.54,1.3-5.19,2.25-7.95,2.85l-1.38-3.6ZM382.93,213.7h-4.2v-15.06h-29.34v-3.9h33.54v18.96ZM378.13,164.86h-3.9v-3.9h8.1v13.68h8.04v3.9h-8.04v13.62h-4.2v-27.3Z"/><path class="cls-18" d="M441.55,207.76h-47.46v-3.9h22.2v-12.66h-14.94v-25.74h4.2v9.96h25.68v-9.96h4.2v25.74h-14.94v12.66h21.06v3.9ZM405.55,179.32v7.98h25.68v-7.98h-25.68Z"/><path class="cls-18" d="M483.55,199.12h-33.78l.12-29.46v-2.22h24.18v3.9h-19.98l-.12,23.88h29.58v-31.2h-3.9v-3.9h8.1v21.3h9.24v3.9h-9.24v28.02h-4.2v-14.22Z"/><path class="cls-18" d="M103.45,295.18v-11.88h30.84v-4.5h-30.9v-3.9h6.6v-4.56h-13.86v-3.9h33.24v3.9h-15.18v4.56h24.3v12.3h-30.84v4.08h33.48v3.9h-37.68ZM126.19,248.56h-29.7v-3.9h13.5v-4.26h4.2v4.26h12v3.9ZM100.09,257.14c0-2.36,1.04-4.18,3.12-5.46,2.08-1.28,5.04-1.92,8.88-1.92,3.32.16,5.97.73,7.95,1.71s3.21,2.31,3.69,3.99h10.74v-9.66h-3.9v-3.9h8.1l-.06,30.9h-4.2v-13.44h-10.8c-.6,1.6-1.88,2.83-3.84,3.69-1.96.86-4.52,1.29-7.68,1.29-3.84,0-6.8-.62-8.88-1.86-2.08-1.24-3.12-3.02-3.12-5.34ZM103.99,257.14c0,1.12.7,2,2.1,2.64,1.4.64,3.4.96,6,.96s4.53-.32,5.91-.96c1.38-.64,2.07-1.52,2.07-2.64,0-1.2-.69-2.13-2.07-2.79-1.38-.66-3.35-.99-5.91-.99s-4.6.33-6,.99c-1.4.66-2.1,1.59-2.1,2.79Z"/><path class="cls-18" d="M155.77,260.08v-15.9h4.2v15.78l5.94,5.94,4.86-6.42v-15.3h4.2v15.3l8.82,9.78-2.58,2.7-8.28-8.94-7.02,9.12-7.92-8.76-7.92,8.58-2.58-2.7,8.28-9.18ZM193.45,293.74h-35.94v-17.28h4.2v13.38h31.74v3.9ZM188.53,245.26h-3.9v-3.9h8.1v39.72h-4.2v-35.82Z"/><path class="cls-18" d="M274.93,281.14h-35.88l.12-30.84v-2.52h23.64v3.9h-19.44l-.12,25.56h31.68v-12.6h-15.18v-3.9h15.18v-15.54h-3.3v-3.84h7.5v53.28h-4.2v-13.5Z"/><path class="cls-18" d="M367.03,295.48h-4.2v-29.16h-12.54c-.24,4.84-1.45,8.55-3.63,11.13-2.18,2.58-5.19,3.87-9.03,3.87-4.12,0-7.29-1.45-9.51-4.35-2.22-2.9-3.33-7.05-3.33-12.45s1.11-9.68,3.33-12.6c2.22-2.92,5.39-4.38,9.51-4.38,3.8.16,6.79,1.52,8.97,4.08,2.18,2.56,3.41,6.16,3.69,10.8h12.54v-16.56h-3.9v-3.9h8.1v53.52ZM328.99,264.52c0,4.12.75,7.3,2.25,9.54s3.63,3.36,6.39,3.36,4.82-1.12,6.3-3.36c1.48-2.24,2.22-5.42,2.22-9.54s-.74-7.43-2.22-9.69c-1.48-2.26-3.58-3.39-6.3-3.39s-4.89,1.13-6.39,3.39c-1.5,2.26-2.25,5.49-2.25,9.69Z"/><path class="cls-18" d="M419.23,270.94h-4.2v-6.9h-15.48v-3.9h15.48v-7.08h-14.1v4.92h-17.88v8.88h22.32v3.9h-26.52v-16.68h18v-6.42h-18.24v-3.9h22.32v5.4h14.1v-3.84h-3.9v-3.9h8.1v29.52ZM419.29,293.98h-33.78v-19.98h4.2v6.3h25.38v-6.3h4.2v19.98ZM389.71,284.2v5.88h25.38v-5.88h-25.38Z"/><path class="cls-18" d="M477.01,270.28h-47.46v-3.9h47.46v3.9ZM434.53,262l-1.86-3.42,18.54-10.02v-7.14h4.2v7.14l18.18,9.84-1.86,3.42-18.42-9.96-18.78,10.14ZM471.55,294.52h-36.48v-20.04h4.2v6.3h28.08v-6.3h4.2v20.04ZM439.27,284.68v5.94h28.08v-5.94h-28.08Z"/><path class="cls-18" d="M520.39,279.4h-34.74l.12-33.66h4.2l-.12,29.76h30.54v-30.54h-3.3v-3.6h7.5v53.28h-4.2v-15.24Z"/><path class="cls-18" d="M571.15,280.06h-33.78l.12-29.46v-2.22h24.18v3.9h-19.98l-.12,23.88h29.58v-31.2h-3.9v-3.9h8.1v21.3h9.24v3.9h-9.24v28.02h-4.2v-14.22Z"/><path class="cls-18" d="M587.71,287.74v-6.66h6.66v6.66h-6.66Z"/></svg>