<?xml version="1.0" encoding="UTF-8"?><svg id="_레이어_1" xmlns="http://www.w3.org/2000/svg" viewBox="0 0 1080 1920"><defs><style>.cls-1{fill:#fff;}.cls-2{fill:none;stroke:#f2f6f7;stroke-miterlimit:10;stroke-width:3.27px;}.cls-3{fill:#0000fe;}</style></defs><rect class="cls-3" x="-420" y="420" width="1920" height="1080" transform="translate(1500 420) rotate(90)"/><line class="cls-2" x1="74.34" y1="83.38" x2="123.14" y2="83.38"/><line class="cls-2" x1="103.04" y1="103.54" x2="123.52" y2="83.07"/><line class="cls-2" x1="103.04" y1="63.21" x2="123.52" y2="83.69"/><line class="cls-2" x1="133.15" y1="83.38" x2="181.95" y2="83.38"/><line class="cls-2" x1="161.85" y1="103.54" x2="182.33" y2="83.07"/><line class="cls-2" x1="161.85" y1="63.21" x2="182.33" y2="83.69"/><line class="cls-2" x1="191.96" y1="83.38" x2="240.76" y2="83.38"/><line class="cls-2" x1="220.66" y1="103.54" x2="241.14" y2="83.07"/><line class="cls-2" x1="220.66" y1="63.21" x2="241.14" y2="83.69"/><line class="cls-2" x1="250.77" y1="83.38" x2="299.56" y2="83.38"/><line class="cls-2" x1="279.47" y1="103.54" x2="299.95" y2="83.07"/><line class="cls-2" x1="279.47" y1="63.21" x2="299.95" y2="83.69"/><line class="cls-2" x1="309.58" y1="83.38" x2="358.37" y2="83.38"/><line class="cls-2" x1="338.28" y1="103.54" x2="358.76" y2="83.07"/><line class="cls-2" x1="338.28" y1="63.21" x2="358.76" y2="83.69"/><line class="cls-2" x1="368.39" y1="83.38" x2="417.18" y2="83.38"/><line class="cls-2" x1="397.09" y1="103.54" x2="417.57" y2="83.07"/><line class="cls-2" x1="397.09" y1="63.21" x2="417.57" y2="83.69"/><line class="cls-2" x1="427.2" y1="83.38" x2="475.99" y2="83.38"/><line class="cls-2" x1="455.9" y1="103.54" x2="476.37" y2="83.07"/><line class="cls-2" x1="455.9" y1="63.21" x2="476.37" y2="83.69"/><line class="cls-2" x1="486.01" y1="83.38" x2="534.8" y2="83.38"/><line class="cls-2" x1="514.71" y1="103.54" x2="535.18" y2="83.07"/><line class="cls-2" x1="514.71" y1="63.21" x2="535.18" y2="83.69"/><line class="cls-2" x1="544.82" y1="83.38" x2="593.61" y2="83.38"/><line class="cls-2" x1="573.52" y1="103.54" x2="593.99" y2="83.07"/><line class="cls-2" x1="573.52" y1="63.21" x2="593.99" y2="83.69"/><line class="cls-2" x1="603.63" y1="83.38" x2="652.42" y2="83.38"/><line class="cls-2" x1="632.33" y1="103.54" x2="652.8" y2="83.07"/><line class="cls-2" x1="632.33" y1="63.21" x2="652.8" y2="83.69"/><line class="cls-2" x1="662.43" y1="83.38" x2="711.23" y2="83.38"/><line class="cls-2" x1="691.14" y1="103.54" x2="711.61" y2="83.07"/><line class="cls-2" x1="691.14" y1="63.21" x2="711.61" y2="83.69"/><line class="cls-2" x1="721.24" y1="83.38" x2="770.04" y2="83.38"/><line class="cls-2" x1="749.95" y1="103.54" x2="770.42" y2="83.07"/><line class="cls-2" x1="749.95" y1="63.21" x2="770.42" y2="83.69"/><line class="cls-2" x1="780.05" y1="83.38" x2="828.85" y2="83.38"/><line class="cls-2" x1="808.76" y1="103.54" x2="829.23" y2="83.07"/><line class="cls-2" x1="808.76" y1="63.21" x2="829.23" y2="83.69"/><line class="cls-2" x1="838.86" y1="83.38" x2="887.66" y2="83.38"/><line class="cls-2" x1="867.56" y1="103.54" x2="888.04" y2="83.07"/><line class="cls-2" x1="867.56" y1="63.21" x2="888.04" y2="83.69"/><line class="cls-2" x1="897.67" y1="83.38" x2="946.47" y2="83.38"/><line class="cls-2" x1="926.37" y1="103.54" x2="946.85" y2="83.07"/><line class="cls-2" x1="926.37" y1="63.21" x2="946.85" y2="83.69"/><line class="cls-2" x1="956.48" y1="83.38" x2="1005.28" y2="83.38"/><line class="cls-2" x1="985.18" y1="103.54" x2="1005.66" y2="83.07"/><line class="cls-2" x1="985.18" y1="63.21" x2="1005.66" y2="83.69"/><line class="cls-2" x1="74.34" y1="1551.17" x2="123.14" y2="1551.17"/><line class="cls-2" x1="103.04" y1="1571.33" x2="123.52" y2="1550.86"/><line class="cls-2" x1="103.04" y1="1531" x2="123.52" y2="1551.47"/><line class="cls-2" x1="133.15" y1="1551.17" x2="181.95" y2="1551.17"/><line class="cls-2" x1="161.85" y1="1571.33" x2="182.33" y2="1550.86"/><line class="cls-2" x1="161.85" y1="1531" x2="182.33" y2="1551.47"/><line class="cls-2" x1="191.96" y1="1551.17" x2="240.76" y2="1551.17"/><line class="cls-2" x1="220.66" y1="1571.33" x2="241.14" y2="1550.86"/><line class="cls-2" x1="220.66" y1="1531" x2="241.14" y2="1551.47"/><line class="cls-2" x1="250.77" y1="1551.17" x2="299.56" y2="1551.17"/><line class="cls-2" x1="279.47" y1="1571.33" x2="299.95" y2="1550.86"/><line class="cls-2" x1="279.47" y1="1531" x2="299.95" y2="1551.47"/><line class="cls-2" x1="309.58" y1="1551.17" x2="358.37" y2="1551.17"/><line class="cls-2" x1="338.28" y1="1571.33" x2="358.76" y2="1550.86"/><line class="cls-2" x1="338.28" y1="1531" x2="358.76" y2="1551.47"/><line class="cls-2" x1="368.39" y1="1551.17" x2="417.18" y2="1551.17"/><line class="cls-2" x1="397.09" y1="1571.33" x2="417.57" y2="1550.86"/><line class="cls-2" x1="397.09" y1="1531" x2="417.57" y2="1551.47"/><line class="cls-2" x1="427.2" y1="1551.17" x2="475.99" y2="1551.17"/><line class="cls-2" x1="455.9" y1="1571.33" x2="476.37" y2="1550.86"/><line class="cls-2" x1="455.9" y1="1531" x2="476.37" y2="1551.47"/><line class="cls-2" x1="486.01" y1="1551.17" x2="534.8" y2="1551.17"/><line class="cls-2" x1="514.71" y1="1571.33" x2="535.18" y2="1550.86"/><line class="cls-2" x1="514.71" y1="1531" x2="535.18" y2="1551.47"/><line class="cls-2" x1="544.82" y1="1551.17" x2="593.61" y2="1551.17"/><line class="cls-2" x1="573.52" y1="1571.33" x2="593.99" y2="1550.86"/><line class="cls-2" x1="573.52" y1="1531" x2="593.99" y2="1551.47"/><line class="cls-2" x1="603.63" y1="1551.17" x2="652.42" y2="1551.17"/><line class="cls-2" x1="632.33" y1="1571.33" x2="652.8" y2="1550.86"/><line class="cls-2" x1="632.33" y1="1531" x2="652.8" y2="1551.47"/><line class="cls-2" x1="662.43" y1="1551.17" x2="711.23" y2="1551.17"/><line class="cls-2" x1="691.14" y1="1571.33" x2="711.61" y2="1550.86"/><line class="cls-2" x1="691.14" y1="1531" x2="711.61" y2="1551.47"/><line class="cls-2" x1="721.24" y1="1551.17" x2="770.04" y2="1551.17"/><line class="cls-2" x1="749.95" y1="1571.33" x2="770.42" y2="1550.86"/><line class="cls-2" x1="749.95" y1="1531" x2="770.42" y2="1551.47"/><line class="cls-2" x1="780.05" y1="1551.17" x2="828.85" y2="1551.17"/><line class="cls-2" x1="808.76" y1="1571.33" x2="829.23" y2="1550.86"/><line class="cls-2" x1="808.76" y1="1531" x2="829.23" y2="1551.47"/><line class="cls-2" x1="838.86" y1="1551.17" x2="887.66" y2="1551.17"/><line class="cls-2" x1="867.56" y1="1571.33" x2="888.04" y2="1550.86"/><line class="cls-2" x1="867.56" y1="1531" x2="888.04" y2="1551.47"/><line class="cls-2" x1="897.67" y1="1551.17" x2="946.47" y2="1551.17"/><line class="cls-2" x1="926.37" y1="1571.33" x2="946.85" y2="1550.86"/><line class="cls-2" x1="926.37" y1="1531" x2="946.85" y2="1551.47"/><line class="cls-2" x1="956.48" y1="1551.17" x2="1005.28" y2="1551.17"/><line class="cls-2" x1="985.18" y1="1571.33" x2="1005.66" y2="1550.86"/><line class="cls-2" x1="985.18" y1="1531" x2="1005.66" y2="1551.47"/><path class="cls-1" d="M71.56,245.71c0-10.72,3.88-16.08,11.64-16.08,7.68.24,11.52,5.6,11.52,16.08s-3.84,15.9-11.52,15.9-11.64-5.3-11.64-15.9ZM75.76,245.71c0,8,2.48,12,7.44,12s7.32-4,7.32-12-2.44-12.18-7.32-12.18-7.44,4.06-7.44,12.18ZM103.6,276.49h-4.2v-49.56h-3.9v-3.9h8.1v21h8.7v-21h4.2v53.46h-4.2v-28.56h-8.7v28.56Z"/><path class="cls-1" d="M170.55,270.79h-48.9v-3.9h48.9v3.9ZM164.25,254.71h-36.48v-3.9h7.56v-18.54h-7.56v-3.9h36.48v3.9h-7.56v18.54h7.56v3.9ZM139.54,232.27v18.54h12.96v-18.54h-12.96Z"/><path class="cls-1" d="M211.89,264.67h-36.84v-36.18h25.02v3.9h-20.82v11.82h18.36v3.9h-18.36v12.66h32.64v-12.66h-10.14v-3.9h10.14v-16.44h-3.9v-3.9h8.1v53.94h-4.2v-13.14Z"/><path class="cls-1" d="M270.63,270.67h-47.4v-3.9h21.6v-13.26h-15.06v-25.14h34.08v25.14h-14.82v13.26h21.6v3.9ZM233.97,232.27v17.34h25.68v-17.34h-25.68Z"/><path class="cls-1" d="M296.19,253.69h-20.46v-24.66h20.46v10.14h7.32v-11.28h-3.9v-3.9h8.1v38.7h-4.2v-19.62h-7.32v10.62ZM279.93,232.93v16.86h12.06v-16.86h-12.06ZM283.59,276.31v-17.16h4.2v13.26h31.8v3.9h-36ZM318.15,262.69h-4.2v-38.7h4.2v38.7Z"/><path class="cls-1" d="M372.21,270.91h-49.2v-3.9h49.2v3.9ZM364.65,255.31h-34.08v-26.94h34.08v3.9h-29.88v7.62h29.88v3.9h-29.88v7.62h29.88v3.9Z"/><path class="cls-1" d="M421.95,254.35h-47.88v-3.9h47.88v3.9ZM417.03,275.47h-36.9v-15.54h4.2v11.64h32.7v3.9ZM415.41,243.31h-33.84v-18.36h4.2v14.46h29.64v3.9Z"/><path class="cls-1" d="M120.1,343.9h-48.72v-3.9h22.2v-12.9h4.2v12.9h22.32v3.9ZM77.2,330.7l-2.1-3.3,18.48-12.72v-8.46h-16.2v-3.9h36.48v3.9h-16.08v8.46l18.48,12.72-2.1,3.3-18.48-12.72-18.48,12.72Z"/><path class="cls-1" d="M125.32,327.4l-2.76-2.82,13.74-12.84v-7.86h-11.82v-3.9h27.78v3.9h-11.76v7.8l14.1,11.7-2.64,2.82-13.5-11.1-13.14,12.3ZM161.13,335.5h-31.26v-3.9h35.46v18.9h-4.2v-15ZM161.13,300.52h-3.9v-3.9h8.1v31.92h-4.2v-28.02Z"/><path class="cls-1" d="M194.85,327.76h-22.74v-3.9h47.46v3.9h-20.52v10.92h-4.2v-10.92ZM215.08,349.42h-36.18v-16.02h4.2v12.12h31.98v3.9ZM213.81,317.68h-33.96v-19.02h33.96v19.02ZM184.05,302.56v11.22h25.56v-11.22h-25.56Z"/><path class="cls-1" d="M263.55,350.5h-4.2v-9.96h-36.66v-3.9h14.22v-5.64c-1.92-.32-3.64-.96-5.16-1.92s-2.72-2.17-3.6-3.63-1.32-3.05-1.32-4.77c0-1.96.55-3.73,1.65-5.31,1.1-1.58,2.59-2.84,4.47-3.78,1.88-.94,3.96-1.41,6.24-1.41s4.33.47,6.15,1.41c1.82.94,3.27,2.2,4.35,3.78s1.62,3.35,1.62,5.31c0,1.76-.45,3.38-1.35,4.86-.9,1.48-2.11,2.7-3.63,3.66-1.52.96-3.26,1.58-5.22,1.86v5.58h18.24v-36.3h-3.9v-3.9h8.1v24.12h8.82v3.9h-8.82v26.04ZM254.19,307.6h-31.08v-3.78h13.92v-7.44h4.08v7.44h13.08v3.78ZM231.03,320.74c0,1.2.36,2.3,1.08,3.3s1.7,1.79,2.94,2.37c1.24.58,2.62.87,4.14.87s2.82-.28,4.02-.84c1.2-.56,2.15-1.33,2.85-2.31.7-.98,1.05-2.07,1.05-3.27,0-1.28-.35-2.43-1.05-3.45-.7-1.02-1.65-1.83-2.85-2.43-1.2-.6-2.54-.9-4.02-.9s-2.9.3-4.14.9c-1.24.6-2.22,1.4-2.94,2.4-.72,1-1.08,2.12-1.08,3.36Z"/><path class="cls-1" d="M341.61,297.58h7.5v39.36h-4.2v-21.3h-15.3c-.6,1.12-1.26,2.19-1.98,3.21-.72,1.02-1.54,1.95-2.46,2.79-1.24,1.16-2.79,2.33-4.65,3.51-1.86,1.18-3.82,2.23-5.88,3.15-2.06.92-4.01,1.58-5.85,1.98l-1.98-3.6c1.68-.36,3.47-.96,5.37-1.8,1.9-.84,3.71-1.8,5.43-2.88s3.12-2.12,4.2-3.12c1.04-.96,1.96-2.04,2.76-3.24h-16.08v-3.9h18.12c.4-.96.71-1.93.93-2.91.22-.98.39-1.95.51-2.91h-18.9v-4.08h23.52v1.08c0,3.04-.48,5.98-1.44,8.82h13.68v-10.26h-3.3v-3.9ZM351.09,350.2h-34.8v-17.1h4.2v13.2h30.6v3.9Z"/><path class="cls-1" d="M359.55,324.52l-2.64-2.88,13.14-12.18v-10.44h4.2v10.44l13.14,12.18-2.64,2.88-12.6-11.7-12.6,11.7ZM366.15,350.44v-13.74h29.34v-4.92h-29.4v-3.9h33.6v12.72h-29.34v5.94h31.8v3.9h-36ZM395.19,311.02h-12.72v-3.9h12.72v-5.88h-3.9v-3.9h8.1v27.66h-4.2v-13.98Z"/><path class="cls-1" d="M449.13,329.5h-4.2v-2.76h-35.7v-25.38h25.26v3.9h-21.06v6.48h19.92v3.9h-19.92v7.2h31.5v-21.36h-3.9v-3.9h8.1v31.92ZM415.41,341.68c0-3.32,1.49-5.87,4.47-7.65s7.25-2.67,12.81-2.67,9.83.89,12.81,2.67c2.98,1.78,4.47,4.33,4.47,7.65s-1.49,5.82-4.47,7.62c-2.98,1.8-7.25,2.7-12.81,2.7s-9.83-.9-12.81-2.7-4.47-4.34-4.47-7.62ZM419.49,341.68c0,2.08,1.14,3.69,3.42,4.83s5.54,1.71,9.78,1.71,7.5-.57,9.78-1.71c2.28-1.14,3.42-2.75,3.42-4.83s-1.14-3.74-3.42-4.86c-2.28-1.12-5.54-1.68-9.78-1.68s-7.5.56-9.78,1.68c-2.28,1.12-3.42,2.74-3.42,4.86Z"/><path class="cls-1" d="M527.79,340.9h-37.5v-3.9h14.46v-5.58c-1.96-.28-3.72-.9-5.28-1.86-1.56-.96-2.79-2.17-3.69-3.63-.9-1.46-1.35-3.05-1.35-4.77,0-1.96.56-3.73,1.68-5.31,1.12-1.58,2.63-2.84,4.53-3.78,1.9-.94,4.01-1.41,6.33-1.41s4.41.47,6.27,1.41c1.86.94,3.34,2.2,4.44,3.78,1.1,1.58,1.65,3.35,1.65,5.31,0,1.76-.45,3.37-1.35,4.83-.9,1.46-2.13,2.67-3.69,3.63s-3.34,1.58-5.34,1.86v5.52h18.84v-36.3h-3.3v-3.9h7.5v53.7h-4.2v-9.6ZM522.57,307.9h-31.2v-3.9h13.38v-6.42h4.2v6.42h13.62v3.9ZM498.63,321.22c0,1.2.37,2.29,1.11,3.27.74.98,1.74,1.76,3,2.34s2.67.87,4.23.87,2.9-.28,4.14-.84c1.24-.56,2.22-1.33,2.94-2.31.72-.98,1.08-2.07,1.08-3.27,0-1.28-.36-2.42-1.08-3.42-.72-1-1.7-1.8-2.94-2.4-1.24-.6-2.62-.9-4.14-.9s-2.97.3-4.23.9c-1.26.6-2.26,1.4-3,2.4-.74,1-1.11,2.12-1.11,3.36Z"/><path class="cls-1" d="M541.95,338.74l-3.06-2.4,13.92-17.58v-17.04h4.2v17.04l13.98,17.58-3.12,2.4-12.96-16.32-12.96,16.32ZM580.05,349.96h-4.2v-49.68h-3.9v-3.6h8.1v20.4h8.88v3.9h-8.88v28.98Z"/><path class="cls-1" d="M592.59,312.16c0-2.32.57-4.42,1.71-6.3,1.14-1.88,2.68-3.38,4.62-4.5,1.94-1.12,4.11-1.68,6.51-1.68,2.4.08,4.56.7,6.48,1.86s3.44,2.66,4.56,4.5c1.12,1.84,1.68,3.88,1.68,6.12s-.56,4.35-1.68,6.21c-1.12,1.86-2.64,3.34-4.56,4.44-1.92,1.1-4.08,1.65-6.48,1.65s-4.57-.55-6.51-1.65c-1.94-1.1-3.48-2.58-4.62-4.44-1.14-1.86-1.71-3.93-1.71-6.21ZM596.79,312.16c0,1.56.38,2.98,1.14,4.26s1.8,2.29,3.12,3.03,2.78,1.11,4.38,1.11,3.04-.37,4.32-1.11c1.28-.74,2.3-1.75,3.06-3.03s1.14-2.7,1.14-4.26-.38-3.05-1.14-4.35c-.76-1.3-1.78-2.33-3.06-3.09-1.28-.76-2.72-1.14-4.32-1.14s-3.06.38-4.38,1.14c-1.32.76-2.36,1.79-3.12,3.09-.76,1.3-1.14,2.75-1.14,4.35ZM633.75,350.32h-33.96v-21.3h4.2v6.3h25.56v-6.3h4.2v21.3ZM603.99,339.22v7.2h25.56v-7.2h-25.56ZM629.49,299.74h-3.9v-3.6h8.1v29.94h-4.2v-26.34Z"/><path class="cls-1" d="M678.81,334.72h-34.74l.12-33.66h4.2l-.12,29.76h30.54v-30.54h-3.3v-3.6h7.5v53.28h-4.2v-15.24Z"/><path class="cls-1" d="M727.17,335.38h-33.78l.12-29.46v-2.22h24.18v3.9h-19.98l-.12,23.88h29.58v-31.2h-3.9v-3.9h8.1v21.3h9.24v3.9h-9.24v28.02h-4.2v-14.22Z"/><path class="cls-1" d="M741.33,343.06v-6.66h6.66v6.66h-6.66Z"/><path class="cls-1" d="M120.1,417.24h-48.72v-3.9h22.2v-12.9h4.2v12.9h22.32v3.9ZM77.2,404.04l-2.1-3.3,18.48-12.72v-8.46h-16.2v-3.9h36.48v3.9h-16.08v8.46l18.48,12.72-2.1,3.3-18.48-12.72-18.48,12.72Z"/><path class="cls-1" d="M125.32,400.74l-2.76-2.82,13.74-12.84v-7.86h-11.82v-3.9h27.78v3.9h-11.76v7.8l14.1,11.7-2.64,2.82-13.5-11.1-13.14,12.3ZM161.13,408.84h-31.26v-3.9h35.46v18.9h-4.2v-15ZM161.13,373.86h-3.9v-3.9h8.1v31.92h-4.2v-28.02Z"/><path class="cls-1" d="M211.24,411.42h-38.34v-3.9h38.28l-.06-33.54h-3.96v-3.9h8.28v53.76h-4.2v-12.42ZM176.92,387.3c0-2.2.59-4.2,1.77-6,1.18-1.8,2.76-3.25,4.74-4.35,1.98-1.1,4.13-1.65,6.45-1.65,2.32.08,4.45.69,6.39,1.83,1.94,1.14,3.5,2.6,4.68,4.38,1.18,1.78,1.77,3.71,1.77,5.79s-.59,4.08-1.77,5.88c-1.18,1.8-2.74,3.24-4.68,4.32s-4.07,1.62-6.39,1.62-4.47-.54-6.45-1.62c-1.98-1.08-3.56-2.52-4.74-4.32-1.18-1.8-1.77-3.76-1.77-5.88ZM181.12,387.3c0,1.4.4,2.7,1.2,3.9s1.87,2.16,3.21,2.88c1.34.72,2.79,1.08,4.35,1.08s3-.36,4.32-1.08c1.32-.72,2.37-1.68,3.15-2.88s1.17-2.5,1.17-3.9c0-1.48-.39-2.83-1.17-4.05-.78-1.22-1.83-2.2-3.15-2.94-1.32-.74-2.76-1.11-4.32-1.11s-3.01.37-4.35,1.11c-1.34.74-2.41,1.72-3.21,2.94-.8,1.22-1.2,2.57-1.2,4.05Z"/><path class="cls-1" d="M289.35,422.58h-4.2v-27.66h-7.86v13.38h-20.4v-32.22h20.4v14.94h7.86v-17.16h-3.9v-3.9h8.1v52.62ZM261.09,379.98v24.42h12v-24.42h-12ZM299.67,422.58h-4.2v-52.62h4.2v52.62Z"/><path class="cls-1" d="M309.39,411l-3.06-2.4,13.68-18.42v-15.3h4.2v15l14.34,18.66-3,2.46-13.32-17.28-12.84,17.28ZM349.41,423.3h-4.2v-49.38h-3.9v-3.9h8.1v53.28Z"/><path class="cls-1" d="M359.49,412.2l-3-2.64,13.86-15.78v-13.92h-12.12v-3.9h28.62v3.9h-12.3v13.92l13.86,15.78-3,2.64-12.96-14.7-12.96,14.7ZM399.45,423.3h-4.2v-49.38h-3.9v-3.9h8.1v53.28Z"/><path class="cls-1" d="M454.83,399.54h-48.06v-3.9h48.06v3.9ZM448.65,422.7h-35.34v-11.64h30.6v-3.6h-30.6v-3.9h34.8v11.1h-30.6v4.14h31.14v3.9ZM443.97,376.2h-30.6v-3.9h34.8v11.22h-30.6v4.44h31.14v3.9h-35.34v-11.94h30.6v-3.72Z"/><path class="cls-1" d="M75.16,470.37l-2.64-2.88,13.26-12.3v-9.66h4.2v9.9l13.02,12.06-2.64,2.88-12.6-11.7-12.6,11.7ZM81.58,496.35v-13.14h29.4v-4.62h-29.46v-3.9h33.66v12.42h-29.4v5.34h31.38v3.9h-35.58ZM110.98,446.97h-3.9v-3.9h8.1v28.5h-4.2v-24.6Z"/><path class="cls-1" d="M148.24,496.53h-4.2v-17.58h-21.54v-3.9h47.28v3.9h-21.54v17.58ZM163.05,468.15h-34.08v-20.94h34.08v20.94ZM133.17,451.11v13.14h25.68v-13.14h-25.68Z"/><path class="cls-1" d="M206.79,496.53h-4.2v-28.92h-7.14c-.4,9.36-4.22,14.04-11.46,14.04-7.76,0-11.64-5.3-11.64-15.9s3.88-16.08,11.64-16.08c7.16.24,10.98,4.92,11.46,14.04h7.14v-16.74h-3.9v-3.9h8.1v53.46ZM176.55,465.75c0,8,2.48,12,7.44,12s7.32-4,7.32-12-2.44-12.18-7.32-12.18-7.44,4.06-7.44,12.18ZM217.29,496.53h-4.2v-53.46h4.2v53.46Z"/><path class="cls-1" d="M277.11,471.57h-21.54v-3.9h47.46v3.9h-21.72v5.46h15.6v3.78h-31.02v4.26h30.42v3.78h-30.42v4.56h31.98v3.78h-36.06v-20.16h15.3v-5.46ZM296.25,463.11h-34.08v-16.98h4.2v4.38h25.68v-4.38h4.2v16.98ZM266.37,454.41v4.8h25.68v-4.8h-25.68Z"/><path class="cls-1" d="M308.19,458.85c0-2.32.57-4.42,1.71-6.3,1.14-1.88,2.68-3.38,4.62-4.5,1.94-1.12,4.11-1.68,6.51-1.68,2.4.08,4.56.7,6.48,1.86,1.92,1.16,3.44,2.66,4.56,4.5,1.12,1.84,1.68,3.88,1.68,6.12s-.56,4.35-1.68,6.21c-1.12,1.86-2.64,3.34-4.56,4.44-1.92,1.1-4.08,1.65-6.48,1.65s-4.57-.55-6.51-1.65c-1.94-1.1-3.48-2.58-4.62-4.44-1.14-1.86-1.71-3.93-1.71-6.21ZM312.39,458.85c0,1.56.38,2.98,1.14,4.26s1.8,2.29,3.12,3.03c1.32.74,2.78,1.11,4.38,1.11s3.04-.37,4.32-1.11c1.28-.74,2.3-1.75,3.06-3.03s1.14-2.7,1.14-4.26-.38-3.05-1.14-4.35-1.78-2.33-3.06-3.09c-1.28-.76-2.72-1.14-4.32-1.14s-3.06.38-4.38,1.14-2.36,1.79-3.12,3.09-1.14,2.75-1.14,4.35ZM349.35,497.01h-33.96v-21.3h4.2v6.3h25.56v-6.3h4.2v21.3ZM319.59,485.91v7.2h25.56v-7.2h-25.56ZM345.09,446.43h-3.9v-3.6h8.1v29.94h-4.2v-26.34Z"/><path class="cls-1" d="M394.41,481.41h-34.74l.12-33.66h4.2l-.12,29.76h30.54v-30.54h-3.3v-3.6h7.5v53.28h-4.2v-15.24Z"/><path class="cls-1" d="M442.77,482.07h-33.78l.12-29.46v-2.22h24.18v3.9h-19.98l-.12,23.88h29.58v-31.2h-3.9v-3.9h8.1v21.3h9.24v3.9h-9.24v28.02h-4.2v-14.22Z"/><path class="cls-1" d="M456.93,489.75v-6.66h6.66v6.66h-6.66Z"/><path class="cls-1" d="M108.58,523.55h-29.28v-3.9h33.48v17.64h6v3.9h-46.08v-3.9h35.88v-13.74ZM114.46,569.57h-36.24v-13.26h30.84v-5.58h-30.84v-3.9h35.04v13.38h-30.84v5.46h32.04v3.9Z"/><path class="cls-1" d="M170.08,544.43h-48.24v-3.9h48.24v3.9ZM159.88,552.89h-31.74v-3.9h35.94v12.54h-31.74v5.04h33.36v3.9h-37.56v-12.84h31.74v-4.74ZM128.97,527.33c0-1.84.72-3.47,2.16-4.89,1.44-1.42,3.45-2.53,6.03-3.33,2.58-.8,5.53-1.2,8.85-1.2s6.32.4,8.88,1.2c2.56.8,4.56,1.91,6,3.33,1.44,1.42,2.16,3.05,2.16,4.89s-.72,3.48-2.16,4.92-3.44,2.56-6,3.36c-2.56.8-5.52,1.2-8.88,1.2s-6.27-.4-8.85-1.2c-2.58-.8-4.59-1.92-6.03-3.36-1.44-1.44-2.16-3.08-2.16-4.92ZM133.17,527.33c0,1.08.55,2.05,1.65,2.91,1.1.86,2.61,1.53,4.53,2.01,1.92.48,4.14.72,6.66.72s4.75-.24,6.69-.72c1.94-.48,3.45-1.15,4.53-2.01s1.62-1.83,1.62-2.91-.54-2.03-1.62-2.85c-1.08-.82-2.59-1.46-4.53-1.92-1.94-.46-4.17-.69-6.69-.69s-4.74.23-6.66.69c-1.92.46-3.43,1.1-4.53,1.92-1.1.82-1.65,1.77-1.65,2.85Z"/><path class="cls-1" d="M206.97,532.97c0-2.44.54-4.59,1.62-6.45,1.08-1.86,2.59-3.32,4.53-4.38,1.94-1.06,4.15-1.59,6.63-1.59,3.32,0,6.1.93,8.34,2.79,2.24,1.86,3.58,4.33,4.02,7.41h11.1v-9.48h-3.9v-3.9h8.1v30.6h-4.2v-13.32h-10.98c-.24,2.2-.91,4.14-2.01,5.82-1.1,1.68-2.55,2.99-4.35,3.93-1.8.94-3.84,1.41-6.12,1.41-2.48,0-4.69-.55-6.63-1.65-1.94-1.1-3.45-2.61-4.53-4.53s-1.62-4.14-1.62-6.66ZM211.17,533.03c0,2.6.79,4.73,2.37,6.39,1.58,1.66,3.61,2.49,6.09,2.49s4.51-.84,6.09-2.52c1.58-1.68,2.37-3.82,2.37-6.42s-.77-4.52-2.31-6.12c-1.54-1.6-3.55-2.4-6.03-2.4s-4.58.8-6.18,2.4-2.4,3.66-2.4,6.18ZM212.73,570.23v-19.5h34.68v19.5h-34.68ZM216.93,554.63v11.7h26.28v-11.7h-26.28Z"/><path class="cls-1" d="M258.03,546.47l-2.7-2.82,13.14-9.9v-6.9h-11.28v-3.9h11.28v-6.66h4.2v6.66h11.76v3.9h-11.76v7.08l13.32,9.72-2.7,2.82-12.9-9.3-12.36,9.3ZM265.47,560.27c0-3.2,1.49-5.67,4.47-7.41,2.98-1.74,7.05-2.61,12.21-2.61s9.23.87,12.21,2.61c2.98,1.74,4.47,4.21,4.47,7.41s-1.49,5.67-4.47,7.41c-2.98,1.74-7.05,2.61-12.21,2.61s-9.23-.87-12.21-2.61c-2.98-1.74-4.47-4.21-4.47-7.41ZM269.55,560.27c0,2,1.14,3.54,3.42,4.62,2.28,1.08,5.34,1.62,9.18,1.62s6.9-.54,9.18-1.62,3.42-2.62,3.42-4.62-1.13-3.54-3.39-4.62c-2.26-1.08-5.33-1.62-9.21-1.62s-6.9.54-9.18,1.62c-2.28,1.08-3.42,2.62-3.42,4.62ZM294.45,535.67h-10.62v-3.9h10.62v-11.16h-3.9v-3.6h8.1v31.62h-4.2v-12.96Z"/><path class="cls-1" d="M340.53,544.91l-2.7-2.82,13.8-11.52v-6.48h-11.58v-3.9h27v3.9h-11.22v6.72l13.26,9.72-2.52,3-13.02-9.54-13.02,10.92ZM345.99,569.63v-12.9h28.92v-5.46h-28.98v-3.9h33.18v13.26h-28.92v5.1h30.9v3.9h-35.1ZM375.45,520.79h-3.9v-3.9h8.1v12.3h7.86v3.9h-7.86v11.28h-4.2v-23.58Z"/><path class="cls-1" d="M436.89,563.27h-48.72v-3.9h48.72v3.9ZM392.43,549.11l-2.88-2.52,10.8-11.34v-14.64h4.08v14.46l8.22,7.44,7.98-7.26v-14.58h4.08v14.52l11.04,11.4-2.88,2.52-10.26-10.62-9.96,9.12-10.08-9.18-10.14,10.68Z"/><path class="cls-1" d="M486.15,563.45h-46.5v-3.9h18.54v-19.02h4.2v19.02h13.26v-33.9h-29.88v-3.9h34.08v37.8h6.3v3.9Z"/><path class="cls-1" d="M501.99,569.93l-13.26-.06v-3.9l9.48.06v-3.18h-3.96v-6.6h7.74v13.68Z"/><path class="cls-1" d="M72.82,612.74c0-5.48,1.11-9.68,3.33-12.6s5.39-4.38,9.51-4.38c4.08.16,7.22,1.71,9.42,4.65,2.2,2.94,3.3,7.05,3.3,12.33s-1.1,9.55-3.3,12.45c-2.2,2.9-5.34,4.35-9.42,4.35s-7.29-1.45-9.51-4.35c-2.22-2.9-3.33-7.05-3.33-12.45ZM77.02,612.74c0,4.12.75,7.3,2.25,9.54,1.5,2.24,3.63,3.36,6.39,3.36s4.82-1.12,6.3-3.36c1.48-2.24,2.22-5.42,2.22-9.54s-.74-7.43-2.22-9.69c-1.48-2.26-3.58-3.39-6.3-3.39s-4.89,1.13-6.39,3.39-2.25,5.49-2.25,9.69ZM112.06,644.18h-4.2v-49.62h-3.9v-3.9h8.1v21.48h9.66v3.9h-9.66v28.14Z"/><path class="cls-1" d="M143.97,625.22h-22.2v-3.9h48.72v3.9h-22.32v19.2h-4.2v-19.2ZM127.59,616.88l-2.1-3.3,18.48-9.78v-6h-16.2v-3.9h36.48v3.9h-16.08v6l18.48,9.78-2.1,3.3-18.48-9.78-18.48,9.78Z"/><path class="cls-1" d="M208.23,618.32l-2.76-2.76,12.84-13.62v-10.14h4.2v10.26l12.54,12.06-2.76,2.76-11.88-11.4-12.18,12.84ZM216.21,641.12h-.06v-17.46h31.8v19.32h-31.74v-1.86ZM220.23,627.44v11.76h23.64v-11.76h-23.64ZM243.99,604.58h-11.52v-3.9h11.52v-7.02h-3.9v-3.6h8.1v30.66h-4.2v-16.14Z"/><path class="cls-1" d="M257.13,630.62l-2.94-2.58,12.3-15.9v-17.16h4.2v17.28l11.7,15.84-3,2.46-10.86-15.06-11.4,15.12ZM289.65,643.22h-4.2v-30.12h-9.3v-3.9h9.3v-15.54h-3.9v-3.9h8.1v53.46ZM299.97,643.22h-4.2v-53.46h4.2v53.46Z"/><path class="cls-1" d="M336.39,600.2h-30.36v-3.9h13.8v-6.12h4.2v6.12h12.36v3.9ZM308.61,611.96c0-1.92.54-3.6,1.62-5.04,1.08-1.44,2.58-2.57,4.5-3.39,1.92-.82,4.12-1.23,6.6-1.23s4.66.41,6.54,1.23c1.88.82,3.35,1.95,4.41,3.39,1.06,1.44,1.59,3.12,1.59,5.04s-.53,3.54-1.59,4.98c-1.06,1.44-2.53,2.57-4.41,3.39-1.88.82-4.06,1.23-6.54,1.23s-4.68-.41-6.6-1.23c-1.92-.82-3.42-1.95-4.5-3.39s-1.62-3.1-1.62-4.98ZM312.81,612.02c0,1.64.8,2.99,2.4,4.05,1.6,1.06,3.64,1.59,6.12,1.59s4.49-.52,6.03-1.56c1.54-1.04,2.31-2.36,2.31-3.96,0-1.76-.77-3.19-2.31-4.29-1.54-1.1-3.55-1.65-6.03-1.65s-4.52.54-6.12,1.62c-1.6,1.08-2.4,2.48-2.4,4.2ZM346.53,643.1h-32.94v-18.78h4.2v5.76h24.54v-5.76h4.2v18.78ZM317.79,633.98v5.22h24.54v-5.22h-24.54ZM342.33,594.86h-3.9v-3.9h8.1v12.18h8.46v3.9h-8.46v14.64h-4.2v-26.82Z"/><path class="cls-1" d="M394.41,628.1h-34.74l.12-33.66h4.2l-.12,29.76h30.54v-30.54h-3.3v-3.6h7.5v53.28h-4.2v-15.24Z"/><path class="cls-1" d="M442.77,628.76h-33.78l.12-29.46v-2.22h24.18v3.9h-19.98l-.12,23.88h29.58v-31.2h-3.9v-3.9h8.1v21.3h9.24v3.9h-9.24v28.02h-4.2v-14.22Z"/><path class="cls-1" d="M456.93,636.44v-6.66h6.66v6.66h-6.66Z"/><path class="cls-1" d="M522.15,606.68v-6.66h6.66v6.66h-6.66ZM528.81,630.56h-6.66v-6.66h6.66v6.66Z"/><path class="cls-1" d="M542.49,635.48c1.2-1.76,2.24-3.52,3.12-5.28.88-1.76,1.62-3.5,2.22-5.22,1.2-3.44,1.8-6.84,1.8-10.2s-.56-6.78-1.68-10.02c-1.24-3.44-3.04-6.76-5.4-9.96l3.48-2.28c5.24,7.16,7.84,14.58,7.8,22.26-.04,7.56-2.62,15.18-7.74,22.86l-3.6-2.16Z"/><path class="cls-1" d="M90.91,788.04l-12.17-9.34,1.58-2.02,14.99,11.36-14.99,11.32-1.58-1.98,12.17-9.34Z"/><path class="cls-1" d="M113.98,788.4c1.27,0,2.43.18,3.5.55,1.06.36,1.8.83,2.2,1.39l.2.28v-5.82h-11.92v-2.83h14.95v20.21h-3.03v-1.9l-.2.2c-.65.65-1.47,1.19-2.47,1.62-1,.43-2.01.65-3.03.65-1.64,0-3.09-.31-4.34-.93-1.25-.62-2.24-1.48-2.95-2.59s-1.07-2.37-1.07-3.8.34-2.59,1.03-3.66,1.65-1.89,2.89-2.49c1.24-.59,2.65-.89,4.24-.89ZM108.84,795.43c0,1.32.5,2.4,1.5,3.23,1,.84,2.28,1.25,3.84,1.25,1.67,0,3.04-.42,4.1-1.25,1.06-.83,1.6-1.91,1.6-3.23,0-1.24-.55-2.25-1.64-3.03-1.09-.78-2.51-1.17-4.26-1.17-1.51,0-2.74.39-3.7,1.17-.96.78-1.43,1.79-1.43,3.03Z"/><path class="cls-1" d="M146.03,772.8v2.83h-4.12c-1.89,0-3.22.34-4,1.03-.78.69-1.17,1.84-1.17,3.46v1.86h8.61v2.83h-8.61v17.38h-3.03v-17.38h-6.59v-2.83h6.59v-2.26c0-2.4.61-4.15,1.84-5.25,1.23-1.1,3.16-1.66,5.8-1.66h4.69Z"/><path class="cls-1" d="M163.28,799.36h3.31v2.83h-3.88c-2.53,0-4.47-.49-5.82-1.48-1.35-.98-2.02-2.81-2.02-5.48v-9.66h-6.59v-2.83h6.59v-6.3h3.03v6.3h8.61v2.83h-8.61v9.26c0,1.21.15,2.14.44,2.79.3.65.83,1.1,1.62,1.35.78.26,1.89.38,3.31.38Z"/><path class="cls-1" d="M170.68,791.88c0-2.24.38-4.16,1.15-5.78.77-1.62,1.86-2.86,3.27-3.74,1.41-.88,3.08-1.31,4.99-1.31s3.42.44,4.77,1.33c1.35.89,2.38,2.16,3.11,3.82.73,1.66,1.09,3.62,1.09,5.88v.32h-15.4c.13,2.29.81,4.11,2.02,5.46s2.77,2.02,4.69,2.02c1.72,0,3.09-.43,4.1-1.29,1.01-.86,1.6-2.08,1.76-3.64h2.83c-.27,2.48-1.15,4.39-2.65,5.74-1.5,1.35-3.51,2.02-6.04,2.02-1.97,0-3.68-.44-5.13-1.31s-2.58-2.13-3.38-3.76c-.79-1.63-1.19-3.55-1.19-5.76ZM180.1,783.88c-1.73-.05-3.13.43-4.22,1.46-1.09,1.02-1.7,2.44-1.84,4.24h11.88c-.11-1.7-.69-3.06-1.74-4.08-1.05-1.02-2.41-1.56-4.08-1.62Z"/><path class="cls-1" d="M196.3,802.18v-20.21h16.05v3.03h-13.01v17.18h-3.03Z"/><path class="cls-1" d="M213.97,802.18v-20.21h20.41l.04,20.21h-3.03l-.04-17.38h-5.74v17.38h-2.83v-17.38h-5.78v17.38h-3.03Z"/><path class="cls-1" d="M236.4,791.88c0-2.13.41-4,1.23-5.62.82-1.62,1.96-2.89,3.42-3.82s3.13-1.39,5.01-1.39,3.5.46,4.93,1.39c1.43.93,2.55,2.2,3.35,3.82.81,1.62,1.21,3.49,1.21,5.62s-.4,3.97-1.19,5.6c-.8,1.63-1.89,2.91-3.29,3.84-1.4.93-3.02,1.39-4.85,1.39-1.94,0-3.64-.46-5.11-1.39-1.47-.93-2.62-2.21-3.46-3.84-.84-1.63-1.25-3.5-1.25-5.6ZM246.22,799.88c1.24,0,2.33-.34,3.27-1.03.94-.69,1.68-1.63,2.22-2.83.54-1.2.81-2.58.81-4.14s-.28-2.94-.83-4.14c-.55-1.2-1.31-2.14-2.28-2.83-.97-.69-2.09-1.03-3.35-1.03s-2.49.34-3.5,1.03c-1.01.69-1.79,1.63-2.34,2.83-.55,1.2-.82,2.58-.79,4.14.03,1.56.33,2.94.91,4.14.58,1.2,1.38,2.14,2.4,2.83,1.02.69,2.18,1.03,3.48,1.03Z"/><path class="cls-1" d="M257.62,802.18v-20.21h20.41l.04,20.21h-3.03l-.04-17.38h-5.74v17.38h-2.83v-17.38h-5.78v17.38h-3.03Z"/><path class="cls-1" d="M279.8,791.88c0-2.24.38-4.16,1.15-5.78.77-1.62,1.86-2.86,3.27-3.74,1.41-.88,3.08-1.31,4.99-1.31s3.42.44,4.77,1.33c1.35.89,2.38,2.16,3.11,3.82.73,1.66,1.09,3.62,1.09,5.88v.32h-15.4c.13,2.29.81,4.11,2.02,5.46s2.77,2.02,4.69,2.02c1.72,0,3.09-.43,4.1-1.29,1.01-.86,1.6-2.08,1.76-3.64h2.83c-.27,2.48-1.15,4.39-2.65,5.74-1.5,1.35-3.51,2.02-6.04,2.02-1.97,0-3.68-.44-5.13-1.31s-2.58-2.13-3.38-3.76c-.79-1.63-1.19-3.55-1.19-5.76ZM289.22,783.88c-1.73-.05-3.13.43-4.22,1.46-1.09,1.02-1.7,2.44-1.84,4.24h11.88c-.11-1.7-.69-3.06-1.74-4.08-1.05-1.02-2.41-1.56-4.08-1.62Z"/><path class="cls-1" d="M303,802.18v-20.21h17.1l.04,20.21h-3.03l-.04-17.38h-11.03v17.38h-3.03Z"/><path class="cls-1" d="M337.88,799.36h3.31v2.83h-3.88c-2.53,0-4.47-.49-5.82-1.48-1.35-.98-2.02-2.81-2.02-5.48v-9.66h-6.59v-2.83h6.59v-6.3h3.03v6.3h8.61v2.83h-8.61v9.26c0,1.21.15,2.14.44,2.79.3.65.83,1.1,1.62,1.35.78.26,1.89.38,3.31.38Z"/><path class="cls-1" d="M344.87,802.18v-4.49h4.49v4.49h-4.49Z"/><path class="cls-1" d="M381.25,802.18v-28.7h19.44l.04,28.7h-3.03l-.04-25.87h-5.17v25.87h-3.03v-25.87h-5.17v25.87h-3.03Z"/><path class="cls-1" d="M403.11,791.88c0-2.24.38-4.16,1.15-5.78.77-1.62,1.86-2.86,3.27-3.74,1.41-.88,3.08-1.31,4.99-1.31s3.42.44,4.77,1.33c1.35.89,2.38,2.16,3.11,3.82.73,1.66,1.09,3.62,1.09,5.88v.32h-15.4c.13,2.29.81,4.11,2.02,5.46s2.77,2.02,4.69,2.02c1.72,0,3.09-.43,4.1-1.29,1.01-.86,1.6-2.08,1.76-3.64h2.83c-.27,2.48-1.15,4.39-2.65,5.74-1.5,1.35-3.51,2.02-6.04,2.02-1.97,0-3.68-.44-5.13-1.31s-2.58-2.13-3.38-3.76c-.79-1.63-1.19-3.55-1.19-5.76ZM412.53,783.88c-1.73-.05-3.13.43-4.22,1.46-1.09,1.02-1.7,2.44-1.84,4.24h11.88c-.11-1.7-.69-3.06-1.74-4.08-1.05-1.02-2.41-1.56-4.08-1.62Z"/><path class="cls-1" d="M435.53,802.75c-2.83,0-5.09-.71-6.79-2.14-1.7-1.43-2.57-3.35-2.63-5.78h3.03c.05,1.56.65,2.81,1.78,3.74,1.13.93,2.64,1.38,4.53,1.35,1.37-.03,2.5-.32,3.38-.89.88-.57,1.3-1.28,1.27-2.14-.03-.78-.38-1.46-1.05-2.02-.67-.57-1.81-1.12-3.4-1.66l-2.55-.89c-2.08-.73-3.56-1.52-4.47-2.36-.9-.85-1.38-1.89-1.43-3.13-.03-1.13.26-2.13.85-2.99.59-.86,1.43-1.54,2.53-2.04,1.09-.5,2.36-.75,3.82-.75,2.51-.03,4.51.6,6.02,1.88,1.51,1.28,2.29,3.04,2.34,5.27l-3.03.04c-.19-1.35-.75-2.41-1.7-3.19-.94-.78-2.13-1.17-3.56-1.17-1.29,0-2.33.28-3.11.85-.78.57-1.16,1.28-1.13,2.14.03.59.33,1.12.91,1.58.58.46,1.56.93,2.93,1.41l2.59.89c2.24.75,3.84,1.57,4.81,2.44.97.88,1.47,1.96,1.5,3.25.05,1.24-.23,2.33-.85,3.27-.62.94-1.5,1.68-2.63,2.22-1.13.54-2.45.81-3.96.81Z"/><path class="cls-1" d="M457.35,802.75c-2.83,0-5.09-.71-6.79-2.14-1.7-1.43-2.57-3.35-2.63-5.78h3.03c.05,1.56.65,2.81,1.78,3.74,1.13.93,2.64,1.38,4.53,1.35,1.37-.03,2.5-.32,3.38-.89.88-.57,1.3-1.28,1.27-2.14-.03-.78-.38-1.46-1.05-2.02-.67-.57-1.81-1.12-3.4-1.66l-2.55-.89c-2.08-.73-3.56-1.52-4.47-2.36-.9-.85-1.38-1.89-1.43-3.13-.03-1.13.26-2.13.85-2.99.59-.86,1.43-1.54,2.53-2.04,1.09-.5,2.36-.75,3.82-.75,2.51-.03,4.51.6,6.02,1.88,1.51,1.28,2.29,3.04,2.34,5.27l-3.03.04c-.19-1.35-.75-2.41-1.7-3.19-.94-.78-2.13-1.17-3.56-1.17-1.29,0-2.33.28-3.11.85-.78.57-1.16,1.28-1.13,2.14.03.59.33,1.12.91,1.58.58.46,1.56.93,2.93,1.41l2.59.89c2.24.75,3.84,1.57,4.81,2.44.97.88,1.47,1.96,1.5,3.25.05,1.24-.23,2.33-.85,3.27-.62.94-1.5,1.68-2.63,2.22-1.13.54-2.45.81-3.96.81Z"/><path class="cls-1" d="M477.36,788.4c1.27,0,2.43.18,3.5.55,1.06.36,1.8.83,2.2,1.39l.2.28v-5.82h-11.92v-2.83h14.95v20.21h-3.03v-1.9l-.2.2c-.65.65-1.47,1.19-2.47,1.62-1,.43-2.01.65-3.03.65-1.64,0-3.09-.31-4.34-.93-1.25-.62-2.24-1.48-2.95-2.59s-1.07-2.37-1.07-3.8.34-2.59,1.03-3.66,1.65-1.89,2.89-2.49c1.24-.59,2.65-.89,4.24-.89ZM472.22,795.43c0,1.32.5,2.4,1.5,3.23,1,.84,2.28,1.25,3.84,1.25,1.67,0,3.04-.42,4.1-1.25,1.06-.83,1.6-1.91,1.6-3.23,0-1.24-.55-2.25-1.64-3.03-1.09-.78-2.51-1.17-4.26-1.17-1.51,0-2.74.39-3.7,1.17-.96.78-1.43,1.79-1.43,3.03Z"/><path class="cls-1" d="M499.14,781.05c1.37,0,2.61.25,3.72.75,1.1.5,2.03,1.22,2.79,2.16v-1.94h3.03v20.65c0,2.45-.67,4.22-2.02,5.31-1.35,1.09-3.29,1.64-5.82,1.64h-9.7v-2.83h9.13c1.46,0,2.57-.16,3.33-.46.77-.31,1.3-.79,1.6-1.46.3-.66.44-1.53.44-2.61v-2.3c-1.54,1.83-3.64,2.75-6.31,2.75-2.88,0-5.17-.95-6.85-2.85-1.68-1.9-2.53-4.48-2.53-7.74,0-2.26.38-4.22,1.13-5.88.75-1.66,1.82-2.94,3.19-3.84,1.37-.9,2.99-1.35,4.85-1.35ZM493,792.12c0,2.37.57,4.26,1.72,5.66,1.15,1.4,2.69,2.1,4.63,2.1s3.48-.71,4.61-2.14c1.13-1.43,1.7-3.37,1.7-5.82s-.59-4.44-1.76-5.88c-1.17-1.44-2.76-2.16-4.75-2.16-1.89,0-3.38.74-4.49,2.22-1.11,1.48-1.66,3.49-1.66,6.02Z"/><path class="cls-1" d="M512.24,791.88c0-2.24.38-4.16,1.15-5.78.77-1.62,1.86-2.86,3.27-3.74,1.41-.88,3.08-1.31,4.99-1.31s3.42.44,4.77,1.33c1.35.89,2.38,2.16,3.11,3.82.73,1.66,1.09,3.62,1.09,5.88v.32h-15.4c.13,2.29.81,4.11,2.02,5.46s2.77,2.02,4.69,2.02c1.72,0,3.09-.43,4.1-1.29,1.01-.86,1.6-2.08,1.76-3.64h2.83c-.27,2.48-1.15,4.39-2.65,5.74-1.5,1.35-3.51,2.02-6.04,2.02-1.97,0-3.68-.44-5.13-1.31s-2.58-2.13-3.38-3.76c-.79-1.63-1.19-3.55-1.19-5.76ZM521.65,783.88c-1.73-.05-3.13.43-4.22,1.46-1.09,1.02-1.7,2.44-1.84,4.24h11.88c-.11-1.7-.69-3.06-1.74-4.08-1.05-1.02-2.41-1.56-4.08-1.62Z"/><path class="cls-1" d="M555.52,802.18v-20.21h20.41l.04,20.21h-3.03l-.04-17.38h-5.74v17.38h-2.83v-17.38h-5.78v17.38h-3.03Z"/><path class="cls-1" d="M586.48,788.4c1.27,0,2.43.18,3.5.55,1.06.36,1.8.83,2.2,1.39l.2.28v-5.82h-11.92v-2.83h14.95v20.21h-3.03v-1.9l-.2.2c-.65.65-1.47,1.19-2.47,1.62-1,.43-2.01.65-3.03.65-1.64,0-3.09-.31-4.34-.93-1.25-.62-2.24-1.48-2.95-2.59s-1.07-2.37-1.07-3.8.34-2.59,1.03-3.66,1.65-1.89,2.89-2.49c1.24-.59,2.65-.89,4.24-.89ZM581.35,795.43c0,1.32.5,2.4,1.5,3.23,1,.84,2.28,1.25,3.84,1.25,1.67,0,3.04-.42,4.1-1.25,1.06-.83,1.6-1.91,1.6-3.23,0-1.24-.55-2.25-1.64-3.03-1.09-.78-2.51-1.17-4.26-1.17-1.51,0-2.74.39-3.7,1.17-.96.78-1.43,1.79-1.43,3.03Z"/><path class="cls-1" d="M605.19,797.62v4.57h-3.03v-29.38h3.03v20.69l10.75-11.52h3.64l-8.37,9.09,9.01,11.11h-3.84l-7.27-8.85-3.92,4.28Z"/><path class="cls-1" d="M633.36,799.36h9.01v2.83h-21.14v-2.83h9.09v-15.48h-7.11v-2.83h10.14v18.31ZM628.47,777.69v-4.89h4.89v4.89h-4.89Z"/><path class="cls-1" d="M644.56,802.18v-20.21h17.1l.04,20.21h-3.03l-.04-17.38h-11.03v17.38h-3.03Z"/><path class="cls-1" d="M673.74,781.05c1.37,0,2.61.25,3.72.75,1.1.5,2.03,1.22,2.79,2.16v-1.94h3.03v20.65c0,2.45-.67,4.22-2.02,5.31-1.35,1.09-3.29,1.64-5.82,1.64h-9.7v-2.83h9.13c1.46,0,2.57-.16,3.33-.46.77-.31,1.3-.79,1.6-1.46.3-.66.44-1.53.44-2.61v-2.3c-1.54,1.83-3.64,2.75-6.31,2.75-2.88,0-5.17-.95-6.85-2.85-1.68-1.9-2.53-4.48-2.53-7.74,0-2.26.38-4.22,1.13-5.88.75-1.66,1.82-2.94,3.19-3.84,1.37-.9,2.99-1.35,4.85-1.35ZM667.59,792.12c0,2.37.57,4.26,1.72,5.66,1.15,1.4,2.69,2.1,4.63,2.1s3.48-.71,4.61-2.14c1.13-1.43,1.7-3.37,1.7-5.82s-.59-4.44-1.76-5.88c-1.17-1.44-2.76-2.16-4.75-2.16-1.89,0-3.38.74-4.49,2.22-1.11,1.48-1.66,3.49-1.66,6.02Z"/></svg>