<?xml version="1.0" encoding="UTF-8"?><svg id="_레이어_1" xmlns="http://www.w3.org/2000/svg" viewBox="0 0 1080 1920"><defs><style>.cls-1{fill:#fff;}.cls-2{fill:#f2f6f7;}.cls-3{fill:#012b3a;}</style></defs><rect class="cls-3" x="-420" y="420" width="1920" height="1080" transform="translate(1500 420) rotate(90)"/><rect class="cls-1" x="325.71" y="248.88" width="428.58" height="103.9"/><path class="cls-3" d="M410.4,299.18h-34.02v-24.9h23.94v3.9h-19.74v6.9h19.02v3.9h-19.02v6.3h29.82v-20.1h-3.9v-3.9h8.1v12.18h8.46v3.9h-8.46v13.26h-4.2v-1.44ZM414.6,323.42h-32.94v-20.16h4.2v6.36h24.54v-6.36h4.2v20.16ZM385.86,313.52v6h24.54v-6h-24.54Z"/><path class="cls-3" d="M460.44,309.08h-33.78l.12-29.46v-2.22h24.18v3.9h-19.98l-.12,23.88h29.58v-31.2h-3.9v-3.9h8.1v21.3h9.24v3.9h-9.24v28.02h-4.2v-14.22Z"/><path class="cls-3" d="M496.5,302.24h-21.9v-3.9h47.94v3.9h-21.84v11.04h-4.2v-11.04ZM480.96,323.3v-15.36h4.2v11.46h31.62v3.9h-35.82ZM481.86,282.92c0-3.28,1.51-5.87,4.53-7.77,3.02-1.9,7.09-2.85,12.21-2.85s9.19.95,12.21,2.85c3.02,1.9,4.53,4.49,4.53,7.77s-1.51,5.88-4.53,7.8c-3.02,1.92-7.09,2.88-12.21,2.88s-9.19-.96-12.21-2.88c-3.02-1.92-4.53-4.52-4.53-7.8ZM486.06,282.98c0,2.08,1.13,3.73,3.39,4.95,2.26,1.22,5.31,1.83,9.15,1.83s6.89-.61,9.15-1.83c2.26-1.22,3.39-2.87,3.39-4.95s-1.13-3.72-3.39-4.92c-2.26-1.2-5.31-1.8-9.15-1.8s-6.89.6-9.15,1.8-3.39,2.84-3.39,4.92Z"/><path class="cls-3" d="M591.42,322.94h-4.2v-27.66h-7.86v13.38h-20.4v-32.22h20.4v14.94h7.86v-17.16h-3.9v-3.9h8.1v52.62ZM563.16,280.34v24.42h12v-24.42h-12ZM601.74,322.94h-4.2v-52.62h4.2v52.62Z"/><path class="cls-3" d="M611.46,311.36l-3.06-2.4,13.68-18.42v-15.3h4.2v15l14.34,18.66-3,2.46-13.32-17.28-12.84,17.28ZM651.48,323.66h-4.2v-49.38h-3.9v-3.9h8.1v53.28Z"/><path class="cls-3" d="M661.56,312.56l-3-2.64,13.86-15.78v-13.92h-12.12v-3.9h28.62v3.9h-12.3v13.92l13.86,15.78-3,2.64-12.96-14.7-12.96,14.7ZM701.52,323.66h-4.2v-49.38h-3.9v-3.9h8.1v53.28Z"/><rect class="cls-2" x="67.19" y="516.05" width="756.03" height="78.54"/><rect class="cls-2" x="67.19" y="606.16" width="756.03" height="78.54"/><rect class="cls-2" x="67.19" y="696.28" width="902.58" height="78.54"/><rect class="cls-2" x="67.19" y="786.4" width="902.58" height="78.54"/><rect class="cls-2" x="67.19" y="876.51" width="865.28" height="78.54"/><rect class="cls-2" x="67.19" y="1056.75" width="902.58" height="78.54"/><rect class="cls-2" x="67.19" y="966.63" width="945.61" height="78.54"/><rect class="cls-2" x="67.19" y="1146.86" width="881.9" height="78.54"/><rect class="cls-2" x="67.19" y="1236.98" width="981.31" height="78.54"/><rect class="cls-2" x="67.19" y="1327.1" width="881.9" height="78.54"/><rect class="cls-2" x="67.19" y="1417.21" width="889.11" height="78.54"/><path class="cls-3" d="M108.59,565.81h-22.26v-3.9h48.66v3.9h-22.2v18.54h-4.2v-18.54ZM110.69,556.45c-2.8,0-5.34-.55-7.62-1.65-2.28-1.1-4.09-2.57-5.43-4.41-1.34-1.84-2.01-3.9-2.01-6.18s.67-4.33,2.01-6.15c1.34-1.82,3.15-3.27,5.43-4.35,2.28-1.08,4.82-1.62,7.62-1.62s5.39.54,7.65,1.62c2.26,1.08,4.06,2.53,5.4,4.35,1.34,1.82,2.01,3.87,2.01,6.15s-.67,4.34-2.01,6.18c-1.34,1.84-3.14,3.31-5.4,4.41-2.26,1.1-4.81,1.65-7.65,1.65ZM99.83,544.21c0,1.56.48,2.97,1.44,4.23.96,1.26,2.27,2.26,3.93,3,1.66.74,3.49,1.11,5.49,1.11s3.88-.37,5.52-1.11c1.64-.74,2.94-1.74,3.9-3,.96-1.26,1.44-2.67,1.44-4.23s-.48-2.96-1.44-4.2c-.96-1.24-2.26-2.22-3.9-2.94-1.64-.72-3.48-1.08-5.52-1.08s-3.83.36-5.49,1.08c-1.66.72-2.97,1.7-3.93,2.94-.96,1.24-1.44,2.64-1.44,4.2Z"/><path class="cls-3" d="M180.53,570.55h-4.2v-8.1h-36.18v-15.9h19.68v-7.44h-20.1v-3.9h24.3v15.24h-19.68v8.1h31.98v-23.22h-3.9v-3.9h8.1v39.12ZM182.75,583.45h-36.36v-15.84h4.2v11.94h32.16v3.9Z"/><path class="cls-3" d="M256.55,559.33h-34.02v-24.9h23.94v3.9h-19.74v6.9h19.02v3.9h-19.02v6.3h29.82v-20.1h-3.9v-3.9h8.1v12.18h8.46v3.9h-8.46v13.26h-4.2v-1.44ZM260.75,583.57h-32.94v-20.16h4.2v6.36h24.54v-6.36h4.2v20.16ZM232.01,573.67v6h24.54v-6h-24.54Z"/><path class="cls-3" d="M306.59,569.23h-33.78l.12-29.46v-2.22h24.18v3.9h-19.98l-.12,23.88h29.58v-31.2h-3.9v-3.9h8.1v21.3h9.24v3.9h-9.24v28.02h-4.2v-14.22Z"/><path class="cls-3" d="M342.65,562.39h-21.9v-3.9h47.94v3.9h-21.84v11.04h-4.2v-11.04ZM327.11,583.45v-15.36h4.2v11.46h31.62v3.9h-35.82ZM328.01,543.07c0-3.28,1.51-5.87,4.53-7.77,3.02-1.9,7.09-2.85,12.21-2.85s9.19.95,12.21,2.85c3.02,1.9,4.53,4.49,4.53,7.77s-1.51,5.88-4.53,7.8c-3.02,1.92-7.09,2.88-12.21,2.88s-9.19-.96-12.21-2.88c-3.02-1.92-4.53-4.52-4.53-7.8ZM332.21,543.13c0,2.08,1.13,3.73,3.39,4.95,2.26,1.22,5.31,1.83,9.15,1.83s6.89-.61,9.15-1.83c2.26-1.22,3.39-2.87,3.39-4.95s-1.13-3.72-3.39-4.92c-2.26-1.2-5.31-1.8-9.15-1.8s-6.89.6-9.15,1.8c-2.26,1.2-3.39,2.84-3.39,4.92Z"/><path class="cls-3" d="M437.57,583.09h-4.2v-27.66h-7.86v13.38h-20.4v-32.22h20.4v14.94h7.86v-17.16h-3.9v-3.9h8.1v52.62ZM409.31,540.49v24.42h12v-24.42h-12ZM447.89,583.09h-4.2v-52.62h4.2v52.62Z"/><path class="cls-3" d="M457.61,571.51l-3.06-2.4,13.68-18.42v-15.3h4.2v15l14.34,18.66-3,2.46-13.32-17.28-12.84,17.28ZM497.63,583.81h-4.2v-49.38h-3.9v-3.9h8.1v53.28Z"/><path class="cls-3" d="M507.71,572.71l-3-2.64,13.86-15.78v-13.92h-12.12v-3.9h28.62v3.9h-12.3v13.92l13.86,15.78-3,2.64-12.96-14.7-12.96,14.7ZM547.67,583.81h-4.2v-49.38h-3.9v-3.9h8.1v53.28Z"/><path class="cls-3" d="M603.05,560.05h-48.06v-3.9h48.06v3.9ZM596.87,583.21h-35.34v-11.64h30.6v-3.6h-30.6v-3.9h34.8v11.1h-30.6v4.14h31.14v3.9ZM592.19,536.71h-30.6v-3.9h34.8v11.22h-30.6v4.44h31.14v3.9h-35.34v-11.94h30.6v-3.72Z"/><path class="cls-3" d="M684.89,559.39h-47.46v-3.9h47.46v3.9ZM669.47,541.39v-10.02h4.08v10.26l9.12,8.64-2.88,2.52-8.4-7.98-9.66,6.78-9.66-6.96-8.52,8.1-2.88-2.52,9.12-8.64v-10.26h4.08v9.84l7.86,5.7,7.74-5.46ZM679.79,583.69h-36.48v-20.04h4.2v6.3h28.08v-6.3h4.2v20.04ZM647.51,573.85v5.94h28.08v-5.94h-28.08Z"/><path class="cls-3" d="M726.23,568.57h-34.74l.12-33.66h4.2l-.12,29.76h30.54v-30.54h-3.3v-3.6h7.5v53.28h-4.2v-15.24Z"/><path class="cls-3" d="M774.59,569.23h-33.78l.12-29.46v-2.22h24.18v3.9h-19.98l-.12,23.88h29.58v-31.2h-3.9v-3.9h8.1v21.3h9.24v3.9h-9.24v28.02h-4.2v-14.22Z"/><path class="cls-3" d="M788.75,576.91v-6.66h6.66v6.66h-6.66Z"/><path class="cls-3" d="M135.11,667.93h-48.72v-3.9h22.2v-12.9h4.2v12.9h22.32v3.9ZM92.21,654.73l-2.1-3.3,18.48-12.72v-8.46h-16.2v-3.9h36.48v3.9h-16.08v8.46l18.48,12.72-2.1,3.3-18.48-12.72-18.48,12.72Z"/><path class="cls-3" d="M140.33,651.43l-2.76-2.82,13.74-12.84v-7.86h-11.82v-3.9h27.78v3.9h-11.76v7.8l14.1,11.7-2.64,2.82-13.5-11.1-13.14,12.3ZM176.15,659.53h-31.26v-3.9h35.46v18.9h-4.2v-15ZM176.15,624.55h-3.9v-3.9h8.1v31.92h-4.2v-28.02Z"/><path class="cls-3" d="M209.87,651.79h-22.74v-3.9h47.46v3.9h-20.52v10.92h-4.2v-10.92ZM230.09,673.45h-36.18v-16.02h4.2v12.12h31.98v3.9ZM228.83,641.71h-33.96v-19.02h33.96v19.02ZM199.07,626.59v11.22h25.56v-11.22h-25.56Z"/><path class="cls-3" d="M278.57,674.53h-4.2v-9.96h-36.66v-3.9h14.22v-5.64c-1.92-.32-3.64-.96-5.16-1.92-1.52-.96-2.72-2.17-3.6-3.63-.88-1.46-1.32-3.05-1.32-4.77,0-1.96.55-3.73,1.65-5.31,1.1-1.58,2.59-2.84,4.47-3.78,1.88-.94,3.96-1.41,6.24-1.41s4.33.47,6.15,1.41c1.82.94,3.27,2.2,4.35,3.78,1.08,1.58,1.62,3.35,1.62,5.31,0,1.76-.45,3.38-1.35,4.86-.9,1.48-2.11,2.7-3.63,3.66-1.52.96-3.26,1.58-5.22,1.86v5.58h18.24v-36.3h-3.9v-3.9h8.1v24.12h8.82v3.9h-8.82v26.04ZM269.21,631.63h-31.08v-3.78h13.92v-7.44h4.08v7.44h13.08v3.78ZM246.05,644.77c0,1.2.36,2.3,1.08,3.3.72,1,1.7,1.79,2.94,2.37,1.24.58,2.62.87,4.14.87s2.82-.28,4.02-.84c1.2-.56,2.15-1.33,2.85-2.31.7-.98,1.05-2.07,1.05-3.27,0-1.28-.35-2.43-1.05-3.45-.7-1.02-1.65-1.83-2.85-2.43-1.2-.6-2.54-.9-4.02-.9s-2.9.3-4.14.9c-1.24.6-2.22,1.4-2.94,2.4-.72,1-1.08,2.12-1.08,3.36Z"/><path class="cls-3" d="M336.17,651.73h-47.88v-3.9h47.88v3.9ZM331.25,672.85h-36.9v-15.54h4.2v11.64h32.7v3.9ZM329.63,640.69h-33.84v-18.36h4.2v14.46h29.64v3.9Z"/><path class="cls-3" d="M409.61,664.93h-37.5v-3.9h14.46v-5.58c-1.96-.28-3.72-.9-5.28-1.86s-2.79-2.17-3.69-3.63c-.9-1.46-1.35-3.05-1.35-4.77,0-1.96.56-3.73,1.68-5.31,1.12-1.58,2.63-2.84,4.53-3.78,1.9-.94,4.01-1.41,6.33-1.41s4.41.47,6.27,1.41c1.86.94,3.34,2.2,4.44,3.78,1.1,1.58,1.65,3.35,1.65,5.31,0,1.76-.45,3.37-1.35,4.83-.9,1.46-2.13,2.67-3.69,3.63s-3.34,1.58-5.34,1.86v5.52h18.84v-36.3h-3.3v-3.9h7.5v53.7h-4.2v-9.6ZM404.39,631.93h-31.2v-3.9h13.38v-6.42h4.2v6.42h13.62v3.9ZM380.45,645.25c0,1.2.37,2.29,1.11,3.27.74.98,1.74,1.76,3,2.34,1.26.58,2.67.87,4.23.87s2.9-.28,4.14-.84c1.24-.56,2.22-1.33,2.94-2.31.72-.98,1.08-2.07,1.08-3.27,0-1.28-.36-2.42-1.08-3.42-.72-1-1.7-1.8-2.94-2.4-1.24-.6-2.62-.9-4.14-.9s-2.97.3-4.23.9c-1.26.6-2.26,1.4-3,2.4-.74,1-1.11,2.12-1.11,3.36Z"/><path class="cls-3" d="M423.77,662.77l-3.06-2.4,13.92-17.58v-17.04h4.2v17.04l13.98,17.58-3.12,2.4-12.96-16.32-12.96,16.32ZM461.87,673.99h-4.2v-49.68h-3.9v-3.6h8.1v20.4h8.88v3.9h-8.88v28.98Z"/><path class="cls-3" d="M520.25,650.23h-48.06v-3.9h48.06v3.9ZM514.07,673.39h-35.34v-11.64h30.6v-3.6h-30.6v-3.9h34.8v11.1h-30.6v4.14h31.14v3.9ZM509.39,626.89h-30.6v-3.9h34.8v11.22h-30.6v4.44h31.14v3.9h-35.34v-11.94h30.6v-3.72Z"/><path class="cls-3" d="M589.01,673.87h-4.2v-28.92h-7.14c-.4,9.36-4.22,14.04-11.46,14.04-7.76,0-11.64-5.3-11.64-15.9s3.88-16.08,11.64-16.08c7.16.24,10.98,4.92,11.46,14.04h7.14v-16.74h-3.9v-3.9h8.1v53.46ZM558.77,643.09c0,8,2.48,12,7.44,12s7.32-4,7.32-12-2.44-12.18-7.32-12.18-7.44,4.06-7.44,12.18ZM599.51,673.87h-4.2v-53.46h4.2v53.46Z"/><path class="cls-3" d="M648.11,673.99h-4.2v-29.7h-13.02v14.7h-22.92v-32.22h4.2v13.62h14.52v-13.62h4.2v13.62h13.02v-16.08h-3.9v-3.6h8.1v53.28ZM612.17,644.29v10.8h14.52v-10.8h-14.52Z"/><path class="cls-3" d="M672.71,629.71h-14.88v-3.9h19.08v15.18h-14.46v7.5h21.96v-23.22h-3.9v-3.9h8.1v14.82h7.44v-15.78h4.2v38.94h-4.2v-19.26h-7.44v19.26h-4.2v-6.96h-26.16v-15.3h14.46v-7.38ZM701.93,673.33l-35.94.12-.06-16.14h4.2v12.24l31.74-.12.06,3.9Z"/><path class="cls-3" d="M754.37,668.29h-48.9v-3.9h48.9v3.9ZM746.87,650.89h-34.08v-25.14h34.08v3.9h-29.88v17.34h29.88v3.9Z"/><path class="cls-3" d="M763.19,650.89v-15.12h29.88v-6.12h-29.88v-3.9h34.08v13.92h-29.88v7.32h29.88v3.9h-14.82v13.5h22.26v3.9h-48.72v-3.9h22.26v-13.5h-15.06Z"/><path class="cls-3" d="M112.73,739.86h-23.4v-24.18h23.4v24.18ZM93.53,719.58v16.38h15v-16.38h-15ZM131.45,763.44h-35.04v-17.76h4.2v13.86h30.84v3.9ZM123.23,714.84h-3.9v-3.9h8.1v16.44h8.58v3.9h-8.58v18.96h-4.2v-35.4Z"/><path class="cls-3" d="M185.57,758.46h-48.9v-3.9h48.9v3.9ZM178.07,741.06h-34.08v-25.14h34.08v3.9h-29.88v17.34h29.88v3.9Z"/><path class="cls-3" d="M235.37,741.9h-47.88v-3.9h47.88v3.9ZM230.45,763.02h-36.9v-15.54h4.2v11.64h32.7v3.9ZM228.83,730.86h-33.84v-18.36h4.2v14.46h29.64v3.9Z"/><path class="cls-3" d="M288.71,721.62h-16.5v-3.9h20.7c.24,5.44-.54,10.48-2.34,15.12h9.12v-18.36h-3.9v-3.9h8.1v53.46h-4.2v-27.3h-10.92l-.54.96c-1.08,1.84-2.49,3.75-4.23,5.73-1.74,1.98-3.6,3.81-5.58,5.49s-3.91,3.04-5.79,4.08l-2.28-3.48c1.76-1.04,3.56-2.33,5.4-3.87,1.84-1.54,3.54-3.18,5.1-4.92,1.56-1.74,2.8-3.41,3.72-5.01,2.44-4.2,3.82-8.9,4.14-14.1ZM315.11,764.04h-4.2v-53.46h4.2v53.46Z"/><path class="cls-3" d="M354.23,733.56c0-5.48,1.11-9.68,3.33-12.6,2.22-2.92,5.39-4.38,9.51-4.38,4.08.16,7.22,1.71,9.42,4.65,2.2,2.94,3.3,7.05,3.3,12.33s-1.1,9.55-3.3,12.45c-2.2,2.9-5.34,4.35-9.42,4.35s-7.29-1.45-9.51-4.35c-2.22-2.9-3.33-7.05-3.33-12.45ZM358.43,733.56c0,4.12.75,7.3,2.25,9.54,1.5,2.24,3.63,3.36,6.39,3.36s4.82-1.12,6.3-3.36c1.48-2.24,2.22-5.42,2.22-9.54s-.74-7.43-2.22-9.69c-1.48-2.26-3.58-3.39-6.3-3.39s-4.89,1.13-6.39,3.39-2.25,5.49-2.25,9.69ZM393.47,765h-4.2v-49.62h-3.9v-3.9h8.1v21.48h9.66v3.9h-9.66v28.14Z"/><path class="cls-3" d="M442.19,736.74h-35.52v-22.62h4.2v18.66h31.32v-17.88h-3.9v-3.6h8.1v28.5h-4.2v-3.06ZM446.51,763.8h-33.66v-21.72h4.2v7.44h25.26v-7.44h4.2v21.72ZM417.05,753.42v6.48h25.26v-6.48h-25.26Z"/><path class="cls-3" d="M492.23,748.92h-34.74l.12-33.66h4.2l-.12,29.76h30.54v-30.54h-3.3v-3.6h7.5v53.28h-4.2v-15.24Z"/><path class="cls-3" d="M540.59,749.58h-33.78l.12-29.46v-2.22h24.18v3.9h-19.98l-.12,23.88h29.58v-31.2h-3.9v-3.9h8.1v21.3h9.24v3.9h-9.24v28.02h-4.2v-14.22Z"/><path class="cls-3" d="M554.75,757.26v-6.66h6.66v6.66h-6.66Z"/><path class="cls-3" d="M619.43,725.1v-10.32h4.2v10.8l11.22,12.36-2.94,2.58-10.56-11.58-10.62,11.58-2.94-2.58,11.64-12.84ZM619.13,753.84c0-3.16,1.49-5.59,4.47-7.29,2.98-1.7,7.25-2.55,12.81-2.55s9.83.85,12.81,2.55c2.98,1.7,4.47,4.13,4.47,7.29s-1.49,5.59-4.47,7.29c-2.98,1.7-7.25,2.55-12.81,2.55s-9.83-.85-12.81-2.55c-2.98-1.7-4.47-4.13-4.47-7.29ZM623.21,753.84c0,1.96,1.14,3.46,3.42,4.5,2.28,1.04,5.54,1.56,9.78,1.56s7.5-.52,9.78-1.56c2.28-1.04,3.42-2.54,3.42-4.5s-1.14-3.46-3.42-4.5c-2.28-1.04-5.54-1.56-9.78-1.56s-7.5.52-9.78,1.56c-2.28,1.04-3.42,2.54-3.42,4.5ZM637.37,715.44h-3.9v-3.9h8.1v12.96h6.84v-12.96h4.2v30.96h-4.2v-14.1h-6.84v14.1h-4.2v-27.06Z"/><path class="cls-3" d="M706.31,743.52h-47.46v-3.9h21.66v-8.64h4.2v8.64h21.6v3.9ZM664.43,734.52l-1.86-3.42,17.94-10.38v-3.06h-16.08v-3.9h35.94v3.9h-15.66v3.06l17.58,10.2-1.86,3.42-17.82-10.38-18.18,10.56ZM665.57,763.02v-15h4.2v11.1h31.14v3.9h-35.34Z"/><path class="cls-3" d="M747.71,752.28h-38.34v-3.9h38.28l-.06-33.54h-3.96v-3.9h8.28v53.76h-4.2v-12.42ZM713.39,728.16c0-2.2.59-4.2,1.77-6,1.18-1.8,2.76-3.25,4.74-4.35,1.98-1.1,4.13-1.65,6.45-1.65,2.32.08,4.45.69,6.39,1.83,1.94,1.14,3.5,2.6,4.68,4.38,1.18,1.78,1.77,3.71,1.77,5.79s-.59,4.08-1.77,5.88c-1.18,1.8-2.74,3.24-4.68,4.32-1.94,1.08-4.07,1.62-6.39,1.62s-4.47-.54-6.45-1.62c-1.98-1.08-3.56-2.52-4.74-4.32-1.18-1.8-1.77-3.76-1.77-5.88ZM717.59,728.16c0,1.4.4,2.7,1.2,3.9.8,1.2,1.87,2.16,3.21,2.88,1.34.72,2.79,1.08,4.35,1.08s3-.36,4.32-1.08c1.32-.72,2.37-1.68,3.15-2.88.78-1.2,1.17-2.5,1.17-3.9,0-1.48-.39-2.83-1.17-4.05-.78-1.22-1.83-2.2-3.15-2.94s-2.76-1.11-4.32-1.11-3.01.37-4.35,1.11c-1.34.74-2.41,1.72-3.21,2.94-.8,1.22-1.2,2.57-1.2,4.05Z"/><path class="cls-3" d="M814.12,741.96h-22.74v-3.9h47.46v3.9h-20.52v10.92h-4.2v-10.92ZM834.34,763.62h-36.18v-16.02h4.2v12.12h31.98v3.9ZM833.08,731.88h-33.96v-19.02h33.96v19.02ZM803.32,716.76v11.22h25.56v-11.22h-25.56Z"/><path class="cls-3" d="M853.36,722.22h-10.26v-3.9h24.3v3.9h-9.84v12.3l10.98,13.98-3,2.46-10.14-13.08-11.4,13.92-2.94-2.58,12.3-14.88v-12.12ZM872.38,733.98h-9.24v-3.9h9.24v-15.18h-4.08v-3.9h8.28v53.04h-4.2v-30.06ZM887.08,764.04h-4.2v-53.04h4.2v53.04Z"/><path class="cls-3" d="M940.96,758.52h-48.72v-3.9h13.44v-12.3h4.2v12.3h13.32v-12.3h4.2v12.3h13.56v3.9ZM895.66,744.9l-2.1-3.3,20.88-13.32v-7.92h-18.36v-3.9h40.86v3.9h-18.3v7.92l20.88,13.32-2.1,3.3-20.88-13.32-20.88,13.32Z"/><path class="cls-3" d="M943,757.26v-6.66h6.66v6.66h-6.66Z"/><path class="cls-3" d="M97.97,815.28v-10.32h4.2v10.8l11.22,12.36-2.94,2.58-10.56-11.58-10.62,11.58-2.94-2.58,11.64-12.84ZM97.67,844.02c0-3.16,1.49-5.59,4.47-7.29,2.98-1.7,7.25-2.55,12.81-2.55s9.83.85,12.81,2.55c2.98,1.7,4.47,4.13,4.47,7.29s-1.49,5.59-4.47,7.29c-2.98,1.7-7.25,2.55-12.81,2.55s-9.83-.85-12.81-2.55c-2.98-1.7-4.47-4.13-4.47-7.29ZM101.75,844.02c0,1.96,1.14,3.46,3.42,4.5,2.28,1.04,5.54,1.56,9.78,1.56s7.5-.52,9.78-1.56c2.28-1.04,3.42-2.54,3.42-4.5s-1.14-3.46-3.42-4.5c-2.28-1.04-5.54-1.56-9.78-1.56s-7.5.52-9.78,1.56c-2.28,1.04-3.42,2.54-3.42,4.5ZM115.91,805.62h-3.9v-3.9h8.1v12.96h6.84v-12.96h4.2v30.96h-4.2v-14.1h-6.84v14.1h-4.2v-27.06Z"/><path class="cls-3" d="M184.85,833.7h-47.46v-3.9h21.66v-8.64h4.2v8.64h21.6v3.9ZM142.97,824.7l-1.86-3.42,17.94-10.38v-3.06h-16.08v-3.9h35.94v3.9h-15.66v3.06l17.58,10.2-1.86,3.42-17.82-10.38-18.18,10.56ZM144.11,853.2v-15h4.2v11.1h31.14v3.9h-35.34Z"/><path class="cls-3" d="M235.49,828.78h-48.24v-3.9h48.24v3.9ZM225.29,837.24h-31.74v-3.9h35.94v12.54h-31.74v5.04h33.36v3.9h-37.56v-12.84h31.74v-4.74ZM194.39,811.68c0-1.84.72-3.47,2.16-4.89,1.44-1.42,3.45-2.53,6.03-3.33,2.58-.8,5.53-1.2,8.85-1.2s6.32.4,8.88,1.2c2.56.8,4.56,1.91,6,3.33,1.44,1.42,2.16,3.05,2.16,4.89s-.72,3.48-2.16,4.92c-1.44,1.44-3.44,2.56-6,3.36-2.56.8-5.52,1.2-8.88,1.2s-6.27-.4-8.85-1.2c-2.58-.8-4.59-1.92-6.03-3.36-1.44-1.44-2.16-3.08-2.16-4.92ZM198.59,811.68c0,1.08.55,2.05,1.65,2.91,1.1.86,2.61,1.53,4.53,2.01,1.92.48,4.14.72,6.66.72s4.75-.24,6.69-.72c1.94-.48,3.45-1.15,4.53-2.01s1.62-1.83,1.62-2.91-.54-2.03-1.62-2.85c-1.08-.82-2.59-1.46-4.53-1.92-1.94-.46-4.17-.69-6.69-.69s-4.74.23-6.66.69c-1.92.46-3.43,1.1-4.53,1.92-1.1.82-1.65,1.77-1.65,2.85Z"/><path class="cls-3" d="M285.71,835.08h-14.22v-3.9h37.8v-26.76h-4.08v-3.9h8.28v53.16h-4.2v-18.6h-19.38v18.6h-4.2v-18.6ZM274.97,814.5c0-2.2.55-4.15,1.65-5.85,1.1-1.7,2.61-3.03,4.53-3.99,1.92-.96,4.14-1.44,6.66-1.44,2.48.08,4.68.62,6.6,1.62s3.42,2.33,4.5,3.99c1.08,1.66,1.62,3.55,1.62,5.67s-.54,4.13-1.62,5.79c-1.08,1.66-2.58,2.96-4.5,3.9-1.92.94-4.12,1.41-6.6,1.41s-4.74-.47-6.66-1.41c-1.92-.94-3.43-2.24-4.53-3.9-1.1-1.66-1.65-3.59-1.65-5.79ZM279.17,814.5c0,2.08.8,3.8,2.4,5.16,1.6,1.36,3.68,2.04,6.24,2.04s4.52-.68,6.12-2.04c1.6-1.36,2.4-3.08,2.4-5.16s-.8-3.93-2.4-5.31c-1.6-1.38-3.64-2.07-6.12-2.07s-4.64.69-6.24,2.07c-1.6,1.38-2.4,3.15-2.4,5.31Z"/><path class="cls-3" d="M351.17,811.98h-29.76v-3.9h12.48v-6.12h4.2v6.12h13.08v3.9ZM324.05,825c0-2,.53-3.77,1.59-5.31,1.06-1.54,2.53-2.75,4.41-3.63,1.88-.88,4.02-1.32,6.42-1.32s4.52.44,6.36,1.32c1.84.88,3.28,2.09,4.32,3.63,1.04,1.54,1.56,3.31,1.56,5.31s-.52,3.78-1.56,5.34c-1.04,1.56-2.48,2.78-4.32,3.66-1.84.88-3.96,1.32-6.36,1.32s-4.54-.44-6.42-1.32c-1.88-.88-3.35-2.1-4.41-3.66-1.06-1.56-1.59-3.34-1.59-5.34ZM328.25,825.06c0,1.84.77,3.36,2.31,4.56,1.54,1.2,3.51,1.8,5.91,1.8s4.29-.58,5.79-1.74,2.25-2.66,2.25-4.5-.75-3.49-2.25-4.71c-1.5-1.22-3.43-1.83-5.79-1.83s-4.37.6-5.91,1.8c-1.54,1.2-2.31,2.74-2.31,4.62ZM329.21,854.1v-15h4.2v11.1h32.4v3.9h-36.6ZM357.53,804.96h-3.9v-3.9h8.1v18.78h8.64v3.9h-8.64v18.66h-4.2v-37.44Z"/><path class="cls-3" d="M430.49,806.82c.2,5.4-.65,10.47-2.55,15.21-1.9,4.74-4.68,8.98-8.34,12.72-3.66,3.74-8.05,6.85-13.17,9.33l-1.8-3.78c4.32-2.08,8.03-4.65,11.13-7.71,3.1-3.06,5.54-6.45,7.32-10.17,1.78-3.72,2.81-7.62,3.09-11.7h-19.62v-3.9h23.94ZM439.49,804.96h-3.9v-3.9h8.1v22.5h9.12v3.9h-9.12v27.42h-4.2v-49.92Z"/><path class="cls-3" d="M457.37,828.9l-2.64-2.88,13.14-12.18v-10.44h4.2v10.44l13.14,12.18-2.64,2.88-12.6-11.7-12.6,11.7ZM463.97,854.82v-13.74h29.34v-4.92h-29.4v-3.9h33.6v12.72h-29.34v5.94h31.8v3.9h-36ZM493.01,815.4h-12.72v-3.9h12.72v-5.88h-3.9v-3.9h8.1v27.66h-4.2v-13.98Z"/><path class="cls-3" d="M506.21,824.7c0-3.48.54-6.49,1.62-9.03s2.63-4.5,4.65-5.88c2.02-1.38,4.41-2.07,7.17-2.07,2.72.08,5.08.83,7.08,2.25,2,1.42,3.54,3.38,4.62,5.88s1.62,5.45,1.62,8.85-.54,6.42-1.62,8.94c-1.08,2.52-2.62,4.46-4.62,5.82-2,1.36-4.36,2.04-7.08,2.04s-5.15-.68-7.17-2.04c-2.02-1.36-3.57-3.3-4.65-5.82-1.08-2.52-1.62-5.5-1.62-8.94ZM510.41,824.7c0,3.96.83,7.1,2.49,9.42,1.66,2.32,3.91,3.48,6.75,3.48s5.02-1.16,6.66-3.48c1.64-2.32,2.46-5.46,2.46-9.42s-.82-7.23-2.46-9.57c-1.64-2.34-3.86-3.51-6.66-3.51s-5.09,1.17-6.75,3.51c-1.66,2.34-2.49,5.53-2.49,9.57ZM547.25,854.34h-4.2v-49.38h-3.9v-3.9h8.1v53.28Z"/><path class="cls-3" d="M635.51,848.28h-48.72v-3.9h22.2v-12.9h4.2v12.9h22.32v3.9ZM592.61,835.08l-2.1-3.3,18.48-12.72v-8.46h-16.2v-3.9h36.48v3.9h-16.08v8.46l18.48,12.72-2.1,3.3-18.48-12.72-18.48,12.72Z"/><path class="cls-3" d="M640.73,831.78l-2.76-2.82,13.74-12.84v-7.86h-11.82v-3.9h27.78v3.9h-11.76v7.8l14.1,11.7-2.64,2.82-13.5-11.1-13.14,12.3ZM676.55,839.88h-31.26v-3.9h35.46v18.9h-4.2v-15ZM676.55,804.9h-3.9v-3.9h8.1v31.92h-4.2v-28.02Z"/><path class="cls-3" d="M710.27,832.14h-22.74v-3.9h47.46v3.9h-20.52v10.92h-4.2v-10.92ZM730.49,853.8h-36.18v-16.02h4.2v12.12h31.98v3.9ZM729.23,822.06h-33.96v-19.02h33.96v19.02ZM699.46,806.94v11.22h25.56v-11.22h-25.56Z"/><path class="cls-3" d="M778.97,854.88h-4.2v-9.96h-36.66v-3.9h14.22v-5.64c-1.92-.32-3.64-.96-5.16-1.92-1.52-.96-2.72-2.17-3.6-3.63-.88-1.46-1.32-3.05-1.32-4.77,0-1.96.55-3.73,1.65-5.31,1.1-1.58,2.59-2.84,4.47-3.78,1.88-.94,3.96-1.41,6.24-1.41s4.33.47,6.15,1.41c1.82.94,3.27,2.2,4.35,3.78,1.08,1.58,1.62,3.35,1.62,5.31,0,1.76-.45,3.38-1.35,4.86-.9,1.48-2.11,2.7-3.63,3.66-1.52.96-3.26,1.58-5.22,1.86v5.58h18.24v-36.3h-3.9v-3.9h8.1v24.12h8.82v3.9h-8.82v26.04ZM769.61,811.98h-31.08v-3.78h13.92v-7.44h4.08v7.44h13.08v3.78ZM746.45,825.12c0,1.2.36,2.3,1.08,3.3.72,1,1.7,1.79,2.94,2.37,1.24.58,2.62.87,4.14.87s2.82-.28,4.02-.84c1.2-.56,2.15-1.33,2.85-2.31.7-.98,1.05-2.07,1.05-3.27,0-1.28-.35-2.43-1.05-3.45-.7-1.02-1.65-1.83-2.85-2.43s-2.54-.9-4.02-.9-2.9.3-4.14.9c-1.24.6-2.22,1.4-2.94,2.4-.72,1-1.08,2.12-1.08,3.36Z"/><path class="cls-3" d="M791.21,816.54c0-2.32.57-4.42,1.71-6.3,1.14-1.88,2.68-3.38,4.62-4.5,1.94-1.12,4.11-1.68,6.51-1.68,2.4.08,4.56.7,6.48,1.86s3.44,2.66,4.56,4.5c1.12,1.84,1.68,3.88,1.68,6.12s-.56,4.35-1.68,6.21c-1.12,1.86-2.64,3.34-4.56,4.44-1.92,1.1-4.08,1.65-6.48,1.65s-4.57-.55-6.51-1.65c-1.94-1.1-3.48-2.58-4.62-4.44-1.14-1.86-1.71-3.93-1.71-6.21ZM795.41,816.54c0,1.56.38,2.98,1.14,4.26s1.8,2.29,3.12,3.03c1.32.74,2.78,1.11,4.38,1.11s3.04-.37,4.32-1.11c1.28-.74,2.3-1.75,3.06-3.03s1.14-2.7,1.14-4.26-.38-3.05-1.14-4.35c-.76-1.3-1.78-2.33-3.06-3.09-1.28-.76-2.72-1.14-4.32-1.14s-3.06.38-4.38,1.14-2.36,1.79-3.12,3.09c-.76,1.3-1.14,2.75-1.14,4.35ZM832.37,854.7h-33.96v-21.3h4.2v6.3h25.56v-6.3h4.2v21.3ZM802.61,843.6v7.2h25.56v-7.2h-25.56ZM828.11,804.12h-3.9v-3.6h8.1v29.94h-4.2v-26.34Z"/><path class="cls-3" d="M877.42,839.1h-34.74l.12-33.66h4.2l-.12,29.76h30.54v-30.54h-3.3v-3.6h7.5v53.28h-4.2v-15.24Z"/><path class="cls-3" d="M925.78,839.76h-33.78l.12-29.46v-2.22h24.18v3.9h-19.98l-.12,23.88h29.58v-31.2h-3.9v-3.9h8.1v21.3h9.24v3.9h-9.24v28.02h-4.2v-14.22Z"/><path class="cls-3" d="M939.94,847.44v-6.66h6.66v6.66h-6.66Z"/><path class="cls-3" d="M123.41,921.11h-34.14v-24.72h23.4v3.9h-19.2v16.92h29.94v-21.18h-3.9v-3.9h8.1v15.6h8.7v3.9h-8.7v18.96h-4.2v-9.48ZM130.55,944.39h-35.58v-17.58h4.2v13.68h31.38v3.9Z"/><path class="cls-3" d="M140.51,933.41l-3-2.64,13.86-15.78v-13.92h-12.12v-3.9h28.62v3.9h-12.3v13.92l13.86,15.78-3,2.64-12.96-14.7-12.96,14.7ZM180.47,944.51h-4.2v-49.38h-3.9v-3.9h8.1v53.28Z"/><path class="cls-3" d="M263.15,926.51h-4.2v-17.88h-12.42v9.78h-23.4v-22.8h23.4v9.12h12.42v-9.9h-3.9v-3.6h8.1v35.28ZM227.51,944.69l-2.22-3.24,18.66-11.7v-5.94h4.2v6l18.78,11.82-2.22,3.24-18.72-11.76-18.48,11.58ZM227.33,899.51v15h15v-15h-15Z"/><path class="cls-3" d="M273.47,923.27l-2.7-2.82,13.8-13.26v-7.74h-12.06v-3.9h28.38v3.9h-12.12v8.1l13.86,12.9-2.7,2.82-13.5-12.48-12.96,12.48ZM280.25,943.97v-17.1h4.2v13.2h31.86v3.9h-36.06ZM309.35,894.53h-3.9v-3.6h8.1v39.48h-4.2v-35.88Z"/><path class="cls-3" d="M389.81,921.11h-34.14v-24.72h23.4v3.9h-19.2v16.92h29.94v-21.18h-3.9v-3.9h8.1v15.6h8.7v3.9h-8.7v18.96h-4.2v-9.48ZM396.95,944.39h-35.58v-17.58h4.2v13.68h31.38v3.9Z"/><path class="cls-3" d="M446.87,945.35h-4.2v-29.16h-12.54c-.24,4.84-1.45,8.55-3.63,11.13-2.18,2.58-5.19,3.87-9.03,3.87-4.12,0-7.29-1.45-9.51-4.35-2.22-2.9-3.33-7.05-3.33-12.45s1.11-9.68,3.33-12.6c2.22-2.92,5.39-4.38,9.51-4.38,3.8.16,6.79,1.52,8.97,4.08,2.18,2.56,3.41,6.16,3.69,10.8h12.54v-16.56h-3.9v-3.9h8.1v53.52ZM408.83,914.39c0,4.12.75,7.3,2.25,9.54s3.63,3.36,6.39,3.36,4.82-1.12,6.3-3.36c1.48-2.24,2.22-5.42,2.22-9.54s-.74-7.43-2.22-9.69c-1.48-2.26-3.58-3.39-6.3-3.39s-4.89,1.13-6.39,3.39c-1.5,2.26-2.25,5.49-2.25,9.69Z"/><path class="cls-3" d="M488.21,944.39h-4.2v-28.92h-7.14c-.4,9.36-4.22,14.04-11.46,14.04-7.76,0-11.64-5.3-11.64-15.9s3.88-16.08,11.64-16.08c7.16.24,10.98,4.92,11.46,14.04h7.14v-16.74h-3.9v-3.9h8.1v53.46ZM457.97,913.61c0,8,2.48,12,7.44,12s7.32-4,7.32-12-2.44-12.18-7.32-12.18-7.44,4.06-7.44,12.18ZM498.71,944.39h-4.2v-53.46h4.2v53.46Z"/><path class="cls-3" d="M547.97,905.45v-10.32h4.2v10.8l11.22,12.36-2.94,2.58-10.56-11.58-10.62,11.58-2.94-2.58,11.64-12.84ZM547.67,934.19c0-3.16,1.49-5.59,4.47-7.29,2.98-1.7,7.25-2.55,12.81-2.55s9.83.85,12.81,2.55c2.98,1.7,4.47,4.13,4.47,7.29s-1.49,5.59-4.47,7.29c-2.98,1.7-7.25,2.55-12.81,2.55s-9.83-.85-12.81-2.55c-2.98-1.7-4.47-4.13-4.47-7.29ZM551.75,934.19c0,1.96,1.14,3.46,3.42,4.5,2.28,1.04,5.54,1.56,9.78,1.56s7.5-.52,9.78-1.56c2.28-1.04,3.42-2.54,3.42-4.5s-1.14-3.46-3.42-4.5c-2.28-1.04-5.54-1.56-9.78-1.56s-7.5.52-9.78,1.56c-2.28,1.04-3.42,2.54-3.42,4.5ZM565.91,895.79h-3.9v-3.9h8.1v12.96h6.84v-12.96h4.2v30.96h-4.2v-14.1h-6.84v14.1h-4.2v-27.06Z"/><path class="cls-3" d="M634.85,923.87h-47.46v-3.9h21.66v-8.64h4.2v8.64h21.6v3.9ZM592.97,914.87l-1.86-3.42,17.94-10.38v-3.06h-16.08v-3.9h35.94v3.9h-15.66v3.06l17.58,10.2-1.86,3.42-17.82-10.38-18.18,10.56ZM594.11,943.37v-15h4.2v11.1h31.14v3.9h-35.34Z"/><path class="cls-3" d="M685.49,918.95h-48.24v-3.9h48.24v3.9ZM675.29,927.41h-31.74v-3.9h35.94v12.54h-31.74v5.04h33.36v3.9h-37.56v-12.84h31.74v-4.74ZM644.39,901.85c0-1.84.72-3.47,2.16-4.89,1.44-1.42,3.45-2.53,6.03-3.33,2.58-.8,5.53-1.2,8.85-1.2s6.32.4,8.88,1.2c2.56.8,4.56,1.91,6,3.33,1.44,1.42,2.16,3.05,2.16,4.89s-.72,3.48-2.16,4.92-3.44,2.56-6,3.36c-2.56.8-5.52,1.2-8.88,1.2s-6.27-.4-8.85-1.2c-2.58-.8-4.59-1.92-6.03-3.36-1.44-1.44-2.16-3.08-2.16-4.92ZM648.59,901.85c0,1.08.55,2.05,1.65,2.91,1.1.86,2.61,1.53,4.53,2.01,1.92.48,4.14.72,6.66.72s4.75-.24,6.69-.72c1.94-.48,3.45-1.15,4.53-2.01s1.62-1.83,1.62-2.91-.54-2.03-1.62-2.85c-1.08-.82-2.59-1.46-4.53-1.92-1.94-.46-4.17-.69-6.69-.69s-4.74.23-6.66.69c-1.92.46-3.43,1.1-4.53,1.92-1.1.82-1.65,1.77-1.65,2.85Z"/><path class="cls-3" d="M746.33,917.21h-23.4v-21.6h23.4v21.6ZM727.12,899.51v13.8h15v-13.8h-15ZM762.52,943.67h-32.22v-21.72h31.02v3.9h-26.82v4.8h26.16v3.9h-26.16v5.22h28.02v3.9ZM756.83,894.53h-3.9v-3.6h8.1v13.86h7.98v3.9h-7.98v10.56h-4.2v-24.72Z"/><path class="cls-3" d="M773.57,916.97c1.76-.36,3.72-1.06,5.88-2.1,2.16-1.04,4.28-2.37,6.36-3.99,2.08-1.62,3.92-3.48,5.52-5.58,1.6-2.1,2.7-4.41,3.3-6.93h-19.44v-4.2h23.46c0,3.76-.71,7.15-2.13,10.17s-3.29,5.63-5.61,7.83c-2.32,2.2-4.86,4.01-7.62,5.43s-5.46,2.43-8.1,3.03l-1.62-3.66ZM817.07,944.75h-37.02v-13.56h30.24v-5.16h-30.36v-3.9h34.56v12.96h-30.24v5.76h32.82v3.9ZM810.29,896.03h-3.9v-3.9h8.1v27.12h-4.2v-23.22Z"/><path class="cls-3" d="M880.24,932.45h-4.2v-10.98h-22.26v-3.9h47.46v3.9h-21v10.98ZM859.36,913.31l-1.86-3.42,17.94-10.38v-7.2h4.2v7.2l17.58,10.2-1.86,3.42-17.82-10.38-18.18,10.56ZM896.32,943.37h-35.82v-15h4.2v11.1h31.62v3.9Z"/><path class="cls-3" d="M87.59,997.07c0-2.44.54-4.59,1.62-6.45s2.59-3.32,4.53-4.38c1.94-1.06,4.15-1.59,6.63-1.59,3.32,0,6.1.93,8.34,2.79,2.24,1.86,3.58,4.33,4.02,7.41h12.3v-8.88h-3.9v-3.9h8.1v28.8h-4.2v-12.12h-12.18c-.36,3.36-1.67,6.06-3.93,8.1-2.26,2.04-5.11,3.06-8.55,3.06-2.48,0-4.69-.55-6.63-1.65-1.94-1.1-3.45-2.61-4.53-4.53-1.08-1.92-1.62-4.14-1.62-6.66ZM91.79,997.13c0,2.6.79,4.73,2.37,6.39,1.58,1.66,3.61,2.49,6.09,2.49s4.51-.84,6.09-2.52c1.58-1.68,2.37-3.82,2.37-6.42s-.77-4.52-2.31-6.12c-1.54-1.6-3.55-2.4-6.03-2.4s-4.58.8-6.18,2.4c-1.6,1.6-2.4,3.66-2.4,6.18ZM122.57,1025.03l-9.06,9.9-.18-.18v.18h-20.58v-21.42h4.2v6.96h10.8v-6.96h4.2l.06,17.52,8.34-9.18v-8.82h4.2v8.7l11.46,10.74-2.82,2.46-10.62-9.9ZM96.95,1024.37v6.66h10.8v-6.66h-10.8Z"/><path class="cls-3" d="M184.85,1010.33h-47.46v-3.9h47.46v3.9ZM142.37,1002.05l-1.86-3.42,18.54-10.02v-7.14h4.2v7.14l18.18,9.84-1.86,3.42-18.42-9.96-18.78,10.14ZM179.39,1034.57h-36.48v-20.04h4.2v6.3h28.08v-6.3h4.2v20.04ZM147.11,1024.73v5.94h28.08v-5.94h-28.08Z"/><path class="cls-3" d="M225.83,1019.45h-34.74l.12-33.66h4.2l-.12,29.76h30.54v-30.54h-3.3v-3.6h7.5v53.28h-4.2v-15.24Z"/><path class="cls-3" d="M274.19,1020.11h-33.78l.12-29.46v-2.22h24.18v3.9h-19.98l-.12,23.88h29.58v-31.2h-3.9v-3.9h8.1v21.3h9.24v3.9h-9.24v28.02h-4.2v-14.22Z"/><path class="cls-3" d="M288.35,1027.79v-6.66h6.66v6.66h-6.66Z"/><path class="cls-3" d="M363.65,1016.69h-22.26v-3.9h48.66v3.9h-22.2v18.54h-4.2v-18.54ZM365.75,1007.33c-2.8,0-5.34-.55-7.62-1.65-2.28-1.1-4.09-2.57-5.43-4.41-1.34-1.84-2.01-3.9-2.01-6.18s.67-4.33,2.01-6.15c1.34-1.82,3.15-3.27,5.43-4.35,2.28-1.08,4.82-1.62,7.62-1.62s5.39.54,7.65,1.62c2.26,1.08,4.06,2.53,5.4,4.35,1.34,1.82,2.01,3.87,2.01,6.15s-.67,4.34-2.01,6.18c-1.34,1.84-3.14,3.31-5.4,4.41-2.26,1.1-4.81,1.65-7.65,1.65ZM354.89,995.09c0,1.56.48,2.97,1.44,4.23.96,1.26,2.27,2.26,3.93,3,1.66.74,3.49,1.11,5.49,1.11s3.88-.37,5.52-1.11c1.64-.74,2.94-1.74,3.9-3,.96-1.26,1.44-2.67,1.44-4.23s-.48-2.96-1.44-4.2c-.96-1.24-2.26-2.22-3.9-2.94-1.64-.72-3.48-1.08-5.52-1.08s-3.83.36-5.49,1.08c-1.66.72-2.97,1.7-3.93,2.94-.96,1.24-1.44,2.64-1.44,4.2Z"/><path class="cls-3" d="M435.59,1021.43h-4.2v-8.1h-36.18v-15.9h19.68v-7.44h-20.1v-3.9h24.3v15.24h-19.68v8.1h31.98v-23.22h-3.9v-3.9h8.1v39.12ZM437.81,1034.33h-36.36v-15.84h4.2v11.94h32.16v3.9Z"/><path class="cls-3" d="M511.61,1009.37h-34.14v-23.7h23.76v3.9h-19.56v15.9h29.94v-19.56h-3.9v-3.9h8.1v13.98h8.52v3.9h-8.52v13.38h-4.2v-3.9ZM481.85,1025.21c0-3.08,1.57-5.52,4.71-7.32,3.14-1.8,7.39-2.7,12.75-2.7,5.36-.04,9.62.84,12.78,2.64,3.16,1.8,4.74,4.26,4.74,7.38s-1.58,5.52-4.74,7.32c-3.16,1.8-7.42,2.7-12.78,2.7s-9.61-.9-12.75-2.7c-3.14-1.8-4.71-4.24-4.71-7.32ZM486.05,1025.21c0,1.88,1.19,3.37,3.57,4.47,2.38,1.1,5.61,1.65,9.69,1.65s7.32-.55,9.72-1.65c2.4-1.1,3.6-2.59,3.6-4.47s-1.2-3.37-3.6-4.47c-2.4-1.1-5.64-1.65-9.72-1.65s-7.31.55-9.69,1.65c-2.38,1.1-3.57,2.59-3.57,4.47Z"/><path class="cls-3" d="M528.41,1012.67l-2.7-2.82,13.2-13.86v-10.98h4.2v11.4l13.26,12.84-2.7,2.82-12.84-12.42-12.42,13.02ZM570.77,1033.79h-35.76v-17.28h4.2v13.38h31.56v3.9ZM568.61,1021.13h-4.2v-36.12h-3.9v-3.6h8.1v39.72Z"/><path class="cls-3" d="M577.67,1005.05c0-3.48.54-6.49,1.62-9.03s2.63-4.5,4.65-5.88c2.02-1.38,4.41-2.07,7.17-2.07,2.72.08,5.08.83,7.08,2.25,2,1.42,3.54,3.38,4.62,5.88s1.62,5.45,1.62,8.85-.54,6.42-1.62,8.94c-1.08,2.52-2.62,4.46-4.62,5.82-2,1.36-4.36,2.04-7.08,2.04s-5.15-.68-7.17-2.04c-2.02-1.36-3.57-3.3-4.65-5.82-1.08-2.52-1.62-5.5-1.62-8.94ZM581.87,1005.05c0,3.96.83,7.1,2.49,9.42,1.66,2.32,3.91,3.48,6.75,3.48s5.02-1.16,6.66-3.48c1.64-2.32,2.46-5.46,2.46-9.42s-.82-7.23-2.46-9.57c-1.64-2.34-3.86-3.51-6.66-3.51s-5.09,1.17-6.75,3.51c-1.66,2.34-2.49,5.53-2.49,9.57ZM618.71,1034.69h-4.2v-49.38h-3.9v-3.9h8.1v53.28Z"/><path class="cls-3" d="M661.73,1013.45l-2.7-2.82,13.8-13.26v-7.74h-12.06v-3.9h28.38v3.9h-12.12v8.1l13.86,12.9-2.7,2.82-13.5-12.48-12.96,12.48ZM668.51,1034.15v-17.1h4.2v13.2h31.86v3.9h-36.06ZM697.61,984.71h-3.9v-3.6h8.1v39.48h-4.2v-35.88Z"/><path class="cls-3" d="M717.11,991.43h-6.84v-3.9h30.9v3.9h-6.42v17.28l9.36,11.4-2.7,2.7-8.64-10.38-6.78,9.12-6.9-9.18-8.7,10.44-2.58-2.7,9.3-11.46v-17.22ZM721.31,991.43v17.46l4.68,6.18,4.56-6.12v-17.52h-9.24ZM746.75,985.79h-3.9v-3.6h8.1v20.46h8.1v3.9h-8.1v28.08h-4.2v-48.84Z"/><path class="cls-3" d="M818.08,1006.85h-23.4v-22.02h23.4v22.02ZM798.88,988.73v14.22h15v-14.22h-15ZM835.25,1034.15h-35.04v-13.86h28.32v-5.04h-28.32v-3.72h32.52v12.66h-28.32v6.06h30.84v3.9ZM832.84,1008.95h-4.2v-23.94h-3.9v-3.9h8.1v12.12h7.38v3.9h-7.38v11.82Z"/><path class="cls-3" d="M872.86,995.09h-30.54v-3.9h13.2v-8.82h4.2v8.82h13.14v3.9ZM857.62,1022.81c-2.32,0-4.42-.52-6.3-1.56-1.88-1.04-3.37-2.43-4.47-4.17-1.1-1.74-1.65-3.69-1.65-5.85s.55-4.17,1.65-5.91c1.1-1.74,2.59-3.13,4.47-4.17,1.88-1.04,3.98-1.56,6.3-1.56s4.35.52,6.21,1.56,3.33,2.43,4.41,4.17c1.08,1.74,1.62,3.71,1.62,5.91s-.54,4.11-1.62,5.85-2.55,3.13-4.41,4.17c-1.86,1.04-3.93,1.56-6.21,1.56ZM849.4,1011.35c0,1.4.36,2.68,1.08,3.84.72,1.16,1.71,2.07,2.97,2.73s2.65.99,4.17.99,2.88-.33,4.08-.99,2.16-1.56,2.88-2.7c.72-1.14,1.08-2.39,1.08-3.75,0-1.48-.36-2.82-1.08-4.02s-1.68-2.16-2.88-2.88c-1.2-.72-2.56-1.08-4.08-1.08s-2.91.35-4.17,1.05c-1.26.7-2.25,1.64-2.97,2.82-.72,1.18-1.08,2.51-1.08,3.99ZM877.6,985.31h-3.9v-3.9h8.1v21.66h10.8v3.9h-10.8v27.72h-4.2v-49.38Z"/><path class="cls-3" d="M939.82,1028.15h-46.5v-3.9h18.54v-19.02h4.2v19.02h13.26v-33.9h-29.88v-3.9h34.08v37.8h6.3v3.9Z"/><path class="cls-3" d="M958.18,992.27h-12.42v-3.9h28.98v3.9h-12.36v12.84l14.28,17.4-3,2.46-13.32-16.2-12.84,16.2-3.06-2.4,13.74-17.34v-12.96ZM982.3,985.49h-3.9v-3.9h8.1v21.54h9.78v3.9h-9.78v27.84h-4.2v-49.38Z"/><path class="cls-3" d="M117.41,1085.26h-30.54v-3.9h13.2v-8.82h4.2v8.82h13.14v3.9ZM102.17,1112.98c-2.32,0-4.42-.52-6.3-1.56-1.88-1.04-3.37-2.43-4.47-4.17-1.1-1.74-1.65-3.69-1.65-5.85s.55-4.17,1.65-5.91c1.1-1.74,2.59-3.13,4.47-4.17,1.88-1.04,3.98-1.56,6.3-1.56s4.35.52,6.21,1.56c1.86,1.04,3.33,2.43,4.41,4.17,1.08,1.74,1.62,3.71,1.62,5.91s-.54,4.11-1.62,5.85-2.55,3.13-4.41,4.17c-1.86,1.04-3.93,1.56-6.21,1.56ZM93.95,1101.52c0,1.4.36,2.68,1.08,3.84.72,1.16,1.71,2.07,2.97,2.73s2.65.99,4.17.99,2.88-.33,4.08-.99,2.16-1.56,2.88-2.7c.72-1.14,1.08-2.39,1.08-3.75,0-1.48-.36-2.82-1.08-4.02-.72-1.2-1.68-2.16-2.88-2.88-1.2-.72-2.56-1.08-4.08-1.08s-2.91.35-4.17,1.05c-1.26.7-2.25,1.64-2.97,2.82-.72,1.18-1.08,2.51-1.08,3.99ZM122.15,1075.48h-3.9v-3.9h8.1v21.66h10.8v3.9h-10.8v27.72h-4.2v-49.38Z"/><path class="cls-3" d="M184.97,1102.6h-47.88v-3.9h47.88v3.9ZM180.05,1123.72h-36.9v-15.54h4.2v11.64h32.7v3.9ZM178.43,1091.56h-33.84v-18.36h4.2v14.46h29.64v3.9Z"/><path class="cls-3" d="M241.91,1088.68c-1.68,2.24-3.64,4.18-5.88,5.82-2.24,1.64-4.54,2.96-6.9,3.96-2.36,1-4.58,1.74-6.66,2.22l-1.62-3.66c2.2-.48,4.42-1.25,6.66-2.31,2.24-1.06,4.35-2.38,6.33-3.96,1.98-1.58,3.69-3.37,5.13-5.37,1.44-2,2.44-4.16,3-6.48h-18.66v-4.08h23.16c0,1.88-.2,3.65-.6,5.31-.4,1.66-.94,3.21-1.62,4.65h15.24v-8.4h-3.9v-3.9h8.1v27.72h-4.2v-11.52h-17.58ZM259.61,1106.38h-29.88v-3.9h33.96v12.96h-29.76v5.76h31.74v3.9h-35.82v-13.56h29.76v-5.16Z"/><path class="cls-3" d="M316.01,1081.6h-11.4v-3.9h11.4v-6.42h4.2v6.42h11.4v3.9h-11.4v5.22l12.84,11.34-2.7,2.82-12.3-10.86-12.96,11.4-2.7-2.82,13.62-11.94v-5.16ZM310.31,1125.1l-2.04-3.3,17.4-10.14v-2.46h-15.36v-3.9h34.26v3.9h-14.7v2.52l17.28,10.08-2.04,3.3-17.4-10.14-17.4,10.14ZM339.35,1075.72h-3.9v-3.9h8.1v12.9h7.92v3.9h-7.92v13.74h-4.2v-26.64Z"/><path class="cls-3" d="M354.23,1094.26c0-5.48,1.11-9.68,3.33-12.6,2.22-2.92,5.39-4.38,9.51-4.38,4.08.16,7.22,1.71,9.42,4.65,2.2,2.94,3.3,7.05,3.3,12.33s-1.1,9.55-3.3,12.45c-2.2,2.9-5.34,4.35-9.42,4.35s-7.29-1.45-9.51-4.35c-2.22-2.9-3.33-7.05-3.33-12.45ZM358.43,1094.26c0,4.12.75,7.3,2.25,9.54,1.5,2.24,3.63,3.36,6.39,3.36s4.82-1.12,6.3-3.36c1.48-2.24,2.22-5.42,2.22-9.54s-.74-7.43-2.22-9.69c-1.48-2.26-3.58-3.39-6.3-3.39s-4.89,1.13-6.39,3.39-2.25,5.49-2.25,9.69ZM393.47,1125.7h-4.2v-49.62h-3.9v-3.9h8.1v21.48h9.66v3.9h-9.66v28.14Z"/><path class="cls-3" d="M432.83,1097.38h-26.7v-21h4.2v17.1h22.5v-16.98h-3.9v-3.9h8.1v13.62h6.9v-13.62h4.2v28.92h-4.2v-11.4h-6.9v11.4h-4.2v-4.14ZM413.75,1125.22v-21.06h4.2v6.18h26.22v-6.18h4.2v21.06h-34.62ZM417.95,1114.24v7.08h26.22v-7.08h-26.22Z"/><path class="cls-3" d="M492.23,1109.62h-34.74l.12-33.66h4.2l-.12,29.76h30.54v-30.54h-3.3v-3.6h7.5v53.28h-4.2v-15.24Z"/><path class="cls-3" d="M540.59,1110.28h-33.78l.12-29.46v-2.22h24.18v3.9h-19.98l-.12,23.88h29.58v-31.2h-3.9v-3.9h8.1v21.3h9.24v3.9h-9.24v28.02h-4.2v-14.22Z"/><path class="cls-3" d="M554.75,1117.96v-6.66h6.66v6.66h-6.66Z"/><path class="cls-3" d="M656.57,1118.8h-48.72v-3.9h22.2v-12.9h4.2v12.9h22.32v3.9ZM613.67,1105.6l-2.1-3.3,18.48-12.72v-8.46h-16.2v-3.9h36.48v3.9h-16.08v8.46l18.48,12.72-2.1,3.3-18.48-12.72-18.48,12.72Z"/><path class="cls-3" d="M661.79,1102.3l-2.76-2.82,13.74-12.84v-7.86h-11.82v-3.9h27.78v3.9h-11.76v7.8l14.1,11.7-2.64,2.82-13.5-11.1-13.14,12.3ZM697.61,1110.4h-31.26v-3.9h35.46v18.9h-4.2v-15ZM697.61,1075.42h-3.9v-3.9h8.1v31.92h-4.2v-28.02Z"/><path class="cls-3" d="M747.71,1112.98h-38.34v-3.9h38.28l-.06-33.54h-3.96v-3.9h8.28v53.76h-4.2v-12.42ZM713.39,1088.86c0-2.2.59-4.2,1.77-6,1.18-1.8,2.76-3.25,4.74-4.35,1.98-1.1,4.13-1.65,6.45-1.65,2.32.08,4.45.69,6.39,1.83,1.94,1.14,3.5,2.6,4.68,4.38,1.18,1.78,1.77,3.71,1.77,5.79s-.59,4.08-1.77,5.88c-1.18,1.8-2.74,3.24-4.68,4.32-1.94,1.08-4.07,1.62-6.39,1.62s-4.47-.54-6.45-1.62c-1.98-1.08-3.56-2.52-4.74-4.32-1.18-1.8-1.77-3.76-1.77-5.88ZM717.59,1088.86c0,1.4.4,2.7,1.2,3.9.8,1.2,1.87,2.16,3.21,2.88,1.34.72,2.79,1.08,4.35,1.08s3-.36,4.32-1.08c1.32-.72,2.37-1.68,3.15-2.88.78-1.2,1.17-2.5,1.17-3.9,0-1.48-.39-2.83-1.17-4.05-.78-1.22-1.83-2.2-3.15-2.94s-2.76-1.11-4.32-1.11-3.01.37-4.35,1.11c-1.34.74-2.41,1.72-3.21,2.94-.8,1.22-1.2,2.57-1.2,4.05Z"/><path class="cls-3" d="M794.32,1102.36l-2.94-2.58,11.64-13.44v-10.98h4.2v11.52l11.22,12.9-2.94,2.58-10.56-12.18-10.62,12.18ZM831.82,1111.78h-31.02v-3.9h35.22v17.52h-4.2v-13.62ZM820.9,1077.16h-3.9v-3.9h8.1v13.02h7.02v-13.02h4.2v30.72h-4.2v-13.8h-7.02v13.8h-4.2v-26.82Z"/><path class="cls-3" d="M842.44,1094.62c2-1.52,3.71-2.98,5.13-4.38,1.42-1.4,2.59-3,3.51-4.8.92-1.8,1.6-4,2.04-6.6l-8.82.06v-3.9h27.84c-.12,3.96-.57,7.38-1.35,10.26s-2.01,5.48-3.69,7.8c-1.68,2.32-3.96,4.62-6.84,6.9l-2.82-2.7c2.2-1.76,3.99-3.51,5.37-5.25s2.47-3.67,3.27-5.79c.8-2.12,1.36-4.58,1.68-7.38h-10.38c-.4,2.4-.92,4.46-1.56,6.18-.64,1.72-1.43,3.26-2.37,4.62-.94,1.36-2.09,2.66-3.45,3.9-1.36,1.24-2.98,2.56-4.86,3.96l-2.7-2.88ZM886.36,1124.32h-35.88v-12.9h28.56v-4.8h-29.16v-3.9h33.36v12.6h-28.56v5.1h31.68v3.9ZM879.34,1075.18h-3.9v-3.9h8.1v12.48h7.92v3.9h-7.92v12.3h-4.2v-24.78Z"/><path class="cls-3" d="M940.54,1099.3h-48.24v-3.9h48.24v3.9ZM930.34,1107.76h-31.74v-3.9h35.94v12.54h-31.74v5.04h33.36v3.9h-37.56v-12.84h31.74v-4.74ZM899.44,1082.2c0-1.84.72-3.47,2.16-4.89,1.44-1.42,3.45-2.53,6.03-3.33,2.58-.8,5.53-1.2,8.85-1.2s6.32.4,8.88,1.2c2.56.8,4.56,1.91,6,3.33,1.44,1.42,2.16,3.05,2.16,4.89s-.72,3.48-2.16,4.92-3.44,2.56-6,3.36c-2.56.8-5.52,1.2-8.88,1.2s-6.27-.4-8.85-1.2c-2.58-.8-4.59-1.92-6.03-3.36-1.44-1.44-2.16-3.08-2.16-4.92ZM903.64,1082.2c0,1.08.55,2.05,1.65,2.91,1.1.86,2.61,1.53,4.53,2.01,1.92.48,4.14.72,6.66.72s4.75-.24,6.69-.72c1.94-.48,3.45-1.15,4.53-2.01s1.62-1.83,1.62-2.91-.54-2.03-1.62-2.85c-1.08-.82-2.59-1.46-4.53-1.92-1.94-.46-4.17-.69-6.69-.69s-4.74.23-6.66.69c-1.92.46-3.43,1.1-4.53,1.92-1.1.82-1.65,1.77-1.65,2.85Z"/><path class="cls-3" d="M100.01,1171.78h-11.4v-3.9h11.4v-6.42h4.2v6.42h11.4v3.9h-11.4v5.22l12.84,11.34-2.7,2.82-12.3-10.86-12.96,11.4-2.7-2.82,13.62-11.94v-5.16ZM94.31,1215.28l-2.04-3.3,17.4-10.14v-2.46h-15.36v-3.9h34.26v3.9h-14.7v2.52l17.28,10.08-2.04,3.3-17.4-10.14-17.4,10.14ZM123.35,1165.9h-3.9v-3.9h8.1v12.9h7.92v3.9h-7.92v13.74h-4.2v-26.64Z"/><path class="cls-3" d="M138.23,1184.44c0-5.48,1.11-9.68,3.33-12.6,2.22-2.92,5.39-4.38,9.51-4.38,4.08.16,7.22,1.71,9.42,4.65,2.2,2.94,3.3,7.05,3.3,12.33s-1.1,9.55-3.3,12.45c-2.2,2.9-5.34,4.35-9.42,4.35s-7.29-1.45-9.51-4.35c-2.22-2.9-3.33-7.05-3.33-12.45ZM142.43,1184.44c0,4.12.75,7.3,2.25,9.54,1.5,2.24,3.63,3.36,6.39,3.36s4.82-1.12,6.3-3.36c1.48-2.24,2.22-5.42,2.22-9.54s-.74-7.43-2.22-9.69c-1.48-2.26-3.58-3.39-6.3-3.39s-4.89,1.13-6.39,3.39-2.25,5.49-2.25,9.69ZM177.47,1215.88h-4.2v-49.62h-3.9v-3.9h8.1v21.48h9.66v3.9h-9.66v28.14Z"/><path class="cls-3" d="M220.07,1214.68h-4.2v-13.08h-26.04v-33.6h4.2v29.7h21.84v-32.1h-3.9v-3.9h8.1v21.9h8.58v-21.9h4.2v52.98h-4.2v-27.18h-8.58v27.18Z"/><path class="cls-3" d="M285.17,1208.5h-46.5v-3.9h18.54v-19.02h4.2v19.02h13.26v-33.9h-29.88v-3.9h34.08v37.8h6.3v3.9Z"/><path class="cls-3" d="M359.45,1203.16h-38.34v-3.9h38.28l-.06-33.54h-3.96v-3.9h8.28v53.76h-4.2v-12.42ZM325.13,1179.04c0-2.2.59-4.2,1.77-6,1.18-1.8,2.76-3.25,4.74-4.35,1.98-1.1,4.13-1.65,6.45-1.65,2.32.08,4.45.69,6.39,1.83,1.94,1.14,3.5,2.6,4.68,4.38,1.18,1.78,1.77,3.71,1.77,5.79s-.59,4.08-1.77,5.88c-1.18,1.8-2.74,3.24-4.68,4.32-1.94,1.08-4.07,1.62-6.39,1.62s-4.47-.54-6.45-1.62-3.56-2.52-4.74-4.32c-1.18-1.8-1.77-3.76-1.77-5.88ZM329.33,1179.04c0,1.4.4,2.7,1.2,3.9.8,1.2,1.87,2.16,3.21,2.88,1.34.72,2.79,1.08,4.35,1.08s3-.36,4.32-1.08c1.32-.72,2.37-1.68,3.15-2.88.78-1.2,1.17-2.5,1.17-3.9,0-1.48-.39-2.83-1.17-4.05-.78-1.22-1.83-2.2-3.15-2.94-1.32-.74-2.76-1.11-4.32-1.11s-3.01.37-4.35,1.11c-1.34.74-2.41,1.72-3.21,2.94-.8,1.22-1.2,2.57-1.2,4.05Z"/><path class="cls-3" d="M397.49,1200.04h-23.52v-32.22h23.52v32.22ZM378.17,1171.72v24.42h15.12v-24.42h-15.12ZM413.45,1215.04h-4.2v-49.38h-3.9v-3.9h8.1v53.28Z"/><path class="cls-3" d="M469.85,1191.28h-48.06v-3.9h48.06v3.9ZM463.67,1214.44h-35.34v-11.64h30.6v-3.6h-30.6v-3.9h34.8v11.1h-30.6v4.14h31.14v3.9ZM458.99,1167.94h-30.6v-3.9h34.8v11.22h-30.6v4.44h31.14v3.9h-35.34v-11.94h30.6v-3.72Z"/><path class="cls-3" d="M505.01,1201.96l-2.94-2.88,12.24-15.96v-15.9h4.2v15.84l11.7,16.02-3,2.88-10.8-14.04-11.4,14.04ZM548.99,1214.92h-4.2v-27.66h-7.98v27.66h-4.2v-49.56h-3.9v-3.9h8.1v21.9h7.98v-21.9h4.2v53.46Z"/><path class="cls-3" d="M592.43,1167.46h-31.14v-3.9h35.34v12.66h-31.14v4.86h32.22v3.9h-17.04v5.16h21.78v3.9h-47.4v-3.9h21.42v-5.16h-15.18v-12.66h31.14v-4.86ZM596.99,1215.52h-36.48v-18.84h4.2v5.28h28.08v-5.28h4.2v18.84ZM564.71,1205.86v5.76h28.08v-5.76h-28.08Z"/><path class="cls-3" d="M623.51,1172.5h-16.5v-3.9h20.7c.24,5.44-.54,10.48-2.34,15.12h9.12v-18.36h-3.9v-3.9h8.1v53.46h-4.2v-27.3h-10.92l-.54.96c-1.08,1.84-2.49,3.75-4.23,5.73-1.74,1.98-3.6,3.81-5.58,5.49s-3.91,3.04-5.79,4.08l-2.28-3.48c1.76-1.04,3.56-2.33,5.4-3.87,1.84-1.54,3.54-3.18,5.1-4.92,1.56-1.74,2.8-3.41,3.72-5.01,2.44-4.2,3.82-8.9,4.14-14.1ZM649.91,1214.92h-4.2v-53.46h4.2v53.46Z"/><path class="cls-3" d="M713.87,1215.58h-4.2v-17.46h-22.14v-3.9h48.66v3.9h-22.32v17.46ZM728.87,1187.74h-34.08v-23.22h4.2v7.44h25.68v-7.44h4.2v23.22ZM698.99,1175.86v7.98h25.68v-7.98h-25.68Z"/><path class="cls-3" d="M781.67,1215.88h-4.2v-21.6h-13.98c-1.12,1.92-2.63,3.41-4.53,4.47-1.9,1.06-4.09,1.59-6.57,1.59-2.76,0-5.15-.64-7.17-1.92-2.02-1.28-3.58-3.09-4.68-5.43-1.1-2.34-1.65-5.11-1.65-8.31,0-4.88,1.22-8.73,3.66-11.55,2.44-2.82,5.72-4.23,9.84-4.23,2.76.16,5.15.91,7.17,2.25,2.02,1.34,3.55,3.17,4.59,5.49h13.32v-10.38h-3.9v-3.9h8.1v53.52ZM743.09,1184.68c0,3.6.84,6.46,2.52,8.58,1.68,2.12,3.94,3.18,6.78,3.18s5.08-1.06,6.72-3.18c1.64-2.12,2.46-4.98,2.46-8.58s-.82-6.58-2.46-8.7c-1.64-2.12-3.88-3.18-6.72-3.18s-5.1,1.06-6.78,3.18c-1.68,2.12-2.52,5.02-2.52,8.7ZM765.77,1184.68c0,2.04-.24,3.94-.72,5.7h12.42v-9.84h-12.06c.24,1.32.36,2.7.36,4.14Z"/><path class="cls-3" d="M819.41,1171.9h-30.36v-3.9h13.8v-6.12h4.2v6.12h12.36v3.9ZM791.62,1183.66c0-1.92.54-3.6,1.62-5.04,1.08-1.44,2.58-2.57,4.5-3.39,1.92-.82,4.12-1.23,6.6-1.23s4.66.41,6.54,1.23c1.88.82,3.35,1.95,4.41,3.39,1.06,1.44,1.59,3.12,1.59,5.04s-.53,3.54-1.59,4.98c-1.06,1.44-2.53,2.57-4.41,3.39-1.88.82-4.06,1.23-6.54,1.23s-4.68-.41-6.6-1.23c-1.92-.82-3.42-1.95-4.5-3.39s-1.62-3.1-1.62-4.98ZM795.83,1183.72c0,1.64.8,2.99,2.4,4.05,1.6,1.06,3.64,1.59,6.12,1.59s4.49-.52,6.03-1.56c1.54-1.04,2.31-2.36,2.31-3.96,0-1.76-.77-3.19-2.31-4.29-1.54-1.1-3.55-1.65-6.03-1.65s-4.52.54-6.12,1.62c-1.6,1.08-2.4,2.48-2.4,4.2ZM829.54,1214.8h-32.94v-18.78h4.2v5.76h24.54v-5.76h4.2v18.78ZM800.8,1205.68v5.22h24.54v-5.22h-24.54ZM825.34,1166.56h-3.9v-3.9h8.1v12.18h8.46v3.9h-8.46v14.64h-4.2v-26.82Z"/><path class="cls-3" d="M877.42,1199.8h-34.74l.12-33.66h4.2l-.12,29.76h30.54v-30.54h-3.3v-3.6h7.5v53.28h-4.2v-15.24Z"/><path class="cls-3" d="M925.78,1200.46h-33.78l.12-29.46v-2.22h24.18v3.9h-19.98l-.12,23.88h29.58v-31.2h-3.9v-3.9h8.1v21.3h9.24v3.9h-9.24v28.02h-4.2v-14.22Z"/><path class="cls-3" d="M939.94,1208.14v-6.66h6.66v6.66h-6.66Z"/><path class="cls-3" d="M86.27,1295.31h22.32v-11.7c-2.84-.28-5.41-1.05-7.71-2.31-2.3-1.26-4.11-2.89-5.43-4.89-1.32-2-1.98-4.2-1.98-6.6,0-2.6.76-4.96,2.28-7.08,1.52-2.12,3.58-3.8,6.18-5.04,2.6-1.24,5.5-1.86,8.7-1.86s6.1.62,8.7,1.86c2.6,1.24,4.66,2.92,6.18,5.04,1.52,2.12,2.28,4.48,2.28,7.08,0,2.4-.66,4.59-1.98,6.57-1.32,1.98-3.11,3.61-5.37,4.89-2.26,1.28-4.81,2.06-7.65,2.34v11.7h22.14v3.9h-48.66v-3.9ZM97.67,1269.81c0,1.88.58,3.58,1.74,5.1,1.16,1.52,2.72,2.72,4.68,3.6,1.96.88,4.14,1.32,6.54,1.32s4.63-.44,6.57-1.32c1.94-.88,3.49-2.08,4.65-3.6,1.16-1.52,1.74-3.22,1.74-5.1s-.58-3.58-1.74-5.1c-1.16-1.52-2.71-2.73-4.65-3.63-1.94-.9-4.13-1.35-6.57-1.35s-4.58.45-6.54,1.35c-1.96.9-3.52,2.11-4.68,3.63-1.16,1.52-1.74,3.22-1.74,5.1Z"/><path class="cls-3" d="M163.85,1265.55h-27.06v-3.9h11.34v-8.28h4.2v8.28h11.52v3.9ZM150.11,1291.59c-2.16,0-4.11-.49-5.85-1.47-1.74-.98-3.12-2.3-4.14-3.96-1.02-1.66-1.53-3.51-1.53-5.55s.51-3.95,1.53-5.61,2.4-2.98,4.14-3.96c1.74-.98,3.69-1.47,5.85-1.47s4.04.49,5.76,1.47c1.72.98,3.08,2.3,4.08,3.96,1,1.66,1.5,3.53,1.5,5.61s-.5,3.89-1.5,5.55c-1,1.66-2.36,2.98-4.08,3.96-1.72.98-3.64,1.47-5.76,1.47ZM142.79,1280.73c0,1.28.33,2.45.99,3.51.66,1.06,1.54,1.9,2.64,2.52,1.1.62,2.33.93,3.69.93,2,0,3.69-.66,5.07-1.98,1.38-1.32,2.07-2.94,2.07-4.86,0-2.08-.69-3.83-2.07-5.25-1.38-1.42-3.07-2.13-5.07-2.13-1.36,0-2.59.32-3.69.96-1.1.64-1.98,1.51-2.64,2.61-.66,1.1-.99,2.33-.99,3.69ZM166.19,1255.83h-3.3v-3.9h7.5v22.44h7.02v-22.44h4.2v53.16h-4.2v-26.82h-7.02v26.82h-4.2v-49.26Z"/><path class="cls-3" d="M214.49,1257.69c.2,5.4-.65,10.47-2.55,15.21-1.9,4.74-4.68,8.98-8.34,12.72-3.66,3.74-8.05,6.85-13.17,9.33l-1.8-3.78c4.32-2.08,8.03-4.65,11.13-7.71,3.1-3.06,5.54-6.45,7.32-10.17,1.78-3.72,2.81-7.62,3.09-11.7h-19.62v-3.9h23.94ZM223.49,1255.83h-3.9v-3.9h8.1v22.5h9.12v3.9h-9.12v27.42h-4.2v-49.92Z"/><path class="cls-3" d="M271.19,1267.59c0-2.44.54-4.59,1.62-6.45s2.59-3.32,4.53-4.38c1.94-1.06,4.15-1.59,6.63-1.59,3.32,0,6.1.93,8.34,2.79,2.24,1.86,3.58,4.33,4.02,7.41h12.3v-8.88h-3.9v-3.9h8.1v28.8h-4.2v-12.12h-12.18c-.36,3.36-1.67,6.06-3.93,8.1-2.26,2.04-5.11,3.06-8.55,3.06-2.48,0-4.69-.55-6.63-1.65-1.94-1.1-3.45-2.61-4.53-4.53-1.08-1.92-1.62-4.14-1.62-6.66ZM275.39,1267.65c0,2.6.79,4.73,2.37,6.39,1.58,1.66,3.61,2.49,6.09,2.49s4.51-.84,6.09-2.52c1.58-1.68,2.37-3.82,2.37-6.42s-.77-4.52-2.31-6.12c-1.54-1.6-3.55-2.4-6.03-2.4s-4.58.8-6.18,2.4c-1.6,1.6-2.4,3.66-2.4,6.18ZM306.17,1295.55l-9.06,9.9-.18-.18v.18h-20.58v-21.42h4.2v6.96h10.8v-6.96h4.2l.06,17.52,8.34-9.18v-8.82h4.2v8.7l11.46,10.74-2.82,2.46-10.62-9.9ZM280.55,1294.89v6.66h10.8v-6.66h-10.8Z"/><path class="cls-3" d="M368.57,1282.95h-47.88v-3.9h47.88v3.9ZM363.65,1304.07h-36.9v-15.54h4.2v11.64h32.7v3.9ZM362.03,1271.91h-33.84v-18.36h4.2v14.46h29.64v3.9Z"/><path class="cls-3" d="M406.73,1282.65l-2.76-2.82,13.74-12.84v-7.86h-11.82v-3.9h27.78v3.9h-11.76v7.8l14.1,11.7-2.64,2.82-13.5-11.1-13.14,12.3ZM442.55,1290.75h-31.26v-3.9h35.46v18.9h-4.2v-15ZM442.55,1269.69h-11.04v-3.9h11.04v-10.02h-3.9v-3.9h8.1v31.92h-4.2v-14.1Z"/><path class="cls-3" d="M456.95,1279.47l-2.7-2.82,13.14-11.52v-6.6h-11.28v-3.9h27.24v3.9h-11.76v6.78l13.32,11.34-2.7,2.82-12.84-10.86-12.42,10.86ZM492.77,1286.49h-28.62v-3.9h32.82v12.6h-28.56v5.76h31.2v3.9h-35.4v-13.56h28.56v-4.8ZM492.77,1267.35h-10.86v-3.9h10.86v-7.86h-3.9v-3.6h8.1v27.3h-4.2v-11.94Z"/><path class="cls-3" d="M534.77,1262.85h-29.76v-3.9h12.48v-6.12h4.2v6.12h13.08v3.9ZM507.65,1275.87c0-2,.53-3.77,1.59-5.31,1.06-1.54,2.53-2.75,4.41-3.63,1.88-.88,4.02-1.32,6.42-1.32s4.52.44,6.36,1.32c1.84.88,3.28,2.09,4.32,3.63,1.04,1.54,1.56,3.31,1.56,5.31s-.52,3.78-1.56,5.34c-1.04,1.56-2.48,2.78-4.32,3.66-1.84.88-3.96,1.32-6.36,1.32s-4.54-.44-6.42-1.32c-1.88-.88-3.35-2.1-4.41-3.66-1.06-1.56-1.59-3.34-1.59-5.34ZM511.85,1275.93c0,1.84.77,3.36,2.31,4.56,1.54,1.2,3.51,1.8,5.91,1.8s4.29-.58,5.79-1.74,2.25-2.66,2.25-4.5-.75-3.49-2.25-4.71c-1.5-1.22-3.43-1.83-5.79-1.83s-4.37.6-5.91,1.8c-1.54,1.2-2.31,2.74-2.31,4.62ZM512.81,1304.97v-15h4.2v11.1h32.4v3.9h-36.6ZM541.13,1255.83h-3.9v-3.9h8.1v18.78h8.64v3.9h-8.64v18.66h-4.2v-37.44Z"/><path class="cls-3" d="M635.81,1299.21h-48.9v-3.9h14.82l-.06-13.38h-9.12v-3.9h9.06l-.06-18.12h-8.7v-3.9h36.6v3.9h-8.94l.06,18.12h9.18v3.9h-9.12l.06,13.38h15.12v3.9ZM616.49,1259.91h-10.92l.06,18.12h10.92l-.06-18.12ZM616.61,1281.93h-10.92l.06,13.38h10.92l-.06-13.38Z"/><path class="cls-3" d="M667.37,1262.85h-29.76v-3.9h12.48v-6.12h4.2v6.12h13.08v3.9ZM640.43,1275.93c0-1.96.53-3.69,1.59-5.19,1.06-1.5,2.52-2.68,4.38-3.54,1.86-.86,4.01-1.29,6.45-1.29,1.64,0,3.17.21,4.59.63,1.42.42,2.65,1.01,3.69,1.77h15.84v-12.48h-3.9v-3.9h8.1v40.32h-4.2v-9.06h-15.36c-1.08.88-2.37,1.56-3.87,2.04-1.5.48-3.13.72-4.89.72-2.44,0-4.59-.43-6.45-1.29-1.86-.86-3.32-2.04-4.38-3.54-1.06-1.5-1.59-3.23-1.59-5.19ZM644.63,1275.99c0,1.76.77,3.21,2.31,4.35,1.54,1.14,3.51,1.71,5.91,1.71s4.29-.56,5.79-1.68c1.5-1.12,2.25-2.54,2.25-4.26,0-1.88-.75-3.4-2.25-4.56s-3.43-1.74-5.79-1.74-4.37.58-5.91,1.74c-1.54,1.16-2.31,2.64-2.31,4.44ZM646.91,1304.31v-14.34h4.2v10.44h31.14v3.9h-35.34ZM664.31,1272.21c.52,1.08.78,2.32.78,3.72,0,1.28-.2,2.4-.6,3.36h12.48v-7.08h-12.66Z"/><path class="cls-3" d="M735.89,1279.65h-48.24v-3.9h48.24v3.9ZM725.69,1288.11h-31.74v-3.9h35.94v12.54h-31.74v5.04h33.36v3.9h-37.56v-12.84h31.74v-4.74ZM694.79,1262.55c0-1.84.72-3.47,2.16-4.89,1.44-1.42,3.45-2.53,6.03-3.33,2.58-.8,5.53-1.2,8.85-1.2s6.32.4,8.88,1.2c2.56.8,4.56,1.91,6,3.33,1.44,1.42,2.16,3.05,2.16,4.89s-.72,3.48-2.16,4.92-3.44,2.56-6,3.36c-2.56.8-5.52,1.2-8.88,1.2s-6.27-.4-8.85-1.2c-2.58-.8-4.59-1.92-6.03-3.36-1.44-1.44-2.16-3.08-2.16-4.92ZM698.99,1262.55c0,1.08.55,2.05,1.65,2.91,1.1.86,2.61,1.53,4.53,2.01,1.92.48,4.14.72,6.66.72s4.75-.24,6.69-.72c1.94-.48,3.45-1.15,4.53-2.01s1.62-1.83,1.62-2.91-.54-2.03-1.62-2.85c-1.08-.82-2.59-1.46-4.53-1.92-1.94-.46-4.17-.69-6.69-.69s-4.74.23-6.66.69c-1.92.46-3.43,1.1-4.53,1.92-1.1.82-1.65,1.77-1.65,2.85Z"/><path class="cls-3" d="M772.96,1293.99l-3.06-2.4,13.92-17.58v-17.04h4.2v17.04l13.98,17.58-3.12,2.4-12.96-16.32-12.96,16.32ZM811.07,1305.21h-4.2v-49.68h-3.9v-3.6h8.1v20.4h8.88v3.9h-8.88v28.98Z"/><path class="cls-3" d="M868.78,1282.05h-48.06v-3.9h12.54v-7.32c-3.28-1.72-4.92-4.26-4.92-7.62,0-3.12,1.42-5.52,4.26-7.2,2.84-1.68,6.9-2.52,12.18-2.52s9.34.84,12.18,2.52c2.84,1.68,4.26,4.08,4.26,7.2s-1.44,5.62-4.32,7.26v7.68h11.88v3.9ZM826.84,1296.39c0-6.52,5.98-9.78,17.94-9.78s17.94,3.26,17.94,9.78-5.98,9.96-17.94,9.96-17.94-3.32-17.94-9.96ZM831.04,1296.39c0,4.04,4.58,6.06,13.74,6.06s13.74-2.02,13.74-6.06-4.58-5.88-13.74-5.88-13.74,1.96-13.74,5.88ZM832.54,1263.27c0,1.88,1.06,3.33,3.18,4.35,2.12,1.02,5.14,1.53,9.06,1.53s6.94-.51,9.06-1.53c2.12-1.02,3.18-2.47,3.18-4.35s-1.06-3.32-3.18-4.32c-2.12-1-5.14-1.5-9.06-1.5s-6.94.5-9.06,1.5c-2.12,1-3.18,2.44-3.18,4.32ZM837.46,1272.27v5.88h15.24v-6c-1.12.28-2.34.49-3.66.63-1.32.14-2.74.21-4.26.21-2.76,0-5.2-.24-7.32-.72Z"/><path class="cls-3" d="M902.2,1262.07h-30.36v-3.9h13.8v-6.12h4.2v6.12h12.36v3.9ZM874.42,1273.83c0-1.92.54-3.6,1.62-5.04,1.08-1.44,2.58-2.57,4.5-3.39,1.92-.82,4.12-1.23,6.6-1.23s4.66.41,6.54,1.23c1.88.82,3.35,1.95,4.41,3.39,1.06,1.44,1.59,3.12,1.59,5.04s-.53,3.54-1.59,4.98c-1.06,1.44-2.53,2.57-4.41,3.39-1.88.82-4.06,1.23-6.54,1.23s-4.68-.41-6.6-1.23c-1.92-.82-3.42-1.95-4.5-3.39s-1.62-3.1-1.62-4.98ZM878.62,1273.89c0,1.64.8,2.99,2.4,4.05,1.6,1.06,3.64,1.59,6.12,1.59s4.49-.52,6.03-1.56c1.54-1.04,2.31-2.36,2.31-3.96,0-1.76-.77-3.19-2.31-4.29-1.54-1.1-3.55-1.65-6.03-1.65s-4.52.54-6.12,1.62c-1.6,1.08-2.4,2.48-2.4,4.2ZM912.34,1304.97h-32.94v-18.78h4.2v5.76h24.54v-5.76h4.2v18.78ZM883.6,1295.85v5.22h24.54v-5.22h-24.54ZM908.14,1256.73h-3.9v-3.9h8.1v12.18h8.46v3.9h-8.46v14.64h-4.2v-26.82Z"/><path class="cls-3" d="M960.22,1289.97h-34.74l.12-33.66h4.2l-.12,29.76h30.54v-30.54h-3.3v-3.6h7.5v53.28h-4.2v-15.24Z"/><path class="cls-3" d="M1008.58,1290.63h-33.78l.12-29.46v-2.22h24.18v3.9h-19.98l-.12,23.88h29.58v-31.2h-3.9v-3.9h8.1v21.3h9.24v3.9h-9.24v28.02h-4.2v-14.22Z"/><path class="cls-3" d="M1022.74,1298.31v-6.66h6.66v6.66h-6.66Z"/><path class="cls-3" d="M135.11,1373.55h-48.6v-3.9h48.6v3.9ZM130.25,1363.83h-37.74v-19.38h36.48v3.9h-16.32v11.58h17.58v3.9ZM129.53,1394.13h-36.9v-15.42h4.2v11.52h32.7v3.9ZM96.71,1348.35v11.58h11.76v-11.58h-11.76Z"/><path class="cls-3" d="M163.25,1395.57h-4.2v-23.16h-22.32v-3.9h37.14v-19.62h-29.88v-3.9h34.08v23.52h7.32v3.9h-22.14v23.16Z"/><path class="cls-3" d="M234.35,1374.51h-45.66v-3.9h45.66v3.9ZM229.79,1395.27h-36.48v-15.78h36.48v15.78ZM224.39,1347.87h-30v-3.9h34.2v13.08h-30v5.1h30.84v3.9h-35.04v-12.9h30v-5.28ZM197.51,1383.39v7.98h28.08v-7.98h-28.08Z"/><path class="cls-3" d="M285.89,1369.83h-48.24v-3.9h48.24v3.9ZM275.69,1378.29h-31.74v-3.9h35.94v12.54h-31.74v5.04h33.36v3.9h-37.56v-12.84h31.74v-4.74ZM244.79,1352.73c0-1.84.72-3.47,2.16-4.89,1.44-1.42,3.45-2.53,6.03-3.33,2.58-.8,5.53-1.2,8.85-1.2s6.32.4,8.88,1.2c2.56.8,4.56,1.91,6,3.33,1.44,1.42,2.16,3.05,2.16,4.89s-.72,3.48-2.16,4.92c-1.44,1.44-3.44,2.56-6,3.36-2.56.8-5.52,1.2-8.88,1.2s-6.27-.4-8.85-1.2c-2.58-.8-4.59-1.92-6.03-3.36-1.44-1.44-2.16-3.08-2.16-4.92ZM248.99,1352.73c0,1.08.55,2.05,1.65,2.91,1.1.86,2.61,1.53,4.53,2.01,1.92.48,4.14.72,6.66.72s4.75-.24,6.69-.72c1.94-.48,3.45-1.15,4.53-2.01s1.62-1.83,1.62-2.91-.54-2.03-1.62-2.85c-1.08-.82-2.59-1.46-4.53-1.92-1.94-.46-4.17-.69-6.69-.69s-4.74.23-6.66.69c-1.92.46-3.43,1.1-4.53,1.92-1.1.82-1.65,1.77-1.65,2.85Z"/><path class="cls-3" d="M324.11,1384.29l-3-2.64,13.86-15.78v-13.92h-12.12v-3.9h28.62v3.9h-12.3v13.92l13.86,15.78-3,2.64-12.96-14.7-12.96,14.7ZM364.07,1395.39h-4.2v-49.38h-3.9v-3.9h8.1v53.28Z"/><path class="cls-3" d="M392.99,1377.39h-22.26v-3.9h48.66v3.9h-22.2v18.54h-4.2v-18.54ZM395.09,1368.03c-2.8,0-5.34-.55-7.62-1.65-2.28-1.1-4.09-2.57-5.43-4.41-1.34-1.84-2.01-3.9-2.01-6.18s.67-4.33,2.01-6.15c1.34-1.82,3.15-3.27,5.43-4.35,2.28-1.08,4.82-1.62,7.62-1.62s5.39.54,7.65,1.62c2.26,1.08,4.06,2.53,5.4,4.35,1.34,1.82,2.01,3.87,2.01,6.15s-.67,4.34-2.01,6.18c-1.34,1.84-3.14,3.31-5.4,4.41-2.26,1.1-4.81,1.65-7.65,1.65ZM384.23,1355.79c0,1.56.48,2.97,1.44,4.23.96,1.26,2.27,2.26,3.93,3,1.66.74,3.49,1.11,5.49,1.11s3.88-.37,5.52-1.11c1.64-.74,2.94-1.74,3.9-3,.96-1.26,1.44-2.67,1.44-4.23s-.48-2.96-1.44-4.2c-.96-1.24-2.26-2.22-3.9-2.94-1.64-.72-3.48-1.08-5.52-1.08s-3.83.36-5.49,1.08c-1.66.72-2.97,1.7-3.93,2.94-.96,1.24-1.44,2.64-1.44,4.2Z"/><path class="cls-3" d="M468.77,1388.85h-46.5v-3.9h18.54v-19.02h4.2v19.02h13.26v-33.9h-29.88v-3.9h34.08v37.8h6.3v3.9Z"/><path class="cls-3" d="M540.95,1370.07h-34.14v-23.7h23.76v3.9h-19.56v15.9h29.94v-19.56h-3.9v-3.9h8.1v13.98h8.52v3.9h-8.52v13.38h-4.2v-3.9ZM511.19,1385.91c0-3.08,1.57-5.52,4.71-7.32,3.14-1.8,7.39-2.7,12.75-2.7,5.36-.04,9.62.84,12.78,2.64,3.16,1.8,4.74,4.26,4.74,7.38s-1.58,5.52-4.74,7.32c-3.16,1.8-7.42,2.7-12.78,2.7s-9.61-.9-12.75-2.7c-3.14-1.8-4.71-4.24-4.71-7.32ZM515.39,1385.91c0,1.88,1.19,3.37,3.57,4.47,2.38,1.1,5.61,1.65,9.69,1.65s7.32-.55,9.72-1.65c2.4-1.1,3.6-2.59,3.6-4.47s-1.2-3.37-3.6-4.47c-2.4-1.1-5.64-1.65-9.72-1.65s-7.31.55-9.69,1.65c-2.38,1.1-3.57,2.59-3.57,4.47Z"/><path class="cls-3" d="M557.21,1373.61l-2.7-2.82,13.92-12.12v-7.92h-12.84v-3.9h28.74v3.9h-11.7v8.1l13.5,10.92-2.7,2.82-13.02-10.44-13.2,11.46ZM561.29,1386.45c0-3.2,1.54-5.65,4.62-7.35,3.08-1.7,7.46-2.55,13.14-2.55,5.72-.04,10.12.8,13.2,2.52,3.08,1.72,4.62,4.18,4.62,7.38s-1.54,5.6-4.62,7.32c-3.08,1.72-7.48,2.58-13.2,2.58s-10.06-.86-13.14-2.58c-3.08-1.72-4.62-4.16-4.62-7.32ZM565.49,1386.45c0,1.92,1.17,3.4,3.51,4.44,2.34,1.04,5.69,1.56,10.05,1.56s7.77-.52,10.11-1.56c2.34-1.04,3.51-2.52,3.51-4.44s-1.17-3.4-3.51-4.44c-2.34-1.04-5.71-1.56-10.11-1.56s-7.71.52-10.05,1.56c-2.34,1.04-3.51,2.52-3.51,4.44ZM595.79,1374.45h-4.2v-27.54h-3.9v-3.9h8.1v13.32h8.28v3.9h-8.28v14.22Z"/><path class="cls-3" d="M640.25,1373.55l-2.7-2.82,11.04-10.08v-6.84h-9.9v-3.9h9.9v-6.9h4.2v6.9h9.9v3.9h-9.9v6.48l11.04,9.84-2.7,2.88-10.26-9.36-10.62,9.9ZM677.87,1382.43h-31.44v-3.9h35.64v17.4h-4.2v-13.5ZM667.01,1347.27h-3.9v-3.9h8.1v13.68h6.66v-13.68h4.2v31.98h-4.2v-14.4h-6.66v14.4h-4.2v-28.08Z"/><path class="cls-3" d="M690.83,1372.89l-2.64-2.82,12.72-12.06v-12.6h4.2v12.54l12.78,12.12-2.7,2.82-12.18-11.58-12.18,11.58ZM696.11,1386.81c0-3.32,1.45-5.87,4.35-7.65,2.9-1.78,7.01-2.67,12.33-2.67s9.48.89,12.36,2.67c2.88,1.78,4.32,4.33,4.32,7.65s-1.44,5.82-4.32,7.62c-2.88,1.8-7,2.7-12.36,2.7s-9.43-.9-12.33-2.7c-2.9-1.8-4.35-4.34-4.35-7.62ZM700.19,1386.81c0,2.08,1.09,3.69,3.27,4.83,2.18,1.14,5.29,1.71,9.33,1.71s7.15-.57,9.33-1.71c2.18-1.14,3.27-2.75,3.27-4.83s-1.09-3.74-3.27-4.86c-2.18-1.12-5.29-1.68-9.33-1.68s-7.15.56-9.33,1.68c-2.18,1.12-3.27,2.74-3.27,4.86ZM728.69,1375.47h-4.2v-29.76h-3.9v-3.9h8.1v14.82h8.58v3.9h-8.58v14.94Z"/><path class="cls-3" d="M772.61,1358.25c0-2.28.57-4.33,1.71-6.15,1.14-1.82,2.68-3.27,4.62-4.35,1.94-1.08,4.09-1.62,6.45-1.62s4.48.54,6.36,1.62c1.88,1.08,3.38,2.53,4.5,4.35,1.12,1.82,1.68,3.87,1.68,6.15s-.56,4.43-1.68,6.33c-1.12,1.9-2.62,3.41-4.5,4.53-1.88,1.12-4,1.68-6.36,1.68s-4.51-.56-6.45-1.68c-1.94-1.12-3.48-2.63-4.62-4.53-1.14-1.9-1.71-4.01-1.71-6.33ZM776.8,1358.31c0,1.6.38,3.05,1.14,4.35.76,1.3,1.78,2.33,3.06,3.09,1.28.76,2.7,1.14,4.26,1.14s3.03-.38,4.29-1.14c1.26-.76,2.27-1.8,3.03-3.12.76-1.32,1.14-2.78,1.14-4.38s-.37-2.96-1.11-4.2c-.74-1.24-1.74-2.22-3-2.94s-2.67-1.08-4.23-1.08-3.05.37-4.35,1.11c-1.3.74-2.33,1.73-3.09,2.97-.76,1.24-1.14,2.64-1.14,4.2ZM777.76,1379.97v-3.9h35.52v3.9h-7.38v11.7h7.38v3.9h-35.52v-3.9h7.14v-11.7h-7.14ZM789.11,1379.97v11.7h12.6v-11.7h-12.6ZM806.8,1345.77h-3.9v-3.6h8.1v13.62h8.82v3.9h-8.82v13.32h-4.2v-27.24Z"/><path class="cls-3" d="M855.4,1395.27h-4.2v-28.92h-7.14c-.4,9.36-4.22,14.04-11.46,14.04-7.76,0-11.64-5.3-11.64-15.9s3.88-16.08,11.64-16.08c7.16.24,10.98,4.92,11.46,14.04h7.14v-16.74h-3.9v-3.9h8.1v53.46ZM825.16,1364.49c0,8,2.48,12,7.44,12s7.32-4,7.32-12-2.44-12.18-7.32-12.18-7.44,4.06-7.44,12.18ZM865.9,1395.27h-4.2v-53.46h4.2v53.46Z"/><path class="cls-3" d="M874.54,1383.63l-3.06-2.4,13.68-15.54v-18.18h4.2v17.94l14.34,15.72-3,2.46-13.32-14.64-12.84,14.64ZM914.8,1395.39h-4.2v-31.38h-12.24v-3.9h12.24v-14.1h-3.9v-3.9h8.1v53.28Z"/><path class="cls-3" d="M90.17,1459.28l-2.64-2.88,13.26-12.3v-9.66h4.2v9.9l13.02,12.06-2.64,2.88-12.6-11.7-12.6,11.7ZM96.59,1485.26v-13.14h29.4v-4.62h-29.46v-3.9h33.66v12.42h-29.4v5.34h31.38v3.9h-35.58ZM125.99,1435.88h-3.9v-3.9h8.1v28.5h-4.2v-24.6Z"/><path class="cls-3" d="M138.95,1464.14l-2.7-2.82,14.4-11.58v-6.3h-11.58v-3.9h11.58v-7.08h4.2v7.08h11.22v3.9h-11.22v6.6l13.26,10.08-2.7,2.82-12.84-9.72-13.62,10.92ZM146.15,1484.66v-16.2h4.2v12.3h32.1v3.9h-36.3ZM175.91,1452.56h-10.68v-3.9h10.68v-12.48h-3.9v-3.9h8.1v39.72h-4.2v-19.44Z"/><path class="cls-3" d="M219.05,1441.46h-32.28v-3.9h14.64v-5.46h4.2v5.46h13.44v3.9ZM189.89,1452.74c0-1.8.56-3.38,1.68-4.74,1.12-1.36,2.66-2.42,4.62-3.18,1.96-.76,4.2-1.14,6.72-1.14s4.75.38,6.69,1.14c1.94.76,3.45,1.82,4.53,3.18,1.08,1.36,1.62,2.94,1.62,4.74s-.54,3.32-1.62,4.68c-1.08,1.36-2.59,2.42-4.53,3.18-1.94.76-4.17,1.14-6.69,1.14s-4.76-.38-6.72-1.14c-1.96-.76-3.5-1.82-4.62-3.18-1.12-1.36-1.68-2.92-1.68-4.68ZM194.09,1452.8c0,1.48.83,2.69,2.49,3.63,1.66.94,3.77,1.41,6.33,1.41s4.64-.46,6.24-1.38c1.6-.92,2.4-2.1,2.4-3.54,0-1.56-.8-2.84-2.4-3.84-1.6-1-3.68-1.5-6.24-1.5s-4.67.49-6.33,1.47c-1.66.98-2.49,2.23-2.49,3.75ZM223.55,1469h-29.1v-3.9h33.3v11.88h-28.8v4.14h31.44v3.9h-35.64v-11.94h28.8v-4.08ZM223.55,1435.64h-3.9v-3.9h8.1v14.04h9.18v3.9h-9.18v12.42h-4.2v-26.46Z"/><path class="cls-3" d="M292.13,1467.14h-22.14v-3.9h48.72v3.9h-22.38v18.96h-4.2v-18.96ZM275.81,1457.9l-2.1-3.3,18.42-10.92v-8.64h4.2v8.58l18.54,10.98-2.1,3.3-18.48-10.92-18.48,10.92Z"/><path class="cls-3" d="M354.89,1448.48c0-2.56.56-4.81,1.68-6.75,1.12-1.94,2.67-3.46,4.65-4.56,1.98-1.1,4.25-1.65,6.81-1.65s4.81.55,6.75,1.65c1.94,1.1,3.46,2.62,4.56,4.56,1.1,1.94,1.65,4.19,1.65,6.75s-.55,4.74-1.65,6.66c-1.1,1.92-2.62,3.43-4.56,4.53-1.94,1.1-4.19,1.65-6.75,1.65s-4.83-.55-6.81-1.65c-1.98-1.1-3.53-2.61-4.65-4.53-1.12-1.92-1.68-4.14-1.68-6.66ZM358.13,1486.34l-2.88-2.52,11.16-10.14v-7.74h4.08v7.8l8.1,7.08,8.22-7.2v-7.68h4.2v7.98l11.04,10.02-2.88,2.52-10.44-9.54-10.14,8.94h-.06l-10.08-8.88-10.32,9.36ZM359.09,1448.54c0,2.6.83,4.73,2.49,6.39,1.66,1.66,3.77,2.49,6.33,2.49s4.73-.84,6.39-2.52c1.66-1.68,2.49-3.82,2.49-6.42s-.81-4.86-2.43-6.54c-1.62-1.68-3.73-2.52-6.33-2.52s-4.74.85-6.42,2.55c-1.68,1.7-2.52,3.89-2.52,6.57ZM395.93,1463.66h-4.2v-26.94h-4.2v-3.9h8.4v30.84Z"/><path class="cls-3" d="M451.37,1463.3h-47.88v-3.9h47.88v3.9ZM446.45,1484.42h-36.9v-15.54h4.2v11.64h32.7v3.9ZM444.83,1452.26h-33.84v-18.36h4.2v14.46h29.64v3.9Z"/><path class="cls-3" d="M488.21,1455.92c0-3.48.54-6.49,1.62-9.03s2.63-4.5,4.65-5.88c2.02-1.38,4.41-2.07,7.17-2.07,2.72.08,5.08.83,7.08,2.25,2,1.42,3.54,3.38,4.62,5.88s1.62,5.45,1.62,8.85-.54,6.42-1.62,8.94c-1.08,2.52-2.62,4.46-4.62,5.82-2,1.36-4.36,2.04-7.08,2.04s-5.15-.68-7.17-2.04c-2.02-1.36-3.57-3.3-4.65-5.82-1.08-2.52-1.62-5.5-1.62-8.94ZM492.41,1455.92c0,3.96.83,7.1,2.49,9.42,1.66,2.32,3.91,3.48,6.75,3.48s5.02-1.16,6.66-3.48c1.64-2.32,2.46-5.46,2.46-9.42s-.82-7.23-2.46-9.57c-1.64-2.34-3.86-3.51-6.66-3.51s-5.09,1.17-6.75,3.51c-1.66,2.34-2.49,5.53-2.49,9.57ZM529.25,1485.56h-4.2v-49.38h-3.9v-3.9h8.1v53.28Z"/><path class="cls-3" d="M537.29,1455.2c0-4.88,1.22-8.73,3.66-11.55,2.44-2.82,5.72-4.23,9.84-4.23,4.12.2,7.38,1.72,9.78,4.56,2.4,2.84,3.6,6.58,3.6,11.22,0,3.2-.54,5.97-1.62,8.31-1.08,2.34-2.62,4.15-4.62,5.43-2,1.28-4.38,1.92-7.14,1.92s-5.15-.64-7.17-1.92c-2.02-1.28-3.58-3.09-4.68-5.43-1.1-2.34-1.65-5.11-1.65-8.31ZM541.49,1455.2c0,3.6.84,6.46,2.52,8.58,1.68,2.12,3.94,3.18,6.78,3.18s5.08-1.06,6.72-3.18c1.64-2.12,2.46-4.98,2.46-8.58s-.82-6.58-2.46-8.7c-1.64-2.12-3.88-3.18-6.72-3.18s-5.1,1.06-6.78,3.18c-1.68,2.12-2.52,5.02-2.52,8.7ZM577.07,1486.4h-4.2v-49.62h-3.9v-3.9h8.1v13.68h9.66v3.9h-9.66v12.12h9.66v3.9h-9.66v19.92Z"/><path class="cls-3" d="M588.59,1471.34c4.04-1.84,7.65-4.23,10.83-7.17,3.18-2.94,5.75-6.25,7.71-9.93,1.96-3.68,3.1-7.54,3.42-11.58h-19.44v-3.9h23.76c.12,4.08-.4,7.95-1.56,11.61-1.16,3.66-2.85,7.05-5.07,10.17-2.22,3.12-4.85,5.91-7.89,8.37-3.04,2.46-6.36,4.53-9.96,6.21l-1.8-3.78ZM629.39,1486.1h-4.2v-48.36h-3.9v-3.9h8.1v52.26Z"/><path class="cls-3" d="M685.85,1460.96h-48.66v-3.9h48.66v3.9ZM679.67,1484.96h-35.34v-11.64h30.6v-3.6h-30.6v-3.9h34.8v11.1h-30.6v4.14h31.14v3.9ZM678.05,1452.86h-33.6v-17.76h33.6v3.72h-29.58v10.32h29.58v3.72Z"/><path class="cls-3" d="M735.89,1460h-48.24v-3.9h48.24v3.9ZM725.69,1468.46h-31.74v-3.9h35.94v12.54h-31.74v5.04h33.36v3.9h-37.56v-12.84h31.74v-4.74ZM694.79,1442.9c0-1.84.72-3.47,2.16-4.89,1.44-1.42,3.45-2.53,6.03-3.33,2.58-.8,5.53-1.2,8.85-1.2s6.32.4,8.88,1.2c2.56.8,4.56,1.91,6,3.33,1.44,1.42,2.16,3.05,2.16,4.89s-.72,3.48-2.16,4.92-3.44,2.56-6,3.36c-2.56.8-5.52,1.2-8.88,1.2s-6.27-.4-8.85-1.2c-2.58-.8-4.59-1.92-6.03-3.36-1.44-1.44-2.16-3.08-2.16-4.92ZM698.99,1442.9c0,1.08.55,2.05,1.65,2.91,1.1.86,2.61,1.53,4.53,2.01,1.92.48,4.14.72,6.66.72s4.75-.24,6.69-.72c1.94-.48,3.45-1.15,4.53-2.01s1.62-1.83,1.62-2.91-.54-2.03-1.62-2.85c-1.08-.82-2.59-1.46-4.53-1.92-1.94-.46-4.17-.69-6.69-.69s-4.74.23-6.66.69c-1.92.46-3.43,1.1-4.53,1.92-1.1.82-1.65,1.77-1.65,2.85Z"/><path class="cls-3" d="M801.41,1442.42h-30.36v-3.9h13.8v-6.12h4.2v6.12h12.36v3.9ZM773.62,1454.18c0-1.92.54-3.6,1.62-5.04,1.08-1.44,2.58-2.57,4.5-3.39,1.92-.82,4.12-1.23,6.6-1.23s4.66.41,6.54,1.23c1.88.82,3.35,1.95,4.41,3.39,1.06,1.44,1.59,3.12,1.59,5.04s-.53,3.54-1.59,4.98c-1.06,1.44-2.53,2.57-4.41,3.39-1.88.82-4.06,1.23-6.54,1.23s-4.68-.41-6.6-1.23c-1.92-.82-3.42-1.95-4.5-3.39s-1.62-3.1-1.62-4.98ZM777.83,1454.24c0,1.64.8,2.99,2.4,4.05,1.6,1.06,3.64,1.59,6.12,1.59s4.49-.52,6.03-1.56c1.54-1.04,2.31-2.36,2.31-3.96,0-1.76-.77-3.19-2.31-4.29-1.54-1.1-3.55-1.65-6.03-1.65s-4.52.54-6.12,1.62c-1.6,1.08-2.4,2.48-2.4,4.2ZM811.54,1485.32h-32.94v-18.78h4.2v5.76h24.54v-5.76h4.2v18.78ZM782.8,1476.2v5.22h24.54v-5.22h-24.54ZM807.34,1437.08h-3.9v-3.9h8.1v12.18h8.46v3.9h-8.46v14.64h-4.2v-26.82Z"/><path class="cls-3" d="M859.42,1470.32h-34.74l.12-33.66h4.2l-.12,29.76h30.54v-30.54h-3.3v-3.6h7.5v53.28h-4.2v-15.24Z"/><path class="cls-3" d="M907.78,1470.98h-33.78l.12-29.46v-2.22h24.18v3.9h-19.98l-.12,23.88h29.58v-31.2h-3.9v-3.9h8.1v21.3h9.24v3.9h-9.24v28.02h-4.2v-14.22Z"/><path class="cls-3" d="M921.94,1478.66v-6.66h6.66v6.66h-6.66Z"/></svg>