<?xml version="1.0" encoding="UTF-8"?><svg id="_레이어_1" xmlns="http://www.w3.org/2000/svg" viewBox="0 0 1080 1920"><defs><style>.cls-1{stroke-width:2.37px;}.cls-1,.cls-2,.cls-3,.cls-4,.cls-5{stroke:#012b3a;stroke-miterlimit:10;}.cls-1,.cls-6{fill:#012b3a;}.cls-7,.cls-2{fill:#fff;}.cls-2{stroke-width:2.1px;}.cls-3{stroke-dasharray:6.91 6.91 6.91 6.91 6.91 6.91;}.cls-3,.cls-4,.cls-5{fill:none;stroke-width:1.15px;}.cls-8{fill:#42d49c;}.cls-5{stroke-dasharray:6.91 6.91 6.91 6.91;}</style></defs><rect class="cls-8" x="-420" y="420" width="1920" height="1080" transform="translate(1500 420) rotate(90)"/><rect class="cls-1" x="66.48" y="211.18" width="451.04" height="80.81"/><path class="cls-7" d="M154.45,248.99l-13.85-10.63,1.79-2.3,17.07,12.93-17.07,12.88-1.79-2.25,13.85-10.63Z"/><path class="cls-7" d="M181.99,240.52c0-1.78.45-3.37,1.36-4.78.9-1.41,2.13-2.54,3.68-3.38,1.55-.84,3.27-1.26,5.17-1.26s3.61.42,5.13,1.26c1.52.84,2.72,1.97,3.61,3.38.89,1.41,1.33,3.01,1.33,4.78s-.45,3.33-1.33,4.74c-.89,1.41-2.09,2.53-3.61,3.36-1.52.83-3.23,1.24-5.13,1.24s-3.63-.41-5.17-1.24c-1.55-.83-2.78-1.95-3.68-3.36-.91-1.41-1.36-2.99-1.36-4.74ZM185.2,240.57c0,1.17.31,2.23.92,3.2s1.44,1.72,2.48,2.28c1.04.55,2.21.83,3.5.83s2.5-.28,3.54-.85c1.04-.57,1.87-1.33,2.48-2.3.61-.97.92-2.03.92-3.2s-.31-2.28-.92-3.27c-.62-.98-1.44-1.75-2.46-2.32-1.03-.57-2.18-.85-3.47-.85s-2.46.29-3.52.87c-1.06.58-1.9,1.36-2.53,2.32-.63.97-.94,2.06-.94,3.29ZM211.01,255.93h-22.91v-2.99h26.13v10.49h-22.91v4.42h24.29v2.99h-27.51v-10.4h22.91v-4.51ZM210.83,232.57h-2.99v-2.99h6.21v21.34h-3.22v-18.35Z"/><path class="cls-7" d="M242.89,240.02h-23.41v-2.99h10.12v-6.76h3.22v6.76h10.07v2.99ZM231.2,261.27c-1.78,0-3.39-.4-4.83-1.2-1.44-.8-2.58-1.86-3.43-3.2-.84-1.33-1.27-2.83-1.27-4.49s.42-3.2,1.27-4.53c.84-1.33,1.98-2.4,3.43-3.2s3.05-1.2,4.83-1.2,3.34.4,4.76,1.2,2.55,1.86,3.38,3.2,1.24,2.84,1.24,4.53-.41,3.15-1.24,4.49-1.96,2.4-3.38,3.2c-1.43.8-3.01,1.2-4.76,1.2ZM224.9,252.48c0,1.07.28,2.05.83,2.94.55.89,1.31,1.59,2.28,2.09.97.51,2.03.76,3.2.76s2.21-.25,3.13-.76,1.66-1.2,2.21-2.07c.55-.87.83-1.83.83-2.88,0-1.13-.28-2.16-.83-3.08-.55-.92-1.29-1.66-2.21-2.21-.92-.55-1.96-.83-3.13-.83s-2.23.27-3.2.8c-.96.54-1.72,1.26-2.28,2.16-.55.9-.83,1.92-.83,3.06ZM246.52,232.52h-2.99v-2.99h6.21v16.61h8.28v2.99h-8.28v21.25h-3.22v-37.86Z"/><path class="cls-7" d="M294.68,253.31h-36.71v-2.99h36.71v2.99ZM290.91,269.5h-28.29v-11.91h3.22v8.92h25.07v2.99ZM289.67,244.85h-25.95v-14.08h3.22v11.09h22.72v2.99Z"/><path class="cls-7" d="M341.97,261.13h-3.22v-8.42h-17.06v-2.99h36.38v2.99h-16.1v8.42ZM325.96,246.46l-1.43-2.62,13.75-7.96v-5.52h3.22v5.52l13.48,7.82-1.43,2.62-13.66-7.96-13.94,8.1ZM354.3,269.5h-27.46v-11.5h3.22v8.51h24.24v2.99Z"/><path class="cls-7" d="M362.44,261.36l-2.35-1.84,10.49-11.91v-13.94h3.22v13.75l10.99,12.05-2.3,1.89-10.21-11.22-9.85,11.22ZM393.31,270.38h-3.22v-24.06h-9.38v-2.99h9.38v-10.81h-2.99v-2.99h6.21v40.85Z"/><rect class="cls-2" x="66.48" y="293.89" width="943.52" height="1003.96"/><line class="cls-4" x1="105.86" y1="432.93" x2="109.31" y2="432.93"/><line class="cls-5" x1="116.22" y1="432.93" x2="140.4" y2="432.93"/><line class="cls-3" x1="143.85" y1="432.93" x2="969.52" y2="432.93"/><line class="cls-4" x1="972.97" y1="432.93" x2="976.42" y2="432.93"/><line class="cls-4" x1="105.86" y1="531.75" x2="109.31" y2="531.75"/><line class="cls-5" x1="116.22" y1="531.75" x2="140.4" y2="531.75"/><line class="cls-3" x1="143.85" y1="531.75" x2="969.52" y2="531.75"/><line class="cls-4" x1="972.97" y1="531.75" x2="976.42" y2="531.75"/><line class="cls-4" x1="105.86" y1="630.56" x2="109.31" y2="630.56"/><line class="cls-5" x1="116.22" y1="630.56" x2="140.4" y2="630.56"/><line class="cls-3" x1="143.85" y1="630.56" x2="969.52" y2="630.56"/><line class="cls-4" x1="972.97" y1="630.56" x2="976.42" y2="630.56"/><line class="cls-4" x1="105.86" y1="729.38" x2="109.31" y2="729.38"/><line class="cls-5" x1="116.22" y1="729.38" x2="140.4" y2="729.38"/><line class="cls-3" x1="143.85" y1="729.38" x2="969.52" y2="729.38"/><line class="cls-4" x1="972.97" y1="729.38" x2="976.42" y2="729.38"/><line class="cls-4" x1="105.86" y1="828.2" x2="109.31" y2="828.2"/><line class="cls-5" x1="116.22" y1="828.2" x2="140.4" y2="828.2"/><line class="cls-3" x1="143.85" y1="828.2" x2="969.52" y2="828.2"/><line class="cls-4" x1="972.97" y1="828.2" x2="976.42" y2="828.2"/><line class="cls-4" x1="105.86" y1="927.01" x2="109.31" y2="927.01"/><line class="cls-5" x1="116.22" y1="927.01" x2="140.4" y2="927.01"/><line class="cls-3" x1="143.85" y1="927.01" x2="969.52" y2="927.01"/><line class="cls-4" x1="972.97" y1="927.01" x2="976.42" y2="927.01"/><line class="cls-4" x1="105.86" y1="1025.83" x2="109.31" y2="1025.83"/><line class="cls-5" x1="116.22" y1="1025.83" x2="140.4" y2="1025.83"/><line class="cls-3" x1="143.85" y1="1025.83" x2="969.52" y2="1025.83"/><line class="cls-4" x1="972.97" y1="1025.83" x2="976.42" y2="1025.83"/><line class="cls-4" x1="105.86" y1="1124.65" x2="109.31" y2="1124.65"/><line class="cls-5" x1="116.22" y1="1124.65" x2="140.4" y2="1124.65"/><line class="cls-3" x1="143.85" y1="1124.65" x2="969.52" y2="1124.65"/><line class="cls-4" x1="972.97" y1="1124.65" x2="976.42" y2="1124.65"/><line class="cls-4" x1="105.86" y1="1223.46" x2="109.31" y2="1223.46"/><line class="cls-5" x1="116.22" y1="1223.46" x2="140.4" y2="1223.46"/><line class="cls-3" x1="143.85" y1="1223.46" x2="969.52" y2="1223.46"/><line class="cls-4" x1="972.97" y1="1223.46" x2="976.42" y2="1223.46"/><path class="cls-6" d="M108.13,409.54v-47.88h11.46v3.9h-7.26v40.08h7.26v3.9h-11.46Z"/><path class="cls-6" d="M151.21,406.06h-26.76v-4.2h12.3v-32.82l-9.18,9.66-2.94-2.64,12.12-12.6h4.5v38.4h9.96v4.2Z"/><path class="cls-6" d="M166.2,361.66v47.88h-11.46v-3.9h7.26v-40.08h-7.26v-3.9h11.46Z"/><path class="cls-6" d="M223.02,391.72l-2.7-2.82,13.8-13.26v-7.74h-12.06v-3.9h28.38v3.9h-12.12v8.1l13.86,12.9-2.7,2.82-13.5-12.48-12.96,12.48ZM229.8,412.42v-17.1h4.2v13.2h31.86v3.9h-36.06ZM258.9,362.98h-3.9v-3.6h8.1v39.48h-4.2v-35.88Z"/><path class="cls-6" d="M278.4,369.7h-6.84v-3.9h30.9v3.9h-6.42v17.28l9.36,11.4-2.7,2.7-8.64-10.38-6.78,9.12-6.9-9.18-8.7,10.44-2.58-2.7,9.3-11.46v-17.22ZM282.6,369.7v17.46l4.68,6.18,4.56-6.12v-17.52h-9.24ZM308.04,364.06h-3.9v-3.6h8.1v20.46h8.1v3.9h-8.1v28.08h-4.2v-48.84Z"/><path class="cls-6" d="M379.62,370.42h-26.34v-3.9h10.92v-6h4.2v6h11.22v3.9ZM355.38,383.02c0-1.96.48-3.68,1.44-5.16.96-1.48,2.28-2.65,3.96-3.51,1.68-.86,3.6-1.29,5.76-1.29s4.06.43,5.7,1.29c1.64.86,2.93,2.03,3.87,3.51.94,1.48,1.41,3.2,1.41,5.16s-.47,3.62-1.41,5.1c-.94,1.48-2.23,2.64-3.87,3.48-1.64.84-3.54,1.26-5.7,1.26s-4.08-.42-5.76-1.26c-1.68-.84-3-2-3.96-3.48-.96-1.48-1.44-3.18-1.44-5.1ZM359.58,383.08c0,1.72.65,3.13,1.95,4.23,1.3,1.1,2.97,1.65,5.01,1.65s3.63-.54,4.89-1.62,1.89-2.46,1.89-4.14c0-1.84-.63-3.34-1.89-4.5-1.26-1.16-2.89-1.74-4.89-1.74s-3.71.57-5.01,1.71c-1.3,1.14-1.95,2.61-1.95,4.41ZM393.72,400.84h-31.68v-3.9h35.88v17.16h-4.2v-13.26ZM383.64,364.72h-3.9v-3.9h8.1v14.58h5.94v-14.58h4.2v32.88h-4.2v-14.4h-5.94v14.4h-4.2v-28.98Z"/><path class="cls-6" d="M406.02,389.26l-2.7-2.82,13.8-12.72v-10.92h4.2v11.34l12.66,11.7-2.7,2.82-12.18-11.22h-.24l-12.84,11.82ZM413.58,410.74h-.06v-17.1h32.34v18.96h-32.28v-1.86ZM417.6,397.42v11.4h24.18v-11.4h-24.18ZM445.98,390.28h-4.2v-26.58h-3.9v-3.6h8.1v30.18Z"/><path class="cls-6" d="M501.84,387.4h-48.24v-3.9h48.24v3.9ZM491.64,395.86h-31.74v-3.9h35.94v12.54h-31.74v5.04h33.36v3.9h-37.56v-12.84h31.74v-4.74ZM460.74,370.3c0-1.84.72-3.47,2.16-4.89s3.45-2.53,6.03-3.33,5.53-1.2,8.85-1.2,6.32.4,8.88,1.2c2.56.8,4.56,1.91,6,3.33,1.44,1.42,2.16,3.05,2.16,4.89s-.72,3.48-2.16,4.92c-1.44,1.44-3.44,2.56-6,3.36-2.56.8-5.52,1.2-8.88,1.2s-6.27-.4-8.85-1.2-4.59-1.92-6.03-3.36-2.16-3.08-2.16-4.92ZM464.94,370.3c0,1.08.55,2.05,1.65,2.91,1.1.86,2.61,1.53,4.53,2.01s4.14.72,6.66.72,4.75-.24,6.69-.72c1.94-.48,3.45-1.15,4.53-2.01,1.08-.86,1.62-1.83,1.62-2.91s-.54-2.03-1.62-2.85c-1.08-.82-2.59-1.46-4.53-1.92-1.94-.46-4.17-.69-6.69-.69s-4.74.23-6.66.69c-1.92.46-3.43,1.1-4.53,1.92-1.1.82-1.65,1.77-1.65,2.85Z"/><path class="cls-6" d="M571.92,400.06h-35.28l.12-3.9h6.84v-26.7h-6.84v-3.9h30.18v3.9h-5.94v26.7h10.92v-32.58h-3.9v-3.9h8.1v21h11.64v3.9h-11.64v28.38h-4.2v-12.9ZM547.8,369.46v26.7h9v-26.7h-9Z"/><path class="cls-6" d="M588.84,375.76c0-2.32.57-4.42,1.71-6.3,1.14-1.88,2.68-3.37,4.62-4.47,1.94-1.1,4.09-1.65,6.45-1.65s4.48.55,6.36,1.65c1.88,1.1,3.38,2.59,4.5,4.47,1.12,1.88,1.68,3.98,1.68,6.3s-.56,4.57-1.68,6.51c-1.12,1.94-2.62,3.48-4.5,4.62-1.88,1.14-4,1.71-6.36,1.71s-4.51-.57-6.45-1.71c-1.94-1.14-3.48-2.68-4.62-4.62-1.14-1.94-1.71-4.11-1.71-6.51ZM593.04,375.82c0,1.64.38,3.14,1.14,4.5.76,1.36,1.78,2.43,3.06,3.21,1.28.78,2.7,1.17,4.26,1.17s3.03-.4,4.29-1.2c1.26-.8,2.27-1.88,3.03-3.24.76-1.36,1.14-2.86,1.14-4.5s-.37-3.04-1.11-4.32c-.74-1.28-1.74-2.3-3-3.06-1.26-.76-2.67-1.14-4.23-1.14s-3.05.38-4.35,1.14c-1.3.76-2.33,1.79-3.09,3.09-.76,1.3-1.14,2.75-1.14,4.35ZM623.64,398.8h-29.94v-3.9h34.14v18.84h-4.2v-14.94ZM623.64,364.12h-3.9v-3.9h8.1v13.98h8.58v3.9h-8.58v14.16h-4.2v-28.14Z"/><path class="cls-6" d="M668.16,369.82h-30.36v-3.9h13.8v-6.12h4.2v6.12h12.36v3.9ZM640.38,381.58c0-1.92.54-3.6,1.62-5.04,1.08-1.44,2.58-2.57,4.5-3.39,1.92-.82,4.12-1.23,6.6-1.23s4.66.41,6.54,1.23c1.88.82,3.35,1.95,4.41,3.39,1.06,1.44,1.59,3.12,1.59,5.04s-.53,3.54-1.59,4.98c-1.06,1.44-2.53,2.57-4.41,3.39-1.88.82-4.06,1.23-6.54,1.23s-4.68-.41-6.6-1.23c-1.92-.82-3.42-1.95-4.5-3.39s-1.62-3.1-1.62-4.98ZM644.58,381.64c0,1.64.8,2.99,2.4,4.05,1.6,1.06,3.64,1.59,6.12,1.59s4.49-.52,6.03-1.56c1.54-1.04,2.31-2.36,2.31-3.96,0-1.76-.77-3.19-2.31-4.29-1.54-1.1-3.55-1.65-6.03-1.65s-4.52.54-6.12,1.62c-1.6,1.08-2.4,2.48-2.4,4.2ZM678.3,412.72h-32.94v-18.78h4.2v5.76h24.54v-5.76h4.2v18.78ZM649.56,403.6v5.22h24.54v-5.22h-24.54ZM674.1,364.48h-3.9v-3.9h8.1v12.18h8.46v3.9h-8.46v14.64h-4.2v-26.82Z"/><path class="cls-6" d="M726.18,397.72h-34.74l.12-33.66h4.2l-.12,29.76h30.54v-30.54h-3.3v-3.6h7.5v53.28h-4.2v-15.24Z"/><path class="cls-6" d="M774.54,398.38h-33.78l.12-29.46v-2.22h24.18v3.9h-19.98l-.12,23.88h29.58v-31.2h-3.9v-3.9h8.1v21.3h9.24v3.9h-9.24v28.02h-4.2v-14.22Z"/><path class="cls-6" d="M788.7,406.06v-6.66h6.66v6.66h-6.66Z"/><path class="cls-6" d="M108.13,507.71v-47.88h11.46v3.9h-7.26v40.08h7.26v3.9h-11.46Z"/><path class="cls-6" d="M130.62,499.73h21.42v4.5h-29.04v-3.24c3.44-3.6,6.47-6.68,9.09-9.24,2.62-2.56,4.84-4.81,6.66-6.75,1.82-1.94,3.27-3.71,4.35-5.31,1.08-1.6,1.76-3.24,2.04-4.92.36-1.88.23-3.56-.39-5.04-.62-1.48-1.59-2.64-2.91-3.48-1.32-.84-2.9-1.22-4.74-1.14-2.48.04-4.45.77-5.91,2.19-1.46,1.42-2.19,3.31-2.19,5.67h-4.5c0-2.44.53-4.58,1.59-6.42s2.54-3.29,4.44-4.35c1.9-1.06,4.09-1.59,6.57-1.59,2.88,0,5.35.67,7.41,2.01s3.57,3.13,4.53,5.37c.96,2.24,1.18,4.76.66,7.56-.32,1.68-1.02,3.43-2.1,5.25s-2.39,3.65-3.93,5.49-3.14,3.61-4.8,5.31c-1.66,1.7-3.22,3.25-4.68,4.65-1.46,1.4-2.65,2.56-3.57,3.48Z"/><path class="cls-6" d="M166.2,459.83v47.88h-11.46v-3.9h7.26v-40.08h-7.26v-3.9h11.46Z"/><path class="cls-6" d="M263.34,490.25h-4.2v-8.58h-13.02v4.68h-23.88v-23.76h23.88v4.68h13.02v-4.86h-3.9v-3.9h8.1v31.74ZM226.44,466.49v15.96h15.48v-15.96h-15.48ZM228.18,502.13c0-3.2,1.49-5.67,4.47-7.41,2.98-1.74,7.25-2.61,12.81-2.61,5.96-.04,10.53.81,13.71,2.55,3.18,1.74,4.77,4.23,4.77,7.47s-1.59,5.61-4.77,7.35c-3.18,1.74-7.75,2.61-13.71,2.61-5.56,0-9.83-.87-12.81-2.61-2.98-1.74-4.47-4.19-4.47-7.35ZM232.38,502.13c0,1.96,1.13,3.46,3.39,4.5,2.26,1.04,5.49,1.56,9.69,1.56,4.6,0,8.13-.52,10.59-1.56,2.46-1.04,3.69-2.54,3.69-4.5s-1.23-3.47-3.69-4.53-5.99-1.59-10.59-1.59c-4.2,0-7.43.53-9.69,1.59-2.26,1.06-3.39,2.57-3.39,4.53ZM246.12,471.17v6.6h13.02v-6.6h-13.02Z"/><path class="cls-6" d="M292.14,490.91h-22.32v-3.9h48.84v3.9h-22.32v10.26h-4.2v-10.26ZM313.02,511.01h-36.48v-14.58h4.2v10.68h32.28v3.9ZM311.22,481.61h-34.08v-21h4.2v6.54h25.68v-6.54h4.2v21ZM281.34,471.05v6.66h25.68v-6.66h-25.68Z"/><path class="cls-6" d="M333.36,511.07l-13.26-.06v-3.9l9.48.06v-3.18h-3.96v-6.6h7.74v13.68Z"/><path class="cls-6" d="M383.94,481.49c0-3.48.54-6.49,1.62-9.03,1.08-2.54,2.63-4.5,4.65-5.88,2.02-1.38,4.41-2.07,7.17-2.07,2.72.08,5.08.83,7.08,2.25,2,1.42,3.54,3.38,4.62,5.88s1.62,5.45,1.62,8.85-.54,6.42-1.62,8.94-2.62,4.46-4.62,5.82c-2,1.36-4.36,2.04-7.08,2.04s-5.15-.68-7.17-2.04c-2.02-1.36-3.57-3.3-4.65-5.82-1.08-2.52-1.62-5.5-1.62-8.94ZM388.14,481.49c0,3.96.83,7.1,2.49,9.42,1.66,2.32,3.91,3.48,6.75,3.48s5.02-1.16,6.66-3.48c1.64-2.32,2.46-5.46,2.46-9.42s-.82-7.23-2.46-9.57c-1.64-2.34-3.86-3.51-6.66-3.51s-5.09,1.17-6.75,3.51c-1.66,2.34-2.49,5.53-2.49,9.57ZM424.98,511.13h-4.2v-49.38h-3.9v-3.9h8.1v53.28Z"/><path class="cls-6" d="M445.56,493.13h-13.5v-3.9h48.66v3.9h-13.44v18.54h-4.2v-18.54h-13.32v18.54h-4.2v-18.54ZM456.42,483.77c-2.8,0-5.34-.55-7.62-1.65-2.28-1.1-4.09-2.57-5.43-4.41s-2.01-3.9-2.01-6.18.67-4.33,2.01-6.15,3.15-3.27,5.43-4.35c2.28-1.08,4.82-1.62,7.62-1.62s5.39.54,7.65,1.62c2.26,1.08,4.06,2.53,5.4,4.35,1.34,1.82,2.01,3.87,2.01,6.15s-.67,4.34-2.01,6.18c-1.34,1.84-3.14,3.31-5.4,4.41s-4.81,1.65-7.65,1.65ZM445.56,471.53c0,1.56.48,2.97,1.44,4.23.96,1.26,2.27,2.26,3.93,3,1.66.74,3.49,1.11,5.49,1.11s3.88-.37,5.52-1.11c1.64-.74,2.94-1.74,3.9-3,.96-1.26,1.44-2.67,1.44-4.23s-.48-2.96-1.44-4.2c-.96-1.24-2.26-2.22-3.9-2.94-1.64-.72-3.48-1.08-5.52-1.08s-3.83.36-5.49,1.08c-1.66.72-2.97,1.7-3.93,2.94-.96,1.24-1.44,2.64-1.44,4.2Z"/><path class="cls-6" d="M495.54,511.07l-13.26-.06v-3.9l9.48.06v-3.18h-3.96v-6.6h7.74v13.68Z"/><path class="cls-6" d="M559.62,491.87h-14.22v-3.9h37.8v-26.76h-4.08v-3.9h8.28v53.16h-4.2v-18.6h-19.38v18.6h-4.2v-18.6ZM548.88,471.29c0-2.2.55-4.15,1.65-5.85s2.61-3.03,4.53-3.99c1.92-.96,4.14-1.44,6.66-1.44,2.48.08,4.68.62,6.6,1.62,1.92,1,3.42,2.33,4.5,3.99,1.08,1.66,1.62,3.55,1.62,5.67s-.54,4.13-1.62,5.79c-1.08,1.66-2.58,2.96-4.5,3.9-1.92.94-4.12,1.41-6.6,1.41s-4.74-.47-6.66-1.41c-1.92-.94-3.43-2.24-4.53-3.9-1.1-1.66-1.65-3.59-1.65-5.79ZM553.08,471.29c0,2.08.8,3.8,2.4,5.16s3.68,2.04,6.24,2.04,4.52-.68,6.12-2.04c1.6-1.36,2.4-3.08,2.4-5.16s-.8-3.93-2.4-5.31c-1.6-1.38-3.64-2.07-6.12-2.07s-4.64.69-6.24,2.07-2.4,3.15-2.4,5.31Z"/><path class="cls-6" d="M595.62,496.19c5.6-3.24,9.9-7.42,12.9-12.54,2.72-4.56,4.16-9.58,4.32-15.06h-15.6v-3.9h19.86c.08,1.4.08,2.78,0,4.14-.08,1.36-.22,2.68-.42,3.96h8.1v-11.34h-3.9v-3.9h8.1v53.46h-4.2v-21.18h-10.02v-3.9h10.02v-9.24h-8.88c-.84,3.2-2.1,6.24-3.78,9.12-1.72,2.92-3.83,5.57-6.33,7.95-2.5,2.38-5.23,4.39-8.19,6.03l-1.98-3.6ZM639.3,511.01h-4.2v-53.46h4.2v53.46Z"/><path class="cls-6" d="M693.36,487.37h-48.06v-3.9h48.06v3.9ZM687.18,510.53h-35.34v-11.64h30.6v-3.6h-30.6v-3.9h34.8v11.1h-30.6v4.14h31.14v3.9ZM682.5,464.03h-30.6v-3.9h34.8v11.22h-30.6v4.44h31.14v3.9h-35.34v-11.94h30.6v-3.72Z"/><path class="cls-6" d="M731.28,489.05l-2.64-2.88,13.14-12.18v-7.86h-12.6v-3.9h28.74v3.9h-11.94v7.86l13.14,12.18-2.64,2.88-12.6-11.7-12.6,11.7ZM736.38,502.19c0-3.04,1.6-5.45,4.8-7.23,3.2-1.78,7.52-2.67,12.96-2.67,3.64-.04,6.79.35,9.45,1.17,2.66.82,4.72,1.97,6.18,3.45,1.46,1.48,2.19,3.24,2.19,5.28s-.73,3.75-2.19,5.25c-1.46,1.5-3.52,2.65-6.18,3.45-2.66.8-5.81,1.2-9.45,1.2-5.44,0-9.76-.89-12.96-2.67-3.2-1.78-4.8-4.19-4.8-7.23ZM740.58,502.19c0,1.84,1.22,3.3,3.66,4.38,2.44,1.08,5.74,1.62,9.9,1.62s7.47-.54,9.93-1.62,3.69-2.54,3.69-4.38-1.23-3.3-3.69-4.38-5.77-1.62-9.93-1.62-7.46.54-9.9,1.62c-2.44,1.08-3.66,2.54-3.66,4.38ZM766.98,476.39h-10.8v-3.9h10.8v-10.08h-3.9v-3.9h8.1v31.98h-4.2v-14.1Z"/><path class="cls-6" d="M817.44,498.05h-36.06l.12-17.94v-2.22h19.8v-11.4h-19.8v-3.9h24v19.2h-19.8l-.12,12.36h31.86v-32.4h-3.9v-3.9h8.1v53.28h-4.2v-13.08Z"/><path class="cls-6" d="M859.32,467.99h-30.36v-3.9h13.8v-6.12h4.2v6.12h12.36v3.9ZM831.54,479.75c0-1.92.54-3.6,1.62-5.04,1.08-1.44,2.58-2.57,4.5-3.39,1.92-.82,4.12-1.23,6.6-1.23s4.66.41,6.54,1.23c1.88.82,3.35,1.95,4.41,3.39,1.06,1.44,1.59,3.12,1.59,5.04s-.53,3.54-1.59,4.98c-1.06,1.44-2.53,2.57-4.41,3.39s-4.06,1.23-6.54,1.23-4.68-.41-6.6-1.23-3.42-1.95-4.5-3.39-1.62-3.1-1.62-4.98ZM835.74,479.81c0,1.64.8,2.99,2.4,4.05,1.6,1.06,3.64,1.59,6.12,1.59s4.49-.52,6.03-1.56c1.54-1.04,2.31-2.36,2.31-3.96,0-1.76-.77-3.19-2.31-4.29-1.54-1.1-3.55-1.65-6.03-1.65s-4.52.54-6.12,1.62c-1.6,1.08-2.4,2.48-2.4,4.2ZM869.46,510.89h-32.94v-18.78h4.2v5.76h24.54v-5.76h4.2v18.78ZM840.72,501.77v5.22h24.54v-5.22h-24.54ZM865.26,462.65h-3.9v-3.9h8.1v12.18h8.46v3.9h-8.46v14.64h-4.2v-26.82Z"/><path class="cls-6" d="M917.34,495.89h-34.74l.12-33.66h4.2l-.12,29.76h30.54v-30.54h-3.3v-3.6h7.5v53.28h-4.2v-15.24Z"/><path class="cls-6" d="M965.7,496.55h-33.78l.12-29.46v-2.22h24.18v3.9h-19.98l-.12,23.88h29.58v-31.2h-3.9v-3.9h8.1v21.3h9.24v3.9h-9.24v28.02h-4.2v-14.22Z"/><path class="cls-6" d="M979.86,504.23v-6.66h6.66v6.66h-6.66Z"/><path class="cls-6" d="M108.13,605.89v-47.88h11.46v3.9h-7.26v40.08h7.26v3.9h-11.46Z"/><path class="cls-6" d="M137.04,563.29c-2.56.04-4.67.82-6.33,2.34-1.66,1.52-2.49,3.46-2.49,5.82h-4.2c0-2.48.56-4.67,1.68-6.57,1.12-1.9,2.66-3.39,4.62-4.47,1.96-1.08,4.2-1.62,6.72-1.62s4.9.48,6.9,1.44c2,.96,3.56,2.3,4.68,4.02,1.12,1.72,1.66,3.7,1.62,5.94,0,1.96-.49,3.78-1.47,5.46-.98,1.68-2.29,3.06-3.93,4.14,2.08,1.04,3.75,2.5,5.01,4.38,1.26,1.88,1.89,3.98,1.89,6.3,0,2.52-.61,4.75-1.83,6.69-1.22,1.94-2.91,3.46-5.07,4.56-2.16,1.1-4.64,1.65-7.44,1.65s-5.24-.61-7.44-1.83c-2.2-1.22-3.92-2.87-5.16-4.95s-1.82-4.38-1.74-6.9h4.26c0,2.8.91,5.03,2.73,6.69,1.82,1.66,4.27,2.49,7.35,2.49s5.44-.76,7.2-2.28c1.76-1.52,2.64-3.56,2.64-6.12,0-1.6-.42-3.04-1.26-4.32s-1.98-2.3-3.42-3.06c-1.44-.76-3.06-1.14-4.86-1.14h-4.26v-4.02h3.9c1.56,0,2.98-.35,4.26-1.05,1.28-.7,2.29-1.64,3.03-2.82.74-1.18,1.11-2.47,1.11-3.87,0-2.04-.81-3.7-2.43-4.98-1.62-1.28-3.71-1.92-6.27-1.92Z"/><path class="cls-6" d="M166.2,558.01v47.88h-11.46v-3.9h7.26v-40.08h-7.26v-3.9h11.46Z"/><path class="cls-6" d="M246,609.49h-4.2v-23.16h-22.32v-3.9h37.14v-19.62h-29.88v-3.9h34.08v23.52h7.32v3.9h-22.14v23.16Z"/><path class="cls-6" d="M274.86,586.27l-2.76-2.76,11.88-13.62v-11.16h4.2v10.92l13.02,12.6-2.76,2.76-12.18-11.7-11.4,12.96ZM280.8,599.83c0-3.32,1.45-5.87,4.35-7.65s7.01-2.67,12.33-2.67,9.48.89,12.36,2.67,4.32,4.33,4.32,7.65-1.44,5.82-4.32,7.62-7,2.7-12.36,2.7-9.43-.9-12.33-2.7-4.35-4.34-4.35-7.62ZM284.88,599.83c0,2.08,1.09,3.69,3.27,4.83,2.18,1.14,5.29,1.71,9.33,1.71s7.15-.57,9.33-1.71c2.18-1.14,3.27-2.75,3.27-4.83s-1.09-3.74-3.27-4.86c-2.18-1.12-5.29-1.68-9.33-1.68s-7.15.56-9.33,1.68c-2.18,1.12-3.27,2.74-3.27,4.86ZM313.44,587.71h-4.2v-16.8h-11.64v-3.9h11.64v-7.68h-3.9v-3.6h8.1v31.98Z"/><path class="cls-6" d="M338.1,587.89h-17.76v-3.9h33.96v3.9h-12v8.76h-4.2v-8.76ZM323.16,569.23c0-2.2.53-4.15,1.59-5.85,1.06-1.7,2.53-3.04,4.41-4.02,1.88-.98,4.02-1.47,6.42-1.47,3.32,0,6.12.87,8.4,2.61,2.28,1.74,3.64,4.03,4.08,6.87h11.16v-7.38h-4.08v-3.6h8.28v41.4h-4.2v-26.52h-11.22c-.48,2.68-1.84,4.86-4.08,6.54-2.24,1.68-5.02,2.52-8.34,2.52-2.4,0-4.54-.48-6.42-1.44-1.88-.96-3.35-2.27-4.41-3.93-1.06-1.66-1.59-3.57-1.59-5.73ZM327.36,569.23c0,2.08.77,3.8,2.31,5.16,1.54,1.36,3.51,2.04,5.91,2.04s4.5-.68,6.06-2.04c1.56-1.36,2.34-3.08,2.34-5.16s-.8-3.94-2.4-5.34c-1.6-1.4-3.66-2.1-6.18-2.1-2.32,0-4.24.7-5.76,2.1-1.52,1.4-2.28,3.18-2.28,5.34ZM327.84,609.07v-16.5h4.2v12.6h34.26v3.9h-38.46Z"/><path class="cls-6" d="M409.8,597.43h-38.34v-3.9h38.28l-.06-33.54h-3.96v-3.9h8.28v53.76h-4.2v-12.42ZM375.48,573.31c0-2.2.59-4.2,1.77-6,1.18-1.8,2.76-3.25,4.74-4.35,1.98-1.1,4.13-1.65,6.45-1.65,2.32.08,4.45.69,6.39,1.83,1.94,1.14,3.5,2.6,4.68,4.38,1.18,1.78,1.77,3.71,1.77,5.79s-.59,4.08-1.77,5.88c-1.18,1.8-2.74,3.24-4.68,4.32-1.94,1.08-4.07,1.62-6.39,1.62s-4.47-.54-6.45-1.62c-1.98-1.08-3.56-2.52-4.74-4.32-1.18-1.8-1.77-3.76-1.77-5.88ZM379.68,573.31c0,1.4.4,2.7,1.2,3.9.8,1.2,1.87,2.16,3.21,2.88,1.34.72,2.79,1.08,4.35,1.08s3-.36,4.32-1.08c1.32-.72,2.37-1.68,3.15-2.88.78-1.2,1.17-2.5,1.17-3.9,0-1.48-.39-2.83-1.17-4.05-.78-1.22-1.83-2.2-3.15-2.94-1.32-.74-2.76-1.11-4.32-1.11s-3.01.37-4.35,1.11c-1.34.74-2.41,1.72-3.21,2.94-.8,1.22-1.2,2.57-1.2,4.05Z"/><path class="cls-6" d="M453.42,599.41h22.32v-11.7c-2.84-.28-5.41-1.05-7.71-2.31-2.3-1.26-4.11-2.89-5.43-4.89-1.32-2-1.98-4.2-1.98-6.6,0-2.6.76-4.96,2.28-7.08,1.52-2.12,3.58-3.8,6.18-5.04,2.6-1.24,5.5-1.86,8.7-1.86s6.1.62,8.7,1.86c2.6,1.24,4.66,2.92,6.18,5.04,1.52,2.12,2.28,4.48,2.28,7.08,0,2.4-.66,4.59-1.98,6.57-1.32,1.98-3.11,3.61-5.37,4.89-2.26,1.28-4.81,2.06-7.65,2.34v11.7h22.14v3.9h-48.66v-3.9ZM464.82,573.91c0,1.88.58,3.58,1.74,5.1,1.16,1.52,2.72,2.72,4.68,3.6,1.96.88,4.14,1.32,6.54,1.32s4.63-.44,6.57-1.32c1.94-.88,3.49-2.08,4.65-3.6,1.16-1.52,1.74-3.22,1.74-5.1s-.58-3.58-1.74-5.1c-1.16-1.52-2.71-2.73-4.65-3.63-1.94-.9-4.13-1.35-6.57-1.35s-4.58.45-6.54,1.35c-1.96.9-3.52,2.11-4.68,3.63-1.16,1.52-1.74,3.22-1.74,5.1Z"/><path class="cls-6" d="M531,569.65h-27.06v-3.9h11.34v-8.28h4.2v8.28h11.52v3.9ZM517.26,595.69c-2.16,0-4.11-.49-5.85-1.47-1.74-.98-3.12-2.3-4.14-3.96-1.02-1.66-1.53-3.51-1.53-5.55s.51-3.95,1.53-5.61c1.02-1.66,2.4-2.98,4.14-3.96,1.74-.98,3.69-1.47,5.85-1.47s4.04.49,5.76,1.47c1.72.98,3.08,2.3,4.08,3.96s1.5,3.53,1.5,5.61-.5,3.89-1.5,5.55-2.36,2.98-4.08,3.96c-1.72.98-3.64,1.47-5.76,1.47ZM509.94,584.83c0,1.28.33,2.45.99,3.51.66,1.06,1.54,1.9,2.64,2.52,1.1.62,2.33.93,3.69.93,2,0,3.69-.66,5.07-1.98,1.38-1.32,2.07-2.94,2.07-4.86,0-2.08-.69-3.83-2.07-5.25s-3.07-2.13-5.07-2.13c-1.36,0-2.59.32-3.69.96-1.1.64-1.98,1.51-2.64,2.61-.66,1.1-.99,2.33-.99,3.69ZM533.34,559.93h-3.3v-3.9h7.5v22.44h7.02v-22.44h4.2v53.16h-4.2v-26.82h-7.02v26.82h-4.2v-49.26Z"/><path class="cls-6" d="M603,585.55h-48.06v-3.9h48.06v3.9ZM596.82,608.71h-35.34v-11.64h30.6v-3.6h-30.6v-3.9h34.8v11.1h-30.6v4.14h31.14v3.9ZM592.14,562.21h-30.6v-3.9h34.8v11.22h-30.6v4.44h31.14v3.9h-35.34v-11.94h30.6v-3.72Z"/><path class="cls-6" d="M672.72,596.41h-35.28l.12-3.9h6.84v-26.7h-6.84v-3.9h30.18v3.9h-5.94v26.7h10.92v-32.58h-3.9v-3.9h8.1v21h11.64v3.9h-11.64v28.38h-4.2v-12.9ZM648.6,565.81v26.7h9v-26.7h-9Z"/><path class="cls-6" d="M689.64,572.11c0-2.32.57-4.42,1.71-6.3,1.14-1.88,2.68-3.37,4.62-4.47,1.94-1.1,4.09-1.65,6.45-1.65s4.48.55,6.36,1.65c1.88,1.1,3.38,2.59,4.5,4.47,1.12,1.88,1.68,3.98,1.68,6.3s-.56,4.57-1.68,6.51c-1.12,1.94-2.62,3.48-4.5,4.62-1.88,1.14-4,1.71-6.36,1.71s-4.51-.57-6.45-1.71c-1.94-1.14-3.48-2.68-4.62-4.62-1.14-1.94-1.71-4.11-1.71-6.51ZM693.84,572.17c0,1.64.38,3.14,1.14,4.5.76,1.36,1.78,2.43,3.06,3.21,1.28.78,2.7,1.17,4.26,1.17s3.03-.4,4.29-1.2c1.26-.8,2.27-1.88,3.03-3.24.76-1.36,1.14-2.86,1.14-4.5s-.37-3.04-1.11-4.32c-.74-1.28-1.74-2.3-3-3.06-1.26-.76-2.67-1.14-4.23-1.14s-3.05.38-4.35,1.14c-1.3.76-2.33,1.79-3.09,3.09-.76,1.3-1.14,2.75-1.14,4.35ZM724.44,595.15h-29.94v-3.9h34.14v18.84h-4.2v-14.94ZM724.44,560.47h-3.9v-3.9h8.1v13.98h8.58v3.9h-8.58v14.16h-4.2v-28.14Z"/><path class="cls-6" d="M768.96,566.17h-30.36v-3.9h13.8v-6.12h4.2v6.12h12.36v3.9ZM741.18,577.93c0-1.92.54-3.6,1.62-5.04,1.08-1.44,2.58-2.57,4.5-3.39,1.92-.82,4.12-1.23,6.6-1.23s4.66.41,6.54,1.23c1.88.82,3.35,1.95,4.41,3.39,1.06,1.44,1.59,3.12,1.59,5.04s-.53,3.54-1.59,4.98c-1.06,1.44-2.53,2.57-4.41,3.39-1.88.82-4.06,1.23-6.54,1.23s-4.68-.41-6.6-1.23c-1.92-.82-3.42-1.95-4.5-3.39s-1.62-3.1-1.62-4.98ZM745.38,577.99c0,1.64.8,2.99,2.4,4.05,1.6,1.06,3.64,1.59,6.12,1.59s4.49-.52,6.03-1.56c1.54-1.04,2.31-2.36,2.31-3.96,0-1.76-.77-3.19-2.31-4.29-1.54-1.1-3.55-1.65-6.03-1.65s-4.52.54-6.12,1.62c-1.6,1.08-2.4,2.48-2.4,4.2ZM779.1,609.07h-32.94v-18.78h4.2v5.76h24.54v-5.76h4.2v18.78ZM750.36,599.95v5.22h24.54v-5.22h-24.54ZM774.9,560.83h-3.9v-3.9h8.1v12.18h8.46v3.9h-8.46v14.64h-4.2v-26.82Z"/><path class="cls-6" d="M826.98,594.07h-34.74l.12-33.66h4.2l-.12,29.76h30.54v-30.54h-3.3v-3.6h7.5v53.28h-4.2v-15.24Z"/><path class="cls-6" d="M875.34,594.73h-33.78l.12-29.46v-2.22h24.18v3.9h-19.98l-.12,23.88h29.58v-31.2h-3.9v-3.9h8.1v21.3h9.24v3.9h-9.24v28.02h-4.2v-14.22Z"/><path class="cls-6" d="M889.5,602.41v-6.66h6.66v6.66h-6.66Z"/><path class="cls-6" d="M108.13,704.06v-47.88h11.46v3.9h-7.26v40.08h7.26v3.9h-11.46Z"/><path class="cls-6" d="M146.11,691.04v9.54h-4.5v-9.54h-19.98v-4.2l17.46-28.86h7.02v28.86h7.74v4.2h-7.74ZM141.61,661.88l-14.82,24.96h14.82v-24.96Z"/><path class="cls-6" d="M166.2,656.18v47.88h-11.46v-3.9h7.26v-40.08h-7.26v-3.9h11.46Z"/><path class="cls-6" d="M268.56,701.48h-48.9v-3.9h14.82l-.06-13.38h-9.12v-3.9h9.06l-.06-18.12h-8.7v-3.9h36.6v3.9h-8.94l.06,18.12h9.18v3.9h-9.12l.06,13.38h15.12v3.9ZM249.24,662.18h-10.92l.06,18.12h10.92l-.06-18.12ZM249.36,684.2h-10.92l.06,13.38h10.92l-.06-13.38Z"/><path class="cls-6" d="M300.12,665.12h-29.76v-3.9h12.48v-6.12h4.2v6.12h13.08v3.9ZM273.18,678.2c0-1.96.53-3.69,1.59-5.19s2.52-2.68,4.38-3.54c1.86-.86,4.01-1.29,6.45-1.29,1.64,0,3.17.21,4.59.63s2.65,1.01,3.69,1.77h15.84v-12.48h-3.9v-3.9h8.1v40.32h-4.2v-9.06h-15.36c-1.08.88-2.37,1.56-3.87,2.04-1.5.48-3.13.72-4.89.72-2.44,0-4.59-.43-6.45-1.29-1.86-.86-3.32-2.04-4.38-3.54s-1.59-3.23-1.59-5.19ZM277.38,678.26c0,1.76.77,3.21,2.31,4.35s3.51,1.71,5.91,1.71,4.29-.56,5.79-1.68c1.5-1.12,2.25-2.54,2.25-4.26,0-1.88-.75-3.4-2.25-4.56s-3.43-1.74-5.79-1.74-4.37.58-5.91,1.74-2.31,2.64-2.31,4.44ZM279.66,706.58v-14.34h4.2v10.44h31.14v3.9h-35.34ZM297.06,674.48c.52,1.08.78,2.32.78,3.72,0,1.28-.2,2.4-.6,3.36h12.48v-7.08h-12.66Z"/><path class="cls-6" d="M361.26,708.02h-4.2v-12h-37.32v-3.9h12.06v-15.96h4.2v15.96h21.06v-33.42h-3.9v-3.6h8.1v21.42h8.88v3.9h-8.88v27.6ZM345.84,664.16h-23.16v-3.72h27.18v23.76h-4.02v-20.04Z"/><path class="cls-6" d="M406.5,686.36l-2.7-2.82,13.14-10.98v-9.96h-11.28v-3.9h27.24v3.9h-11.76v10.14l13.32,10.8-2.7,2.82-12.84-10.38-12.42,10.38ZM413.82,706.94v-17.4h4.2v13.5h31.56v3.9h-35.76ZM442.32,672.8h-12.9v-3.9h12.9v-11.04h-3.9v-3.6h8.1v39.84h-4.2v-21.3Z"/><path class="cls-6" d="M490.56,679.76h-34.2v-21.9h24.54v3.9h-20.34v14.1h30v-17.28h-3.9v-3.9h8.1v12h7.68v3.9h-7.68v11.22h-4.2v-2.04ZM491.4,688.52h-30.18v-3.9h34.08v12.78h-29.82v5.46h32.04v3.9h-35.94v-13.26h29.82v-4.98Z"/><path class="cls-6" d="M530.16,682.82h-23.4v-24.96h4.2v8.22h15.24v-8.22h3.96v24.96ZM510.96,669.98v8.94h15.24v-8.94h-15.24ZM511.62,698c0-3.04,1.49-5.37,4.47-6.99,2.98-1.62,7.25-2.43,12.81-2.43,5.56-.04,9.83.75,12.81,2.37,2.98,1.62,4.47,3.97,4.47,7.05s-1.49,5.67-4.47,7.41c-2.98,1.74-7.25,2.61-12.81,2.61s-9.83-.87-12.81-2.61c-2.98-1.74-4.47-4.21-4.47-7.41ZM515.82,698c0,1.96,1.13,3.47,3.39,4.53,2.26,1.06,5.49,1.59,9.69,1.59s7.43-.53,9.69-1.59c2.26-1.06,3.39-2.57,3.39-4.53,0-1.76-1.13-3.12-3.39-4.08-2.26-.96-5.49-1.44-9.69-1.44s-7.43.48-9.69,1.44c-2.26.96-3.39,2.32-3.39,4.08ZM541.14,657.8h-3.9v-3.9h8.1v13.62h8.46v3.9h-8.46v15.78h-4.2v-29.4Z"/><path class="cls-6" d="M558.66,682.64l-2.76-2.76,12.84-12.42v-10.98h4.2v10.98l13.14,11.58-2.76,2.76-12.48-10.92-12.18,11.76ZM597.66,708.02h-4.2v-15.06h-30.06v-3.9h34.26v18.96ZM593.46,658.1h-3.9v-3.9h8.1v31.5h-4.2v-27.6Z"/><path class="cls-6" d="M653.04,681.92h-48.24v-3.9h48.24v3.9ZM642.84,690.38h-31.74v-3.9h35.94v12.54h-31.74v5.04h33.36v3.9h-37.56v-12.84h31.74v-4.74ZM611.94,664.82c0-1.84.72-3.47,2.16-4.89,1.44-1.42,3.45-2.53,6.03-3.33,2.58-.8,5.53-1.2,8.85-1.2s6.32.4,8.88,1.2c2.56.8,4.56,1.91,6,3.33,1.44,1.42,2.16,3.05,2.16,4.89s-.72,3.48-2.16,4.92c-1.44,1.44-3.44,2.56-6,3.36-2.56.8-5.52,1.2-8.88,1.2s-6.27-.4-8.85-1.2c-2.58-.8-4.59-1.92-6.03-3.36-1.44-1.44-2.16-3.08-2.16-4.92ZM616.14,664.82c0,1.08.55,2.05,1.65,2.91,1.1.86,2.61,1.53,4.53,2.01,1.92.48,4.14.72,6.66.72s4.75-.24,6.69-.72c1.94-.48,3.45-1.15,4.53-2.01,1.08-.86,1.62-1.83,1.62-2.91s-.54-2.03-1.62-2.85c-1.08-.82-2.59-1.46-4.53-1.92-1.94-.46-4.17-.69-6.69-.69s-4.74.23-6.66.69c-1.92.46-3.43,1.1-4.53,1.92-1.1.82-1.65,1.77-1.65,2.85Z"/><path class="cls-6" d="M691.32,682.04l-2.64-2.88,13.14-12.18v-10.44h4.2v10.44l13.14,12.18-2.64,2.88-12.6-11.7-12.6,11.7ZM697.92,707.96v-13.74h29.34v-4.92h-29.4v-3.9h33.6v12.72h-29.34v5.94h31.8v3.9h-36ZM726.96,668.54h-12.72v-3.9h12.72v-5.88h-3.9v-3.9h8.1v27.66h-4.2v-13.98Z"/><path class="cls-6" d="M739.26,692.54c5.6-3.24,9.9-7.42,12.9-12.54,2.72-4.56,4.16-9.58,4.32-15.06h-15.6v-3.9h19.86c.08,1.4.08,2.78,0,4.14-.08,1.36-.22,2.68-.42,3.96h8.1v-11.34h-3.9v-3.9h8.1v53.46h-4.2v-21.18h-10.02v-3.9h10.02v-9.24h-8.88c-.84,3.2-2.1,6.24-3.78,9.12-1.72,2.92-3.83,5.57-6.33,7.95-2.5,2.38-5.23,4.39-8.19,6.03l-1.98-3.6ZM782.94,707.36h-4.2v-53.46h4.2v53.46Z"/><path class="cls-6" d="M819.36,664.34h-30.36v-3.9h13.8v-6.12h4.2v6.12h12.36v3.9ZM791.58,676.1c0-1.92.54-3.6,1.62-5.04s2.58-2.57,4.5-3.39c1.92-.82,4.12-1.23,6.6-1.23s4.66.41,6.54,1.23c1.88.82,3.35,1.95,4.41,3.39,1.06,1.44,1.59,3.12,1.59,5.04s-.53,3.54-1.59,4.98c-1.06,1.44-2.53,2.57-4.41,3.39-1.88.82-4.06,1.23-6.54,1.23s-4.68-.41-6.6-1.23c-1.92-.82-3.42-1.95-4.5-3.39-1.08-1.44-1.62-3.1-1.62-4.98ZM795.78,676.16c0,1.64.8,2.99,2.4,4.05,1.6,1.06,3.64,1.59,6.12,1.59s4.49-.52,6.03-1.56c1.54-1.04,2.31-2.36,2.31-3.96,0-1.76-.77-3.19-2.31-4.29-1.54-1.1-3.55-1.65-6.03-1.65s-4.52.54-6.12,1.62c-1.6,1.08-2.4,2.48-2.4,4.2ZM829.5,707.24h-32.94v-18.78h4.2v5.76h24.54v-5.76h4.2v18.78ZM800.76,698.12v5.22h24.54v-5.22h-24.54ZM825.3,659h-3.9v-3.9h8.1v12.18h8.46v3.9h-8.46v14.64h-4.2v-26.82Z"/><path class="cls-6" d="M877.38,692.24h-34.74l.12-33.66h4.2l-.12,29.76h30.54v-30.54h-3.3v-3.6h7.5v53.28h-4.2v-15.24Z"/><path class="cls-6" d="M925.74,692.9h-33.78l.12-29.46v-2.22h24.18v3.9h-19.98l-.12,23.88h29.58v-31.2h-3.9v-3.9h8.1v21.3h9.24v3.9h-9.24v28.02h-4.2v-14.22Z"/><path class="cls-6" d="M939.9,700.58v-6.66h6.66v6.66h-6.66Z"/><path class="cls-6" d="M108.13,802.24v-47.88h11.46v3.9h-7.26v40.08h7.26v3.9h-11.46Z"/><path class="cls-6" d="M138.72,771.22c2.76,0,5.2.58,7.32,1.74,2.12,1.16,3.78,2.75,4.98,4.77,1.2,2.02,1.8,4.35,1.8,6.99,0,2.88-.59,5.44-1.77,7.68-1.18,2.24-2.82,3.99-4.92,5.25-2.1,1.26-4.53,1.89-7.29,1.89s-5.13-.58-7.23-1.74c-2.1-1.16-3.74-2.76-4.92-4.8-1.18-2.04-1.77-4.38-1.77-7.02h3.9c0,2.76.94,5.01,2.82,6.75,1.88,1.74,4.28,2.61,7.2,2.61,1.88,0,3.53-.45,4.95-1.35,1.42-.9,2.53-2.16,3.33-3.78.8-1.62,1.2-3.47,1.2-5.55,0-2.68-.88-4.88-2.64-6.6-1.76-1.72-4.04-2.6-6.84-2.64-1.92-.04-3.68.48-5.28,1.56-1.6,1.08-2.68,2.5-3.24,4.26h-4.92v-25.08h25.08v4.5h-20.88v14.16c1.2-1.16,2.59-2.06,4.17-2.7,1.58-.64,3.23-.94,4.95-.9Z"/><path class="cls-6" d="M166.2,754.36v47.88h-11.46v-3.9h7.26v-40.08h-7.26v-3.9h11.46Z"/><path class="cls-6" d="M223.32,779.38l-2.64-2.88,13.26-12.3v-9.66h4.2v9.9l13.02,12.06-2.64,2.88-12.6-11.7-12.6,11.7ZM229.74,805.36v-13.14h29.4v-4.62h-29.46v-3.9h33.66v12.42h-29.4v5.34h31.38v3.9h-35.58ZM259.14,755.98h-3.9v-3.9h8.1v28.5h-4.2v-24.6Z"/><path class="cls-6" d="M272.1,784.24l-2.7-2.82,14.4-11.58v-6.3h-11.58v-3.9h11.58v-7.08h4.2v7.08h11.22v3.9h-11.22v6.6l13.26,10.08-2.7,2.82-12.84-9.72-13.62,10.92ZM279.3,804.76v-16.2h4.2v12.3h32.1v3.9h-36.3ZM309.06,772.66h-10.68v-3.9h10.68v-12.48h-3.9v-3.9h8.1v39.72h-4.2v-19.44Z"/><path class="cls-6" d="M352.2,761.56h-32.28v-3.9h14.64v-5.46h4.2v5.46h13.44v3.9ZM323.04,772.84c0-1.8.56-3.38,1.68-4.74s2.66-2.42,4.62-3.18,4.2-1.14,6.72-1.14,4.75.38,6.69,1.14c1.94.76,3.45,1.82,4.53,3.18s1.62,2.94,1.62,4.74-.54,3.32-1.62,4.68-2.59,2.42-4.53,3.18c-1.94.76-4.17,1.14-6.69,1.14s-4.76-.38-6.72-1.14-3.5-1.82-4.62-3.18-1.68-2.92-1.68-4.68ZM327.24,772.9c0,1.48.83,2.69,2.49,3.63,1.66.94,3.77,1.41,6.33,1.41s4.64-.46,6.24-1.38c1.6-.92,2.4-2.1,2.4-3.54,0-1.56-.8-2.84-2.4-3.84s-3.68-1.5-6.24-1.5-4.67.49-6.33,1.47c-1.66.98-2.49,2.23-2.49,3.75ZM356.7,789.1h-29.1v-3.9h33.3v11.88h-28.8v4.14h31.44v3.9h-35.64v-11.94h28.8v-4.08ZM356.7,755.74h-3.9v-3.9h8.1v14.04h9.18v3.9h-9.18v12.42h-4.2v-26.46Z"/><path class="cls-6" d="M429.36,781h-23.4v-24.96h4.2v8.22h15.24v-8.22h3.96v24.96ZM410.16,768.16v8.94h15.24v-8.94h-15.24ZM410.82,796.18c0-3.04,1.49-5.37,4.47-6.99,2.98-1.62,7.25-2.43,12.81-2.43,5.56-.04,9.83.75,12.81,2.37,2.98,1.62,4.47,3.97,4.47,7.05s-1.49,5.67-4.47,7.41c-2.98,1.74-7.25,2.61-12.81,2.61s-9.83-.87-12.81-2.61c-2.98-1.74-4.47-4.21-4.47-7.41ZM415.02,796.18c0,1.96,1.13,3.47,3.39,4.53,2.26,1.06,5.49,1.59,9.69,1.59s7.43-.53,9.69-1.59c2.26-1.06,3.39-2.57,3.39-4.53,0-1.76-1.13-3.12-3.39-4.08-2.26-.96-5.49-1.44-9.69-1.44s-7.43.48-9.69,1.44c-2.26.96-3.39,2.32-3.39,4.08ZM440.34,755.98h-3.9v-3.9h8.1v13.62h8.46v3.9h-8.46v15.78h-4.2v-29.4Z"/><path class="cls-6" d="M479.82,779.86h-22.44v-24.36h4.2v8.1h14.04v-8.1h4.2v9.36h12.3v-7.02h-3.9v-3.9h8.1v27.78h-4.2v-12.96h-12.3v11.1ZM461.58,767.5v8.46h14.04v-8.46h-14.04ZM496.26,805h-32.52v-20.82h4.2v7.14h24.12v-6.96h4.2v20.64ZM467.94,795.22v5.88h24.12v-5.88h-24.12Z"/><path class="cls-6" d="M552.24,780.1h-48.24v-3.9h48.24v3.9ZM542.04,788.56h-31.74v-3.9h35.94v12.54h-31.74v5.04h33.36v3.9h-37.56v-12.84h31.74v-4.74ZM511.14,763c0-1.84.72-3.47,2.16-4.89s3.45-2.53,6.03-3.33c2.58-.8,5.53-1.2,8.85-1.2s6.32.4,8.88,1.2c2.56.8,4.56,1.91,6,3.33,1.44,1.42,2.16,3.05,2.16,4.89s-.72,3.48-2.16,4.92-3.44,2.56-6,3.36c-2.56.8-5.52,1.2-8.88,1.2s-6.27-.4-8.85-1.2c-2.58-.8-4.59-1.92-6.03-3.36-1.44-1.44-2.16-3.08-2.16-4.92ZM515.34,763c0,1.08.55,2.05,1.65,2.91,1.1.86,2.61,1.53,4.53,2.01,1.92.48,4.14.72,6.66.72s4.75-.24,6.69-.72c1.94-.48,3.45-1.15,4.53-2.01,1.08-.86,1.62-1.83,1.62-2.91s-.54-2.03-1.62-2.85c-1.08-.82-2.59-1.46-4.53-1.92-1.94-.46-4.17-.69-6.69-.69s-4.74.23-6.66.69-3.43,1.1-4.53,1.92c-1.1.82-1.65,1.77-1.65,2.85Z"/><path class="cls-6" d="M588.06,790.72c5.6-3.24,9.9-7.42,12.9-12.54,2.72-4.56,4.16-9.58,4.32-15.06h-15.6v-3.9h19.86c.08,1.4.08,2.78,0,4.14-.08,1.36-.22,2.68-.42,3.96h8.1v-11.34h-3.9v-3.9h8.1v53.46h-4.2v-21.18h-10.02v-3.9h10.02v-9.24h-8.88c-.84,3.2-2.1,6.24-3.78,9.12-1.72,2.92-3.83,5.57-6.33,7.95-2.5,2.38-5.23,4.39-8.19,6.03l-1.98-3.6ZM631.74,805.54h-4.2v-53.46h4.2v53.46Z"/><path class="cls-6" d="M668.82,761.56h-29.52v-3.9h12.3v-5.28h4.2v5.28h13.02v3.9ZM680.1,788.2h-4.2v-1.86h-36.6v-3.9h12.3v-2.82c-2.92-.32-5.27-1.2-7.05-2.64-1.78-1.44-2.67-3.2-2.67-5.28,0-1.64.52-3.08,1.56-4.32,1.04-1.24,2.48-2.21,4.32-2.91,1.84-.7,3.94-1.05,6.3-1.05s4.44.35,6.24,1.05c1.8.7,3.21,1.67,4.23,2.91,1.02,1.24,1.53,2.68,1.53,4.32,0,2.16-.95,3.96-2.85,5.4-1.9,1.44-4.37,2.3-7.41,2.58v2.76h20.1v-26.1h-3.48v-3.9h7.68v35.76ZM675.84,794.8h-31.32v-3.9h35.52v15.24h-4.2v-11.34ZM645.96,771.76c0,1.24.76,2.25,2.28,3.03,1.52.78,3.46,1.17,5.82,1.17s4.27-.38,5.73-1.14c1.46-.76,2.19-1.74,2.19-2.94,0-1.4-.73-2.53-2.19-3.39-1.46-.86-3.37-1.29-5.73-1.29s-4.3.42-5.82,1.26c-1.52.84-2.28,1.94-2.28,3.3Z"/><path class="cls-6" d="M718.56,762.52h-30.36v-3.9h13.8v-6.12h4.2v6.12h12.36v3.9ZM690.78,774.28c0-1.92.54-3.6,1.62-5.04s2.58-2.57,4.5-3.39,4.12-1.23,6.6-1.23,4.66.41,6.54,1.23,3.35,1.95,4.41,3.39c1.06,1.44,1.59,3.12,1.59,5.04s-.53,3.54-1.59,4.98c-1.06,1.44-2.53,2.57-4.41,3.39-1.88.82-4.06,1.23-6.54,1.23s-4.68-.41-6.6-1.23c-1.92-.82-3.42-1.95-4.5-3.39-1.08-1.44-1.62-3.1-1.62-4.98ZM694.98,774.34c0,1.64.8,2.99,2.4,4.05,1.6,1.06,3.64,1.59,6.12,1.59s4.49-.52,6.03-1.56c1.54-1.04,2.31-2.36,2.31-3.96,0-1.76-.77-3.19-2.31-4.29-1.54-1.1-3.55-1.65-6.03-1.65s-4.52.54-6.12,1.62c-1.6,1.08-2.4,2.48-2.4,4.2ZM728.7,805.42h-32.94v-18.78h4.2v5.76h24.54v-5.76h4.2v18.78ZM699.96,796.3v5.22h24.54v-5.22h-24.54ZM724.5,757.18h-3.9v-3.9h8.1v12.18h8.46v3.9h-8.46v14.64h-4.2v-26.82Z"/><path class="cls-6" d="M776.58,790.42h-34.74l.12-33.66h4.2l-.12,29.76h30.54v-30.54h-3.3v-3.6h7.5v53.28h-4.2v-15.24Z"/><path class="cls-6" d="M824.94,791.08h-33.78l.12-29.46v-2.22h24.18v3.9h-19.98l-.12,23.88h29.58v-31.2h-3.9v-3.9h8.1v21.3h9.24v3.9h-9.24v28.02h-4.2v-14.22Z"/><path class="cls-6" d="M839.1,798.76v-6.66h6.66v6.66h-6.66Z"/><path class="cls-6" d="M108.13,900.41v-47.88h11.46v3.9h-7.26v40.08h7.26v3.9h-11.46Z"/><path class="cls-6" d="M138.54,871.79c2.56,0,4.87.58,6.93,1.74,2.06,1.16,3.7,2.71,4.92,4.65,1.22,1.94,1.83,4.13,1.83,6.57s-.61,4.58-1.83,6.54c-1.22,1.96-2.86,3.52-4.92,4.68-2.06,1.16-4.37,1.74-6.93,1.74s-4.87-.58-6.93-1.74c-2.06-1.16-3.7-2.72-4.92-4.68-1.22-1.96-1.83-4.16-1.83-6.6,0-1.16.15-2.27.45-3.33.3-1.06.71-2.05,1.23-2.97l13.44-24.06h4.98l-10.38,18c1.28-.36,2.6-.54,3.96-.54ZM129.37,884.69c0,1.64.41,3.13,1.23,4.47.82,1.34,1.92,2.4,3.3,3.18,1.38.78,2.93,1.17,4.65,1.17s3.27-.39,4.65-1.17c1.38-.78,2.48-1.84,3.3-3.18.82-1.34,1.23-2.83,1.23-4.47s-.41-3.11-1.23-4.41c-.82-1.3-1.92-2.34-3.3-3.12s-2.93-1.17-4.65-1.17-3.27.39-4.65,1.17c-1.38.78-2.48,1.82-3.3,3.12-.82,1.3-1.23,2.77-1.23,4.41Z"/><path class="cls-6" d="M166.2,852.53v47.88h-11.46v-3.9h7.26v-40.08h-7.26v-3.9h11.46Z"/><path class="cls-6" d="M253.92,903.11h-4.2v-27.66h-7.86v13.38h-20.4v-32.22h20.4v14.94h7.86v-17.16h-3.9v-3.9h8.1v52.62ZM225.66,860.51v24.42h12v-24.42h-12ZM264.24,903.11h-4.2v-52.62h4.2v52.62Z"/><path class="cls-6" d="M273.96,891.53l-3.06-2.4,13.68-18.42v-15.3h4.2v15l14.34,18.66-3,2.46-13.32-17.28-12.84,17.28ZM313.98,903.83h-4.2v-49.38h-3.9v-3.9h8.1v53.28Z"/><path class="cls-6" d="M324.06,892.73l-3-2.64,13.86-15.78v-13.92h-12.12v-3.9h28.62v3.9h-12.3v13.92l13.86,15.78-3,2.64-12.96-14.7-12.96,14.7ZM364.02,903.83h-4.2v-49.38h-3.9v-3.9h8.1v53.28Z"/><path class="cls-6" d="M419.4,880.07h-48.06v-3.9h48.06v3.9ZM413.22,903.23h-35.34v-11.64h30.6v-3.6h-30.6v-3.9h34.8v11.1h-30.6v4.14h31.14v3.9ZM408.54,856.73h-30.6v-3.9h34.8v11.22h-30.6v4.44h31.14v3.9h-35.34v-11.94h30.6v-3.72Z"/><path class="cls-6" d="M467.4,859.13h-11.58v-3.9h27v3.9h-11.22v8.82l12.66,10.62-2.7,2.82-12.06-10.02h-.48l-12.72,10.62-2.7-2.82,13.8-11.52v-8.52ZM489.9,889.91h-30.36v-3.9h34.56v18.36h-4.2v-14.46ZM489.9,854.63h-3.9v-3.9h8.1v12.84h8.64v3.9h-8.64v15.24h-4.2v-28.08Z"/><path class="cls-6" d="M508.86,880.79l-2.76-2.76,11.88-13.62v-11.16h4.2v10.92l13.02,12.6-2.76,2.76-12.18-11.7-11.4,12.96ZM514.8,894.35c0-3.32,1.45-5.87,4.35-7.65,2.9-1.78,7.01-2.67,12.33-2.67s9.48.89,12.36,2.67c2.88,1.78,4.32,4.33,4.32,7.65s-1.44,5.82-4.32,7.62c-2.88,1.8-7,2.7-12.36,2.7s-9.43-.9-12.33-2.7c-2.9-1.8-4.35-4.34-4.35-7.62ZM518.88,894.35c0,2.08,1.09,3.69,3.27,4.83,2.18,1.14,5.29,1.71,9.33,1.71s7.15-.57,9.33-1.71c2.18-1.14,3.27-2.75,3.27-4.83s-1.09-3.74-3.27-4.86c-2.18-1.12-5.29-1.68-9.33-1.68s-7.15.56-9.33,1.68c-2.18,1.12-3.27,2.74-3.27,4.86ZM547.44,882.23h-4.2v-16.8h-11.64v-3.9h11.64v-7.68h-3.9v-3.6h8.1v31.98Z"/><path class="cls-6" d="M585.36,860.69h-30.36v-3.9h13.8v-6.12h4.2v6.12h12.36v3.9ZM557.58,872.45c0-1.92.54-3.6,1.62-5.04s2.58-2.57,4.5-3.39c1.92-.82,4.12-1.23,6.6-1.23s4.66.41,6.54,1.23c1.88.82,3.35,1.95,4.41,3.39,1.06,1.44,1.59,3.12,1.59,5.04s-.53,3.54-1.59,4.98c-1.06,1.44-2.53,2.57-4.41,3.39s-4.06,1.23-6.54,1.23-4.68-.41-6.6-1.23-3.42-1.95-4.5-3.39c-1.08-1.44-1.62-3.1-1.62-4.98ZM561.78,872.51c0,1.64.8,2.99,2.4,4.05,1.6,1.06,3.64,1.59,6.12,1.59s4.49-.52,6.03-1.56c1.54-1.04,2.31-2.36,2.31-3.96,0-1.76-.77-3.19-2.31-4.29-1.54-1.1-3.55-1.65-6.03-1.65s-4.52.54-6.12,1.62c-1.6,1.08-2.4,2.48-2.4,4.2ZM595.5,903.59h-32.94v-18.78h4.2v5.76h24.54v-5.76h4.2v18.78ZM566.76,894.47v5.22h24.54v-5.22h-24.54ZM591.3,855.35h-3.9v-3.9h8.1v12.18h8.46v3.9h-8.46v14.64h-4.2v-26.82Z"/><path class="cls-6" d="M643.38,888.59h-34.74l.12-33.66h4.2l-.12,29.76h30.54v-30.54h-3.3v-3.6h7.5v53.28h-4.2v-15.24Z"/><path class="cls-6" d="M691.74,889.25h-33.78l.12-29.46v-2.22h24.18v3.9h-19.98l-.12,23.88h29.58v-31.2h-3.9v-3.9h8.1v21.3h9.24v3.9h-9.24v28.02h-4.2v-14.22Z"/><path class="cls-6" d="M705.9,896.93v-6.66h6.66v6.66h-6.66Z"/><path class="cls-6" d="M108.13,998.59v-47.88h11.46v3.9h-7.26v40.08h7.26v3.9h-11.46Z"/><path class="cls-6" d="M124.92,952.51h27.24v4.5l-15.84,38.1h-4.98l16.2-38.1h-22.62v-4.5Z"/><path class="cls-6" d="M166.2,950.71v47.88h-11.46v-3.9h7.26v-40.08h-7.26v-3.9h11.46Z"/><path class="cls-6" d="M226.56,994.75h-4.5v-42.24h16.68c3.8,0,6.73.99,8.79,2.97,2.06,1.98,3.09,4.91,3.09,8.79,0,3.68-1.03,6.52-3.09,8.52-2.06,2-4.99,3-8.79,3h-12.18v18.96ZM226.56,956.71v14.88h12.18c2.44.04,4.28-.58,5.52-1.86,1.24-1.28,1.86-3.1,1.86-5.46,0-2.52-.64-4.41-1.92-5.67s-3.1-1.89-5.46-1.89h-12.18Z"/><path class="cls-6" d="M265.56,995.11h-11.28v-42.6h11.28c6.16,0,10.65,1.7,13.47,5.1,2.82,3.4,4.23,8.8,4.23,16.2s-1.41,12.8-4.23,16.2c-2.82,3.4-7.31,5.1-13.47,5.1ZM258.78,957.01v33.6h6.78c4.6,0,7.95-1.34,10.05-4.02,2.1-2.68,3.15-6.94,3.15-12.78s-1.05-10.1-3.15-12.78c-2.1-2.68-5.45-4.02-10.05-4.02h-6.78Z"/><path class="cls-6" d="M292.14,973.81v21.3h-4.5v-42.6h25.86v4.2h-21.36v12.9h20.34v4.2h-20.34Z"/><path class="cls-6" d="M337.14,953.05h4.44l-14.94,42.36h-4.44l14.94-42.36Z"/><path class="cls-6" d="M352.2,980.17l-2.7-2.82,11.04-10.08v-6.84h-9.9v-3.9h9.9v-6.9h4.2v6.9h9.9v3.9h-9.9v6.48l11.04,9.84-2.7,2.88-10.26-9.36-10.62,9.9ZM389.82,989.05h-31.44v-3.9h35.64v17.4h-4.2v-13.5ZM378.96,953.89h-3.9v-3.9h8.1v13.68h6.66v-13.68h4.2v31.98h-4.2v-14.4h-6.66v14.4h-4.2v-28.08Z"/><path class="cls-6" d="M415.08,959.59h-12.42v-3.9h28.98v3.9h-12.36v12.84l14.28,17.4-3,2.46-13.32-16.2-12.84,16.2-3.06-2.4,13.74-17.34v-12.96ZM439.2,952.81h-3.9v-3.9h8.1v21.54h9.78v3.9h-9.78v27.84h-4.2v-49.38Z"/><path class="cls-6" d="M461.94,978.91v-15.12h29.88v-6.12h-29.88v-3.9h34.08v13.92h-29.88v7.32h29.88v3.9h-14.82v13.5h22.26v3.9h-48.72v-3.9h22.26v-13.5h-15.06Z"/><path class="cls-6" d="M578.34,990.31h-4.2v-8.04h-36.42v-3.9h14.16v-5.76c-3.04-.4-5.49-1.55-7.35-3.45-1.86-1.9-2.79-4.21-2.79-6.93,0-2.08.52-3.91,1.56-5.49,1.04-1.58,2.49-2.83,4.35-3.75,1.86-.92,3.99-1.38,6.39-1.38,2.4.08,4.51.59,6.33,1.53,1.82.94,3.25,2.19,4.29,3.75s1.56,3.34,1.56,5.34c0,2.76-.93,5.08-2.79,6.96-1.86,1.88-4.31,3.02-7.35,3.42v5.76h18.06v-25.38h-3.9v-3.9h8.1v18.66h8.58v3.9h-8.58v18.66ZM581.28,1001.95h-35.58v-15.78h4.2v11.88h31.38v3.9ZM545.94,962.23c0,1.92.76,3.5,2.28,4.74,1.52,1.24,3.46,1.86,5.82,1.86s4.28-.62,5.76-1.86c1.48-1.24,2.22-2.82,2.22-4.74s-.74-3.57-2.22-4.83c-1.48-1.26-3.4-1.89-5.76-1.89s-4.3.63-5.82,1.89c-1.52,1.26-2.28,2.87-2.28,4.83Z"/><path class="cls-6" d="M592.86,978.97l-2.76-2.76,11.88-13.62v-11.16h4.2v10.92l13.02,12.6-2.76,2.76-12.18-11.7-11.4,12.96ZM598.8,992.53c0-3.32,1.45-5.87,4.35-7.65,2.9-1.78,7.01-2.67,12.33-2.67s9.48.89,12.36,2.67c2.88,1.78,4.32,4.33,4.32,7.65s-1.44,5.82-4.32,7.62c-2.88,1.8-7,2.7-12.36,2.7s-9.43-.9-12.33-2.7c-2.9-1.8-4.35-4.34-4.35-7.62ZM602.88,992.53c0,2.08,1.09,3.69,3.27,4.83,2.18,1.14,5.29,1.71,9.33,1.71s7.15-.57,9.33-1.71c2.18-1.14,3.27-2.75,3.27-4.83s-1.09-3.74-3.27-4.86c-2.18-1.12-5.29-1.68-9.33-1.68s-7.15.56-9.33,1.68c-2.18,1.12-3.27,2.74-3.27,4.86ZM631.44,980.41h-4.2v-16.8h-11.64v-3.9h11.64v-7.68h-3.9v-3.6h8.1v31.98Z"/><path class="cls-6" d="M669.36,958.87h-30.36v-3.9h13.8v-6.12h4.2v6.12h12.36v3.9ZM641.58,970.63c0-1.92.54-3.6,1.62-5.04,1.08-1.44,2.58-2.57,4.5-3.39s4.12-1.23,6.6-1.23,4.66.41,6.54,1.23,3.35,1.95,4.41,3.39c1.06,1.44,1.59,3.12,1.59,5.04s-.53,3.54-1.59,4.98c-1.06,1.44-2.53,2.57-4.41,3.39-1.88.82-4.06,1.23-6.54,1.23s-4.68-.41-6.6-1.23c-1.92-.82-3.42-1.95-4.5-3.39-1.08-1.44-1.62-3.1-1.62-4.98ZM645.78,970.69c0,1.64.8,2.99,2.4,4.05,1.6,1.06,3.64,1.59,6.12,1.59s4.49-.52,6.03-1.56c1.54-1.04,2.31-2.36,2.31-3.96,0-1.76-.77-3.19-2.31-4.29-1.54-1.1-3.55-1.65-6.03-1.65s-4.52.54-6.12,1.62c-1.6,1.08-2.4,2.48-2.4,4.2ZM679.5,1001.77h-32.94v-18.78h4.2v5.76h24.54v-5.76h4.2v18.78ZM650.76,992.65v5.22h24.54v-5.22h-24.54ZM675.3,953.53h-3.9v-3.9h8.1v12.18h8.46v3.9h-8.46v14.64h-4.2v-26.82Z"/><path class="cls-6" d="M727.38,986.77h-34.74l.12-33.66h4.2l-.12,29.76h30.54v-30.54h-3.3v-3.6h7.5v53.28h-4.2v-15.24Z"/><path class="cls-6" d="M775.74,987.43h-33.78l.12-29.46v-2.22h24.18v3.9h-19.98l-.12,23.88h29.58v-31.2h-3.9v-3.9h8.1v21.3h9.24v3.9h-9.24v28.02h-4.2v-14.22Z"/><path class="cls-6" d="M789.9,995.11v-6.66h6.66v6.66h-6.66Z"/><path class="cls-6" d="M108.13,1096.76v-47.88h11.46v3.9h-7.26v40.08h7.26v3.9h-11.46Z"/><path class="cls-6" d="M123.96,1081.04c0-2.52.63-4.75,1.89-6.69,1.26-1.94,2.99-3.43,5.19-4.47-1.68-.96-2.99-2.23-3.93-3.81-.94-1.58-1.41-3.37-1.41-5.37,0-2.16.55-4.07,1.65-5.73,1.1-1.66,2.61-2.96,4.53-3.9s4.14-1.41,6.66-1.41,4.68.48,6.6,1.44c1.92.96,3.42,2.27,4.5,3.93,1.08,1.66,1.62,3.57,1.62,5.73,0,1.96-.47,3.73-1.41,5.31-.94,1.58-2.23,2.85-3.87,3.81,2.2,1.04,3.93,2.53,5.19,4.47,1.26,1.94,1.89,4.19,1.89,6.75s-.62,4.67-1.86,6.57c-1.24,1.9-2.95,3.39-5.13,4.47-2.18,1.08-4.69,1.62-7.53,1.62s-5.41-.54-7.59-1.62c-2.18-1.08-3.89-2.58-5.13-4.5-1.24-1.92-1.86-4.12-1.86-6.6ZM138.54,1072.46c-2.96,0-5.38.8-7.26,2.4-1.88,1.6-2.82,3.66-2.82,6.18s.94,4.52,2.82,6.12c1.88,1.6,4.3,2.4,7.26,2.4s5.37-.8,7.23-2.4c1.86-1.6,2.79-3.64,2.79-6.12s-.93-4.58-2.79-6.18c-1.86-1.6-4.27-2.4-7.23-2.4ZM130.21,1060.7c0,2.16.78,3.92,2.34,5.28,1.56,1.36,3.56,2.04,6,2.04s4.37-.68,5.91-2.04c1.54-1.36,2.31-3.12,2.31-5.28,0-2-.77-3.64-2.31-4.92-1.54-1.28-3.51-1.92-5.91-1.92s-4.44.64-6,1.92c-1.56,1.28-2.34,2.92-2.34,4.92Z"/><path class="cls-6" d="M166.2,1048.88v47.88h-11.46v-3.9h7.26v-40.08h-7.26v-3.9h11.46Z"/><path class="cls-6" d="M258.36,1091.12h-37.5v-3.9h37.5v-36.3h-3.3v-3.9h7.5v53.7h-4.2v-9.6ZM252.9,1058.12h-30.96v-3.9h13.38v-6.42h4.2v6.42h13.38v3.9ZM225,1071.38c0-3.24,1.12-5.8,3.36-7.68,2.24-1.88,5.3-2.82,9.18-2.82s6.81.94,9.03,2.82c2.22,1.88,3.33,4.44,3.33,7.68s-1.11,5.74-3.33,7.62-5.23,2.82-9.03,2.82-6.94-.94-9.18-2.82c-2.24-1.88-3.36-4.42-3.36-7.62ZM229.2,1071.44c0,1.96.75,3.53,2.25,4.71s3.53,1.77,6.09,1.77,4.46-.58,5.94-1.74c1.48-1.16,2.22-2.72,2.22-4.68,0-2.08-.74-3.72-2.22-4.92-1.48-1.2-3.46-1.8-5.94-1.8s-4.59.6-6.09,1.8c-1.5,1.2-2.25,2.82-2.25,4.86Z"/><path class="cls-6" d="M298.62,1085.84h-26.34v-30.9h19.62v3.9h-15.42v23.1h22.14v-30.12h-3.9v-3.9h8.1v20.34h7.74v-20.34h4.2v52.14h-4.2v-27.9h-7.74v27.9h-4.2v-14.22Z"/><path class="cls-6" d="M359.4,1088.3h-38.34v-3.9h38.28l-.06-33.54h-3.96v-3.9h8.28v53.76h-4.2v-12.42ZM325.08,1064.18c0-2.2.59-4.2,1.77-6,1.18-1.8,2.76-3.25,4.74-4.35,1.98-1.1,4.13-1.65,6.45-1.65,2.32.08,4.45.69,6.39,1.83,1.94,1.14,3.5,2.6,4.68,4.38,1.18,1.78,1.77,3.71,1.77,5.79s-.59,4.08-1.77,5.88c-1.18,1.8-2.74,3.24-4.68,4.32-1.94,1.08-4.07,1.62-6.39,1.62s-4.47-.54-6.45-1.62c-1.98-1.08-3.56-2.52-4.74-4.32-1.18-1.8-1.77-3.76-1.77-5.88ZM329.28,1064.18c0,1.4.4,2.7,1.2,3.9.8,1.2,1.87,2.16,3.21,2.88,1.34.72,2.79,1.08,4.35,1.08s3-.36,4.32-1.08c1.32-.72,2.37-1.68,3.15-2.88.78-1.2,1.17-2.5,1.17-3.9,0-1.48-.39-2.83-1.17-4.05-.78-1.22-1.83-2.2-3.15-2.94s-2.76-1.11-4.32-1.11-3.01.37-4.35,1.11c-1.34.74-2.41,1.72-3.21,2.94-.8,1.22-1.2,2.57-1.2,4.05Z"/><path class="cls-6" d="M405.12,1064.66c0-2.64.57-4.98,1.71-7.02,1.14-2.04,2.71-3.63,4.71-4.77,2-1.14,4.3-1.71,6.9-1.71,2.28,0,4.33.45,6.15,1.35s3.29,2.15,4.41,3.75h13.2v-5.22h-3.9v-3.9h8.1v39.66h-4.2v-14.22h-13.14c-1.16,1.52-2.65,2.71-4.47,3.57s-3.87,1.29-6.15,1.29c-2.6,0-4.9-.54-6.9-1.62-2-1.08-3.57-2.59-4.71-4.53-1.14-1.94-1.71-4.15-1.71-6.63ZM409.32,1064.72c0,2.56.84,4.66,2.52,6.3,1.68,1.64,3.84,2.46,6.48,2.46s4.74-.83,6.42-2.49c1.68-1.66,2.52-3.77,2.52-6.33,0-2.84-.82-5.15-2.46-6.93-1.64-1.78-3.76-2.67-6.36-2.67s-4.87.9-6.57,2.7c-1.7,1.8-2.55,4.12-2.55,6.96ZM449.22,1099.76h-36.66v-17.34h4.2v13.44h32.46v3.9ZM430.92,1060.16c.44,1.44.66,2.94.66,4.5,0,1.4-.18,2.74-.54,4.02h11.16v-8.52h-11.28Z"/><path class="cls-6" d="M457.32,1074.74l-2.64-2.88,13.14-12.18v-10.44h4.2v10.44l13.14,12.18-2.64,2.88-12.6-11.7-12.6,11.7ZM463.92,1100.66v-13.74h29.34v-4.92h-29.4v-3.9h33.6v12.72h-29.34v5.94h31.8v3.9h-36ZM492.96,1061.24h-12.72v-3.9h12.72v-5.88h-3.9v-3.9h8.1v27.66h-4.2v-13.98Z"/><path class="cls-6" d="M552.24,1074.62h-48.24v-3.9h48.24v3.9ZM542.04,1083.08h-31.74v-3.9h35.94v12.54h-31.74v5.04h33.36v3.9h-37.56v-12.84h31.74v-4.74ZM511.14,1057.52c0-1.84.72-3.47,2.16-4.89,1.44-1.42,3.45-2.53,6.03-3.33,2.58-.8,5.53-1.2,8.85-1.2s6.32.4,8.88,1.2c2.56.8,4.56,1.91,6,3.33,1.44,1.42,2.16,3.05,2.16,4.89s-.72,3.48-2.16,4.92c-1.44,1.44-3.44,2.56-6,3.36-2.56.8-5.52,1.2-8.88,1.2s-6.27-.4-8.85-1.2c-2.58-.8-4.59-1.92-6.03-3.36s-2.16-3.08-2.16-4.92ZM515.34,1057.52c0,1.08.55,2.05,1.65,2.91,1.1.86,2.61,1.53,4.53,2.01s4.14.72,6.66.72,4.75-.24,6.69-.72c1.94-.48,3.45-1.15,4.53-2.01,1.08-.86,1.62-1.83,1.62-2.91s-.54-2.03-1.62-2.85-2.59-1.46-4.53-1.92c-1.94-.46-4.17-.69-6.69-.69s-4.74.23-6.66.69c-1.92.46-3.43,1.1-4.53,1.92-1.1.82-1.65,1.77-1.65,2.85Z"/><path class="cls-6" d="M609,1077.14h-21.66v-3.9h47.46v3.9h-21.6v11.64h-4.2v-11.64ZM592.92,1069.94l-1.86-3.42,17.94-10.38v-3.06h-16.08v-3.9h35.94v3.9h-15.66v3.06l17.58,10.2-1.86,3.42-17.82-10.38-18.18,10.56ZM594.06,1099.04v-15h4.2v11.1h30.42v3.9h-34.62Z"/><path class="cls-6" d="M664.56,1085.18h-24.12v-32.22h4.2v13.62h15.72v-13.62h4.2v32.22ZM644.64,1070.48v10.8h15.72v-10.8h-15.72ZM680.46,1100.18h-4.2v-49.68h-3.9v-3.6h8.1v53.28Z"/><path class="cls-6" d="M718.56,1057.04h-30.36v-3.9h13.8v-6.12h4.2v6.12h12.36v3.9ZM690.78,1068.8c0-1.92.54-3.6,1.62-5.04s2.58-2.57,4.5-3.39c1.92-.82,4.12-1.23,6.6-1.23s4.66.41,6.54,1.23c1.88.82,3.35,1.95,4.41,3.39,1.06,1.44,1.59,3.12,1.59,5.04s-.53,3.54-1.59,4.98c-1.06,1.44-2.53,2.57-4.41,3.39s-4.06,1.23-6.54,1.23-4.68-.41-6.6-1.23-3.42-1.95-4.5-3.39c-1.08-1.44-1.62-3.1-1.62-4.98ZM694.98,1068.86c0,1.64.8,2.99,2.4,4.05,1.6,1.06,3.64,1.59,6.12,1.59s4.49-.52,6.03-1.56c1.54-1.04,2.31-2.36,2.31-3.96,0-1.76-.77-3.19-2.31-4.29-1.54-1.1-3.55-1.65-6.03-1.65s-4.52.54-6.12,1.62c-1.6,1.08-2.4,2.48-2.4,4.2ZM728.7,1099.94h-32.94v-18.78h4.2v5.76h24.54v-5.76h4.2v18.78ZM699.96,1090.82v5.22h24.54v-5.22h-24.54ZM724.5,1051.7h-3.9v-3.9h8.1v12.18h8.46v3.9h-8.46v14.64h-4.2v-26.82Z"/><path class="cls-6" d="M776.58,1084.94h-34.74l.12-33.66h4.2l-.12,29.76h30.54v-30.54h-3.3v-3.6h7.5v53.28h-4.2v-15.24Z"/><path class="cls-6" d="M824.94,1085.6h-33.78l.12-29.46v-2.22h24.18v3.9h-19.98l-.12,23.88h29.58v-31.2h-3.9v-3.9h8.1v21.3h9.24v3.9h-9.24v28.02h-4.2v-14.22Z"/><path class="cls-6" d="M839.1,1093.28v-6.66h6.66v6.66h-6.66Z"/><path class="cls-6" d="M108.13,1194.94v-47.88h11.46v3.9h-7.26v40.08h7.26v3.9h-11.46Z"/><path class="cls-6" d="M138.54,1173.88c-2.56,0-4.87-.58-6.93-1.74-2.06-1.16-3.7-2.72-4.92-4.68-1.22-1.96-1.83-4.14-1.83-6.54s.61-4.64,1.83-6.6c1.22-1.96,2.86-3.53,4.92-4.71,2.06-1.18,4.37-1.77,6.93-1.77s4.87.59,6.93,1.77,3.7,2.76,4.92,4.74c1.22,1.98,1.83,4.19,1.83,6.63,0,2.28-.56,4.38-1.68,6.3l-13.56,24.18h-4.98l10.5-18.12c-1.24.36-2.56.54-3.96.54ZM129.37,1160.98c0,1.6.41,3.06,1.23,4.38.82,1.32,1.92,2.37,3.3,3.15,1.38.78,2.93,1.17,4.65,1.17s3.27-.39,4.65-1.17c1.38-.78,2.48-1.83,3.3-3.15.82-1.32,1.23-2.78,1.23-4.38s-.41-3.14-1.23-4.5c-.82-1.36-1.92-2.44-3.3-3.24-1.38-.8-2.93-1.2-4.65-1.2s-3.27.4-4.65,1.2c-1.38.8-2.48,1.88-3.3,3.24-.82,1.36-1.23,2.86-1.23,4.5Z"/><path class="cls-6" d="M166.2,1147.06v47.88h-11.46v-3.9h7.26v-40.08h-7.26v-3.9h11.46Z"/><path class="cls-6" d="M224.1,1171.9l-2.7-2.82,12.84-12.36v-5.1h-11.28v-3.9h27.24v3.9h-11.76v4.8l13.62,12.66-2.7,2.82-12.84-11.94-12.42,11.94ZM258.9,1179.1h-29.4v-3.9h33.6v12.78h-29.34v5.76h32.64v3.9h-36.84v-13.56h29.34v-4.98ZM263.1,1172.86h-4.2v-24.48h-3.9v-3.6h8.1v28.08Z"/><path class="cls-6" d="M292.62,1176.16h-22.74v-3.9h47.46v3.9h-20.52v10.92h-4.2v-10.92ZM312.84,1197.82h-36.18v-16.02h4.2v12.12h31.98v3.9ZM311.58,1166.08h-33.96v-19.02h33.96v19.02ZM281.82,1150.96v11.22h25.56v-11.22h-25.56Z"/><path class="cls-6" d="M361.26,1198.9h-4.2v-12h-37.32v-3.9h12.06v-15.96h4.2v15.96h21.06v-33.42h-3.9v-3.6h8.1v21.42h8.88v3.9h-8.88v27.6ZM345.84,1155.04h-23.16v-3.72h27.18v23.76h-4.02v-20.04Z"/><path class="cls-6" d="M440.1,1171.78h-34.02v-22.44h23.52v3.9h-19.32v14.64h29.82v-18h-3.9v-3.9h8.1v11.58h7.86v.6h.6v3.9h-8.46v12.9h-4.2v-3.18ZM444.3,1198.12h-32.94v-20.52h4.2v6.36h24.54v-6.36h4.2v20.52ZM415.56,1187.86v6.36h24.54v-6.36h-24.54Z"/><path class="cls-6" d="M479.4,1175.74h-22.8v-27.18h4.2v9.48h14.4v-9.48h4.2v9.48h13.74v-8.76h-3.9v-3.9h8.1v39.24h-4.2v-14.34h-13.74v5.46ZM460.8,1161.94v9.9h14.4v-9.9h-14.4ZM499.14,1197.46h-34.92v-16.44h4.2v12.54h30.72v3.9ZM479.4,1161.94v4.44h13.74v-4.44h-13.74Z"/><path class="cls-6" d="M552.24,1172.8h-48.24v-3.9h48.24v3.9ZM542.04,1181.26h-31.74v-3.9h35.94v12.54h-31.74v5.04h33.36v3.9h-37.56v-12.84h31.74v-4.74ZM511.14,1155.7c0-1.84.72-3.47,2.16-4.89s3.45-2.53,6.03-3.33c2.58-.8,5.53-1.2,8.85-1.2s6.32.4,8.88,1.2c2.56.8,4.56,1.91,6,3.33,1.44,1.42,2.16,3.05,2.16,4.89s-.72,3.48-2.16,4.92c-1.44,1.44-3.44,2.56-6,3.36-2.56.8-5.52,1.2-8.88,1.2s-6.27-.4-8.85-1.2c-2.58-.8-4.59-1.92-6.03-3.36-1.44-1.44-2.16-3.08-2.16-4.92ZM515.34,1155.7c0,1.08.55,2.05,1.65,2.91,1.1.86,2.61,1.53,4.53,2.01,1.92.48,4.14.72,6.66.72s4.75-.24,6.69-.72c1.94-.48,3.45-1.15,4.53-2.01,1.08-.86,1.62-1.83,1.62-2.91s-.54-2.03-1.62-2.85c-1.08-.82-2.59-1.46-4.53-1.92-1.94-.46-4.17-.69-6.69-.69s-4.74.23-6.66.69c-1.92.46-3.43,1.1-4.53,1.92-1.1.82-1.65,1.77-1.65,2.85Z"/><path class="cls-6" d="M609,1175.32h-21.66v-3.9h47.46v3.9h-21.6v11.64h-4.2v-11.64ZM592.92,1168.12l-1.86-3.42,17.94-10.38v-3.06h-16.08v-3.9h35.94v3.9h-15.66v3.06l17.58,10.2-1.86,3.42-17.82-10.38-18.18,10.56ZM594.06,1197.22v-15h4.2v11.1h30.42v3.9h-34.62Z"/><path class="cls-6" d="M664.56,1183.36h-24.12v-32.22h4.2v13.62h15.72v-13.62h4.2v32.22ZM644.64,1168.66v10.8h15.72v-10.8h-15.72ZM680.46,1198.36h-4.2v-49.68h-3.9v-3.6h8.1v53.28Z"/><path class="cls-6" d="M718.56,1155.22h-30.36v-3.9h13.8v-6.12h4.2v6.12h12.36v3.9ZM690.78,1166.98c0-1.92.54-3.6,1.62-5.04,1.08-1.44,2.58-2.57,4.5-3.39s4.12-1.23,6.6-1.23,4.66.41,6.54,1.23,3.35,1.95,4.41,3.39c1.06,1.44,1.59,3.12,1.59,5.04s-.53,3.54-1.59,4.98c-1.06,1.44-2.53,2.57-4.41,3.39-1.88.82-4.06,1.23-6.54,1.23s-4.68-.41-6.6-1.23c-1.92-.82-3.42-1.95-4.5-3.39-1.08-1.44-1.62-3.1-1.62-4.98ZM694.98,1167.04c0,1.64.8,2.99,2.4,4.05,1.6,1.06,3.64,1.59,6.12,1.59s4.49-.52,6.03-1.56c1.54-1.04,2.31-2.36,2.31-3.96,0-1.76-.77-3.19-2.31-4.29-1.54-1.1-3.55-1.65-6.03-1.65s-4.52.54-6.12,1.62c-1.6,1.08-2.4,2.48-2.4,4.2ZM728.7,1198.12h-32.94v-18.78h4.2v5.76h24.54v-5.76h4.2v18.78ZM699.96,1189v5.22h24.54v-5.22h-24.54ZM724.5,1149.88h-3.9v-3.9h8.1v12.18h8.46v3.9h-8.46v14.64h-4.2v-26.82Z"/><path class="cls-6" d="M776.58,1183.12h-34.74l.12-33.66h4.2l-.12,29.76h30.54v-30.54h-3.3v-3.6h7.5v53.28h-4.2v-15.24Z"/><path class="cls-6" d="M824.94,1183.78h-33.78l.12-29.46v-2.22h24.18v3.9h-19.98l-.12,23.88h29.58v-31.2h-3.9v-3.9h8.1v21.3h9.24v3.9h-9.24v28.02h-4.2v-14.22Z"/><path class="cls-6" d="M839.1,1191.46v-6.66h6.66v6.66h-6.66Z"/></svg>