<?xml version="1.0" encoding="UTF-8"?><svg id="_레이어_1" xmlns="http://www.w3.org/2000/svg" viewBox="0 0 1080 1920"><defs><style>.cls-1,.cls-2{fill:#0000fe;}.cls-1,.cls-3,.cls-4{stroke-width:3.4px;}.cls-1,.cls-3,.cls-4,.cls-5{stroke:#0000fe;stroke-miterlimit:10;}.cls-6,.cls-4{fill:#dfffde;}.cls-3,.cls-5{fill:#fff;}.cls-5{stroke-width:3.17px;}</style></defs><rect class="cls-6" x="-420" y="420" width="1920" height="1080" transform="translate(1500 420) rotate(90)"/><rect class="cls-5" x="66.48" y="96.99" width="439.26" height="72.54"/><rect class="cls-5" x="66.48" y="169.52" width="264.01" height="72.54"/><path class="cls-2" d="M145.19,152.34h-49.26v-3.9h13.2v-18.06l4.2.06v18h8.64v-18.06h4.2v18.06h7.38v-33.24h-32.52v-3.9h36.72v37.14h7.44v3.9Z"/><path class="cls-2" d="M184.37,146.52h-32.4v-3.9h7.92v-6.3h-13.2v-3.9h47.94v3.9h-13.32v6.3h7.26v16.08h-4.2v-12.18ZM153.41,117.54c0-3.2,1.54-5.72,4.62-7.56,3.08-1.84,7.22-2.76,12.42-2.76s9.39.92,12.45,2.76c3.06,1.84,4.59,4.36,4.59,7.56s-1.53,5.68-4.59,7.56c-3.06,1.88-7.21,2.82-12.45,2.82s-9.34-.94-12.42-2.82c-3.08-1.88-4.62-4.4-4.62-7.56ZM157.61,117.6c0,1.96,1.16,3.53,3.48,4.71,2.32,1.18,5.44,1.77,9.36,1.77s7.04-.59,9.36-1.77c2.32-1.18,3.48-2.75,3.48-4.71s-1.16-3.57-3.48-4.71c-2.32-1.14-5.44-1.71-9.36-1.71s-7.04.57-9.36,1.71c-2.32,1.14-3.48,2.71-3.48,4.71ZM164.09,136.33v6.3h13.02v-6.3h-13.02Z"/><path class="cls-2" d="M277.91,153h-48.9v-3.9h48.9v3.9ZM271.61,136.92h-36.48v-3.9h7.56v-18.54h-7.56v-3.9h36.48v3.9h-7.56v18.54h7.56v3.9ZM246.89,114.48v18.54h12.96v-18.54h-12.96Z"/><path class="cls-2" d="M286.73,135.72v-15.12h29.88v-6.12h-29.88v-3.9h34.08v13.92h-29.88v7.32h29.88v3.9h-14.82v13.5h22.26v3.9h-48.72v-3.9h22.26v-13.5h-15.06Z"/><path class="cls-2" d="M377.51,152.29h-46.5v-3.9h36v-33.9h-29.88v-3.9h34.08v37.8h6.3v3.9Z"/><path class="cls-2" d="M398.45,113.71h-16.02v-3.9h20.22v14.52h-15.48v7.44h21.72v-21.66h-3.9v-3.9h8.1v13.74h7.62v-13.74h4.2v32.4h-4.2v-14.76h-7.62v14.76h-4.2v-2.94h-25.92v-15.24h15.48v-6.72ZM390.83,158.94v-17.88h34.68v17.88h-34.68ZM395.03,144.96v10.08l26.28-.12v-9.96h-26.28Z"/><path class="cls-2" d="M432.95,129.18c0-3.48.54-6.49,1.62-9.03,1.08-2.54,2.63-4.5,4.65-5.88,2.02-1.38,4.41-2.07,7.17-2.07,2.72.08,5.08.83,7.08,2.25,2,1.42,3.54,3.38,4.62,5.88s1.62,5.45,1.62,8.85-.54,6.42-1.62,8.94c-1.08,2.52-2.62,4.46-4.62,5.82-2,1.36-4.36,2.04-7.08,2.04s-5.15-.68-7.17-2.04c-2.02-1.36-3.57-3.3-4.65-5.82-1.08-2.52-1.62-5.5-1.62-8.94ZM437.15,129.18c0,3.96.83,7.1,2.49,9.42,1.66,2.32,3.91,3.48,6.75,3.48s5.02-1.16,6.66-3.48c1.64-2.32,2.46-5.46,2.46-9.42s-.82-7.23-2.46-9.57c-1.64-2.34-3.86-3.51-6.66-3.51s-5.09,1.17-6.75,3.51c-1.66,2.34-2.49,5.53-2.49,9.57ZM473.99,158.83h-4.2v-49.38h-3.9v-3.9h8.1v53.28Z"/><path class="cls-2" d="M98.03,195.59c0-2.56.56-4.81,1.68-6.75,1.12-1.94,2.67-3.46,4.65-4.56,1.98-1.1,4.25-1.65,6.81-1.65s4.81.55,6.75,1.65c1.94,1.1,3.46,2.62,4.56,4.56,1.1,1.94,1.65,4.19,1.65,6.75s-.55,4.74-1.65,6.66c-1.1,1.92-2.62,3.43-4.56,4.53-1.94,1.1-4.19,1.65-6.75,1.65s-4.83-.55-6.81-1.65c-1.98-1.1-3.53-2.61-4.65-4.53-1.12-1.92-1.68-4.14-1.68-6.66ZM101.27,233.45l-2.88-2.52,11.16-10.14v-7.74h4.08v7.8l8.1,7.08,8.22-7.2v-7.68h4.2v7.98l11.04,10.02-2.88,2.52-10.44-9.54-10.14,8.94h-.06l-10.08-8.88-10.32,9.36ZM102.23,195.65c0,2.6.83,4.73,2.49,6.39,1.66,1.66,3.77,2.49,6.33,2.49s4.73-.84,6.39-2.52c1.66-1.68,2.49-3.82,2.49-6.42s-.81-4.86-2.43-6.54c-1.62-1.68-3.73-2.52-6.33-2.52s-4.74.85-6.42,2.55c-1.68,1.7-2.52,3.89-2.52,6.57ZM139.07,210.77h-4.2v-26.94h-4.2v-3.9h8.4v30.84Z"/><path class="cls-2" d="M194.39,208.31h-47.46v-3.9h47.46v3.9ZM151.91,200.03l-1.86-3.42,18.54-10.02v-7.14h4.2v7.14l18.18,9.84-1.86,3.42-18.42-9.96-18.78,10.14ZM188.93,232.55h-36.48v-20.04h4.2v6.3h28.08v-6.3h4.2v20.04ZM156.65,222.71v5.94h28.08v-5.94h-28.08Z"/><path class="cls-2" d="M235.37,217.43h-34.74l.12-33.66h4.2l-.12,29.76h30.54v-30.54h-3.3v-3.6h7.5v53.28h-4.2v-15.24Z"/><path class="cls-2" d="M283.73,218.09h-33.78l.12-29.46v-2.22h24.18v3.9h-19.98l-.12,23.88h29.58v-31.2h-3.9v-3.9h8.1v21.3h9.24v3.9h-9.24v28.02h-4.2v-14.22Z"/><path class="cls-2" d="M297.89,225.77v-6.66h6.66v6.66h-6.66Z"/><path class="cls-2" d="M103.5,386.97h-4.2v-27.66h-7.86v13.38h-20.4v-32.22h20.4v14.94h7.86v-17.16h-3.9v-3.9h8.1v52.62ZM75.25,344.37v24.42h12v-24.42h-12ZM113.83,386.97h-4.2v-52.62h4.2v52.62Z"/><path class="cls-2" d="M123.54,375.39l-3.06-2.4,13.68-18.42v-15.3h4.2v15l14.34,18.66-3,2.46-13.32-17.28-12.84,17.28ZM163.57,387.69h-4.2v-49.38h-3.9v-3.9h8.1v53.28Z"/><path class="cls-2" d="M173.64,376.59l-3-2.64,13.86-15.78v-13.92h-12.12v-3.9h28.62v3.9h-12.3v13.92l13.86,15.78-3,2.64-12.96-14.7-12.96,14.7ZM213.6,387.69h-4.2v-49.38h-3.9v-3.9h8.1v53.28Z"/><path class="cls-2" d="M268.98,363.93h-48.06v-3.9h48.06v3.9ZM262.8,387.09h-35.34v-11.64h30.6v-3.6h-30.6v-3.9h34.8v11.1h-30.6v4.14h31.14v3.9ZM258.12,340.59h-30.6v-3.9h34.8v11.22h-30.6v4.44h31.14v3.9h-35.34v-11.94h30.6v-3.72Z"/><path class="cls-2" d="M306.66,365.13l-2.76-2.82,13.74-12.84v-7.86h-11.82v-3.9h27.78v3.9h-11.76v7.8l14.1,11.7-2.64,2.82-13.5-11.1-13.14,12.3ZM342.48,373.23h-31.26v-3.9h35.46v18.9h-4.2v-15ZM342.48,352.17h-11.04v-3.9h11.04v-10.02h-3.9v-3.9h8.1v31.92h-4.2v-14.1Z"/><path class="cls-2" d="M401.52,364.53h-48.06v-3.9h12.54v-7.32c-3.28-1.72-4.92-4.26-4.92-7.62,0-3.12,1.42-5.52,4.26-7.2,2.84-1.68,6.9-2.52,12.18-2.52s9.34.84,12.18,2.52c2.84,1.68,4.26,4.08,4.26,7.2s-1.44,5.62-4.32,7.26v7.68h11.88v3.9ZM359.58,378.87c0-6.52,5.98-9.78,17.94-9.78s17.94,3.26,17.94,9.78-5.98,9.96-17.94,9.96-17.94-3.32-17.94-9.96ZM363.78,378.87c0,4.04,4.58,6.06,13.74,6.06s13.74-2.02,13.74-6.06-4.58-5.88-13.74-5.88-13.74,1.96-13.74,5.88ZM365.28,345.75c0,1.88,1.06,3.33,3.18,4.35,2.12,1.02,5.14,1.53,9.06,1.53s6.94-.51,9.06-1.53c2.12-1.02,3.18-2.47,3.18-4.35s-1.06-3.32-3.18-4.32c-2.12-1-5.14-1.5-9.06-1.5s-6.94.5-9.06,1.5c-2.12,1-3.18,2.44-3.18,4.32ZM370.2,354.75v5.88h15.24v-6c-1.12.28-2.34.49-3.66.63-1.32.14-2.74.21-4.26.21-2.76,0-5.2-.24-7.32-.72Z"/><path class="cls-2" d="M434.94,348.09h-30.54v-3.9h13.2v-8.82h4.2v8.82h13.14v3.9ZM419.7,375.81c-2.32,0-4.42-.52-6.3-1.56-1.88-1.04-3.37-2.43-4.47-4.17-1.1-1.74-1.65-3.69-1.65-5.85s.55-4.17,1.65-5.91c1.1-1.74,2.59-3.13,4.47-4.17,1.88-1.04,3.98-1.56,6.3-1.56s4.35.52,6.21,1.56c1.86,1.04,3.33,2.43,4.41,4.17,1.08,1.74,1.62,3.71,1.62,5.91s-.54,4.11-1.62,5.85-2.55,3.13-4.41,4.17c-1.86,1.04-3.93,1.56-6.21,1.56ZM411.48,364.35c0,1.4.36,2.68,1.08,3.84s1.71,2.07,2.97,2.73,2.65.99,4.17.99,2.88-.33,4.08-.99c1.2-.66,2.16-1.56,2.88-2.7.72-1.14,1.08-2.39,1.08-3.75,0-1.48-.36-2.82-1.08-4.02-.72-1.2-1.68-2.16-2.88-2.88-1.2-.72-2.56-1.08-4.08-1.08s-2.91.35-4.17,1.05c-1.26.7-2.25,1.64-2.97,2.82s-1.08,2.51-1.08,3.99ZM439.68,338.31h-3.9v-3.9h8.1v21.66h10.8v3.9h-10.8v27.72h-4.2v-49.38Z"/><path class="cls-2" d="M498,387.69h-4.2v-21.3h-15.54v-3.9h15.54v-10.56h-13.98v5.82h-17.76v12.36h21.78v3.9h-25.98v-20.16h17.76v-10.02h-17.76v-3.9h21.96v8.1h13.98v-9.12h-3.9v-3.9h8.1v52.68Z"/><path class="cls-2" d="M540.72,334.11h7.5v39.3h-4.2v-14.28h-12.42v4.5h-23.82v-24.54h23.82v4.62h12.42v-5.7h-3.3v-3.9ZM511.98,342.99v16.74h15.42v-16.74h-15.42ZM550.2,386.85h-35.52v-17.22h4.2v13.32h31.32v3.9ZM531.6,347.61v7.62h12.42v-7.62h-12.42Z"/><path class="cls-2" d="M589.32,373.47c4.04-1.84,7.65-4.23,10.83-7.17,3.18-2.94,5.75-6.25,7.71-9.93,1.96-3.68,3.1-7.54,3.42-11.58h-19.44v-3.9h23.76c.12,4.08-.4,7.95-1.56,11.61-1.16,3.66-2.85,7.05-5.07,10.17s-4.85,5.91-7.89,8.37c-3.04,2.46-6.36,4.53-9.96,6.21l-1.8-3.78ZM630.12,388.23h-4.2v-48.36h-3.9v-3.9h8.1v52.26Z"/><path class="cls-2" d="M686.1,368.37h-47.94v-3.9h21.96v-6.66h-15v-20.82h4.2v7.02h25.68v-7.02h4.2v20.82h-14.88v6.66h21.78v3.9ZM644.4,388.59v-15.36h4.2v11.52h33.18v3.84h-37.38ZM649.32,347.91v6h25.68v-6h-25.68Z"/><path class="cls-2" d="M691.86,365.13l-2.76-2.82,13.74-12.84v-7.86h-11.82v-3.9h27.78v3.9h-11.76v7.8l14.1,11.7-2.64,2.82-13.5-11.1-13.14,12.3ZM727.68,373.23h-31.26v-3.9h35.46v18.9h-4.2v-15ZM727.68,352.17h-11.04v-3.9h11.04v-10.02h-3.9v-3.9h8.1v31.92h-4.2v-14.1Z"/><path class="cls-2" d="M787.26,381.69h-48.66v-3.9h48.66v3.9ZM762.96,368.01c-3.2,0-6.1-.62-8.7-1.86-2.6-1.24-4.66-2.91-6.18-5.01-1.52-2.1-2.28-4.45-2.28-7.05s.76-4.96,2.28-7.08c1.52-2.12,3.58-3.8,6.18-5.04,2.6-1.24,5.5-1.86,8.7-1.86s6.1.62,8.7,1.86c2.6,1.24,4.66,2.92,6.18,5.04,1.52,2.12,2.28,4.48,2.28,7.08s-.76,4.95-2.28,7.05c-1.52,2.1-3.58,3.77-6.18,5.01-2.6,1.24-5.5,1.86-8.7,1.86ZM750,354.09c0,1.88.58,3.58,1.74,5.1,1.16,1.52,2.72,2.72,4.68,3.6,1.96.88,4.14,1.32,6.54,1.32s4.63-.44,6.57-1.32c1.94-.88,3.49-2.08,4.65-3.6,1.16-1.52,1.74-3.22,1.74-5.1s-.58-3.58-1.74-5.1c-1.16-1.52-2.71-2.73-4.65-3.63-1.94-.9-4.13-1.35-6.57-1.35s-4.58.45-6.54,1.35c-1.96.9-3.52,2.11-4.68,3.63-1.16,1.52-1.74,3.22-1.74,5.1Z"/><path class="cls-2" d="M796.32,364.59v-15.12h29.88v-6.12h-29.88v-3.9h34.08v13.92h-29.88v7.32h29.88v3.9h-14.82v13.5h22.26v3.9h-48.72v-3.9h22.26v-13.5h-15.06Z"/><path class="cls-2" d="M117.79,439.25h-48.66v-3.9h22.14v-6.72h-16.68v-18.06h36.6v3.72h-15.72v10.62h15.72v3.72h-15.72v6.72h22.32v3.9ZM107.53,448.31h-32.76v-3.9h36.96v17.16h-4.2v-13.26ZM78.61,414.29v10.62h12.66v-10.62h-12.66Z"/><path class="cls-2" d="M168.18,439.25h-48.66v-3.9h22.14v-6.72h-16.68v-18.06h36.6v3.72h-15.72v10.62h15.72v3.72h-15.72v6.72h22.32v3.9ZM157.92,448.31h-32.76v-3.9h36.96v17.16h-4.2v-13.26ZM129,414.29v10.62h12.66v-10.62h-12.66Z"/><path class="cls-2" d="M196.99,421.37h-27.06v-3.9h11.34v-8.28h4.2v8.28h11.52v3.9ZM183.25,447.41c-2.16,0-4.11-.49-5.85-1.47-1.74-.98-3.12-2.3-4.14-3.96-1.02-1.66-1.53-3.51-1.53-5.55s.51-3.95,1.53-5.61,2.4-2.98,4.14-3.96c1.74-.98,3.69-1.47,5.85-1.47s4.04.49,5.76,1.47c1.72.98,3.08,2.3,4.08,3.96,1,1.66,1.5,3.53,1.5,5.61s-.5,3.89-1.5,5.55c-1,1.66-2.36,2.98-4.08,3.96-1.72.98-3.64,1.47-5.76,1.47ZM175.92,436.55c0,1.28.33,2.45.99,3.51.66,1.06,1.54,1.9,2.64,2.52,1.1.62,2.33.93,3.69.93,2,0,3.69-.66,5.07-1.98,1.38-1.32,2.07-2.94,2.07-4.86,0-2.08-.69-3.83-2.07-5.25-1.38-1.42-3.07-2.13-5.07-2.13-1.36,0-2.59.32-3.69.96-1.1.64-1.98,1.51-2.64,2.61s-.99,2.33-.99,3.69ZM199.33,411.65h-3.3v-3.9h7.5v22.44h7.02v-22.44h4.2v53.16h-4.2v-26.82h-7.02v26.82h-4.2v-49.26Z"/><path class="cls-2" d="M221.22,430.67c0-4.88,1.22-8.73,3.66-11.55,2.44-2.82,5.72-4.23,9.84-4.23,4.12.2,7.38,1.72,9.78,4.56,2.4,2.84,3.6,6.58,3.6,11.22,0,3.2-.54,5.97-1.62,8.31-1.08,2.34-2.62,4.15-4.62,5.43-2,1.28-4.38,1.92-7.14,1.92s-5.15-.64-7.17-1.92-3.58-3.09-4.68-5.43c-1.1-2.34-1.65-5.11-1.65-8.31ZM225.42,430.67c0,3.6.84,6.46,2.52,8.58s3.94,3.18,6.78,3.18,5.08-1.06,6.72-3.18c1.64-2.12,2.46-4.98,2.46-8.58s-.82-6.58-2.46-8.7c-1.64-2.12-3.88-3.18-6.72-3.18s-5.1,1.06-6.78,3.18c-1.68,2.12-2.52,5.02-2.52,8.7ZM261,461.87h-4.2v-49.62h-3.9v-3.9h8.1v13.68h9.66v3.9h-9.66v12.12h9.66v3.9h-9.66v19.92Z"/><path class="cls-2" d="M334.14,417.89h-30.36v-3.9h13.8v-6.12h4.2v6.12h12.36v3.9ZM306.36,429.65c0-1.92.54-3.6,1.62-5.04,1.08-1.44,2.58-2.57,4.5-3.39,1.92-.82,4.12-1.23,6.6-1.23s4.66.41,6.54,1.23c1.88.82,3.35,1.95,4.41,3.39,1.06,1.44,1.59,3.12,1.59,5.04s-.53,3.54-1.59,4.98-2.53,2.57-4.41,3.39c-1.88.82-4.06,1.23-6.54,1.23s-4.68-.41-6.6-1.23c-1.92-.82-3.42-1.95-4.5-3.39s-1.62-3.1-1.62-4.98ZM310.56,429.71c0,1.64.8,2.99,2.4,4.05,1.6,1.06,3.64,1.59,6.12,1.59s4.49-.52,6.03-1.56,2.31-2.36,2.31-3.96c0-1.76-.77-3.19-2.31-4.29-1.54-1.1-3.55-1.65-6.03-1.65s-4.52.54-6.12,1.62c-1.6,1.08-2.4,2.48-2.4,4.2ZM344.28,460.79h-32.94v-18.78h4.2v5.76h24.54v-5.76h4.2v18.78ZM315.54,451.67v5.22h24.54v-5.22h-24.54ZM340.08,412.55h-3.9v-3.9h8.1v12.18h8.46v3.9h-8.46v14.64h-4.2v-26.82Z"/><path class="cls-2" d="M392.16,445.79h-34.74l.12-33.66h4.2l-.12,29.76h30.54v-30.54h-3.3v-3.6h7.5v53.28h-4.2v-15.24Z"/><path class="cls-2" d="M440.52,446.45h-33.78l.12-29.46v-2.22h24.18v3.9h-19.98l-.12,23.88h29.58v-31.2h-3.9v-3.9h8.1v21.3h9.24v3.9h-9.24v28.02h-4.2v-14.22Z"/><path class="cls-2" d="M454.68,454.13v-6.66h6.66v6.66h-6.66Z"/><path class="cls-2" d="M534.42,433.19h-23.4v-22.02h23.4v22.02ZM515.22,415.07v14.22h15v-14.22h-15ZM551.58,460.49h-35.04v-13.86h28.32v-5.04h-28.32v-3.72h32.52v12.66h-28.32v6.06h30.84v3.9ZM549.18,435.29h-4.2v-23.94h-3.9v-3.9h8.1v12.12h7.38v3.9h-7.38v11.82Z"/><path class="cls-2" d="M601.38,460.67h-4.2v-21.18h-18.54v21.18h-4.2v-21.18h-15.66v-3.9h25.86v-18.6h-21.06v-3.9h25.26v22.5h8.34v-23.04h-3.9v-3.9h8.1v52.02Z"/><path class="cls-2" d="M657.24,437.27h-48.06v-3.9h48.06v3.9ZM651.06,460.43h-35.34v-11.64h30.6v-3.6h-30.6v-3.9h34.8v11.1h-30.6v4.14h31.14v3.9ZM646.38,413.93h-30.6v-3.9h34.8v11.22h-30.6v4.44h31.14v3.9h-35.34v-11.94h30.6v-3.72Z"/><path class="cls-2" d="M693.48,421.97c0-2.24.57-4.25,1.71-6.03,1.14-1.78,2.68-3.2,4.62-4.26,1.94-1.06,4.09-1.59,6.45-1.59s4.48.53,6.36,1.59c1.88,1.06,3.38,2.48,4.5,4.26,1.12,1.78,1.68,3.79,1.68,6.03s-.56,4.35-1.68,6.21c-1.12,1.86-2.62,3.34-4.5,4.44-1.88,1.1-4,1.65-6.36,1.65s-4.51-.55-6.45-1.65c-1.94-1.1-3.48-2.58-4.62-4.44-1.14-1.86-1.71-3.93-1.71-6.21ZM697.68,422.03c0,1.56.38,2.97,1.14,4.23s1.78,2.26,3.06,3c1.28.74,2.7,1.11,4.26,1.11s3.03-.37,4.29-1.11c1.26-.74,2.27-1.75,3.03-3.03.76-1.28,1.14-2.7,1.14-4.26,0-1.48-.37-2.82-1.11-4.02-.74-1.2-1.74-2.16-3-2.88-1.26-.72-2.67-1.08-4.23-1.08s-3.05.36-4.35,1.08c-1.3.72-2.33,1.68-3.09,2.88-.76,1.2-1.14,2.56-1.14,4.08ZM735.12,461.51h-35.34v-13.68h28.68v-5.58h-29.04v-3.9h33.24v13.38h-28.68v5.88h31.14v3.9ZM728.22,412.31h-3.9v-3.9h8.1v11.58h8.58v3.9h-8.58v11.82h-4.2v-23.4Z"/><path class="cls-2" d="M743.22,430.43c0-5.48,1.11-9.68,3.33-12.6,2.22-2.92,5.39-4.38,9.51-4.38,4.08.16,7.22,1.71,9.42,4.65,2.2,2.94,3.3,7.05,3.3,12.33s-1.1,9.55-3.3,12.45c-2.2,2.9-5.34,4.35-9.42,4.35s-7.29-1.45-9.51-4.35c-2.22-2.9-3.33-7.05-3.33-12.45ZM747.42,430.43c0,4.12.75,7.3,2.25,9.54,1.5,2.24,3.63,3.36,6.39,3.36s4.82-1.12,6.3-3.36c1.48-2.24,2.22-5.42,2.22-9.54s-.74-7.43-2.22-9.69c-1.48-2.26-3.58-3.39-6.3-3.39s-4.89,1.13-6.39,3.39-2.25,5.49-2.25,9.69ZM782.46,461.87h-4.2v-49.62h-3.9v-3.9h8.1v21.48h9.66v3.9h-9.66v28.14Z"/><path class="cls-2" d="M840.84,437.09h-48.66v-3.9h48.66v3.9ZM834.9,461.33h-35.82v-17.64h35.34v3.9h-31.14v9.84h31.62v3.9ZM834.24,427.55h-34.8v-17.4h34.8v3.72h-30.78v9.96h30.78v3.72Z"/><path class="cls-2" d="M890.16,454.49h-46.5v-3.9h18.54v-19.02h4.2v19.02h13.26v-33.9h-29.88v-3.9h34.08v37.8h6.3v3.9Z"/><path class="cls-2" d="M95.34,509.71h-23.4v-24.96h4.2v8.22h15.24v-8.22h3.96v24.96ZM76.15,496.88v8.94h15.24v-8.94h-15.24ZM76.81,524.89c0-3.04,1.49-5.37,4.47-6.99,2.98-1.62,7.25-2.43,12.81-2.43,5.56-.04,9.83.75,12.81,2.37,2.98,1.62,4.47,3.97,4.47,7.05s-1.49,5.67-4.47,7.41c-2.98,1.74-7.25,2.61-12.81,2.61s-9.83-.87-12.81-2.61c-2.98-1.74-4.47-4.21-4.47-7.41ZM81,524.89c0,1.96,1.13,3.47,3.39,4.53,2.26,1.06,5.49,1.59,9.69,1.59s7.43-.53,9.69-1.59c2.26-1.06,3.39-2.57,3.39-4.53,0-1.76-1.13-3.12-3.39-4.08-2.26-.96-5.49-1.44-9.69-1.44s-7.43.48-9.69,1.44-3.39,2.32-3.39,4.08ZM106.33,484.69h-3.9v-3.9h8.1v13.62h8.46v3.9h-8.46v15.78h-4.2v-29.4Z"/><path class="cls-2" d="M145.8,508.57h-22.44v-24.36h4.2v8.1h14.04v-8.1h4.2v9.36h12.3v-7.02h-3.9v-3.9h8.1v27.78h-4.2v-12.96h-12.3v11.1ZM127.57,496.21v8.46h14.04v-8.46h-14.04ZM162.25,533.71h-32.52v-20.82h4.2v7.14h24.12v-6.96h4.2v20.64ZM133.92,523.93v5.88h24.12v-5.88h-24.12Z"/><path class="cls-2" d="M218.22,508.81h-48.24v-3.9h48.24v3.9ZM208.02,517.27h-31.74v-3.9h35.94v12.54h-31.74v5.04h33.36v3.9h-37.56v-12.84h31.74v-4.74ZM177.12,491.71c0-1.84.72-3.47,2.16-4.89,1.44-1.42,3.45-2.53,6.03-3.33,2.58-.8,5.53-1.2,8.85-1.2s6.32.4,8.88,1.2c2.56.8,4.56,1.91,6,3.33,1.44,1.42,2.16,3.05,2.16,4.89s-.72,3.48-2.16,4.92c-1.44,1.44-3.44,2.56-6,3.36-2.56.8-5.52,1.2-8.88,1.2s-6.27-.4-8.85-1.2c-2.58-.8-4.59-1.92-6.03-3.36-1.44-1.44-2.16-3.08-2.16-4.92ZM181.33,491.71c0,1.08.55,2.05,1.65,2.91,1.1.86,2.61,1.53,4.53,2.01,1.92.48,4.14.72,6.66.72s4.75-.24,6.69-.72c1.94-.48,3.45-1.15,4.53-2.01s1.62-1.83,1.62-2.91-.54-2.03-1.62-2.85c-1.08-.82-2.59-1.46-4.53-1.92-1.94-.46-4.17-.69-6.69-.69s-4.74.23-6.66.69c-1.92.46-3.43,1.1-4.53,1.92-1.1.82-1.65,1.77-1.65,2.85Z"/><path class="cls-2" d="M287.34,520.99h-29.82v-33.36h28.14v3.9h-9.96v25.56h11.64v3.9ZM261.72,491.53v25.56h9.78v-25.56h-9.78ZM293.34,505.09h-11.58v-3.9h11.58v-15.3h-3.9v-3.9h8.1v52.92h-4.2v-29.82Z"/><path class="cls-2" d="M351.42,509.23h-47.94v-3.9h21.9v-4.26c-9.56-.36-14.34-3.5-14.34-9.42,0-6.28,5.48-9.42,16.44-9.42s16.44,3.14,16.44,9.42c0,5.92-4.78,9.06-14.34,9.42v4.26h21.84v3.9ZM341.16,517.15h-31.56v-3.9h35.76v12.54h-31.56v5.46h33.06v3.9h-37.26v-13.26h31.56v-4.74ZM315.24,491.71c0,3.72,4.08,5.58,12.24,5.58s12.24-1.86,12.24-5.58-4.08-5.52-12.24-5.52-12.24,1.84-12.24,5.52Z"/><path class="cls-2" d="M397.2,534.38h-4.2v-21.3h-15.54v-3.9h15.54v-10.56h-13.98v5.82h-17.76v12.36h21.78v3.9h-25.98v-20.16h17.76v-10.02h-17.76v-3.9h21.96v8.1h13.98v-9.12h-3.9v-3.9h8.1v52.68Z"/><path class="cls-2" d="M404.82,504.01c0-4.88,1.22-8.73,3.66-11.55,2.44-2.82,5.72-4.23,9.84-4.23,4.12.2,7.38,1.72,9.78,4.56s3.6,6.58,3.6,11.22c0,3.2-.54,5.97-1.62,8.31-1.08,2.34-2.62,4.15-4.62,5.43-2,1.28-4.38,1.92-7.14,1.92s-5.15-.64-7.17-1.92c-2.02-1.28-3.58-3.09-4.68-5.43-1.1-2.34-1.65-5.11-1.65-8.31ZM409.02,504.01c0,3.6.84,6.46,2.52,8.58,1.68,2.12,3.94,3.18,6.78,3.18s5.08-1.06,6.72-3.18,2.46-4.98,2.46-8.58-.82-6.58-2.46-8.7c-1.64-2.12-3.88-3.18-6.72-3.18s-5.1,1.06-6.78,3.18c-1.68,2.12-2.52,5.02-2.52,8.7ZM444.6,535.21h-4.2v-49.62h-3.9v-3.9h8.1v13.68h9.66v3.9h-9.66v12.12h9.66v3.9h-9.66v19.92Z"/><path class="cls-2" d="M517.74,494.77h-30.54v-3.9h13.2v-8.82h4.2v8.82h13.14v3.9ZM502.5,522.49c-2.32,0-4.42-.52-6.3-1.56-1.88-1.04-3.37-2.43-4.47-4.17-1.1-1.74-1.65-3.69-1.65-5.85s.55-4.17,1.65-5.91c1.1-1.74,2.59-3.13,4.47-4.17,1.88-1.04,3.98-1.56,6.3-1.56s4.35.52,6.21,1.56c1.86,1.04,3.33,2.43,4.41,4.17,1.08,1.74,1.62,3.71,1.62,5.91s-.54,4.11-1.62,5.85-2.55,3.13-4.41,4.17c-1.86,1.04-3.93,1.56-6.21,1.56ZM494.28,511.03c0,1.4.36,2.68,1.08,3.84s1.71,2.07,2.97,2.73,2.65.99,4.17.99,2.88-.33,4.08-.99c1.2-.66,2.16-1.56,2.88-2.7.72-1.14,1.08-2.39,1.08-3.75,0-1.48-.36-2.82-1.08-4.02-.72-1.2-1.68-2.16-2.88-2.88-1.2-.72-2.56-1.08-4.08-1.08s-2.91.35-4.17,1.05c-1.26.7-2.25,1.64-2.97,2.82s-1.08,2.51-1.08,3.99ZM522.48,484.99h-3.9v-3.9h8.1v21.66h10.8v3.9h-10.8v27.72h-4.2v-49.38Z"/><path class="cls-2" d="M585.84,528.73h-48.72v-3.9h13.44v-12.3h4.2v12.3h13.32v-12.3h4.2v12.3h13.56v3.9ZM540.54,515.11l-2.1-3.3,20.88-13.32v-7.92h-18.36v-3.9h40.86v3.9h-18.3v7.92l20.88,13.32-2.1,3.3-20.88-13.32-20.88,13.32Z"/><path class="cls-2" d="M587.88,527.47v-6.66h6.66v6.66h-6.66Z"/><path class="cls-2" d="M689.04,528.43h-47.4v-3.9h21.6v-13.26h-15.06v-25.14h34.08v25.14h-14.82v13.26h21.6v3.9ZM652.38,490.03v17.34h25.68v-17.34h-25.68Z"/><path class="cls-2" d="M740.1,528.67h-48.72v-3.9h48.72v3.9ZM698.58,513.67v-16.92h29.88v-6.72h-29.88v-3.9h34.08v14.52h-29.88v9.12h29.88v3.9h-34.08Z"/><path class="cls-2" d="M777.78,480.79h7.5v39.3h-4.2v-14.28h-12.42v4.5h-23.82v-24.54h23.82v4.62h12.42v-5.7h-3.3v-3.9ZM749.04,489.67v16.74h15.42v-16.74h-15.42ZM787.26,533.53h-35.52v-17.22h4.2v13.32h31.32v3.9ZM768.66,494.29v7.62h12.42v-7.62h-12.42Z"/><path class="cls-2" d="M846.72,508.63h-21.96v-3.9h48.06v3.9h-21.9v5.52h15.84v11.88h-31.86v5.1l33.54.12v3.78l-37.74-.12v-12.66h31.86v-4.32h-31.68v-3.78h15.84v-5.52ZM865.86,500.47h-34.08v-16.62h4.2v4.38h25.68v-4.38h4.2v16.62ZM835.98,492.01v4.56h25.68v-4.56h-25.68Z"/><path class="cls-2" d="M901.32,510.07h-23.4v-24.18h23.4v24.18ZM882.12,489.79v16.38h15v-16.38h-15ZM920.04,533.65h-35.04v-17.76h4.2v13.86h30.84v3.9ZM911.82,485.05h-3.9v-3.9h8.1v16.44h8.58v3.9h-8.58v18.96h-4.2v-35.4Z"/><path class="cls-2" d="M951.72,510.07h-23.4v-24.18h23.4v24.18ZM932.52,489.79v16.38h15v-16.38h-15ZM970.44,533.65h-35.04v-17.76h4.2v13.86h30.84v3.9ZM962.22,485.05h-3.9v-3.9h8.1v16.44h8.58v3.9h-8.58v18.96h-4.2v-35.4Z"/><path class="cls-2" d="M80.71,568.66v-10.32h4.2v10.8l11.22,12.36-2.94,2.58-10.56-11.58-10.62,11.58-2.94-2.58,11.64-12.84ZM80.41,597.4c0-3.16,1.49-5.59,4.47-7.29,2.98-1.7,7.25-2.55,12.81-2.55s9.83.85,12.81,2.55c2.98,1.7,4.47,4.13,4.47,7.29s-1.49,5.59-4.47,7.29c-2.98,1.7-7.25,2.55-12.81,2.55s-9.83-.85-12.81-2.55c-2.98-1.7-4.47-4.13-4.47-7.29ZM84.49,597.4c0,1.96,1.14,3.46,3.42,4.5,2.28,1.04,5.54,1.56,9.78,1.56s7.5-.52,9.78-1.56c2.28-1.04,3.42-2.54,3.42-4.5s-1.14-3.46-3.42-4.5c-2.28-1.04-5.54-1.56-9.78-1.56s-7.5.52-9.78,1.56c-2.28,1.04-3.42,2.54-3.42,4.5ZM98.65,559h-3.9v-3.9h8.1v12.96h6.84v-12.96h4.2v30.96h-4.2v-14.1h-6.84v14.1h-4.2v-27.06Z"/><path class="cls-2" d="M121.33,593.5c4.04-1.84,7.65-4.23,10.83-7.17,3.18-2.94,5.75-6.25,7.71-9.93,1.96-3.68,3.1-7.54,3.42-11.58h-19.44v-3.9h23.76c.12,4.08-.4,7.95-1.56,11.61-1.16,3.66-2.85,7.05-5.07,10.17s-4.85,5.91-7.89,8.37c-3.04,2.46-6.36,4.53-9.96,6.21l-1.8-3.78ZM162.12,608.26h-4.2v-48.36h-3.9v-3.9h8.1v52.26Z"/><path class="cls-2" d="M217.5,601.18h-46.5v-3.9h18.54v-19.02h4.2v19.02h13.26v-33.9h-29.88v-3.9h34.08v37.8h6.3v3.9Z"/><path class="cls-2" d="M233.34,607.66l-13.26-.06v-3.9l9.48.06v-3.18h-3.96v-6.6h7.74v13.68Z"/><path class="cls-2" d="M329.76,601.78h-47.4v-3.9h21.6v-13.26h-15.06v-25.14h34.08v25.14h-14.82v13.26h21.6v3.9ZM293.1,563.38v17.34h25.68v-17.34h-25.68Z"/><path class="cls-2" d="M380.76,586.36h-48.66v-3.9h48.66v3.9ZM374.82,607.6h-35.82v-15.42h4.2v11.52h31.62v3.9ZM374.16,576.46h-34.8v-18.6h34.8v3.72h-30.78v11.16h30.78v3.72Z"/><path class="cls-2" d="M433.62,565.18h-16.5v-3.9h20.7c.24,5.44-.54,10.48-2.34,15.12h9.12v-18.36h-3.9v-3.9h8.1v53.46h-4.2v-27.3h-10.92l-.54.96c-1.08,1.84-2.49,3.75-4.23,5.73-1.74,1.98-3.6,3.81-5.58,5.49s-3.91,3.04-5.79,4.08l-2.28-3.48c1.76-1.04,3.56-2.33,5.4-3.87,1.84-1.54,3.54-3.18,5.1-4.92,1.56-1.74,2.8-3.41,3.72-5.01,2.44-4.2,3.82-8.9,4.14-14.1ZM460.02,607.6h-4.2v-53.46h4.2v53.46Z"/><path class="cls-2" d="M534.66,581.14h-34.02v-22.44h23.52v3.9h-19.32v14.64h29.82v-18h-3.9v-3.9h8.1v11.58h7.86v.6h.6v3.9h-8.46v12.9h-4.2v-3.18ZM538.86,607.48h-32.94v-20.52h4.2v6.36h24.54v-6.36h4.2v20.52ZM510.12,597.22v6.36h24.54v-6.36h-24.54Z"/><path class="cls-2" d="M585.06,581.14h-34.02v-22.44h23.52v3.9h-19.32v14.64h29.82v-18h-3.9v-3.9h8.1v11.58h7.86v.6h.6v3.9h-8.46v12.9h-4.2v-3.18ZM589.26,607.48h-32.94v-20.52h4.2v6.36h24.54v-6.36h4.2v20.52ZM560.52,597.22v6.36h24.54v-6.36h-24.54Z"/><path class="cls-2" d="M629.52,564.58h-30.36v-3.9h13.8v-6.12h4.2v6.12h12.36v3.9ZM601.74,576.34c0-1.92.54-3.6,1.62-5.04,1.08-1.44,2.58-2.57,4.5-3.39,1.92-.82,4.12-1.23,6.6-1.23s4.66.41,6.54,1.23c1.88.82,3.35,1.95,4.41,3.39,1.06,1.44,1.59,3.12,1.59,5.04s-.53,3.54-1.59,4.98c-1.06,1.44-2.53,2.57-4.41,3.39-1.88.82-4.06,1.23-6.54,1.23s-4.68-.41-6.6-1.23c-1.92-.82-3.42-1.95-4.5-3.39s-1.62-3.1-1.62-4.98ZM605.94,576.4c0,1.64.8,2.99,2.4,4.05,1.6,1.06,3.64,1.59,6.12,1.59s4.49-.52,6.03-1.56c1.54-1.04,2.31-2.36,2.31-3.96,0-1.76-.77-3.19-2.31-4.29-1.54-1.1-3.55-1.65-6.03-1.65s-4.52.54-6.12,1.62-2.4,2.48-2.4,4.2ZM639.66,607.48h-32.94v-18.78h4.2v5.76h24.54v-5.76h4.2v18.78ZM610.92,598.36v5.22h24.54v-5.22h-24.54ZM635.46,559.24h-3.9v-3.9h8.1v12.18h8.46v3.9h-8.46v14.64h-4.2v-26.82Z"/><path class="cls-2" d="M687.54,592.48h-34.74l.12-33.66h4.2l-.12,29.76h30.54v-30.54h-3.3v-3.6h7.5v53.28h-4.2v-15.24Z"/><path class="cls-2" d="M735.9,593.14h-33.78l.12-29.46v-2.22h24.18v3.9h-19.98l-.12,23.88h29.58v-31.2h-3.9v-3.9h8.1v21.3h9.24v3.9h-9.24v28.02h-4.2v-14.22Z"/><path class="cls-2" d="M750.06,600.82v-6.66h6.66v6.66h-6.66Z"/><path class="cls-2" d="M826.38,593.92h-21.06v-33.42h4.2v14.82h12.66v-14.82h4.2v33.42ZM809.52,579.22v10.8h12.66v-10.8h-12.66ZM849.48,607.6h-4.2v-26.34h-7.5v26.34h-4.2v-49.56h-3.9v-3.9h8.1v23.22h7.5v-23.22h4.2v53.46Z"/><path class="cls-2" d="M872.82,607.42h-4.2v-19.92h-13.92v-3.9h34.38v3.9h-16.26v19.92ZM858,568.42c0-2.2.53-4.15,1.59-5.85,1.06-1.7,2.53-3.04,4.41-4.02,1.88-.98,4.02-1.47,6.42-1.47,3.2,0,5.91.81,8.13,2.43,2.22,1.62,3.61,3.73,4.17,6.33h10.32v-8.04h-3.9v-3.9h8.1v53.52h-4.2v-37.68h-10.08c-.2,1.92-.87,3.61-2.01,5.07-1.14,1.46-2.61,2.61-4.41,3.45-1.8.84-3.84,1.26-6.12,1.26-2.4,0-4.54-.48-6.42-1.44-1.88-.96-3.35-2.27-4.41-3.93-1.06-1.66-1.59-3.57-1.59-5.73ZM862.2,568.42c0,2.08.77,3.8,2.31,5.16,1.54,1.36,3.51,2.04,5.91,2.04s4.5-.68,6.06-2.04c1.56-1.36,2.34-3.08,2.34-5.16s-.78-3.94-2.34-5.34c-1.56-1.4-3.58-2.1-6.06-2.1s-4.37.7-5.91,2.1c-1.54,1.4-2.31,3.18-2.31,5.34Z"/><path class="cls-2" d="M952.14,588.4h-47.94v-3.9h21.96v-6.66h-15v-20.82h4.2v7.02h25.68v-7.02h4.2v20.82h-14.88v6.66h21.78v3.9ZM910.44,608.62v-15.36h4.2v11.52h33.18v3.84h-37.38ZM915.36,567.94v6h25.68v-6h-25.68Z"/><path class="cls-2" d="M72.67,658.5l-2.76-2.82,13.74-12.84v-7.86h-11.82v-3.9h27.78v3.9h-11.76v7.8l14.1,11.7-2.64,2.82-13.5-11.1-13.14,12.3ZM108.49,666.6h-31.26v-3.9h35.46v18.9h-4.2v-15ZM108.49,645.54h-11.04v-3.9h11.04v-10.02h-3.9v-3.9h8.1v31.92h-4.2v-14.1Z"/><path class="cls-2" d="M121.75,651.42c0-3.48.54-6.49,1.62-9.03s2.63-4.5,4.65-5.88c2.02-1.38,4.41-2.07,7.17-2.07,2.72.08,5.08.83,7.08,2.25s3.54,3.38,4.62,5.88,1.62,5.45,1.62,8.85-.54,6.42-1.62,8.94c-1.08,2.52-2.62,4.46-4.62,5.82-2,1.36-4.36,2.04-7.08,2.04s-5.15-.68-7.17-2.04c-2.02-1.36-3.57-3.3-4.65-5.82-1.08-2.52-1.62-5.5-1.62-8.94ZM125.94,651.42c0,3.96.83,7.1,2.49,9.42,1.66,2.32,3.91,3.48,6.75,3.48s5.02-1.16,6.66-3.48c1.64-2.32,2.46-5.46,2.46-9.42s-.82-7.23-2.46-9.57c-1.64-2.34-3.86-3.51-6.66-3.51s-5.09,1.17-6.75,3.51c-1.66,2.34-2.49,5.53-2.49,9.57ZM162.78,681.06h-4.2v-49.38h-3.9v-3.9h8.1v53.28Z"/><path class="cls-2" d="M203.52,643.44c0-2.44.54-4.59,1.62-6.45s2.59-3.32,4.53-4.38c1.94-1.06,4.15-1.59,6.63-1.59,3.32,0,6.1.93,8.34,2.79,2.24,1.86,3.58,4.33,4.02,7.41h12.3v-8.88h-3.9v-3.9h8.1v28.8h-4.2v-12.12h-12.18c-.36,3.36-1.67,6.06-3.93,8.1-2.26,2.04-5.11,3.06-8.55,3.06-2.48,0-4.69-.55-6.63-1.65-1.94-1.1-3.45-2.61-4.53-4.53-1.08-1.92-1.62-4.14-1.62-6.66ZM207.72,643.5c0,2.6.79,4.73,2.37,6.39,1.58,1.66,3.61,2.49,6.09,2.49s4.51-.84,6.09-2.52c1.58-1.68,2.37-3.82,2.37-6.42s-.77-4.52-2.31-6.12c-1.54-1.6-3.55-2.4-6.03-2.4s-4.58.8-6.18,2.4c-1.6,1.6-2.4,3.66-2.4,6.18ZM238.5,671.4l-9.06,9.9-.18-.18v.18h-20.58v-21.42h4.2v6.96h10.8v-6.96h4.2l.06,17.52,8.34-9.18v-8.82h4.2v8.7l11.46,10.74-2.82,2.46-10.62-9.9ZM212.88,670.74v6.66h10.8v-6.66h-10.8Z"/><path class="cls-2" d="M289.32,666.48h-33.78l.12-29.46v-2.22h24.18v3.9h-19.98l-.12,23.88h29.58v-31.2h-3.9v-3.9h8.1v21.3h9.24v3.9h-9.24v28.02h-4.2v-14.22Z"/><path class="cls-2" d="M339.12,627.48h7.5v39.3h-4.2v-14.28h-12.42v4.5h-23.82v-24.54h23.82v4.62h12.42v-5.7h-3.3v-3.9ZM310.38,636.36v16.74h15.42v-16.74h-15.42ZM348.6,680.22h-35.52v-17.22h4.2v13.32h31.32v3.9ZM330,640.98v7.62h12.42v-7.62h-12.42Z"/><path class="cls-2" d="M366.54,681l-13.26-.06v-3.9l9.48.06v-3.18h-3.96v-6.6h7.74v13.68Z"/><path class="cls-2" d="M417.12,651.42c0-3.48.54-6.49,1.62-9.03s2.63-4.5,4.65-5.88c2.02-1.38,4.41-2.07,7.17-2.07,2.72.08,5.08.83,7.08,2.25s3.54,3.38,4.62,5.88,1.62,5.45,1.62,8.85-.54,6.42-1.62,8.94c-1.08,2.52-2.62,4.46-4.62,5.82-2,1.36-4.36,2.04-7.08,2.04s-5.15-.68-7.17-2.04c-2.02-1.36-3.57-3.3-4.65-5.82-1.08-2.52-1.62-5.5-1.62-8.94ZM421.32,651.42c0,3.96.83,7.1,2.49,9.42,1.66,2.32,3.91,3.48,6.75,3.48s5.02-1.16,6.66-3.48c1.64-2.32,2.46-5.46,2.46-9.42s-.82-7.23-2.46-9.57c-1.64-2.34-3.86-3.51-6.66-3.51s-5.09,1.17-6.75,3.51c-1.66,2.34-2.49,5.53-2.49,9.57ZM458.16,681.06h-4.2v-49.38h-3.9v-3.9h8.1v53.28Z"/><path class="cls-2" d="M476.82,639.12h-10.26v-3.9h24.3v3.9h-9.84v12.3l10.98,13.98-3,2.46-10.14-13.08-11.4,13.92-2.94-2.58,12.3-14.88v-12.12ZM495.84,650.88h-9.24v-3.9h9.24v-15.18h-4.08v-3.9h8.28v53.04h-4.2v-30.06ZM510.54,680.94h-4.2v-53.04h4.2v53.04Z"/><path class="cls-2" d="M552.36,668.94h-33.9l.12-18.84v-2.22h19.08v-11.04h-19.08v-3.9h23.28v18.84h-19.08l-.12,13.26h29.7v-33.36h-3.9v-3.9h8.1v21.66h9.42v3.9h-9.42v27.72h-4.2v-12.12Z"/><path class="cls-2" d="M614.88,675.36h-48.9v-3.9h22.32v-13.5h-15v-25.14h34.08v3.9h-29.88v17.34h29.88v3.9h-14.88v13.5h22.38v3.9Z"/><path class="cls-2" d="M672.12,667.26h-21.06v-33.42h4.2v14.82h12.66v-14.82h4.2v33.42ZM655.26,652.56v10.8h12.66v-10.8h-12.66ZM695.22,680.94h-4.2v-26.34h-7.5v26.34h-4.2v-49.56h-3.9v-3.9h8.1v23.22h7.5v-23.22h4.2v53.46Z"/><path class="cls-2" d="M718.56,680.76h-4.2v-19.92h-13.92v-3.9h34.38v3.9h-16.26v19.92ZM703.74,641.76c0-2.2.53-4.15,1.59-5.85,1.06-1.7,2.53-3.04,4.41-4.02,1.88-.98,4.02-1.47,6.42-1.47,3.2,0,5.91.81,8.13,2.43,2.22,1.62,3.61,3.73,4.17,6.33h10.32v-8.04h-3.9v-3.9h8.1v53.52h-4.2v-37.68h-10.08c-.2,1.92-.87,3.61-2.01,5.07-1.14,1.46-2.61,2.61-4.41,3.45-1.8.84-3.84,1.26-6.12,1.26-2.4,0-4.54-.48-6.42-1.44-1.88-.96-3.35-2.27-4.41-3.93-1.06-1.66-1.59-3.57-1.59-5.73ZM707.94,641.76c0,2.08.77,3.8,2.31,5.16,1.54,1.36,3.51,2.04,5.91,2.04s4.5-.68,6.06-2.04c1.56-1.36,2.34-3.08,2.34-5.16s-.78-3.94-2.34-5.34c-1.56-1.4-3.58-2.1-6.06-2.1s-4.37.7-5.91,2.1c-1.54,1.4-2.31,3.18-2.31,5.34Z"/><path class="cls-2" d="M750.6,650.7c0-4.88,1.22-8.73,3.66-11.55,2.44-2.82,5.72-4.23,9.84-4.23,4.12.2,7.38,1.72,9.78,4.56s3.6,6.58,3.6,11.22c0,3.2-.54,5.97-1.62,8.31-1.08,2.34-2.62,4.15-4.62,5.43s-4.38,1.92-7.14,1.92-5.15-.64-7.17-1.92c-2.02-1.28-3.58-3.09-4.68-5.43-1.1-2.34-1.65-5.11-1.65-8.31ZM754.8,650.7c0,3.6.84,6.46,2.52,8.58s3.94,3.18,6.78,3.18,5.08-1.06,6.72-3.18,2.46-4.98,2.46-8.58-.82-6.58-2.46-8.7c-1.64-2.12-3.88-3.18-6.72-3.18s-5.1,1.06-6.78,3.18c-1.68,2.12-2.52,5.02-2.52,8.7ZM790.38,681.9h-4.2v-49.62h-3.9v-3.9h8.1v13.68h9.66v3.9h-9.66v12.12h9.66v3.9h-9.66v19.92Z"/><path class="cls-2" d="M863.52,637.92h-30.36v-3.9h13.8v-6.12h4.2v6.12h12.36v3.9ZM835.74,649.68c0-1.92.54-3.6,1.62-5.04,1.08-1.44,2.58-2.57,4.5-3.39,1.92-.82,4.12-1.23,6.6-1.23s4.66.41,6.54,1.23c1.88.82,3.35,1.95,4.41,3.39,1.06,1.44,1.59,3.12,1.59,5.04s-.53,3.54-1.59,4.98c-1.06,1.44-2.53,2.57-4.41,3.39-1.88.82-4.06,1.23-6.54,1.23s-4.68-.41-6.6-1.23c-1.92-.82-3.42-1.95-4.5-3.39s-1.62-3.1-1.62-4.98ZM839.94,649.74c0,1.64.8,2.99,2.4,4.05,1.6,1.06,3.64,1.59,6.12,1.59s4.49-.52,6.03-1.56c1.54-1.04,2.31-2.36,2.31-3.96,0-1.76-.77-3.19-2.31-4.29-1.54-1.1-3.55-1.65-6.03-1.65s-4.52.54-6.12,1.62-2.4,2.48-2.4,4.2ZM873.66,680.82h-32.94v-18.78h4.2v5.76h24.54v-5.76h4.2v18.78ZM844.92,671.7v5.22h24.54v-5.22h-24.54ZM869.46,632.58h-3.9v-3.9h8.1v12.18h8.46v3.9h-8.46v14.64h-4.2v-26.82Z"/><path class="cls-2" d="M921.54,665.82h-34.74l.12-33.66h4.2l-.12,29.76h30.54v-30.54h-3.3v-3.6h7.5v53.28h-4.2v-15.24Z"/><path class="cls-2" d="M969.9,666.48h-33.78l.12-29.46v-2.22h24.18v3.9h-19.98l-.12,23.88h29.58v-31.2h-3.9v-3.9h8.1v21.3h9.24v3.9h-9.24v28.02h-4.2v-14.22Z"/><path class="cls-2" d="M984.06,674.16v-6.66h6.66v6.66h-6.66Z"/><rect class="cls-4" x="83.48" y="757.76" width="924.95" height="84.08"/><rect class="cls-1" x="66.48" y="757.76" width="924.95" height="84.08"/><path class="cls-6" d="M152.23,819.94h-48.72v-3.9h22.2v-12.9h4.2v12.9h22.32v3.9ZM109.33,806.74l-2.1-3.3,18.48-12.72v-8.46h-16.2v-3.9h36.48v3.9h-16.08v8.46l18.48,12.72-2.1,3.3-18.48-12.72-18.48,12.72Z"/><path class="cls-6" d="M157.45,803.44l-2.76-2.82,13.74-12.84v-7.86h-11.82v-3.9h27.78v3.9h-11.76v7.8l14.1,11.7-2.64,2.82-13.5-11.1-13.14,12.3ZM193.27,811.54h-31.26v-3.9h35.46v18.9h-4.2v-15ZM193.27,776.56h-3.9v-3.9h8.1v31.92h-4.2v-28.02Z"/><path class="cls-6" d="M226.99,803.8h-22.74v-3.9h47.46v3.9h-20.52v10.92h-4.2v-10.92ZM247.21,825.46h-36.18v-16.02h4.2v12.12h31.98v3.9ZM245.95,793.72h-33.96v-19.02h33.96v19.02ZM216.19,778.6v11.22h25.56v-11.22h-25.56Z"/><path class="cls-6" d="M295.69,826.54h-4.2v-9.96h-36.66v-3.9h14.22v-5.64c-1.92-.32-3.64-.96-5.16-1.92-1.52-.96-2.72-2.17-3.6-3.63-.88-1.46-1.32-3.05-1.32-4.77,0-1.96.55-3.73,1.65-5.31,1.1-1.58,2.59-2.84,4.47-3.78,1.88-.94,3.96-1.41,6.24-1.41s4.33.47,6.15,1.41c1.82.94,3.27,2.2,4.35,3.78,1.08,1.58,1.62,3.35,1.62,5.31,0,1.76-.45,3.38-1.35,4.86-.9,1.48-2.11,2.7-3.63,3.66-1.52.96-3.26,1.58-5.22,1.86v5.58h18.24v-36.3h-3.9v-3.9h8.1v24.12h8.82v3.9h-8.82v26.04ZM286.33,783.64h-31.08v-3.78h13.92v-7.44h4.08v7.44h13.08v3.78ZM263.17,796.78c0,1.2.36,2.3,1.08,3.3.72,1,1.7,1.79,2.94,2.37,1.24.58,2.62.87,4.14.87s2.82-.28,4.02-.84c1.2-.56,2.15-1.33,2.85-2.31.7-.98,1.05-2.07,1.05-3.27,0-1.28-.35-2.43-1.05-3.45-.7-1.02-1.65-1.83-2.85-2.43s-2.54-.9-4.02-.9-2.9.3-4.14.9c-1.24.6-2.22,1.4-2.94,2.4-.72,1-1.08,2.12-1.08,3.36Z"/><path class="cls-6" d="M378.85,803.86h-4.2v-3.12h-34.38v-23.76h23.28v3.9h-19.08v15.96h30.18v-19.44h-3.9v-3.9h8.1v13.2h8.1v3.9h-8.1v13.26ZM345.85,823.78h-.06v-17.16h33.06v19.02h-33v-1.86ZM349.99,810.52v11.22h24.66v-11.22h-24.66Z"/><path class="cls-6" d="M424.86,800.68h-34.14v-23.7h23.76v3.9h-19.56v15.9h29.94v-19.56h-3.9v-3.9h8.1v13.98h8.52v3.9h-8.52v13.38h-4.2v-3.9ZM395.1,816.52c0-3.08,1.57-5.52,4.71-7.32,3.14-1.8,7.39-2.7,12.75-2.7,5.36-.04,9.62.84,12.78,2.64,3.16,1.8,4.74,4.26,4.74,7.38s-1.58,5.52-4.74,7.32c-3.16,1.8-7.42,2.7-12.78,2.7s-9.61-.9-12.75-2.7c-3.14-1.8-4.71-4.24-4.71-7.32ZM399.3,816.52c0,1.88,1.19,3.37,3.57,4.47,2.38,1.1,5.61,1.65,9.69,1.65s7.32-.55,9.72-1.65c2.4-1.1,3.6-2.59,3.6-4.47s-1.2-3.37-3.6-4.47c-2.4-1.1-5.64-1.65-9.72-1.65s-7.31.55-9.69,1.65c-2.38,1.1-3.57,2.59-3.57,4.47Z"/><path class="cls-6" d="M453.84,783.58h-12.42v-3.9h28.98v3.9h-12.36v12.84l14.28,17.4-3,2.46-13.32-16.2-12.84,16.2-3.06-2.4,13.74-17.34v-12.96ZM477.96,776.8h-3.9v-3.9h8.1v21.54h9.78v3.9h-9.78v27.84h-4.2v-49.38Z"/><path class="cls-6" d="M554.58,811.66h-26.34v-30.9h19.62v3.9h-15.42v23.1h22.14v-30.12h-3.9v-3.9h8.1v20.34h7.74v-20.34h4.2v52.14h-4.2v-27.9h-7.74v27.9h-4.2v-14.22Z"/><path class="cls-6" d="M579.54,803.5l-2.64-2.82,12.72-12.06v-12.6h4.2v12.54l12.78,12.12-2.7,2.82-12.18-11.58-12.18,11.58ZM584.82,817.42c0-3.32,1.45-5.87,4.35-7.65,2.9-1.78,7.01-2.67,12.33-2.67s9.48.89,12.36,2.67c2.88,1.78,4.32,4.33,4.32,7.65s-1.44,5.82-4.32,7.62c-2.88,1.8-7,2.7-12.36,2.7s-9.43-.9-12.33-2.7c-2.9-1.8-4.35-4.34-4.35-7.62ZM588.9,817.42c0,2.08,1.09,3.69,3.27,4.83,2.18,1.14,5.29,1.71,9.33,1.71s7.15-.57,9.33-1.71c2.18-1.14,3.27-2.75,3.27-4.83s-1.09-3.74-3.27-4.86c-2.18-1.12-5.29-1.68-9.33-1.68s-7.15.56-9.33,1.68c-2.18,1.12-3.27,2.74-3.27,4.86ZM617.4,806.08h-4.2v-29.76h-3.9v-3.9h8.1v14.82h8.58v3.9h-8.58v14.94Z"/><rect class="cls-1" x="83.48" y="863.76" width="924.95" height="84.08"/><rect class="cls-3" x="66.48" y="863.76" width="924.95" height="84.08"/><path class="cls-2" d="M126.61,907.21h-20.46v-23.22h20.46v23.22ZM110.35,887.59v15.72h12.06v-15.72h-12.06ZM143.59,918.37h-30.9v-3.9h35.1v18.06h-4.2v-14.16ZM133.33,883.27h-4.08v-3.9h8.1v13.74h6.42v-13.74h4.2v31.98h-4.2v-14.52h-6.42v14.52h-4.02v-28.08Z"/><path class="cls-2" d="M190.93,909.43h-34.26v-15.84h19.44v-7.38h-19.44v-3.9h23.64v15.18h-19.44v8.04h30.06v-23.46h-3.9v-3.6h8.1v14.7h8.4v3.9h-8.4v14.4h-4.2v-2.04ZM190.93,918.31h-29.76v-3.9h33.96v17.88h-4.2v-13.98Z"/><path class="cls-2" d="M206.41,894.91c0-2.56.56-4.81,1.68-6.75,1.12-1.94,2.67-3.46,4.65-4.56,1.98-1.1,4.25-1.65,6.81-1.65s4.81.55,6.75,1.65c1.94,1.1,3.46,2.62,4.56,4.56,1.1,1.94,1.65,4.19,1.65,6.75s-.55,4.74-1.65,6.66c-1.1,1.92-2.62,3.43-4.56,4.53-1.94,1.1-4.19,1.65-6.75,1.65s-4.83-.55-6.81-1.65c-1.98-1.1-3.53-2.61-4.65-4.53-1.12-1.92-1.68-4.14-1.68-6.66ZM209.65,932.77l-2.88-2.52,11.16-10.14v-7.74h4.08v7.8l8.1,7.08,8.22-7.2v-7.68h4.2v7.98l11.04,10.02-2.88,2.52-10.44-9.54-10.14,8.94h-.06l-10.08-8.88-10.32,9.36ZM210.61,894.97c0,2.6.83,4.73,2.49,6.39,1.66,1.66,3.77,2.49,6.33,2.49s4.73-.84,6.39-2.52c1.66-1.68,2.49-3.82,2.49-6.42s-.81-4.86-2.43-6.54c-1.62-1.68-3.73-2.52-6.33-2.52s-4.74.85-6.42,2.55c-1.68,1.7-2.52,3.89-2.52,6.57ZM247.45,910.09h-4.2v-26.94h-4.2v-3.9h8.4v30.84Z"/><path class="cls-2" d="M302.89,909.73h-47.88v-3.9h47.88v3.9ZM297.97,930.85h-36.9v-15.54h4.2v11.64h32.7v3.9ZM296.35,898.69h-33.84v-18.36h4.2v14.46h29.64v3.9Z"/><path class="cls-2" d="M386.29,926.17h-48.9v-3.9h48.9v3.9ZM379.99,910.09h-36.48v-3.9h7.56v-18.54h-7.56v-3.9h36.48v3.9h-7.56v18.54h7.56v3.9ZM355.27,887.65v18.54h12.96v-18.54h-12.96Z"/><path class="cls-2" d="M395.1,908.89v-15.12h29.88v-6.12h-29.88v-3.9h34.08v13.92h-29.88v7.32h29.88v3.9h-14.82v13.5h22.26v3.9h-48.72v-3.9h22.26v-13.5h-15.06Z"/><path class="cls-2" d="M485.88,925.45h-46.5v-3.9h36v-33.9h-29.88v-3.9h34.08v37.8h6.3v3.9Z"/><path class="cls-2" d="M506.82,886.87h-16.02v-3.9h20.22v14.52h-15.48v7.44h21.72v-21.66h-3.9v-3.9h8.1v13.74h7.62v-13.74h4.2v32.4h-4.2v-14.76h-7.62v14.76h-4.2v-2.94h-25.92v-15.24h15.48v-6.72ZM499.2,932.11v-17.88h34.68v17.88h-34.68ZM503.4,918.13v10.08l26.28-.12v-9.96h-26.28Z"/><path class="cls-2" d="M573.3,917.77c4.04-1.84,7.65-4.23,10.83-7.17,3.18-2.94,5.75-6.25,7.71-9.93,1.96-3.68,3.1-7.54,3.42-11.58h-19.44v-3.9h23.76c.12,4.08-.4,7.95-1.56,11.61-1.16,3.66-2.85,7.05-5.07,10.17s-4.85,5.91-7.89,8.37c-3.04,2.46-6.36,4.53-9.96,6.21l-1.8-3.78ZM614.1,932.53h-4.2v-48.36h-3.9v-3.9h8.1v52.26Z"/><path class="cls-2" d="M653.58,887.89h-29.52v-3.9h12.3v-5.28h4.2v5.28h13.02v3.9ZM664.86,914.53h-4.2v-1.86h-36.6v-3.9h12.3v-2.82c-2.92-.32-5.27-1.2-7.05-2.64-1.78-1.44-2.67-3.2-2.67-5.28,0-1.64.52-3.08,1.56-4.32,1.04-1.24,2.48-2.21,4.32-2.91,1.84-.7,3.94-1.05,6.3-1.05s4.44.35,6.24,1.05c1.8.7,3.21,1.67,4.23,2.91,1.02,1.24,1.53,2.68,1.53,4.32,0,2.16-.95,3.96-2.85,5.4-1.9,1.44-4.37,2.3-7.41,2.58v2.76h20.1v-26.1h-3.48v-3.9h7.68v35.76ZM660.6,921.13h-31.32v-3.9h35.52v15.24h-4.2v-11.34ZM630.72,898.09c0,1.24.76,2.25,2.28,3.03,1.52.78,3.46,1.17,5.82,1.17s4.27-.38,5.73-1.14c1.46-.76,2.19-1.74,2.19-2.94,0-1.4-.73-2.53-2.19-3.39-1.46-.86-3.37-1.29-5.73-1.29s-4.3.42-5.82,1.26c-1.52.84-2.28,1.94-2.28,3.3Z"/><path class="cls-2" d="M703.32,892.39h-30.54v-3.9h13.2v-8.82h4.2v8.82h13.14v3.9ZM688.08,920.11c-2.32,0-4.42-.52-6.3-1.56-1.88-1.04-3.37-2.43-4.47-4.17-1.1-1.74-1.65-3.69-1.65-5.85s.55-4.17,1.65-5.91c1.1-1.74,2.59-3.13,4.47-4.17,1.88-1.04,3.98-1.56,6.3-1.56s4.35.52,6.21,1.56,3.33,2.43,4.41,4.17c1.08,1.74,1.62,3.71,1.62,5.91s-.54,4.11-1.62,5.85-2.55,3.13-4.41,4.17c-1.86,1.04-3.93,1.56-6.21,1.56ZM679.86,908.65c0,1.4.36,2.68,1.08,3.84.72,1.16,1.71,2.07,2.97,2.73s2.65.99,4.17.99,2.88-.33,4.08-.99,2.16-1.56,2.88-2.7c.72-1.14,1.08-2.39,1.08-3.75,0-1.48-.36-2.82-1.08-4.02s-1.68-2.16-2.88-2.88c-1.2-.72-2.56-1.08-4.08-1.08s-2.91.35-4.17,1.05c-1.26.7-2.25,1.64-2.97,2.82-.72,1.18-1.08,2.51-1.08,3.99ZM708.06,882.61h-3.9v-3.9h8.1v21.66h10.8v3.9h-10.8v27.72h-4.2v-49.38Z"/><path class="cls-2" d="M724.5,917.77c4.04-1.84,7.65-4.23,10.83-7.17,3.18-2.94,5.75-6.25,7.71-9.93,1.96-3.68,3.1-7.54,3.42-11.58h-19.44v-3.9h23.76c.12,4.08-.4,7.95-1.56,11.61-1.16,3.66-2.85,7.05-5.07,10.17s-4.85,5.91-7.89,8.37c-3.04,2.46-6.36,4.53-9.96,6.21l-1.8-3.78ZM765.3,932.53h-4.2v-48.36h-3.9v-3.9h8.1v52.26Z"/><rect class="cls-1" x="83.48" y="965.76" width="924.95" height="84.08"/><rect class="cls-3" x="66.48" y="965.76" width="924.95" height="84.08"/><path class="cls-2" d="M105.01,998.35c0-2.64.57-4.96,1.71-6.96,1.14-2,2.72-3.57,4.74-4.71,2.02-1.14,4.35-1.71,6.99-1.71,2.6.08,4.9.71,6.9,1.89,2,1.18,3.57,2.76,4.71,4.74,1.14,1.98,1.71,4.23,1.71,6.75s-.57,4.84-1.71,6.84c-1.14,2-2.71,3.56-4.71,4.68-2,1.12-4.3,1.68-6.9,1.68s-4.97-.56-6.99-1.68c-2.02-1.12-3.6-2.68-4.74-4.68-1.14-2-1.71-4.28-1.71-6.84ZM109.21,998.35c0,2.72.87,4.95,2.61,6.69s3.95,2.61,6.63,2.61,4.87-.87,6.57-2.61c1.7-1.74,2.55-3.97,2.55-6.69s-.85-5.08-2.55-6.84c-1.7-1.76-3.89-2.64-6.57-2.64s-4.89.88-6.63,2.64c-1.74,1.76-2.61,4.04-2.61,6.84ZM149.35,1032.97h-35.34v-16.26h4.2v12.36h31.14v3.9ZM147.31,1020.13h-4.2v-36.36h-3.9v-3.6h8.1v39.96Z"/><path class="cls-2" d="M155.35,1009.09c1.68-.36,3.37-.91,5.07-1.65,1.7-.74,3.31-1.6,4.83-2.58,1.52-.98,2.82-1.97,3.9-2.97,2-1.88,3.56-3.96,4.68-6.24,1.12-2.28,1.82-4.52,2.1-6.72h-18.9v-4.08h23.22v1.08c0,2.32-.36,4.63-1.08,6.93-.72,2.3-1.71,4.46-2.97,6.48-1.26,2.02-2.69,3.79-4.29,5.31-1.88,1.76-4.19,3.39-6.93,4.89-2.74,1.5-5.49,2.55-8.25,3.15l-1.38-3.6ZM197.77,1032.67h-35.04v-17.16h4.2v13.26h30.84v3.9ZM190.75,984.67h-3.9v-3.9h8.1v16.44h8.58v3.9h-8.58v18.96h-4.2v-35.4Z"/><path class="cls-2" d="M252.25,991.57h-12.42v-3.9h28.98v3.9h-12.36v12.84l14.28,17.4-3,2.46-13.32-16.2-12.84,16.2-3.06-2.4,13.74-17.34v-12.96ZM276.37,984.79h-3.9v-3.9h8.1v21.54h9.78v3.9h-9.78v27.84h-4.2v-49.38Z"/><path class="cls-2" d="M303.13,995.29h-10.26v-3.9h10.26v-8.34h4.2v8.34h10.14v3.9h-10.14v9.9l11.1,15.36-3.12,2.34-10.2-14.16-10.8,14.64-3.12-2.34,11.94-16.2v-9.54ZM322.45,1005.55h-8.64v-3.9h8.64v-16.38h-3.9v-3.9h8.1v52.56h-4.2v-28.38ZM337.09,1033.93h-4.2v-52.56h4.2v52.56Z"/><path class="cls-2" d="M376.92,1033.87h-4.2v-28.92h-7.14c-.4,9.36-4.22,14.04-11.46,14.04-7.76,0-11.64-5.3-11.64-15.9s3.88-16.08,11.64-16.08c7.16.24,10.98,4.92,11.46,14.04h7.14v-16.74h-3.9v-3.9h8.1v53.46ZM346.68,1003.09c0,8,2.48,12,7.44,12s7.32-4,7.32-12-2.44-12.18-7.32-12.18-7.44,4.06-7.44,12.18ZM387.42,1033.87h-4.2v-53.46h4.2v53.46Z"/><path class="cls-2" d="M453.79,1019.65h-26.34v-30.9h19.62v3.9h-15.42v23.1h22.14v-30.12h-3.9v-3.9h8.1v20.34h7.74v-20.34h4.2v52.14h-4.2v-27.9h-7.74v27.9h-4.2v-14.22Z"/><path class="cls-2" d="M502.56,994.33h-27.06v-3.9h11.34v-8.28h4.2v8.28h11.52v3.9ZM488.82,1020.37c-2.16,0-4.11-.49-5.85-1.47-1.74-.98-3.12-2.3-4.14-3.96-1.02-1.66-1.53-3.51-1.53-5.55s.51-3.95,1.53-5.61c1.02-1.66,2.4-2.98,4.14-3.96,1.74-.98,3.69-1.47,5.85-1.47s4.04.49,5.76,1.47,3.08,2.3,4.08,3.96,1.5,3.53,1.5,5.61-.5,3.89-1.5,5.55c-1,1.66-2.36,2.98-4.08,3.96-1.72.98-3.64,1.47-5.76,1.47ZM481.5,1009.51c0,1.28.33,2.45.99,3.51.66,1.06,1.54,1.9,2.64,2.52s2.33.93,3.69.93c2,0,3.69-.66,5.07-1.98,1.38-1.32,2.07-2.94,2.07-4.86,0-2.08-.69-3.83-2.07-5.25-1.38-1.42-3.07-2.13-5.07-2.13-1.36,0-2.59.32-3.69.96-1.1.64-1.98,1.51-2.64,2.61s-.99,2.33-.99,3.69ZM504.9,984.61h-3.3v-3.9h7.5v22.44h7.02v-22.44h4.2v53.16h-4.2v-26.82h-7.02v26.82h-4.2v-49.26Z"/><path class="cls-2" d="M596.22,987.79h-32.1v-3.9h36.3v22.56h5.94v3.9h-48v-3.9h20.16v-10.5h4.2v10.5h13.5v-18.66ZM564.12,1025.05c0-3.28,1.54-5.73,4.62-7.35,3.08-1.62,7.62-2.43,13.62-2.43s10.55.81,13.65,2.43,4.65,4.07,4.65,7.35-1.55,5.81-4.65,7.47-7.65,2.49-13.65,2.49-10.54-.83-13.62-2.49c-3.08-1.66-4.62-4.15-4.62-7.47ZM568.32,1025.05c0,2.04,1.19,3.56,3.57,4.56,2.38,1,5.87,1.5,10.47,1.5s8.1-.5,10.5-1.5c2.4-1,3.6-2.52,3.6-4.56s-1.2-3.48-3.6-4.44c-2.4-.96-5.9-1.44-10.5-1.44s-8.09.48-10.47,1.44c-2.38.96-3.57,2.44-3.57,4.44Z"/><path class="cls-2" d="M634.98,1034.53h-4.2v-17.46h-22.14v-3.9h48.66v3.9h-22.32v17.46ZM649.98,1006.69h-34.08v-23.22h4.2v7.44h25.68v-7.44h4.2v23.22ZM620.1,994.81v7.98h25.68v-7.98h-25.68Z"/><path class="cls-2" d="M690.12,994.39h-30.54v-3.9h13.2v-8.82h4.2v8.82h13.14v3.9ZM674.88,1022.11c-2.32,0-4.42-.52-6.3-1.56-1.88-1.04-3.37-2.43-4.47-4.17-1.1-1.74-1.65-3.69-1.65-5.85s.55-4.17,1.65-5.91c1.1-1.74,2.59-3.13,4.47-4.17,1.88-1.04,3.98-1.56,6.3-1.56s4.35.52,6.21,1.56,3.33,2.43,4.41,4.17c1.08,1.74,1.62,3.71,1.62,5.91s-.54,4.11-1.62,5.85-2.55,3.13-4.41,4.17c-1.86,1.04-3.93,1.56-6.21,1.56ZM666.66,1010.65c0,1.4.36,2.68,1.08,3.84.72,1.16,1.71,2.07,2.97,2.73s2.65.99,4.17.99,2.88-.33,4.08-.99,2.16-1.56,2.88-2.7c.72-1.14,1.08-2.39,1.08-3.75,0-1.48-.36-2.82-1.08-4.02s-1.68-2.16-2.88-2.88c-1.2-.72-2.56-1.08-4.08-1.08s-2.91.35-4.17,1.05c-1.26.7-2.25,1.64-2.97,2.82-.72,1.18-1.08,2.51-1.08,3.99ZM694.86,984.61h-3.9v-3.9h8.1v21.66h10.8v3.9h-10.8v27.72h-4.2v-49.38Z"/><path class="cls-2" d="M711.3,1019.77c4.04-1.84,7.65-4.23,10.83-7.17,3.18-2.94,5.75-6.25,7.71-9.93,1.96-3.68,3.1-7.54,3.42-11.58h-19.44v-3.9h23.76c.12,4.08-.4,7.95-1.56,11.61-1.16,3.66-2.85,7.05-5.07,10.17s-4.85,5.91-7.89,8.37c-3.04,2.46-6.36,4.53-9.96,6.21l-1.8-3.78ZM752.1,1034.53h-4.2v-48.36h-3.9v-3.9h8.1v52.26Z"/><rect class="cls-1" x="83.48" y="1067.76" width="924.95" height="84.08"/><rect class="cls-3" x="66.48" y="1067.76" width="924.95" height="84.08"/><path class="cls-2" d="M107.29,1110.55l-2.64-2.88,13.14-12.18v-10.44h4.2v10.44l13.14,12.18-2.64,2.88-12.6-11.7-12.6,11.7ZM113.89,1136.47v-13.74h29.34v-4.92h-29.4v-3.9h33.6v12.72h-29.34v5.94h31.8v3.9h-36ZM142.93,1097.05h-12.72v-3.9h12.72v-5.88h-3.9v-3.9h8.1v27.66h-4.2v-13.98Z"/><path class="cls-2" d="M202.57,1112.83h-48.66v-3.9h48.66v3.9ZM192.31,1123.99h-32.76v-3.9h36.96v16.44h-4.2v-12.54ZM195.97,1102.99h-34.8v-17.46h34.8v3.72h-30.78v10.02h30.78v3.72Z"/><path class="cls-2" d="M235.33,1096.39h-30.54v-3.9h13.2v-8.82h4.2v8.82h13.14v3.9ZM220.09,1124.11c-2.32,0-4.42-.52-6.3-1.56-1.88-1.04-3.37-2.43-4.47-4.17-1.1-1.74-1.65-3.69-1.65-5.85s.55-4.17,1.65-5.91c1.1-1.74,2.59-3.13,4.47-4.17,1.88-1.04,3.98-1.56,6.3-1.56s4.35.52,6.21,1.56,3.33,2.43,4.41,4.17c1.08,1.74,1.62,3.71,1.62,5.91s-.54,4.11-1.62,5.85-2.55,3.13-4.41,4.17c-1.86,1.04-3.93,1.56-6.21,1.56ZM211.87,1112.65c0,1.4.36,2.68,1.08,3.84.72,1.16,1.71,2.07,2.97,2.73s2.65.99,4.17.99,2.88-.33,4.08-.99,2.16-1.56,2.88-2.7c.72-1.14,1.08-2.39,1.08-3.75,0-1.48-.36-2.82-1.08-4.02s-1.68-2.16-2.88-2.88c-1.2-.72-2.56-1.08-4.08-1.08s-2.91.35-4.17,1.05c-1.26.7-2.25,1.64-2.97,2.82-.72,1.18-1.08,2.51-1.08,3.99ZM240.07,1086.61h-3.9v-3.9h8.1v21.66h10.8v3.9h-10.8v27.72h-4.2v-49.38Z"/><path class="cls-2" d="M302.29,1129.45h-46.5v-3.9h18.54v-19.02h4.2v19.02h13.26v-33.9h-29.88v-3.9h34.08v37.8h6.3v3.9Z"/><path class="cls-2" d="M318.13,1135.93l-13.26-.06v-3.9l9.48.06v-3.18h-3.96v-6.6h7.74v13.68Z"/><path class="cls-2" d="M388.75,1114.57h-21.9v-3.9h47.94v3.9h-21.84v11.04h-4.2v-11.04ZM373.21,1135.63v-15.36h4.2v11.46h31.62v3.9h-35.82ZM374.1,1095.25c0-3.28,1.51-5.87,4.53-7.77,3.02-1.9,7.09-2.85,12.21-2.85s9.19.95,12.21,2.85c3.02,1.9,4.53,4.49,4.53,7.77s-1.51,5.88-4.53,7.8c-3.02,1.92-7.09,2.88-12.21,2.88s-9.19-.96-12.21-2.88c-3.02-1.92-4.53-4.52-4.53-7.8ZM378.3,1095.31c0,2.08,1.13,3.73,3.39,4.95,2.26,1.22,5.31,1.83,9.15,1.83s6.89-.61,9.15-1.83c2.26-1.22,3.39-2.87,3.39-4.95s-1.13-3.72-3.39-4.92c-2.26-1.2-5.31-1.8-9.15-1.8s-6.89.6-9.15,1.8-3.39,2.84-3.39,4.92Z"/><path class="cls-2" d="M459.37,1115.05h-4.2v-8.76h-13.5c-1.08,1.72-2.52,3.06-4.32,4.02-1.8.96-3.86,1.44-6.18,1.44-2.48,0-4.69-.55-6.63-1.65-1.94-1.1-3.45-2.61-4.53-4.53-1.08-1.92-1.62-4.14-1.62-6.66s.54-4.59,1.62-6.45,2.59-3.32,4.53-4.38c1.94-1.06,4.15-1.59,6.63-1.59s4.53.5,6.39,1.5c1.86,1,3.31,2.38,4.35,4.14h13.26v-4.98h-3.9v-3.9h8.1v31.8ZM422.58,1098.97c0,2.6.79,4.73,2.37,6.39,1.58,1.66,3.61,2.49,6.09,2.49s4.51-.84,6.09-2.52c1.58-1.68,2.37-3.82,2.37-6.42s-.77-4.52-2.31-6.12c-1.54-1.6-3.55-2.4-6.03-2.4s-4.58.8-6.18,2.4-2.4,3.66-2.4,6.18ZM426.12,1126.45c0-3.24,1.49-5.74,4.47-7.5,2.98-1.76,7.23-2.64,12.75-2.64,5.52-.04,9.77.82,12.75,2.58,2.98,1.76,4.47,4.28,4.47,7.56s-1.49,5.74-4.47,7.5c-2.98,1.76-7.23,2.64-12.75,2.64s-9.77-.88-12.75-2.64c-2.98-1.76-4.47-4.26-4.47-7.5ZM430.21,1126.45c0,2,1.14,3.54,3.42,4.62,2.28,1.08,5.52,1.62,9.72,1.62s7.44-.54,9.72-1.62c2.28-1.08,3.42-2.62,3.42-4.62s-1.14-3.54-3.42-4.62c-2.28-1.08-5.52-1.62-9.72-1.62s-7.44.54-9.72,1.62-3.42,2.62-3.42,4.62ZM443.71,1098.91c0,.6-.03,1.19-.09,1.77-.06.58-.17,1.15-.33,1.71h11.88v-6.36h-11.76c.08.44.15.9.21,1.38.06.48.09.98.09,1.5Z"/><path class="cls-2" d="M498.3,1096.39h-30.54v-3.9h13.2v-8.82h4.2v8.82h13.14v3.9ZM483.06,1124.11c-2.32,0-4.42-.52-6.3-1.56-1.88-1.04-3.37-2.43-4.47-4.17-1.1-1.74-1.65-3.69-1.65-5.85s.55-4.17,1.65-5.91c1.1-1.74,2.59-3.13,4.47-4.17,1.88-1.04,3.98-1.56,6.3-1.56s4.35.52,6.21,1.56,3.33,2.43,4.41,4.17c1.08,1.74,1.62,3.71,1.62,5.91s-.54,4.11-1.62,5.85-2.55,3.13-4.41,4.17c-1.86,1.04-3.93,1.56-6.21,1.56ZM474.84,1112.65c0,1.4.36,2.68,1.08,3.84.72,1.16,1.71,2.07,2.97,2.73s2.65.99,4.17.99,2.88-.33,4.08-.99,2.16-1.56,2.88-2.7c.72-1.14,1.08-2.39,1.08-3.75,0-1.48-.36-2.82-1.08-4.02s-1.68-2.16-2.88-2.88c-1.2-.72-2.56-1.08-4.08-1.08s-2.91.35-4.17,1.05c-1.26.7-2.25,1.64-2.97,2.82-.72,1.18-1.08,2.51-1.08,3.99ZM503.04,1086.61h-3.9v-3.9h8.1v21.66h10.8v3.9h-10.8v27.72h-4.2v-49.38Z"/><path class="cls-2" d="M565.86,1113.73h-47.88v-3.9h47.88v3.9ZM560.94,1134.85h-36.9v-15.54h4.2v11.64h32.7v3.9ZM559.32,1102.69h-33.84v-18.36h4.2v14.46h29.64v3.9Z"/><path class="cls-2" d="M604.26,1109.71l-2.64-2.88,13.26-12.3v-9.66h4.2v9.9l13.02,12.06-2.64,2.88-12.6-11.7-12.6,11.7ZM610.68,1135.69v-13.14h29.4v-4.62h-29.46v-3.9h33.66v12.42h-29.4v5.34h31.38v3.9h-35.58ZM640.08,1086.31h-3.9v-3.9h8.1v28.5h-4.2v-24.6Z"/><path class="cls-2" d="M677.34,1135.87h-4.2v-17.58h-21.54v-3.9h47.28v3.9h-21.54v17.58ZM692.16,1107.49h-34.08v-20.94h34.08v20.94ZM662.28,1090.45v13.14h25.68v-13.14h-25.68Z"/><path class="cls-2" d="M740.64,1111.33h-35.46v-24.78h24.72v3.9h-20.52v6.24h19.02v3.9h-19.02v6.84h31.26v-20.16h-3.9v-3.9h8.1v30.18h-4.2v-2.22ZM744.9,1136.17h-33.9v-20.34h4.2v5.64h25.5v-5.58h4.2v20.28ZM715.2,1125.37v6.9h25.5v-6.9h-25.5Z"/><path class="cls-2" d="M807.3,1122.19h-21.06v-33.42h4.2v14.82h12.66v-14.82h4.2v33.42ZM790.44,1107.49v10.8h12.66v-10.8h-12.66ZM830.4,1135.87h-4.2v-26.34h-7.5v26.34h-4.2v-49.56h-3.9v-3.9h8.1v23.22h7.5v-23.22h4.2v53.46Z"/><path class="cls-2" d="M856.68,1117.99h-22.26v-3.9h48.66v3.9h-22.2v18.54h-4.2v-18.54ZM858.78,1108.63c-2.8,0-5.34-.55-7.62-1.65-2.28-1.1-4.09-2.57-5.43-4.41s-2.01-3.9-2.01-6.18.67-4.33,2.01-6.15,3.15-3.27,5.43-4.35c2.28-1.08,4.82-1.62,7.62-1.62s5.39.54,7.65,1.62,4.06,2.53,5.4,4.35c1.34,1.82,2.01,3.87,2.01,6.15s-.67,4.34-2.01,6.18c-1.34,1.84-3.14,3.31-5.4,4.41-2.26,1.1-4.81,1.65-7.65,1.65ZM847.92,1096.39c0,1.56.48,2.97,1.44,4.23.96,1.26,2.27,2.26,3.93,3,1.66.74,3.49,1.11,5.49,1.11s3.88-.37,5.52-1.11c1.64-.74,2.94-1.74,3.9-3,.96-1.26,1.44-2.67,1.44-4.23s-.48-2.96-1.44-4.2c-.96-1.24-2.26-2.22-3.9-2.94-1.64-.72-3.48-1.08-5.52-1.08s-3.83.36-5.49,1.08c-1.66.72-2.97,1.7-3.93,2.94-.96,1.24-1.44,2.64-1.44,4.2Z"/><path class="cls-2" d="M886.68,1121.77c4.04-1.84,7.65-4.23,10.83-7.17,3.18-2.94,5.75-6.25,7.71-9.93,1.96-3.68,3.1-7.54,3.42-11.58h-19.44v-3.9h23.76c.12,4.08-.4,7.95-1.56,11.61-1.16,3.66-2.85,7.05-5.07,10.17s-4.85,5.91-7.89,8.37c-3.04,2.46-6.36,4.53-9.96,6.21l-1.8-3.78ZM927.48,1136.53h-4.2v-48.36h-3.9v-3.9h8.1v52.26Z"/><rect class="cls-4" x="83.48" y="1249.8" width="924.95" height="84.08"/><rect class="cls-1" x="66.48" y="1249.8" width="924.95" height="84.08"/><path class="cls-6" d="M125.41,1293.55h-21.3v-3.9h47.46v3.9h-21.96v5.88c4.88.2,8.64,1.13,11.28,2.79,2.64,1.66,3.96,3.97,3.96,6.93,0,3.16-1.5,5.61-4.5,7.35s-7.28,2.61-12.84,2.61-9.84-.87-12.84-2.61-4.5-4.19-4.5-7.35c0-2.96,1.32-5.27,3.96-6.93,2.64-1.66,6.4-2.59,11.28-2.79v-5.88ZM109.69,1286.59l-1.86-3.42,17.94-8.22v-4.02h-15.9v-3.9h35.94v3.9h-15.84v4.02l17.58,8.04-1.86,3.42-17.82-8.16-18.18,8.34ZM114.37,1309.15c0,1.96,1.14,3.46,3.42,4.5s5.52,1.56,9.72,1.56,7.44-.52,9.72-1.56c2.28-1.04,3.42-2.54,3.42-4.5s-1.14-3.33-3.42-4.35c-2.28-1.02-5.52-1.53-9.72-1.53s-7.44.51-9.72,1.53c-2.28,1.02-3.42,2.47-3.42,4.35Z"/><path class="cls-6" d="M155.35,1293.13c1.68-.36,3.37-.91,5.07-1.65,1.7-.74,3.31-1.6,4.83-2.58,1.52-.98,2.82-1.97,3.9-2.97,2-1.88,3.56-3.96,4.68-6.24,1.12-2.28,1.82-4.52,2.1-6.72h-18.9v-4.08h23.22v1.08c0,2.32-.36,4.63-1.08,6.93-.72,2.3-1.71,4.46-2.97,6.48-1.26,2.02-2.69,3.79-4.29,5.31-1.88,1.76-4.19,3.39-6.93,4.89-2.74,1.5-5.49,2.55-8.25,3.15l-1.38-3.6ZM197.77,1316.71h-35.04v-17.16h4.2v13.26h30.84v3.9ZM190.75,1268.71h-3.9v-3.9h8.1v16.44h8.58v3.9h-8.58v18.96h-4.2v-35.4Z"/><path class="cls-6" d="M238.93,1317.91h-4.2v-28.92h-7.14c-.4,9.36-4.22,14.04-11.46,14.04-7.76,0-11.64-5.3-11.64-15.9s3.88-16.08,11.64-16.08c7.16.24,10.98,4.92,11.46,14.04h7.14v-16.74h-3.9v-3.9h8.1v53.46ZM208.69,1287.13c0,8,2.48,12,7.44,12s7.32-4,7.32-12-2.44-12.18-7.32-12.18-7.44,4.06-7.44,12.18ZM249.43,1317.91h-4.2v-53.46h4.2v53.46Z"/><path class="cls-6" d="M289.15,1292.59c3.32-2.32,5.9-5.16,7.74-8.52,1.84-3.36,3.06-6.84,3.66-10.44l-10.08.06v-3.9h27.78c.04,3.8-.27,7.39-.93,10.77-.66,3.38-1.81,6.53-3.45,9.45-1.64,2.92-3.92,5.64-6.84,8.16l-3.3-2.64c2.44-2.04,4.37-4.2,5.79-6.48s2.45-4.71,3.09-7.29,1.04-5.29,1.2-8.13h-8.94c-.36,2.72-1.07,5.43-2.13,8.13s-2.48,5.21-4.26,7.53c-1.78,2.32-3.93,4.32-6.45,6l-2.88-2.7ZM332.95,1317.31h-36.24v-15.78h4.2v11.88h32.04v3.9ZM326.05,1270.15h-3.9v-3.9h8.1v38.4h-4.2v-34.5Z"/><path class="cls-6" d="M409.27,1293.73h-35.46v-25.14h24.72v3.9h-20.52v6.6h19.02v3.9h-19.02v6.84h31.26v-20.52h-3.9v-3.9h8.1v32.16h-4.2v-3.84ZM413.53,1318.21h-33.9v-17.88h33.9v17.88ZM383.83,1303.87v10.44h25.5v-10.44h-25.5Z"/><path class="cls-6" d="M423.12,1296.25l-2.7-2.82,13.92-12.12v-7.92h-12.84v-3.9h28.74v3.9h-11.7v8.1l13.5,10.92-2.7,2.82-13.02-10.44-13.2,11.46ZM427.21,1309.09c0-3.2,1.54-5.65,4.62-7.35,3.08-1.7,7.46-2.55,13.14-2.55,5.72-.04,10.12.8,13.2,2.52,3.08,1.72,4.62,4.18,4.62,7.38s-1.54,5.6-4.62,7.32c-3.08,1.72-7.48,2.58-13.2,2.58s-10.06-.86-13.14-2.58c-3.08-1.72-4.62-4.16-4.62-7.32ZM431.41,1309.09c0,1.92,1.17,3.4,3.51,4.44,2.34,1.04,5.69,1.56,10.05,1.56s7.77-.52,10.11-1.56c2.34-1.04,3.51-2.52,3.51-4.44s-1.17-3.4-3.51-4.44c-2.34-1.04-5.71-1.56-10.11-1.56s-7.71.52-10.05,1.56c-2.34,1.04-3.51,2.52-3.51,4.44ZM461.71,1297.09h-4.2v-27.54h-3.9v-3.9h8.1v13.32h8.28v3.9h-8.28v14.22Z"/><path class="cls-6" d="M519.36,1293.43h-48.66v-3.9h48.66v3.9ZM513.18,1317.43h-35.34v-11.64h30.6v-3.6h-30.6v-3.9h34.8v11.1h-30.6v4.14h31.14v3.9ZM511.56,1285.33h-33.6v-17.76h33.6v3.72h-29.58v10.32h29.58v3.72Z"/><rect class="cls-1" x="83.48" y="1355.8" width="924.95" height="84.08"/><rect class="cls-3" x="66.48" y="1355.8" width="924.95" height="84.08"/><path class="cls-2" d="M108.43,1400.99l-2.76-2.76,11.88-13.62v-11.16h4.2v10.92l13.02,12.6-2.76,2.76-12.18-11.7-11.4,12.96ZM114.37,1414.55c0-3.32,1.45-5.87,4.35-7.65,2.9-1.78,7.01-2.67,12.33-2.67s9.48.89,12.36,2.67c2.88,1.78,4.32,4.33,4.32,7.65s-1.44,5.82-4.32,7.62-7,2.7-12.36,2.7-9.43-.9-12.33-2.7-4.35-4.34-4.35-7.62ZM118.45,1414.55c0,2.08,1.09,3.69,3.27,4.83,2.18,1.14,5.29,1.71,9.33,1.71s7.15-.57,9.33-1.71c2.18-1.14,3.27-2.75,3.27-4.83s-1.09-3.74-3.27-4.86c-2.18-1.12-5.29-1.68-9.33-1.68s-7.15.56-9.33,1.68c-2.18,1.12-3.27,2.74-3.27,4.86ZM147.01,1402.43h-4.2v-16.8h-11.64v-3.9h11.64v-7.68h-3.9v-3.6h8.1v31.98Z"/><path class="cls-2" d="M195.85,1424.57h-3.9v-13.98h-31.26v-3.6h15.36v-7.8h-21.54v-3.9h47.46v3.9h-21.72v7.8h15.6v17.58ZM160.09,1391.99l-1.86-3.42,17.94-10.38v-7.2h4.2v7.2l17.58,10.2-1.86,3.42-17.82-10.38-18.18,10.56Z"/><path class="cls-2" d="M235.09,1381.67h-29.76v-3.9h12.48v-6.12h4.2v6.12h13.08v3.9ZM207.97,1394.69c0-2,.53-3.77,1.59-5.31,1.06-1.54,2.53-2.75,4.41-3.63,1.88-.88,4.02-1.32,6.42-1.32s4.52.44,6.36,1.32c1.84.88,3.28,2.09,4.32,3.63,1.04,1.54,1.56,3.31,1.56,5.31s-.52,3.78-1.56,5.34c-1.04,1.56-2.48,2.78-4.32,3.66-1.84.88-3.96,1.32-6.36,1.32s-4.54-.44-6.42-1.32c-1.88-.88-3.35-2.1-4.41-3.66-1.06-1.56-1.59-3.34-1.59-5.34ZM212.17,1394.75c0,1.84.77,3.36,2.31,4.56,1.54,1.2,3.51,1.8,5.91,1.8s4.29-.58,5.79-1.74,2.25-2.66,2.25-4.5-.75-3.49-2.25-4.71c-1.5-1.22-3.43-1.83-5.79-1.83s-4.37.6-5.91,1.8-2.31,2.74-2.31,4.62ZM213.13,1423.79v-15h4.2v11.1h32.4v3.9h-36.6ZM241.45,1374.65h-3.9v-3.9h8.1v18.78h8.64v3.9h-8.64v18.66h-4.2v-37.44Z"/><path class="cls-2" d="M294.79,1380.77h-5.82v-3.9h32.16v3.9h-8.46v26.28h14.88v-32.4h-3.9v-3.9h8.1v53.28h-4.2v-13.08h-39.6v-3.9h6.84v-26.28ZM298.99,1380.77v26.28h9.48v-26.28h-9.48Z"/><path class="cls-2" d="M386.29,1418.33h-48.9v-3.9h48.9v3.9ZM378.79,1400.93h-34.08v-25.14h34.08v3.9h-29.88v17.34h29.88v3.9Z"/><path class="cls-2" d="M411.01,1399.73h-20.46v-24.6h4.2v8.4h12.06v-8.4h4.2v24.6ZM394.75,1387.13v8.7h12.06v-8.7h-12.06ZM427.99,1410.83h-30.9v-3.9h35.1v17.64h-4.2v-13.74ZM417.73,1375.31h-4.08v-3.9h8.1v14.22h6.42v-14.22h4.2v32.4h-4.2v-14.46h-6.42v14.46h-4.02v-28.5Z"/><path class="cls-2" d="M501.72,1384.43h-30.54v-3.9h13.2v-8.82h4.2v8.82h13.14v3.9ZM486.48,1412.15c-2.32,0-4.42-.52-6.3-1.56-1.88-1.04-3.37-2.43-4.47-4.17-1.1-1.74-1.65-3.69-1.65-5.85s.55-4.17,1.65-5.91c1.1-1.74,2.59-3.13,4.47-4.17,1.88-1.04,3.98-1.56,6.3-1.56s4.35.52,6.21,1.56,3.33,2.43,4.41,4.17c1.08,1.74,1.62,3.71,1.62,5.91s-.54,4.11-1.62,5.85-2.55,3.13-4.41,4.17c-1.86,1.04-3.93,1.56-6.21,1.56ZM478.26,1400.69c0,1.4.36,2.68,1.08,3.84.72,1.16,1.71,2.07,2.97,2.73s2.65.99,4.17.99,2.88-.33,4.08-.99,2.16-1.56,2.88-2.7c.72-1.14,1.08-2.39,1.08-3.75,0-1.48-.36-2.82-1.08-4.02s-1.68-2.16-2.88-2.88c-1.2-.72-2.56-1.08-4.08-1.08s-2.91.35-4.17,1.05c-1.26.7-2.25,1.64-2.97,2.82-.72,1.18-1.08,2.51-1.08,3.99ZM506.46,1374.65h-3.9v-3.9h8.1v21.66h10.8v3.9h-10.8v27.72h-4.2v-49.38Z"/><path class="cls-2" d="M522.91,1409.81c4.04-1.84,7.65-4.23,10.83-7.17,3.18-2.94,5.75-6.25,7.71-9.93,1.96-3.68,3.1-7.54,3.42-11.58h-19.44v-3.9h23.76c.12,4.08-.4,7.95-1.56,11.61-1.16,3.66-2.85,7.05-5.07,10.17s-4.85,5.91-7.89,8.37c-3.04,2.46-6.36,4.53-9.96,6.21l-1.8-3.78ZM563.71,1424.57h-4.2v-48.36h-3.9v-3.9h8.1v52.26Z"/><rect class="cls-1" x="83.48" y="1457.79" width="924.95" height="84.08"/><rect class="cls-3" x="66.48" y="1457.79" width="924.95" height="84.08"/><path class="cls-2" d="M107.23,1514.93l-3-2.64,13.86-15.78v-13.92h-12.12v-3.9h28.62v3.9h-12.3v13.92l13.86,15.78-3,2.64-12.96-14.7-12.96,14.7ZM147.19,1526.03h-4.2v-49.38h-3.9v-3.9h8.1v53.28Z"/><path class="cls-2" d="M157.93,1513.73l-3.06-2.4,13.68-18.42v-15.3h4.2v15l14.34,18.66-3,2.46-13.32-17.28-12.84,17.28ZM197.95,1526.03h-4.2v-49.38h-3.9v-3.9h8.1v53.28Z"/><path class="cls-2" d="M235.33,1486.43h-30.54v-3.9h13.2v-8.82h4.2v8.82h13.14v3.9ZM220.09,1514.15c-2.32,0-4.42-.52-6.3-1.56-1.88-1.04-3.37-2.43-4.47-4.17-1.1-1.74-1.65-3.69-1.65-5.85s.55-4.17,1.65-5.91c1.1-1.74,2.59-3.13,4.47-4.17,1.88-1.04,3.98-1.56,6.3-1.56s4.35.52,6.21,1.56,3.33,2.43,4.41,4.17c1.08,1.74,1.62,3.71,1.62,5.91s-.54,4.11-1.62,5.85-2.55,3.13-4.41,4.17c-1.86,1.04-3.93,1.56-6.21,1.56ZM211.87,1502.69c0,1.4.36,2.68,1.08,3.84.72,1.16,1.71,2.07,2.97,2.73s2.65.99,4.17.99,2.88-.33,4.08-.99,2.16-1.56,2.88-2.7c.72-1.14,1.08-2.39,1.08-3.75,0-1.48-.36-2.82-1.08-4.02s-1.68-2.16-2.88-2.88c-1.2-.72-2.56-1.08-4.08-1.08s-2.91.35-4.17,1.05c-1.26.7-2.25,1.64-2.97,2.82-.72,1.18-1.08,2.51-1.08,3.99ZM240.07,1476.65h-3.9v-3.9h8.1v21.66h10.8v3.9h-10.8v27.72h-4.2v-49.38Z"/><path class="cls-2" d="M302.89,1503.77h-47.88v-3.9h47.88v3.9ZM297.97,1524.89h-36.9v-15.54h4.2v11.64h32.7v3.9ZM296.35,1492.73h-33.84v-18.36h4.2v14.46h29.64v3.9Z"/><path class="cls-2" d="M363.79,1500.23h-22.44v-24.36h4.2v8.1h14.04v-8.1h4.2v9.36h12.3v-7.02h-3.9v-3.9h8.1v27.78h-4.2v-12.96h-12.3v11.1ZM345.55,1487.87v8.46h14.04v-8.46h-14.04ZM380.23,1525.37h-32.52v-20.82h4.2v7.14h24.12v-6.96h4.2v20.64ZM351.91,1515.59v5.88h24.12v-5.88h-24.12Z"/><rect class="cls-1" x="83.48" y="1559.79" width="924.95" height="84.08"/><rect class="cls-3" x="66.48" y="1559.79" width="924.95" height="84.08"/><path class="cls-2" d="M105.49,1589.09c0-2.32.59-4.4,1.77-6.24,1.18-1.84,2.78-3.31,4.8-4.41,2.02-1.1,4.27-1.65,6.75-1.65s4.71.55,6.69,1.65c1.98,1.1,3.55,2.57,4.71,4.41,1.16,1.84,1.74,3.92,1.74,6.24s-.58,4.34-1.74,6.18c-1.16,1.84-2.73,3.3-4.71,4.38-1.98,1.08-4.21,1.62-6.69,1.62s-4.73-.54-6.75-1.62c-2.02-1.08-3.62-2.54-4.8-4.38-1.18-1.84-1.77-3.9-1.77-6.18ZM109.69,1589.15c0,1.52.4,2.91,1.2,4.17.8,1.26,1.88,2.25,3.24,2.97,1.36.72,2.88,1.08,4.56,1.08s3.26-.37,4.62-1.11c1.36-.74,2.44-1.74,3.24-3,.8-1.26,1.2-2.65,1.2-4.17s-.4-2.98-1.2-4.26c-.8-1.28-1.87-2.29-3.21-3.03-1.34-.74-2.85-1.11-4.53-1.11s-3.21.38-4.59,1.14c-1.38.76-2.48,1.77-3.3,3.03-.82,1.26-1.23,2.69-1.23,4.29ZM143.35,1609.19h-29.88v-3.9h34.08v13.68h-29.88v5.76h31.68v3.9h-35.88v-13.56h29.88v-5.88ZM143.11,1578.71h-3.9v-3.9h8.1v27.84h-4.2v-23.94Z"/><path class="cls-2" d="M192.97,1616.15h-38.34v-3.9h38.28l-.06-33.54h-3.96v-3.9h8.28v53.76h-4.2v-12.42ZM158.65,1592.03c0-2.2.59-4.2,1.77-6,1.18-1.8,2.76-3.25,4.74-4.35,1.98-1.1,4.13-1.65,6.45-1.65,2.32.08,4.45.69,6.39,1.83,1.94,1.14,3.5,2.6,4.68,4.38,1.18,1.78,1.77,3.71,1.77,5.79s-.59,4.08-1.77,5.88c-1.18,1.8-2.74,3.24-4.68,4.32-1.94,1.08-4.07,1.62-6.39,1.62s-4.47-.54-6.45-1.62c-1.98-1.08-3.56-2.52-4.74-4.32-1.18-1.8-1.77-3.76-1.77-5.88ZM162.85,1592.03c0,1.4.4,2.7,1.2,3.9.8,1.2,1.87,2.16,3.21,2.88,1.34.72,2.79,1.08,4.35,1.08s3-.36,4.32-1.08c1.32-.72,2.37-1.68,3.15-2.88.78-1.2,1.17-2.5,1.17-3.9,0-1.48-.39-2.83-1.17-4.05-.78-1.22-1.83-2.2-3.15-2.94s-2.76-1.11-4.32-1.11-3.01.37-4.35,1.11c-1.34.74-2.41,1.72-3.21,2.94-.8,1.22-1.2,2.57-1.2,4.05Z"/><path class="cls-2" d="M262.93,1603.37h-23.4v-24.96h4.2v8.22h15.24v-8.22h3.96v24.96ZM243.73,1590.53v8.94h15.24v-8.94h-15.24ZM244.39,1618.55c0-3.04,1.49-5.37,4.47-6.99,2.98-1.62,7.25-2.43,12.81-2.43,5.56-.04,9.83.75,12.81,2.37,2.98,1.62,4.47,3.97,4.47,7.05s-1.49,5.67-4.47,7.41c-2.98,1.74-7.25,2.61-12.81,2.61s-9.83-.87-12.81-2.61c-2.98-1.74-4.47-4.21-4.47-7.41ZM248.59,1618.55c0,1.96,1.13,3.47,3.39,4.53,2.26,1.06,5.49,1.59,9.69,1.59s7.43-.53,9.69-1.59c2.26-1.06,3.39-2.57,3.39-4.53,0-1.76-1.13-3.12-3.39-4.08-2.26-.96-5.49-1.44-9.69-1.44s-7.43.48-9.69,1.44c-2.26.96-3.39,2.32-3.39,4.08ZM273.91,1578.35h-3.9v-3.9h8.1v13.62h8.46v3.9h-8.46v15.78h-4.2v-29.4Z"/><path class="cls-2" d="M313.39,1602.23h-22.44v-24.36h4.2v8.1h14.04v-8.1h4.2v9.36h12.3v-7.02h-3.9v-3.9h8.1v27.78h-4.2v-12.96h-12.3v11.1ZM295.15,1589.87v8.46h14.04v-8.46h-14.04ZM329.83,1627.37h-32.52v-20.82h4.2v7.14h24.12v-6.96h4.2v20.64ZM301.51,1617.59v5.88h24.12v-5.88h-24.12Z"/><path class="cls-2" d="M385.57,1609.07h-47.4v-3.9h21.42v-5.94h-14.58v-13.56h29.94v-4.62h-29.94v-3.9h34.14v12.42h-29.94v5.76h31.02v3.9h-16.44v5.94h21.78v3.9ZM380.71,1628.39h-36.54v-14.64h3.9v10.74h32.64v3.9Z"/><path class="cls-2" d="M443.53,1614.23h-21.06v-33.42h4.2v14.82h12.66v-14.82h4.2v33.42ZM426.67,1599.53v10.8h12.66v-10.8h-12.66ZM466.62,1627.91h-4.2v-26.34h-7.5v26.34h-4.2v-49.56h-3.9v-3.9h8.1v23.22h7.5v-23.22h4.2v53.46Z"/><path class="cls-2" d="M492.9,1610.03h-22.26v-3.9h48.66v3.9h-22.2v18.54h-4.2v-18.54ZM495,1600.67c-2.8,0-5.34-.55-7.62-1.65-2.28-1.1-4.09-2.57-5.43-4.41s-2.01-3.9-2.01-6.18.67-4.33,2.01-6.15,3.15-3.27,5.43-4.35c2.28-1.08,4.82-1.62,7.62-1.62s5.39.54,7.65,1.62,4.06,2.53,5.4,4.35c1.34,1.82,2.01,3.87,2.01,6.15s-.67,4.34-2.01,6.18c-1.34,1.84-3.14,3.31-5.4,4.41-2.26,1.1-4.81,1.65-7.65,1.65ZM484.14,1588.43c0,1.56.48,2.97,1.44,4.23.96,1.26,2.27,2.26,3.93,3,1.66.74,3.49,1.11,5.49,1.11s3.88-.37,5.52-1.11c1.64-.74,2.94-1.74,3.9-3,.96-1.26,1.44-2.67,1.44-4.23s-.48-2.96-1.44-4.2c-.96-1.24-2.26-2.22-3.9-2.94-1.64-.72-3.48-1.08-5.52-1.08s-3.83.36-5.49,1.08c-1.66.72-2.97,1.7-3.93,2.94-.96,1.24-1.44,2.64-1.44,4.2Z"/><path class="cls-2" d="M522.91,1613.81c4.04-1.84,7.65-4.23,10.83-7.17,3.18-2.94,5.75-6.25,7.71-9.93,1.96-3.68,3.1-7.54,3.42-11.58h-19.44v-3.9h23.76c.12,4.08-.4,7.95-1.56,11.61-1.16,3.66-2.85,7.05-5.07,10.17s-4.85,5.91-7.89,8.37c-3.04,2.46-6.36,4.53-9.96,6.21l-1.8-3.78ZM563.71,1628.57h-4.2v-48.36h-3.9v-3.9h8.1v52.26Z"/></svg>