<?xml version="1.0" encoding="UTF-8"?><svg id="_레이어_1" xmlns="http://www.w3.org/2000/svg" viewBox="0 0 1080 1920"><defs><style>.cls-1{stroke-width:2.13px;}.cls-1,.cls-2,.cls-3,.cls-4,.cls-5,.cls-6,.cls-7,.cls-8,.cls-9,.cls-10{fill:#fff;stroke:#000;stroke-miterlimit:10;}.cls-2{stroke-width:1.94px;}.cls-3{stroke-width:1.91px;}.cls-4{stroke-width:1.78px;}.cls-5{stroke-width:2.13px;}.cls-6{stroke-width:1.91px;}.cls-7{stroke-width:1.58px;}.cls-8{stroke-width:1.71px;}.cls-9{stroke-width:2.02px;}.cls-11{fill:#0000fe;}.cls-10{stroke-width:1.7px;}</style></defs><rect x="-420" y="420" width="1920" height="1080" transform="translate(1500 420) rotate(90)"/><rect class="cls-9" x="66.99" y="64.97" width="843.99" height="83.74"/><rect class="cls-8" x="66.99" y="148.7" width="604.41" height="83.74"/><rect class="cls-1" x="66.99" y="324.99" width="944.53" height="83.74"/><rect class="cls-8" x="66.99" y="408.73" width="604.41" height="83.74"/><rect class="cls-7" x="66.99" y="583.02" width="517.39" height="83.74"/><rect class="cls-4" x="66.99" y="666.76" width="655.69" height="83.74"/><rect class="cls-10" x="66.99" y="846.05" width="596.64" height="83.74"/><rect class="cls-5" x="66.99" y="929.78" width="944.53" height="83.74"/><rect class="cls-3" x="66.99" y="1103.07" width="753.85" height="83.74"/><rect class="cls-2" x="66.99" y="1186.81" width="780.51" height="83.74"/><rect class="cls-3" x="66.99" y="1365.1" width="753.85" height="83.74"/><rect class="cls-6" x="66.99" y="1448.83" width="753.85" height="83.74"/><path class="cls-11" d="M69,121.37h22.32v-11.7c-2.84-.28-5.41-1.05-7.71-2.31s-4.11-2.89-5.43-4.89c-1.32-2-1.98-4.2-1.98-6.6,0-2.6.76-4.96,2.28-7.08,1.52-2.12,3.58-3.8,6.18-5.04,2.6-1.24,5.5-1.86,8.7-1.86s6.1.62,8.7,1.86c2.6,1.24,4.66,2.92,6.18,5.04,1.52,2.12,2.28,4.48,2.28,7.08,0,2.4-.66,4.59-1.98,6.57-1.32,1.98-3.11,3.61-5.37,4.89-2.26,1.28-4.81,2.06-7.65,2.34v11.7h22.14v3.9h-48.66v-3.9ZM80.4,95.87c0,1.88.58,3.58,1.74,5.1,1.16,1.52,2.72,2.72,4.68,3.6,1.96.88,4.14,1.32,6.54,1.32s4.63-.44,6.57-1.32c1.94-.88,3.49-2.08,4.65-3.6,1.16-1.52,1.74-3.22,1.74-5.1s-.58-3.58-1.74-5.1-2.71-2.73-4.65-3.63c-1.94-.9-4.13-1.35-6.57-1.35s-4.58.45-6.54,1.35c-1.96.9-3.52,2.11-4.68,3.63s-1.74,3.22-1.74,5.1Z"/><path class="cls-11" d="M166.92,103.25h-46.08v-3.9h46.08v3.9ZM160.98,93.83h-34.2v-14.88h4.2v10.98h30v3.9ZM156.48,112.07h-29.4v-3.9h33.6v12.72h-29.4v6.06h31.74v3.9h-35.94v-13.86h29.4v-4.92Z"/><path class="cls-11" d="M208.98,119.39h-38.34v-3.9h38.28l-.06-33.54h-3.96v-3.9h8.28v53.76h-4.2v-12.42ZM174.66,95.27c0-2.2.59-4.2,1.77-6,1.18-1.8,2.76-3.25,4.74-4.35,1.98-1.1,4.13-1.65,6.45-1.65,2.32.08,4.45.69,6.39,1.83,1.94,1.14,3.5,2.6,4.68,4.38,1.18,1.78,1.77,3.71,1.77,5.79s-.59,4.08-1.77,5.88-2.74,3.24-4.68,4.32c-1.94,1.08-4.07,1.62-6.39,1.62s-4.47-.54-6.45-1.62-3.56-2.52-4.74-4.32-1.77-3.76-1.77-5.88ZM178.86,95.27c0,1.4.4,2.7,1.2,3.9s1.87,2.16,3.21,2.88c1.34.72,2.79,1.08,4.35,1.08s3-.36,4.32-1.08c1.32-.72,2.37-1.68,3.15-2.88.78-1.2,1.17-2.5,1.17-3.9,0-1.48-.39-2.83-1.17-4.05-.78-1.22-1.83-2.2-3.15-2.94s-2.76-1.11-4.32-1.11-3.01.37-4.35,1.11-2.41,1.72-3.21,2.94c-.8,1.22-1.2,2.57-1.2,4.05Z"/><path class="cls-11" d="M223.74,106.91l-2.76-2.82,13.86-12.96v-5.94h-11.1v-3.9h27.18v3.9h-11.88v6.06l14.1,11.64-2.76,2.82-13.5-11.1-13.14,12.3ZM230.58,130.85v-21.36h4.2v6.54h24.9v-6.48h4.2v21.3h-33.3ZM234.78,119.93v7.02h24.9v-7.02h-24.9ZM259.68,81.83h-4.2v-3.9h8.4v28.68h-4.2v-24.78Z"/><path class="cls-11" d="M272.94,101.63c0-3.48.54-6.49,1.62-9.03s2.63-4.5,4.65-5.88c2.02-1.38,4.41-2.07,7.17-2.07,2.72.08,5.08.83,7.08,2.25s3.54,3.38,4.62,5.88,1.62,5.45,1.62,8.85-.54,6.42-1.62,8.94c-1.08,2.52-2.62,4.46-4.62,5.82-2,1.36-4.36,2.04-7.08,2.04s-5.15-.68-7.17-2.04c-2.02-1.36-3.57-3.3-4.65-5.82-1.08-2.52-1.62-5.5-1.62-8.94ZM277.14,101.63c0,3.96.83,7.1,2.49,9.42,1.66,2.32,3.91,3.48,6.75,3.48s5.02-1.16,6.66-3.48c1.64-2.32,2.46-5.46,2.46-9.42s-.82-7.23-2.46-9.57c-1.64-2.34-3.86-3.51-6.66-3.51s-5.09,1.17-6.75,3.51c-1.66,2.34-2.49,5.53-2.49,9.57ZM313.98,131.27h-4.2v-49.38h-3.9v-3.9h8.1v53.28Z"/><path class="cls-11" d="M358.32,106.91h-33.78v-15.36h19.44v-6.42h-19.92v-3.9h24.12v14.22h-19.44v7.56h29.58v-21.36h-3.9v-3.9h8.1v13.56h8.22v3.9h-8.22v15h-4.2v-3.3ZM329.58,121.79c0-3.2,1.45-5.67,4.35-7.41,2.9-1.74,7.01-2.61,12.33-2.61,5.36-.04,9.48.81,12.36,2.55,2.88,1.74,4.32,4.23,4.32,7.47s-1.44,5.67-4.32,7.41c-2.88,1.74-7,2.61-12.36,2.61s-9.43-.87-12.33-2.61c-2.9-1.74-4.35-4.21-4.35-7.41ZM333.78,121.79c0,1.96,1.08,3.47,3.24,4.53,2.16,1.06,5.24,1.59,9.24,1.59s7.08-.53,9.24-1.59c2.16-1.06,3.24-2.57,3.24-4.53s-1.08-3.47-3.24-4.53c-2.16-1.06-5.24-1.59-9.24-1.59s-7.08.53-9.24,1.59c-2.16,1.06-3.24,2.57-3.24,4.53Z"/><path class="cls-11" d="M403.8,121.37h22.32v-11.7c-2.84-.28-5.41-1.05-7.71-2.31-2.3-1.26-4.11-2.89-5.43-4.89-1.32-2-1.98-4.2-1.98-6.6,0-2.6.76-4.96,2.28-7.08,1.52-2.12,3.58-3.8,6.18-5.04,2.6-1.24,5.5-1.86,8.7-1.86s6.1.62,8.7,1.86c2.6,1.24,4.66,2.92,6.18,5.04,1.52,2.12,2.28,4.48,2.28,7.08,0,2.4-.66,4.59-1.98,6.57-1.32,1.98-3.11,3.61-5.37,4.89-2.26,1.28-4.81,2.06-7.65,2.34v11.7h22.14v3.9h-48.66v-3.9ZM415.2,95.87c0,1.88.58,3.58,1.74,5.1,1.16,1.52,2.72,2.72,4.68,3.6,1.96.88,4.14,1.32,6.54,1.32s4.63-.44,6.57-1.32c1.94-.88,3.49-2.08,4.65-3.6,1.16-1.52,1.74-3.22,1.74-5.1s-.58-3.58-1.74-5.1c-1.16-1.52-2.71-2.73-4.65-3.63-1.94-.9-4.13-1.35-6.57-1.35s-4.58.45-6.54,1.35c-1.96.9-3.52,2.11-4.68,3.63s-1.74,3.22-1.74,5.1Z"/><path class="cls-11" d="M501.72,103.25h-46.08v-3.9h46.08v3.9ZM495.78,93.83h-34.2v-14.88h4.2v10.98h30v3.9ZM491.28,112.07h-29.4v-3.9h33.6v12.72h-29.4v6.06h31.74v3.9h-35.94v-13.86h29.4v-4.92Z"/><path class="cls-11" d="M543.78,119.39h-38.34v-3.9h38.28l-.06-33.54h-3.96v-3.9h8.28v53.76h-4.2v-12.42ZM509.46,95.27c0-2.2.59-4.2,1.77-6,1.18-1.8,2.76-3.25,4.74-4.35,1.98-1.1,4.13-1.65,6.45-1.65,2.32.08,4.45.69,6.39,1.83,1.94,1.14,3.5,2.6,4.68,4.38,1.18,1.78,1.77,3.71,1.77,5.79s-.59,4.08-1.77,5.88c-1.18,1.8-2.74,3.24-4.68,4.32-1.94,1.08-4.07,1.62-6.39,1.62s-4.47-.54-6.45-1.62c-1.98-1.08-3.56-2.52-4.74-4.32s-1.77-3.76-1.77-5.88ZM513.66,95.27c0,1.4.4,2.7,1.2,3.9.8,1.2,1.87,2.16,3.21,2.88,1.34.72,2.79,1.08,4.35,1.08s3-.36,4.32-1.08c1.32-.72,2.37-1.68,3.15-2.88.78-1.2,1.17-2.5,1.17-3.9,0-1.48-.39-2.83-1.17-4.05-.78-1.22-1.83-2.2-3.15-2.94-1.32-.74-2.76-1.11-4.32-1.11s-3.01.37-4.35,1.11c-1.34.74-2.41,1.72-3.21,2.94-.8,1.22-1.2,2.57-1.2,4.05Z"/><path class="cls-11" d="M558.54,106.91l-2.76-2.82,13.86-12.96v-5.94h-11.1v-3.9h27.18v3.9h-11.88v6.06l14.1,11.64-2.76,2.82-13.5-11.1-13.14,12.3ZM565.38,130.85v-21.36h4.2v6.54h24.9v-6.48h4.2v21.3h-33.3ZM569.58,119.93v7.02h24.9v-7.02h-24.9ZM594.48,81.83h-4.2v-3.9h8.4v28.68h-4.2v-24.78Z"/><path class="cls-11" d="M674.16,77.69h7.5v28.5h-4.2v-11.58h-15.06c-.68,1-1.41,1.98-2.19,2.94s-1.61,1.84-2.49,2.64c-1.88,1.76-4.09,3.29-6.63,4.59-2.54,1.3-5.19,2.25-7.95,2.85l-1.98-3.6c2.48-.56,4.89-1.42,7.23-2.58,2.34-1.16,4.33-2.5,5.97-4.02.48-.44.95-.9,1.41-1.38.46-.48.89-.96,1.29-1.44h-16.02v-3.9h18.72c1-1.84,1.66-3.72,1.98-5.64h-18.84v-4.08h23.52v1.08c0,1.48-.17,2.95-.51,4.41-.34,1.46-.81,2.87-1.41,4.23h12.96v-9.12h-3.3v-3.9ZM683.52,131.51h-35.88v-13.08h29.58v-5.7h-29.58v-3.72h33.78v13.32h-29.58v5.28h31.68v3.9Z"/><path class="cls-11" d="M701.64,91.19h-11.34v-3.6h11.34v-8.22h4.2v8.22h12.48v3.6h-12.48v10.08l14.34,17.46-3,2.46-13.32-16.2-12.84,16.2-3.06-2.4,13.68-17.28v-10.32ZM727.38,103.13h-11.64v-3.9h11.64v-17.34h-3.9v-3.6h8.1v53.46h-4.2v-28.62Z"/><path class="cls-11" d="M779.4,119.87h21.42v4.5h-29.04v-3.24c3.44-3.6,6.47-6.68,9.09-9.24,2.62-2.56,4.84-4.81,6.66-6.75,1.82-1.94,3.27-3.71,4.35-5.31,1.08-1.6,1.76-3.24,2.04-4.92.36-1.88.23-3.56-.39-5.04-.62-1.48-1.59-2.64-2.91-3.48-1.32-.84-2.9-1.22-4.74-1.14-2.48.04-4.45.77-5.91,2.19-1.46,1.42-2.19,3.31-2.19,5.67h-4.5c0-2.44.53-4.58,1.59-6.42,1.06-1.84,2.54-3.29,4.44-4.35,1.9-1.06,4.09-1.59,6.57-1.59,2.88,0,5.35.67,7.41,2.01,2.06,1.34,3.57,3.13,4.53,5.37.96,2.24,1.18,4.76.66,7.56-.32,1.68-1.02,3.43-2.1,5.25s-2.39,3.65-3.93,5.49c-1.54,1.84-3.14,3.61-4.8,5.31-1.66,1.7-3.22,3.25-4.68,4.65-1.46,1.4-2.65,2.56-3.57,3.48Z"/><path class="cls-11" d="M803.88,124.37v-6.66h6.66v6.66h-6.66Z"/><path class="cls-11" d="M825,102.89c0-7.16,1.31-12.65,3.93-16.47,2.62-3.82,6.35-5.75,11.19-5.79,4.76-.04,8.41,1.86,10.95,5.7,2.54,3.84,3.81,9.36,3.81,16.56s-1.27,12.72-3.81,16.56c-2.54,3.84-6.19,5.74-10.95,5.7-4.84-.04-8.57-1.98-11.19-5.82s-3.93-9.32-3.93-16.44ZM829.5,102.89c0,5.8.92,10.26,2.76,13.38,1.84,3.12,4.46,4.68,7.86,4.68s5.86-1.56,7.62-4.68c1.76-3.12,2.64-7.58,2.64-13.38s-.88-10.31-2.64-13.41c-1.76-3.1-4.3-4.65-7.62-4.65s-6.02,1.55-7.86,4.65-2.76,7.57-2.76,13.41ZM837.3,106.25v-5.34h5.28v5.34h-5.28Z"/><path class="cls-11" d="M95.46,193.63h-23.4v-24.18h23.4v24.18ZM76.26,173.36v16.38h15v-16.38h-15ZM114.18,217.21h-35.04v-17.76h4.2v13.86h30.84v3.9ZM105.96,168.62h-3.9v-3.9h8.1v16.44h8.58v3.9h-8.58v18.96h-4.2v-35.4Z"/><path class="cls-11" d="M168.18,193.33h-48.66v-3.9h48.66v3.9ZM162,217.33h-35.34v-11.64h30.6v-3.6h-30.6v-3.9h34.8v11.1h-30.6v4.14h31.14v3.9ZM160.38,185.24h-33.6v-17.76h33.6v3.72h-29.58v10.32h29.58v3.72Z"/><path class="cls-11" d="M174.36,218.71l-2.88-2.52,11.16-10.14v-7.92h4.08v7.98l8.4,7.14,8.52-7.32v-7.8h4.2v8.16l11.04,10.02-2.88,2.52-10.5-9.54-10.38,8.94h-.06l-10.38-8.94-10.32,9.42ZM185.4,193.52c-2.52,0-4.74-.53-6.66-1.59-1.92-1.06-3.42-2.54-4.5-4.44-1.08-1.9-1.62-4.07-1.62-6.51s.54-4.51,1.62-6.33,2.58-3.24,4.5-4.26c1.92-1.02,4.14-1.53,6.66-1.53,3.2,0,5.89.84,8.07,2.52,2.18,1.68,3.57,3.92,4.17,6.72h11.16v-9h-3.9v-3.9h8.1v30.54h-4.2v-13.74h-10.92c-.12,2.28-.73,4.28-1.83,6-1.1,1.72-2.56,3.07-4.38,4.05-1.82.98-3.91,1.47-6.27,1.47ZM176.82,181.04c0,2.52.79,4.58,2.37,6.18,1.58,1.6,3.61,2.4,6.09,2.4s4.51-.8,6.09-2.4c1.58-1.6,2.37-3.68,2.37-6.24,0-2.4-.77-4.37-2.31-5.91-1.54-1.54-3.55-2.31-6.03-2.31s-4.58.77-6.18,2.31c-1.6,1.54-2.4,3.53-2.4,5.97Z"/><path class="cls-11" d="M268.86,194.9h-48.6v-3.9h48.6v3.9ZM262.32,217.82h-35.28v-17.16h35.28v17.16ZM227.52,176.54c0-1.96.72-3.69,2.16-5.19,1.44-1.5,3.45-2.68,6.03-3.54,2.58-.86,5.53-1.29,8.85-1.29s6.32.43,8.88,1.29c2.56.86,4.56,2.04,6,3.54,1.44,1.5,2.16,3.23,2.16,5.19s-.72,3.7-2.16,5.22c-1.44,1.52-3.44,2.71-6,3.57-2.56.86-5.52,1.29-8.88,1.29s-6.27-.43-8.85-1.29c-2.58-.86-4.59-2.05-6.03-3.57-1.44-1.52-2.16-3.26-2.16-5.22ZM231.24,204.55v9.36h26.88v-9.36h-26.88ZM231.72,176.54c0,1.2.55,2.27,1.65,3.21,1.1.94,2.61,1.68,4.53,2.22,1.92.54,4.14.81,6.66.81s4.75-.27,6.69-.81,3.45-1.28,4.53-2.22c1.08-.94,1.62-2.01,1.62-3.21s-.54-2.25-1.62-3.15c-1.08-.9-2.59-1.61-4.53-2.13-1.94-.52-4.17-.78-6.69-.78s-4.74.26-6.66.78c-1.92.52-3.43,1.23-4.53,2.13-1.1.9-1.65,1.95-1.65,3.15Z"/><path class="cls-11" d="M271.08,211.04v-6.66h6.66v6.66h-6.66Z"/><path class="cls-11" d="M356.4,204.67h-28.44l.12-32.52h4.2l-.12,28.62h24.24v3.9ZM362.46,186.5h-16.5v-3.9h16.5v-13.74h-3.9v-3.6h8.1v52.68h-4.2v-31.44Z"/><path class="cls-11" d="M401.04,217.82h-4.2v-17.58h-21.54v-3.9h47.28v3.9h-21.54v17.58ZM415.86,189.44h-34.08v-20.94h34.08v20.94ZM385.98,172.4v13.14h25.68v-13.14h-25.68Z"/><path class="cls-11" d="M457.56,187.04c0-10.72,3.88-16.08,11.64-16.08,7.68.24,11.52,5.6,11.52,16.08s-3.84,15.9-11.52,15.9-11.64-5.3-11.64-15.9ZM461.76,187.04c0,8,2.48,12,7.44,12s7.32-4,7.32-12-2.44-12.18-7.32-12.18-7.44,4.06-7.44,12.18ZM489.6,217.82h-4.2v-49.56h-3.9v-3.9h8.1v21h8.7v-21h4.2v53.46h-4.2v-28.56h-8.7v28.56Z"/><path class="cls-11" d="M511.56,195.86l-2.64-2.88,13.14-12.18v-7.86h-12.6v-3.9h28.74v3.9h-11.94v7.86l13.14,12.18-2.64,2.88-12.6-11.7-12.6,11.7ZM516.66,209c0-3.04,1.6-5.45,4.8-7.23,3.2-1.78,7.52-2.67,12.96-2.67,3.64-.04,6.79.35,9.45,1.17,2.66.82,4.72,1.97,6.18,3.45,1.46,1.48,2.19,3.24,2.19,5.28s-.73,3.75-2.19,5.25c-1.46,1.5-3.52,2.65-6.18,3.45-2.66.8-5.81,1.2-9.45,1.2-5.44,0-9.76-.89-12.96-2.67-3.2-1.78-4.8-4.19-4.8-7.23ZM520.86,209c0,1.84,1.22,3.3,3.66,4.38,2.44,1.08,5.74,1.62,9.9,1.62s7.47-.54,9.93-1.62,3.69-2.54,3.69-4.38-1.23-3.3-3.69-4.38-5.77-1.62-9.93-1.62-7.46.54-9.9,1.62c-2.44,1.08-3.66,2.54-3.66,4.38ZM547.26,183.2h-10.8v-3.9h10.8v-10.08h-3.9v-3.9h8.1v31.98h-4.2v-14.1Z"/><path class="cls-11" d="M589.2,174.62h-30.36v-3.9h13.08v-5.82h4.2v5.82h13.08v3.9ZM561.54,187.16c0-1.92.54-3.6,1.62-5.04,1.08-1.44,2.58-2.57,4.5-3.39,1.92-.82,4.12-1.23,6.6-1.23s4.66.41,6.54,1.23c1.88.82,3.35,1.95,4.41,3.39,1.06,1.44,1.59,3.12,1.59,5.04s-.53,3.54-1.59,4.98c-1.06,1.44-2.53,2.57-4.41,3.39-1.88.82-4.06,1.23-6.54,1.23s-4.68-.41-6.6-1.23c-1.92-.82-3.42-1.95-4.5-3.39-1.08-1.44-1.62-3.1-1.62-4.98ZM565.74,187.21c0,1.64.8,2.99,2.4,4.05,1.6,1.06,3.64,1.59,6.12,1.59s4.49-.52,6.03-1.56c1.54-1.04,2.31-2.36,2.31-3.96,0-1.76-.77-3.19-2.31-4.29-1.54-1.1-3.55-1.65-6.03-1.65s-4.52.54-6.12,1.62c-1.6,1.08-2.4,2.48-2.4,4.2ZM599.22,217.58h-32.58v-17.04h32.58v17.04ZM570.84,204.44v9.24h24.18v-9.24h-24.18ZM595.08,169.46h-3.9v-3.9h8.1v12.6h8.4v3.9h-8.4v15.48h-4.2v-28.08Z"/><path class="cls-11" d="M608.94,211.04v-6.66h6.66v6.66h-6.66Z"/><path class="cls-11" d="M103.74,391.15h-4.2v-28.92h-7.14c-.4,9.36-4.22,14.04-11.46,14.04-7.76,0-11.64-5.3-11.64-15.9s3.88-16.08,11.64-16.08c7.16.24,10.98,4.92,11.46,14.04h7.14v-16.74h-3.9v-3.9h8.1v53.46ZM73.5,360.37c0,8,2.48,12,7.44,12s7.32-4,7.32-12-2.44-12.18-7.32-12.18-7.44,4.06-7.44,12.18ZM114.24,391.15h-4.2v-53.46h4.2v53.46Z"/><path class="cls-11" d="M121.74,361.63c0-3.48.54-6.49,1.62-9.03s2.63-4.5,4.65-5.88c2.02-1.38,4.41-2.07,7.17-2.07,2.72.08,5.08.83,7.08,2.25s3.54,3.38,4.62,5.88,1.62,5.45,1.62,8.85-.54,6.42-1.62,8.94c-1.08,2.52-2.62,4.46-4.62,5.82-2,1.36-4.36,2.04-7.08,2.04s-5.15-.68-7.17-2.04c-2.02-1.36-3.57-3.3-4.65-5.82-1.08-2.52-1.62-5.5-1.62-8.94ZM125.94,361.63c0,3.96.83,7.1,2.49,9.42,1.66,2.32,3.91,3.48,6.75,3.48s5.02-1.16,6.66-3.48c1.64-2.32,2.46-5.46,2.46-9.42s-.82-7.23-2.46-9.57c-1.64-2.34-3.86-3.51-6.66-3.51s-5.09,1.17-6.75,3.51c-1.66,2.34-2.49,5.53-2.49,9.57ZM162.78,391.27h-4.2v-49.38h-3.9v-3.9h8.1v53.28Z"/><path class="cls-11" d="M218.16,365.53h-48.06v-3.9h48.06v3.9ZM213.78,391.93l-37.74-.12v-12.66h31.86v-4.32h-31.68v-3.78h35.88v11.88h-31.86v5.1l33.54.12v3.78ZM211.2,357.37h-34.08v-16.62h4.2v4.38h25.68v-4.38h4.2v16.62ZM181.32,348.91v4.56h25.68v-4.56h-25.68Z"/><path class="cls-11" d="M259.86,378.19h-36.06l.12-17.94v-2.22h19.8v-11.4h-19.8v-3.9h24v19.2h-19.8l-.12,12.36h31.86v-32.4h-3.9v-3.9h8.1v53.28h-4.2v-13.08Z"/><path class="cls-11" d="M307.92,366.91h-33.78v-15.36h19.44v-6.42h-19.92v-3.9h24.12v14.22h-19.44v7.56h29.58v-21.36h-3.9v-3.9h8.1v13.56h8.22v3.9h-8.22v15h-4.2v-3.3ZM279.18,381.79c0-3.2,1.45-5.67,4.35-7.41,2.9-1.74,7.01-2.61,12.33-2.61,5.36-.04,9.48.81,12.36,2.55,2.88,1.74,4.32,4.23,4.32,7.47s-1.44,5.67-4.32,7.41c-2.88,1.74-7,2.61-12.36,2.61s-9.43-.87-12.33-2.61c-2.9-1.74-4.35-4.21-4.35-7.41ZM283.38,381.79c0,1.96,1.08,3.47,3.24,4.53,2.16,1.06,5.24,1.59,9.24,1.59s7.08-.53,9.24-1.59c2.16-1.06,3.24-2.57,3.24-4.53s-1.08-3.47-3.24-4.53c-2.16-1.06-5.24-1.59-9.24-1.59s-7.08.53-9.24,1.59c-2.16,1.06-3.24,2.57-3.24,4.53Z"/><path class="cls-11" d="M382.38,384.37h-26.76v-4.2h12.3v-32.82l-9.18,9.66-2.94-2.64,12.12-12.6h4.5v38.4h9.96v4.2Z"/><path class="cls-11" d="M417.42,370.15h-28.2v-27.78h4.2v23.88h24v3.9ZM431.46,391.27h-35.16v-16.2h4.2v12.3h30.96v3.9ZM425.04,360.19h-14.94v-3.9h14.94v-4.86h-14.94v-3.9h14.94v-5.58h-3.9v-3.9h8.1v39.3h-4.2v-17.16Z"/><path class="cls-11" d="M501.6,390.91h-4.2v-13.08h-26.04v-33.6h4.2v29.7h21.84v-32.1h-3.9v-3.9h8.1v21.9h8.58v-21.9h4.2v52.98h-4.2v-27.18h-8.58v27.18Z"/><path class="cls-11" d="M552,390.91h-4.2v-13.08h-26.04v-33.6h4.2v29.7h21.84v-32.1h-3.9v-3.9h8.1v21.9h8.58v-21.9h4.2v52.98h-4.2v-27.18h-8.58v27.18Z"/><path class="cls-11" d="M610.2,379.87h21.42v4.5h-29.04v-3.24c3.44-3.6,6.47-6.68,9.09-9.24,2.62-2.56,4.84-4.81,6.66-6.75,1.82-1.94,3.27-3.71,4.35-5.31,1.08-1.6,1.76-3.24,2.04-4.92.36-1.88.23-3.56-.39-5.04-.62-1.48-1.59-2.64-2.91-3.48-1.32-.84-2.9-1.22-4.74-1.14-2.48.04-4.45.77-5.91,2.19-1.46,1.42-2.19,3.31-2.19,5.67h-4.5c0-2.44.53-4.58,1.59-6.42,1.06-1.84,2.54-3.29,4.44-4.35,1.9-1.06,4.09-1.59,6.57-1.59,2.88,0,5.35.67,7.41,2.01,2.06,1.34,3.57,3.13,4.53,5.37.96,2.24,1.18,4.76.66,7.56-.32,1.68-1.02,3.43-2.1,5.25s-2.39,3.65-3.93,5.49c-1.54,1.84-3.14,3.61-4.8,5.31s-3.22,3.25-4.68,4.65c-1.46,1.4-2.65,2.56-3.57,3.48Z"/><path class="cls-11" d="M650.7,356.83c2.76,0,5.2.58,7.32,1.74s3.78,2.75,4.98,4.77c1.2,2.02,1.8,4.35,1.8,6.99,0,2.88-.59,5.44-1.77,7.68-1.18,2.24-2.82,3.99-4.92,5.25-2.1,1.26-4.53,1.89-7.29,1.89s-5.13-.58-7.23-1.74c-2.1-1.16-3.74-2.76-4.92-4.8-1.18-2.04-1.77-4.38-1.77-7.02h3.9c0,2.76.94,5.01,2.82,6.75,1.88,1.74,4.28,2.61,7.2,2.61,1.88,0,3.53-.45,4.95-1.35,1.42-.9,2.53-2.16,3.33-3.78.8-1.62,1.2-3.47,1.2-5.55,0-2.68-.88-4.88-2.64-6.6-1.76-1.72-4.04-2.6-6.84-2.64-1.92-.04-3.68.48-5.28,1.56-1.6,1.08-2.68,2.5-3.24,4.26h-4.92v-25.08h25.08v4.5h-20.88v14.16c1.2-1.16,2.59-2.06,4.17-2.7s3.23-.94,4.95-.9Z"/><path class="cls-11" d="M667.14,362.89c0-7.16,1.31-12.65,3.93-16.47,2.62-3.82,6.35-5.75,11.19-5.79,4.76-.04,8.41,1.86,10.95,5.7s3.81,9.36,3.81,16.56-1.27,12.72-3.81,16.56-6.19,5.74-10.95,5.7c-4.84-.04-8.57-1.98-11.19-5.82-2.62-3.84-3.93-9.32-3.93-16.44ZM671.64,362.89c0,5.8.92,10.26,2.76,13.38,1.84,3.12,4.46,4.68,7.86,4.68s5.86-1.56,7.62-4.68c1.76-3.12,2.64-7.58,2.64-13.38s-.88-10.31-2.64-13.41c-1.76-3.1-4.3-4.65-7.62-4.65s-6.02,1.55-7.86,4.65c-1.84,3.1-2.76,7.57-2.76,13.41ZM679.44,366.25v-5.34h5.28v5.34h-5.28Z"/><path class="cls-11" d="M705.78,349.39h-5.94v-3.9h26.16v3.9h-5.76v9.12h9.9v-15.72h-4.02v-3.9h8.22v52.26h-4.2v-28.74h-9.9v12.48h5.88v3.9h-26.94v-3.9h6.6v-25.5ZM709.98,349.39v25.5h6.06v-25.5h-6.06ZM744.3,391.15h-4.2v-52.26h4.2v52.26Z"/><path class="cls-11" d="M751.74,361.63c0-3.48.54-6.49,1.62-9.03s2.63-4.5,4.65-5.88c2.02-1.38,4.41-2.07,7.17-2.07,2.72.08,5.08.83,7.08,2.25,2,1.42,3.54,3.38,4.62,5.88s1.62,5.45,1.62,8.85-.54,6.42-1.62,8.94c-1.08,2.52-2.62,4.46-4.62,5.82-2,1.36-4.36,2.04-7.08,2.04s-5.15-.68-7.17-2.04c-2.02-1.36-3.57-3.3-4.65-5.82-1.08-2.52-1.62-5.5-1.62-8.94ZM755.94,361.63c0,3.96.83,7.1,2.49,9.42,1.66,2.32,3.91,3.48,6.75,3.48s5.02-1.16,6.66-3.48c1.64-2.32,2.46-5.46,2.46-9.42s-.82-7.23-2.46-9.57c-1.64-2.34-3.86-3.51-6.66-3.51s-5.09,1.17-6.75,3.51c-1.66,2.34-2.49,5.53-2.49,9.57ZM792.78,391.27h-4.2v-49.38h-3.9v-3.9h8.1v53.28Z"/><path class="cls-11" d="M803.64,380.17l-3-2.64,13.86-15.78v-13.92h-12.12v-3.9h28.62v3.9h-12.3v13.92l13.86,15.78-3,2.64-12.96-14.7-12.96,14.7ZM843.6,391.27h-4.2v-49.38h-3.9v-3.9h8.1v53.28Z"/><path class="cls-11" d="M858.77,348.01h-6.84v-3.9h30.9v3.9h-6.42v17.28l9.36,11.4-2.7,2.7-8.64-10.38-6.78,9.12-6.9-9.18-8.7,10.44-2.58-2.7,9.3-11.46v-17.22ZM862.98,348.01v17.46l4.68,6.18,4.56-6.12v-17.52h-9.24ZM888.42,342.37h-3.9v-3.6h8.1v20.46h8.1v3.9h-8.1v28.08h-4.2v-48.84Z"/><path class="cls-11" d="M940.25,378.19h-36.06l.12-17.94v-2.22h19.8v-11.4h-19.8v-3.9h24v19.2h-19.8l-.12,12.36h31.86v-32.4h-3.9v-3.9h8.1v53.28h-4.2v-13.08Z"/><path class="cls-11" d="M116.52,452.62h-46.86v-3.9h46.86v3.9ZM82.68,430.66h-7.32v-3.9h37.2v3.9h-8.16v10.08h8.16v3.9h-37.2v-3.9h7.32v-10.08ZM113.28,477.52h-37.2v-12h31.2v-4.38h-31.2v-3.9h35.4v12.18h-31.2v4.2h33v3.9ZM86.88,430.66v10.08h13.32v-10.08h-13.32Z"/><path class="cls-11" d="M154.14,477.82h-4.2v-34.2h-9.9v6.06h-14.46l-.12,12.36h19.62v3.9h-23.82v-3.9l.12-15.66v-.6h14.46v-10.74h-14.58v-3.9h18.78v8.58h9.9v-10.26h-3.9v-3.9h8.1v52.26ZM164.88,477.82h-4.2v-52.26h4.2v52.26Z"/><path class="cls-11" d="M172.14,448.29c0-3.48.54-6.49,1.62-9.03s2.63-4.5,4.65-5.88c2.02-1.38,4.41-2.07,7.17-2.07,2.72.08,5.08.83,7.08,2.25,2,1.42,3.54,3.38,4.62,5.88s1.62,5.45,1.62,8.85-.54,6.42-1.62,8.94c-1.08,2.52-2.62,4.46-4.62,5.82-2,1.36-4.36,2.04-7.08,2.04s-5.15-.68-7.17-2.04c-2.02-1.36-3.57-3.3-4.65-5.82-1.08-2.52-1.62-5.5-1.62-8.94ZM176.34,448.29c0,3.96.83,7.1,2.49,9.42,1.66,2.32,3.91,3.48,6.75,3.48s5.02-1.16,6.66-3.48c1.64-2.32,2.46-5.46,2.46-9.42s-.82-7.23-2.46-9.57c-1.64-2.34-3.86-3.51-6.66-3.51s-5.09,1.17-6.75,3.51c-1.66,2.34-2.49,5.53-2.49,9.57ZM213.18,477.94h-4.2v-49.38h-3.9v-3.9h8.1v53.28Z"/><path class="cls-11" d="M242.46,455.44h-21.6v-3.9h47.46v3.9h-21.66v6.48h15.54v16.56h-4.2v-12.66h-32.28v-3.9h16.74v-6.48ZM261.6,446.55h-34.08v-19.14h4.2v5.1h25.68v-5.1h4.2v19.14ZM231.72,436.42v6.24h25.68v-6.24h-25.68Z"/><path class="cls-11" d="M311.4,466.54h21.42v4.5h-29.04v-3.24c3.44-3.6,6.47-6.68,9.09-9.24,2.62-2.56,4.84-4.81,6.66-6.75,1.82-1.94,3.27-3.71,4.35-5.31,1.08-1.6,1.76-3.24,2.04-4.92.36-1.88.23-3.56-.39-5.04-.62-1.48-1.59-2.64-2.91-3.48-1.32-.84-2.9-1.22-4.74-1.14-2.48.04-4.45.77-5.91,2.19-1.46,1.42-2.19,3.31-2.19,5.67h-4.5c0-2.44.53-4.58,1.59-6.42,1.06-1.84,2.54-3.29,4.44-4.35,1.9-1.06,4.09-1.59,6.57-1.59,2.88,0,5.35.67,7.41,2.01,2.06,1.34,3.57,3.13,4.53,5.37.96,2.24,1.18,4.76.66,7.56-.32,1.68-1.02,3.43-2.1,5.25s-2.39,3.65-3.93,5.49c-1.54,1.84-3.14,3.61-4.8,5.31s-3.22,3.25-4.68,4.65c-1.46,1.4-2.65,2.56-3.57,3.48Z"/><path class="cls-11" d="M335.88,471.04v-6.66h6.66v6.66h-6.66Z"/><path class="cls-11" d="M357,449.55c0-7.16,1.31-12.65,3.93-16.47,2.62-3.82,6.35-5.75,11.19-5.79,4.76-.04,8.41,1.86,10.95,5.7s3.81,9.36,3.81,16.56-1.27,12.72-3.81,16.56-6.19,5.74-10.95,5.7c-4.84-.04-8.57-1.98-11.19-5.82-2.62-3.84-3.93-9.32-3.93-16.44ZM361.5,449.55c0,5.8.92,10.26,2.76,13.38,1.84,3.12,4.46,4.68,7.86,4.68s5.86-1.56,7.62-4.68c1.76-3.12,2.64-7.58,2.64-13.38s-.88-10.31-2.64-13.41c-1.76-3.1-4.3-4.65-7.62-4.65s-6.02,1.55-7.86,4.65c-1.84,3.1-2.76,7.57-2.76,13.41ZM369.3,452.92v-5.34h5.28v5.34h-5.28Z"/><path class="cls-11" d="M447.72,453.63h-23.4v-24.18h23.4v24.18ZM428.52,433.36v16.38h15v-16.38h-15ZM466.44,477.21h-35.04v-17.76h4.2v13.86h30.84v3.9ZM458.22,428.62h-3.9v-3.9h8.1v16.44h8.58v3.9h-8.58v18.96h-4.2v-35.4Z"/><path class="cls-11" d="M520.44,453.33h-48.66v-3.9h48.66v3.9ZM514.26,477.33h-35.34v-11.64h30.6v-3.6h-30.6v-3.9h34.8v11.1h-30.6v4.14h31.14v3.9ZM512.64,445.24h-33.6v-17.76h33.6v3.72h-29.58v10.32h29.58v3.72Z"/><path class="cls-11" d="M526.62,478.71l-2.88-2.52,11.16-10.14v-7.92h4.08v7.98l8.4,7.14,8.52-7.32v-7.8h4.2v8.16l11.04,10.02-2.88,2.52-10.5-9.54-10.38,8.94h-.06l-10.38-8.94-10.32,9.42ZM537.66,453.52c-2.52,0-4.74-.53-6.66-1.59-1.92-1.06-3.42-2.54-4.5-4.44-1.08-1.9-1.62-4.07-1.62-6.51s.54-4.51,1.62-6.33,2.58-3.24,4.5-4.26c1.92-1.02,4.14-1.53,6.66-1.53,3.2,0,5.89.84,8.07,2.52,2.18,1.68,3.57,3.92,4.17,6.72h11.16v-9h-3.9v-3.9h8.1v30.54h-4.2v-13.74h-10.92c-.12,2.28-.73,4.28-1.83,6-1.1,1.72-2.56,3.07-4.38,4.05-1.82.98-3.91,1.47-6.27,1.47ZM529.08,441.04c0,2.52.79,4.58,2.37,6.18,1.58,1.6,3.61,2.4,6.09,2.4s4.51-.8,6.09-2.4c1.58-1.6,2.37-3.68,2.37-6.24,0-2.4-.77-4.37-2.31-5.91-1.54-1.54-3.55-2.31-6.03-2.31s-4.58.77-6.18,2.31c-1.6,1.54-2.4,3.53-2.4,5.97Z"/><path class="cls-11" d="M620.16,471.4h-46.5v-3.9h18.54v-19.02h4.2v19.02h13.26v-33.9h-29.88v-3.9h34.08v37.8h6.3v3.9Z"/><path class="cls-11" d="M107.88,622.89h-35.1v-21.24h24.54v3.9h-20.34v13.44h30.9v-16.62h-3.9v-3.9h8.1v27.12h-4.2v-2.7ZM108.72,632.31h-31.08v-3.9h34.98v12.78h-30.72v5.46h32.94v3.9h-36.84v-13.26h30.72v-4.98Z"/><path class="cls-11" d="M156.18,639.15h-33.9l.12-18.84v-2.22h19.08v-11.04h-19.08v-3.9h23.28v18.84h-19.08l-.12,13.26h29.7v-33.36h-3.9v-3.9h8.1v21.66h9.42v3.9h-9.42v27.72h-4.2v-12.12Z"/><path class="cls-11" d="M172.14,621.63c0-3.48.54-6.49,1.62-9.03s2.63-4.5,4.65-5.88c2.02-1.38,4.41-2.07,7.17-2.07,2.72.08,5.08.83,7.08,2.25,2,1.42,3.54,3.38,4.62,5.88s1.62,5.45,1.62,8.85-.54,6.42-1.62,8.94c-1.08,2.52-2.62,4.46-4.62,5.82-2,1.36-4.36,2.04-7.08,2.04s-5.15-.68-7.17-2.04c-2.02-1.36-3.57-3.3-4.65-5.82-1.08-2.52-1.62-5.5-1.62-8.94ZM176.34,621.63c0,3.96.83,7.1,2.49,9.42,1.66,2.32,3.91,3.48,6.75,3.48s5.02-1.16,6.66-3.48c1.64-2.32,2.46-5.46,2.46-9.42s-.82-7.23-2.46-9.57c-1.64-2.34-3.86-3.51-6.66-3.51s-5.09,1.17-6.75,3.51c-1.66,2.34-2.49,5.53-2.49,9.57ZM213.18,651.27h-4.2v-49.38h-3.9v-3.9h8.1v53.28Z"/><path class="cls-11" d="M269.16,645.57h-49.2v-3.9h49.2v3.9ZM261.6,629.97h-34.08v-26.94h34.08v3.9h-29.88v7.62h29.88v3.9h-29.88v7.62h29.88v3.9Z"/><path class="cls-11" d="M292.8,629.37h-21.42v-3.9h47.4v3.9h-21.78v5.94h16.32v15.84h-36.48v-15.84h15.96v-5.94ZM308.76,603.69h-31.14v-3.9h35.34v12.66h-31.14v4.86h32.22v3.9h-36.42v-12.66h31.14v-4.86ZM281.04,639.21v8.04h28.08v-8.04h-28.08Z"/><path class="cls-11" d="M389.76,597.69h7.5v28.5h-4.2v-11.58h-15.06c-.68,1-1.41,1.98-2.19,2.94-.78.96-1.61,1.84-2.49,2.64-1.88,1.76-4.09,3.29-6.63,4.59s-5.19,2.25-7.95,2.85l-1.98-3.6c2.48-.56,4.89-1.42,7.23-2.58s4.33-2.5,5.97-4.02c.48-.44.95-.9,1.41-1.38.46-.48.89-.96,1.29-1.44h-16.02v-3.9h18.72c1-1.84,1.66-3.72,1.98-5.64h-18.84v-4.08h23.52v1.08c0,1.48-.17,2.95-.51,4.41s-.81,2.87-1.41,4.23h12.96v-9.12h-3.3v-3.9ZM399.12,651.51h-35.88v-13.08h29.58v-5.7h-29.58v-3.72h33.78v13.32h-29.58v5.28h31.68v3.9Z"/><path class="cls-11" d="M417.24,611.19h-11.34v-3.6h11.34v-8.22h4.2v8.22h12.48v3.6h-12.48v10.08l14.34,17.46-3,2.46-13.32-16.2-12.84,16.2-3.06-2.4,13.68-17.28v-10.32ZM442.98,623.13h-11.64v-3.9h11.64v-17.34h-3.9v-3.6h8.1v53.46h-4.2v-28.62Z"/><path class="cls-11" d="M480.78,627.81h-23.82v-24.96h19.68v3.9h-15.48v17.16h19.62v3.9ZM494.52,637.89h-29.88v-3.9h34.08v17.82h-4.2v-13.92ZM485.04,616.77h-10.98v-3.9h10.98v-10.32h-3.9v-3.9h8.1v31.74h-4.2v-13.62ZM498.9,630.39h-4.2v-31.74h4.2v31.74Z"/><path class="cls-11" d="M552.6,630.33h-47.46v-3.9h47.46v3.9ZM511.44,651.09v-15.36h4.2v11.46h31.62v3.9h-35.82ZM511.92,611.31c0-2,.73-3.78,2.19-5.34,1.46-1.56,3.49-2.78,6.09-3.66,2.6-.88,5.56-1.32,8.88-1.32s6.33.44,8.91,1.32,4.61,2.1,6.09,3.66c1.48,1.56,2.22,3.34,2.22,5.34s-.74,3.78-2.22,5.34c-1.48,1.56-3.51,2.78-6.09,3.66s-5.55,1.32-8.91,1.32-6.28-.44-8.88-1.32c-2.6-.88-4.63-2.1-6.09-3.66-1.46-1.56-2.19-3.34-2.19-5.34ZM516.12,611.37c0,1.24.56,2.34,1.68,3.3,1.12.96,2.65,1.71,4.59,2.25,1.94.54,4.17.81,6.69.81s4.81-.27,6.75-.81c1.94-.54,3.47-1.29,4.59-2.25s1.68-2.06,1.68-3.3-.56-2.4-1.68-3.36-2.65-1.72-4.59-2.28c-1.94-.56-4.19-.84-6.75-.84s-4.75.28-6.69.84c-1.94.56-3.47,1.32-4.59,2.28-1.12.96-1.68,2.08-1.68,3.36Z"/><path class="cls-11" d="M112.8,738.78h-4.2v-29.16h-12.54c-.24,4.84-1.45,8.55-3.63,11.13-2.18,2.58-5.19,3.87-9.03,3.87-4.12,0-7.29-1.45-9.51-4.35-2.22-2.9-3.33-7.05-3.33-12.45s1.11-9.68,3.33-12.6c2.22-2.92,5.39-4.38,9.51-4.38,3.8.16,6.79,1.52,8.97,4.08,2.18,2.56,3.41,6.16,3.69,10.8h12.54v-16.56h-3.9v-3.9h8.1v53.52ZM74.76,707.82c0,4.12.75,7.3,2.25,9.54s3.63,3.36,6.39,3.36,4.82-1.12,6.3-3.36c1.48-2.24,2.22-5.42,2.22-9.54s-.74-7.43-2.22-9.69c-1.48-2.26-3.58-3.39-6.3-3.39s-4.89,1.13-6.39,3.39c-1.5,2.26-2.25,5.49-2.25,9.69Z"/><path class="cls-11" d="M158.28,709.55h-35.1v-21.24h24.54v3.9h-20.34v13.44h30.9v-16.62h-3.9v-3.9h8.1v27.12h-4.2v-2.7ZM159.12,718.98h-31.08v-3.9h34.98v12.78h-30.72v5.46h32.94v3.9h-36.84v-13.26h30.72v-4.98Z"/><path class="cls-11" d="M197.22,690.42c.2,5.4-.65,10.47-2.55,15.21-1.9,4.74-4.68,8.98-8.34,12.72-3.66,3.74-8.05,6.85-13.17,9.33l-1.8-3.78c4.32-2.08,8.03-4.65,11.13-7.71,3.1-3.06,5.54-6.45,7.32-10.17,1.78-3.72,2.81-7.62,3.09-11.7h-19.62v-3.9h23.94ZM206.22,688.55h-3.9v-3.9h8.1v22.5h9.12v3.9h-9.12v27.42h-4.2v-49.92Z"/><path class="cls-11" d="M268.98,716.58h-48.66v-3.9h48.66v3.9ZM263.04,737.82h-35.82v-15.42h4.2v11.52h31.62v3.9ZM262.38,706.67h-34.8v-18.6h34.8v3.72h-30.78v11.16h30.78v3.72Z"/><path class="cls-11" d="M305.28,717.12l-2.7-2.82,14.4-13.86v-12.18h4.2v12.54l13.26,12.3-2.7,2.82-12.9-11.88-13.56,13.08ZM348.54,737.04h-36.06v-16.2h4.2v12.3h31.86v3.9ZM342.48,700.86h-11.76v-3.9h11.76v-8.7h-3.9v-3.6h8.1v39.72h-4.2v-23.52Z"/><path class="cls-11" d="M356.1,726.71l-3.06-2.4,13.92-17.58v-17.04h4.2v17.04l13.98,17.58-3.12,2.4-12.96-16.32-12.96,16.32ZM394.2,737.94h-4.2v-49.68h-3.9v-3.6h8.1v20.4h8.88v3.9h-8.88v28.98Z"/><path class="cls-11" d="M438.54,737.82h-4.2v-21h-11.58v-3.9h11.58v-9.3h-9.9v6.06h-14.46l-.12,12.36h19.62v3.9h-23.82v-3.9l.12-15.66v-.6h14.46v-10.74h-14.58v-3.9h18.78v8.58h9.9v-10.26h-3.9v-3.9h8.1v52.26ZM449.28,737.82h-4.2v-52.26h4.2v52.26Z"/><path class="cls-11" d="M461.52,714.83v-15.12h29.88v-6.12h-29.88v-3.9h34.08v13.92h-29.88v7.32h29.88v3.9h-14.82v13.5h22.26v3.9h-48.72v-3.9h22.26v-13.5h-15.06Z"/><path class="cls-11" d="M585.18,712.92h-47.4v-3.9h14.58v-18.24h-9.72v-3.9h36.06v22.14h6.48v3.9ZM579.72,737.82h-36.48v-21.06h4.2v6.48h28.08v-6.48h4.2v21.06ZM547.44,727.13v6.78h28.08v-6.78h-28.08ZM556.56,690.78v18.24h4.44v-11.16h4.26v11.16h9.24v-18.24h-17.94Z"/><path class="cls-11" d="M620.34,697.86h-31.02v-3.9h13.32v-8.82h4.2v8.82h13.5v3.9ZM604.68,725.04c-2.44,0-4.61-.51-6.51-1.53-1.9-1.02-3.39-2.44-4.47-4.26-1.08-1.82-1.62-3.91-1.62-6.27s.54-4.51,1.62-6.33c1.08-1.82,2.57-3.24,4.47-4.26,1.9-1.02,4.07-1.53,6.51-1.53s4.6.51,6.48,1.53c1.88,1.02,3.35,2.44,4.41,4.26,1.06,1.82,1.59,3.93,1.59,6.33s-.53,4.45-1.59,6.27c-1.06,1.82-2.53,3.24-4.41,4.26-1.88,1.02-4.04,1.53-6.48,1.53ZM596.28,713.09c0,2.36.79,4.29,2.37,5.79,1.58,1.5,3.59,2.25,6.03,2.25s4.43-.74,5.97-2.22c1.54-1.48,2.31-3.38,2.31-5.7,0-2.48-.77-4.51-2.31-6.09-1.54-1.58-3.53-2.37-5.97-2.37s-4.45.77-6.03,2.31c-1.58,1.54-2.37,3.55-2.37,6.03ZM626.52,688.55h-3.9v-3.9h8.1v53.82h-4.2v-49.92Z"/><path class="cls-11" d="M685.5,731.4h-46.5v-3.9h18.54v-19.02h4.2v19.02h13.26v-33.9h-29.88v-3.9h34.08v37.8h6.3v3.9Z"/><path class="cls-11" d="M108.48,884.99h-35.46v-22.74h24.72v3.9h-20.52v14.94h31.26v-18.54h-3.9v-3.9h8.1v29.28h-4.2v-2.94ZM112.74,911.45h-33.9v-21.24h4.2v6.54h25.5v-6.48h4.2v21.18ZM83.04,900.65v6.9h25.5v-6.9h-25.5Z"/><path class="cls-11" d="M156.12,896.69h-33.78l.12-29.46v-2.22h24.18v3.9h-19.98l-.12,23.88h29.58v-31.2h-3.9v-3.9h8.1v21.3h9.24v3.9h-9.24v28.02h-4.2v-14.22Z"/><path class="cls-11" d="M172.14,881.63c0-3.48.54-6.49,1.62-9.03s2.63-4.5,4.65-5.88c2.02-1.38,4.41-2.07,7.17-2.07,2.72.08,5.08.83,7.08,2.25,2,1.42,3.54,3.38,4.62,5.88s1.62,5.45,1.62,8.85-.54,6.42-1.62,8.94c-1.08,2.52-2.62,4.46-4.62,5.82-2,1.36-4.36,2.04-7.08,2.04s-5.15-.68-7.17-2.04c-2.02-1.36-3.57-3.3-4.65-5.82-1.08-2.52-1.62-5.5-1.62-8.94ZM176.34,881.63c0,3.96.83,7.1,2.49,9.42,1.66,2.32,3.91,3.48,6.75,3.48s5.02-1.16,6.66-3.48c1.64-2.32,2.46-5.46,2.46-9.42s-.82-7.23-2.46-9.57c-1.64-2.34-3.86-3.51-6.66-3.51s-5.09,1.17-6.75,3.51c-1.66,2.34-2.49,5.53-2.49,9.57ZM213.18,911.27h-4.2v-49.38h-3.9v-3.9h8.1v53.28Z"/><path class="cls-11" d="M267.72,905.33h-47.46v-3.9h47.46v3.9ZM261.6,891.17h-34.08v-26.88h4.2v9.96h25.68v-9.96h4.2v26.88ZM231.72,878.15v9.12h25.68v-9.12h-25.68Z"/><path class="cls-11" d="M318.9,889.01h-47.88v-3.9h47.88v3.9ZM313.98,910.13h-36.9v-15.54h4.2v11.64h32.7v3.9ZM312.36,877.97h-33.84v-18.36h4.2v14.46h29.64v3.9Z"/><path class="cls-11" d="M353.7,880.37c0-10.72,3.88-16.08,11.64-16.08,7.68.24,11.52,5.6,11.52,16.08s-3.84,15.9-11.52,15.9-11.64-5.3-11.64-15.9ZM357.9,880.37c0,8,2.48,12,7.44,12s7.32-4,7.32-12-2.44-12.18-7.32-12.18-7.44,4.06-7.44,12.18ZM385.74,911.15h-4.2v-49.56h-3.9v-3.9h8.1v21h8.7v-21h4.2v53.46h-4.2v-28.56h-8.7v28.56Z"/><path class="cls-11" d="M426.72,898.01h-18.12v-.06h-3.24v-33h21.36v33.06ZM409.56,868.85v25.26h12.96v-25.26h-12.96ZM433.8,862.79h-3.9v-3.9h8.1v20.7h6.72v-20.7h4.2v52.26h-4.2v-27.66h-6.72v27.66h-4.2v-48.36Z"/><path class="cls-11" d="M485.1,868.91h-29.76v-3.9h12.48v-6.12h4.2v6.12h13.08v3.9ZM457.98,881.93c0-2,.53-3.77,1.59-5.31,1.06-1.54,2.53-2.75,4.41-3.63,1.88-.88,4.02-1.32,6.42-1.32s4.52.44,6.36,1.32c1.84.88,3.28,2.09,4.32,3.63,1.04,1.54,1.56,3.31,1.56,5.31s-.52,3.78-1.56,5.34c-1.04,1.56-2.48,2.78-4.32,3.66-1.84.88-3.96,1.32-6.36,1.32s-4.54-.44-6.42-1.32c-1.88-.88-3.35-2.1-4.41-3.66-1.06-1.56-1.59-3.34-1.59-5.34ZM462.18,881.99c0,1.84.77,3.36,2.31,4.56,1.54,1.2,3.51,1.8,5.91,1.8s4.29-.58,5.79-1.74,2.25-2.66,2.25-4.5-.75-3.49-2.25-4.71c-1.5-1.22-3.43-1.83-5.79-1.83s-4.37.6-5.91,1.8-2.31,2.74-2.31,4.62ZM463.14,911.03v-15h4.2v11.1h32.4v3.9h-36.6ZM491.46,861.89h-3.9v-3.9h8.1v18.78h8.64v3.9h-8.64v18.66h-4.2v-37.44Z"/><path class="cls-11" d="M580.62,894.05h-4.2v-16.38h-15.78c-2.32,3.28-5.31,5.92-8.97,7.92-3.66,2-7.45,3.46-11.37,4.38l-1.56-3.84c2.52-.64,5.05-1.44,7.59-2.4s4.88-2.17,7.02-3.63c2.14-1.46,3.89-3.28,5.25-5.46,1.36-2.18,2.12-4.79,2.28-7.83h-20.16v-3.9h24.54c-.04,2.08-.26,4.02-.66,5.82-.4,1.8-.96,3.48-1.68,5.04h13.5v-11.4h-3.9v-3.9h8.1v35.58ZM544.62,911.93l-2.22-3.24,18.9-13.08v-6.06h4.2v5.94l19.02,13.2-2.22,3.24-18.84-13.08-18.84,13.08Z"/><path class="cls-11" d="M635.82,885.71h-48.24v-3.9h48.24v3.9ZM625.62,894.17h-31.74v-3.9h35.94v12.54h-31.74v5.04h33.36v3.9h-37.56v-12.84h31.74v-4.74ZM594.72,868.61c0-1.84.72-3.47,2.16-4.89,1.44-1.42,3.45-2.53,6.03-3.33,2.58-.8,5.53-1.2,8.85-1.2s6.32.4,8.88,1.2c2.56.8,4.56,1.91,6,3.33,1.44,1.42,2.16,3.05,2.16,4.89s-.72,3.48-2.16,4.92c-1.44,1.44-3.44,2.56-6,3.36-2.56.8-5.52,1.2-8.88,1.2s-6.27-.4-8.85-1.2c-2.58-.8-4.59-1.92-6.03-3.36-1.44-1.44-2.16-3.08-2.16-4.92ZM598.92,868.61c0,1.08.55,2.05,1.65,2.91,1.1.86,2.61,1.53,4.53,2.01,1.92.48,4.14.72,6.66.72s4.75-.24,6.69-.72c1.94-.48,3.45-1.15,4.53-2.01s1.62-1.83,1.62-2.91-.54-2.03-1.62-2.85c-1.08-.82-2.59-1.46-4.53-1.92-1.94-.46-4.17-.69-6.69-.69s-4.74.23-6.66.69c-1.92.46-3.43,1.1-4.53,1.92-1.1.82-1.65,1.77-1.65,2.85Z"/><path class="cls-11" d="M70.92,983.72c4.04-1.84,7.65-4.23,10.83-7.17,3.18-2.94,5.75-6.25,7.71-9.93,1.96-3.68,3.1-7.54,3.42-11.58h-19.44v-3.9h23.76c.12,4.08-.4,7.95-1.56,11.61s-2.85,7.05-5.07,10.17c-2.22,3.12-4.85,5.91-7.89,8.37-3.04,2.46-6.36,4.53-9.96,6.21l-1.8-3.78ZM111.72,998.48h-4.2v-48.36h-3.9v-3.9h8.1v52.26Z"/><path class="cls-11" d="M156.12,983.36h-33.78l.12-29.46v-2.22h24.18v3.9h-19.98l-.12,23.88h29.58v-31.2h-3.9v-3.9h8.1v21.3h9.24v3.9h-9.24v28.02h-4.2v-14.22Z"/><path class="cls-11" d="M203.76,967.34c0-5.48,1.11-9.68,3.33-12.6,2.22-2.92,5.39-4.38,9.51-4.38,4.08.16,7.22,1.71,9.42,4.65,2.2,2.94,3.3,7.05,3.3,12.33s-1.1,9.55-3.3,12.45c-2.2,2.9-5.34,4.35-9.42,4.35s-7.29-1.45-9.51-4.35c-2.22-2.9-3.33-7.05-3.33-12.45ZM207.96,967.34c0,4.12.75,7.3,2.25,9.54,1.5,2.24,3.63,3.36,6.39,3.36s4.82-1.12,6.3-3.36c1.48-2.24,2.22-5.42,2.22-9.54s-.74-7.43-2.22-9.69c-1.48-2.26-3.58-3.39-6.3-3.39s-4.89,1.13-6.39,3.39-2.25,5.49-2.25,9.69ZM243,998.78h-4.2v-49.62h-3.9v-3.9h8.1v21.48h9.66v3.9h-9.66v28.14Z"/><path class="cls-11" d="M291.36,982.7h-34.74l.12-33.66h4.2l-.12,29.76h30.54v-30.54h-3.3v-3.6h7.5v53.28h-4.2v-15.24Z"/><path class="cls-11" d="M339.72,983.36h-33.78l.12-29.46v-2.22h24.18v3.9h-19.98l-.12,23.88h29.58v-31.2h-3.9v-3.9h8.1v21.3h9.24v3.9h-9.24v28.02h-4.2v-14.22Z"/><path class="cls-11" d="M389.7,975.86l-2.64-2.88,13.14-12.18v-7.86h-12.6v-3.9h28.74v3.9h-11.94v7.86l13.14,12.18-2.64,2.88-12.6-11.7-12.6,11.7ZM394.8,989c0-3.04,1.6-5.45,4.8-7.23,3.2-1.78,7.52-2.67,12.96-2.67,3.64-.04,6.79.35,9.45,1.17,2.66.82,4.72,1.97,6.18,3.45,1.46,1.48,2.19,3.24,2.19,5.28s-.73,3.75-2.19,5.25c-1.46,1.5-3.52,2.65-6.18,3.45-2.66.8-5.81,1.2-9.45,1.2-5.44,0-9.76-.89-12.96-2.67-3.2-1.78-4.8-4.19-4.8-7.23ZM399,989c0,1.84,1.22,3.3,3.66,4.38,2.44,1.08,5.74,1.62,9.9,1.62s7.47-.54,9.93-1.62,3.69-2.54,3.69-4.38-1.23-3.3-3.69-4.38-5.77-1.62-9.93-1.62-7.46.54-9.9,1.62c-2.44,1.08-3.66,2.54-3.66,4.38ZM425.4,963.2h-10.8v-3.9h10.8v-10.08h-3.9v-3.9h8.1v31.98h-4.2v-14.1Z"/><path class="cls-11" d="M466.5,953.96h-28.14v-3.9h12.06v-5.22h4.2v5.22h11.88v3.9ZM477,981.38h-4.2v-2.22h-34.32v-3.9h11.94v-3.3c-2.8-.32-5.08-1.19-6.84-2.61-1.76-1.42-2.64-3.19-2.64-5.31,0-1.64.49-3.08,1.47-4.32.98-1.24,2.35-2.21,4.11-2.91,1.76-.7,3.76-1.05,6-1.05,3.4,0,6.15.77,8.25,2.31s3.15,3.53,3.15,5.97c0,2.12-.85,3.89-2.55,5.31-1.7,1.42-3.95,2.29-6.75,2.61v3.3h18.18v-26.64h-3.48v-3.9h7.68v16.32h9.3v3.9h-9.3v16.44ZM472.74,987.98h-29.04v-3.9h33.24v15.24h-4.2v-11.34ZM445.02,964.1c0,1.24.7,2.25,2.1,3.03s3.2,1.17,5.4,1.17,3.92-.38,5.28-1.14,2.04-1.74,2.04-2.94c0-1.36-.68-2.48-2.04-3.36s-3.12-1.32-5.28-1.32-4,.42-5.4,1.26-2.1,1.94-2.1,3.3Z"/><path class="cls-11" d="M519.54,957.86h-31.02v-3.9h13.32v-8.82h4.2v8.82h13.5v3.9ZM503.88,985.04c-2.44,0-4.61-.51-6.51-1.53-1.9-1.02-3.39-2.44-4.47-4.26-1.08-1.82-1.62-3.91-1.62-6.27s.54-4.51,1.62-6.33,2.57-3.24,4.47-4.26c1.9-1.02,4.07-1.53,6.51-1.53s4.6.51,6.48,1.53c1.88,1.02,3.35,2.44,4.41,4.26s1.59,3.93,1.59,6.33-.53,4.45-1.59,6.27c-1.06,1.82-2.53,3.24-4.41,4.26-1.88,1.02-4.04,1.53-6.48,1.53ZM495.48,973.1c0,2.36.79,4.29,2.37,5.79,1.58,1.5,3.59,2.25,6.03,2.25s4.43-.74,5.97-2.22c1.54-1.48,2.31-3.38,2.31-5.7,0-2.48-.77-4.51-2.31-6.09-1.54-1.58-3.53-2.37-5.97-2.37s-4.45.77-6.03,2.31c-1.58,1.54-2.37,3.55-2.37,6.03ZM525.72,948.56h-3.9v-3.9h8.1v53.82h-4.2v-49.92Z"/><path class="cls-11" d="M569.28,967.04c0-10.92,3.98-16.38,11.94-16.38,7.88.28,11.82,5.74,11.82,16.38s-3.94,16.2-11.82,16.2-11.94-5.4-11.94-16.2ZM573.48,967.04c0,8.2,2.58,12.3,7.74,12.3s7.62-4.1,7.62-12.3-2.54-12.48-7.62-12.48-7.74,4.16-7.74,12.48ZM602.94,997.82h-4.2v-49.56h-3.9v-3.9h8.1v14.28h8.1v-14.28h4.2v53.46h-4.2v-19.08h-8.1v19.08ZM602.94,962.54v12.3h8.1v-12.3h-8.1Z"/><path class="cls-11" d="M621.72,983.72c4.04-1.84,7.65-4.23,10.83-7.17,3.18-2.94,5.75-6.25,7.71-9.93,1.96-3.68,3.1-7.54,3.42-11.58h-19.44v-3.9h23.76c.12,4.08-.4,7.95-1.56,11.61s-2.85,7.05-5.07,10.17c-2.22,3.12-4.85,5.91-7.89,8.37-3.04,2.46-6.36,4.53-9.96,6.21l-1.8-3.78ZM662.52,998.48h-4.2v-48.36h-3.9v-3.9h8.1v52.26Z"/><path class="cls-11" d="M697.38,958.28h-27.06v-3.9h11.34v-8.28h4.2v8.28h11.52v3.9ZM683.64,984.32c-2.16,0-4.11-.49-5.85-1.47-1.74-.98-3.12-2.3-4.14-3.96-1.02-1.66-1.53-3.51-1.53-5.55s.51-3.95,1.53-5.61,2.4-2.98,4.14-3.96,3.69-1.47,5.85-1.47,4.04.49,5.76,1.47c1.72.98,3.08,2.3,4.08,3.96s1.5,3.53,1.5,5.61-.5,3.89-1.5,5.55c-1,1.66-2.36,2.98-4.08,3.96-1.72.98-3.64,1.47-5.76,1.47ZM676.32,973.46c0,1.28.33,2.45.99,3.51.66,1.06,1.54,1.9,2.64,2.52,1.1.62,2.33.93,3.69.93,2,0,3.69-.66,5.07-1.98,1.38-1.32,2.07-2.94,2.07-4.86,0-2.08-.69-3.83-2.07-5.25-1.38-1.42-3.07-2.13-5.07-2.13-1.36,0-2.59.32-3.69.96-1.1.64-1.98,1.51-2.64,2.61-.66,1.1-.99,2.33-.99,3.69ZM699.72,948.56h-3.3v-3.9h7.5v22.44h7.02v-22.44h4.2v53.16h-4.2v-26.82h-7.02v26.82h-4.2v-49.26Z"/><path class="cls-11" d="M742.92,979.82h-22.2v-3.9h48.72v3.9h-22.32v19.2h-4.2v-19.2ZM726.54,971.48l-2.1-3.3,18.48-9.78v-6h-16.2v-3.9h36.48v3.9h-16.08v6l18.48,9.78-2.1,3.3-18.48-9.78-18.48,9.78Z"/><path class="cls-11" d="M819.3,975.68h-47.88v-3.9h47.88v3.9ZM814.38,996.8h-36.9v-15.54h4.2v11.64h32.7v3.9ZM812.76,964.64h-33.84v-18.36h4.2v14.46h29.64v3.9Z"/><path class="cls-11" d="M890.16,944.36h7.5v28.5h-4.2v-11.58h-15.06c-.68,1-1.41,1.98-2.19,2.94-.78.96-1.61,1.84-2.49,2.64-1.88,1.76-4.09,3.29-6.63,4.59-2.54,1.3-5.19,2.25-7.95,2.85l-1.98-3.6c2.48-.56,4.89-1.42,7.23-2.58,2.34-1.16,4.33-2.5,5.97-4.02.48-.44.95-.9,1.41-1.38.46-.48.89-.96,1.29-1.44h-16.02v-3.9h18.72c1-1.84,1.66-3.72,1.98-5.64h-18.84v-4.08h23.52v1.08c0,1.48-.17,2.95-.51,4.41s-.81,2.87-1.41,4.23h12.96v-9.12h-3.3v-3.9ZM899.52,998.18h-35.88v-13.08h29.58v-5.7h-29.58v-3.72h33.78v13.32h-29.58v5.28h31.68v3.9Z"/><path class="cls-11" d="M917.64,957.86h-11.34v-3.6h11.34v-8.22h4.2v8.22h12.48v3.6h-12.48v10.08l14.34,17.46-3,2.46-13.32-16.2-12.84,16.2-3.06-2.4,13.68-17.28v-10.32ZM943.38,969.8h-11.64v-3.9h11.64v-17.34h-3.9v-3.6h8.1v53.46h-4.2v-28.62Z"/><path class="cls-11" d="M981.17,974.48h-23.82v-24.96h19.68v3.9h-15.48v17.16h19.62v3.9ZM994.92,984.56h-29.88v-3.9h34.08v17.82h-4.2v-13.92ZM985.44,963.44h-10.98v-3.9h10.98v-10.32h-3.9v-3.9h8.1v31.74h-4.2v-13.62ZM999.3,977.06h-4.2v-31.74h4.2v31.74Z"/><path class="cls-11" d="M70.56,1140.67c0-5.48,1.11-9.68,3.33-12.6,2.22-2.92,5.39-4.38,9.51-4.38,4.08.16,7.22,1.71,9.42,4.65,2.2,2.94,3.3,7.05,3.3,12.33s-1.1,9.55-3.3,12.45c-2.2,2.9-5.34,4.35-9.42,4.35s-7.29-1.45-9.51-4.35c-2.22-2.9-3.33-7.05-3.33-12.45ZM74.76,1140.67c0,4.12.75,7.3,2.25,9.54,1.5,2.24,3.63,3.36,6.39,3.36s4.82-1.12,6.3-3.36c1.48-2.24,2.22-5.42,2.22-9.54s-.74-7.43-2.22-9.69c-1.48-2.26-3.58-3.39-6.3-3.39s-4.89,1.13-6.39,3.39-2.25,5.49-2.25,9.69ZM109.8,1172.11h-4.2v-49.62h-3.9v-3.9h8.1v21.48h9.66v3.9h-9.66v28.14Z"/><path class="cls-11" d="M121.38,1134.01c0-2.32.6-4.42,1.8-6.3,1.2-1.88,2.81-3.38,4.83-4.5,2.02-1.12,4.29-1.68,6.81-1.68,2.48.08,4.73.7,6.75,1.86,2.02,1.16,3.62,2.66,4.8,4.5,1.18,1.84,1.77,3.88,1.77,6.12s-.59,4.35-1.77,6.21c-1.18,1.86-2.78,3.34-4.8,4.44-2.02,1.1-4.27,1.65-6.75,1.65s-4.79-.55-6.81-1.65c-2.02-1.1-3.63-2.58-4.83-4.44-1.2-1.86-1.8-3.93-1.8-6.21ZM125.58,1134.01c0,1.56.41,2.98,1.23,4.26.82,1.28,1.93,2.29,3.33,3.03,1.4.74,2.96,1.11,4.68,1.11s3.26-.37,4.62-1.11c1.36-.74,2.45-1.75,3.27-3.03.82-1.28,1.23-2.7,1.23-4.26s-.41-3.05-1.23-4.35c-.82-1.3-1.91-2.33-3.27-3.09s-2.9-1.14-4.62-1.14-3.28.38-4.68,1.14c-1.4.76-2.51,1.79-3.33,3.09-.82,1.3-1.23,2.75-1.23,4.35ZM163.02,1171.33h-33.42v-19.32h33.42v19.32ZM133.8,1155.91v11.52h25.02v-11.52h-25.02ZM162.84,1148.53h-4.2v-27.18h-3.9v-3.9h8.1v31.08Z"/><path class="cls-11" d="M183.96,1144.21h-12.3v-3.9h27.3v3.9h-10.8v10.5h-4.2v-10.5ZM173.58,1129.27c0-1.72.48-3.26,1.44-4.62.96-1.36,2.26-2.45,3.9-3.27,1.64-.82,3.46-1.23,5.46-1.23,2.52.12,4.72.82,6.6,2.1,1.88,1.28,3.12,2.86,3.72,4.74h7.2v-4.08h-4.2v-3.9h8.4l-.06,30.84h-4.2l.06-18.96h-7.02c-.4,2.12-1.58,3.88-3.54,5.28-1.96,1.4-4.28,2.1-6.96,2.1-2,0-3.82-.4-5.46-1.2-1.64-.8-2.94-1.88-3.9-3.24-.96-1.36-1.44-2.88-1.44-4.56ZM177.48,1129.39c0,1.48.66,2.74,1.98,3.78,1.32,1.04,2.94,1.56,4.86,1.56s3.48-.53,4.8-1.59c1.32-1.06,1.98-2.33,1.98-3.81s-.65-2.81-1.95-3.87c-1.3-1.06-2.89-1.59-4.77-1.59s-3.55.53-4.89,1.59c-1.34,1.06-2.01,2.37-2.01,3.93ZM214.26,1172.05h-35.82v-18.48h3.9v5.16h28.02v-5.16h3.9v18.48ZM182.34,1162.63v5.52h28.02v-5.52h-28.02ZM214.26,1149.85h-4.2v-30.96h4.2v30.96Z"/><path class="cls-11" d="M222.54,1141.63c0-3.48.54-6.49,1.62-9.03s2.63-4.5,4.65-5.88c2.02-1.38,4.41-2.07,7.17-2.07,2.72.08,5.08.83,7.08,2.25s3.54,3.38,4.62,5.88,1.62,5.45,1.62,8.85-.54,6.42-1.62,8.94c-1.08,2.52-2.62,4.46-4.62,5.82-2,1.36-4.36,2.04-7.08,2.04s-5.15-.68-7.17-2.04c-2.02-1.36-3.57-3.3-4.65-5.82-1.08-2.52-1.62-5.5-1.62-8.94ZM226.74,1141.63c0,3.96.83,7.1,2.49,9.42,1.66,2.32,3.91,3.48,6.75,3.48s5.02-1.16,6.66-3.48c1.64-2.32,2.46-5.46,2.46-9.42s-.82-7.23-2.46-9.57c-1.64-2.34-3.86-3.51-6.66-3.51s-5.09,1.17-6.75,3.51c-1.66,2.34-2.49,5.53-2.49,9.57ZM263.58,1171.27h-4.2v-49.38h-3.9v-3.9h8.1v53.28Z"/><path class="cls-11" d="M307.92,1146.91h-33.78v-15.36h19.44v-6.42h-19.92v-3.9h24.12v14.22h-19.44v7.56h29.58v-21.36h-3.9v-3.9h8.1v13.56h8.22v3.9h-8.22v15h-4.2v-3.3ZM279.18,1161.79c0-3.2,1.45-5.67,4.35-7.41,2.9-1.74,7.01-2.61,12.33-2.61,5.36-.04,9.48.81,12.36,2.55,2.88,1.74,4.32,4.23,4.32,7.47s-1.44,5.67-4.32,7.41c-2.88,1.74-7,2.61-12.36,2.61s-9.43-.87-12.33-2.61c-2.9-1.74-4.35-4.21-4.35-7.41ZM283.38,1161.79c0,1.96,1.08,3.47,3.24,4.53,2.16,1.06,5.24,1.59,9.24,1.59s7.08-.53,9.24-1.59c2.16-1.06,3.24-2.57,3.24-4.53s-1.08-3.47-3.24-4.53c-2.16-1.06-5.24-1.59-9.24-1.59s-7.08.53-9.24,1.59c-2.16,1.06-3.24,2.57-3.24,4.53Z"/><path class="cls-11" d="M402.24,1165.21h-48.72v-3.9h22.2v-12.9h4.2v12.9h22.32v3.9ZM359.34,1152.01l-2.1-3.3,18.48-12.72v-8.46h-16.2v-3.9h36.48v3.9h-16.08v8.46l18.48,12.72-2.1,3.3-18.48-12.72-18.48,12.72Z"/><path class="cls-11" d="M407.46,1148.71l-2.76-2.82,13.74-12.84v-7.86h-11.82v-3.9h27.78v3.9h-11.76v7.8l14.1,11.7-2.64,2.82-13.5-11.1-13.14,12.3ZM443.28,1156.81h-31.26v-3.9h35.46v18.9h-4.2v-15ZM443.28,1121.83h-3.9v-3.9h8.1v31.92h-4.2v-28.02Z"/><path class="cls-11" d="M457.8,1150.03l-2.7-2.82,13.8-13.26v-7.74h-12.06v-3.9h28.38v3.9h-12.12v8.1l13.86,12.9-2.7,2.82-13.5-12.48-12.96,12.48ZM464.58,1170.73v-17.1h4.2v13.2h31.86v3.9h-36.06ZM493.68,1121.29h-3.9v-3.6h8.1v39.48h-4.2v-35.88Z"/><path class="cls-11" d="M541.74,1147.87h-34.14v-24.72h23.4v3.9h-19.2v16.92h29.94v-21.18h-3.9v-3.9h8.1v15.6h8.7v3.9h-8.7v18.96h-4.2v-9.48ZM548.88,1171.15h-35.58v-17.58h4.2v13.68h31.38v3.9Z"/><path class="cls-11" d="M590.88,1159.51l-3.06-2.4,13.68-15.54v-18.18h4.2v17.94l14.34,15.72-3,2.46-13.32-14.64-12.84,14.64ZM631.14,1171.27h-4.2v-31.38h-12.24v-3.9h12.24v-14.1h-3.9v-3.9h8.1v53.28Z"/><path class="cls-11" d="M661.14,1157.47h-21.06v-33.42h4.2v14.82h12.66v-14.82h4.2v14.82h7.2v-17.28h-3.9v-3.9h8.1v53.46h-4.2v-28.38h-7.2v14.7ZM644.28,1142.77v10.8h12.66v-10.8h-12.66ZM684.24,1171.15h-4.2v-53.46h4.2v53.46Z"/><path class="cls-11" d="M690.54,1141.63c0-3.48.54-6.49,1.62-9.03s2.63-4.5,4.65-5.88c2.02-1.38,4.41-2.07,7.17-2.07,2.72.08,5.08.83,7.08,2.25s3.54,3.38,4.62,5.88,1.62,5.45,1.62,8.85-.54,6.42-1.62,8.94c-1.08,2.52-2.62,4.46-4.62,5.82-2,1.36-4.36,2.04-7.08,2.04s-5.15-.68-7.17-2.04c-2.02-1.36-3.57-3.3-4.65-5.82-1.08-2.52-1.62-5.5-1.62-8.94ZM694.74,1141.63c0,3.96.83,7.1,2.49,9.42,1.66,2.32,3.91,3.48,6.75,3.48s5.02-1.16,6.66-3.48c1.64-2.32,2.46-5.46,2.46-9.42s-.82-7.23-2.46-9.57c-1.64-2.34-3.86-3.51-6.66-3.51s-5.09,1.17-6.75,3.51c-1.66,2.34-2.49,5.53-2.49,9.57ZM731.58,1171.27h-4.2v-49.38h-3.9v-3.9h8.1v53.28Z"/><path class="cls-11" d="M780.24,1171.81h-4.2v-11.58h-37.92v-3.9h14.58v-9.96c-2.16-.28-4.06-.95-5.7-2.01-1.64-1.06-2.92-2.42-3.84-4.08-.92-1.66-1.38-3.53-1.38-5.61,0-2.36.56-4.44,1.68-6.24,1.12-1.8,2.65-3.21,4.59-4.23,1.94-1.02,4.17-1.53,6.69-1.53,2.52.08,4.74.66,6.66,1.74s3.43,2.5,4.53,4.26c1.1,1.76,1.65,3.76,1.65,6,0,3.12-.98,5.74-2.94,7.86-1.96,2.12-4.54,3.4-7.74,3.84v9.96h19.14v-33.66h-3.9v-3.9h8.1v22.14h8.4v3.9h-8.4v27ZM745.98,1134.67c0,2.32.82,4.21,2.46,5.67,1.64,1.46,3.74,2.19,6.3,2.19s4.59-.73,6.21-2.19c1.62-1.46,2.43-3.35,2.43-5.67s-.81-4.3-2.43-5.82c-1.62-1.52-3.69-2.28-6.21-2.28s-4.66.76-6.3,2.28c-1.64,1.52-2.46,3.46-2.46,5.82Z"/><path class="cls-11" d="M116.7,1251.4h-46.5v-3.9h18.54v-13.56h4.2v13.56h13.26v-18.78h-32.28v-3.9h32.28v-11.22h-29.88v-3.9h34.08v37.8h6.3v3.9Z"/><path class="cls-11" d="M163.2,1258.78h-4.2v-29.16h-12.54c-.24,4.84-1.45,8.55-3.63,11.13-2.18,2.58-5.19,3.87-9.03,3.87-4.12,0-7.29-1.45-9.51-4.35s-3.33-7.05-3.33-12.45,1.11-9.68,3.33-12.6c2.22-2.92,5.39-4.38,9.51-4.38,3.8.16,6.79,1.52,8.97,4.08,2.18,2.56,3.41,6.16,3.69,10.8h12.54v-16.56h-3.9v-3.9h8.1v53.52ZM125.16,1227.82c0,4.12.75,7.3,2.25,9.54s3.63,3.36,6.39,3.36,4.82-1.12,6.3-3.36c1.48-2.24,2.22-5.42,2.22-9.54s-.74-7.43-2.22-9.69c-1.48-2.26-3.58-3.39-6.3-3.39s-4.89,1.13-6.39,3.39c-1.5,2.26-2.25,5.49-2.25,9.69Z"/><path class="cls-11" d="M223.56,1228.3h-17.76v-3.9h19.26c.44-1.44.8-2.94,1.08-4.5.28-1.56.48-3.18.6-4.86h-18.9v-3.9h23.16c.6,17.4-7.06,29.9-22.98,37.5l-1.8-3.78c8.32-3.96,14.1-9.48,17.34-16.56ZM240.72,1210.12h-3.9v-3.9h8.1v52.26h-4.2v-48.36Z"/><path class="cls-11" d="M271.98,1257.64h-4.2v-19.92h-13.92v-3.9h34.38v3.9h-16.26v19.92ZM257.16,1218.64c0-2.2.53-4.15,1.59-5.85,1.06-1.7,2.53-3.04,4.41-4.02,1.88-.98,4.02-1.47,6.42-1.47,3.2,0,5.91.81,8.13,2.43,2.22,1.62,3.61,3.73,4.17,6.33h10.32v-8.04h-3.9v-3.9h8.1v53.52h-4.2v-37.68h-10.08c-.2,1.92-.87,3.61-2.01,5.07s-2.61,2.61-4.41,3.45c-1.8.84-3.84,1.26-6.12,1.26-2.4,0-4.54-.48-6.42-1.44-1.88-.96-3.35-2.27-4.41-3.93-1.06-1.66-1.59-3.57-1.59-5.73ZM261.36,1218.64c0,2.08.77,3.8,2.31,5.16,1.54,1.36,3.51,2.04,5.91,2.04s4.5-.68,6.06-2.04c1.56-1.36,2.34-3.08,2.34-5.16s-.78-3.94-2.34-5.34c-1.56-1.4-3.58-2.1-6.06-2.1s-4.37.7-5.91,2.1c-1.54,1.4-2.31,3.18-2.31,5.34Z"/><path class="cls-11" d="M351.9,1252.24h-48.9v-3.9h48.9v3.9ZM344.4,1234.84h-34.08v-25.14h34.08v3.9h-29.88v17.34h29.88v3.9Z"/><path class="cls-11" d="M395.04,1258.48h-4.2v-11.58h-37.92v-3.9h14.58v-9.96c-2.16-.28-4.06-.95-5.7-2.01-1.64-1.06-2.92-2.42-3.84-4.08-.92-1.66-1.38-3.53-1.38-5.61,0-2.36.56-4.44,1.68-6.24,1.12-1.8,2.65-3.21,4.59-4.23,1.94-1.02,4.17-1.53,6.69-1.53,2.52.08,4.74.66,6.66,1.74,1.92,1.08,3.43,2.5,4.53,4.26,1.1,1.76,1.65,3.76,1.65,6,0,3.12-.98,5.74-2.94,7.86s-4.54,3.4-7.74,3.84v9.96h19.14v-33.66h-3.9v-3.9h8.1v22.14h8.4v3.9h-8.4v27ZM360.78,1221.34c0,2.32.82,4.21,2.46,5.67,1.64,1.46,3.74,2.19,6.3,2.19s4.59-.73,6.21-2.19c1.62-1.46,2.43-3.35,2.43-5.67s-.81-4.3-2.43-5.82-3.69-2.28-6.21-2.28-4.66.76-6.3,2.28c-1.64,1.52-2.46,3.46-2.46,5.82Z"/><path class="cls-11" d="M485.16,1251.94h-48.9v-3.9h48.9v3.9ZM442.14,1235.68l-2.1-3.3,18.48-12.72v-10.8h4.2v10.8l18.48,12.72-2.1,3.3-18.48-12.72-18.48,12.72Z"/><path class="cls-11" d="M535.56,1252.24h-49.2v-3.9h22.5v-11.7h-14.94v-26.94h34.08v3.9h-29.88v7.62h29.88v3.9h-29.88v7.62h29.88v3.9h-14.94v11.7h22.5v3.9Z"/><path class="cls-11" d="M576.66,1244.86h-36.06l.12-17.94v-2.22h19.8v-11.4h-19.8v-3.9h24v19.2h-19.8l-.12,12.36h31.86v-32.4h-3.9v-3.9h8.1v53.28h-4.2v-13.08Z"/><path class="cls-11" d="M646.26,1233.64h-23.4v-24.18h23.4v24.18ZM627.06,1213.36v16.38h15v-16.38h-15ZM664.98,1257.22h-35.04v-17.76h4.2v13.86h30.84v3.9ZM656.76,1208.62h-3.9v-3.9h8.1v16.44h8.58v3.9h-8.58v18.96h-4.2v-35.4Z"/><path class="cls-11" d="M718.98,1233.34h-48.66v-3.9h48.66v3.9ZM712.8,1257.34h-35.34v-11.64h30.6v-3.6h-30.6v-3.9h34.8v11.1h-30.6v4.14h31.14v3.9ZM711.18,1225.24h-33.6v-17.76h33.6v3.72h-29.58v10.32h29.58v3.72Z"/><path class="cls-11" d="M725.16,1258.72l-2.88-2.52,11.16-10.14v-7.92h4.08v7.98l8.4,7.14,8.52-7.32v-7.8h4.2v8.16l11.04,10.02-2.88,2.52-10.5-9.54-10.38,8.94h-.06l-10.38-8.94-10.32,9.42ZM736.2,1233.52c-2.52,0-4.74-.53-6.66-1.59-1.92-1.06-3.42-2.54-4.5-4.44-1.08-1.9-1.62-4.07-1.62-6.51s.54-4.51,1.62-6.33,2.58-3.24,4.5-4.26c1.92-1.02,4.14-1.53,6.66-1.53,3.2,0,5.89.84,8.07,2.52,2.18,1.68,3.57,3.92,4.17,6.72h11.16v-9h-3.9v-3.9h8.1v30.54h-4.2v-13.74h-10.92c-.12,2.28-.73,4.28-1.83,6-1.1,1.72-2.56,3.07-4.38,4.05-1.82.98-3.91,1.47-6.27,1.47ZM727.62,1221.04c0,2.52.79,4.58,2.37,6.18,1.58,1.6,3.61,2.4,6.09,2.4s4.51-.8,6.09-2.4c1.58-1.6,2.37-3.68,2.37-6.24,0-2.4-.77-4.37-2.31-5.91-1.54-1.54-3.55-2.31-6.03-2.31s-4.58.77-6.18,2.31c-1.6,1.54-2.4,3.53-2.4,5.97Z"/><path class="cls-11" d="M818.7,1251.4h-46.5v-3.9h18.54v-19.02h4.2v19.02h13.26v-33.9h-29.88v-3.9h34.08v37.8h6.3v3.9Z"/><path class="cls-11" d="M82.62,1413.45h-13.56v-3.9h48.84v3.9h-13.5v18.36h-4.2v-18.36h-13.38v18.36h-4.2v-18.36ZM81.72,1384.65h-7.5v-3.9h37.8v3.9h-7.26v14.76h7.26v3.9h-37.8v-3.9h7.5v-14.76ZM85.92,1384.65v14.76h14.64v-14.76h-14.64Z"/><path class="cls-11" d="M122.22,1421.19l-3.06-2.4,13.68-17.28v-10.32h-11.34v-3.6h11.34v-8.22h4.2v8.22h12.48v3.6h-12.48v10.08l14.34,17.46-3,2.46-13.32-16.2-12.84,16.2ZM158.58,1399.17h-10.8v-3.9h10.8v-13.38h-3.9v-3.6h8.1v53.46h-4.2v-22.62h-10.8v-3.9h10.8v-6.06Z"/><path class="cls-11" d="M218.76,1425.27h-48.9v-3.9h48.9v3.9ZM175.74,1409.01l-2.1-3.3,18.48-12.72v-10.8h4.2v10.8l18.48,12.72-2.1,3.3-18.48-12.72-18.48,12.72Z"/><path class="cls-11" d="M268.32,1406.01h-48.06v-3.9h20.16v-8.76h-14.76v-3.9h31.98v-5.28h-31.14v-3.9h35.34v21.84h6.48v3.9ZM258.54,1413.75h-31.8v-3.9h36v12.54h-31.8v5.52h33.54v3.9h-37.74v-13.32h31.8v-4.74ZM244.62,1393.35v8.76h13.02v-8.76h-13.02Z"/><path class="cls-11" d="M305.34,1431.15h-4.2v-34.2h-9.9v6.06h-14.46l-.12,12.36h19.62v3.9h-23.82v-3.9l.12-15.66v-.6h14.46v-10.74h-14.58v-3.9h18.78v8.58h9.9v-10.26h-3.9v-3.9h8.1v52.26ZM316.08,1431.15h-4.2v-52.26h4.2v52.26Z"/><path class="cls-11" d="M362.64,1431.81h-4.2v-11.58h-37.92v-3.9h14.58v-9.96c-2.16-.28-4.06-.95-5.7-2.01-1.64-1.06-2.92-2.42-3.84-4.08-.92-1.66-1.38-3.53-1.38-5.61,0-2.36.56-4.44,1.68-6.24,1.12-1.8,2.65-3.21,4.59-4.23,1.94-1.02,4.17-1.53,6.69-1.53,2.52.08,4.74.66,6.66,1.74s3.43,2.5,4.53,4.26c1.1,1.76,1.65,3.76,1.65,6,0,3.12-.98,5.74-2.94,7.86-1.96,2.12-4.54,3.4-7.74,3.84v9.96h19.14v-33.66h-3.9v-3.9h8.1v22.14h8.4v3.9h-8.4v27ZM328.38,1394.67c0,2.32.82,4.21,2.46,5.67,1.64,1.46,3.74,2.19,6.3,2.19s4.59-.73,6.21-2.19c1.62-1.46,2.43-3.35,2.43-5.67s-.81-4.3-2.43-5.82-3.69-2.28-6.21-2.28-4.66.76-6.3,2.28-2.46,3.46-2.46,5.82Z"/><path class="cls-11" d="M431.34,1416.27h-24.12v-32.22h4.2v13.62h15.72v-13.62h4.2v32.22ZM411.42,1401.57v10.8h15.72v-10.8h-15.72ZM447.24,1431.27h-4.2v-49.68h-3.9v-3.6h8.1v53.28Z"/><path class="cls-11" d="M457.68,1410.15l-2.7-2.82,13.14-10.98v-9.96h-11.28v-3.9h27.24v3.9h-11.76v10.14l13.32,10.8-2.7,2.82-12.84-10.38-12.42,10.38ZM465,1430.73v-17.4h4.2v13.5h31.56v3.9h-35.76ZM493.5,1396.59h-12.9v-3.9h12.9v-11.04h-3.9v-3.6h8.1v39.84h-4.2v-21.3Z"/><path class="cls-11" d="M553.26,1425.27h-48.66v-3.9h48.66v3.9ZM528.96,1411.59c-3.2,0-6.1-.62-8.7-1.86-2.6-1.24-4.66-2.91-6.18-5.01-1.52-2.1-2.28-4.45-2.28-7.05s.76-4.96,2.28-7.08c1.52-2.12,3.58-3.8,6.18-5.04,2.6-1.24,5.5-1.86,8.7-1.86s6.1.62,8.7,1.86c2.6,1.24,4.66,2.92,6.18,5.04,1.52,2.12,2.28,4.48,2.28,7.08s-.76,4.95-2.28,7.05c-1.52,2.1-3.58,3.77-6.18,5.01-2.6,1.24-5.5,1.86-8.7,1.86ZM516,1397.67c0,1.88.58,3.58,1.74,5.1,1.16,1.52,2.72,2.72,4.68,3.6,1.96.88,4.14,1.32,6.54,1.32s4.63-.44,6.57-1.32c1.94-.88,3.49-2.08,4.65-3.6,1.16-1.52,1.74-3.22,1.74-5.1s-.58-3.58-1.74-5.1c-1.16-1.52-2.71-2.73-4.65-3.63-1.94-.9-4.13-1.35-6.57-1.35s-4.58.45-6.54,1.35c-1.96.9-3.52,2.11-4.68,3.63-1.16,1.52-1.74,3.22-1.74,5.1Z"/><path class="cls-11" d="M562.32,1408.17v-15.12h29.88v-6.12h-29.88v-3.9h34.08v13.92h-29.88v7.32h29.88v3.9h-14.82v13.5h22.26v3.9h-48.72v-3.9h22.26v-13.5h-15.06Z"/><path class="cls-11" d="M668.58,1388.79h-29.64v-3.9h12.72v-6.72h4.2v6.72h12.72v3.9ZM641.76,1400.97c0-1.92.53-3.6,1.59-5.04,1.06-1.44,2.52-2.57,4.38-3.39,1.86-.82,4.01-1.23,6.45-1.23s4.52.41,6.36,1.23c1.84.82,3.28,1.95,4.32,3.39,1.04,1.44,1.56,3.12,1.56,5.04s-.52,3.54-1.56,4.98c-1.04,1.44-2.48,2.57-4.32,3.39-1.84.82-3.96,1.23-6.36,1.23s-4.59-.41-6.45-1.23c-1.86-.82-3.32-1.95-4.38-3.39-1.06-1.44-1.59-3.1-1.59-4.98ZM645.54,1422.99c0-3,1.52-5.31,4.56-6.93,3.04-1.62,7.38-2.43,13.02-2.43,5.48-.04,9.68.75,12.6,2.37,2.92,1.62,4.38,3.95,4.38,6.99s-1.46,5.31-4.38,6.93c-2.92,1.62-7.12,2.43-12.6,2.43s-9.98-.81-13.02-2.43c-3.04-1.62-4.56-3.93-4.56-6.93ZM645.96,1401.03c0,1.64.77,2.99,2.31,4.05,1.54,1.06,3.51,1.59,5.91,1.59s4.29-.52,5.79-1.56,2.25-2.36,2.25-3.96c0-1.76-.75-3.19-2.25-4.29-1.5-1.1-3.43-1.65-5.79-1.65s-4.37.54-5.91,1.62c-1.54,1.08-2.31,2.48-2.31,4.2ZM649.74,1422.99c0,1.72,1.16,3.06,3.48,4.02,2.32.96,5.62,1.44,9.9,1.44s7.28-.48,9.48-1.44c2.2-.96,3.3-2.3,3.3-4.02s-1.1-3.11-3.3-4.05c-2.2-.94-5.36-1.41-9.48-1.41s-7.58.47-9.9,1.41c-2.32.94-3.48,2.29-3.48,4.05ZM679.08,1412.67h-4.2v-30h-3.9v-3.9h8.1v9.3h8.58v3.9h-8.58v7.56h8.58v3.9h-8.58v9.24Z"/><path class="cls-11" d="M719.34,1391.67h-30.54v-3.9h13.2v-8.82h4.2v8.82h13.14v3.9ZM704.1,1419.39c-2.32,0-4.42-.52-6.3-1.56-1.88-1.04-3.37-2.43-4.47-4.17-1.1-1.74-1.65-3.69-1.65-5.85s.55-4.17,1.65-5.91c1.1-1.74,2.59-3.13,4.47-4.17,1.88-1.04,3.98-1.56,6.3-1.56s4.35.52,6.21,1.56c1.86,1.04,3.33,2.43,4.41,4.17,1.08,1.74,1.62,3.71,1.62,5.91s-.54,4.11-1.62,5.85-2.55,3.13-4.41,4.17c-1.86,1.04-3.93,1.56-6.21,1.56ZM695.88,1407.93c0,1.4.36,2.68,1.08,3.84.72,1.16,1.71,2.07,2.97,2.73s2.65.99,4.17.99,2.88-.33,4.08-.99c1.2-.66,2.16-1.56,2.88-2.7.72-1.14,1.08-2.39,1.08-3.75,0-1.48-.36-2.82-1.08-4.02-.72-1.2-1.68-2.16-2.88-2.88-1.2-.72-2.56-1.08-4.08-1.08s-2.91.35-4.17,1.05c-1.26.7-2.25,1.64-2.97,2.82-.72,1.18-1.08,2.51-1.08,3.99ZM724.08,1381.89h-3.9v-3.9h8.1v21.66h10.8v3.9h-10.8v27.72h-4.2v-49.38Z"/><path class="cls-11" d="M786.9,1409.01h-47.88v-3.9h47.88v3.9ZM781.98,1430.13h-36.9v-15.54h4.2v11.64h32.7v3.9ZM780.36,1397.97h-33.84v-18.36h4.2v14.46h29.64v3.9Z"/><path class="cls-11" d="M112.8,1518.78h-4.2v-21.6h-13.98c-1.12,1.92-2.63,3.41-4.53,4.47s-4.09,1.59-6.57,1.59c-2.76,0-5.15-.64-7.17-1.92-2.02-1.28-3.58-3.09-4.68-5.43-1.1-2.34-1.65-5.11-1.65-8.31,0-4.88,1.22-8.73,3.66-11.55,2.44-2.82,5.72-4.23,9.84-4.23,2.76.16,5.15.91,7.17,2.25,2.02,1.34,3.55,3.17,4.59,5.49h13.32v-10.38h-3.9v-3.9h8.1v53.52ZM74.22,1487.58c0,3.6.84,6.46,2.52,8.58s3.94,3.18,6.78,3.18,5.08-1.06,6.72-3.18,2.46-4.98,2.46-8.58-.82-6.58-2.46-8.7c-1.64-2.12-3.88-3.18-6.72-3.18s-5.1,1.06-6.78,3.18c-1.68,2.12-2.52,5.02-2.52,8.7ZM96.9,1487.58c0,2.04-.24,3.94-.72,5.7h12.42v-9.84h-12.06c.24,1.32.36,2.7.36,4.14Z"/><path class="cls-11" d="M123.3,1495.86l-2.64-2.88,13.14-12.18v-7.86h-12.6v-3.9h28.74v3.9h-11.94v7.86l13.14,12.18-2.64,2.88-12.6-11.7-12.6,11.7ZM128.4,1509c0-3.04,1.6-5.45,4.8-7.23s7.52-2.67,12.96-2.67c3.64-.04,6.79.35,9.45,1.17s4.72,1.97,6.18,3.45c1.46,1.48,2.19,3.24,2.19,5.28s-.73,3.75-2.19,5.25c-1.46,1.5-3.52,2.65-6.18,3.45-2.66.8-5.81,1.2-9.45,1.2-5.44,0-9.76-.89-12.96-2.67-3.2-1.78-4.8-4.19-4.8-7.23ZM132.6,1509c0,1.84,1.22,3.3,3.66,4.38,2.44,1.08,5.74,1.62,9.9,1.62s7.47-.54,9.93-1.62,3.69-2.54,3.69-4.38-1.23-3.3-3.69-4.38-5.77-1.62-9.93-1.62-7.46.54-9.9,1.62c-2.44,1.08-3.66,2.54-3.66,4.38ZM159,1483.2h-10.8v-3.9h10.8v-10.08h-3.9v-3.9h8.1v31.98h-4.2v-14.1Z"/><path class="cls-11" d="M208.98,1506.06h-38.34v-3.9h38.28l-.06-33.54h-3.96v-3.9h8.28v53.76h-4.2v-12.42ZM174.66,1481.94c0-2.2.59-4.2,1.77-6,1.18-1.8,2.76-3.25,4.74-4.35,1.98-1.1,4.13-1.65,6.45-1.65,2.32.08,4.45.69,6.39,1.83,1.94,1.14,3.5,2.6,4.68,4.38,1.18,1.78,1.77,3.71,1.77,5.79s-.59,4.08-1.77,5.88-2.74,3.24-4.68,4.32c-1.94,1.08-4.07,1.62-6.39,1.62s-4.47-.54-6.45-1.62-3.56-2.52-4.74-4.32-1.77-3.76-1.77-5.88ZM178.86,1481.94c0,1.4.4,2.7,1.2,3.9s1.87,2.16,3.21,2.88c1.34.72,2.79,1.08,4.35,1.08s3-.36,4.32-1.08c1.32-.72,2.37-1.68,3.15-2.88.78-1.2,1.17-2.5,1.17-3.9,0-1.48-.39-2.83-1.17-4.05-.78-1.22-1.83-2.2-3.15-2.94s-2.76-1.11-4.32-1.11-3.01.37-4.35,1.11-2.41,1.72-3.21,2.94c-.8,1.22-1.2,2.57-1.2,4.05Z"/><path class="cls-11" d="M288.96,1464.36h7.5v28.5h-4.2v-11.58h-15.06c-.68,1-1.41,1.98-2.19,2.94s-1.61,1.84-2.49,2.64c-1.88,1.76-4.09,3.29-6.63,4.59-2.54,1.3-5.19,2.25-7.95,2.85l-1.98-3.6c2.48-.56,4.89-1.42,7.23-2.58,2.34-1.16,4.33-2.5,5.97-4.02.48-.44.95-.9,1.41-1.38.46-.48.89-.96,1.29-1.44h-16.02v-3.9h18.72c1-1.84,1.66-3.72,1.98-5.64h-18.84v-4.08h23.52v1.08c0,1.48-.17,2.95-.51,4.41-.34,1.46-.81,2.87-1.41,4.23h12.96v-9.12h-3.3v-3.9ZM298.32,1518.18h-35.88v-13.08h29.58v-5.7h-29.58v-3.72h33.78v13.32h-29.58v5.28h31.68v3.9Z"/><path class="cls-11" d="M316.44,1477.86h-11.34v-3.6h11.34v-8.22h4.2v8.22h12.48v3.6h-12.48v10.08l14.34,17.46-3,2.46-13.32-16.2-12.84,16.2-3.06-2.4,13.68-17.28v-10.32ZM342.18,1489.8h-11.64v-3.9h11.64v-17.34h-3.9v-3.6h8.1v53.46h-4.2v-28.62Z"/><path class="cls-11" d="M379.98,1494.48h-23.82v-24.96h19.68v3.9h-15.48v17.16h19.62v3.9ZM393.72,1504.56h-29.88v-3.9h34.08v17.82h-4.2v-13.92ZM384.24,1483.44h-10.98v-3.9h10.98v-10.32h-3.9v-3.9h8.1v31.74h-4.2v-13.62ZM398.1,1497.06h-4.2v-31.74h4.2v31.74Z"/><path class="cls-11" d="M452.22,1492.38h-48.24v-3.9h48.24v3.9ZM442.02,1500.84h-31.74v-3.9h35.94v12.54h-31.74v5.04h33.36v3.9h-37.56v-12.84h31.74v-4.74ZM411.12,1475.28c0-1.84.72-3.47,2.16-4.89,1.44-1.42,3.45-2.53,6.03-3.33,2.58-.8,5.53-1.2,8.85-1.2s6.32.4,8.88,1.2c2.56.8,4.56,1.91,6,3.33,1.44,1.42,2.16,3.05,2.16,4.89s-.72,3.48-2.16,4.92c-1.44,1.44-3.44,2.56-6,3.36-2.56.8-5.52,1.2-8.88,1.2s-6.27-.4-8.85-1.2c-2.58-.8-4.59-1.92-6.03-3.36-1.44-1.44-2.16-3.08-2.16-4.92ZM415.32,1475.28c0,1.08.55,2.05,1.65,2.91,1.1.86,2.61,1.53,4.53,2.01,1.92.48,4.14.72,6.66.72s4.75-.24,6.69-.72c1.94-.48,3.45-1.15,4.53-2.01s1.62-1.83,1.62-2.91-.54-2.03-1.62-2.85c-1.08-.82-2.59-1.46-4.53-1.92-1.94-.46-4.17-.69-6.69-.69s-4.74.23-6.66.69c-1.92.46-3.43,1.1-4.53,1.92-1.1.82-1.65,1.77-1.65,2.85Z"/><path class="cls-11" d="M513.06,1493.64h-23.4v-24.18h23.4v24.18ZM493.86,1473.36v16.38h15v-16.38h-15ZM531.78,1517.22h-35.04v-17.76h4.2v13.86h30.84v3.9ZM523.56,1468.62h-3.9v-3.9h8.1v16.44h8.58v3.9h-8.58v18.96h-4.2v-35.4Z"/><path class="cls-11" d="M585.78,1493.34h-48.66v-3.9h48.66v3.9ZM579.6,1517.34h-35.34v-11.64h30.6v-3.6h-30.6v-3.9h34.8v11.1h-30.6v4.14h31.14v3.9ZM577.98,1485.24h-33.6v-17.76h33.6v3.72h-29.58v10.32h29.58v3.72Z"/><path class="cls-11" d="M591.96,1518.72l-2.88-2.52,11.16-10.14v-7.92h4.08v7.98l8.4,7.14,8.52-7.32v-7.8h4.2v8.16l11.04,10.02-2.88,2.52-10.5-9.54-10.38,8.94h-.06l-10.38-8.94-10.32,9.42ZM603,1493.52c-2.52,0-4.74-.53-6.66-1.59-1.92-1.06-3.42-2.54-4.5-4.44-1.08-1.9-1.62-4.07-1.62-6.51s.54-4.51,1.62-6.33,2.58-3.24,4.5-4.26c1.92-1.02,4.14-1.53,6.66-1.53,3.2,0,5.89.84,8.07,2.52,2.18,1.68,3.57,3.92,4.17,6.72h11.16v-9h-3.9v-3.9h8.1v30.54h-4.2v-13.74h-10.92c-.12,2.28-.73,4.28-1.83,6-1.1,1.72-2.56,3.07-4.38,4.05-1.82.98-3.91,1.47-6.27,1.47ZM594.42,1481.04c0,2.52.79,4.58,2.37,6.18,1.58,1.6,3.61,2.4,6.09,2.4s4.51-.8,6.09-2.4c1.58-1.6,2.37-3.68,2.37-6.24,0-2.4-.77-4.37-2.31-5.91-1.54-1.54-3.55-2.31-6.03-2.31s-4.58.77-6.18,2.31c-1.6,1.54-2.4,3.53-2.4,5.97Z"/><path class="cls-11" d="M685.5,1511.4h-46.5v-3.9h18.54v-19.02h4.2v19.02h13.26v-33.9h-29.88v-3.9h34.08v37.8h6.3v3.9Z"/></svg>