<?xml version="1.0" encoding="UTF-8"?><svg id="_레이어_1" xmlns="http://www.w3.org/2000/svg" viewBox="0 0 1080 1920"><defs><style>.cls-1,.cls-2{fill:#fff;}.cls-3,.cls-2{stroke:#000;stroke-miterlimit:10;stroke-width:2px;}.cls-4{fill:#004638;}</style></defs><rect class="cls-4" x="-420" y="420" width="1920" height="1080" transform="translate(1500 420) rotate(90)"/><rect class="cls-3" x="271.17" y="892.04" width="537.67" height="123.77"/><rect class="cls-2" x="271.17" y="882.04" width="537.67" height="123.77"/><path d="M387.87,943.92c3.56-.96,6.77-2.33,9.63-4.11,2.86-1.78,5.25-3.93,7.17-6.45,1.92-2.52,3.2-5.36,3.84-8.52h-19.08v-3.9h23.7c0,3.36-.64,6.49-1.92,9.39-1.28,2.9-3.03,5.52-5.25,7.86-2.22,2.34-4.79,4.34-7.71,6s-6.02,2.93-9.3,3.81l-1.08-4.08ZM428.25,970.87h-34.62v-21.72h33.12v3.9h-28.92v4.8h27.96v3.9h-27.96v5.22h30.42v3.9ZM418.29,917.41h8.1v12.24h9v3.9h-9v12.9h-4.2v-25.14h-3.9v-3.9Z"/><path d="M438.33,941.34c0-3.48.54-6.49,1.62-9.03,1.08-2.54,2.63-4.5,4.65-5.88,2.02-1.38,4.41-2.07,7.17-2.07,2.72.08,5.08.83,7.08,2.25,2,1.42,3.54,3.38,4.62,5.88s1.62,5.45,1.62,8.85-.54,6.42-1.62,8.94c-1.08,2.52-2.62,4.46-4.62,5.82-2,1.36-4.36,2.04-7.08,2.04s-5.15-.68-7.17-2.04c-2.02-1.36-3.57-3.3-4.65-5.82-1.08-2.52-1.62-5.5-1.62-8.94ZM442.53,941.34c0,3.96.83,7.1,2.49,9.42,1.66,2.32,3.91,3.48,6.75,3.48s5.02-1.16,6.66-3.48c1.64-2.32,2.46-5.46,2.46-9.42s-.82-7.23-2.46-9.57c-1.64-2.34-3.86-3.51-6.66-3.51s-5.09,1.17-6.75,3.51c-1.66,2.34-2.49,5.53-2.49,9.57ZM479.37,970.99h-4.2v-49.38h-3.9v-3.9h8.1v53.28Z"/><path d="M545.97,931.33h-27.06v-3.9h11.34v-8.28h4.2v8.28h11.52v3.9ZM532.23,957.37c-2.16,0-4.11-.49-5.85-1.47-1.74-.98-3.12-2.3-4.14-3.96-1.02-1.66-1.53-3.51-1.53-5.55s.51-3.95,1.53-5.61c1.02-1.66,2.4-2.98,4.14-3.96,1.74-.98,3.69-1.47,5.85-1.47s4.04.49,5.76,1.47,3.08,2.3,4.08,3.96,1.5,3.53,1.5,5.61-.5,3.89-1.5,5.55c-1,1.66-2.36,2.98-4.08,3.96-1.72.98-3.64,1.47-5.76,1.47ZM524.91,946.5c0,1.28.33,2.45.99,3.51.66,1.06,1.54,1.9,2.64,2.52s2.33.93,3.69.93c2,0,3.69-.66,5.07-1.98,1.38-1.32,2.07-2.94,2.07-4.86,0-2.08-.69-3.83-2.07-5.25-1.38-1.42-3.07-2.13-5.07-2.13-1.36,0-2.59.32-3.69.96-1.1.64-1.98,1.51-2.64,2.61s-.99,2.33-.99,3.69ZM548.31,921.6h-3.3v-3.9h7.5v22.44h7.02v-22.44h4.2v53.16h-4.2v-26.82h-7.02v26.82h-4.2v-49.26Z"/><path d="M616.71,965.04h-47.46v-3.9h22.2v-12.66h-14.94v-25.74h4.2v9.96h25.68v-9.96h4.2v25.74h-14.94v12.66h21.06v3.9ZM580.71,936.6v7.98h25.68v-7.98h-25.68Z"/><path d="M635.25,928.57h-12.42v-3.9h28.98v3.9h-12.36v12.84l14.28,17.4-3,2.46-13.32-16.2-12.84,16.2-3.06-2.4,13.74-17.34v-12.96ZM659.37,921.79h-3.9v-3.9h8.1v21.54h9.78v3.9h-9.78v27.84h-4.2v-49.38Z"/><path d="M675.27,964.08v-6.66h6.66v6.66h-6.66Z"/><path class="cls-1" d="M371.98,1053.67h-12.56v-2.28h27.58v2.28h-12.57v10.67h-2.45v-10.67ZM363.2,1046.74v-2.27l.04-8.92h2.45l-.03,8.92h17.43v2.27h-19.88Z"/><path class="cls-1" d="M416.82,1061.09h-28.42v-2.28h28.42v2.28ZM392.6,1052.34v-9.87h17.43v-3.92h-17.43v-2.28h19.88v8.47h-17.43v5.32h17.43v2.28h-19.88Z"/><path class="cls-1" d="M438.8,1033.16h4.38v22.93h-2.45v-8.33h-7.25v2.62h-13.89v-14.32h13.89v2.7h7.25v-3.33h-1.93v-2.28ZM422.03,1038.34v9.76h8.99v-9.76h-8.99ZM444.33,1063.92h-20.72v-10.04h2.45v7.77h18.27v2.28ZM433.48,1041.03v4.45h7.25v-4.45h-7.25Z"/><path class="cls-1" d="M467.36,1048.63c2.08-.56,3.95-1.36,5.62-2.4,1.67-1.04,3.06-2.29,4.18-3.76s1.87-3.13,2.24-4.97h-11.13v-2.28h13.83c0,1.96-.38,3.79-1.12,5.48-.75,1.69-1.77,3.22-3.06,4.58s-2.79,2.53-4.5,3.5c-1.71.97-3.51,1.71-5.43,2.22l-.63-2.38ZM490.91,1064.34h-20.2v-12.67h19.32v2.27h-16.87v2.8h16.31v2.27h-16.31v3.04h17.75v2.28ZM485.1,1033.16h4.72v7.14h5.25v2.27h-5.25v7.53h-2.45v-14.67h-2.28v-2.28Z"/><path class="cls-1" d="M496.79,1047.12c0-2.03.32-3.79.95-5.27.63-1.48,1.54-2.62,2.71-3.43,1.18-.8,2.57-1.21,4.18-1.21,1.59.05,2.96.48,4.13,1.31,1.17.83,2.06,1.97,2.7,3.43.63,1.46.95,3.18.95,5.16s-.32,3.75-.95,5.21c-.63,1.47-1.53,2.6-2.7,3.39-1.17.79-2.54,1.19-4.13,1.19s-3-.4-4.18-1.19c-1.18-.79-2.08-1.92-2.71-3.39-.63-1.47-.95-3.21-.95-5.21ZM499.24,1047.12c0,2.31.48,4.14,1.45,5.5s2.28,2.03,3.94,2.03,2.93-.68,3.88-2.03,1.44-3.19,1.44-5.5-.48-4.22-1.44-5.58-2.25-2.05-3.88-2.05-2.97.68-3.94,2.05-1.45,3.23-1.45,5.58ZM520.73,1064.41h-2.45v-28.81h-2.28v-2.27h4.73v31.08Z"/><path class="cls-1" d="M561.89,1041.31h-17.81v-2.27h7.7v-5.15h2.45v5.15h7.67v2.27ZM553,1057.48c-1.35,0-2.58-.3-3.67-.91-1.1-.61-1.97-1.42-2.61-2.43-.64-1.02-.96-2.15-.96-3.41s.32-2.43.96-3.45c.64-1.01,1.51-1.83,2.61-2.43,1.1-.61,2.32-.91,3.67-.91s2.54.3,3.62.91c1.08.61,1.94,1.42,2.57,2.43s.95,2.16.95,3.45-.31,2.4-.95,3.41c-.63,1.01-1.49,1.83-2.57,2.43-1.09.61-2.29.91-3.62.91ZM548.21,1050.8c0,.82.21,1.56.63,2.24s1,1.21,1.73,1.59c.73.39,1.54.58,2.43.58s1.68-.19,2.38-.58c.7-.38,1.26-.91,1.68-1.57.42-.67.63-1.39.63-2.19,0-.86-.21-1.65-.63-2.35s-.98-1.26-1.68-1.68c-.7-.42-1.49-.63-2.38-.63s-1.7.2-2.43.61c-.74.41-1.31.96-1.73,1.64-.42.69-.63,1.46-.63,2.33ZM564.66,1035.61h-2.28v-2.27h4.72v12.63h6.3v2.28h-6.3v16.17h-2.45v-28.81Z"/><path class="cls-1" d="M601.3,1051.43h-27.93v-2.28h27.93v2.28ZM598.43,1063.75h-21.53v-9.07h2.45v6.79h19.08v2.28ZM597.49,1044.99h-19.74v-10.71h2.45v8.44h17.29v2.27Z"/><path class="cls-1" d="M622.3,1049.05c1.03-.21,2.19-.62,3.48-1.23,1.29-.61,2.57-1.38,3.83-2.33s2.37-2.03,3.32-3.25,1.62-2.57,2-4.04h-11.34v-2.45h13.69c0,1.12-.12,2.18-.37,3.18-.24,1-.58,1.95-1,2.83h8.71v-5.71h-2.27v-2.27h4.72v16.83h-2.45v-6.58h-10.08c-.96,1.28-2.06,2.4-3.32,3.36-1.26.96-2.58,1.75-3.96,2.38-1.38.63-2.72,1.1-4.03,1.4l-.95-2.13ZM647.22,1064.62h-19.88v-12.46h2.45v3.92h14.98v-3.92h2.45v12.46ZM629.79,1058.36v3.99h14.98v-3.99h-14.98Z"/><path class="cls-1" d="M673.44,1055.52h-20.27l.07-19.63h2.45l-.07,17.36h17.82v-17.82h-1.93v-2.1h4.38v31.08h-2.45v-8.89Z"/><path class="cls-1" d="M701.65,1055.91h-19.71l.07-17.18v-1.29h14.11v2.28h-11.66l-.07,13.93h17.26v-18.2h-2.28v-2.28h4.72v12.43h5.39v2.27h-5.39v16.35h-2.45v-8.3Z"/><path class="cls-1" d="M709.91,1060.39v-3.88h3.88v3.88h-3.88Z"/></svg>