<?xml version="1.0" encoding="UTF-8"?><svg id="_레이어_1" xmlns="http://www.w3.org/2000/svg" viewBox="0 0 1080 1920"><defs><style>.cls-1{stroke-width:1.88px;}.cls-1,.cls-2,.cls-3,.cls-4,.cls-5,.cls-6,.cls-7,.cls-8,.cls-9,.cls-10,.cls-11,.cls-12{fill:#fff;stroke:#000;stroke-miterlimit:10;}.cls-2{stroke-width:1.85px;}.cls-3{stroke-width:1.86px;}.cls-4{stroke-width:2.03px;}.cls-5{stroke-width:2.05px;}.cls-6{stroke-width:1.82px;}.cls-7{stroke-width:1.78px;}.cls-8{stroke-width:1.93px;}.cls-9{stroke-width:2.07px;}.cls-13{fill:#0000fe;}.cls-10{stroke-width:2.17px;}.cls-11{stroke-width:2.15px;}.cls-12{stroke-width:2.04px;}</style></defs><rect x="-420" y="420" width="1920" height="1080" transform="translate(1500 420) rotate(90)"/><rect class="cls-6" x="66.99" y="64.97" width="687.76" height="83.74"/><rect class="cls-9" x="66.99" y="148.7" width="892.16" height="83.74"/><rect class="cls-8" x="66.99" y="324.99" width="773.83" height="83.74"/><rect class="cls-1" x="66.99" y="408.73" width="735.73" height="83.74"/><rect class="cls-12" x="66.99" y="583.02" width="867.3" height="83.74"/><rect class="cls-7" x="66.99" y="666.76" width="655.69" height="83.74"/><rect class="cls-10" x="66.99" y="846.05" width="972.97" height="83.74"/><rect class="cls-4" x="66.99" y="929.78" width="852.51" height="83.74"/><rect class="cls-3" x="66.99" y="1103.07" width="713.78" height="83.74"/><rect class="cls-5" x="66.99" y="1186.81" width="875.59" height="83.74"/><rect class="cls-11" x="66.99" y="1365.1" width="955.36" height="83.74"/><rect class="cls-2" x="66.99" y="1448.83" width="712.94" height="83.74"/><path class="cls-13" d="M72.84,120.17l-3-2.64,13.86-15.78v-13.92h-12.12v-3.9h28.62v3.9h-12.3v13.92l13.86,15.78-3,2.64-12.96-14.7-12.96,14.7ZM112.8,131.27h-4.2v-49.38h-3.9v-3.9h8.1v53.28Z"/><path class="cls-13" d="M126.72,108.17v-15.12h29.88v-6.12h-29.88v-3.9h34.08v13.92h-29.88v7.32h29.88v3.9h-14.82v13.5h22.26v3.9h-48.72v-3.9h22.26v-13.5h-15.06Z"/><path class="cls-13" d="M211.44,131.81h-4.2v-11.58h-37.92v-3.9h14.58v-9.96c-2.16-.28-4.06-.95-5.7-2.01-1.64-1.06-2.92-2.42-3.84-4.08-.92-1.66-1.38-3.53-1.38-5.61,0-2.36.56-4.44,1.68-6.24,1.12-1.8,2.65-3.21,4.59-4.23,1.94-1.02,4.17-1.53,6.69-1.53,2.52.08,4.74.66,6.66,1.74,1.92,1.08,3.43,2.5,4.53,4.26,1.1,1.76,1.65,3.76,1.65,6,0,3.12-.98,5.74-2.94,7.86-1.96,2.12-4.54,3.4-7.74,3.84v9.96h19.14v-33.66h-3.9v-3.9h8.1v22.14h8.4v3.9h-8.4v27ZM177.18,94.67c0,2.32.82,4.21,2.46,5.67,1.64,1.46,3.74,2.19,6.3,2.19s4.59-.73,6.21-2.19c1.62-1.46,2.43-3.35,2.43-5.67s-.81-4.3-2.43-5.82c-1.62-1.52-3.69-2.28-6.21-2.28s-4.66.76-6.3,2.28c-1.64,1.52-2.46,3.46-2.46,5.82Z"/><path class="cls-13" d="M270.3,124.37h-4.86v-38.4h-13.8v-4.2h32.82v4.2h-14.16v38.4Z"/><path class="cls-13" d="M333.96,125.27h-48.9v-3.9h48.9v3.9ZM290.94,109.01l-2.1-3.3,18.48-12.72v-10.8h4.2v10.8l18.48,12.72-2.1,3.3-18.48-12.72-18.48,12.72Z"/><path class="cls-13" d="M379.2,131.27h-4.2v-34.56h-13.98v4.62h-17.76v12.36h23.58v3.9h-27.78v-20.16h17.76v-10.02h-17.76v-3.9h21.96v9.3h13.98v-10.32h-3.9v-3.9h8.1v52.68Z"/><path class="cls-13" d="M408.18,109.85h-21.9v-3.9h47.94v3.9h-21.84v11.04h-4.2v-11.04ZM392.64,130.91v-15.36h4.2v11.46h31.62v3.9h-35.82ZM393.54,90.53c0-3.28,1.51-5.87,4.53-7.77,3.02-1.9,7.09-2.85,12.21-2.85s9.19.95,12.21,2.85c3.02,1.9,4.53,4.49,4.53,7.77s-1.51,5.88-4.53,7.8c-3.02,1.92-7.09,2.88-12.21,2.88s-9.19-.96-12.21-2.88c-3.02-1.92-4.53-4.52-4.53-7.8ZM397.74,90.59c0,2.08,1.13,3.73,3.39,4.95,2.26,1.22,5.31,1.83,9.15,1.83s6.89-.61,9.15-1.83c2.26-1.22,3.39-2.87,3.39-4.95s-1.13-3.72-3.39-4.92c-2.26-1.2-5.31-1.8-9.15-1.8s-6.89.6-9.15,1.8c-2.26,1.2-3.39,2.84-3.39,4.92Z"/><path class="cls-13" d="M471.3,120.05l-3.06-2.4,13.92-17.58v-17.04h4.2v17.04l13.98,17.58-3.12,2.4-12.96-16.32-12.96,16.32ZM509.4,131.27h-4.2v-49.68h-3.9v-3.6h8.1v20.4h8.88v3.9h-8.88v28.98Z"/><path class="cls-13" d="M560.76,111.29h-4.2v-3.9h-34.98v-15.96h19.68v-5.76h-20.1v-3.6h24.3v13.26h-19.68v8.34h30.78v-22.14h-3.9v-3.6h8.1v14.94h7.56v3.9h-7.56v14.52ZM560.94,131.45h-34.14v-17.7h34.14v17.7ZM530.7,117.35v10.5h26.34v-10.5h-26.34Z"/><path class="cls-13" d="M618.18,106.67h-48.66v-3.9h48.66v3.9ZM612,130.67h-35.34v-11.64h30.6v-3.6h-30.6v-3.9h34.8v11.1h-30.6v4.14h31.14v3.9ZM610.38,98.57h-33.6v-17.76h33.6v3.72h-29.58v10.32h29.58v3.72Z"/><path class="cls-13" d="M620.82,116.57c2.44-3,4.45-5.94,6.03-8.82,1.58-2.88,2.8-5.89,3.66-9.03.86-3.14,1.41-6.59,1.65-10.35h-9.84v-3.9h28.38c-.04,4-.22,7.67-.54,11.01s-.86,6.48-1.62,9.42c-.76,2.94-1.84,5.82-3.24,8.64-1.4,2.82-3.18,5.73-5.34,8.73l-3.54-2.22c2.4-3.4,4.3-6.69,5.7-9.87,1.4-3.18,2.43-6.52,3.09-10.02.66-3.5,1.07-7.43,1.23-11.79h-10.32c-.2,4.36-.73,8.29-1.59,11.79s-2.13,6.8-3.81,9.9c-1.68,3.1-3.88,6.19-6.6,9.27l-3.3-2.76ZM663.3,131.81h-4.2v-49.56h-3.9v-3.9h8.1v53.46Z"/><path class="cls-13" d="M709.86,118.19h-36.06l.12-17.94v-2.22h19.8v-11.4h-19.8v-3.9h24v19.2h-19.8l-.12,12.36h31.86v-32.4h-3.9v-3.9h8.1v53.28h-4.2v-13.08Z"/><path class="cls-13" d="M86.88,196.52h-17.76v-3.9h33.96v3.9h-12v8.76h-4.2v-8.76ZM71.94,177.86c0-2.2.53-4.15,1.59-5.85,1.06-1.7,2.53-3.04,4.41-4.02,1.88-.98,4.02-1.47,6.42-1.47,3.32,0,6.12.87,8.4,2.61,2.28,1.74,3.64,4.03,4.08,6.87h11.16v-7.38h-4.08v-3.6h8.28v41.4h-4.2v-26.52h-11.22c-.48,2.68-1.84,4.86-4.08,6.54-2.24,1.68-5.02,2.52-8.34,2.52-2.4,0-4.54-.48-6.42-1.44-1.88-.96-3.35-2.27-4.41-3.93-1.06-1.66-1.59-3.57-1.59-5.73ZM76.14,177.86c0,2.08.77,3.8,2.31,5.16,1.54,1.36,3.51,2.04,5.91,2.04s4.5-.68,6.06-2.04c1.56-1.36,2.34-3.08,2.34-5.16s-.8-3.94-2.4-5.34-3.66-2.1-6.18-2.1c-2.32,0-4.24.7-5.76,2.1-1.52,1.4-2.28,3.18-2.28,5.34ZM76.62,217.7v-16.5h4.2v12.6h34.26v3.9h-38.46Z"/><path class="cls-13" d="M124.68,195.62l-2.7-2.82,13.14-10.44v-7.68h-11.52v-3.72h11.52v-6.6h4.2v6.6h11.46v3.72h-11.46v7.86l13.32,10.26-2.7,2.82-12.9-9.84-12.36,9.84ZM158.64,203.66h-30.54v-3.9h34.74v18.72h-4.2v-14.82ZM158.58,168.62h-3.9v-3.9h8.1v32.1h-4.2v-28.2Z"/><path class="cls-13" d="M218.22,192.38h-48.24v-3.9h48.24v3.9ZM208.02,200.83h-31.74v-3.9h35.94v12.54h-31.74v5.04h33.36v3.9h-37.56v-12.84h31.74v-4.74ZM177.12,175.28c0-1.84.72-3.47,2.16-4.89,1.44-1.42,3.45-2.53,6.03-3.33,2.58-.8,5.53-1.2,8.85-1.2s6.32.4,8.88,1.2c2.56.8,4.56,1.91,6,3.33,1.44,1.42,2.16,3.05,2.16,4.89s-.72,3.48-2.16,4.92c-1.44,1.44-3.44,2.56-6,3.36-2.56.8-5.52,1.2-8.88,1.2s-6.27-.4-8.85-1.2c-2.58-.8-4.59-1.92-6.03-3.36-1.44-1.44-2.16-3.08-2.16-4.92ZM181.32,175.28c0,1.08.55,2.05,1.65,2.91,1.1.86,2.61,1.53,4.53,2.01,1.92.48,4.14.72,6.66.72s4.75-.24,6.69-.72c1.94-.48,3.45-1.15,4.53-2.01,1.08-.86,1.62-1.83,1.62-2.91s-.54-2.03-1.62-2.85c-1.08-.82-2.59-1.46-4.53-1.92-1.94-.46-4.17-.69-6.69-.69s-4.74.23-6.66.69c-1.92.46-3.43,1.1-4.53,1.92-1.1.82-1.65,1.77-1.65,2.85Z"/><path class="cls-13" d="M264.24,176h-10.26v-3.9h24.3v3.9h-9.84v12.3l10.98,13.98-3,2.46-10.14-13.08-11.4,13.92-2.94-2.58,12.3-14.88v-12.12ZM282.06,168.67h-4.08v-3.9h8.28v19.08h7.5v-19.08h4.2v53.04h-4.2v-30.06h-7.5v30.06h-4.2v-49.14Z"/><path class="cls-13" d="M306.9,195.86l-2.64-2.88,13.14-12.18v-7.86h-12.6v-3.9h28.74v3.9h-11.94v7.86l13.14,12.18-2.64,2.88-12.6-11.7-12.6,11.7ZM312,209c0-3.04,1.6-5.45,4.8-7.23,3.2-1.78,7.52-2.67,12.96-2.67,3.64-.04,6.79.35,9.45,1.17s4.72,1.97,6.18,3.45c1.46,1.48,2.19,3.24,2.19,5.28s-.73,3.75-2.19,5.25c-1.46,1.5-3.52,2.65-6.18,3.45-2.66.8-5.81,1.2-9.45,1.2-5.44,0-9.76-.89-12.96-2.67s-4.8-4.19-4.8-7.23ZM316.2,209c0,1.84,1.22,3.3,3.66,4.38,2.44,1.08,5.74,1.62,9.9,1.62s7.47-.54,9.93-1.62,3.69-2.54,3.69-4.38-1.23-3.3-3.69-4.38-5.77-1.62-9.93-1.62-7.46.54-9.9,1.62c-2.44,1.08-3.66,2.54-3.66,4.38ZM342.6,183.2h-10.8v-3.9h10.8v-10.08h-3.9v-3.9h8.1v31.98h-4.2v-14.1Z"/><path class="cls-13" d="M392.4,192.14h-35.82v-14.64h19.68v-6.24h-19.92v-3.78h24v13.8h-19.68v7.08h31.74v-20.34h-3.9v-3.3h8.1v29.52h-4.2v-2.1ZM396.66,217.28h-32.7v-20.82h4.2v7.14h24.3v-6.96h4.2v20.64ZM368.16,207.5v5.88h24.3v-5.88h-24.3Z"/><path class="cls-13" d="M434.94,178.33h-30.54v-3.9h13.2v-8.82h4.2v8.82h13.14v3.9ZM419.7,206.06c-2.32,0-4.42-.52-6.3-1.56-1.88-1.04-3.37-2.43-4.47-4.17-1.1-1.74-1.65-3.69-1.65-5.85s.55-4.17,1.65-5.91c1.1-1.74,2.59-3.13,4.47-4.17,1.88-1.04,3.98-1.56,6.3-1.56s4.35.52,6.21,1.56c1.86,1.04,3.33,2.43,4.41,4.17s1.62,3.71,1.62,5.91-.54,4.11-1.62,5.85-2.55,3.13-4.41,4.17c-1.86,1.04-3.93,1.56-6.21,1.56ZM411.48,194.59c0,1.4.36,2.68,1.08,3.84.72,1.16,1.71,2.07,2.97,2.73s2.65.99,4.17.99,2.88-.33,4.08-.99c1.2-.66,2.16-1.56,2.88-2.7.72-1.14,1.08-2.39,1.08-3.75,0-1.48-.36-2.82-1.08-4.02-.72-1.2-1.68-2.16-2.88-2.88-1.2-.72-2.56-1.08-4.08-1.08s-2.91.35-4.17,1.05-2.25,1.64-2.97,2.82c-.72,1.18-1.08,2.51-1.08,3.99ZM439.68,168.56h-3.9v-3.9h8.1v21.66h10.8v3.9h-10.8v27.72h-4.2v-49.38Z"/><path class="cls-13" d="M501.9,211.4h-46.5v-3.9h18.54v-19.02h4.2v19.02h13.26v-33.9h-29.88v-3.9h34.08v37.8h6.3v3.9Z"/><path class="cls-13" d="M517.74,217.88l-13.26-.06v-3.9l9.48.06v-3.18h-3.96v-6.6h7.74v13.68Z"/><path class="cls-13" d="M592.5,218.48h-4.2v-14.58h-22.26v-3.9h48.66v3.9h-22.2v14.58ZM608.64,175.52h-36.48v-3.9h16.2v-6.84h4.2v6.84h16.08v3.9ZM574.68,187.33c0-2.84,1.43-5.09,4.29-6.75,2.86-1.66,6.73-2.49,11.61-2.49s8.61.83,11.43,2.49c2.82,1.66,4.23,3.91,4.23,6.75s-1.41,5.01-4.23,6.63c-2.82,1.62-6.63,2.43-11.43,2.43s-8.75-.81-11.61-2.43c-2.86-1.62-4.29-3.83-4.29-6.63ZM578.88,187.28c0,1.6,1.04,2.87,3.12,3.81,2.08.94,4.9,1.41,8.46,1.41s6.38-.47,8.46-1.41c2.08-.94,3.12-2.21,3.12-3.81s-1.03-2.93-3.09-3.87c-2.06-.94-4.87-1.41-8.43-1.41s-6.39.47-8.49,1.41c-2.1.94-3.15,2.23-3.15,3.87Z"/><path class="cls-13" d="M664.5,195.44h-47.46v-3.9h21.54v-8.4h4.2v8.4h21.72v3.9ZM622.26,186.2l-1.86-3.42,18.36-10.86v-6.72h4.2v6.54l18.66,11.04-1.86,3.42-18.72-11.1-18.78,11.1ZM653.46,204.32h-29.88v-3.78h33.96v17.94h-4.08v-14.16Z"/><path class="cls-13" d="M694.2,170.42c.2,5.4-.65,10.47-2.55,15.21s-4.68,8.98-8.34,12.72c-3.66,3.74-8.05,6.85-13.17,9.33l-1.8-3.78c4.32-2.08,8.03-4.65,11.13-7.71,3.1-3.06,5.54-6.45,7.32-10.17,1.78-3.72,2.81-7.62,3.09-11.7h-19.62v-3.9h23.94ZM703.2,168.56h-3.9v-3.9h8.1v22.5h9.12v3.9h-9.12v27.42h-4.2v-49.92Z"/><path class="cls-13" d="M719.52,188.3c0-3.48.54-6.49,1.62-9.03,1.08-2.54,2.63-4.5,4.65-5.88,2.02-1.38,4.41-2.07,7.17-2.07,2.72.08,5.08.83,7.08,2.25,2,1.42,3.54,3.38,4.62,5.88s1.62,5.45,1.62,8.85-.54,6.42-1.62,8.94-2.62,4.46-4.62,5.82c-2,1.36-4.36,2.04-7.08,2.04s-5.15-.68-7.17-2.04c-2.02-1.36-3.57-3.3-4.65-5.82s-1.62-5.5-1.62-8.94ZM723.72,188.3c0,3.96.83,7.1,2.49,9.42,1.66,2.32,3.91,3.48,6.75,3.48s5.02-1.16,6.66-3.48c1.64-2.32,2.46-5.46,2.46-9.42s-.82-7.23-2.46-9.57c-1.64-2.34-3.86-3.51-6.66-3.51s-5.09,1.17-6.75,3.51c-1.66,2.34-2.49,5.53-2.49,9.57ZM760.56,217.94h-4.2v-49.38h-3.9v-3.9h8.1v53.28Z"/><path class="cls-13" d="M816.48,212.24h-48.9v-3.9h48.9v3.9ZM808.98,194.83h-34.08v-25.14h34.08v3.9h-29.88v17.34h29.88v3.9Z"/><path class="cls-13" d="M819.6,203.66c2.44-2.96,4.5-5.91,6.18-8.85s3-6.02,3.96-9.24c.96-3.22,1.56-6.75,1.8-10.59h-11.04v-3.9h28.08c-.04,4-.25,7.69-.63,11.07-.38,3.38-.99,6.58-1.83,9.6-.84,3.02-1.99,5.96-3.45,8.82-1.46,2.86-3.27,5.79-5.43,8.79l-3.54-2.22c2.4-3.4,4.35-6.73,5.85-9.99,1.5-3.26,2.63-6.68,3.39-10.26s1.22-7.55,1.38-11.91h-8.82c-.24,4.36-.83,8.34-1.77,11.94-.94,3.6-2.3,6.98-4.08,10.14-1.78,3.16-4.03,6.28-6.75,9.36l-3.3-2.76ZM859.56,217.88h-4.2v-48.12h-3.9v-3.9h8.1v21.06h8.88v3.9h-8.88v27.06Z"/><path class="cls-13" d="M872.22,206.83l-3-2.64,13.86-15.78v-13.92h-12.12v-3.9h28.62v3.9h-12.3v13.92l13.86,15.78-3,2.64-12.96-14.7-12.96,14.7ZM912.18,217.94h-4.2v-49.38h-3.9v-3.9h8.1v53.28Z"/><path class="cls-13" d="M117.96,385.27h-48.9v-3.9h48.9v3.9ZM74.94,369.01l-2.1-3.3,18.48-12.72v-10.8h4.2v10.8l18.48,12.72-2.1,3.3-18.48-12.72-18.48,12.72Z"/><path class="cls-13" d="M145.74,376.57h-24.24v-31.62h24.24v31.62ZM125.7,348.85v23.82h15.84v-23.82h-15.84ZM156,341.89h-3.9v-3.9h8.1v21.84h9.66v3.9h-9.66v27.54h-4.2v-49.38Z"/><path class="cls-13" d="M218.76,385.57h-49.2v-3.9h49.2v3.9ZM211.2,369.97h-34.08v-26.94h34.08v3.9h-29.88v7.62h29.88v3.9h-29.88v7.62h29.88v3.9Z"/><path class="cls-13" d="M269.16,385.27h-48.9v-3.9h48.9v3.9ZM226.14,369.01l-2.1-3.3,18.48-12.72v-10.8h4.2v10.8l18.48,12.72-2.1,3.3-18.48-12.72-18.48,12.72Z"/><path class="cls-13" d="M310.44,379.33h-36.84v-36.18h25.02v3.9h-20.82v11.82h18.36v3.9h-18.36v12.66h32.64v-12.66h-10.14v-3.9h10.14v-16.44h-3.9v-3.9h8.1v53.94h-4.2v-13.14Z"/><path class="cls-13" d="M359.7,377.59h-34.08l.12-31.26v-2.04h25.8v3.9h-21.6l-.12,25.5h29.88v-31.8h-3.9v-3.9h8.1v53.28h-4.2v-13.68Z"/><path class="cls-13" d="M390.24,348.73h-16.5v-3.9h20.7c.24,5.44-.54,10.48-2.34,15.12h9.12v-18.36h-3.9v-3.9h8.1v53.46h-4.2v-27.3h-10.92l-.54.96c-1.08,1.84-2.49,3.75-4.23,5.73-1.74,1.98-3.6,3.81-5.58,5.49s-3.91,3.04-5.79,4.08l-2.28-3.48c1.76-1.04,3.56-2.33,5.4-3.87,1.84-1.54,3.54-3.18,5.1-4.92,1.56-1.74,2.8-3.41,3.72-5.01,2.44-4.2,3.82-8.9,4.14-14.1ZM416.64,391.15h-4.2v-53.46h4.2v53.46Z"/><path class="cls-13" d="M423.78,354.01c0-2.32.6-4.42,1.8-6.3,1.2-1.88,2.81-3.38,4.83-4.5,2.02-1.12,4.29-1.68,6.81-1.68,2.48.08,4.73.7,6.75,1.86,2.02,1.16,3.62,2.66,4.8,4.5,1.18,1.84,1.77,3.88,1.77,6.12s-.59,4.35-1.77,6.21c-1.18,1.86-2.78,3.34-4.8,4.44s-4.27,1.65-6.75,1.65-4.79-.55-6.81-1.65-3.63-2.58-4.83-4.44c-1.2-1.86-1.8-3.93-1.8-6.21ZM427.98,354.01c0,1.56.41,2.98,1.23,4.26.82,1.28,1.93,2.29,3.33,3.03,1.4.74,2.96,1.11,4.68,1.11s3.26-.37,4.62-1.11c1.36-.74,2.45-1.75,3.27-3.03.82-1.28,1.23-2.7,1.23-4.26s-.41-3.05-1.23-4.35c-.82-1.3-1.91-2.33-3.27-3.09-1.36-.76-2.9-1.14-4.62-1.14s-3.28.38-4.68,1.14c-1.4.76-2.51,1.79-3.33,3.09-.82,1.3-1.23,2.75-1.23,4.35ZM465.42,391.33h-33.42v-19.32h33.42v19.32ZM436.2,375.91v11.52h25.02v-11.52h-25.02ZM465.24,368.53h-4.2v-27.18h-3.9v-3.9h8.1v31.08Z"/><path class="cls-13" d="M521.04,385.21h-48.72v-3.9h48.72v3.9ZM478.14,372.01l-2.1-3.3,18.48-12.72v-8.46h-16.2v-3.9h36.48v3.9h-16.08v8.46l18.48,12.72-2.1,3.3-18.48-12.72-18.48,12.72Z"/><path class="cls-13" d="M561.78,379.39h-38.34v-3.9h38.28l-.06-33.54h-3.96v-3.9h8.28v53.76h-4.2v-12.42ZM527.46,355.27c0-2.2.59-4.2,1.77-6,1.18-1.8,2.76-3.25,4.74-4.35,1.98-1.1,4.13-1.65,6.45-1.65,2.32.08,4.45.69,6.39,1.83,1.94,1.14,3.5,2.6,4.68,4.38,1.18,1.78,1.77,3.71,1.77,5.79s-.59,4.08-1.77,5.88c-1.18,1.8-2.74,3.24-4.68,4.32-1.94,1.08-4.07,1.62-6.39,1.62s-4.47-.54-6.45-1.62c-1.98-1.08-3.56-2.52-4.74-4.32-1.18-1.8-1.77-3.76-1.77-5.88ZM531.66,355.27c0,1.4.4,2.7,1.2,3.9.8,1.2,1.87,2.16,3.21,2.88,1.34.72,2.79,1.08,4.35,1.08s3-.36,4.32-1.08c1.32-.72,2.37-1.68,3.15-2.88.78-1.2,1.17-2.5,1.17-3.9,0-1.48-.39-2.83-1.17-4.05-.78-1.22-1.83-2.2-3.15-2.94s-2.76-1.11-4.32-1.11-3.01.37-4.35,1.11c-1.34.74-2.41,1.72-3.21,2.94-.8,1.22-1.2,2.57-1.2,4.05Z"/><path class="cls-13" d="M607.02,355.63c0-2.64.57-4.96,1.71-6.96s2.72-3.57,4.74-4.71c2.02-1.14,4.35-1.71,6.99-1.71,2.6.08,4.9.71,6.9,1.89,2,1.18,3.57,2.76,4.71,4.74,1.14,1.98,1.71,4.23,1.71,6.75s-.57,4.84-1.71,6.84c-1.14,2-2.71,3.56-4.71,4.68-2,1.12-4.3,1.68-6.9,1.68s-4.97-.56-6.99-1.68c-2.02-1.12-3.6-2.68-4.74-4.68-1.14-2-1.71-4.28-1.71-6.84ZM611.22,355.63c0,2.72.87,4.95,2.61,6.69,1.74,1.74,3.95,2.61,6.63,2.61s4.87-.87,6.57-2.61c1.7-1.74,2.55-3.97,2.55-6.69s-.85-5.08-2.55-6.84c-1.7-1.76-3.89-2.64-6.57-2.64s-4.89.88-6.63,2.64c-1.74,1.76-2.61,4.04-2.61,6.84ZM651.36,390.25h-35.34v-16.26h4.2v12.36h31.14v3.9ZM649.32,377.41h-4.2v-36.36h-3.9v-3.6h8.1v39.96Z"/><path class="cls-13" d="M667.44,349.33h-10.26v-3.9h24.3v3.9h-9.84v12.3l10.98,13.98-3,2.46-10.14-13.08-11.4,13.92-2.94-2.58,12.3-14.88v-12.12ZM685.26,342.01h-4.08v-3.9h8.28v19.08h7.5v-19.08h4.2v53.04h-4.2v-30.06h-7.5v30.06h-4.2v-49.14Z"/><path class="cls-13" d="M709.56,368.77l-2.64-2.82,12.72-12.06v-12.6h4.2v12.54l12.78,12.12-2.7,2.82-12.18-11.58-12.18,11.58ZM714.84,382.69c0-3.32,1.45-5.87,4.35-7.65,2.9-1.78,7.01-2.67,12.33-2.67s9.48.89,12.36,2.67c2.88,1.78,4.32,4.33,4.32,7.65s-1.44,5.82-4.32,7.62c-2.88,1.8-7,2.7-12.36,2.7s-9.43-.9-12.33-2.7c-2.9-1.8-4.35-4.34-4.35-7.62ZM718.92,382.69c0,2.08,1.09,3.69,3.27,4.83s5.29,1.71,9.33,1.71,7.15-.57,9.33-1.71,3.27-2.75,3.27-4.83-1.09-3.74-3.27-4.86-5.29-1.68-9.33-1.68-7.15.56-9.33,1.68-3.27,2.74-3.27,4.86ZM747.42,371.35h-4.2v-29.76h-3.9v-3.9h8.1v14.82h8.58v3.9h-8.58v14.94Z"/><path class="cls-13" d="M805.02,365.71h-48.24v-3.9h48.24v3.9ZM794.82,374.17h-31.74v-3.9h35.94v12.54h-31.74v5.04h33.36v3.9h-37.56v-12.84h31.74v-4.74ZM763.92,348.61c0-1.84.72-3.47,2.16-4.89,1.44-1.42,3.45-2.53,6.03-3.33,2.58-.8,5.53-1.2,8.85-1.2s6.32.4,8.88,1.2c2.56.8,4.56,1.91,6,3.33,1.44,1.42,2.16,3.05,2.16,4.89s-.72,3.48-2.16,4.92c-1.44,1.44-3.44,2.56-6,3.36-2.56.8-5.52,1.2-8.88,1.2s-6.27-.4-8.85-1.2c-2.58-.8-4.59-1.92-6.03-3.36-1.44-1.44-2.16-3.08-2.16-4.92ZM768.12,348.61c0,1.08.55,2.05,1.65,2.91,1.1.86,2.61,1.53,4.53,2.01s4.14.72,6.66.72,4.75-.24,6.69-.72c1.94-.48,3.45-1.15,4.53-2.01,1.08-.86,1.62-1.83,1.62-2.91s-.54-2.03-1.62-2.85-2.59-1.46-4.53-1.92c-1.94-.46-4.17-.69-6.69-.69s-4.74.23-6.66.69c-1.92.46-3.43,1.1-4.53,1.92-1.1.82-1.65,1.77-1.65,2.85Z"/><path class="cls-13" d="M85.5,443.5c2.76,0,5.2.58,7.32,1.74s3.78,2.75,4.98,4.77c1.2,2.02,1.8,4.35,1.8,6.99,0,2.88-.59,5.44-1.77,7.68-1.18,2.24-2.82,3.99-4.92,5.25-2.1,1.26-4.53,1.89-7.29,1.89s-5.13-.58-7.23-1.74c-2.1-1.16-3.74-2.76-4.92-4.8-1.18-2.04-1.77-4.38-1.77-7.02h3.9c0,2.76.94,5.01,2.82,6.75,1.88,1.74,4.28,2.61,7.2,2.61,1.88,0,3.53-.45,4.95-1.35,1.42-.9,2.53-2.16,3.33-3.78.8-1.62,1.2-3.47,1.2-5.55,0-2.68-.88-4.88-2.64-6.6-1.76-1.72-4.04-2.6-6.84-2.64-1.92-.04-3.68.48-5.28,1.56-1.6,1.08-2.68,2.5-3.24,4.26h-4.92v-25.08h25.08v4.5h-20.88v14.16c1.2-1.16,2.59-2.06,4.17-2.7,1.58-.64,3.23-.94,4.95-.9Z"/><path class="cls-13" d="M124.08,435.88c-.08,2.88-.5,5.74-1.26,8.58s-2,5.66-3.72,8.46c-1.8,2.92-4.06,5.61-6.78,8.07-2.72,2.46-5.56,4.61-8.52,6.45l-2.22-3.54c2.72-1.76,5.29-3.71,7.71-5.85,2.42-2.14,4.49-4.59,6.21-7.35,1.52-2.4,2.61-4.83,3.27-7.29.66-2.46,1.03-4.97,1.11-7.53h-16.32v-3.9h20.52v3.9ZM130.5,429.4h-3.9v-3.9h8.1v20.52h7.74v-21.42h4.2v53.22h-4.2v-27.9h-7.74v27.9h-4.2v-48.42Z"/><path class="cls-13" d="M190.98,466.06h-38.34v-3.9h38.28l-.06-33.54h-3.96v-3.9h8.28v53.76h-4.2v-12.42ZM156.66,441.94c0-2.2.59-4.2,1.77-6,1.18-1.8,2.76-3.25,4.74-4.35,1.98-1.1,4.13-1.65,6.45-1.65,2.32.08,4.45.69,6.39,1.83,1.94,1.14,3.5,2.6,4.68,4.38,1.18,1.78,1.77,3.71,1.77,5.79s-.59,4.08-1.77,5.88c-1.18,1.8-2.74,3.24-4.68,4.32s-4.07,1.62-6.39,1.62-4.47-.54-6.45-1.62-3.56-2.52-4.74-4.32c-1.18-1.8-1.77-3.76-1.77-5.88ZM160.86,441.94c0,1.4.4,2.7,1.2,3.9.8,1.2,1.87,2.16,3.21,2.88,1.34.72,2.79,1.08,4.35,1.08s3-.36,4.32-1.08c1.32-.72,2.37-1.68,3.15-2.88.78-1.2,1.17-2.5,1.17-3.9,0-1.48-.39-2.83-1.17-4.05s-1.83-2.2-3.15-2.94c-1.32-.74-2.76-1.11-4.32-1.11s-3.01.37-4.35,1.11c-1.34.74-2.41,1.72-3.21,2.94-.8,1.22-1.2,2.57-1.2,4.05Z"/><path class="cls-13" d="M235.74,463.78c3.4-2.12,6.39-4.53,8.97-7.23,2.58-2.7,4.69-5.63,6.33-8.79h-15.3v-3.9h16.98c.96-2.68,1.62-5.42,1.98-8.22h-17.88v-3.9h22.32c.16,4.84-.65,9.46-2.43,13.86-1.78,4.4-4.27,8.44-7.47,12.12-3.2,3.68-6.9,6.86-11.1,9.54l-2.4-3.48ZM268.32,477.94h-4.2v-48.36h-3.9v-3.9h8.1v19.68h7.86v-19.68h4.2v52.26h-4.2v-28.68h-7.86v28.68Z"/><path class="cls-13" d="M323.94,454h-35.1v-15.12h18.48v-7.38h-18.48v-3.9h22.68v15.18h-18.48v7.32h30.9v-22.08h-3.9v-3.6h8.1v33h-4.2v-3.42ZM323.94,464.25h-28.74v-3.9h32.94v17.88h-4.2v-13.98Z"/><path class="cls-13" d="M375.24,466h-36.84v-36.18h25.02v3.9h-20.82v11.82h18.36v3.9h-18.36v12.66h32.64v-12.66h-10.14v-3.9h10.14v-16.44h-3.9v-3.9h8.1v53.94h-4.2v-13.14Z"/><path class="cls-13" d="M393.12,454.83v-15.12h29.88v-6.12h-29.88v-3.9h34.08v13.92h-29.88v7.32h29.88v3.9h-14.82v13.5h22.26v3.9h-48.72v-3.9h22.26v-13.5h-15.06Z"/><path class="cls-13" d="M495.06,453.64h-23.4v-24.18h23.4v24.18ZM475.86,433.36v16.38h15v-16.38h-15ZM513.78,477.22h-35.04v-17.76h4.2v13.86h30.84v3.9ZM505.56,428.62h-3.9v-3.9h8.1v16.44h8.58v3.9h-8.58v18.96h-4.2v-35.4Z"/><path class="cls-13" d="M567.78,453.33h-48.66v-3.9h48.66v3.9ZM561.6,477.33h-35.34v-11.64h30.6v-3.6h-30.6v-3.9h34.8v11.1h-30.6v4.14h31.14v3.9ZM559.98,445.24h-33.6v-17.76h33.6v3.72h-29.58v10.32h29.58v3.72Z"/><path class="cls-13" d="M613.2,478.78h-4.2v-29.16h-12.54c-.24,4.84-1.45,8.55-3.63,11.13-2.18,2.58-5.19,3.87-9.03,3.87-4.12,0-7.29-1.45-9.51-4.35-2.22-2.9-3.33-7.05-3.33-12.45s1.11-9.68,3.33-12.6c2.22-2.92,5.39-4.38,9.51-4.38,3.8.16,6.79,1.52,8.97,4.08,2.18,2.56,3.41,6.16,3.69,10.8h12.54v-16.56h-3.9v-3.9h8.1v53.52ZM575.16,447.82c0,4.12.75,7.3,2.25,9.54s3.63,3.36,6.39,3.36,4.82-1.12,6.3-3.36c1.48-2.24,2.22-5.42,2.22-9.54s-.74-7.43-2.22-9.69c-1.48-2.26-3.58-3.39-6.3-3.39s-4.89,1.13-6.39,3.39-2.25,5.49-2.25,9.69Z"/><path class="cls-13" d="M667.32,472h-47.46v-3.9h22.2v-12.66h-14.94v-25.74h4.2v9.96h25.68v-9.96h4.2v25.74h-14.94v12.66h21.06v3.9ZM631.32,443.56v7.98h25.68v-7.98h-25.68Z"/><path class="cls-13" d="M674.76,478.72l-2.88-2.52,11.16-10.14v-7.92h4.08v7.98l8.4,7.14,8.52-7.32v-7.8h4.2v8.16l11.04,10.02-2.88,2.52-10.5-9.54-10.38,8.94h-.06l-10.38-8.94-10.32,9.42ZM685.8,453.52c-2.4,0-4.56-.56-6.48-1.68-1.92-1.12-3.45-2.63-4.59-4.53-1.14-1.9-1.71-4.01-1.71-6.33s.57-4.33,1.71-6.15c1.14-1.82,2.67-3.27,4.59-4.35s4.08-1.62,6.48-1.62,4.48.54,6.36,1.62c1.88,1.08,3.38,2.53,4.5,4.35,1.12,1.82,1.68,3.87,1.68,6.15s-.56,4.43-1.68,6.33c-1.12,1.9-2.62,3.41-4.5,4.53-1.88,1.12-4,1.68-6.36,1.68ZM677.22,441.04c0,1.6.38,3.05,1.14,4.35.76,1.3,1.78,2.33,3.06,3.09,1.28.76,2.7,1.14,4.26,1.14s3.03-.38,4.29-1.14c1.26-.76,2.27-1.8,3.03-3.12.76-1.32,1.14-2.78,1.14-4.38s-.37-2.96-1.11-4.2c-.74-1.24-1.74-2.22-3-2.94-1.26-.72-2.67-1.08-4.23-1.08s-3.05.37-4.35,1.11-2.33,1.73-3.09,2.97c-.76,1.24-1.14,2.64-1.14,4.2ZM707.4,429.09h-3.9v-3.9h8.1v12.84h7.92v3.9h-7.92v13.8h-4.2v-26.64Z"/><path class="cls-13" d="M768.3,471.4h-46.5v-3.9h18.54v-19.02h4.2v19.02h13.26v-33.9h-29.88v-3.9h34.08v37.8h6.3v3.9Z"/><path class="cls-13" d="M72.48,639.51l-3.06-2.4,13.68-15.54v-18.18h4.2v17.94l14.34,15.72-3,2.46-13.32-14.64-12.84,14.64ZM112.74,651.27h-4.2v-31.38h-12.24v-3.9h12.24v-14.1h-3.9v-3.9h8.1v53.28Z"/><path class="cls-13" d="M121.62,614.19c0-2.36.55-4.45,1.65-6.27,1.1-1.82,2.61-3.25,4.53-4.29,1.92-1.04,4.12-1.56,6.6-1.56s4.6.52,6.48,1.56c1.88,1.04,3.36,2.47,4.44,4.29,1.08,1.82,1.62,3.91,1.62,6.27s-.54,4.61-1.62,6.51-2.56,3.39-4.44,4.47c-1.88,1.08-4.04,1.62-6.48,1.62s-4.68-.54-6.6-1.62-3.43-2.57-4.53-4.47c-1.1-1.9-1.65-4.07-1.65-6.51ZM125.82,614.25c0,2.52.8,4.59,2.4,6.21,1.6,1.62,3.62,2.43,6.06,2.43s4.51-.81,6.09-2.43c1.58-1.62,2.37-3.71,2.37-6.27,0-2.4-.78-4.37-2.34-5.91-1.56-1.54-3.56-2.31-6-2.31s-4.58.77-6.18,2.31-2.4,3.53-2.4,5.97ZM127.62,642.33c0-3.08,1.46-5.5,4.38-7.26,2.92-1.76,6.98-2.64,12.18-2.64,5.2-.04,9.27.82,12.21,2.58,2.94,1.76,4.41,4.2,4.41,7.32s-1.47,5.5-4.41,7.26c-2.94,1.76-7.01,2.64-12.21,2.64s-9.26-.88-12.18-2.64c-2.92-1.76-4.38-4.18-4.38-7.26ZM131.82,642.33c0,1.88,1.09,3.35,3.27,4.41,2.18,1.06,5.21,1.59,9.09,1.59s6.97-.53,9.15-1.59c2.18-1.06,3.27-2.53,3.27-4.41s-1.09-3.35-3.27-4.41c-2.18-1.06-5.23-1.59-9.15-1.59s-6.91.53-9.09,1.59c-2.18,1.06-3.27,2.53-3.27,4.41ZM159.3,629.73h-4.2v-27.3h-3.9v-3.9h8.1v9.36h9.24v3.9h-9.24v7.56h9.24v3.9h-9.24v6.48Z"/><path class="cls-13" d="M194.94,637.23h-21.78v-33h4.2v29.1h17.58v3.9ZM203.52,651.27h-4.2v-30.6h-11.94v-3.9h11.94v-14.94h-3.9v-3.9h8.1v53.34ZM214.98,651.27h-4.2v-53.34h4.2v53.34Z"/><path class="cls-13" d="M269.16,645.57h-49.2v-3.9h49.2v3.9ZM261.6,629.97h-34.08v-26.94h34.08v3.9h-29.88v7.62h29.88v3.9h-29.88v7.62h29.88v3.9Z"/><path class="cls-13" d="M310.02,640.17h-32.1v-3.9h7.32v-9.48h-13.02v-3.78h34.86v3.78h-17.64v9.48h24.78v15.54h-4.2v-11.64ZM275.34,609.69c0-2.04.51-3.85,1.53-5.43,1.02-1.58,2.42-2.81,4.2-3.69,1.78-.88,3.81-1.32,6.09-1.32,3.16,0,5.82.79,7.98,2.37s3.46,3.67,3.9,6.27h10.98v-5.94h-3.9v-3.6h8.1v34.68h-4.2v-21.24h-11.1c-.52,2.4-1.84,4.35-3.96,5.85s-4.72,2.25-7.8,2.25c-2.28,0-4.31-.44-6.09-1.32-1.78-.88-3.18-2.09-4.2-3.63-1.02-1.54-1.53-3.29-1.53-5.25ZM279.54,609.69c0,1.84.72,3.35,2.16,4.53s3.26,1.77,5.46,1.77,4.15-.59,5.61-1.77c1.46-1.18,2.19-2.69,2.19-4.53s-.74-3.49-2.22-4.71c-1.48-1.22-3.4-1.83-5.76-1.83-2.16,0-3.94.61-5.34,1.83-1.4,1.22-2.1,2.79-2.1,4.71Z"/><path class="cls-13" d="M369.96,645.27h-48.9v-3.9h48.9v3.9ZM326.94,629.01l-2.1-3.3,18.48-12.72v-10.8h4.2v10.8l18.48,12.72-2.1,3.3-18.48-12.72-18.48,12.72Z"/><path class="cls-13" d="M408.72,626.91h-33.78v-15.36h19.44v-6.42h-19.92v-3.9h24.12v14.22h-19.44v7.56h29.58v-21.36h-3.9v-3.9h8.1v13.56h8.22v3.9h-8.22v15h-4.2v-3.3ZM379.98,641.79c0-3.2,1.45-5.67,4.35-7.41,2.9-1.74,7.01-2.61,12.33-2.61,5.36-.04,9.48.81,12.36,2.55,2.88,1.74,4.32,4.23,4.32,7.47s-1.44,5.67-4.32,7.41c-2.88,1.74-7,2.61-12.36,2.61s-9.43-.87-12.33-2.61c-2.9-1.74-4.35-4.21-4.35-7.41ZM384.18,641.79c0,1.96,1.08,3.47,3.24,4.53s5.24,1.59,9.24,1.59,7.08-.53,9.24-1.59,3.24-2.57,3.24-4.53-1.08-3.47-3.24-4.53c-2.16-1.06-5.24-1.59-9.24-1.59s-7.08.53-9.24,1.59c-2.16,1.06-3.24,2.57-3.24,4.53Z"/><path class="cls-13" d="M469.8,630.33h-47.46v-3.9h47.46v3.9ZM428.64,651.09v-15.36h4.2v11.46h31.62v3.9h-35.82ZM429.12,611.31c0-2,.73-3.78,2.19-5.34,1.46-1.56,3.49-2.78,6.09-3.66,2.6-.88,5.56-1.32,8.88-1.32s6.33.44,8.91,1.32c2.58.88,4.61,2.1,6.09,3.66,1.48,1.56,2.22,3.34,2.22,5.34s-.74,3.78-2.22,5.34c-1.48,1.56-3.51,2.78-6.09,3.66-2.58.88-5.55,1.32-8.91,1.32s-6.28-.44-8.88-1.32c-2.6-.88-4.63-2.1-6.09-3.66-1.46-1.56-2.19-3.34-2.19-5.34ZM433.32,611.37c0,1.24.56,2.34,1.68,3.3,1.12.96,2.65,1.71,4.59,2.25,1.94.54,4.17.81,6.69.81s4.81-.27,6.75-.81c1.94-.54,3.47-1.29,4.59-2.25,1.12-.96,1.68-2.06,1.68-3.3s-.56-2.4-1.68-3.36c-1.12-.96-2.65-1.72-4.59-2.28-1.94-.56-4.19-.84-6.75-.84s-4.75.28-6.69.84c-1.94.56-3.47,1.32-4.59,2.28-1.12.96-1.68,2.08-1.68,3.36Z"/><path class="cls-13" d="M522.48,629.85h-17.76v-3.9h33.96v3.9h-12v8.76h-4.2v-8.76ZM507.54,611.19c0-2.2.53-4.15,1.59-5.85,1.06-1.7,2.53-3.04,4.41-4.02,1.88-.98,4.02-1.47,6.42-1.47,3.32,0,6.12.87,8.4,2.61,2.28,1.74,3.64,4.03,4.08,6.87h11.16v-7.38h-4.08v-3.6h8.28v41.4h-4.2v-26.52h-11.22c-.48,2.68-1.84,4.86-4.08,6.54-2.24,1.68-5.02,2.52-8.34,2.52-2.4,0-4.54-.48-6.42-1.44-1.88-.96-3.35-2.27-4.41-3.93-1.06-1.66-1.59-3.57-1.59-5.73ZM511.74,611.19c0,2.08.77,3.8,2.31,5.16,1.54,1.36,3.51,2.04,5.91,2.04s4.5-.68,6.06-2.04c1.56-1.36,2.34-3.08,2.34-5.16s-.8-3.94-2.4-5.34c-1.6-1.4-3.66-2.1-6.18-2.1-2.32,0-4.24.7-5.76,2.1s-2.28,3.18-2.28,5.34ZM512.22,651.03v-16.5h4.2v12.6h34.26v3.9h-38.46Z"/><path class="cls-13" d="M603.42,631.23h-47.94v-3.9h21.9v-7.2c-4.52-.24-8.09-1.25-10.71-3.03-2.62-1.78-3.93-4.11-3.93-6.99,0-3.08,1.51-5.52,4.53-7.32,3.02-1.8,7.09-2.7,12.21-2.7s9.19.9,12.21,2.7c3.02,1.8,4.53,4.24,4.53,7.32,0,2.88-1.31,5.21-3.93,6.99-2.62,1.78-6.19,2.79-10.71,3.03v7.2h21.84v3.9ZM561.84,650.91v-15.36h4.2v11.46h31.62v3.9h-35.82ZM566.94,610.17c0,1.88,1.13,3.38,3.39,4.5,2.26,1.12,5.31,1.68,9.15,1.68s6.89-.56,9.15-1.68c2.26-1.12,3.39-2.62,3.39-4.5s-1.11-3.37-3.33-4.47c-2.22-1.1-5.29-1.65-9.21-1.65s-6.89.55-9.15,1.65c-2.26,1.1-3.39,2.59-3.39,4.47Z"/><path class="cls-13" d="M623.28,629.85h-17.76v-3.9h33.96v3.9h-12v8.76h-4.2v-8.76ZM608.34,611.19c0-2.2.53-4.15,1.59-5.85,1.06-1.7,2.53-3.04,4.41-4.02,1.88-.98,4.02-1.47,6.42-1.47,3.32,0,6.12.87,8.4,2.61s3.64,4.03,4.08,6.87h11.16v-7.38h-4.08v-3.6h8.28v41.4h-4.2v-26.52h-11.22c-.48,2.68-1.84,4.86-4.08,6.54-2.24,1.68-5.02,2.52-8.34,2.52-2.4,0-4.54-.48-6.42-1.44-1.88-.96-3.35-2.27-4.41-3.93-1.06-1.66-1.59-3.57-1.59-5.73ZM612.54,611.19c0,2.08.77,3.8,2.31,5.16,1.54,1.36,3.51,2.04,5.91,2.04s4.5-.68,6.06-2.04,2.34-3.08,2.34-5.16-.8-3.94-2.4-5.34c-1.6-1.4-3.66-2.1-6.18-2.1-2.32,0-4.24.7-5.76,2.1-1.52,1.4-2.28,3.18-2.28,5.34ZM613.02,651.03v-16.5h4.2v12.6h34.26v3.9h-38.46Z"/><path class="cls-13" d="M715.62,603.75c.2,5.4-.65,10.47-2.55,15.21-1.9,4.74-4.68,8.98-8.34,12.72-3.66,3.74-8.05,6.85-13.17,9.33l-1.8-3.78c4.32-2.08,8.03-4.65,11.13-7.71,3.1-3.06,5.54-6.45,7.32-10.17,1.78-3.72,2.81-7.62,3.09-11.7h-19.62v-3.9h23.94ZM724.62,601.89h-3.9v-3.9h8.1v22.5h9.12v3.9h-9.12v27.42h-4.2v-49.92Z"/><path class="cls-13" d="M740.94,621.63c0-3.48.54-6.49,1.62-9.03,1.08-2.54,2.63-4.5,4.65-5.88s4.41-2.07,7.17-2.07c2.72.08,5.08.83,7.08,2.25s3.54,3.38,4.62,5.88,1.62,5.45,1.62,8.85-.54,6.42-1.62,8.94-2.62,4.46-4.62,5.82-4.36,2.04-7.08,2.04-5.15-.68-7.17-2.04-3.57-3.3-4.65-5.82c-1.08-2.52-1.62-5.5-1.62-8.94ZM745.14,621.63c0,3.96.83,7.1,2.49,9.42s3.91,3.48,6.75,3.48,5.02-1.16,6.66-3.48,2.46-5.46,2.46-9.42-.82-7.23-2.46-9.57-3.86-3.51-6.66-3.51-5.09,1.17-6.75,3.51-2.49,5.53-2.49,9.57ZM781.98,651.27h-4.2v-49.38h-3.9v-3.9h8.1v53.28Z"/><path class="cls-13" d="M837.9,645.57h-48.9v-3.9h48.9v3.9ZM830.4,628.17h-34.08v-25.14h34.08v3.9h-29.88v17.34h29.88v3.9Z"/><path class="cls-13" d="M888.18,627.51h-48.06v-3.9h48.06v3.9ZM882,650.67h-35.34v-11.64h30.6v-3.6h-30.6v-3.9h34.8v11.1h-30.6v4.14h31.14v3.9ZM877.32,604.17h-30.6v-3.9h34.8v11.22h-30.6v4.44h31.14v3.9h-35.34v-11.94h30.6v-3.72Z"/><path class="cls-13" d="M97.98,731.04h-26.76v-4.2h12.3v-32.82l-9.18,9.66-2.94-2.64,12.12-12.6h4.5v38.4h9.96v4.2Z"/><path class="cls-13" d="M101.94,709.56c0-7.16,1.31-12.65,3.93-16.47,2.62-3.82,6.35-5.75,11.19-5.79,4.76-.04,8.41,1.86,10.95,5.7s3.81,9.36,3.81,16.56-1.27,12.72-3.81,16.56-6.19,5.74-10.95,5.7c-4.84-.04-8.57-1.98-11.19-5.82-2.62-3.84-3.93-9.32-3.93-16.44ZM106.44,709.56c0,5.8.92,10.26,2.76,13.38,1.84,3.12,4.46,4.68,7.86,4.68s5.86-1.56,7.62-4.68c1.76-3.12,2.64-7.58,2.64-13.38s-.88-10.31-2.64-13.41c-1.76-3.1-4.3-4.65-7.62-4.65s-6.02,1.55-7.86,4.65c-1.84,3.1-2.76,7.57-2.76,13.41ZM114.24,712.92v-5.34h5.28v5.34h-5.28Z"/><path class="cls-13" d="M141.3,692.64h-5.82v-3.9h27.9v3.9h-6.18v19.08h9.48v3.9h-31.2v-3.9h5.82v-19.08ZM180.24,737.04h-35.64v-16.44h4.2v12.54h31.44v3.9ZM145.5,692.64v19.08h7.5v-19.08h-7.5ZM173.52,708.72h-9.42v-3.9h9.42v-5.16h-9.42v-3.9h9.42v-6.9h-3.9v-3.9h8.1v39.24h-4.2v-15.48Z"/><path class="cls-13" d="M223.38,726.06h-38.34v-3.9h38.28l-.06-33.54h-3.96v-3.9h8.28v53.76h-4.2v-12.42ZM189.06,701.94c0-2.2.59-4.2,1.77-6,1.18-1.8,2.76-3.25,4.74-4.35,1.98-1.1,4.13-1.65,6.45-1.65,2.32.08,4.45.69,6.39,1.83,1.94,1.14,3.5,2.6,4.68,4.38,1.18,1.78,1.77,3.71,1.77,5.79s-.59,4.08-1.77,5.88c-1.18,1.8-2.74,3.24-4.68,4.32-1.94,1.08-4.07,1.62-6.39,1.62s-4.47-.54-6.45-1.62-3.56-2.52-4.74-4.32c-1.18-1.8-1.77-3.76-1.77-5.88ZM193.26,701.94c0,1.4.4,2.7,1.2,3.9.8,1.2,1.87,2.16,3.21,2.88s2.79,1.08,4.35,1.08,3-.36,4.32-1.08,2.37-1.68,3.15-2.88c.78-1.2,1.17-2.5,1.17-3.9,0-1.48-.39-2.83-1.17-4.05-.78-1.22-1.83-2.2-3.15-2.94s-2.76-1.11-4.32-1.11-3.01.37-4.35,1.11-2.41,1.72-3.21,2.94-1.2,2.57-1.2,4.05Z"/><path class="cls-13" d="M309.6,717h-4.2v-8.76h-13.5c-1.08,1.72-2.52,3.06-4.32,4.02-1.8.96-3.86,1.44-6.18,1.44-2.48,0-4.69-.55-6.63-1.65-1.94-1.1-3.45-2.61-4.53-4.53-1.08-1.92-1.62-4.14-1.62-6.66s.54-4.59,1.62-6.45c1.08-1.86,2.59-3.32,4.53-4.38,1.94-1.06,4.15-1.59,6.63-1.59s4.53.5,6.39,1.5,3.31,2.38,4.35,4.14h13.26v-4.98h-3.9v-3.9h8.1v31.8ZM272.82,700.92c0,2.6.79,4.73,2.37,6.39,1.58,1.66,3.61,2.49,6.09,2.49s4.51-.84,6.09-2.52c1.58-1.68,2.37-3.82,2.37-6.42s-.77-4.52-2.31-6.12c-1.54-1.6-3.55-2.4-6.03-2.4s-4.58.8-6.18,2.4c-1.6,1.6-2.4,3.66-2.4,6.18ZM276.36,728.4c0-3.24,1.49-5.74,4.47-7.5,2.98-1.76,7.23-2.64,12.75-2.64,5.52-.04,9.77.82,12.75,2.58,2.98,1.76,4.47,4.28,4.47,7.56s-1.49,5.74-4.47,7.5c-2.98,1.76-7.23,2.64-12.75,2.64s-9.77-.88-12.75-2.64c-2.98-1.76-4.47-4.26-4.47-7.5ZM280.44,728.4c0,2,1.14,3.54,3.42,4.62,2.28,1.08,5.52,1.62,9.72,1.62s7.44-.54,9.72-1.62c2.28-1.08,3.42-2.62,3.42-4.62s-1.14-3.54-3.42-4.62c-2.28-1.08-5.52-1.62-9.72-1.62s-7.44.54-9.72,1.62c-2.28,1.08-3.42,2.62-3.42,4.62ZM293.94,700.86c0,.6-.03,1.19-.09,1.77-.06.58-.17,1.15-.33,1.71h11.88v-6.36h-11.76c.08.44.15.9.21,1.38.06.48.09.98.09,1.5Z"/><path class="cls-13" d="M320.76,715.44l-2.64-2.82,12.72-12.06v-12.6h4.2v12.54l12.78,12.12-2.7,2.82-12.18-11.58-12.18,11.58ZM326.04,729.36c0-3.32,1.45-5.87,4.35-7.65s7.01-2.67,12.33-2.67,9.48.89,12.36,2.67,4.32,4.33,4.32,7.65-1.44,5.82-4.32,7.62-7,2.7-12.36,2.7-9.43-.9-12.33-2.7-4.35-4.34-4.35-7.62ZM330.12,729.36c0,2.08,1.09,3.69,3.27,4.83,2.18,1.14,5.29,1.71,9.33,1.71s7.15-.57,9.33-1.71c2.18-1.14,3.27-2.75,3.27-4.83s-1.09-3.74-3.27-4.86c-2.18-1.12-5.29-1.68-9.33-1.68s-7.15.56-9.33,1.68c-2.18,1.12-3.27,2.74-3.27,4.86ZM358.62,718.02h-4.2v-29.76h-3.9v-3.9h8.1v14.82h8.58v3.9h-8.58v14.94Z"/><path class="cls-13" d="M416.46,731.94h-48.66v-3.9h48.66v3.9ZM392.16,718.25c-3.2,0-6.1-.62-8.7-1.86-2.6-1.24-4.66-2.91-6.18-5.01-1.52-2.1-2.28-4.45-2.28-7.05s.76-4.96,2.28-7.08c1.52-2.12,3.58-3.8,6.18-5.04,2.6-1.24,5.5-1.86,8.7-1.86s6.1.62,8.7,1.86c2.6,1.24,4.66,2.92,6.18,5.04,1.52,2.12,2.28,4.48,2.28,7.08s-.76,4.95-2.28,7.05-3.58,3.77-6.18,5.01c-2.6,1.24-5.5,1.86-8.7,1.86ZM379.2,704.33c0,1.88.58,3.58,1.74,5.1,1.16,1.52,2.72,2.72,4.68,3.6s4.14,1.32,6.54,1.32,4.63-.44,6.57-1.32c1.94-.88,3.49-2.08,4.65-3.6,1.16-1.52,1.74-3.22,1.74-5.1s-.58-3.58-1.74-5.1c-1.16-1.52-2.71-2.73-4.65-3.63-1.94-.9-4.13-1.35-6.57-1.35s-4.58.45-6.54,1.35c-1.96.9-3.52,2.11-4.68,3.63-1.16,1.52-1.74,3.22-1.74,5.1Z"/><path class="cls-13" d="M425.52,714.83v-15.12h29.88v-6.12h-29.88v-3.9h34.08v13.92h-29.88v7.32h29.88v3.9h-14.82v13.5h22.26v3.9h-48.72v-3.9h22.26v-13.5h-15.06Z"/><path class="cls-13" d="M512.64,696h-10.26v-3.9h24.3v3.9h-9.84v12.3l10.98,13.98-3,2.46-10.14-13.08-11.4,13.92-2.94-2.58,12.3-14.88v-12.12ZM531.66,707.75h-9.24v-3.9h9.24v-15.18h-4.08v-3.9h8.28v53.04h-4.2v-30.06ZM546.36,737.82h-4.2v-53.04h4.2v53.04Z"/><path class="cls-13" d="M565.38,693.24h-11.58v-3.9h27v3.9h-11.22v8.82l12.66,10.62-2.7,2.82-12.06-10.02h-.48l-12.72,10.62-2.7-2.82,13.8-11.52v-8.52ZM587.88,724.02h-30.36v-3.9h34.56v18.36h-4.2v-14.46ZM587.88,688.74h-3.9v-3.9h8.1v12.84h8.64v3.9h-8.64v15.24h-4.2v-28.08Z"/><path class="cls-13" d="M628.08,695.7h-25.62v-3.6h10.86v-6.48h3.9v6.48h10.86v3.6ZM606.36,738.72l-2.88-2.52,11.16-10.14v-6.12h4.08v6.18l8.4,7.14,8.52-7.32v-6h4.2v6.36l11.04,10.02-2.88,2.52-10.5-9.54-10.38,8.94h-.06l-10.38-8.94-10.32,9.42ZM603.9,707.58c0-1.76.51-3.34,1.53-4.74,1.02-1.4,2.4-2.52,4.14-3.36s3.67-1.26,5.79-1.26,4.04.42,5.76,1.26,3.08,1.96,4.08,3.36c1,1.4,1.5,2.98,1.5,4.74s-.5,3.28-1.5,4.68c-1,1.4-2.36,2.51-4.08,3.33-1.72.82-3.64,1.23-5.76,1.23s-4.05-.41-5.79-1.23c-1.74-.82-3.12-1.93-4.14-3.33-1.02-1.4-1.53-2.96-1.53-4.68ZM608.1,707.64c0,1.48.7,2.73,2.1,3.75,1.4,1.02,3.12,1.53,5.16,1.53s3.69-.5,5.07-1.5c1.38-1,2.07-2.22,2.07-3.66,0-1.6-.69-2.94-2.07-4.02-1.38-1.08-3.07-1.62-5.07-1.62s-3.76.53-5.16,1.59c-1.4,1.06-2.1,2.37-2.1,3.93ZM631.32,689.88h-3.9v-3.9h8.1v14.04h6.78v-14.04h4.2v32.16h-4.2v-14.22h-6.78v14.22h-4.2v-28.26Z"/><path class="cls-13" d="M699.9,731.4h-46.5v-3.9h18.54v-19.02h4.2v19.02h13.26v-33.9h-29.88v-3.9h34.08v37.8h6.3v3.9Z"/><path class="cls-13" d="M91.02,886.79h-21.3v-3.9h47.46v3.9h-21.96v5.88c4.88.2,8.64,1.13,11.28,2.79,2.64,1.66,3.96,3.97,3.96,6.93,0,3.16-1.5,5.61-4.5,7.35s-7.28,2.61-12.84,2.61-9.84-.87-12.84-2.61-4.5-4.19-4.5-7.35c0-2.96,1.32-5.27,3.96-6.93s6.4-2.59,11.28-2.79v-5.88ZM75.3,879.83l-1.86-3.42,17.94-8.22v-4.02h-15.9v-3.9h35.94v3.9h-15.84v4.02l17.58,8.04-1.86,3.42-17.82-8.16-18.18,8.34ZM79.98,902.39c0,1.96,1.14,3.46,3.42,4.5,2.28,1.04,5.52,1.56,9.72,1.56s7.44-.52,9.72-1.56c2.28-1.04,3.42-2.54,3.42-4.5s-1.14-3.33-3.42-4.35c-2.28-1.02-5.52-1.53-9.72-1.53s-7.44.51-9.72,1.53-3.42,2.47-3.42,4.35Z"/><path class="cls-13" d="M121.02,874.19c0-2.32.57-4.42,1.71-6.3,1.14-1.88,2.68-3.37,4.62-4.47,1.94-1.1,4.09-1.65,6.45-1.65s4.48.55,6.36,1.65c1.88,1.1,3.38,2.59,4.5,4.47,1.12,1.88,1.68,3.98,1.68,6.3s-.56,4.57-1.68,6.51c-1.12,1.94-2.62,3.48-4.5,4.62-1.88,1.14-4,1.71-6.36,1.71s-4.51-.57-6.45-1.71c-1.94-1.14-3.48-2.68-4.62-4.62-1.14-1.94-1.71-4.11-1.71-6.51ZM125.22,874.25c0,1.64.38,3.14,1.14,4.5.76,1.36,1.78,2.43,3.06,3.21,1.28.78,2.7,1.17,4.26,1.17s3.03-.4,4.29-1.2c1.26-.8,2.27-1.88,3.03-3.24.76-1.36,1.14-2.86,1.14-4.5s-.37-3.04-1.11-4.32c-.74-1.28-1.74-2.3-3-3.06s-2.67-1.14-4.23-1.14-3.05.38-4.35,1.14c-1.3.76-2.33,1.79-3.09,3.09-.76,1.3-1.14,2.75-1.14,4.35ZM126.96,901.73c0-3.12,1.55-5.59,4.65-7.41,3.1-1.82,7.29-2.73,12.57-2.73,5.28-.04,9.47.85,12.57,2.67,3.1,1.82,4.65,4.31,4.65,7.47s-1.55,5.59-4.65,7.41c-3.1,1.82-7.29,2.73-12.57,2.73s-9.47-.91-12.57-2.73c-3.1-1.82-4.65-4.29-4.65-7.41ZM131.04,901.73c0,1.92,1.18,3.44,3.54,4.56,2.36,1.12,5.56,1.68,9.6,1.68s7.24-.56,9.6-1.68c2.36-1.12,3.54-2.64,3.54-4.56s-1.18-3.44-3.54-4.56c-2.36-1.12-5.56-1.68-9.6-1.68s-7.24.56-9.6,1.68c-2.36,1.12-3.54,2.64-3.54,4.56ZM159.6,890.33h-4.2v-27.9h-3.9v-3.9h8.1v13.44h8.94v3.9h-8.94v14.46Z"/><path class="cls-13" d="M217.5,904.73h-46.5v-3.9h36v-33.9h-29.88v-3.9h34.08v37.8h6.3v3.9Z"/><path class="cls-13" d="M242.4,889.13h-21.42v-3.9h47.4v3.9h-21.78v9.66h12.12v-6.48h4.2v19.26h-36.48v-19.26h4.2v6.48h11.76v-9.66ZM258.36,863.69h-31.14v-3.9h35.34v12.66h-31.14v4.86h32.22v3.9h-36.42v-12.66h31.14v-4.86ZM230.64,902.69v4.98h28.08v-4.98h-28.08Z"/><path class="cls-13" d="M272.94,881.63c0-3.48.54-6.49,1.62-9.03,1.08-2.54,2.63-4.5,4.65-5.88,2.02-1.38,4.41-2.07,7.17-2.07,2.72.08,5.08.83,7.08,2.25,2,1.42,3.54,3.38,4.62,5.88s1.62,5.45,1.62,8.85-.54,6.42-1.62,8.94-2.62,4.46-4.62,5.82c-2,1.36-4.36,2.04-7.08,2.04s-5.15-.68-7.17-2.04c-2.02-1.36-3.57-3.3-4.65-5.82s-1.62-5.5-1.62-8.94ZM277.14,881.63c0,3.96.83,7.1,2.49,9.42,1.66,2.32,3.91,3.48,6.75,3.48s5.02-1.16,6.66-3.48c1.64-2.32,2.46-5.46,2.46-9.42s-.82-7.23-2.46-9.57c-1.64-2.34-3.86-3.51-6.66-3.51s-5.09,1.17-6.75,3.51c-1.66,2.34-2.49,5.53-2.49,9.57ZM313.98,911.27h-4.2v-49.38h-3.9v-3.9h8.1v53.28Z"/><path class="cls-13" d="M358.32,886.91h-33.78v-15.36h19.44v-6.42h-19.92v-3.9h24.12v14.22h-19.44v7.56h29.58v-21.36h-3.9v-3.9h8.1v13.56h8.22v3.9h-8.22v15h-4.2v-3.3ZM329.58,901.79c0-3.2,1.45-5.67,4.35-7.41,2.9-1.74,7.01-2.61,12.33-2.61,5.36-.04,9.48.81,12.36,2.55,2.88,1.74,4.32,4.23,4.32,7.47s-1.44,5.67-4.32,7.41c-2.88,1.74-7,2.61-12.36,2.61s-9.43-.87-12.33-2.61c-2.9-1.74-4.35-4.21-4.35-7.41ZM333.78,901.79c0,1.96,1.08,3.47,3.24,4.53s5.24,1.59,9.24,1.59,7.08-.53,9.24-1.59,3.24-2.57,3.24-4.53-1.08-3.47-3.24-4.53c-2.16-1.06-5.24-1.59-9.24-1.59s-7.08.53-9.24,1.59c-2.16,1.06-3.24,2.57-3.24,4.53Z"/><path class="cls-13" d="M440.16,857.69h7.5v28.5h-4.2v-11.58h-15.06c-.68,1-1.41,1.98-2.19,2.94-.78.96-1.61,1.84-2.49,2.64-1.88,1.76-4.09,3.29-6.63,4.59-2.54,1.3-5.19,2.25-7.95,2.85l-1.98-3.6c2.48-.56,4.89-1.42,7.23-2.58s4.33-2.5,5.97-4.02c.48-.44.95-.9,1.41-1.38.46-.48.89-.96,1.29-1.44h-16.02v-3.9h18.72c1-1.84,1.66-3.72,1.98-5.64h-18.84v-4.08h23.52v1.08c0,1.48-.17,2.95-.51,4.41-.34,1.46-.81,2.87-1.41,4.23h12.96v-9.12h-3.3v-3.9ZM449.52,911.51h-35.88v-13.08h29.58v-5.7h-29.58v-3.72h33.78v13.32h-29.58v5.28h31.68v3.9Z"/><path class="cls-13" d="M467.64,871.19h-11.34v-3.6h11.34v-8.22h4.2v8.22h12.48v3.6h-12.48v10.08l14.34,17.46-3,2.46-13.32-16.2-12.84,16.2-3.06-2.4,13.68-17.28v-10.32ZM493.38,883.13h-11.64v-3.9h11.64v-17.34h-3.9v-3.6h8.1v53.46h-4.2v-28.62Z"/><path class="cls-13" d="M531.18,887.81h-23.82v-24.96h19.68v3.9h-15.48v17.16h19.62v3.9ZM544.92,897.89h-29.88v-3.9h34.08v17.82h-4.2v-13.92ZM535.44,876.77h-10.98v-3.9h10.98v-10.32h-3.9v-3.9h8.1v31.74h-4.2v-13.62ZM549.3,890.39h-4.2v-31.74h4.2v31.74Z"/><path class="cls-13" d="M596.04,911.81h-4.2v-12h-37.32v-3.9h12.06v-15.96h4.2v15.96h21.06v-33.42h-3.9v-3.6h8.1v21.42h8.88v3.9h-8.88v27.6ZM580.62,867.95h-23.16v-3.72h27.18v23.76h-4.02v-20.04Z"/><path class="cls-13" d="M655.68,889.85h-17.76v-3.9h33.96v3.9h-12v8.76h-4.2v-8.76ZM640.74,871.19c0-2.2.53-4.15,1.59-5.85,1.06-1.7,2.53-3.04,4.41-4.02,1.88-.98,4.02-1.47,6.42-1.47,3.32,0,6.12.87,8.4,2.61,2.28,1.74,3.64,4.03,4.08,6.87h11.16v-7.38h-4.08v-3.6h8.28v41.4h-4.2v-26.52h-11.22c-.48,2.68-1.84,4.86-4.08,6.54-2.24,1.68-5.02,2.52-8.34,2.52-2.4,0-4.54-.48-6.42-1.44-1.88-.96-3.35-2.27-4.41-3.93-1.06-1.66-1.59-3.57-1.59-5.73ZM644.94,871.19c0,2.08.77,3.8,2.31,5.16,1.54,1.36,3.51,2.04,5.91,2.04s4.5-.68,6.06-2.04,2.34-3.08,2.34-5.16-.8-3.94-2.4-5.34-3.66-2.1-6.18-2.1c-2.32,0-4.24.7-5.76,2.1-1.52,1.4-2.28,3.18-2.28,5.34ZM645.42,911.03v-16.5h4.2v12.6h34.26v3.9h-38.46Z"/><path class="cls-13" d="M736.62,891.23h-47.94v-3.9h21.9v-7.2c-4.52-.24-8.09-1.25-10.71-3.03-2.62-1.78-3.93-4.11-3.93-6.99,0-3.08,1.51-5.52,4.53-7.32,3.02-1.8,7.09-2.7,12.21-2.7s9.19.9,12.21,2.7c3.02,1.8,4.53,4.24,4.53,7.32,0,2.88-1.31,5.21-3.93,6.99-2.62,1.78-6.19,2.79-10.71,3.03v7.2h21.84v3.9ZM695.04,910.91v-15.36h4.2v11.46h31.62v3.9h-35.82ZM700.14,870.17c0,1.88,1.13,3.38,3.39,4.5,2.26,1.12,5.31,1.68,9.15,1.68s6.89-.56,9.15-1.68c2.26-1.12,3.39-2.62,3.39-4.5s-1.11-3.37-3.33-4.47c-2.22-1.1-5.29-1.65-9.21-1.65s-6.89.55-9.15,1.65c-2.26,1.1-3.39,2.59-3.39,4.47Z"/><path class="cls-13" d="M756.48,889.85h-17.76v-3.9h33.96v3.9h-12v8.76h-4.2v-8.76ZM741.54,871.19c0-2.2.53-4.15,1.59-5.85,1.06-1.7,2.53-3.04,4.41-4.02,1.88-.98,4.02-1.47,6.42-1.47,3.32,0,6.12.87,8.4,2.61s3.64,4.03,4.08,6.87h11.16v-7.38h-4.08v-3.6h8.28v41.4h-4.2v-26.52h-11.22c-.48,2.68-1.84,4.86-4.08,6.54-2.24,1.68-5.02,2.52-8.34,2.52-2.4,0-4.54-.48-6.42-1.44-1.88-.96-3.35-2.27-4.41-3.93-1.06-1.66-1.59-3.57-1.59-5.73ZM745.74,871.19c0,2.08.77,3.8,2.31,5.16,1.54,1.36,3.51,2.04,5.91,2.04s4.5-.68,6.06-2.04,2.34-3.08,2.34-5.16-.8-3.94-2.4-5.34-3.66-2.1-6.18-2.1c-2.32,0-4.24.7-5.76,2.1-1.52,1.4-2.28,3.18-2.28,5.34ZM746.22,911.03v-16.5h4.2v12.6h34.26v3.9h-38.46Z"/><path class="cls-13" d="M848.82,863.75c.2,5.4-.65,10.47-2.55,15.21-1.9,4.74-4.68,8.98-8.34,12.72-3.66,3.74-8.05,6.85-13.17,9.33l-1.8-3.78c4.32-2.08,8.03-4.65,11.13-7.71,3.1-3.06,5.54-6.45,7.32-10.17,1.78-3.72,2.81-7.62,3.09-11.7h-19.62v-3.9h23.94ZM857.82,861.89h-3.9v-3.9h8.1v22.5h9.12v3.9h-9.12v27.42h-4.2v-49.92Z"/><path class="cls-13" d="M874.14,881.63c0-3.48.54-6.49,1.62-9.03,1.08-2.54,2.63-4.5,4.65-5.88s4.41-2.07,7.17-2.07c2.72.08,5.08.83,7.08,2.25s3.54,3.38,4.62,5.88,1.62,5.45,1.62,8.85-.54,6.42-1.62,8.94-2.62,4.46-4.62,5.82-4.36,2.04-7.08,2.04-5.15-.68-7.17-2.04-3.57-3.3-4.65-5.82c-1.08-2.52-1.62-5.5-1.62-8.94ZM878.34,881.63c0,3.96.83,7.1,2.49,9.42s3.91,3.48,6.75,3.48,5.02-1.16,6.66-3.48,2.46-5.46,2.46-9.42-.82-7.23-2.46-9.57-3.86-3.51-6.66-3.51-5.09,1.17-6.75,3.51-2.49,5.53-2.49,9.57ZM915.18,911.27h-4.2v-49.38h-3.9v-3.9h8.1v53.28Z"/><path class="cls-13" d="M971.1,905.57h-48.9v-3.9h48.9v3.9ZM963.6,888.17h-34.08v-25.14h34.08v3.9h-29.88v17.34h29.88v3.9Z"/><path class="cls-13" d="M985.74,911.21l-13.26-.06v-3.9l9.48.06v-3.18h-3.96v-6.6h7.74v13.68Z"/><path class="cls-13" d="M97.8,983.6h-26.34v-30.9h19.62v3.9h-15.42v23.1h22.14v-30.12h-3.9v-3.9h8.1v20.34h7.74v-20.34h4.2v52.14h-4.2v-27.9h-7.74v27.9h-4.2v-14.22Z"/><path class="cls-13" d="M156.48,971.36h-34.02v-22.44h23.52v3.9h-19.32v14.64h29.82v-18h-3.9v-3.9h8.1v11.58h7.86v.6h.6v3.9h-8.46v12.9h-4.2v-3.18ZM160.68,997.7h-32.94v-20.52h4.2v6.36h24.54v-6.36h4.2v20.52ZM131.94,987.44v6.36h24.54v-6.36h-24.54Z"/><path class="cls-13" d="M208.98,986.06h-38.34v-3.9h38.28l-.06-33.54h-3.96v-3.9h8.28v53.76h-4.2v-12.42ZM174.66,961.94c0-2.2.59-4.2,1.77-6,1.18-1.8,2.76-3.25,4.74-4.35s4.13-1.65,6.45-1.65c2.32.08,4.45.69,6.39,1.83s3.5,2.6,4.68,4.38c1.18,1.78,1.77,3.71,1.77,5.79s-.59,4.08-1.77,5.88c-1.18,1.8-2.74,3.24-4.68,4.32s-4.07,1.62-6.39,1.62-4.47-.54-6.45-1.62-3.56-2.52-4.74-4.32c-1.18-1.8-1.77-3.76-1.77-5.88ZM178.86,961.94c0,1.4.4,2.7,1.2,3.9.8,1.2,1.87,2.16,3.21,2.88,1.34.72,2.79,1.08,4.35,1.08s3-.36,4.32-1.08c1.32-.72,2.37-1.68,3.15-2.88.78-1.2,1.17-2.5,1.17-3.9,0-1.48-.39-2.83-1.17-4.05-.78-1.22-1.83-2.2-3.15-2.94-1.32-.74-2.76-1.11-4.32-1.11s-3.01.37-4.35,1.11c-1.34.74-2.41,1.72-3.21,2.94-.8,1.22-1.2,2.57-1.2,4.05Z"/><path class="cls-13" d="M255.78,976.1l-2.7-2.82,11.04-10.08v-6.84h-9.9v-3.9h9.9v-6.9h4.2v6.9h9.9v3.9h-9.9v6.48l11.04,9.84-2.7,2.88-10.26-9.36-10.62,9.9ZM293.4,984.98h-31.44v-3.9h35.64v17.4h-4.2v-13.5ZM282.54,949.82h-3.9v-3.9h8.1v13.68h6.66v-13.68h4.2v31.98h-4.2v-14.4h-6.66v14.4h-4.2v-28.08Z"/><path class="cls-13" d="M304.62,983.66c2.44-2.96,4.5-5.91,6.18-8.85,1.68-2.94,3-6.02,3.96-9.24.96-3.22,1.56-6.75,1.8-10.59h-11.04v-3.9h28.08c-.04,4-.25,7.69-.63,11.07-.38,3.38-.99,6.58-1.83,9.6-.84,3.02-1.99,5.96-3.45,8.82-1.46,2.86-3.27,5.79-5.43,8.79l-3.54-2.22c2.4-3.4,4.35-6.73,5.85-9.99s2.63-6.68,3.39-10.26c.76-3.58,1.22-7.55,1.38-11.91h-8.82c-.24,4.36-.83,8.34-1.77,11.94-.94,3.6-2.3,6.98-4.08,10.14-1.78,3.16-4.03,6.28-6.75,9.36l-3.3-2.76ZM344.58,997.88h-4.2v-48.12h-3.9v-3.9h8.1v21.06h8.88v3.9h-8.88v27.06Z"/><path class="cls-13" d="M357.24,986.84l-3-2.64,13.86-15.78v-13.92h-12.12v-3.9h28.62v3.9h-12.3v13.92l13.86,15.78-3,2.64-12.96-14.7-12.96,14.7ZM397.2,997.94h-4.2v-49.38h-3.9v-3.9h8.1v53.28Z"/><path class="cls-13" d="M451.02,951.92c-2.56.04-4.67.82-6.33,2.34s-2.49,3.46-2.49,5.82h-4.2c0-2.48.56-4.67,1.68-6.57s2.66-3.39,4.62-4.47c1.96-1.08,4.2-1.62,6.72-1.62s4.9.48,6.9,1.44c2,.96,3.56,2.3,4.68,4.02,1.12,1.72,1.66,3.7,1.62,5.94,0,1.96-.49,3.78-1.47,5.46s-2.29,3.06-3.93,4.14c2.08,1.04,3.75,2.5,5.01,4.38,1.26,1.88,1.89,3.98,1.89,6.3,0,2.52-.61,4.75-1.83,6.69-1.22,1.94-2.91,3.46-5.07,4.56s-4.64,1.65-7.44,1.65-5.24-.61-7.44-1.83c-2.2-1.22-3.92-2.87-5.16-4.95-1.24-2.08-1.82-4.38-1.74-6.9h4.26c0,2.8.91,5.03,2.73,6.69,1.82,1.66,4.27,2.49,7.35,2.49s5.44-.76,7.2-2.28c1.76-1.52,2.64-3.56,2.64-6.12,0-1.6-.42-3.04-1.26-4.32-.84-1.28-1.98-2.3-3.42-3.06-1.44-.76-3.06-1.14-4.86-1.14h-4.26v-4.02h3.9c1.56,0,2.98-.35,4.26-1.05,1.28-.7,2.29-1.64,3.03-2.82.74-1.18,1.11-2.47,1.11-3.87,0-2.04-.81-3.7-2.43-4.98-1.62-1.28-3.71-1.92-6.27-1.92Z"/><path class="cls-13" d="M512.22,985.28h-4.2v-26.04h-9.78v8.88h5.82v3.78h-15.06v11.7h-4.08v-11.7h-15.66v-3.78h24.9v-16.32h-20.52v-3.78h24.6v7.32h9.78v-6.42h-3.9v-3.9h8.1v40.26ZM514.26,997.22h-37.5v-16.38h4.2v12.48h33.3v3.9Z"/><path class="cls-13" d="M520.62,983.66c2.44-2.96,4.5-5.91,6.18-8.85,1.68-2.94,3-6.02,3.96-9.24.96-3.22,1.56-6.75,1.8-10.59h-11.04v-3.9h28.08c-.04,4-.25,7.69-.63,11.07-.38,3.38-.99,6.58-1.83,9.6s-1.99,5.96-3.45,8.82c-1.46,2.86-3.27,5.79-5.43,8.79l-3.54-2.22c2.4-3.4,4.35-6.73,5.85-9.99s2.63-6.68,3.39-10.26c.76-3.58,1.22-7.55,1.38-11.91h-8.82c-.24,4.36-.83,8.34-1.77,11.94-.94,3.6-2.3,6.98-4.08,10.14-1.78,3.16-4.03,6.28-6.75,9.36l-3.3-2.76ZM560.58,997.88h-4.2v-48.12h-3.9v-3.9h8.1v21.06h8.88v3.9h-8.88v27.06Z"/><path class="cls-13" d="M573.24,986.84l-3-2.64,13.86-15.78v-13.92h-12.12v-3.9h28.62v3.9h-12.3v13.92l13.86,15.78-3,2.64-12.96-14.7-12.96,14.7ZM613.2,997.94h-4.2v-49.38h-3.9v-3.9h8.1v53.28Z"/><path class="cls-13" d="M683.1,955.58h-29.76v-3.9h12.48v-6.12h4.2v6.12h13.08v3.9ZM655.98,968.6c0-2,.53-3.77,1.59-5.31,1.06-1.54,2.53-2.75,4.41-3.63,1.88-.88,4.02-1.32,6.42-1.32s4.52.44,6.36,1.32c1.84.88,3.28,2.09,4.32,3.63,1.04,1.54,1.56,3.31,1.56,5.31s-.52,3.78-1.56,5.34c-1.04,1.56-2.48,2.78-4.32,3.66-1.84.88-3.96,1.32-6.36,1.32s-4.54-.44-6.42-1.32c-1.88-.88-3.35-2.1-4.41-3.66-1.06-1.56-1.59-3.34-1.59-5.34ZM660.18,968.66c0,1.84.77,3.36,2.31,4.56,1.54,1.2,3.51,1.8,5.91,1.8s4.29-.58,5.79-1.74,2.25-2.66,2.25-4.5-.75-3.49-2.25-4.71-3.43-1.83-5.79-1.83-4.37.6-5.91,1.8c-1.54,1.2-2.31,2.74-2.31,4.62ZM661.14,997.7v-15h4.2v11.1h32.4v3.9h-36.6ZM689.46,948.56h-3.9v-3.9h8.1v18.78h8.64v3.9h-8.64v18.66h-4.2v-37.44Z"/><path class="cls-13" d="M737.28,985.22l-2.94-2.58,12.3-15.9v-17.16h4.2v17.28l11.7,15.84-3,2.46-10.86-15.06-11.4,15.12ZM769.8,997.82h-4.2v-30.12h-9.3v-3.9h9.3v-15.54h-3.9v-3.9h8.1v53.46ZM780.12,997.82h-4.2v-53.46h4.2v53.46Z"/><path class="cls-13" d="M834.36,992.24h-49.2v-3.9h49.2v3.9ZM826.8,976.64h-34.08v-26.94h34.08v3.9h-29.88v7.62h29.88v3.9h-29.88v7.62h29.88v3.9Z"/><path class="cls-13" d="M843.11,974.84v-15.12h29.88v-6.12h-29.88v-3.9h34.08v13.92h-29.88v7.32h29.88v3.9h-14.82v13.5h22.26v3.9h-48.72v-3.9h22.26v-13.5h-15.06Z"/><path class="cls-13" d="M117.9,1165.45h-48.9v-3.9h22.38v-12.18h-16.26v-3.9h7.56v-18.54h-7.56v-3.9h36.48v3.9h-7.56v18.54h7.56v3.9h-16.02v12.18h22.32v3.9ZM86.88,1126.93v18.54h12.96v-18.54h-12.96Z"/><path class="cls-13" d="M168.36,1165.27h-48.9v-3.9h48.9v3.9ZM125.34,1149.01l-2.1-3.3,18.48-12.72v-10.8h4.2v10.8l18.48,12.72-2.1,3.3-18.48-12.72-18.48,12.72Z"/><path class="cls-13" d="M217.5,1164.73h-46.5v-3.9h18.54v-13.56h4.2v13.56h13.26v-18.78h-32.28v-3.9h32.28v-11.22h-29.88v-3.9h34.08v37.8h6.3v3.9Z"/><path class="cls-13" d="M257.52,1146.91h-33.78v-15.36h19.44v-6.42h-19.92v-3.9h24.12v14.22h-19.44v7.56h29.58v-21.36h-3.9v-3.9h8.1v13.56h8.22v3.9h-8.22v15h-4.2v-3.3ZM228.78,1161.79c0-3.2,1.45-5.67,4.35-7.41,2.9-1.74,7.01-2.61,12.33-2.61,5.36-.04,9.48.81,12.36,2.55,2.88,1.74,4.32,4.23,4.32,7.47s-1.44,5.67-4.32,7.41c-2.88,1.74-7,2.61-12.36,2.61s-9.43-.87-12.33-2.61c-2.9-1.74-4.35-4.21-4.35-7.41ZM232.98,1161.79c0,1.96,1.08,3.47,3.24,4.53s5.24,1.59,9.24,1.59,7.08-.53,9.24-1.59,3.24-2.57,3.24-4.53-1.08-3.47-3.24-4.53c-2.16-1.06-5.24-1.59-9.24-1.59s-7.08.53-9.24,1.59c-2.16,1.06-3.24,2.57-3.24,4.53Z"/><path class="cls-13" d="M331.98,1164.37h-26.76v-4.2h12.3v-32.82l-9.18,9.66-2.94-2.64,12.12-12.6h4.5v38.4h9.96v4.2Z"/><path class="cls-13" d="M335.94,1142.89c0-7.16,1.31-12.65,3.93-16.47,2.62-3.82,6.35-5.75,11.19-5.79,4.76-.04,8.41,1.86,10.95,5.7s3.81,9.36,3.81,16.56-1.27,12.72-3.81,16.56-6.19,5.74-10.95,5.7c-4.84-.04-8.57-1.98-11.19-5.82-2.62-3.84-3.93-9.32-3.93-16.44ZM340.44,1142.89c0,5.8.92,10.26,2.76,13.38,1.84,3.12,4.46,4.68,7.86,4.68s5.86-1.56,7.62-4.68c1.76-3.12,2.64-7.58,2.64-13.38s-.88-10.31-2.64-13.41c-1.76-3.1-4.3-4.65-7.62-4.65s-6.02,1.55-7.86,4.65c-1.84,3.1-2.76,7.57-2.76,13.41ZM348.24,1146.25v-5.34h5.28v5.34h-5.28Z"/><path class="cls-13" d="M411.3,1156.93h-4.2v-20.22h-12.18v11.82h-23.46v-26.16h4.2v10.38h15.06v-10.38h4.2v10.44h12.18v-10.2h-3.9v-3.9h8.1v38.22ZM375.66,1136.65v7.98h15.06v-7.98h-15.06ZM412.74,1170.37h-34.32v-16.44h4.2v12.54h30.12v3.9Z"/><path class="cls-13" d="M457.38,1159.39h-38.34v-3.9h38.28l-.06-33.54h-3.96v-3.9h8.28v53.76h-4.2v-12.42ZM423.06,1135.27c0-2.2.59-4.2,1.77-6,1.18-1.8,2.76-3.25,4.74-4.35,1.98-1.1,4.13-1.65,6.45-1.65,2.32.08,4.45.69,6.39,1.83,1.94,1.14,3.5,2.6,4.68,4.38,1.18,1.78,1.77,3.71,1.77,5.79s-.59,4.08-1.77,5.88c-1.18,1.8-2.74,3.24-4.68,4.32-1.94,1.08-4.07,1.62-6.39,1.62s-4.47-.54-6.45-1.62-3.56-2.52-4.74-4.32c-1.18-1.8-1.77-3.76-1.77-5.88ZM427.26,1135.27c0,1.4.4,2.7,1.2,3.9.8,1.2,1.87,2.16,3.21,2.88s2.79,1.08,4.35,1.08,3-.36,4.32-1.08,2.37-1.68,3.15-2.88c.78-1.2,1.17-2.5,1.17-3.9,0-1.48-.39-2.83-1.17-4.05-.78-1.22-1.83-2.2-3.15-2.94s-2.76-1.11-4.32-1.11-3.01.37-4.35,1.11-2.41,1.72-3.21,2.94-1.2,2.57-1.2,4.05Z"/><path class="cls-13" d="M520.38,1170.97h-4.2v-19.92h-13.92v-3.9h34.38v3.9h-16.26v19.92ZM505.56,1131.97c0-2.2.53-4.15,1.59-5.85,1.06-1.7,2.53-3.04,4.41-4.02,1.88-.98,4.02-1.47,6.42-1.47,3.2,0,5.91.81,8.13,2.43,2.22,1.62,3.61,3.73,4.17,6.33h10.32v-8.04h-3.9v-3.9h8.1v53.52h-4.2v-37.68h-10.08c-.2,1.92-.87,3.61-2.01,5.07-1.14,1.46-2.61,2.61-4.41,3.45-1.8.84-3.84,1.26-6.12,1.26-2.4,0-4.54-.48-6.42-1.44-1.88-.96-3.35-2.27-4.41-3.93-1.06-1.66-1.59-3.57-1.59-5.73ZM509.76,1131.97c0,2.08.77,3.8,2.31,5.16,1.54,1.36,3.51,2.04,5.91,2.04s4.5-.68,6.06-2.04,2.34-3.08,2.34-5.16-.78-3.94-2.34-5.34-3.58-2.1-6.06-2.1-4.37.7-5.91,2.1c-1.54,1.4-2.31,3.18-2.31,5.34Z"/><path class="cls-13" d="M599.1,1164.73h-46.5v-3.9h36v-18.78h-32.28v-3.9h32.28v-11.22h-29.88v-3.9h34.08v37.8h6.3v3.9Z"/><path class="cls-13" d="M604.8,1146.67l-2.7-2.82,13.8-12.72v-10.62h4.2v11.04l12.66,11.7-2.7,2.82-12.18-11.22h-.24l-12.84,11.82ZM611.7,1170.91v-10.68h-.06v-3.78h.06v-6.48h4.08v6.48h23.16v-6.48h4.08v20.94h-31.32ZM615.78,1160.23v6.9h23.16v-6.9h-23.16ZM638.82,1122.73h-3.9v-3.9h8.1v6.72h8.52v3.9h-8.52v7.14h8.52v3.9h-8.52v6.66h-4.2v-24.42Z"/><path class="cls-13" d="M700.86,1165.27h-48.66v-3.9h48.66v3.9ZM676.56,1151.59c-3.2,0-6.1-.62-8.7-1.86-2.6-1.24-4.66-2.91-6.18-5.01-1.52-2.1-2.28-4.45-2.28-7.05s.76-4.96,2.28-7.08c1.52-2.12,3.58-3.8,6.18-5.04s5.5-1.86,8.7-1.86,6.1.62,8.7,1.86c2.6,1.24,4.66,2.92,6.18,5.04,1.52,2.12,2.28,4.48,2.28,7.08s-.76,4.95-2.28,7.05c-1.52,2.1-3.58,3.77-6.18,5.01-2.6,1.24-5.5,1.86-8.7,1.86ZM663.6,1137.67c0,1.88.58,3.58,1.74,5.1,1.16,1.52,2.72,2.72,4.68,3.6,1.96.88,4.14,1.32,6.54,1.32s4.63-.44,6.57-1.32c1.94-.88,3.49-2.08,4.65-3.6,1.16-1.52,1.74-3.22,1.74-5.1s-.58-3.58-1.74-5.1c-1.16-1.52-2.71-2.73-4.65-3.63-1.94-.9-4.13-1.35-6.57-1.35s-4.58.45-6.54,1.35c-1.96.9-3.52,2.11-4.68,3.63-1.16,1.52-1.74,3.22-1.74,5.1Z"/><path class="cls-13" d="M709.92,1148.17v-15.12h29.88v-6.12h-29.88v-3.9h34.08v13.92h-29.88v7.32h29.88v3.9h-14.82v13.5h22.26v3.9h-48.72v-3.9h22.26v-13.5h-15.06Z"/><path class="cls-13" d="M70.98,1220.68c0-2.32.6-4.42,1.8-6.3,1.2-1.88,2.81-3.38,4.83-4.5,2.02-1.12,4.29-1.68,6.81-1.68,2.48.08,4.73.7,6.75,1.86,2.02,1.16,3.62,2.66,4.8,4.5,1.18,1.84,1.77,3.88,1.77,6.12s-.59,4.35-1.77,6.21c-1.18,1.86-2.78,3.34-4.8,4.44-2.02,1.1-4.27,1.65-6.75,1.65s-4.79-.55-6.81-1.65-3.63-2.58-4.83-4.44c-1.2-1.86-1.8-3.93-1.8-6.21ZM75.18,1220.68c0,1.56.41,2.98,1.23,4.26.82,1.28,1.93,2.29,3.33,3.03,1.4.74,2.96,1.11,4.68,1.11s3.26-.37,4.62-1.11c1.36-.74,2.45-1.75,3.27-3.03.82-1.28,1.23-2.7,1.23-4.26s-.41-3.05-1.23-4.35c-.82-1.3-1.91-2.33-3.27-3.09s-2.9-1.14-4.62-1.14-3.28.38-4.68,1.14c-1.4.76-2.51,1.79-3.33,3.09-.82,1.3-1.23,2.75-1.23,4.35ZM112.62,1258h-33.42v-19.32h33.42v19.32ZM83.4,1242.58v11.52h25.02v-11.52h-25.02ZM112.44,1235.2h-4.2v-27.18h-3.9v-3.9h8.1v31.08Z"/><path class="cls-13" d="M137.28,1236.52h-17.76v-3.9h33.96v3.9h-12v8.76h-4.2v-8.76ZM122.34,1217.86c0-2.2.53-4.15,1.59-5.85,1.06-1.7,2.53-3.04,4.41-4.02s4.02-1.47,6.42-1.47c3.32,0,6.12.87,8.4,2.61,2.28,1.74,3.64,4.03,4.08,6.87h11.16v-7.38h-4.08v-3.6h8.28v41.4h-4.2v-26.52h-11.22c-.48,2.68-1.84,4.86-4.08,6.54-2.24,1.68-5.02,2.52-8.34,2.52-2.4,0-4.54-.48-6.42-1.44s-3.35-2.27-4.41-3.93-1.59-3.57-1.59-5.73ZM126.54,1217.86c0,2.08.77,3.8,2.31,5.16,1.54,1.36,3.51,2.04,5.91,2.04s4.5-.68,6.06-2.04c1.56-1.36,2.34-3.08,2.34-5.16s-.8-3.94-2.4-5.34c-1.6-1.4-3.66-2.1-6.18-2.1-2.32,0-4.24.7-5.76,2.1s-2.28,3.18-2.28,5.34ZM127.02,1257.7v-16.5h4.2v12.6h34.26v3.9h-38.46Z"/><path class="cls-13" d="M218.22,1232.38h-48.24v-3.9h48.24v3.9ZM208.02,1240.84h-31.74v-3.9h35.94v12.54h-31.74v5.04h33.36v3.9h-37.56v-12.84h31.74v-4.74ZM177.12,1215.28c0-1.84.72-3.47,2.16-4.89,1.44-1.42,3.45-2.53,6.03-3.33,2.58-.8,5.53-1.2,8.85-1.2s6.32.4,8.88,1.2c2.56.8,4.56,1.91,6,3.33,1.44,1.42,2.16,3.05,2.16,4.89s-.72,3.48-2.16,4.92c-1.44,1.44-3.44,2.56-6,3.36-2.56.8-5.52,1.2-8.88,1.2s-6.27-.4-8.85-1.2c-2.58-.8-4.59-1.92-6.03-3.36-1.44-1.44-2.16-3.08-2.16-4.92ZM181.32,1215.28c0,1.08.55,2.05,1.65,2.91,1.1.86,2.61,1.53,4.53,2.01,1.92.48,4.14.72,6.66.72s4.75-.24,6.69-.72,3.45-1.15,4.53-2.01c1.08-.86,1.62-1.83,1.62-2.91s-.54-2.03-1.62-2.85-2.59-1.46-4.53-1.92c-1.94-.46-4.17-.69-6.69-.69s-4.74.23-6.66.69c-1.92.46-3.43,1.1-4.53,1.92-1.1.82-1.65,1.77-1.65,2.85Z"/><path class="cls-13" d="M268.44,1238.68h-14.22v-3.9h37.8v-26.76h-4.08v-3.9h8.28v53.16h-4.2v-18.6h-19.38v18.6h-4.2v-18.6ZM257.7,1218.1c0-2.2.55-4.15,1.65-5.85,1.1-1.7,2.61-3.03,4.53-3.99,1.92-.96,4.14-1.44,6.66-1.44,2.48.08,4.68.62,6.6,1.62s3.42,2.33,4.5,3.99,1.62,3.55,1.62,5.67-.54,4.13-1.62,5.79c-1.08,1.66-2.58,2.96-4.5,3.9-1.92.94-4.12,1.41-6.6,1.41s-4.74-.47-6.66-1.41c-1.92-.94-3.43-2.24-4.53-3.9-1.1-1.66-1.65-3.59-1.65-5.79ZM261.9,1218.1c0,2.08.8,3.8,2.4,5.16,1.6,1.36,3.68,2.04,6.24,2.04s4.52-.68,6.12-2.04c1.6-1.36,2.4-3.08,2.4-5.16s-.8-3.93-2.4-5.31c-1.6-1.38-3.64-2.07-6.12-2.07s-4.64.69-6.24,2.07c-1.6,1.38-2.4,3.15-2.4,5.31Z"/><path class="cls-13" d="M333.9,1215.58h-29.76v-3.9h12.48v-6.12h4.2v6.12h13.08v3.9ZM306.78,1228.6c0-2,.53-3.77,1.59-5.31,1.06-1.54,2.53-2.75,4.41-3.63,1.88-.88,4.02-1.32,6.42-1.32s4.52.44,6.36,1.32c1.84.88,3.28,2.09,4.32,3.63,1.04,1.54,1.56,3.31,1.56,5.31s-.52,3.78-1.56,5.34-2.48,2.78-4.32,3.66c-1.84.88-3.96,1.32-6.36,1.32s-4.54-.44-6.42-1.32c-1.88-.88-3.35-2.1-4.41-3.66-1.06-1.56-1.59-3.34-1.59-5.34ZM310.98,1228.66c0,1.84.77,3.36,2.31,4.56,1.54,1.2,3.51,1.8,5.91,1.8s4.29-.58,5.79-1.74,2.25-2.66,2.25-4.5-.75-3.49-2.25-4.71-3.43-1.83-5.79-1.83-4.37.6-5.91,1.8c-1.54,1.2-2.31,2.74-2.31,4.62ZM311.94,1257.7v-15h4.2v11.1h32.4v3.9h-36.6ZM340.26,1208.56h-3.9v-3.9h8.1v18.78h8.64v3.9h-8.64v18.66h-4.2v-37.44Z"/><path class="cls-13" d="M408.72,1244.68h-18.12v-.06h-3.24v-33h21.36v33.06ZM391.56,1215.52v25.26h12.96v-25.26h-12.96ZM415.8,1209.46h-3.9v-3.9h8.1v20.7h6.72v-20.7h4.2v52.26h-4.2v-27.66h-6.72v27.66h-4.2v-48.36Z"/><path class="cls-13" d="M474.96,1242.7h-34.74l.12-33.66h4.2l-.12,29.76h30.54v-30.54h-3.3v-3.6h7.5v53.28h-4.2v-15.24Z"/><path class="cls-13" d="M493.38,1216.06h-5.94v-3.9h26.16v3.9h-5.76v9.12h9.9v-15.72h-4.02v-3.9h8.22v52.26h-4.2v-28.74h-9.9v12.48h5.88v3.9h-26.94v-3.9h6.6v-25.5ZM497.58,1216.06v25.5h6.06v-25.5h-6.06ZM531.9,1257.82h-4.2v-52.26h4.2v52.26Z"/><path class="cls-13" d="M585.96,1251.94h-48.9v-3.9h48.9v3.9ZM542.94,1235.68l-2.1-3.3,18.48-12.72v-10.8h4.2v10.8l18.48,12.72-2.1,3.3-18.48-12.72-18.48,12.72Z"/><path class="cls-13" d="M636.36,1252.24h-49.2v-3.9h22.5v-11.7h-14.94v-26.94h34.08v3.9h-29.88v7.62h29.88v3.9h-29.88v7.62h29.88v3.9h-14.94v11.7h22.5v3.9Z"/><path class="cls-13" d="M686.58,1234.18h-48.06v-3.9h48.06v3.9ZM680.4,1257.34h-35.34v-11.64h30.6v-3.6h-30.6v-3.9h34.8v11.1h-30.6v4.14h31.14v3.9ZM675.72,1210.84h-30.6v-3.9h34.8v11.22h-30.6v4.44h31.14v3.9h-35.34v-11.94h30.6v-3.72Z"/><path class="cls-13" d="M747.06,1233.64h-23.4v-24.18h23.4v24.18ZM727.86,1213.36v16.38h15v-16.38h-15ZM765.78,1257.22h-35.04v-17.76h4.2v13.86h30.84v3.9ZM757.56,1208.62h-3.9v-3.9h8.1v16.44h8.58v3.9h-8.58v18.96h-4.2v-35.4Z"/><path class="cls-13" d="M819.78,1233.34h-48.66v-3.9h48.66v3.9ZM813.6,1257.34h-35.34v-11.64h30.6v-3.6h-30.6v-3.9h34.8v11.1h-30.6v4.14h31.14v3.9ZM811.98,1225.24h-33.6v-17.76h33.6v3.72h-29.58v10.32h29.58v3.72Z"/><path class="cls-13" d="M825.96,1258.72l-2.88-2.52,11.16-10.14v-7.92h4.08v7.98l8.4,7.14,8.52-7.32v-7.8h4.2v8.16l11.04,10.02-2.88,2.52-10.5-9.54-10.38,8.94h-.06l-10.38-8.94-10.32,9.42ZM837,1233.52c-2.52,0-4.74-.53-6.66-1.59-1.92-1.06-3.42-2.54-4.5-4.44s-1.62-4.07-1.62-6.51.54-4.51,1.62-6.33,2.58-3.24,4.5-4.26c1.92-1.02,4.14-1.53,6.66-1.53,3.2,0,5.89.84,8.07,2.52,2.18,1.68,3.57,3.92,4.17,6.72h11.16v-9h-3.9v-3.9h8.1v30.54h-4.2v-13.74h-10.92c-.12,2.28-.73,4.28-1.83,6-1.1,1.72-2.56,3.07-4.38,4.05-1.82.98-3.91,1.47-6.27,1.47ZM828.42,1221.04c0,2.52.79,4.58,2.37,6.18,1.58,1.6,3.61,2.4,6.09,2.4s4.51-.8,6.09-2.4c1.58-1.6,2.37-3.68,2.37-6.24,0-2.4-.77-4.37-2.31-5.91s-3.55-2.31-6.03-2.31-4.58.77-6.18,2.31c-1.6,1.54-2.4,3.53-2.4,5.97Z"/><path class="cls-13" d="M919.5,1251.4h-46.5v-3.9h18.54v-19.02h4.2v19.02h13.26v-33.9h-29.88v-3.9h34.08v37.8h6.3v3.9Z"/><path class="cls-13" d="M99.12,1424.37h-25.98l-.06-42.6h4.5v38.4h21.54v4.2Z"/><path class="cls-13" d="M126.6,1395.63c-.32-3.32-1.43-5.95-3.33-7.89-1.9-1.94-4.33-2.91-7.29-2.91-3.76,0-6.65,1.57-8.67,4.71s-3.03,7.63-3.03,13.47,1.06,10.28,3.18,13.44c2.12,3.16,5.12,4.74,9,4.74,3.12,0,5.59-1.3,7.41-3.9,1.82-2.6,2.73-6.14,2.73-10.62v-.72h-12.24v-4.2h16.2v23.4h-4.2v-1.26l.06-3.66c-1,1.6-2.46,2.87-4.38,3.81s-3.94,1.39-6.06,1.35c-5.2-.04-9.2-2-12-5.88-2.8-3.88-4.2-9.38-4.2-16.5s1.4-12.67,4.2-16.53c2.8-3.86,6.8-5.81,12-5.85,4.24-.04,7.64,1.24,10.2,3.84s4.02,6.32,4.38,11.16h-3.96Z"/><path class="cls-13" d="M147.36,1413.27h-13.5v-3.9h48.66v3.9h-13.44v18.54h-4.2v-18.54h-13.32v18.54h-4.2v-18.54ZM158.22,1403.91c-2.8,0-5.34-.55-7.62-1.65-2.28-1.1-4.09-2.57-5.43-4.41s-2.01-3.9-2.01-6.18.67-4.33,2.01-6.15,3.15-3.27,5.43-4.35c2.28-1.08,4.82-1.62,7.62-1.62s5.39.54,7.65,1.62c2.26,1.08,4.06,2.53,5.4,4.35,1.34,1.82,2.01,3.87,2.01,6.15s-.67,4.34-2.01,6.18c-1.34,1.84-3.14,3.31-5.4,4.41-2.26,1.1-4.81,1.65-7.65,1.65ZM147.36,1391.67c0,1.56.48,2.97,1.44,4.23.96,1.26,2.27,2.26,3.93,3,1.66.74,3.49,1.11,5.49,1.11s3.88-.37,5.52-1.11c1.64-.74,2.94-1.74,3.9-3,.96-1.26,1.44-2.67,1.44-4.23s-.48-2.96-1.44-4.2c-.96-1.24-2.26-2.22-3.9-2.94-1.64-.72-3.48-1.08-5.52-1.08s-3.83.36-5.49,1.08c-1.66.72-2.97,1.7-3.93,2.94-.96,1.24-1.44,2.64-1.44,4.2Z"/><path class="cls-13" d="M231.72,1405.95h-46.86v-3.9h46.86v3.9ZM197.88,1383.99h-7.32v-3.9h37.2v3.9h-8.16v10.08h8.16v3.9h-37.2v-3.9h7.32v-10.08ZM228.48,1430.85h-37.2v-12h31.2v-4.38h-31.2v-3.9h35.4v12.18h-31.2v4.2h33v3.9ZM202.08,1383.99v10.08h13.32v-10.08h-13.32Z"/><path class="cls-13" d="M278.4,1431.27h-4.2v-34.56h-13.98v4.62h-17.76v12.36h23.58v3.9h-27.78v-20.16h17.76v-10.02h-17.76v-3.9h21.96v9.3h13.98v-10.32h-3.9v-3.9h8.1v52.68Z"/><path class="cls-13" d="M333.96,1425.27h-48.9v-3.9h48.9v3.9ZM290.94,1409.01l-2.1-3.3,18.48-12.72v-10.8h4.2v10.8l18.48,12.72-2.1,3.3-18.48-12.72-18.48,12.72Z"/><path class="cls-13" d="M372.72,1406.91h-33.78v-15.36h19.44v-6.42h-19.92v-3.9h24.12v14.22h-19.44v7.56h29.58v-21.36h-3.9v-3.9h8.1v13.56h8.22v3.9h-8.22v15h-4.2v-3.3ZM343.98,1421.79c0-3.2,1.45-5.67,4.35-7.41,2.9-1.74,7.01-2.61,12.33-2.61,5.36-.04,9.48.81,12.36,2.55,2.88,1.74,4.32,4.23,4.32,7.47s-1.44,5.67-4.32,7.41c-2.88,1.74-7,2.61-12.36,2.61s-9.43-.87-12.33-2.61c-2.9-1.74-4.35-4.21-4.35-7.41ZM348.18,1421.79c0,1.96,1.08,3.47,3.24,4.53s5.24,1.59,9.24,1.59,7.08-.53,9.24-1.59,3.24-2.57,3.24-4.53-1.08-3.47-3.24-4.53c-2.16-1.06-5.24-1.59-9.24-1.59s-7.08.53-9.24,1.59c-2.16,1.06-3.24,2.57-3.24,4.53Z"/><path class="cls-13" d="M433.8,1410.33h-47.46v-3.9h47.46v3.9ZM392.64,1431.09v-15.36h4.2v11.46h31.62v3.9h-35.82ZM393.12,1391.31c0-2,.73-3.78,2.19-5.34,1.46-1.56,3.49-2.78,6.09-3.66,2.6-.88,5.56-1.32,8.88-1.32s6.33.44,8.91,1.32c2.58.88,4.61,2.1,6.09,3.66,1.48,1.56,2.22,3.34,2.22,5.34s-.74,3.78-2.22,5.34c-1.48,1.56-3.51,2.78-6.09,3.66-2.58.88-5.55,1.32-8.91,1.32s-6.28-.44-8.88-1.32c-2.6-.88-4.63-2.1-6.09-3.66-1.46-1.56-2.19-3.34-2.19-5.34ZM397.32,1391.37c0,1.24.56,2.34,1.68,3.3,1.12.96,2.65,1.71,4.59,2.25,1.94.54,4.17.81,6.69.81s4.81-.27,6.75-.81c1.94-.54,3.47-1.29,4.59-2.25,1.12-.96,1.68-2.06,1.68-3.3s-.56-2.4-1.68-3.36c-1.12-.96-2.65-1.72-4.59-2.28-1.94-.56-4.19-.84-6.75-.84s-4.75.28-6.69.84c-1.94.56-3.47,1.32-4.59,2.28-1.12.96-1.68,2.08-1.68,3.36Z"/><path class="cls-13" d="M471.3,1420.05l-3.06-2.4,13.92-17.58v-17.04h4.2v17.04l13.98,17.58-3.12,2.4-12.96-16.32-12.96,16.32ZM509.4,1431.27h-4.2v-49.68h-3.9v-3.6h8.1v20.4h8.88v3.9h-8.88v28.98Z"/><path class="cls-13" d="M552,1430.91h-4.2v-13.08h-26.04v-33.6h4.2v29.7h21.84v-32.1h-3.9v-3.9h8.1v21.9h8.58v-21.9h4.2v52.98h-4.2v-27.18h-8.58v27.18Z"/><path class="cls-13" d="M604.14,1401.63c0-3.48.54-6.49,1.62-9.03,1.08-2.54,2.63-4.5,4.65-5.88s4.41-2.07,7.17-2.07c2.72.08,5.08.83,7.08,2.25s3.54,3.38,4.62,5.88,1.62,5.45,1.62,8.85-.54,6.42-1.62,8.94-2.62,4.46-4.62,5.82-4.36,2.04-7.08,2.04-5.15-.68-7.17-2.04-3.57-3.3-4.65-5.82-1.62-5.5-1.62-8.94ZM608.34,1401.63c0,3.96.83,7.1,2.49,9.42s3.91,3.48,6.75,3.48,5.02-1.16,6.66-3.48c1.64-2.32,2.46-5.46,2.46-9.42s-.82-7.23-2.46-9.57c-1.64-2.34-3.86-3.51-6.66-3.51s-5.09,1.17-6.75,3.51-2.49,5.53-2.49,9.57ZM645.18,1431.27h-4.2v-49.38h-3.9v-3.9h8.1v53.28Z"/><path class="cls-13" d="M679.02,1416.27h-23.52v-32.22h23.52v32.22ZM659.7,1387.95v24.42h15.12v-24.42h-15.12ZM694.98,1431.27h-4.2v-49.38h-3.9v-3.9h8.1v53.28Z"/><path class="cls-13" d="M706.44,1420.17l-3-2.64,13.86-15.78v-13.92h-12.12v-3.9h28.62v3.9h-12.3v13.92l13.86,15.78-3,2.64-12.96-14.7-12.96,14.7ZM746.4,1431.27h-4.2v-49.38h-3.9v-3.9h8.1v53.28Z"/><path class="cls-13" d="M822.72,1407.03h-35.88v-3.78h13.32v-5.58h4.02v5.58h18.54l.06-20.82h-3.9v-3.9h8.1v13.02h8.04v3.78h-8.1v13.56h-4.2v-1.86ZM789.84,1400.67l-2.46-3.06,12.72-7.62v-3h-11.46v-3.78h11.46v-4.62h4.08v4.62h11.94v3.78h-11.94v3.24l12.12,6.72-2.28,3.18-12.12-6.72-12.06,7.26ZM793.8,1431.81v-12.3h29.04v-4.68h-29.1v-3.78h33.18v12.24h-29.04v4.62h32.04v3.9h-36.12Z"/><path class="cls-13" d="M878.4,1410.33h-4.2v-8.76h-13.5c-1.08,1.72-2.52,3.06-4.32,4.02-1.8.96-3.86,1.44-6.18,1.44-2.48,0-4.69-.55-6.63-1.65-1.94-1.1-3.45-2.61-4.53-4.53-1.08-1.92-1.62-4.14-1.62-6.66s.54-4.59,1.62-6.45c1.08-1.86,2.59-3.32,4.53-4.38,1.94-1.06,4.15-1.59,6.63-1.59s4.53.5,6.39,1.5,3.31,2.38,4.35,4.14h13.26v-4.98h-3.9v-3.9h8.1v31.8ZM841.61,1394.25c0,2.6.79,4.73,2.37,6.39,1.58,1.66,3.61,2.49,6.09,2.49s4.51-.84,6.09-2.52c1.58-1.68,2.37-3.82,2.37-6.42s-.77-4.52-2.31-6.12c-1.54-1.6-3.55-2.4-6.03-2.4s-4.58.8-6.18,2.4c-1.6,1.6-2.4,3.66-2.4,6.18ZM845.16,1421.73c0-3.24,1.49-5.74,4.47-7.5,2.98-1.76,7.23-2.64,12.75-2.64,5.52-.04,9.77.82,12.75,2.58,2.98,1.76,4.47,4.28,4.47,7.56s-1.49,5.74-4.47,7.5c-2.98,1.76-7.23,2.64-12.75,2.64s-9.77-.88-12.75-2.64c-2.98-1.76-4.47-4.26-4.47-7.5ZM849.24,1421.73c0,2,1.14,3.54,3.42,4.62,2.28,1.08,5.52,1.62,9.72,1.62s7.44-.54,9.72-1.62c2.28-1.08,3.42-2.62,3.42-4.62s-1.14-3.54-3.42-4.62-5.52-1.62-9.72-1.62-7.44.54-9.72,1.62c-2.28,1.08-3.42,2.62-3.42,4.62ZM862.74,1394.19c0,.6-.03,1.19-.09,1.77-.06.58-.17,1.15-.33,1.71h11.88v-6.36h-11.76c.08.44.15.9.21,1.38.06.48.09.98.09,1.5Z"/><path class="cls-13" d="M887.82,1416.99c2.44-2.96,4.5-5.91,6.18-8.85s3-6.02,3.96-9.24c.96-3.22,1.56-6.75,1.8-10.59h-11.04v-3.9h28.08c-.04,4-.25,7.69-.63,11.07-.38,3.38-.99,6.58-1.83,9.6-.84,3.02-1.99,5.96-3.45,8.82-1.46,2.86-3.27,5.79-5.43,8.79l-3.54-2.22c2.4-3.4,4.35-6.73,5.85-9.99,1.5-3.26,2.63-6.68,3.39-10.26s1.22-7.55,1.38-11.91h-8.82c-.24,4.36-.83,8.34-1.77,11.94-.94,3.6-2.3,6.98-4.08,10.14-1.78,3.16-4.03,6.28-6.75,9.36l-3.3-2.76ZM927.78,1431.21h-4.2v-48.12h-3.9v-3.9h8.1v21.06h8.88v3.9h-8.88v27.06Z"/><path class="cls-13" d="M940.44,1420.17l-3-2.64,13.86-15.78v-13.92h-12.12v-3.9h28.62v3.9h-12.3v13.92l13.86,15.78-3,2.64-12.96-14.7-12.96,14.7ZM980.4,1431.27h-4.2v-49.38h-3.9v-3.9h8.1v53.28Z"/><path class="cls-13" d="M105.72,1503.36h-33.78l.12-29.46v-2.22h24.18v3.9h-19.98l-.12,23.88h29.58v-31.2h-3.9v-3.9h8.1v21.3h9.24v3.9h-9.24v28.02h-4.2v-14.22Z"/><path class="cls-13" d="M123.54,1505.64l-3.06-2.4,13.68-18.42v-15.3h4.2v15l14.34,18.66-3,2.46-13.32-17.28-12.84,17.28ZM163.56,1517.94h-4.2v-49.38h-3.9v-3.9h8.1v53.28Z"/><path class="cls-13" d="M233.34,1478.34h-30.54v-3.9h13.2v-8.82h4.2v8.82h13.14v3.9ZM218.1,1506.06c-2.32,0-4.42-.52-6.3-1.56-1.88-1.04-3.37-2.43-4.47-4.17-1.1-1.74-1.65-3.69-1.65-5.85s.55-4.17,1.65-5.91c1.1-1.74,2.59-3.13,4.47-4.17,1.88-1.04,3.98-1.56,6.3-1.56s4.35.52,6.21,1.56c1.86,1.04,3.33,2.43,4.41,4.17,1.08,1.74,1.62,3.71,1.62,5.91s-.54,4.11-1.62,5.85-2.55,3.13-4.41,4.17c-1.86,1.04-3.93,1.56-6.21,1.56ZM209.88,1494.6c0,1.4.36,2.68,1.08,3.84s1.71,2.07,2.97,2.73,2.65.99,4.17.99,2.88-.33,4.08-.99c1.2-.66,2.16-1.56,2.88-2.7.72-1.14,1.08-2.39,1.08-3.75,0-1.48-.36-2.82-1.08-4.02-.72-1.2-1.68-2.16-2.88-2.88-1.2-.72-2.56-1.08-4.08-1.08s-2.91.35-4.17,1.05c-1.26.7-2.25,1.64-2.97,2.82s-1.08,2.51-1.08,3.99ZM238.08,1468.56h-3.9v-3.9h8.1v21.66h10.8v3.9h-10.8v27.72h-4.2v-49.38Z"/><path class="cls-13" d="M288.72,1464.36h7.5v39.3h-4.2v-14.28h-12.42v4.5h-23.82v-24.54h23.82v4.62h12.42v-5.7h-3.3v-3.9ZM259.98,1473.24v16.74h15.42v-16.74h-15.42ZM298.2,1517.1h-35.52v-17.22h4.2v13.32h31.32v3.9ZM279.6,1477.86v7.62h12.42v-7.62h-12.42Z"/><path class="cls-13" d="M306.48,1506.18l-3.06-2.4,13.68-15.54v-18.18h4.2v17.94l14.34,15.72-3,2.46-13.32-14.64-12.84,14.64ZM346.74,1517.94h-4.2v-31.38h-12.24v-3.9h12.24v-14.1h-3.9v-3.9h8.1v53.28Z"/><path class="cls-13" d="M433.32,1512h-47.46v-3.9h47.46v3.9ZM427.2,1497.84h-34.08v-26.88h4.2v9.96h25.68v-9.96h4.2v26.88ZM397.32,1484.82v9.12h25.68v-9.12h-25.68Z"/><path class="cls-13" d="M453.84,1473.66h-14.88v-3.9h19.08v15.18h-14.46v7.5h21.96v-23.22h-3.9v-3.9h8.1v14.82h7.44v-15.78h4.2v38.94h-4.2v-19.26h-7.44v19.26h-4.2v-6.96h-26.16v-15.3h14.46v-7.38ZM483.06,1517.28l-35.94.12-.06-16.14h4.2v12.24l31.74-.12.06,3.9Z"/><path class="cls-13" d="M535.5,1512.24h-48.9v-3.9h48.9v3.9ZM528,1494.84h-34.08v-25.14h34.08v3.9h-29.88v17.34h29.88v3.9Z"/><path class="cls-13" d="M559.26,1495.44h-21.6v-3.9h47.46v3.9h-21.66v6.48h15.54v16.56h-4.2v-12.66h-32.28v-3.9h16.74v-6.48ZM578.4,1486.56h-34.08v-19.14h4.2v5.1h25.68v-5.1h4.2v19.14ZM548.52,1476.42v6.24h25.68v-6.24h-25.68Z"/><path class="cls-13" d="M646.26,1493.64h-23.4v-24.18h23.4v24.18ZM627.06,1473.36v16.38h15v-16.38h-15ZM664.98,1517.22h-35.04v-17.76h4.2v13.86h30.84v3.9ZM656.76,1468.62h-3.9v-3.9h8.1v16.44h8.58v3.9h-8.58v18.96h-4.2v-35.4Z"/><path class="cls-13" d="M718.98,1492.44h-48.66v-3.9h48.66v3.9ZM696.12,1514.1v-17.22h17.04v21.12h-37.74v-12.54h13.26v-4.86h-13.26v-3.72h17.46v12.48h-13.26v4.74h16.5ZM712.38,1484.22h-34.8v-17.34h34.8v3.72h-30.78v9.9h30.78v3.72ZM700.02,1500.48v13.62h9.24v-13.62h-9.24Z"/></svg>