<?xml version="1.0" encoding="UTF-8"?><svg id="_레이어_1" xmlns="http://www.w3.org/2000/svg" viewBox="0 0 1080 1920"><defs><style>.cls-1{stroke-width:2.16px;}.cls-1,.cls-2,.cls-3,.cls-4,.cls-5,.cls-6,.cls-7,.cls-8,.cls-9,.cls-10,.cls-11,.cls-12{fill:#fff;stroke:#000;stroke-miterlimit:10;}.cls-2{stroke-width:1.98px;}.cls-3{stroke-width:1.85px;}.cls-4{stroke-width:1.95px;}.cls-5{stroke-width:2.12px;}.cls-6{stroke-width:2.11px;}.cls-7{stroke-width:2.15px;}.cls-8{stroke-width:1.97px;}.cls-9{stroke-width:2.01px;}.cls-10{stroke-width:2.11px;}.cls-13{fill:#0000fe;}.cls-11{stroke-width:1.9px;}.cls-12{stroke-width:2.15px;}</style></defs><rect x="-420" y="420" width="1920" height="1080" transform="translate(1500 420) rotate(90)"/><rect class="cls-3" x="66.99" y="64.97" width="712.94" height="83.74"/><rect class="cls-9" x="66.99" y="148.7" width="835.19" height="83.74"/><rect class="cls-1" x="66.99" y="324.99" width="969.86" height="83.74"/><rect class="cls-2" x="66.99" y="408.73" width="810.32" height="83.74"/><rect class="cls-12" x="66.99" y="583.02" width="961.57" height="83.74"/><rect class="cls-4" x="66.99" y="666.76" width="789.6" height="83.74"/><rect class="cls-11" x="66.99" y="846.05" width="746.09" height="83.74"/><rect class="cls-6" x="66.99" y="929.78" width="926.35" height="83.74"/><rect class="cls-5" x="66.99" y="1101.07" width="932.57" height="83.74"/><rect class="cls-10" x="66.99" y="1184.81" width="926.35" height="83.74"/><rect class="cls-8" x="66.99" y="1361.1" width="804.11" height="83.74"/><rect class="cls-7" x="66.99" y="1444.83" width="959.5" height="83.74"/><path class="cls-13" d="M99.12,124.37h-25.98l-.06-42.6h4.5v38.4h21.54v4.2Z"/><path class="cls-13" d="M126.6,95.63c-.32-3.32-1.43-5.95-3.33-7.89s-4.33-2.91-7.29-2.91c-3.76,0-6.65,1.57-8.67,4.71-2.02,3.14-3.03,7.63-3.03,13.47s1.06,10.28,3.18,13.44c2.12,3.16,5.12,4.74,9,4.74,3.12,0,5.59-1.3,7.41-3.9,1.82-2.6,2.73-6.14,2.73-10.62v-.72h-12.24v-4.2h16.2v23.4h-4.2v-1.26l.06-3.66c-1,1.6-2.46,2.87-4.38,3.81s-3.94,1.39-6.06,1.35c-5.2-.04-9.2-2-12-5.88-2.8-3.88-4.2-9.38-4.2-16.5s1.4-12.67,4.2-16.53c2.8-3.86,6.8-5.81,12-5.85,4.24-.04,7.64,1.24,10.2,3.84,2.56,2.6,4.02,6.32,4.38,11.16h-3.96Z"/><path class="cls-13" d="M134.88,96.05c0-2.44.51-4.6,1.53-6.48s2.43-3.35,4.23-4.41c1.8-1.06,3.86-1.59,6.18-1.59,3.12,0,5.74.96,7.86,2.88,2.12,1.92,3.38,4.44,3.78,7.56h6.6v-11.22h-3.9v-3.9h8.1v38.82h-4.2v-19.8h-6.6c-.36,3.12-1.6,5.65-3.72,7.59s-4.76,2.91-7.92,2.91c-2.32,0-4.38-.53-6.18-1.59-1.8-1.06-3.21-2.52-4.23-4.38s-1.53-3.99-1.53-6.39ZM139.08,96.11c0,2.44.71,4.45,2.13,6.03,1.42,1.58,3.25,2.37,5.49,2.37s4.08-.79,5.52-2.37c1.44-1.58,2.16-3.61,2.16-6.09s-.7-4.58-2.1-6.18c-1.4-1.6-3.22-2.4-5.46-2.4s-4.14.8-5.58,2.4c-1.44,1.6-2.16,3.68-2.16,6.24ZM180.78,131.21l-35.94.12-.06-18.06h4.2v14.16l31.74-.12.06,3.9ZM179.1,117.71h-4.2v-38.82h4.2v38.82Z"/><path class="cls-13" d="M232.38,105.05h-47.46v-3.9h21.54v-7.08h4.2v7.08h21.72v3.9ZM189.9,96.23l-1.86-3.42,18.54-8.94v-5.82h4.2v5.82l18.18,8.76-1.86,3.42-18.42-8.88-18.78,9.06ZM227.22,130.91h-35.46v-12.9h29.7v-4.74h-29.7v-3.9h33.9v12.54h-29.7v5.1h31.26v3.9Z"/><path class="cls-13" d="M282.6,110.33h-47.46v-3.9h47.46v3.9ZM241.44,131.09v-15.36h4.2v11.46h31.62v3.9h-35.82ZM241.92,91.31c0-2,.73-3.78,2.19-5.34,1.46-1.56,3.49-2.78,6.09-3.66,2.6-.88,5.56-1.32,8.88-1.32s6.33.44,8.91,1.32c2.58.88,4.61,2.1,6.09,3.66,1.48,1.56,2.22,3.34,2.22,5.34s-.74,3.78-2.22,5.34c-1.48,1.56-3.51,2.78-6.09,3.66-2.58.88-5.55,1.32-8.91,1.32s-6.28-.44-8.88-1.32c-2.6-.88-4.63-2.1-6.09-3.66-1.46-1.56-2.19-3.34-2.19-5.34ZM246.12,91.37c0,1.24.56,2.34,1.68,3.3,1.12.96,2.65,1.71,4.59,2.25,1.94.54,4.17.81,6.69.81s4.81-.27,6.75-.81c1.94-.54,3.47-1.29,4.59-2.25,1.12-.96,1.68-2.06,1.68-3.3s-.56-2.4-1.68-3.36c-1.12-.96-2.65-1.72-4.59-2.28s-4.19-.84-6.75-.84-4.75.28-6.69.84c-1.94.56-3.47,1.32-4.59,2.28-1.12.96-1.68,2.08-1.68,3.36Z"/><path class="cls-13" d="M344.4,88.73h-26.34v-3.9h10.92v-6h4.2v6h11.22v3.9ZM320.16,101.33c0-1.96.48-3.68,1.44-5.16.96-1.48,2.28-2.65,3.96-3.51,1.68-.86,3.6-1.29,5.76-1.29s4.06.43,5.7,1.29,2.93,2.03,3.87,3.51c.94,1.48,1.41,3.2,1.41,5.16s-.47,3.62-1.41,5.1c-.94,1.48-2.23,2.64-3.87,3.48s-3.54,1.26-5.7,1.26-4.08-.42-5.76-1.26c-1.68-.84-3-2-3.96-3.48-.96-1.48-1.44-3.18-1.44-5.1ZM324.36,101.39c0,1.72.65,3.13,1.95,4.23,1.3,1.1,2.97,1.65,5.01,1.65s3.63-.54,4.89-1.62c1.26-1.08,1.89-2.46,1.89-4.14,0-1.84-.63-3.34-1.89-4.5-1.26-1.16-2.89-1.74-4.89-1.74s-3.71.57-5.01,1.71c-1.3,1.14-1.95,2.61-1.95,4.41ZM358.5,119.15h-31.68v-3.9h35.88v17.16h-4.2v-13.26ZM348.42,83.03h-3.9v-3.9h8.1v14.58h5.94v-14.58h4.2v32.88h-4.2v-14.4h-5.94v14.4h-4.2v-28.98Z"/><path class="cls-13" d="M370.8,107.57l-2.7-2.82,13.8-12.72v-10.92h4.2v11.34l12.66,11.7-2.7,2.82-12.18-11.22h-.24l-12.84,11.82ZM378.36,129.05h-.06v-17.1h32.34v18.96h-32.28v-1.86ZM382.38,115.73v11.4h24.18v-11.4h-24.18ZM410.76,108.59h-4.2v-26.58h-3.9v-3.6h8.1v30.18Z"/><path class="cls-13" d="M445.62,83.75c.2,5.4-.65,10.47-2.55,15.21-1.9,4.74-4.68,8.98-8.34,12.72-3.66,3.74-8.05,6.85-13.17,9.33l-1.8-3.78c4.32-2.08,8.03-4.65,11.13-7.71s5.54-6.45,7.32-10.17c1.78-3.72,2.81-7.62,3.09-11.7h-19.62v-3.9h23.94ZM454.62,81.89h-3.9v-3.9h8.1v22.5h9.12v3.9h-9.12v27.42h-4.2v-49.92Z"/><path class="cls-13" d="M483.72,90.83h-11.58v-3.9h11.58v-7.44h4.2v7.44h12.12v3.9h-12.12v9.96l14.28,17.4-3,2.46-13.32-16.2-12.84,16.2-3.06-2.4,13.74-17.34v-10.08ZM508.32,82.19h-3.9v-3.9h8.1v53.46h-4.2v-49.56Z"/><path class="cls-13" d="M558.18,119.39h-38.34v-3.9h38.28l-.06-33.54h-3.96v-3.9h8.28v53.76h-4.2v-12.42ZM523.86,95.27c0-2.2.59-4.2,1.77-6,1.18-1.8,2.76-3.25,4.74-4.35s4.13-1.65,6.45-1.65c2.32.08,4.45.69,6.39,1.83s3.5,2.6,4.68,4.38c1.18,1.78,1.77,3.71,1.77,5.79s-.59,4.08-1.77,5.88c-1.18,1.8-2.74,3.24-4.68,4.32s-4.07,1.62-6.39,1.62-4.47-.54-6.45-1.62-3.56-2.52-4.74-4.32c-1.18-1.8-1.77-3.76-1.77-5.88ZM528.06,95.27c0,1.4.4,2.7,1.2,3.9.8,1.2,1.87,2.16,3.21,2.88,1.34.72,2.79,1.08,4.35,1.08s3-.36,4.32-1.08c1.32-.72,2.37-1.68,3.15-2.88.78-1.2,1.17-2.5,1.17-3.9,0-1.48-.39-2.83-1.17-4.05-.78-1.22-1.83-2.2-3.15-2.94-1.32-.74-2.76-1.11-4.32-1.11s-3.01.37-4.35,1.11c-1.34.74-2.41,1.72-3.21,2.94-.8,1.22-1.2,2.57-1.2,4.05Z"/><path class="cls-13" d="M624.48,89.21c-.08,2.88-.5,5.74-1.26,8.58-.76,2.84-2,5.66-3.72,8.46-1.8,2.92-4.06,5.61-6.78,8.07-2.72,2.46-5.56,4.61-8.52,6.45l-2.22-3.54c2.72-1.76,5.29-3.71,7.71-5.85,2.42-2.14,4.49-4.59,6.21-7.35,1.52-2.4,2.61-4.83,3.27-7.29.66-2.46,1.03-4.97,1.11-7.53h-16.32v-3.9h20.52v3.9ZM630.9,82.73h-3.9v-3.9h8.1v20.52h7.74v-21.42h4.2v53.22h-4.2v-27.9h-7.74v27.9h-4.2v-48.42Z"/><path class="cls-13" d="M687.72,107.63h-31.62v-26.46h4.2v22.56h27.42v3.9ZM696.54,130.97h-33.42v-18.18h33.42v18.18ZM667.32,116.69v10.38h25.02v-10.38h-25.02ZM692.34,97.61h-15.54v-3.9h15.54v-4.14h-15.54v-3.9h15.54v-3.72h-3.9v-3.9h8.1v30.84h-4.2v-11.28Z"/><path class="cls-13" d="M743.64,131.81h-4.2v-12h-37.32v-3.9h12.06v-15.96h4.2v15.96h21.06v-33.42h-3.9v-3.6h8.1v21.42h8.88v3.9h-8.88v27.6ZM728.22,87.95h-23.16v-3.72h27.18v23.76h-4.02v-20.04Z"/><path class="cls-13" d="M72.9,192.5l-2.64-2.88,13.14-12.18v-10.44h4.2v10.44l13.14,12.18-2.64,2.88-12.6-11.7-12.6,11.7ZM79.5,218.42v-13.74h29.34v-4.92h-29.4v-3.9h33.6v12.72h-29.34v5.94h31.8v3.9h-36ZM108.54,179h-12.72v-3.9h12.72v-5.88h-3.9v-3.9h8.1v27.66h-4.2v-13.98Z"/><path class="cls-13" d="M163.32,197.06h-4.2v-8.58h-13.02v4.68h-23.88v-23.76h23.88v4.68h13.02v-4.86h-3.9v-3.9h8.1v31.74ZM126.42,173.3v15.96h15.48v-15.96h-15.48ZM128.16,208.94c0-3.2,1.49-5.67,4.47-7.41,2.98-1.74,7.25-2.61,12.81-2.61,5.96-.04,10.53.81,13.71,2.55,3.18,1.74,4.77,4.23,4.77,7.47s-1.59,5.61-4.77,7.35c-3.18,1.74-7.75,2.61-13.71,2.61-5.56,0-9.83-.87-12.81-2.61-2.98-1.74-4.47-4.19-4.47-7.35ZM132.36,208.94c0,1.96,1.13,3.46,3.39,4.5,2.26,1.04,5.49,1.56,9.69,1.56,4.6,0,8.13-.52,10.59-1.56,2.46-1.04,3.69-2.54,3.69-4.5s-1.23-3.47-3.69-4.53c-2.46-1.06-5.99-1.59-10.59-1.59-4.2,0-7.43.53-9.69,1.59-2.26,1.06-3.39,2.57-3.39,4.53ZM146.1,177.98v6.6h13.02v-6.6h-13.02Z"/><path class="cls-13" d="M228.78,194.48h-23.82v-24.96h19.68v3.9h-15.48v6.12h13.8v3.9h-13.8v7.14h19.62v3.9ZM242.52,204.56h-29.88v-3.9h34.08v17.82h-4.2v-13.92ZM233.04,183.44h-7.38v-3.9h7.38v-10.32h-3.9v-3.9h8.1v31.74h-4.2v-13.62ZM246.9,197.06h-4.2v-31.74h4.2v31.74Z"/><path class="cls-13" d="M301.56,211.94h-48.9v-3.9h48.9v3.9ZM258.54,195.67l-2.1-3.3,18.48-12.72v-10.8h4.2v10.8l18.48,12.72-2.1,3.3-18.48-12.72-18.48,12.72Z"/><path class="cls-13" d="M351.96,212.24h-49.2v-3.9h49.2v3.9ZM344.4,196.64h-34.08v-26.94h34.08v3.9h-29.88v7.62h29.88v3.9h-29.88v7.62h29.88v3.9Z"/><path class="cls-13" d="M402.18,194.17h-48.06v-3.9h48.06v3.9ZM396,217.33h-35.34v-11.64h30.6v-3.6h-30.6v-3.9h34.8v11.1h-30.6v4.14h31.14v3.9ZM391.32,170.83h-30.6v-3.9h34.8v11.22h-30.6v4.44h31.14v3.9h-35.34v-11.94h30.6v-3.72Z"/><path class="cls-13" d="M438.12,203.72c4.04-1.84,7.65-4.23,10.83-7.17s5.75-6.25,7.71-9.93,3.1-7.54,3.42-11.58h-19.44v-3.9h23.76c.12,4.08-.4,7.95-1.56,11.61-1.16,3.66-2.85,7.05-5.07,10.17-2.22,3.12-4.85,5.91-7.89,8.37-3.04,2.46-6.36,4.53-9.96,6.21l-1.8-3.78ZM478.92,218.48h-4.2v-48.36h-3.9v-3.9h8.1v52.26Z"/><path class="cls-13" d="M487.32,187.7c2-1.52,3.71-2.98,5.13-4.38,1.42-1.4,2.59-3,3.51-4.8.92-1.8,1.6-4,2.04-6.6l-8.82.06v-3.9h27.84c-.12,3.96-.57,7.38-1.35,10.26-.78,2.88-2.01,5.48-3.69,7.8s-3.96,4.62-6.84,6.9l-2.82-2.7c2.2-1.76,3.99-3.51,5.37-5.25s2.47-3.67,3.27-5.79c.8-2.12,1.36-4.58,1.68-7.38h-10.38c-.4,2.4-.92,4.46-1.56,6.18-.64,1.72-1.43,3.26-2.37,4.62s-2.09,2.66-3.45,3.9c-1.36,1.24-2.98,2.56-4.86,3.96l-2.7-2.88ZM531.24,217.4h-35.88v-12.9h28.56v-4.8h-29.16v-3.9h33.36v12.6h-28.56v5.1h31.68v3.9ZM524.22,168.25h-3.9v-3.9h8.1v12.48h7.92v3.9h-7.92v12.3h-4.2v-24.78Z"/><path class="cls-13" d="M573.48,204.02h-33.66l.12-34.08h4.2l-.12,30.18h29.46v-30.66h-3.9v-3.9h8.1v21.3h9.36v3.9h-9.36v26.82h-4.2v-13.56Z"/><path class="cls-13" d="M606.24,175.4h-16.5v-3.9h20.7c.24,5.44-.54,10.48-2.34,15.12h9.12v-18.36h-3.9v-3.9h8.1v53.46h-4.2v-27.3h-10.92l-.54.96c-1.08,1.84-2.49,3.75-4.23,5.73-1.74,1.98-3.6,3.81-5.58,5.49-1.98,1.68-3.91,3.04-5.79,4.08l-2.28-3.48c1.76-1.04,3.56-2.33,5.4-3.87,1.84-1.54,3.54-3.18,5.1-4.92,1.56-1.74,2.8-3.41,3.72-5.01,2.44-4.2,3.82-8.9,4.14-14.1ZM632.64,217.82h-4.2v-53.46h4.2v53.46Z"/><path class="cls-13" d="M674.1,195.86l-2.64-2.88,13.14-12.18v-7.86h-12.6v-3.9h28.74v3.9h-11.94v7.86l13.14,12.18-2.64,2.88-12.6-11.7-12.6,11.7ZM679.2,209c0-3.04,1.6-5.45,4.8-7.23,3.2-1.78,7.52-2.67,12.96-2.67,3.64-.04,6.79.35,9.45,1.17,2.66.82,4.72,1.97,6.18,3.45,1.46,1.48,2.19,3.24,2.19,5.28s-.73,3.75-2.19,5.25c-1.46,1.5-3.52,2.65-6.18,3.45-2.66.8-5.81,1.2-9.45,1.2-5.44,0-9.76-.89-12.96-2.67s-4.8-4.19-4.8-7.23ZM683.4,209c0,1.84,1.22,3.3,3.66,4.38s5.74,1.62,9.9,1.62,7.47-.54,9.93-1.62c2.46-1.08,3.69-2.54,3.69-4.38s-1.23-3.3-3.69-4.38c-2.46-1.08-5.77-1.62-9.93-1.62s-7.46.54-9.9,1.62-3.66,2.54-3.66,4.38ZM709.8,183.2h-10.8v-3.9h10.8v-10.08h-3.9v-3.9h8.1v31.98h-4.2v-14.1Z"/><path class="cls-13" d="M742.86,186.56h-14.88v-18.48h34.8v3.72h-30.78v11.04h30.78v3.72h-15.72v7.02h22.32v3.9h-48.66v-3.9h22.14v-7.02ZM763.44,217.82h-35.82v-15.42h4.2v11.52h31.62v3.9Z"/><path class="cls-13" d="M797.28,175.7h-25.62v-3.6h10.86v-6.48h3.9v6.48h10.86v3.6ZM775.56,218.72l-2.88-2.52,11.16-10.14v-6.12h4.08v6.18l8.4,7.14,8.52-7.32v-6h4.2v6.36l11.04,10.02-2.88,2.52-10.5-9.54-10.38,8.94h-.06l-10.38-8.94-10.32,9.42ZM773.1,187.58c0-1.76.51-3.34,1.53-4.74,1.02-1.4,2.4-2.52,4.14-3.36s3.67-1.26,5.79-1.26,4.04.42,5.76,1.26c1.72.84,3.08,1.96,4.08,3.36,1,1.4,1.5,2.98,1.5,4.74s-.5,3.28-1.5,4.68c-1,1.4-2.36,2.51-4.08,3.33-1.72.82-3.64,1.23-5.76,1.23s-4.05-.41-5.79-1.23c-1.74-.82-3.12-1.93-4.14-3.33-1.02-1.4-1.53-2.96-1.53-4.68ZM777.3,187.64c0,1.48.7,2.73,2.1,3.75,1.4,1.02,3.12,1.53,5.16,1.53s3.69-.5,5.07-1.5c1.38-1,2.07-2.22,2.07-3.66,0-1.6-.69-2.94-2.07-4.02-1.38-1.08-3.07-1.62-5.07-1.62s-3.76.53-5.16,1.59c-1.4,1.06-2.1,2.37-2.1,3.93ZM800.52,169.88h-3.9v-3.9h8.1v14.04h6.78v-14.04h4.2v32.16h-4.2v-14.22h-6.78v14.22h-4.2v-28.26Z"/><path class="cls-13" d="M869.1,211.4h-46.5v-3.9h18.54v-19.02h4.2v19.02h13.26v-33.9h-29.88v-3.9h34.08v37.8h6.3v3.9Z"/><path class="cls-13" d="M72.78,368.95l-2.7-2.82,13.02-11.52v-6.48h-11.76v-3.9h11.76v-6.78h4.2v6.78h11.28v3.9h-11.28v6.6l12.84,10.2-2.7,2.82-12.3-9.72-12.36,10.92ZM77.28,381.61c0-6.56,5.54-9.84,16.62-9.84,11.08-.04,16.62,3.24,16.62,9.84s-5.54,9.84-16.62,9.84-16.62-3.28-16.62-9.84ZM81.36,381.61c0,3.96,4.18,5.94,12.54,5.94s12.54-1.98,12.54-5.94-4.18-5.94-12.54-5.94-12.54,1.98-12.54,5.94ZM110.04,370.33h-4.2v-28.74h-3.9v-3.9h8.1v13.8h8.76v3.9h-8.76v14.94Z"/><path class="cls-13" d="M122.88,369.25l-2.7-2.82,13.2-13.86v-10.98h4.2v11.4l13.26,12.84-2.7,2.82-12.84-12.42-12.42,13.02ZM165.24,390.37h-35.76v-17.28h4.2v13.38h31.56v3.9ZM163.08,377.71h-4.2v-36.12h-3.9v-3.6h8.1v39.72Z"/><path class="cls-13" d="M199.74,384.37h-28.92v-4.2h12v-34.2h-12v-4.2h28.92v4.2h-12.42v34.2h12.42v4.2Z"/><path class="cls-13" d="M203.94,384.37v-42.6h27.42l.06,42.6h-4.5l-.06-38.4h-18.42v38.4h-4.5Z"/><path class="cls-13" d="M250.68,381.19c5.24,0,8.36-3.58,9.36-10.74h4.5c-1.24,10-5.86,14.98-13.86,14.94-5-.04-8.86-2-11.58-5.88-2.72-3.88-4.08-9.38-4.08-16.5s1.34-12.68,4.02-16.56c2.68-3.88,6.5-5.82,11.46-5.82,8.16,0,12.9,5,14.22,15h-4.5c-.88-7.2-4.18-10.8-9.9-10.8-3.36,0-5.95,1.57-7.77,4.71-1.82,3.14-2.73,7.63-2.73,13.47s.94,10.28,2.82,13.44c1.88,3.16,4.56,4.74,8.04,4.74Z"/><path class="cls-13" d="M315.3,369.01h-47.88v-3.9h47.88v3.9ZM310.38,390.13h-36.9v-15.54h4.2v11.64h32.7v3.9ZM308.76,357.97h-33.84v-18.36h4.2v14.46h29.64v3.9Z"/><path class="cls-13" d="M386.16,337.69h7.5v28.5h-4.2v-11.58h-15.06c-.68,1-1.41,1.98-2.19,2.94-.78.96-1.61,1.84-2.49,2.64-1.88,1.76-4.09,3.29-6.63,4.59-2.54,1.3-5.19,2.25-7.95,2.85l-1.98-3.6c2.48-.56,4.89-1.42,7.23-2.58,2.34-1.16,4.33-2.5,5.97-4.02.48-.44.95-.9,1.41-1.38.46-.48.89-.96,1.29-1.44h-16.02v-3.9h18.72c1-1.84,1.66-3.72,1.98-5.64h-18.84v-4.08h23.52v1.08c0,1.48-.17,2.95-.51,4.41-.34,1.46-.81,2.87-1.41,4.23h12.96v-9.12h-3.3v-3.9ZM395.52,391.51h-35.88v-13.08h29.58v-5.7h-29.58v-3.72h33.78v13.32h-29.58v5.28h31.68v3.9Z"/><path class="cls-13" d="M413.64,351.19h-11.34v-3.6h11.34v-8.22h4.2v8.22h12.48v3.6h-12.48v10.08l14.34,17.46-3,2.46-13.32-16.2-12.84,16.2-3.06-2.4,13.68-17.28v-10.32ZM439.38,363.13h-11.64v-3.9h11.64v-17.34h-3.9v-3.6h8.1v53.46h-4.2v-28.62Z"/><path class="cls-13" d="M477.18,367.81h-23.82v-24.96h19.68v3.9h-15.48v17.16h19.62v3.9ZM490.92,377.89h-29.88v-3.9h34.08v17.82h-4.2v-13.92ZM481.44,356.77h-10.98v-3.9h10.98v-10.32h-3.9v-3.9h8.1v31.74h-4.2v-13.62ZM495.3,370.39h-4.2v-31.74h4.2v31.74Z"/><path class="cls-13" d="M547.38,346.57h-11.58v-3.9h27v3.9h-11.22v8.82l12.66,10.62-2.7,2.82-12.06-10.02h-.48l-12.72,10.62-2.7-2.82,13.8-11.52v-8.52ZM569.88,377.35h-30.36v-3.9h34.56v18.36h-4.2v-14.46ZM569.88,342.07h-3.9v-3.9h8.1v12.84h8.64v3.9h-8.64v15.24h-4.2v-28.08Z"/><path class="cls-13" d="M586.32,353.65c0-2.44.54-4.59,1.62-6.45,1.08-1.86,2.59-3.32,4.53-4.38,1.94-1.06,4.15-1.59,6.63-1.59,3.32,0,6.1.93,8.34,2.79,2.24,1.86,3.58,4.33,4.02,7.41h12.3v-8.88h-3.9v-3.9h8.1v28.8h-4.2v-12.12h-12.18c-.24,2.2-.91,4.14-2.01,5.82-1.1,1.68-2.55,2.99-4.35,3.93-1.8.94-3.84,1.41-6.12,1.41-2.48,0-4.69-.55-6.63-1.65-1.94-1.1-3.45-2.61-4.53-4.53-1.08-1.92-1.62-4.14-1.62-6.66ZM590.52,353.71c0,2.6.79,4.73,2.37,6.39s3.61,2.49,6.09,2.49,4.51-.84,6.09-2.52c1.58-1.68,2.37-3.82,2.37-6.42s-.77-4.52-2.31-6.12c-1.54-1.6-3.55-2.4-6.03-2.4s-4.58.8-6.18,2.4c-1.6,1.6-2.4,3.66-2.4,6.18ZM592.68,391.51v-21.42h4.2v6.96h26.88v-6.96h4.2v21.42h-35.28ZM596.88,380.95v6.66h26.88v-6.66h-26.88Z"/><path class="cls-13" d="M675.24,391.81h-4.2v-12h-37.32v-3.9h12.06v-15.96h4.2v15.96h21.06v-33.42h-3.9v-3.6h8.1v21.42h8.88v3.9h-8.88v27.6ZM659.82,347.95h-23.16v-3.72h27.18v23.76h-4.02v-20.04Z"/><path class="cls-13" d="M756.48,366.97h-35.46v-25.14h24.72v3.9h-20.52v6.6h19.02v3.9h-19.02v6.84h31.26v-20.52h-3.9v-3.9h8.1v32.16h-4.2v-3.84ZM760.74,391.45h-33.9v-17.88h33.9v17.88ZM731.04,377.11v10.44h25.5v-10.44h-25.5Z"/><path class="cls-13" d="M770.34,369.49l-2.7-2.82,13.92-12.12v-7.92h-12.84v-3.9h28.74v3.9h-11.7v8.1l13.5,10.92-2.7,2.82-13.02-10.44-13.2,11.46ZM774.42,382.33c0-3.2,1.54-5.65,4.62-7.35,3.08-1.7,7.46-2.55,13.14-2.55,5.72-.04,10.12.8,13.2,2.52,3.08,1.72,4.62,4.18,4.62,7.38s-1.54,5.6-4.62,7.32c-3.08,1.72-7.48,2.58-13.2,2.58s-10.06-.86-13.14-2.58c-3.08-1.72-4.62-4.16-4.62-7.32ZM778.62,382.33c0,1.92,1.17,3.4,3.51,4.44,2.34,1.04,5.69,1.56,10.05,1.56s7.77-.52,10.11-1.56c2.34-1.04,3.51-2.52,3.51-4.44s-1.17-3.4-3.51-4.44c-2.34-1.04-5.71-1.56-10.11-1.56s-7.71.52-10.05,1.56c-2.34,1.04-3.51,2.52-3.51,4.44ZM808.92,370.33h-4.2v-27.54h-3.9v-3.9h8.1v13.32h8.28v3.9h-8.28v14.22Z"/><path class="cls-13" d="M866.22,365.71h-48.24v-3.9h48.24v3.9ZM856.02,374.17h-31.74v-3.9h35.94v12.54h-31.74v5.04h33.36v3.9h-37.56v-12.84h31.74v-4.74ZM825.12,348.61c0-1.84.72-3.47,2.16-4.89,1.44-1.42,3.45-2.53,6.03-3.33,2.58-.8,5.53-1.2,8.85-1.2s6.32.4,8.88,1.2c2.56.8,4.56,1.91,6,3.33,1.44,1.42,2.16,3.05,2.16,4.89s-.72,3.48-2.16,4.92-3.44,2.56-6,3.36c-2.56.8-5.52,1.2-8.88,1.2s-6.27-.4-8.85-1.2c-2.58-.8-4.59-1.92-6.03-3.36-1.44-1.44-2.16-3.08-2.16-4.92ZM829.32,348.61c0,1.08.55,2.05,1.65,2.91,1.1.86,2.61,1.53,4.53,2.01s4.14.72,6.66.72,4.75-.24,6.69-.72c1.94-.48,3.45-1.15,4.53-2.01,1.08-.86,1.62-1.83,1.62-2.91s-.54-2.03-1.62-2.85-2.59-1.46-4.53-1.92c-1.94-.46-4.17-.69-6.69-.69s-4.74.23-6.66.69c-1.92.46-3.43,1.1-4.53,1.92s-1.65,1.77-1.65,2.85Z"/><path class="cls-13" d="M916.44,372.01h-14.22v-3.9h37.8v-26.76h-4.08v-3.9h8.28v53.16h-4.2v-18.6h-19.38v18.6h-4.2v-18.6ZM905.7,351.43c0-2.2.55-4.15,1.65-5.85,1.1-1.7,2.61-3.03,4.53-3.99,1.92-.96,4.14-1.44,6.66-1.44,2.48.08,4.68.62,6.6,1.62,1.92,1,3.42,2.33,4.5,3.99,1.08,1.66,1.62,3.55,1.62,5.67s-.54,4.13-1.62,5.79c-1.08,1.66-2.58,2.96-4.5,3.9-1.92.94-4.12,1.41-6.6,1.41s-4.74-.47-6.66-1.41c-1.92-.94-3.43-2.24-4.53-3.9-1.1-1.66-1.65-3.59-1.65-5.79ZM909.9,351.43c0,2.08.8,3.8,2.4,5.16s3.68,2.04,6.24,2.04,4.52-.68,6.12-2.04c1.6-1.36,2.4-3.08,2.4-5.16s-.8-3.93-2.4-5.31c-1.6-1.38-3.64-2.07-6.12-2.07s-4.64.69-6.24,2.07c-1.6,1.38-2.4,3.15-2.4,5.31Z"/><path class="cls-13" d="M981.9,348.91h-29.76v-3.9h12.48v-6.12h4.2v6.12h13.08v3.9ZM954.78,361.93c0-2,.53-3.77,1.59-5.31,1.06-1.54,2.53-2.75,4.41-3.63,1.88-.88,4.02-1.32,6.42-1.32s4.52.44,6.36,1.32c1.84.88,3.28,2.09,4.32,3.63,1.04,1.54,1.56,3.31,1.56,5.31s-.52,3.78-1.56,5.34c-1.04,1.56-2.48,2.78-4.32,3.66-1.84.88-3.96,1.32-6.36,1.32s-4.54-.44-6.42-1.32c-1.88-.88-3.35-2.1-4.41-3.66-1.06-1.56-1.59-3.34-1.59-5.34ZM958.98,361.99c0,1.84.77,3.36,2.31,4.56,1.54,1.2,3.51,1.8,5.91,1.8s4.29-.58,5.79-1.74,2.25-2.66,2.25-4.5-.75-3.49-2.25-4.71-3.43-1.83-5.79-1.83-4.37.6-5.91,1.8c-1.54,1.2-2.31,2.74-2.31,4.62ZM959.94,391.03v-15h4.2v11.1h32.4v3.9h-36.6ZM988.26,341.89h-3.9v-3.9h8.1v18.78h8.64v3.9h-8.64v18.66h-4.2v-37.44Z"/><path class="cls-13" d="M97.98,471.04h-26.76v-4.2h12.3v-32.82l-9.18,9.66-2.94-2.64,12.12-12.6h4.5v38.4h9.96v4.2Z"/><path class="cls-13" d="M101.94,449.56c0-7.16,1.31-12.65,3.93-16.47,2.62-3.82,6.35-5.75,11.19-5.79,4.76-.04,8.41,1.86,10.95,5.7,2.54,3.84,3.81,9.36,3.81,16.56s-1.27,12.72-3.81,16.56c-2.54,3.84-6.19,5.74-10.95,5.7-4.84-.04-8.57-1.98-11.19-5.82-2.62-3.84-3.93-9.32-3.93-16.44ZM106.44,449.56c0,5.8.92,10.26,2.76,13.38,1.84,3.12,4.46,4.68,7.86,4.68s5.86-1.56,7.62-4.68c1.76-3.12,2.64-7.58,2.64-13.38s-.88-10.31-2.64-13.41-4.3-4.65-7.62-4.65-6.02,1.55-7.86,4.65-2.76,7.57-2.76,13.41ZM114.24,452.92v-5.34h5.28v5.34h-5.28Z"/><path class="cls-13" d="M156.48,435.88c-.08,2.88-.5,5.74-1.26,8.58s-2,5.66-3.72,8.46c-1.8,2.92-4.06,5.61-6.78,8.07-2.72,2.46-5.56,4.61-8.52,6.45l-2.22-3.54c2.72-1.76,5.29-3.71,7.71-5.85,2.42-2.14,4.49-4.59,6.21-7.35,1.52-2.4,2.61-4.83,3.27-7.29.66-2.46,1.03-4.97,1.11-7.53h-16.32v-3.9h20.52v3.9ZM162.9,429.4h-3.9v-3.9h8.1v20.52h7.74v-21.42h4.2v53.22h-4.2v-27.9h-7.74v27.9h-4.2v-48.42Z"/><path class="cls-13" d="M192.42,478.48v-12.06h31.08v-3.9h-31.14v-3.9h6.48v-6.36h-11.22v-3.78h33.06v3.78h-17.64v6.36h24.66v11.7h-31.08v4.26h32.94v3.9h-37.14ZM188.94,436.24c0-1.92.51-3.62,1.53-5.1,1.02-1.48,2.42-2.64,4.2-3.48,1.78-.84,3.81-1.26,6.09-1.26,3.16,0,5.82.75,7.98,2.25s3.46,3.47,3.9,5.91h10.98v-5.94h-3.9v-3.6h8.1v31.86h-4.2v-18.42h-11.16c-.56,2.2-1.89,3.98-3.99,5.34-2.1,1.36-4.67,2.04-7.71,2.04-2.28,0-4.31-.41-6.09-1.23-1.78-.82-3.18-1.96-4.2-3.42-1.02-1.46-1.53-3.11-1.53-4.95ZM193.14,436.24c0,1.68.72,3.05,2.16,4.11,1.44,1.06,3.26,1.59,5.46,1.59s4.15-.53,5.61-1.59c1.46-1.06,2.19-2.43,2.19-4.11s-.74-3.19-2.22-4.29c-1.48-1.1-3.4-1.65-5.76-1.65-2.16,0-3.94.55-5.34,1.65-1.4,1.1-2.1,2.53-2.1,4.29Z"/><path class="cls-13" d="M249.72,437.5h-11.58v-3.9h11.58v-7.44h4.2v7.44h12.12v3.9h-12.12v9.96l14.28,17.4-3,2.46-13.32-16.2-12.84,16.2-3.06-2.4,13.74-17.34v-10.08ZM274.32,428.86h-3.9v-3.9h8.1v53.46h-4.2v-49.56Z"/><path class="cls-13" d="M348.9,434.67h-30.78v-3.9h13.32v-5.94h4.2v5.94h13.26v3.9ZM321.18,447.64c0-2,.53-3.77,1.59-5.31,1.06-1.54,2.52-2.75,4.38-3.63,1.86-.88,4.01-1.32,6.45-1.32s4.52.44,6.36,1.32c1.84.88,3.28,2.09,4.32,3.63,1.04,1.54,1.56,3.31,1.56,5.31s-.52,3.77-1.56,5.31-2.48,2.74-4.32,3.6c-1.84.86-3.96,1.29-6.36,1.29s-4.59-.43-6.45-1.29c-1.86-.86-3.32-2.06-4.38-3.6-1.06-1.54-1.59-3.31-1.59-5.31ZM354.66,466.06h-30.72v-3.9h34.92v16.32h-4.2v-12.42ZM325.38,447.7c0,1.84.77,3.34,2.31,4.5s3.51,1.74,5.91,1.74,4.29-.57,5.79-1.71,2.25-2.61,2.25-4.41c0-1.92-.75-3.49-2.25-4.71s-3.43-1.83-5.79-1.83-4.37.6-5.91,1.8c-1.54,1.2-2.31,2.74-2.31,4.62ZM354.66,429.46h-3.9v-3.9h8.1v14.76h8.28v3.9h-8.28v14.82h-4.2v-29.58Z"/><path class="cls-13" d="M415.98,453.58h-47.46v-3.9h47.46v3.9ZM373.5,445.3l-1.86-3.42,18.54-10.02v-7.14h4.2v7.14l18.18,9.84-1.86,3.42-18.42-9.96-18.78,10.14ZM410.52,477.82h-36.48v-20.04h4.2v6.3h28.08v-6.3h4.2v20.04ZM378.24,467.98v5.94h28.08v-5.94h-28.08Z"/><path class="cls-13" d="M422.04,466.83l-3-2.64,13.86-15.78v-13.92h-12.12v-3.9h28.62v3.9h-12.3v13.92l13.86,15.78-3,2.64-12.96-14.7-12.96,14.7ZM462,477.94h-4.2v-49.38h-3.9v-3.9h8.1v53.28Z"/><path class="cls-13" d="M524.88,461.5v9.54h-4.5v-9.54h-19.98v-4.2l17.46-28.86h7.02v28.86h7.74v4.2h-7.74ZM520.38,432.33l-14.82,24.96h14.82v-24.96Z"/><path class="cls-13" d="M533.94,449.56c0-7.16,1.31-12.65,3.93-16.47,2.62-3.82,6.35-5.75,11.19-5.79,4.76-.04,8.41,1.86,10.95,5.7,2.54,3.84,3.81,9.36,3.81,16.56s-1.27,12.72-3.81,16.56c-2.54,3.84-6.19,5.74-10.95,5.7-4.84-.04-8.57-1.98-11.19-5.82-2.62-3.84-3.93-9.32-3.93-16.44ZM538.44,449.56c0,5.8.92,10.26,2.76,13.38,1.84,3.12,4.46,4.68,7.86,4.68s5.86-1.56,7.62-4.68c1.76-3.12,2.64-7.58,2.64-13.38s-.88-10.31-2.64-13.41c-1.76-3.1-4.3-4.65-7.62-4.65s-6.02,1.55-7.86,4.65-2.76,7.57-2.76,13.41ZM546.24,452.92v-5.34h5.28v5.34h-5.28Z"/><path class="cls-13" d="M609.42,465.28h-4.2v-26.04h-9.78v8.88h5.82v3.78h-15.06v11.7h-4.08v-11.7h-15.66v-3.78h24.9v-16.32h-20.52v-3.78h24.6v7.32h9.78v-6.42h-3.9v-3.9h8.1v40.26ZM611.46,477.22h-37.5v-16.38h4.2v12.48h33.3v3.9Z"/><path class="cls-13" d="M664.62,452.38h-48.24v-3.9h48.24v3.9ZM654.42,460.83h-31.74v-3.9h35.94v12.54h-31.74v5.04h33.36v3.9h-37.56v-12.84h31.74v-4.74ZM623.52,435.28c0-1.84.72-3.47,2.16-4.89s3.45-2.53,6.03-3.33c2.58-.8,5.53-1.2,8.85-1.2s6.32.4,8.88,1.2c2.56.8,4.56,1.91,6,3.33s2.16,3.05,2.16,4.89-.72,3.48-2.16,4.92c-1.44,1.44-3.44,2.56-6,3.36-2.56.8-5.52,1.2-8.88,1.2s-6.27-.4-8.85-1.2c-2.58-.8-4.59-1.92-6.03-3.36-1.44-1.44-2.16-3.08-2.16-4.92ZM627.72,435.28c0,1.08.55,2.05,1.65,2.91,1.1.86,2.61,1.53,4.53,2.01,1.92.48,4.14.72,6.66.72s4.75-.24,6.69-.72c1.94-.48,3.45-1.15,4.53-2.01,1.08-.86,1.62-1.83,1.62-2.91s-.54-2.03-1.62-2.85c-1.08-.82-2.59-1.46-4.53-1.92-1.94-.46-4.17-.69-6.69-.69s-4.74.23-6.66.69c-1.92.46-3.43,1.1-4.53,1.92-1.1.82-1.65,1.77-1.65,2.85Z"/><path class="cls-13" d="M725.46,453.64h-23.4v-24.18h23.4v24.18ZM706.26,433.36v16.38h15v-16.38h-15ZM744.18,477.22h-35.04v-17.76h4.2v13.86h30.84v3.9ZM735.96,428.62h-3.9v-3.9h8.1v16.44h8.58v3.9h-8.58v18.96h-4.2v-35.4Z"/><path class="cls-13" d="M798.18,453.33h-48.66v-3.9h48.66v3.9ZM792,477.33h-35.34v-11.64h30.6v-3.6h-30.6v-3.9h34.8v11.1h-30.6v4.14h31.14v3.9ZM790.38,445.24h-33.6v-17.76h33.6v3.72h-29.58v10.32h29.58v3.72Z"/><path class="cls-13" d="M847.5,471.4h-46.5v-3.9h18.54v-19.02h4.2v19.02h13.26v-33.9h-29.88v-3.9h34.08v37.8h6.3v3.9Z"/><path class="cls-13" d="M76.14,644.01h-4.5v-42.24h16.68c3.8,0,6.73.99,8.79,2.97,2.06,1.98,3.09,4.91,3.09,8.79,0,3.68-1.03,6.52-3.09,8.52-2.06,2-4.99,3-8.79,3h-12.18v18.96ZM76.14,605.97v14.88h12.18c2.44.04,4.28-.58,5.52-1.86,1.24-1.28,1.86-3.1,1.86-5.46,0-2.52-.64-4.41-1.92-5.67s-3.1-1.89-5.46-1.89h-12.18Z"/><path class="cls-13" d="M116.7,644.91c-3.08,0-5.74-.62-7.98-1.86-2.24-1.24-3.97-3-5.19-5.28-1.22-2.28-1.83-4.96-1.83-8.04h4.5c0,2.08.45,3.94,1.35,5.58.9,1.64,2.13,2.93,3.69,3.87,1.56.94,3.36,1.45,5.4,1.53,2.04.04,3.86-.3,5.46-1.02,1.6-.72,2.84-1.73,3.72-3.03.88-1.3,1.26-2.77,1.14-4.41-.12-3.28-2.76-5.84-7.92-7.68l-6.36-2.28c-3.24-1.16-5.63-2.49-7.17-3.99-1.54-1.5-2.39-3.29-2.55-5.37-.16-2.36.33-4.47,1.47-6.33,1.14-1.86,2.77-3.32,4.89-4.38,2.12-1.06,4.52-1.55,7.2-1.47,4.16.12,7.53,1.35,10.11,3.69s3.97,5.45,4.17,9.33h-4.5c-.16-2.52-1.16-4.61-3-6.27-1.84-1.66-4.12-2.51-6.84-2.55-1.8-.08-3.39.2-4.77.84-1.38.64-2.45,1.55-3.21,2.73-.76,1.18-1.1,2.51-1.02,3.99.08,1.12.68,2.11,1.8,2.97,1.12.86,2.86,1.75,5.22,2.67l6.54,2.46c6.64,2.52,10.08,6.18,10.32,10.98.12,2.48-.46,4.73-1.74,6.75-1.28,2.02-3.04,3.62-5.28,4.8-2.24,1.18-4.78,1.77-7.62,1.77Z"/><path class="cls-13" d="M140.1,644.31h-4.5v-42.48h4.5v20.28l17.28-20.34h5.4l-13.44,16.14,16.92,26.46h-5.46l-14.4-22.92-6.3,7.62v15.24Z"/><path class="cls-13" d="M214.5,629.01h-47.88v-3.9h47.88v3.9ZM209.58,650.13h-36.9v-15.54h4.2v11.64h32.7v3.9ZM207.96,617.97h-33.84v-18.36h4.2v14.46h29.64v3.9Z"/><path class="cls-13" d="M251.28,638.55l-2.94-2.58,12.3-15.9v-17.16h4.2v17.28l11.7,15.84-3,2.46-10.86-15.06-11.4,15.12ZM283.8,651.15h-4.2v-30.12h-9.3v-3.9h9.3v-15.54h-3.9v-3.9h8.1v53.46ZM294.12,651.15h-4.2v-53.46h4.2v53.46Z"/><path class="cls-13" d="M302.76,628.77l-2.64-2.82,12.72-12.06v-12.6h4.2v12.54l12.78,12.12-2.7,2.82-12.18-11.58-12.18,11.58ZM308.04,642.69c0-3.32,1.45-5.87,4.35-7.65s7.01-2.67,12.33-2.67,9.48.89,12.36,2.67c2.88,1.78,4.32,4.33,4.32,7.65s-1.44,5.82-4.32,7.62c-2.88,1.8-7,2.7-12.36,2.7s-9.43-.9-12.33-2.7-4.35-4.34-4.35-7.62ZM312.12,642.69c0,2.08,1.09,3.69,3.27,4.83,2.18,1.14,5.29,1.71,9.33,1.71s7.15-.57,9.33-1.71c2.18-1.14,3.27-2.75,3.27-4.83s-1.09-3.74-3.27-4.86c-2.18-1.12-5.29-1.68-9.33-1.68s-7.15.56-9.33,1.68c-2.18,1.12-3.27,2.74-3.27,4.86ZM340.62,631.35h-4.2v-29.76h-3.9v-3.9h8.1v14.82h8.58v3.9h-8.58v14.94Z"/><path class="cls-13" d="M385.2,627.57l-2.7-2.82,13.8-12.72v-10.92h4.2v11.34l12.66,11.7-2.7,2.82-12.18-11.22h-.24l-12.84,11.82ZM392.76,649.05h-.06v-17.1h32.34v18.96h-32.28v-1.86ZM396.78,635.73v11.4h24.18v-11.4h-24.18ZM425.16,628.59h-4.2v-26.58h-3.9v-3.6h8.1v30.18Z"/><path class="cls-13" d="M480.12,625.95h-46.86v-3.9h46.86v3.9ZM446.28,603.99h-7.32v-3.9h37.2v3.9h-8.16v10.08h8.16v3.9h-37.2v-3.9h7.32v-10.08ZM476.88,650.85h-37.2v-12h31.2v-4.38h-31.2v-3.9h35.4v12.18h-31.2v4.2h33v3.9ZM450.48,603.99v10.08h13.32v-10.08h-13.32Z"/><path class="cls-13" d="M514.14,611.67h-30.54v-3.9h13.2v-8.82h4.2v8.82h13.14v3.9ZM498.9,639.39c-2.32,0-4.42-.52-6.3-1.56-1.88-1.04-3.37-2.43-4.47-4.17-1.1-1.74-1.65-3.69-1.65-5.85s.55-4.17,1.65-5.91c1.1-1.74,2.59-3.13,4.47-4.17,1.88-1.04,3.98-1.56,6.3-1.56s4.35.52,6.21,1.56c1.86,1.04,3.33,2.43,4.41,4.17s1.62,3.71,1.62,5.91-.54,4.11-1.62,5.85-2.55,3.13-4.41,4.17c-1.86,1.04-3.93,1.56-6.21,1.56ZM490.68,627.93c0,1.4.36,2.68,1.08,3.84.72,1.16,1.71,2.07,2.97,2.73s2.65.99,4.17.99,2.88-.33,4.08-.99c1.2-.66,2.16-1.56,2.88-2.7.72-1.14,1.08-2.39,1.08-3.75,0-1.48-.36-2.82-1.08-4.02-.72-1.2-1.68-2.16-2.88-2.88-1.2-.72-2.56-1.08-4.08-1.08s-2.91.35-4.17,1.05-2.25,1.64-2.97,2.82c-.72,1.18-1.08,2.51-1.08,3.99ZM518.88,601.89h-3.9v-3.9h8.1v21.66h10.8v3.9h-10.8v27.72h-4.2v-49.38Z"/><path class="cls-13" d="M581.1,644.73h-46.5v-3.9h18.54v-19.02h4.2v19.02h13.26v-33.9h-29.88v-3.9h34.08v37.8h6.3v3.9Z"/><path class="cls-13" d="M618.48,625.53c3.56-.96,6.77-2.33,9.63-4.11,2.86-1.78,5.25-3.93,7.17-6.45s3.2-5.36,3.84-8.52h-19.08v-3.9h23.7c0,3.36-.64,6.49-1.92,9.39s-3.03,5.52-5.25,7.86c-2.22,2.34-4.79,4.34-7.71,6-2.92,1.66-6.02,2.93-9.3,3.81l-1.08-4.08ZM623.22,642.33c0-3.2,1.54-5.65,4.62-7.35,3.08-1.7,7.46-2.55,13.14-2.55,5.72-.04,10.12.8,13.2,2.52,3.08,1.72,4.62,4.18,4.62,7.38s-1.54,5.6-4.62,7.32c-3.08,1.72-7.48,2.58-13.2,2.58s-10.06-.86-13.14-2.58c-3.08-1.72-4.62-4.16-4.62-7.32ZM627.42,642.33c0,1.92,1.17,3.4,3.51,4.44,2.34,1.04,5.69,1.56,10.05,1.56s7.77-.52,10.11-1.56c2.34-1.04,3.51-2.52,3.51-4.44s-1.17-3.4-3.51-4.44c-2.34-1.04-5.71-1.56-10.11-1.56s-7.71.52-10.05,1.56c-2.34,1.04-3.51,2.52-3.51,4.44ZM657.42,629.91h-4.2v-27.6h-3.9v-3.6h8.1v13.2h8.46v3.9h-8.46v14.1Z"/><path class="cls-13" d="M698.22,629.79h-28.92v-16.92h17.76v-7.2h-17.94v-3.9h22.2v6.06l15.06.12v-5.4h-3.9v-3.9h8.1v33.06h-4.2v-9.12l-12.06-.12v-3.9l12.06.12v-6.84l-15.06-.12v5.04h-17.94v9.12h24.84v3.9ZM706.38,638.43h-31.44v-3.9h35.64v17.64h-4.2v-13.74Z"/><path class="cls-13" d="M747.9,608.91h-29.76v-3.9h12.48v-6.12h4.2v6.12h13.08v3.9ZM720.78,621.93c0-2,.53-3.77,1.59-5.31,1.06-1.54,2.53-2.75,4.41-3.63,1.88-.88,4.02-1.32,6.42-1.32s4.52.44,6.36,1.32c1.84.88,3.28,2.09,4.32,3.63,1.04,1.54,1.56,3.31,1.56,5.31s-.52,3.78-1.56,5.34c-1.04,1.56-2.48,2.78-4.32,3.66-1.84.88-3.96,1.32-6.36,1.32s-4.54-.44-6.42-1.32c-1.88-.88-3.35-2.1-4.41-3.66-1.06-1.56-1.59-3.34-1.59-5.34ZM724.98,621.99c0,1.84.77,3.36,2.31,4.56,1.54,1.2,3.51,1.8,5.91,1.8s4.29-.58,5.79-1.74,2.25-2.66,2.25-4.5-.75-3.49-2.25-4.71c-1.5-1.22-3.43-1.83-5.79-1.83s-4.37.6-5.91,1.8c-1.54,1.2-2.31,2.74-2.31,4.62ZM725.94,651.03v-15h4.2v11.1h32.4v3.9h-36.6ZM754.26,601.89h-3.9v-3.9h8.1v18.78h8.64v3.9h-8.64v18.66h-4.2v-37.44Z"/><path class="cls-13" d="M836.16,597.69h7.5v28.5h-4.2v-11.58h-15.06c-.68,1-1.41,1.98-2.19,2.94-.78.96-1.61,1.84-2.49,2.64-1.88,1.76-4.09,3.29-6.63,4.59-2.54,1.3-5.19,2.25-7.95,2.85l-1.98-3.6c2.48-.56,4.89-1.42,7.23-2.58s4.33-2.5,5.97-4.02c.48-.44.95-.9,1.41-1.38.46-.48.89-.96,1.29-1.44h-16.02v-3.9h18.72c1-1.84,1.66-3.72,1.98-5.64h-18.84v-4.08h23.52v1.08c0,1.48-.17,2.95-.51,4.41-.34,1.46-.81,2.87-1.41,4.23h12.96v-9.12h-3.3v-3.9ZM845.52,651.51h-35.88v-13.08h29.58v-5.7h-29.58v-3.72h33.78v13.32h-29.58v5.28h31.68v3.9Z"/><path class="cls-13" d="M863.64,611.19h-11.34v-3.6h11.34v-8.22h4.2v8.22h12.48v3.6h-12.48v10.08l14.34,17.46-3,2.46-13.32-16.2-12.84,16.2-3.06-2.4,13.68-17.28v-10.32ZM889.38,623.13h-11.64v-3.9h11.64v-17.34h-3.9v-3.6h8.1v53.46h-4.2v-28.62Z"/><path class="cls-13" d="M927.18,627.81h-23.82v-24.96h19.68v3.9h-15.48v17.16h19.62v3.9ZM940.92,637.89h-29.88v-3.9h34.08v17.82h-4.2v-13.92ZM931.44,616.77h-10.98v-3.9h10.98v-10.32h-3.9v-3.9h8.1v31.74h-4.2v-13.62ZM945.29,630.39h-4.2v-31.74h4.2v31.74Z"/><path class="cls-13" d="M992.04,651.81h-4.2v-12h-37.32v-3.9h12.06v-15.96h4.2v15.96h21.06v-33.42h-3.9v-3.6h8.1v21.42h8.88v3.9h-8.88v27.6ZM976.62,607.95h-23.16v-3.72h27.18v23.76h-4.02v-20.04Z"/><path class="cls-13" d="M108.66,724.86h-36.06l.12-17.94v-2.22h19.8v-11.4h-19.8v-3.9h24v19.2h-19.8l-.12,12.36h31.86v-32.4h-3.9v-3.9h8.1v53.28h-4.2v-13.08Z"/><path class="cls-13" d="M158.7,724.44h-35.88l.12-30.84v-2.52h23.64v3.9h-19.44l-.12,25.56h31.68v-12.6h-15.18v-3.9h15.18v-15.54h-3.3v-3.84h7.5v53.28h-4.2v-13.5Z"/><path class="cls-13" d="M218.58,713.33h-48.66v-3.9h48.66v3.9ZM212.4,737.33h-35.34v-11.64h30.6v-3.6h-30.6v-3.9h34.8v11.1h-30.6v4.14h31.14v3.9ZM210.78,705.24h-33.6v-17.76h33.6v3.72h-29.58v10.32h29.58v3.72Z"/><path class="cls-13" d="M254.7,702.42c0-2.52.59-4.8,1.77-6.84,1.18-2.04,2.78-3.66,4.8-4.86,2.02-1.2,4.27-1.8,6.75-1.8,2.2,0,4.22.49,6.06,1.47s3.37,2.31,4.59,3.99,1.99,3.6,2.31,5.76h10.8v-11.34h-3.9v-3.9h8.1v39.66h-4.2v-20.52h-10.74c-.24,2.12-.96,4.02-2.16,5.7-1.2,1.68-2.74,3.01-4.62,3.99-1.88.98-3.96,1.47-6.24,1.47-2.48,0-4.73-.57-6.75-1.71-2.02-1.14-3.62-2.68-4.8-4.62-1.18-1.94-1.77-4.09-1.77-6.45ZM258.9,702.48c0,1.64.4,3.12,1.2,4.44.8,1.32,1.88,2.37,3.24,3.15s2.88,1.17,4.56,1.17,3.19-.39,4.53-1.17c1.34-.78,2.41-1.84,3.21-3.18.8-1.34,1.2-2.83,1.2-4.47,0-1.8-.39-3.43-1.17-4.89-.78-1.46-1.84-2.61-3.18-3.45s-2.83-1.26-4.47-1.26-3.21.43-4.59,1.29c-1.38.86-2.48,2.02-3.3,3.48-.82,1.46-1.23,3.09-1.23,4.89ZM298.8,737.52h-36.66v-17.34h4.2v13.44h32.46v3.9Z"/><path class="cls-13" d="M346.8,738.78h-4.2v-29.16h-12.54c-.24,4.84-1.45,8.55-3.63,11.13-2.18,2.58-5.19,3.87-9.03,3.87-4.12,0-7.29-1.45-9.51-4.35-2.22-2.9-3.33-7.05-3.33-12.45s1.11-9.68,3.33-12.6c2.22-2.92,5.39-4.38,9.51-4.38,3.8.16,6.79,1.52,8.97,4.08,2.18,2.56,3.41,6.16,3.69,10.8h12.54v-16.56h-3.9v-3.9h8.1v53.52ZM308.76,707.82c0,4.12.75,7.3,2.25,9.54s3.63,3.36,6.39,3.36,4.82-1.12,6.3-3.36c1.48-2.24,2.22-5.42,2.22-9.54s-.74-7.43-2.22-9.69c-1.48-2.26-3.58-3.39-6.3-3.39s-4.89,1.13-6.39,3.39-2.25,5.49-2.25,9.69Z"/><path class="cls-13" d="M434.76,732.24h-49.2v-3.9h49.2v3.9ZM427.2,716.64h-34.08v-26.94h34.08v3.9h-29.88v7.62h29.88v3.9h-29.88v7.62h29.88v3.9Z"/><path class="cls-13" d="M470.94,737.82h-4.2v-34.2h-9.9v6.06h-14.46l-.12,12.36h19.62v3.9h-23.82v-3.9l.12-15.66v-.6h14.46v-10.74h-14.58v-3.9h18.78v8.58h9.9v-10.26h-3.9v-3.9h8.1v52.26ZM481.68,737.82h-4.2v-52.26h4.2v52.26Z"/><path class="cls-13" d="M488.94,708.3c0-3.48.54-6.49,1.62-9.03,1.08-2.54,2.63-4.5,4.65-5.88,2.02-1.38,4.41-2.07,7.17-2.07,2.72.08,5.08.83,7.08,2.25,2,1.42,3.54,3.38,4.62,5.88s1.62,5.45,1.62,8.85-.54,6.42-1.62,8.94-2.62,4.46-4.62,5.82c-2,1.36-4.36,2.04-7.08,2.04s-5.15-.68-7.17-2.04c-2.02-1.36-3.57-3.3-4.65-5.82s-1.62-5.5-1.62-8.94ZM493.14,708.3c0,3.96.83,7.1,2.49,9.42,1.66,2.32,3.91,3.48,6.75,3.48s5.02-1.16,6.66-3.48c1.64-2.32,2.46-5.46,2.46-9.42s-.82-7.23-2.46-9.57c-1.64-2.34-3.86-3.51-6.66-3.51s-5.09,1.17-6.75,3.51c-1.66,2.34-2.49,5.53-2.49,9.57ZM529.98,737.94h-4.2v-49.38h-3.9v-3.9h8.1v53.28Z"/><path class="cls-13" d="M580.08,716.52h-4.2v-3.84h-35.28v-23.22h4.2v19.32h31.08v-19.32h-3.9v-3.9h8.1v30.96ZM546.36,727.86c0-3.32,1.49-5.87,4.47-7.65s7.25-2.67,12.81-2.67,9.83.89,12.81,2.67c2.98,1.78,4.47,4.33,4.47,7.65s-1.49,5.82-4.47,7.62c-2.98,1.8-7.25,2.7-12.81,2.7s-9.83-.9-12.81-2.7-4.47-4.34-4.47-7.62ZM550.44,727.86c0,2.08,1.14,3.69,3.42,4.83,2.28,1.14,5.54,1.71,9.78,1.71s7.5-.57,9.78-1.71c2.28-1.14,3.42-2.75,3.42-4.83s-1.14-3.74-3.42-4.86c-2.28-1.12-5.54-1.68-9.78-1.68s-7.5.56-9.78,1.68c-2.28,1.12-3.42,2.74-3.42,4.86Z"/><path class="cls-13" d="M589.02,723.66c2.44-2.96,4.5-5.91,6.18-8.85,1.68-2.94,3-6.02,3.96-9.24.96-3.22,1.56-6.75,1.8-10.59h-11.04v-3.9h28.08c-.04,4-.25,7.69-.63,11.07-.38,3.38-.99,6.58-1.83,9.6-.84,3.02-1.99,5.96-3.45,8.82-1.46,2.86-3.27,5.79-5.43,8.79l-3.54-2.22c2.4-3.4,4.35-6.73,5.85-9.99,1.5-3.26,2.63-6.68,3.39-10.26s1.22-7.55,1.38-11.91h-8.82c-.24,4.36-.83,8.34-1.77,11.94-.94,3.6-2.3,6.98-4.08,10.14-1.78,3.16-4.03,6.28-6.75,9.36l-3.3-2.76ZM628.98,737.88h-4.2v-48.12h-3.9v-3.9h8.1v21.06h8.88v3.9h-8.88v27.06Z"/><path class="cls-13" d="M641.64,726.83l-3-2.64,13.86-15.78v-13.92h-12.12v-3.9h28.62v3.9h-12.3v13.92l13.86,15.78-3,2.64-12.96-14.7-12.96,14.7ZM681.6,737.94h-4.2v-49.38h-3.9v-3.9h8.1v53.28Z"/><path class="cls-13" d="M724.2,716.7l-2.7-2.82,13.8-13.26v-7.74h-12.06v-3.9h28.38v3.9h-12.12v8.1l13.86,12.9-2.7,2.82-13.5-12.48-12.96,12.48ZM730.98,737.4v-17.1h4.2v13.2h31.86v3.9h-36.06ZM760.08,687.96h-3.9v-3.6h8.1v39.48h-4.2v-35.88Z"/><path class="cls-13" d="M797.28,695.58h-25.62v-3.9h10.74v-6.12h4.2v6.12h10.68v3.9ZM773.4,707.16c0-1.84.48-3.46,1.44-4.86.96-1.4,2.28-2.5,3.96-3.3,1.68-.8,3.6-1.2,5.76-1.2s4.07.4,5.73,1.2c1.66.8,2.96,1.9,3.9,3.3s1.41,3.02,1.41,4.86-.47,3.39-1.41,4.77c-.94,1.38-2.24,2.47-3.9,3.27s-3.57,1.2-5.73,1.2-4.08-.4-5.76-1.2c-1.68-.8-3-1.89-3.96-3.27-.96-1.38-1.44-2.97-1.44-4.77ZM777.6,707.22c0,1.56.65,2.83,1.95,3.81,1.3.98,2.97,1.47,5.01,1.47s3.64-.49,4.92-1.47c1.28-.98,1.92-2.21,1.92-3.69,0-1.64-.64-2.99-1.92-4.05-1.28-1.06-2.92-1.59-4.92-1.59s-3.71.51-5.01,1.53c-1.3,1.02-1.95,2.35-1.95,3.99ZM781.86,729.54c0-3.08,1.49-5.44,4.47-7.08,2.98-1.64,7.23-2.46,12.75-2.46,5.52-.04,9.77.77,12.75,2.43,2.98,1.66,4.47,4.03,4.47,7.11s-1.49,5.39-4.47,7.05c-2.98,1.66-7.23,2.49-12.75,2.49s-9.77-.83-12.75-2.49c-2.98-1.66-4.47-4.01-4.47-7.05ZM785.94,729.54c0,1.8,1.14,3.19,3.42,4.17,2.28.98,5.52,1.47,9.72,1.47s7.44-.49,9.72-1.47c2.28-.98,3.42-2.37,3.42-4.17s-1.14-3.19-3.42-4.17c-2.28-.98-5.52-1.47-9.72-1.47s-7.44.49-9.72,1.47c-2.28.98-3.42,2.37-3.42,4.17ZM815.88,717.54h-4.2v-13.62h-6.72v13.62h-4.2v-28.32h-3.9v-3.9h8.1v14.7h6.72v-14.46h4.2v31.98Z"/><path class="cls-13" d="M100.14,871.67h-30.54v-3.9h13.2v-8.82h4.2v8.82h13.14v3.9ZM84.9,899.39c-2.32,0-4.42-.52-6.3-1.56-1.88-1.04-3.37-2.43-4.47-4.17-1.1-1.74-1.65-3.69-1.65-5.85s.55-4.17,1.65-5.91c1.1-1.74,2.59-3.13,4.47-4.17,1.88-1.04,3.98-1.56,6.3-1.56s4.35.52,6.21,1.56c1.86,1.04,3.33,2.43,4.41,4.17s1.62,3.71,1.62,5.91-.54,4.11-1.62,5.85-2.55,3.13-4.41,4.17c-1.86,1.04-3.93,1.56-6.21,1.56ZM76.68,887.93c0,1.4.36,2.68,1.08,3.84.72,1.16,1.71,2.07,2.97,2.73s2.65.99,4.17.99,2.88-.33,4.08-.99,2.16-1.56,2.88-2.7,1.08-2.39,1.08-3.75c0-1.48-.36-2.82-1.08-4.02-.72-1.2-1.68-2.16-2.88-2.88s-2.56-1.08-4.08-1.08-2.91.35-4.17,1.05-2.25,1.64-2.97,2.82c-.72,1.18-1.08,2.51-1.08,3.99ZM104.88,861.89h-3.9v-3.9h8.1v21.66h10.8v3.9h-10.8v27.72h-4.2v-49.38Z"/><path class="cls-13" d="M121.74,881.63c0-3.48.54-6.49,1.62-9.03,1.08-2.54,2.63-4.5,4.65-5.88s4.41-2.07,7.17-2.07c2.72.08,5.08.83,7.08,2.25s3.54,3.38,4.62,5.88,1.62,5.45,1.62,8.85-.54,6.42-1.62,8.94-2.62,4.46-4.62,5.82-4.36,2.04-7.08,2.04-5.15-.68-7.17-2.04-3.57-3.3-4.65-5.82-1.62-5.5-1.62-8.94ZM125.94,881.63c0,3.96.83,7.1,2.49,9.42s3.91,3.48,6.75,3.48,5.02-1.16,6.66-3.48c1.64-2.32,2.46-5.46,2.46-9.42s-.82-7.23-2.46-9.57c-1.64-2.34-3.86-3.51-6.66-3.51s-5.09,1.17-6.75,3.51-2.49,5.53-2.49,9.57ZM162.78,911.27h-4.2v-49.38h-3.9v-3.9h8.1v53.28Z"/><path class="cls-13" d="M195.9,885.41h-23.34v-23.46h19.68v3.9h-15.48v5.7h13.62v3.9h-13.62v6.06h19.14v3.9ZM210.9,893.87h-30.48v-3.9h34.68v12.42h-30.48v5.1h32.82v3.9h-37.02v-12.9h30.48v-4.62ZM201.3,875.45h-8.28v-3.9h8.28v-8.52h-3.9v-3.9h8.1v28.2h-4.2v-11.88ZM215.16,887.33h-4.2v-28.2h4.2v28.2Z"/><path class="cls-13" d="M254.94,911.15h-4.2v-34.2h-9.9v6.06h-14.46l-.12,12.36h19.62v3.9h-23.82v-3.9l.12-15.66v-.6h14.46v-10.74h-14.58v-3.9h18.78v8.58h9.9v-10.26h-3.9v-3.9h8.1v52.26ZM265.68,911.15h-4.2v-52.26h4.2v52.26Z"/><path class="cls-13" d="M274.08,899.51l-3.06-2.4,13.68-15.54v-18.18h4.2v17.94l14.34,15.72-3,2.46-13.32-14.64-12.84,14.64ZM314.34,911.27h-4.2v-31.38h-12.24v-3.9h12.24v-14.1h-3.9v-3.9h8.1v53.28Z"/><path class="cls-13" d="M348.54,896.27h-24.12v-32.22h4.2v13.62h15.72v-13.62h4.2v32.22ZM328.62,881.57v10.8h15.72v-10.8h-15.72ZM364.44,911.27h-4.2v-49.68h-3.9v-3.6h8.1v53.28Z"/><path class="cls-13" d="M420.36,905.27h-48.9v-3.9h48.9v3.9ZM377.34,889.01l-2.1-3.3,18.48-12.72v-10.8h4.2v10.8l18.48,12.72-2.1,3.3-18.48-12.72-18.48,12.72Z"/><path class="cls-13" d="M470.1,889.01h-47.88v-3.9h47.88v3.9ZM465.18,910.13h-36.9v-15.54h4.2v11.64h32.7v3.9ZM463.56,877.97h-33.84v-18.36h4.2v14.46h29.64v3.9Z"/><path class="cls-13" d="M527.4,889.07h-22.74v-3.9h47.46v3.9h-20.52v10.92h-4.2v-10.92ZM547.62,910.73h-36.18v-16.02h4.2v12.12h31.98v3.9ZM546.36,878.99h-33.96v-19.02h33.96v19.02ZM516.6,863.87v11.22h25.56v-11.22h-25.56Z"/><path class="cls-13" d="M596.1,911.81h-4.2v-9.96h-36.66v-3.9h14.22v-5.64c-1.92-.32-3.64-.96-5.16-1.92-1.52-.96-2.72-2.17-3.6-3.63-.88-1.46-1.32-3.05-1.32-4.77,0-1.96.55-3.73,1.65-5.31,1.1-1.58,2.59-2.84,4.47-3.78,1.88-.94,3.96-1.41,6.24-1.41s4.33.47,6.15,1.41c1.82.94,3.27,2.2,4.35,3.78,1.08,1.58,1.62,3.35,1.62,5.31,0,1.76-.45,3.38-1.35,4.86-.9,1.48-2.11,2.7-3.63,3.66-1.52.96-3.26,1.58-5.22,1.86v5.58h18.24v-36.3h-3.9v-3.9h8.1v24.12h8.82v3.9h-8.82v26.04ZM586.74,868.91h-31.08v-3.78h13.92v-7.44h4.08v7.44h13.08v3.78ZM563.58,882.05c0,1.2.36,2.3,1.08,3.3.72,1,1.7,1.79,2.94,2.37,1.24.58,2.62.87,4.14.87s2.82-.28,4.02-.84c1.2-.56,2.15-1.33,2.85-2.31s1.05-2.07,1.05-3.27c0-1.28-.35-2.43-1.05-3.45s-1.65-1.83-2.85-2.43c-1.2-.6-2.54-.9-4.02-.9s-2.9.3-4.14.9c-1.24.6-2.22,1.4-2.94,2.4-.72,1-1.08,2.12-1.08,3.36Z"/><path class="cls-13" d="M640.14,911.15h-4.2v-28.92h-7.14c-.4,9.36-4.22,14.04-11.46,14.04-7.76,0-11.64-5.3-11.64-15.9s3.88-16.08,11.64-16.08c7.16.24,10.98,4.92,11.46,14.04h7.14v-16.74h-3.9v-3.9h8.1v53.46ZM609.9,880.37c0,8,2.48,12,7.44,12s7.32-4,7.32-12-2.44-12.18-7.32-12.18-7.44,4.06-7.44,12.18ZM650.64,911.15h-4.2v-53.46h4.2v53.46Z"/><path class="cls-13" d="M714.66,885.17h-23.4v-22.8h23.4v22.8ZM696.24,911.39l-2.04-3.18,17.46-9.54v-3.42h-14.82v-3.78h33.66v3.78h-14.76v3.48l17.34,9.48-2.04,3.18-17.4-9.54-17.4,9.54ZM695.46,866.27v15h15v-15h-15ZM725.28,862.13h-3.9v-3.9h8.1v12.24h8.46v3.9h-8.46v14.16h-4.2v-26.4Z"/><path class="cls-13" d="M786.9,889.01h-47.88v-3.9h47.88v3.9ZM781.98,910.13h-36.9v-15.54h4.2v11.64h32.7v3.9ZM780.36,877.97h-33.84v-18.36h4.2v14.46h29.64v3.9Z"/><path class="cls-13" d="M97.8,983.6h-26.34v-30.9h19.62v3.9h-15.42v23.1h22.14v-30.12h-3.9v-3.9h8.1v20.34h7.74v-20.34h4.2v52.14h-4.2v-27.9h-7.74v27.9h-4.2v-14.22Z"/><path class="cls-13" d="M160.5,998.48h-4.2v-9.96h-36.66v-3.9h14.22v-5.64c-1.92-.32-3.64-.96-5.16-1.92-1.52-.96-2.72-2.17-3.6-3.63-.88-1.46-1.32-3.05-1.32-4.77,0-1.96.55-3.73,1.65-5.31,1.1-1.58,2.59-2.84,4.47-3.78,1.88-.94,3.96-1.41,6.24-1.41s4.33.47,6.15,1.41c1.82.94,3.27,2.2,4.35,3.78,1.08,1.58,1.62,3.35,1.62,5.31,0,1.76-.45,3.38-1.35,4.86-.9,1.48-2.11,2.7-3.63,3.66-1.52.96-3.26,1.58-5.22,1.86v5.58h18.24v-36.3h-3.9v-3.9h8.1v24.12h8.82v3.9h-8.82v26.04ZM151.14,955.58h-31.08v-3.78h13.92v-7.44h4.08v7.44h13.08v3.78ZM127.98,968.72c0,1.2.36,2.3,1.08,3.3.72,1,1.7,1.79,2.94,2.37,1.24.58,2.62.87,4.14.87s2.82-.28,4.02-.84c1.2-.56,2.15-1.33,2.85-2.31.7-.98,1.05-2.07,1.05-3.27,0-1.28-.35-2.43-1.05-3.45-.7-1.02-1.65-1.83-2.85-2.43-1.2-.6-2.54-.9-4.02-.9s-2.9.3-4.14.9c-1.24.6-2.22,1.4-2.94,2.4-.72,1-1.08,2.12-1.08,3.36Z"/><path class="cls-13" d="M218.58,974.18h-48.06v-3.9h48.06v3.9ZM212.4,997.34h-35.34v-11.64h30.6v-3.6h-30.6v-3.9h34.8v11.1h-30.6v4.14h31.14v3.9ZM207.72,950.84h-30.6v-3.9h34.8v11.22h-30.6v4.44h31.14v3.9h-35.34v-11.94h30.6v-3.72Z"/><path class="cls-13" d="M289.08,984.02h-33.66l.12-34.08h4.2l-.12,30.18h29.46v-30.66h-3.9v-3.9h8.1v21.3h9.36v3.9h-9.36v26.82h-4.2v-13.56Z"/><path class="cls-13" d="M309.78,998.24v-13.62h31.26v-4.38h-31.26v-3.6h15.78v-6.06h-22.5v-3.9h47.46v3.9h-21.06v6.06h15.48v11.58h-31.32v6.42h33.72v3.6h-37.56ZM344.46,962.24h-34.26v-16.68h4.2v12.78h30.06v3.9Z"/><path class="cls-13" d="M370.74,947.36h13.26v3.54l-9.48-.06v3.6h4.56v6.6h-8.34v-13.68Z"/><path class="cls-13" d="M414.6,983.6h-26.34v-30.9h19.62v3.9h-15.42v23.1h22.14v-30.12h-3.9v-3.9h8.1v20.34h7.74v-20.34h4.2v52.14h-4.2v-27.9h-7.74v27.9h-4.2v-14.22Z"/><path class="cls-13" d="M477.3,998.48h-4.2v-9.96h-36.66v-3.9h14.22v-5.64c-1.92-.32-3.64-.96-5.16-1.92-1.52-.96-2.72-2.17-3.6-3.63-.88-1.46-1.32-3.05-1.32-4.77,0-1.96.55-3.73,1.65-5.31,1.1-1.58,2.59-2.84,4.47-3.78,1.88-.94,3.96-1.41,6.24-1.41s4.33.47,6.15,1.41c1.82.94,3.27,2.2,4.35,3.78s1.62,3.35,1.62,5.31c0,1.76-.45,3.38-1.35,4.86-.9,1.48-2.11,2.7-3.63,3.66-1.52.96-3.26,1.58-5.22,1.86v5.58h18.24v-36.3h-3.9v-3.9h8.1v24.12h8.82v3.9h-8.82v26.04ZM467.94,955.58h-31.08v-3.78h13.92v-7.44h4.08v7.44h13.08v3.78ZM444.78,968.72c0,1.2.36,2.3,1.08,3.3.72,1,1.7,1.79,2.94,2.37,1.24.58,2.62.87,4.14.87s2.82-.28,4.02-.84c1.2-.56,2.15-1.33,2.85-2.31.7-.98,1.05-2.07,1.05-3.27,0-1.28-.35-2.43-1.05-3.45-.7-1.02-1.65-1.83-2.85-2.43-1.2-.6-2.54-.9-4.02-.9s-2.9.3-4.14.9-2.22,1.4-2.94,2.4c-.72,1-1.08,2.12-1.08,3.36Z"/><path class="cls-13" d="M535.56,991.94h-48.9v-3.9h48.9v3.9ZM492.54,975.68l-2.1-3.3,18.48-12.72v-10.8h4.2v10.8l18.48,12.72-2.1,3.3-18.48-12.72-18.48,12.72Z"/><path class="cls-13" d="M584.7,991.4h-46.5v-3.9h36v-18.78h-32.28v-3.9h32.28v-11.22h-29.88v-3.9h34.08v37.8h6.3v3.9Z"/><path class="cls-13" d="M626.4,972.14h-35.82v-14.64h19.68v-6.24h-19.92v-3.78h24v13.8h-19.68v7.08h31.74v-20.34h-3.9v-3.3h8.1v29.52h-4.2v-2.1ZM630.66,997.28h-32.7v-20.82h4.2v7.14h24.3v-6.96h4.2v20.64ZM602.16,987.5v5.88h24.3v-5.88h-24.3Z"/><path class="cls-13" d="M686.76,992.24h-49.2v-3.9h49.2v3.9ZM679.2,976.64h-34.08v-26.94h34.08v3.9h-29.88v7.62h29.88v3.9h-29.88v7.62h29.88v3.9Z"/><path class="cls-13" d="M701.58,961.1h-13.26v-3.54l9.48.06v-3.6h-4.56v-6.6h8.34v13.68Z"/><path class="cls-13" d="M769.38,974.18h-48.06v-3.9h48.06v3.9ZM763.2,997.34h-35.34v-11.64h30.6v-3.6h-30.6v-3.9h34.8v11.1h-30.6v4.14h31.14v3.9ZM758.52,950.84h-30.6v-3.9h34.8v11.22h-30.6v4.44h31.14v3.9h-35.34v-11.94h30.6v-3.72Z"/><path class="cls-13" d="M829.86,973.64h-23.4v-24.18h23.4v24.18ZM810.66,953.36v16.38h15v-16.38h-15ZM848.58,997.22h-35.04v-17.76h4.2v13.86h30.84v3.9ZM840.36,948.62h-3.9v-3.9h8.1v16.44h8.58v3.9h-8.58v18.96h-4.2v-35.4Z"/><path class="cls-13" d="M902.58,973.34h-48.66v-3.9h48.66v3.9ZM896.4,997.34h-35.34v-11.64h30.6v-3.6h-30.6v-3.9h34.8v11.1h-30.6v4.14h31.14v3.9ZM894.78,965.24h-33.6v-17.76h33.6v3.72h-29.58v10.32h29.58v3.72Z"/><path class="cls-13" d="M951.9,991.4h-46.5v-3.9h18.54v-19.02h4.2v19.02h13.26v-33.9h-29.88v-3.9h34.08v37.8h6.3v3.9Z"/><path class="cls-13" d="M70.56,1140.67c0-5.48,1.11-9.68,3.33-12.6,2.22-2.92,5.39-4.38,9.51-4.38,4.08.16,7.22,1.71,9.42,4.65,2.2,2.94,3.3,7.05,3.3,12.33s-1.1,9.55-3.3,12.45c-2.2,2.9-5.34,4.35-9.42,4.35s-7.29-1.45-9.51-4.35c-2.22-2.9-3.33-7.05-3.33-12.45ZM74.76,1140.67c0,4.12.75,7.3,2.25,9.54s3.63,3.36,6.39,3.36,4.82-1.12,6.3-3.36c1.48-2.24,2.22-5.42,2.22-9.54s-.74-7.43-2.22-9.69c-1.48-2.26-3.58-3.39-6.3-3.39s-4.89,1.13-6.39,3.39-2.25,5.49-2.25,9.69ZM109.8,1172.11h-4.2v-49.62h-3.9v-3.9h8.1v21.48h9.66v3.9h-9.66v28.14Z"/><path class="cls-13" d="M166.68,1150.39h-45.66v-3.9h45.66v3.9ZM162.12,1171.15h-36.48v-15.78h36.48v15.78ZM156.72,1123.75h-30v-3.9h34.2v13.08h-30v5.1h30.84v3.9h-35.04v-12.9h30v-5.28ZM129.84,1159.27v7.98h28.08v-7.98h-28.08Z"/><path class="cls-13" d="M206.52,1156.69h-33.78l.12-29.46v-2.22h24.18v3.9h-19.98l-.12,23.88h29.58v-31.2h-3.9v-3.9h8.1v21.3h9.24v3.9h-9.24v28.02h-4.2v-14.22Z"/><path class="cls-13" d="M242.58,1149.85h-21.9v-3.9h47.94v3.9h-21.84v11.04h-4.2v-11.04ZM227.04,1170.91v-15.36h4.2v11.46h31.62v3.9h-35.82ZM227.94,1130.53c0-3.28,1.51-5.87,4.53-7.77,3.02-1.9,7.09-2.85,12.21-2.85s9.19.95,12.21,2.85c3.02,1.9,4.53,4.49,4.53,7.77s-1.51,5.88-4.53,7.8-7.09,2.88-12.21,2.88-9.19-.96-12.21-2.88-4.53-4.52-4.53-7.8ZM232.14,1130.59c0,2.08,1.13,3.73,3.39,4.95s5.31,1.83,9.15,1.83,6.89-.61,9.15-1.83c2.26-1.22,3.39-2.87,3.39-4.95s-1.13-3.72-3.39-4.92c-2.26-1.2-5.31-1.8-9.15-1.8s-6.89.6-9.15,1.8c-2.26,1.2-3.39,2.84-3.39,4.92Z"/><path class="cls-13" d="M282.24,1129.33h-10.26v-3.9h24.3v3.9h-9.84v12.3l10.98,13.98-3,2.46-10.14-13.08-11.4,13.92-2.94-2.58,12.3-14.88v-12.12ZM300.06,1122.01h-4.08v-3.9h8.28v19.08h7.5v-19.08h4.2v53.04h-4.2v-30.06h-7.5v30.06h-4.2v-49.14Z"/><path class="cls-13" d="M358.14,1147.87h-34.14v-24.72h23.4v3.9h-19.2v16.92h29.94v-21.18h-3.9v-3.9h8.1v15.6h8.7v3.9h-8.7v18.96h-4.2v-9.48ZM365.28,1171.15h-35.58v-17.58h4.2v13.68h31.38v3.9Z"/><path class="cls-13" d="M419.4,1150.33h-47.46v-3.9h47.46v3.9ZM378.24,1171.09v-15.36h4.2v11.46h31.62v3.9h-35.82ZM378.72,1131.31c0-2,.73-3.78,2.19-5.34,1.46-1.56,3.49-2.78,6.09-3.66,2.6-.88,5.56-1.32,8.88-1.32s6.33.44,8.91,1.32c2.58.88,4.61,2.1,6.09,3.66,1.48,1.56,2.22,3.34,2.22,5.34s-.74,3.78-2.22,5.34c-1.48,1.56-3.51,2.78-6.09,3.66-2.58.88-5.55,1.32-8.91,1.32s-6.28-.44-8.88-1.32c-2.6-.88-4.63-2.1-6.09-3.66-1.46-1.56-2.19-3.34-2.19-5.34ZM382.92,1131.37c0,1.24.56,2.34,1.68,3.3,1.12.96,2.65,1.71,4.59,2.25,1.94.54,4.17.81,6.69.81s4.81-.27,6.75-.81c1.94-.54,3.47-1.29,4.59-2.25,1.12-.96,1.68-2.06,1.68-3.3s-.56-2.4-1.68-3.36c-1.12-.96-2.65-1.72-4.59-2.28-1.94-.56-4.19-.84-6.75-.84s-4.75.28-6.69.84c-1.94.56-3.47,1.32-4.59,2.28-1.12.96-1.68,2.08-1.68,3.36Z"/><path class="cls-13" d="M483.18,1164.37h-26.76v-4.2h12.3v-32.82l-9.18,9.66-2.94-2.64,12.12-12.6h4.5v38.4h9.96v4.2Z"/><path class="cls-13" d="M518.22,1150.15h-28.2v-27.78h4.2v23.88h24v3.9ZM532.26,1171.27h-35.16v-16.2h4.2v12.3h30.96v3.9ZM525.84,1140.19h-14.94v-3.9h14.94v-4.86h-14.94v-3.9h14.94v-5.58h-3.9v-3.9h8.1v39.3h-4.2v-17.16Z"/><path class="cls-13" d="M602.4,1170.91h-4.2v-13.08h-26.04v-33.6h4.2v29.7h21.84v-32.1h-3.9v-3.9h8.1v21.9h8.58v-21.9h4.2v52.98h-4.2v-27.18h-8.58v27.18Z"/><path class="cls-13" d="M652.8,1170.91h-4.2v-13.08h-26.04v-33.6h4.2v29.7h21.84v-32.1h-3.9v-3.9h8.1v21.9h8.58v-21.9h4.2v52.98h-4.2v-27.18h-8.58v27.18Z"/><path class="cls-13" d="M704.16,1146.37c1.68-.36,3.37-.91,5.07-1.65,1.7-.74,3.31-1.6,4.83-2.58,1.52-.98,2.82-1.97,3.9-2.97,2-1.88,3.56-3.96,4.68-6.24,1.12-2.28,1.82-4.52,2.1-6.72h-18.9v-4.08h23.22v1.08c0,2.32-.36,4.63-1.08,6.93-.72,2.3-1.71,4.46-2.97,6.48-1.26,2.02-2.69,3.79-4.29,5.31-1.88,1.76-4.19,3.39-6.93,4.89-2.74,1.5-5.49,2.55-8.25,3.15l-1.38-3.6ZM746.58,1169.95h-35.04v-17.16h4.2v13.26h30.84v3.9ZM739.56,1121.95h-3.9v-3.9h8.1v16.44h8.58v3.9h-8.58v18.96h-4.2v-35.4Z"/><path class="cls-13" d="M755.7,1160.05l-3.06-2.4,13.92-17.58v-17.04h4.2v17.04l13.98,17.58-3.12,2.4-12.96-16.32-12.96,16.32ZM793.8,1171.27h-4.2v-49.68h-3.9v-3.6h8.1v20.4h8.88v3.9h-8.88v28.98Z"/><path class="cls-13" d="M846.72,1148.59h-4.2v-4.44h-34.98v-23.28h4.2v19.38h30.78v-18.24h-3.9v-3.6h8.1v30.18ZM813.72,1169.05h-.06v-17.1h32.94v18.96h-32.88v-1.86ZM817.74,1155.73v11.4h24.78v-11.4h-24.78Z"/><path class="cls-13" d="M902.58,1146.67h-48.66v-3.9h48.66v3.9ZM896.4,1170.67h-35.34v-11.64h30.6v-3.6h-30.6v-3.9h34.8v11.1h-30.6v4.14h31.14v3.9ZM894.78,1138.57h-33.6v-17.76h33.6v3.72h-29.58v10.32h29.58v3.72Z"/><path class="cls-13" d="M906.54,1141.63c0-3.48.54-6.49,1.62-9.03,1.08-2.54,2.63-4.5,4.65-5.88s4.41-2.07,7.17-2.07c2.72.08,5.08.83,7.08,2.25s3.54,3.38,4.62,5.88,1.62,5.45,1.62,8.85-.54,6.42-1.62,8.94-2.62,4.46-4.62,5.82-4.36,2.04-7.08,2.04-5.15-.68-7.17-2.04-3.57-3.3-4.65-5.82c-1.08-2.52-1.62-5.5-1.62-8.94ZM910.74,1141.63c0,3.96.83,7.1,2.49,9.42s3.91,3.48,6.75,3.48,5.02-1.16,6.66-3.48,2.46-5.46,2.46-9.42-.82-7.23-2.46-9.57-3.86-3.51-6.66-3.51-5.09,1.17-6.75,3.51-2.49,5.53-2.49,9.57ZM947.58,1171.27h-4.2v-49.38h-3.9v-3.9h8.1v53.28Z"/><path class="cls-13" d="M116.7,1251.4h-46.5v-3.9h18.54v-19.02h4.2v19.02h13.26v-33.9h-29.88v-3.9h34.08v37.8h6.3v3.9Z"/><path class="cls-13" d="M131.1,1218.88v-10.32h4.2v10.8l11.22,12.36-2.94,2.58-10.56-11.58-10.62,11.58-2.94-2.58,11.64-12.84ZM130.8,1247.62c0-3.16,1.49-5.59,4.47-7.29,2.98-1.7,7.25-2.55,12.81-2.55s9.83.85,12.81,2.55c2.98,1.7,4.47,4.13,4.47,7.29s-1.49,5.59-4.47,7.29c-2.98,1.7-7.25,2.55-12.81,2.55s-9.83-.85-12.81-2.55c-2.98-1.7-4.47-4.13-4.47-7.29ZM134.88,1247.62c0,1.96,1.14,3.46,3.42,4.5s5.54,1.56,9.78,1.56,7.5-.52,9.78-1.56c2.28-1.04,3.42-2.54,3.42-4.5s-1.14-3.46-3.42-4.5c-2.28-1.04-5.54-1.56-9.78-1.56s-7.5.52-9.78,1.56c-2.28,1.04-3.42,2.54-3.42,4.5ZM149.04,1209.22h-3.9v-3.9h8.1v12.96h6.84v-12.96h4.2v30.96h-4.2v-14.1h-6.84v14.1h-4.2v-27.06Z"/><path class="cls-13" d="M200.7,1215.58h-29.76v-3.9h12.48v-6.12h4.2v6.12h13.08v3.9ZM173.58,1228.6c0-2,.53-3.77,1.59-5.31,1.06-1.54,2.53-2.75,4.41-3.63,1.88-.88,4.02-1.32,6.42-1.32s4.52.44,6.36,1.32c1.84.88,3.28,2.09,4.32,3.63,1.04,1.54,1.56,3.31,1.56,5.31s-.52,3.78-1.56,5.34c-1.04,1.56-2.48,2.78-4.32,3.66-1.84.88-3.96,1.32-6.36,1.32s-4.54-.44-6.42-1.32c-1.88-.88-3.35-2.1-4.41-3.66-1.06-1.56-1.59-3.34-1.59-5.34ZM177.78,1228.66c0,1.84.77,3.36,2.31,4.56,1.54,1.2,3.51,1.8,5.91,1.8s4.29-.58,5.79-1.74,2.25-2.66,2.25-4.5-.75-3.49-2.25-4.71-3.43-1.83-5.79-1.83-4.37.6-5.91,1.8c-1.54,1.2-2.31,2.74-2.31,4.62ZM178.74,1257.7v-15h4.2v11.1h32.4v3.9h-36.6ZM207.06,1208.56h-3.9v-3.9h8.1v18.78h8.64v3.9h-8.64v18.66h-4.2v-37.44Z"/><path class="cls-13" d="M285.6,1257.58h-4.2v-13.08h-26.04v-33.6h4.2v29.7h21.84v-32.1h-3.9v-3.9h8.1v21.9h8.58v-21.9h4.2v52.98h-4.2v-27.18h-8.58v27.18Z"/><path class="cls-13" d="M351.12,1234.78h-48.06v-3.9h12.54v-7.32c-3.28-1.72-4.92-4.26-4.92-7.62,0-3.12,1.42-5.52,4.26-7.2,2.84-1.68,6.9-2.52,12.18-2.52s9.34.84,12.18,2.52c2.84,1.68,4.26,4.08,4.26,7.2s-1.44,5.62-4.32,7.26v7.68h11.88v3.9ZM309.18,1249.12c0-6.52,5.98-9.78,17.94-9.78s17.94,3.26,17.94,9.78-5.98,9.96-17.94,9.96-17.94-3.32-17.94-9.96ZM313.38,1249.12c0,4.04,4.58,6.06,13.74,6.06s13.74-2.02,13.74-6.06-4.58-5.88-13.74-5.88-13.74,1.96-13.74,5.88ZM314.88,1216c0,1.88,1.06,3.33,3.18,4.35,2.12,1.02,5.14,1.53,9.06,1.53s6.94-.51,9.06-1.53,3.18-2.47,3.18-4.35-1.06-3.32-3.18-4.32-5.14-1.5-9.06-1.5-6.94.5-9.06,1.5c-2.12,1-3.18,2.44-3.18,4.32ZM319.8,1225v5.88h15.24v-6c-1.12.28-2.34.49-3.66.63s-2.74.21-4.26.21c-2.76,0-5.2-.24-7.32-.72Z"/><path class="cls-13" d="M401.82,1232.38h-48.24v-3.9h48.24v3.9ZM391.62,1240.84h-31.74v-3.9h35.94v12.54h-31.74v5.04h33.36v3.9h-37.56v-12.84h31.74v-4.74ZM360.72,1215.28c0-1.84.72-3.47,2.16-4.89,1.44-1.42,3.45-2.53,6.03-3.33,2.58-.8,5.53-1.2,8.85-1.2s6.32.4,8.88,1.2c2.56.8,4.56,1.91,6,3.33,1.44,1.42,2.16,3.05,2.16,4.89s-.72,3.48-2.16,4.92-3.44,2.56-6,3.36c-2.56.8-5.52,1.2-8.88,1.2s-6.27-.4-8.85-1.2c-2.58-.8-4.59-1.92-6.03-3.36s-2.16-3.08-2.16-4.92ZM364.92,1215.28c0,1.08.55,2.05,1.65,2.91,1.1.86,2.61,1.53,4.53,2.01s4.14.72,6.66.72,4.75-.24,6.69-.72c1.94-.48,3.45-1.15,4.53-2.01,1.08-.86,1.62-1.83,1.62-2.91s-.54-2.03-1.62-2.85-2.59-1.46-4.53-1.92c-1.94-.46-4.17-.69-6.69-.69s-4.74.23-6.66.69c-1.92.46-3.43,1.1-4.53,1.92-1.1.82-1.65,1.77-1.65,2.85Z"/><path class="cls-13" d="M440.1,1235.86l-2.64-2.88,13.14-12.18v-7.86h-12.6v-3.9h28.74v3.9h-11.94v7.86l13.14,12.18-2.64,2.88-12.6-11.7-12.6,11.7ZM445.2,1249c0-3.04,1.6-5.45,4.8-7.23,3.2-1.78,7.52-2.67,12.96-2.67,3.64-.04,6.79.35,9.45,1.17,2.66.82,4.72,1.97,6.18,3.45,1.46,1.48,2.19,3.24,2.19,5.28s-.73,3.75-2.19,5.25c-1.46,1.5-3.52,2.65-6.18,3.45-2.66.8-5.81,1.2-9.45,1.2-5.44,0-9.76-.89-12.96-2.67-3.2-1.78-4.8-4.19-4.8-7.23ZM449.4,1249c0,1.84,1.22,3.3,3.66,4.38s5.74,1.62,9.9,1.62,7.47-.54,9.93-1.62c2.46-1.08,3.69-2.54,3.69-4.38s-1.23-3.3-3.69-4.38c-2.46-1.08-5.77-1.62-9.93-1.62s-7.46.54-9.9,1.62-3.66,2.54-3.66,4.38ZM475.8,1223.2h-10.8v-3.9h10.8v-10.08h-3.9v-3.9h8.1v31.98h-4.2v-14.1Z"/><path class="cls-13" d="M526.26,1244.86h-36.06l.12-17.94v-2.22h19.8v-11.4h-19.8v-3.9h24v19.2h-19.8l-.12,12.36h31.86v-32.4h-3.9v-3.9h8.1v53.28h-4.2v-13.08Z"/><path class="cls-13" d="M564.18,1218.28h-27.06v-3.9h11.34v-8.28h4.2v8.28h11.52v3.9ZM550.44,1244.32c-2.16,0-4.11-.49-5.85-1.47-1.74-.98-3.12-2.3-4.14-3.96-1.02-1.66-1.53-3.51-1.53-5.55s.51-3.95,1.53-5.61c1.02-1.66,2.4-2.98,4.14-3.96,1.74-.98,3.69-1.47,5.85-1.47s4.04.49,5.76,1.47c1.72.98,3.08,2.3,4.08,3.96,1,1.66,1.5,3.53,1.5,5.61s-.5,3.89-1.5,5.55c-1,1.66-2.36,2.98-4.08,3.96-1.72.98-3.64,1.47-5.76,1.47ZM543.12,1233.46c0,1.28.33,2.45.99,3.51.66,1.06,1.54,1.9,2.64,2.52,1.1.62,2.33.93,3.69.93,2,0,3.69-.66,5.07-1.98,1.38-1.32,2.07-2.94,2.07-4.86,0-2.08-.69-3.83-2.07-5.25-1.38-1.42-3.07-2.13-5.07-2.13-1.36,0-2.59.32-3.69.96s-1.98,1.51-2.64,2.61c-.66,1.1-.99,2.33-.99,3.69ZM566.52,1208.56h-3.3v-3.9h7.5v22.44h7.02v-22.44h4.2v53.16h-4.2v-26.82h-7.02v26.82h-4.2v-49.26Z"/><path class="cls-13" d="M657.12,1211.5h-29.28v-3.9h33.48v17.64h6v3.9h-46.08v-3.9h35.88v-13.74ZM663,1257.52h-36.24v-13.26h30.84v-5.58h-30.84v-3.9h35.04v13.38h-30.84v5.46h32.04v3.9Z"/><path class="cls-13" d="M677.52,1234.84v-15.12h29.88v-6.12h-29.88v-3.9h34.08v13.92h-29.88v7.32h29.88v3.9h-14.82v13.5h22.26v3.9h-48.72v-3.9h22.26v-13.5h-15.06Z"/><path class="cls-13" d="M775.32,1232.14h-21.66v-3.9h46.86v3.9h-21v4.8h15.96v12.3h-31.2v4.38h33v3.9h-37.2v-12.18h31.2v-4.5h-31.2v-3.9h15.24v-4.8ZM767.76,1210h-8.4v-3.9h37.2v3.9h-8.4v10.08h8.4v3.9h-37.2v-3.9h8.4v-10.08ZM771.96,1210v10.08h12v-10.08h-12Z"/><path class="cls-13" d="M847.2,1258.78h-4.2v-29.16h-12.54c-.24,4.84-1.45,8.55-3.63,11.13-2.18,2.58-5.19,3.87-9.03,3.87-4.12,0-7.29-1.45-9.51-4.35-2.22-2.9-3.33-7.05-3.33-12.45s1.11-9.68,3.33-12.6c2.22-2.92,5.39-4.38,9.51-4.38,3.8.16,6.79,1.52,8.97,4.08,2.18,2.56,3.41,6.16,3.69,10.8h12.54v-16.56h-3.9v-3.9h8.1v53.52ZM809.16,1227.82c0,4.12.75,7.3,2.25,9.54s3.63,3.36,6.39,3.36,4.82-1.12,6.3-3.36c1.48-2.24,2.22-5.42,2.22-9.54s-.74-7.43-2.22-9.69c-1.48-2.26-3.58-3.39-6.3-3.39s-4.89,1.13-6.39,3.39c-1.5,2.26-2.25,5.49-2.25,9.69Z"/><path class="cls-13" d="M858.36,1258.72l-2.88-2.52,11.16-10.14v-7.92h4.08v7.98l8.4,7.14,8.52-7.32v-7.8h4.2v8.16l11.04,10.02-2.88,2.52-10.5-9.54-10.38,8.94h-.06l-10.38-8.94-10.32,9.42ZM883.44,1231.48h-26.28v-21.84h4.2v17.94h22.08v-18.36h-4.08v-3.9h8.1v12.96h7.02v-12.96h4.02v30.36h-4.02v-13.68h-7.02v13.02h-4.02v-3.54Z"/><path class="cls-13" d="M951.9,1251.4h-46.5v-3.9h18.54v-19.02h4.2v19.02h13.26v-33.9h-29.88v-3.9h34.08v37.8h6.3v3.9Z"/><path class="cls-13" d="M95.34,1416.57h-24.24v-31.62h24.24v31.62ZM75.3,1388.85v23.82h15.84v-23.82h-15.84ZM105.6,1381.89h-3.9v-3.9h8.1v21.84h9.66v3.9h-9.66v27.54h-4.2v-49.38Z"/><path class="cls-13" d="M122.76,1408.77l-2.64-2.82,12.72-12.06v-12.6h4.2v12.54l12.78,12.12-2.7,2.82-12.18-11.58-12.18,11.58ZM128.04,1422.69c0-3.32,1.45-5.87,4.35-7.65,2.9-1.78,7.01-2.67,12.33-2.67s9.48.89,12.36,2.67c2.88,1.78,4.32,4.33,4.32,7.65s-1.44,5.82-4.32,7.62c-2.88,1.8-7,2.7-12.36,2.7s-9.43-.9-12.33-2.7c-2.9-1.8-4.35-4.34-4.35-7.62ZM132.12,1422.69c0,2.08,1.09,3.69,3.27,4.83,2.18,1.14,5.29,1.71,9.33,1.71s7.15-.57,9.33-1.71c2.18-1.14,3.27-2.75,3.27-4.83s-1.09-3.74-3.27-4.86c-2.18-1.12-5.29-1.68-9.33-1.68s-7.15.56-9.33,1.68c-2.18,1.12-3.27,2.74-3.27,4.86ZM160.62,1411.35h-4.2v-29.76h-3.9v-3.9h8.1v14.82h8.58v3.9h-8.58v14.94Z"/><path class="cls-13" d="M218.76,1425.27h-48.9v-3.9h22.26v-13.08h4.2v13.08h22.44v3.9ZM175.74,1409.01l-2.1-3.3,18.48-12.72v-10.8h4.2v10.8l18.48,12.72-2.1,3.3-18.48-12.72-18.48,12.72Z"/><path class="cls-13" d="M269.1,1425.45h-48.9v-3.9h48.9v3.9ZM262.8,1409.37h-36.48v-3.9h7.56v-18.54h-7.56v-3.9h36.48v3.9h-7.56v18.54h7.56v3.9ZM238.08,1386.93v18.54h12.96v-18.54h-12.96Z"/><path class="cls-13" d="M319.56,1425.57h-49.2v-3.9h49.2v3.9ZM312,1409.97h-34.08v-26.94h34.08v3.9h-29.88v7.62h29.88v3.9h-29.88v7.62h29.88v3.9Z"/><path class="cls-13" d="M369.3,1409.01h-47.88v-3.9h47.88v3.9ZM364.38,1430.13h-36.9v-15.54h4.2v11.64h32.7v3.9ZM362.76,1397.97h-33.84v-18.36h4.2v14.46h29.64v3.9Z"/><path class="cls-13" d="M442.74,1422.21h-37.5v-3.9h14.46v-5.58c-1.96-.28-3.72-.9-5.28-1.86-1.56-.96-2.79-2.17-3.69-3.63-.9-1.46-1.35-3.05-1.35-4.77,0-1.96.56-3.73,1.68-5.31,1.12-1.58,2.63-2.84,4.53-3.78,1.9-.94,4.01-1.41,6.33-1.41s4.41.47,6.27,1.41c1.86.94,3.34,2.2,4.44,3.78,1.1,1.58,1.65,3.35,1.65,5.31,0,1.76-.45,3.37-1.35,4.83-.9,1.46-2.13,2.67-3.69,3.63-1.56.96-3.34,1.58-5.34,1.86v5.52h18.84v-36.3h-3.3v-3.9h7.5v53.7h-4.2v-9.6ZM437.52,1389.21h-31.2v-3.9h13.38v-6.42h4.2v6.42h13.62v3.9ZM413.58,1402.53c0,1.2.37,2.29,1.11,3.27s1.74,1.76,3,2.34,2.67.87,4.23.87,2.9-.28,4.14-.84c1.24-.56,2.22-1.33,2.94-2.31.72-.98,1.08-2.07,1.08-3.27,0-1.28-.36-2.42-1.08-3.42-.72-1-1.7-1.8-2.94-2.4-1.24-.6-2.62-.9-4.14-.9s-2.97.3-4.23.9c-1.26.6-2.26,1.4-3,2.4-.74,1-1.11,2.12-1.11,3.36Z"/><path class="cls-13" d="M493.38,1419.39h-38.34v-3.9h38.28l-.06-33.54h-3.96v-3.9h8.28v53.76h-4.2v-12.42ZM459.06,1395.27c0-2.2.59-4.2,1.77-6,1.18-1.8,2.76-3.25,4.74-4.35,1.98-1.1,4.13-1.65,6.45-1.65,2.32.08,4.45.69,6.39,1.83,1.94,1.14,3.5,2.6,4.68,4.38,1.18,1.78,1.77,3.71,1.77,5.79s-.59,4.08-1.77,5.88c-1.18,1.8-2.74,3.24-4.68,4.32s-4.07,1.62-6.39,1.62-4.47-.54-6.45-1.62-3.56-2.52-4.74-4.32c-1.18-1.8-1.77-3.76-1.77-5.88ZM463.26,1395.27c0,1.4.4,2.7,1.2,3.9.8,1.2,1.87,2.16,3.21,2.88,1.34.72,2.79,1.08,4.35,1.08s3-.36,4.32-1.08c1.32-.72,2.37-1.68,3.15-2.88.78-1.2,1.17-2.5,1.17-3.9,0-1.48-.39-2.83-1.17-4.05s-1.83-2.2-3.15-2.94c-1.32-.74-2.76-1.11-4.32-1.11s-3.01.37-4.35,1.11c-1.34.74-2.41,1.72-3.21,2.94-.8,1.22-1.2,2.57-1.2,4.05Z"/><path class="cls-13" d="M508.5,1404.99l-2.64-2.88,13.26-12.3v-9.66h4.2v9.9l13.02,12.06-2.64,2.88-12.6-11.7-12.6,11.7ZM514.92,1430.97v-13.14h29.4v-4.62h-29.46v-3.9h33.66v12.42h-29.4v5.34h31.38v3.9h-35.58ZM544.32,1381.59h-3.9v-3.9h8.1v28.5h-4.2v-24.6Z"/><path class="cls-13" d="M589.74,1431.15h-4.2v-28.92h-7.14c-.4,9.36-4.22,14.04-11.46,14.04-7.76,0-11.64-5.3-11.64-15.9s3.88-16.08,11.64-16.08c7.16.24,10.98,4.92,11.46,14.04h7.14v-16.74h-3.9v-3.9h8.1v53.46ZM559.5,1400.37c0,8,2.48,12,7.44,12s7.32-4,7.32-12-2.44-12.18-7.32-12.18-7.44,4.06-7.44,12.18ZM600.24,1431.15h-4.2v-53.46h4.2v53.46Z"/><path class="cls-13" d="M608.88,1419.51l-3.06-2.4,13.68-15.54v-18.18h4.2v17.94l14.34,15.72-3,2.46-13.32-14.64-12.84,14.64ZM649.14,1431.27h-4.2v-31.38h-12.24v-3.9h12.24v-14.1h-3.9v-3.9h8.1v53.28Z"/><path class="cls-13" d="M682.26,1406.97h-23.4v-24.18h23.4v24.18ZM663.06,1386.69v16.38h15v-16.38h-15ZM700.98,1430.55h-35.04v-17.76h4.2v13.86h30.84v3.9ZM692.76,1381.95h-3.9v-3.9h8.1v16.44h8.58v3.9h-8.58v18.96h-4.2v-35.4Z"/><path class="cls-13" d="M787.44,1424.55h-48.72v-3.9h48.72v3.9ZM742.98,1410.39l-2.88-2.52,10.8-11.34v-14.64h4.08v14.46l8.22,7.44,7.98-7.26v-14.58h4.08v14.52l11.04,11.4-2.88,2.52-10.26-10.62-9.96,9.12-10.08-9.18-10.14,10.68Z"/><path class="cls-13" d="M837.3,1409.01h-47.88v-3.9h47.88v3.9ZM832.38,1430.13h-36.9v-15.54h4.2v11.64h32.7v3.9ZM830.76,1397.97h-33.84v-18.36h4.2v14.46h29.64v3.9Z"/><path class="cls-13" d="M85.32,1493.46c-2.56,0-4.87-.58-6.93-1.74-2.06-1.16-3.7-2.72-4.92-4.68-1.22-1.96-1.83-4.14-1.83-6.54s.61-4.64,1.83-6.6c1.22-1.96,2.86-3.53,4.92-4.71,2.06-1.18,4.37-1.77,6.93-1.77s4.87.59,6.93,1.77,3.7,2.76,4.92,4.74,1.83,4.19,1.83,6.63c0,2.28-.56,4.38-1.68,6.3l-13.56,24.18h-4.98l10.5-18.12c-1.24.36-2.56.54-3.96.54ZM76.14,1480.56c0,1.6.41,3.06,1.23,4.38.82,1.32,1.92,2.37,3.3,3.15,1.38.78,2.93,1.17,4.65,1.17s3.27-.39,4.65-1.17c1.38-.78,2.48-1.83,3.3-3.15.82-1.32,1.23-2.78,1.23-4.38s-.41-3.14-1.23-4.5c-.82-1.36-1.92-2.44-3.3-3.24-1.38-.8-2.93-1.2-4.65-1.2s-3.27.4-4.65,1.2c-1.38.8-2.48,1.88-3.3,3.24-.82,1.36-1.23,2.86-1.23,4.5Z"/><path class="cls-13" d="M128.82,1470.42c.2,5.4-.65,10.47-2.55,15.21s-4.68,8.98-8.34,12.72-8.05,6.85-13.17,9.33l-1.8-3.78c4.32-2.08,8.03-4.65,11.13-7.71s5.54-6.45,7.32-10.17c1.78-3.72,2.81-7.62,3.09-11.7h-19.62v-3.9h23.94ZM137.82,1468.56h-3.9v-3.9h8.1v22.5h9.12v3.9h-9.12v27.42h-4.2v-49.92Z"/><path class="cls-13" d="M155.64,1506.84l-3-2.64,13.86-15.78v-13.92h-12.12v-3.9h28.62v3.9h-12.3v13.92l13.86,15.78-3,2.64-12.96-14.7-12.96,14.7ZM195.6,1517.94h-4.2v-49.38h-3.9v-3.9h8.1v53.28Z"/><path class="cls-13" d="M257.94,1495.02h-20.46v-24.66h20.46v10.14h7.32v-11.28h-3.9v-3.9h8.1v38.7h-4.2v-19.62h-7.32v10.62ZM241.68,1474.26v16.86h12.06v-16.86h-12.06ZM245.34,1517.64v-17.16h4.2v13.26h31.8v3.9h-36ZM279.9,1504.02h-4.2v-38.7h4.2v38.7Z"/><path class="cls-13" d="M333.96,1512.24h-49.2v-3.9h49.2v3.9ZM326.4,1496.64h-34.08v-26.94h34.08v3.9h-29.88v7.62h29.88v3.9h-29.88v7.62h29.88v3.9Z"/><path class="cls-13" d="M384.18,1494.18h-48.06v-3.9h48.06v3.9ZM378,1517.34h-35.34v-11.64h30.6v-3.6h-30.6v-3.9h34.8v11.1h-30.6v4.14h31.14v3.9ZM373.32,1470.84h-30.6v-3.9h34.8v11.22h-30.6v4.44h31.14v3.9h-35.34v-11.94h30.6v-3.72Z"/><path class="cls-13" d="M422.1,1492.5l-2.64-2.88,13.14-12.18v-10.44h4.2v10.44l13.14,12.18-2.64,2.88-12.6-11.7-12.6,11.7ZM428.7,1518.42v-13.74h29.34v-4.92h-29.4v-3.9h33.6v12.72h-29.34v5.94h31.8v3.9h-36ZM457.74,1479h-12.72v-3.9h12.72v-5.88h-3.9v-3.9h8.1v27.66h-4.2v-13.98Z"/><path class="cls-13" d="M470.04,1503c5.6-3.24,9.9-7.42,12.9-12.54,2.72-4.56,4.16-9.58,4.32-15.06h-15.6v-3.9h19.86c.08,1.4.08,2.78,0,4.14-.08,1.36-.22,2.68-.42,3.96h8.1v-11.34h-3.9v-3.9h8.1v53.46h-4.2v-21.18h-10.02v-3.9h10.02v-9.24h-8.88c-.84,3.2-2.1,6.24-3.78,9.12-1.72,2.92-3.83,5.57-6.33,7.95-2.5,2.38-5.23,4.39-8.19,6.03l-1.98-3.6ZM513.72,1517.82h-4.2v-53.46h4.2v53.46Z"/><path class="cls-13" d="M550.14,1478.34h-30.54v-3.9h13.2v-8.82h4.2v8.82h13.14v3.9ZM534.9,1506.06c-2.32,0-4.42-.52-6.3-1.56-1.88-1.04-3.37-2.43-4.47-4.17-1.1-1.74-1.65-3.69-1.65-5.85s.55-4.17,1.65-5.91c1.1-1.74,2.59-3.13,4.47-4.17,1.88-1.04,3.98-1.56,6.3-1.56s4.35.52,6.21,1.56c1.86,1.04,3.33,2.43,4.41,4.17,1.08,1.74,1.62,3.71,1.62,5.91s-.54,4.11-1.62,5.85-2.55,3.13-4.41,4.17c-1.86,1.04-3.93,1.56-6.21,1.56ZM526.68,1494.6c0,1.4.36,2.68,1.08,3.84.72,1.16,1.71,2.07,2.97,2.73s2.65.99,4.17.99,2.88-.33,4.08-.99c1.2-.66,2.16-1.56,2.88-2.7.72-1.14,1.08-2.39,1.08-3.75,0-1.48-.36-2.82-1.08-4.02-.72-1.2-1.68-2.16-2.88-2.88-1.2-.72-2.56-1.08-4.08-1.08s-2.91.35-4.17,1.05c-1.26.7-2.25,1.64-2.97,2.82-.72,1.18-1.08,2.51-1.08,3.99ZM554.88,1468.56h-3.9v-3.9h8.1v21.66h10.8v3.9h-10.8v27.72h-4.2v-49.38Z"/><path class="cls-13" d="M617.1,1511.4h-46.5v-3.9h18.54v-19.02h4.2v19.02h13.26v-33.9h-29.88v-3.9h34.08v37.8h6.3v3.9Z"/><path class="cls-13" d="M674.58,1491.06h-21.6v-3.9h36.54v-15.12h-30.48v-3.9h34.68v19.02h6.66v3.9h-21.6v13.2l18.6,11.4-2.22,3.24-18.72-11.52-18.48,11.34-2.22-3.24,18.84-11.58v-12.84Z"/><path class="cls-13" d="M751.44,1511.88h-48.72v-3.9h48.72v3.9ZM708.54,1498.68l-2.1-3.3,18.48-12.72v-8.46h-16.2v-3.9h36.48v3.9h-16.08v8.46l18.48,12.72-2.1,3.3-18.48-12.72-18.48,12.72Z"/><path class="cls-13" d="M754.62,1503.66c2.44-2.96,4.5-5.91,6.18-8.85,1.68-2.94,3-6.02,3.96-9.24.96-3.22,1.56-6.75,1.8-10.59h-11.04v-3.9h28.08c-.04,4-.25,7.69-.63,11.07-.38,3.38-.99,6.58-1.83,9.6s-1.99,5.96-3.45,8.82-3.27,5.79-5.43,8.79l-3.54-2.22c2.4-3.4,4.35-6.73,5.85-9.99s2.63-6.68,3.39-10.26c.76-3.58,1.22-7.55,1.38-11.91h-8.82c-.24,4.36-.83,8.34-1.77,11.94s-2.3,6.98-4.08,10.14c-1.78,3.16-4.03,6.28-6.75,9.36l-3.3-2.76ZM794.58,1517.88h-4.2v-48.12h-3.9v-3.9h8.1v21.06h8.88v3.9h-8.88v27.06Z"/><path class="cls-13" d="M807.24,1506.84l-3-2.64,13.86-15.78v-13.92h-12.12v-3.9h28.62v3.9h-12.3v13.92l13.86,15.78-3,2.64-12.96-14.7-12.96,14.7ZM847.2,1517.94h-4.2v-49.38h-3.9v-3.9h8.1v53.28Z"/><path class="cls-13" d="M888.3,1482.42c0-2.64.57-4.98,1.71-7.02,1.14-2.04,2.71-3.63,4.71-4.77,2-1.14,4.3-1.71,6.9-1.71,2.28,0,4.33.45,6.15,1.35s3.29,2.15,4.41,3.75h13.2v-5.22h-3.9v-3.9h8.1v39.66h-4.2v-14.22h-13.14c-1.16,1.52-2.65,2.71-4.47,3.57s-3.87,1.29-6.15,1.29c-2.6,0-4.9-.54-6.9-1.62s-3.57-2.59-4.71-4.53c-1.14-1.94-1.71-4.15-1.71-6.63ZM892.5,1482.48c0,2.56.84,4.66,2.52,6.3,1.68,1.64,3.84,2.46,6.48,2.46s4.74-.83,6.42-2.49c1.68-1.66,2.52-3.77,2.52-6.33,0-2.84-.82-5.15-2.46-6.93s-3.76-2.67-6.36-2.67-4.87.9-6.57,2.7c-1.7,1.8-2.55,4.12-2.55,6.96ZM932.4,1517.52h-36.66v-17.34h4.2v13.44h32.46v3.9ZM914.1,1477.92c.44,1.44.66,2.94.66,4.5,0,1.4-.18,2.74-.54,4.02h11.16v-8.52h-11.28Z"/><path class="cls-13" d="M937.56,1490.04c12.72-3.48,19.92-9.6,21.6-18.36h-18.6v-3.9h23.82l-.12,4.08-.36,1.38h12.84v-4.92h-3.9v-3.6h8.1v27.48h-4.2v-5.16h-14.7v-3.9h14.7v-6h-14.22c-3.64,8.08-11.38,13.68-23.22,16.8l-1.74-3.9ZM976.74,1498.86h-30v-3.9h34.2v13.68h-30v5.94h31.2v3.9h-35.4v-13.74h30v-5.88Z"/><path class="cls-13" d="M987.48,1511.04v-6.66h6.66v6.66h-6.66Z"/></svg>